<svg xmlns="http://www.w3.org/2000/svg" viewBox="0 0 1589.34 996.93"><defs><style>.b38df1c8-cb73-4906-aade-cb26ec1f6507,.bc254026-4c1a-44e3-a86c-272c1b9058d1,.e450fc55-62c3-409e-86fc-f66d91d9bbcf,.ef941585-b4af-4145-a7f5-c7d4947be638{fill:none;stroke:#646464;stroke-miterlimit:10;}.bc254026-4c1a-44e3-a86c-272c1b9058d1,.e450fc55-62c3-409e-86fc-f66d91d9bbcf{stroke-width:0.5px;}.bc254026-4c1a-44e3-a86c-272c1b9058d1{stroke-dasharray:4.99 2.99;}.e642f566-7ff3-46ef-92c2-2517c2c9c20c{font-size:24px;}.a91d7e2c-07d1-438d-8fd0-f2f8e835f84a,.b1f2f996-1ce4-42a0-be04-ed881a554d20,.ba290cca-1fc4-427f-9029-a18671060c9e,.e642f566-7ff3-46ef-92c2-2517c2c9c20c{fill:#646464;}.aa8ebee8-b7fc-4c7c-9706-8c83f2a21c2b,.b1f2f996-1ce4-42a0-be04-ed881a554d20,.ba290cca-1fc4-427f-9029-a18671060c9e,.e642f566-7ff3-46ef-92c2-2517c2c9c20c{font-family:TrebuchetMS-Bold, Trebuchet MS;font-weight:700;}.b828ec3a-039f-47e3-a955-56a42566a897{letter-spacing:-0.06em;}.ba290cca-1fc4-427f-9029-a18671060c9e{font-size:11px;}.f0da3f57-d207-4395-b233-89ad736aff9c{letter-spacing:-0.02em;}.efffa24b-41b2-4a9d-9fcb-81474f35a365{letter-spacing:-0.03em;}.ae6d314b-0ce7-4194-9af3-4e92ddb0628a{letter-spacing:-0.09em;}.bcc8fd00-47fb-4db8-bca2-97aa857a0d0b{letter-spacing:-0.06em;}.ef941585-b4af-4145-a7f5-c7d4947be638{stroke-width:2px;}.aa8ebee8-b7fc-4c7c-9706-8c83f2a21c2b,.b1f2f996-1ce4-42a0-be04-ed881a554d20{font-size:10px;}.a0a08eca-6f17-4727-8688-5884091d56d4{letter-spacing:-0.09em;}.f0f22b84-2bfc-40c3-ade3-a7af33c9438a{fill:#d23138;}.aa8ebee8-b7fc-4c7c-9706-8c83f2a21c2b{fill:#fff;}.f7b21793-c1fe-4efe-ae5e-d65516724687{fill:#3eaf49;}.be8d1472-36ac-476f-a800-2959964d7ed8{letter-spacing:0.03em;}.e2e6342f-46ba-4720-9bb0-681dfefadd13{letter-spacing:-0.09em;}</style></defs><title>CDOT_diagrams_CH5-6</title><g id="bebcd247-f4f8-457b-9ec8-c30a7e2ffae1" data-name="shapes"><line class="e450fc55-62c3-409e-86fc-f66d91d9bbcf" x1="18.68" y1="292.67" x2="21.18" y2="292.67"/><line class="bc254026-4c1a-44e3-a86c-272c1b9058d1" x1="24.18" y1="292.67" x2="1571.77" y2="292.67"/><line class="e450fc55-62c3-409e-86fc-f66d91d9bbcf" x1="1573.26" y1="292.67" x2="1575.76" y2="292.67"/><line class="e450fc55-62c3-409e-86fc-f66d91d9bbcf" x1="18.68" y1="434.22" x2="21.18" y2="434.22"/><line class="bc254026-4c1a-44e3-a86c-272c1b9058d1" x1="24.18" y1="434.22" x2="1571.77" y2="434.22"/><line class="e450fc55-62c3-409e-86fc-f66d91d9bbcf" x1="1573.26" y1="434.22" x2="1575.76" y2="434.22"/><line class="e450fc55-62c3-409e-86fc-f66d91d9bbcf" x1="18.68" y1="575.19" x2="21.18" y2="575.19"/><line class="bc254026-4c1a-44e3-a86c-272c1b9058d1" x1="24.18" y1="575.19" x2="1571.77" y2="575.19"/><line class="e450fc55-62c3-409e-86fc-f66d91d9bbcf" x1="1573.26" y1="575.19" x2="1575.76" y2="575.19"/><line class="e450fc55-62c3-409e-86fc-f66d91d9bbcf" x1="18.68" y1="718.54" x2="21.18" y2="718.54"/><line class="bc254026-4c1a-44e3-a86c-272c1b9058d1" x1="24.18" y1="718.54" x2="1571.77" y2="718.54"/><line class="e450fc55-62c3-409e-86fc-f66d91d9bbcf" x1="1573.26" y1="718.54" x2="1575.76" y2="718.54"/><line class="e450fc55-62c3-409e-86fc-f66d91d9bbcf" x1="18.68" y1="863.15" x2="21.18" y2="863.15"/><line class="bc254026-4c1a-44e3-a86c-272c1b9058d1" x1="24.18" y1="863.15" x2="1571.77" y2="863.15"/><line class="e450fc55-62c3-409e-86fc-f66d91d9bbcf" x1="1573.26" y1="863.15" x2="1575.76" y2="863.15"/></g><g id="e1be3306-de6c-4aee-9cf6-a3cd1f5504dd" data-name="text"><text class="e642f566-7ff3-46ef-92c2-2517c2c9c20c" transform="translate(18.5 35.68)">5-5<tspan class="b828ec3a-039f-47e3-a955-56a42566a897" x="36.94" y="0"> </tspan><tspan x="42.84" y="0">AD</tspan><tspan class="b828ec3a-039f-47e3-a955-56a42566a897" x="73.46" y="0">A</tspan><tspan x="87.34" y="0" xml:space="preserve"> Complaint Process</tspan></text><text class="ba290cca-1fc4-427f-9029-a18671060c9e" transform="translate(43.31 213.81) rotate(-90)">Complainant</text><text class="ba290cca-1fc4-427f-9029-a18671060c9e" transform="translate(43.31 390.81) rotate(-90)">CDO<tspan class="f0da3f57-d207-4395-b233-89ad736aff9c" x="21.53" y="0">T</tspan><tspan x="28.06" y="0" xml:space="preserve"> Staff</tspan></text><text class="ba290cca-1fc4-427f-9029-a18671060c9e" transform="translate(31.38 524.78) rotate(-90)">DTR Bus <tspan x="-26.65" y="13.2">Ope</tspan><tspan class="efffa24b-41b2-4a9d-9fcb-81474f35a365" x="-6.19" y="13.2">r</tspan><tspan x="-1.83" y="13.2">ations Unit or </tspan><tspan x="-11.85" y="26.4">Subrecipient</tspan></text><text class="ba290cca-1fc4-427f-9029-a18671060c9e" transform="translate(43.32 931.24) rotate(-90) scale(0.99 1)">F<tspan class="ae6d314b-0ce7-4194-9af3-4e92ddb0628a" x="6.42" y="0">T</tspan><tspan class="bcc8fd00-47fb-4db8-bca2-97aa857a0d0b" x="12.11" y="0">A</tspan></text><text class="ba290cca-1fc4-427f-9029-a18671060c9e" transform="translate(43.32 659.9) rotate(-90) scale(0.99 1)">CRBRC</text><text class="ba290cca-1fc4-427f-9029-a18671060c9e" transform="translate(38.31 817.2) rotate(-90) scale(0.99 1)">DTR Project <tspan x="-14.81" y="13.2">Coordination Unit</tspan></text><polygon class="b38df1c8-cb73-4906-aade-cb26ec1f6507" points="1574.76 981.77 18.75 981.77 18.75 68.61 56.35 68.61 1574.76 68.61 1574.76 981.77"/><line class="b38df1c8-cb73-4906-aade-cb26ec1f6507" x1="64.85" y1="982.13" x2="64.85" y2="68.99"/><rect class="ef941585-b4af-4145-a7f5-c7d4947be638" x="96.21" y="117.76" width="91.99" height="65.5"/><text class="b1f2f996-1ce4-42a0-be04-ed881a554d20" transform="translate(126.01 138.19)">Submit <tspan x="-13.29" y="13">complaint to </tspan><tspan x="0.99" y="25">CRBRC</tspan></text><rect class="ef941585-b4af-4145-a7f5-c7d4947be638" x="281.3" y="334.09" width="91.99" height="65.5"/><text class="b1f2f996-1ce4-42a0-be04-ed881a554d20" transform="translate(290.24 354.51)">Notify CRBRC of <tspan x="13.89" y="12">complaint </tspan><tspan x="16.7" y="24">received</tspan></text><rect class="ef941585-b4af-4145-a7f5-c7d4947be638" x="264.38" y="615.87" width="125.82" height="65.2"/><text class="b1f2f996-1ce4-42a0-be04-ed881a554d20" transform="translate(294.09 637)">Notify/confirm <tspan x="-7.28" y="13">complaint receipt </tspan><tspan x="-18.05" y="25">within 5 business days</tspan></text><line class="ef941585-b4af-4145-a7f5-c7d4947be638" x1="1199.16" y1="190.79" x2="1199.16" y2="235.98"/><polygon class="a91d7e2c-07d1-438d-8fd0-f2f8e835f84a" points="1193.17 234.23 1199.16 244.59 1205.14 234.23 1193.17 234.23"/><line class="ef941585-b4af-4145-a7f5-c7d4947be638" x1="1252.35" y1="148.72" x2="1307.76" y2="148.72"/><polygon class="a91d7e2c-07d1-438d-8fd0-f2f8e835f84a" points="1306.01 154.71 1316.37 148.72 1306.01 142.74 1306.01 154.71"/><text class="b1f2f996-1ce4-42a0-be04-ed881a554d20" transform="translate(1176.47 144.26)">Satisfied?<tspan class="a0a08eca-6f17-4727-8688-5884091d56d4" x="6.4" y="13">Y</tspan><tspan x="11.62" y="13">es/No</tspan></text><polygon class="ef941585-b4af-4145-a7f5-c7d4947be638" points="1144.28 149.02 1198.63 107.28 1252.98 149.02 1198.63 190.78 1144.28 149.02"/><rect class="f0f22b84-2bfc-40c3-ade3-a7af33c9438a" x="1263.98" y="139.89" width="31.28" height="17.57"/><text class="aa8ebee8-b7fc-4c7c-9706-8c83f2a21c2b" transform="translate(1272.76 151.42)">NO</text><rect class="f7b21793-c1fe-4efe-ae5e-d65516724687" x="1183.53" y="204.92" width="31.28" height="17.57"/><text class="aa8ebee8-b7fc-4c7c-9706-8c83f2a21c2b" transform="translate(1190.7 216.45)">YES</text><polyline class="ef941585-b4af-4145-a7f5-c7d4947be638" points="140.98 181.98 140.98 648.19 253.56 648.19"/><polygon class="a91d7e2c-07d1-438d-8fd0-f2f8e835f84a" points="251.81 654.17 262.17 648.19 251.81 642.21 251.81 654.17"/><rect class="ef941585-b4af-4145-a7f5-c7d4947be638" x="997.34" y="117.76" width="91.99" height="65.5"/><text class="b1f2f996-1ce4-42a0-be04-ed881a554d20" transform="translate(1017.34 145.4)">Respond to <tspan x="6.74" y="12">decision</tspan></text><rect class="ef941585-b4af-4145-a7f5-c7d4947be638" x="1316.62" y="478.74" width="91.99" height="65.5"/><text class="b1f2f996-1ce4-42a0-be04-ed881a554d20" transform="translate(1343.88 499.6)">Develop <tspan x="-20.78" y="13">t</tspan><tspan class="efffa24b-41b2-4a9d-9fcb-81474f35a365" x="-16.82" y="13">r</tspan><tspan x="-12.86" y="13">aining/policies, </tspan><tspan x="-4.89" y="25">as needed</tspan></text><rect class="ef941585-b4af-4145-a7f5-c7d4947be638" x="1316.62" y="762.83" width="91.99" height="65.5"/><text class="b1f2f996-1ce4-42a0-be04-ed881a554d20" transform="translate(1343.88 783.69)">Develop <tspan x="-20.78" y="13">t</tspan><tspan class="efffa24b-41b2-4a9d-9fcb-81474f35a365" x="-16.82" y="13">r</tspan><tspan x="-12.86" y="13">aining/policies, </tspan><tspan x="-4.89" y="25">as needed</tspan></text><rect class="ef941585-b4af-4145-a7f5-c7d4947be638" x="1453.45" y="894.45" width="91.99" height="65.5"/><text class="b1f2f996-1ce4-42a0-be04-ed881a554d20" transform="translate(1461.66 915.31)">Act upon appeal <tspan x="5.22" y="12">in accordance </tspan><tspan x="-0.32" y="24">with procedures</tspan></text><rect class="ef941585-b4af-4145-a7f5-c7d4947be638" x="1152.75" y="247.75" width="91.99" height="35.68"/><text class="b1f2f996-1ce4-42a0-be04-ed881a554d20" transform="translate(1184.58 261.57)">Notify<tspan x="-1.04" y="13">CRBRC</tspan></text><rect class="ef941585-b4af-4145-a7f5-c7d4947be638" x="1152.75" y="771.15" width="91.99" height="49.25"/><text class="b1f2f996-1ce4-42a0-be04-ed881a554d20" transform="translate(1181.74 789.29)">Re<tspan class="be8d1472-36ac-476f-a800-2959964d7ed8" x="11.86" y="0">v</tspan><tspan x="17.44" y="0">iew</tspan><tspan x="-2.25" y="13">decision</tspan></text><rect class="ef941585-b4af-4145-a7f5-c7d4947be638" x="1318.05" y="117.76" width="147.29" height="65.5"/><text class="b1f2f996-1ce4-42a0-be04-ed881a554d20" transform="translate(1325.82 139.19)">Option to submit complaint <tspan x="25.63" y="12">to F</tspan><tspan class="e2e6342f-46ba-4720-9bb0-681dfefadd13" x="44.1" y="12">T</tspan><tspan class="b828ec3a-039f-47e3-a955-56a42566a897" x="49.27" y="12">A</tspan><tspan x="55.05" y="12" xml:space="preserve"> or USDO</tspan><tspan class="f0da3f57-d207-4395-b233-89ad736aff9c" x="96.36" y="12">T</tspan><tspan x="29.9" y="25">within 30 days</tspan></text><line class="ef941585-b4af-4145-a7f5-c7d4947be638" x1="1042.12" y1="196.42" x2="1042.12" y2="611.08"/><polygon class="a91d7e2c-07d1-438d-8fd0-f2f8e835f84a" points="1036.13 198.17 1042.12 187.81 1048.1 198.17 1036.13 198.17"/><line class="ef941585-b4af-4145-a7f5-c7d4947be638" x1="1198.5" y1="282.65" x2="1198.5" y2="599.51"/><polygon class="a91d7e2c-07d1-438d-8fd0-f2f8e835f84a" points="1192.52 597.75 1198.5 608.12 1204.48 597.75 1192.52 597.75"/><line class="ef941585-b4af-4145-a7f5-c7d4947be638" x1="1198.5" y1="684.03" x2="1198.5" y2="758.49"/><polygon class="a91d7e2c-07d1-438d-8fd0-f2f8e835f84a" points="1192.52 756.74 1198.5 767.1 1204.48 756.74 1192.52 756.74"/><rect class="ef941585-b4af-4145-a7f5-c7d4947be638" x="445.19" y="615.87" width="125.82" height="65.2"/><text class="b1f2f996-1ce4-42a0-be04-ed881a554d20" transform="translate(460.32 632.99)">Contact Complainant <tspan x="1.02" y="12">directly if additional </tspan><tspan x="-5.64" y="24">facts or documentation </tspan><tspan x="31.43" y="36">needed </tspan></text><line class="ef941585-b4af-4145-a7f5-c7d4947be638" x1="390.21" y1="648.19" x2="434.38" y2="648.19"/><polygon class="a91d7e2c-07d1-438d-8fd0-f2f8e835f84a" points="432.63 654.17 442.99 648.19 432.63 642.21 432.63 654.17"/><rect class="ef941585-b4af-4145-a7f5-c7d4947be638" x="978.07" y="610.86" width="125.82" height="74.21"/><text class="b1f2f996-1ce4-42a0-be04-ed881a554d20" transform="translate(985.82 626.6)">Mail written decision to <tspan x="6.07" y="12">Complainant no later </tspan><tspan x="7.24" y="24">than 5 business days </tspan><tspan x="8.68" y="36">after prepa</tspan><tspan class="efffa24b-41b2-4a9d-9fcb-81474f35a365" x="61.7" y="36">r</tspan><tspan x="65.66" y="36">ation of </tspan><tspan x="36.02" y="48">decision</tspan></text><rect class="ef941585-b4af-4145-a7f5-c7d4947be638" x="1135.48" y="610.86" width="125.82" height="74.21"/><text class="b1f2f996-1ce4-42a0-be04-ed881a554d20" transform="translate(1139.82 629.61)">Log and notify DTR G<tspan class="efffa24b-41b2-4a9d-9fcb-81474f35a365" x="98.2" y="0">r</tspan><tspan x="102.16" y="0">ant </tspan><tspan x="7.21" y="12">Coordination Unit and </tspan><tspan x="1.39" y="24">subrecipient or Bustang, </tspan><tspan x="29.9" y="36">if applicable</tspan></text><line class="ef941585-b4af-4145-a7f5-c7d4947be638" x1="923.09" y1="648.19" x2="967.26" y2="648.19"/><polygon class="a91d7e2c-07d1-438d-8fd0-f2f8e835f84a" points="965.51 654.17 975.87 648.19 965.51 642.21 965.51 654.17"/><line class="ef941585-b4af-4145-a7f5-c7d4947be638" x1="1246.27" y1="794.14" x2="1303.26" y2="794.14"/><polygon class="a91d7e2c-07d1-438d-8fd0-f2f8e835f84a" points="1301.51 800.13 1311.87 794.14 1301.51 788.16 1301.51 800.13"/><line class="ef941585-b4af-4145-a7f5-c7d4947be638" x1="1088.85" y1="149.25" x2="1133.02" y2="149.25"/><polygon class="a91d7e2c-07d1-438d-8fd0-f2f8e835f84a" points="1131.27 155.23 1141.63 149.25 1131.27 143.27 1131.27 155.23"/><rect class="ef941585-b4af-4145-a7f5-c7d4947be638" x="625.99" y="615.87" width="125.82" height="65.2"/><text class="b1f2f996-1ce4-42a0-be04-ed881a554d20" transform="translate(639.16 632.99)">Conduct investigation <tspan x="18.87" y="12">into merits of </tspan><tspan x="3.92" y="25">complaint within 30 </tspan><tspan x="40.37" y="37">days</tspan></text><line class="ef941585-b4af-4145-a7f5-c7d4947be638" x1="571" y1="648.19" x2="615.17" y2="648.19"/><polygon class="a91d7e2c-07d1-438d-8fd0-f2f8e835f84a" points="613.42 654.17 623.78 648.19 613.42 642.21 613.42 654.17"/><line class="ef941585-b4af-4145-a7f5-c7d4947be638" x1="751.56" y1="648.19" x2="795.72" y2="648.19"/><polygon class="a91d7e2c-07d1-438d-8fd0-f2f8e835f84a" points="793.97 654.17 804.34 648.19 793.97 642.21 793.97 654.17"/><line class="ef941585-b4af-4145-a7f5-c7d4947be638" x1="323.75" y1="399.94" x2="323.75" y2="604.39"/><polygon class="a91d7e2c-07d1-438d-8fd0-f2f8e835f84a" points="317.76 602.64 323.75 613 329.73 602.64 317.76 602.64"/><text class="b1f2f996-1ce4-42a0-be04-ed881a554d20" transform="translate(828.34 629.94)">Prepare written <tspan x="-13.87" y="12">decision no later than </tspan><tspan x="-4.9" y="24">90 days of receipt </tspan></text><path class="ef941585-b4af-4145-a7f5-c7d4947be638" d="M808,674a71,71,0,0,0,6.66,2.61h0a70.34,70.34,0,0,0,22.11,3.79h0a50.76,50.76,0,0,0,27.2-7.52h0a53.18,53.18,0,0,1,28.47-7.79h0a78.86,78.86,0,0,1,30.84,6.77h0V617h-117v56.16c.4.2,1,.47,1.69.8Z"/><polyline class="ef941585-b4af-4145-a7f5-c7d4947be638" points="1259.75 647.21 1361.39 647.21 1361.39 555.48"/><polygon class="a91d7e2c-07d1-438d-8fd0-f2f8e835f84a" points="1367.38 557.23 1361.39 546.87 1355.41 557.23 1367.38 557.23"/><polyline class="ef941585-b4af-4145-a7f5-c7d4947be638" points="1464.34 149.4 1500.83 149.4 1500.83 883.6"/><polygon class="a91d7e2c-07d1-438d-8fd0-f2f8e835f84a" points="1494.85 881.84 1500.83 892.21 1506.82 881.84 1494.85 881.84"/></g></svg>