<svg xmlns="http://www.w3.org/2000/svg" viewBox="0 0 1744.77 1008.53"><defs><style>.a17c570d-e210-4e11-9377-e1d50eeaa25d,.aea0dfe9-6aa0-42c2-81f7-374cb8dc65d1,.aec094ea-754b-4235-9415-bb1d5f87d4d7,.b1f03af0-17a9-41cc-88a0-a49da8ceca4f{fill:none;}.a17c570d-e210-4e11-9377-e1d50eeaa25d,.aea0dfe9-6aa0-42c2-81f7-374cb8dc65d1,.aec094ea-754b-4235-9415-bb1d5f87d4d7,.b1f03af0-17a9-41cc-88a0-a49da8ceca4f,.b2cfe29f-49d2-4578-b98d-20a1c813fb88{stroke:#646464;}.a17c570d-e210-4e11-9377-e1d50eeaa25d,.aea0dfe9-6aa0-42c2-81f7-374cb8dc65d1,.aec094ea-754b-4235-9415-bb1d5f87d4d7,.b1f03af0-17a9-41cc-88a0-a49da8ceca4f,.b2cfe29f-49d2-4578-b98d-20a1c813fb88,.ecc17b52-daa5-42f5-993a-9ec81819497c{stroke-miterlimit:10;}.a17c570d-e210-4e11-9377-e1d50eeaa25d,.b1f03af0-17a9-41cc-88a0-a49da8ceca4f{stroke-width:0.5px;}.b1f03af0-17a9-41cc-88a0-a49da8ceca4f{stroke-dasharray:5.01 3.01;}.aec094ea-754b-4235-9415-bb1d5f87d4d7,.b2cfe29f-49d2-4578-b98d-20a1c813fb88,.ecc17b52-daa5-42f5-993a-9ec81819497c{stroke-width:2px;}.a81d5cf8-1560-418c-a356-8906ecb6acb5,.a968b70a-9c58-4ca2-a928-c723c1515ba2,.b556157c-3e4c-4e7d-9715-930fd8e71a25,.bf689797-d304-4958-aa02-e5eb28efed7f{fill:#646464;}.a968b70a-9c58-4ca2-a928-c723c1515ba2{font-size:24px;}.a798fec8-f4d5-45b1-bf64-5c36199ac71d,.a81d5cf8-1560-418c-a356-8906ecb6acb5,.a968b70a-9c58-4ca2-a928-c723c1515ba2,.b556157c-3e4c-4e7d-9715-930fd8e71a25,.ec7de211-22f6-49e1-9477-2a5e31fe1717{font-family:TrebuchetMS-Bold, Trebuchet MS;font-weight:700;}.e8bc085c-e073-4145-96de-5a96fabf9f3e{letter-spacing:-0.02em;}.b2b13059-1435-4d2c-9a73-3fa81518913d{letter-spacing:-0.1em;}.a286f89e-240d-44d3-a04e-8b6ee39b3729{letter-spacing:-0.03em;}.a81d5cf8-1560-418c-a356-8906ecb6acb5{font-size:11px;}.b556157c-3e4c-4e7d-9715-930fd8e71a25,.ec7de211-22f6-49e1-9477-2a5e31fe1717{font-size:10px;}.b2cfe29f-49d2-4578-b98d-20a1c813fb88,.bb48e01c-bae8-46a0-91ec-cf82a9539793{fill:#009add;}.a798fec8-f4d5-45b1-bf64-5c36199ac71d,.ec7de211-22f6-49e1-9477-2a5e31fe1717,.ecc17b52-daa5-42f5-993a-9ec81819497c{fill:#fff;}.abd9bc36-1d84-4b9f-962a-8dda9b5ee91c{letter-spacing:-0.06em;}.a798fec8-f4d5-45b1-bf64-5c36199ac71d{font-size:16px;}.a874bffd-9272-4e58-adef-8be80a5f07ab{fill:#3eaf49;}.a012c660-fd72-492f-950a-dfe06e2eac28{fill:#d23138;}.ae2784b0-fdde-4d04-85b1-e337a77a1039{letter-spacing:-0.09em;}.ecc17b52-daa5-42f5-993a-9ec81819497c{stroke:#3eaf49;}</style></defs><title>CDOT_diagrams_CH3</title><g id="f77a66b7-f10b-40a1-9781-12d8eefa30ef" data-name="shapes"><line class="a17c570d-e210-4e11-9377-e1d50eeaa25d" x1="18.38" y1="426.24" x2="20.88" y2="426.24"/><line class="b1f03af0-17a9-41cc-88a0-a49da8ceca4f" x1="23.88" y1="426.24" x2="1721.98" y2="426.24"/><line class="a17c570d-e210-4e11-9377-e1d50eeaa25d" x1="1723.48" y1="426.24" x2="1725.98" y2="426.24"/><line class="a17c570d-e210-4e11-9377-e1d50eeaa25d" x1="18.38" y1="254.83" x2="20.88" y2="254.83"/><line class="b1f03af0-17a9-41cc-88a0-a49da8ceca4f" x1="23.88" y1="254.83" x2="1721.98" y2="254.83"/><line class="a17c570d-e210-4e11-9377-e1d50eeaa25d" x1="1723.48" y1="254.83" x2="1725.98" y2="254.83"/><line class="a17c570d-e210-4e11-9377-e1d50eeaa25d" x1="18.38" y1="609.51" x2="20.88" y2="609.51"/><line class="b1f03af0-17a9-41cc-88a0-a49da8ceca4f" x1="23.88" y1="609.51" x2="1721.98" y2="609.51"/><line class="a17c570d-e210-4e11-9377-e1d50eeaa25d" x1="1723.48" y1="609.51" x2="1725.98" y2="609.51"/><line class="a17c570d-e210-4e11-9377-e1d50eeaa25d" x1="18.38" y1="822.42" x2="20.88" y2="822.42"/><line class="b1f03af0-17a9-41cc-88a0-a49da8ceca4f" x1="23.88" y1="822.42" x2="1721.98" y2="822.42"/><line class="a17c570d-e210-4e11-9377-e1d50eeaa25d" x1="1723.48" y1="822.42" x2="1725.98" y2="822.42"/><line class="aec094ea-754b-4235-9415-bb1d5f87d4d7" x1="1628.21" y1="931.24" x2="1652.67" y2="931.24"/><polygon class="bf689797-d304-4958-aa02-e5eb28efed7f" points="1650.92 937.23 1661.28 931.24 1650.92 925.26 1650.92 937.23"/></g><g id="f90ff2c4-2f0b-4283-b97d-ad3d2ab1e3d7" data-name="text"><text class="a968b70a-9c58-4ca2-a928-c723c1515ba2" transform="translate(18.5 35.72)">3-12<tspan class="e8bc085c-e073-4145-96de-5a96fabf9f3e" x="51" y="0"> </tspan><tspan class="b2b13059-1435-4d2c-9a73-3fa81518913d" x="57.8" y="0">T</tspan><tspan class="a286f89e-240d-44d3-a04e-8b6ee39b3729" x="70.02" y="0">r</tspan><tspan x="79.52" y="0">ansfer Construction Project to Region</tspan></text><text class="a81d5cf8-1560-418c-a356-8906ecb6acb5" transform="translate(39.05 558.6) rotate(-90)">CDO<tspan class="e8bc085c-e073-4145-96de-5a96fabf9f3e" x="21.53" y="0">T</tspan><tspan x="28.06" y="0" xml:space="preserve"> Engineering </tspan><tspan x="21.66" y="13.2">Cont</tspan><tspan class="a286f89e-240d-44d3-a04e-8b6ee39b3729" x="45.47" y="13.2">r</tspan><tspan x="49.82" y="13.2">acts</tspan></text><text class="a81d5cf8-1560-418c-a356-8906ecb6acb5" transform="translate(39.05 936.1) rotate(-90)">DTR Project <tspan x="-14.81" y="13.2">Coordination Unit</tspan></text><text class="a81d5cf8-1560-418c-a356-8906ecb6acb5" transform="translate(44.66 372.58) rotate(-90)">CDO<tspan class="e8bc085c-e073-4145-96de-5a96fabf9f3e" x="21.53" y="0">T</tspan><tspan x="28.06" y="0" xml:space="preserve"> Region</tspan></text><text class="a81d5cf8-1560-418c-a356-8906ecb6acb5" transform="translate(44.66 196.65) rotate(-90)">Subrecipient</text><text class="a81d5cf8-1560-418c-a356-8906ecb6acb5" transform="translate(44.66 767.75) rotate(-90)">DTR Prog<tspan class="a286f89e-240d-44d3-a04e-8b6ee39b3729" x="46.73" y="0">r</tspan><tspan x="51.09" y="0">amming Unit</tspan></text><line class="aea0dfe9-6aa0-42c2-81f7-374cb8dc65d1" x1="64.85" y1="987.61" x2="64.85" y2="69.04"/><polygon class="aea0dfe9-6aa0-42c2-81f7-374cb8dc65d1" points="1726.93 987.99 18.4 987.99 18.4 68.89 59.69 68.89 1726.93 68.89 1726.93 987.99"/><text class="b556157c-3e4c-4e7d-9715-930fd8e71a25" transform="translate(274.55 174.39)">Approve/ <tspan x="6.24" y="12">Reject</tspan></text><rect class="aec094ea-754b-4235-9415-bb1d5f87d4d7" x="270.98" y="151.27" width="50.35" height="50.35" transform="translate(-38.02 261.1) rotate(-45)"/><rect class="aec094ea-754b-4235-9415-bb1d5f87d4d7" x="250.17" y="296.55" width="91.47" height="46.88"/><text class="b556157c-3e4c-4e7d-9715-930fd8e71a25" transform="translate(258.17 310.17)">Coordinate with <tspan x="1.98" y="12">subrecipient to </tspan><tspan x="8.15" y="24">finalize SOW</tspan></text><rect class="aec094ea-754b-4235-9415-bb1d5f87d4d7" x="570.75" y="296.55" width="91.47" height="46.88"/><text class="b556157c-3e4c-4e7d-9715-930fd8e71a25" transform="translate(578.89 317.01)">Request project <tspan x="24.63" y="12">funds</tspan></text><rect class="aec094ea-754b-4235-9415-bb1d5f87d4d7" x="1111.87" y="146.69" width="91.47" height="46.88"/><text class="b556157c-3e4c-4e7d-9715-930fd8e71a25" transform="translate(1134.37 167.14)">Report on <tspan x="-11.2" y="12">project to DTR</tspan></text><rect class="aec094ea-754b-4235-9415-bb1d5f87d4d7" x="1524.97" y="146.69" width="104.42" height="46.88"/><text class="b556157c-3e4c-4e7d-9715-930fd8e71a25" transform="translate(1539.78 167.14)">Notify DTR that <tspan x="-9.5" y="12">project is complete</tspan></text><rect class="b2cfe29f-49d2-4578-b98d-20a1c813fb88" x="1524.32" y="902.28" width="104.42" height="55.57"/><text class="ec7de211-22f6-49e1-9477-2a5e31fe1717" transform="translate(1541.04 922.73)">Initiate Project <tspan x="-5.63" y="12">Close-out process </tspan><tspan x="9.68" y="24">(COTRAMS)</tspan></text><rect class="aec094ea-754b-4235-9415-bb1d5f87d4d7" x="752.54" y="296.55" width="113.56" height="46.88"/><text class="b556157c-3e4c-4e7d-9715-930fd8e71a25" transform="translate(757.72 317.01)">Procure and cont<tspan class="a286f89e-240d-44d3-a04e-8b6ee39b3729" x="80.55" y="0">r</tspan><tspan x="84.51" y="0">act </tspan><tspan x="10.88" y="12">for project work</tspan></text><rect class="aec094ea-754b-4235-9415-bb1d5f87d4d7" x="1279.32" y="296.55" width="113.56" height="55.82"/><text class="b556157c-3e4c-4e7d-9715-930fd8e71a25" transform="translate(1292.03 317.01)">Notify DTR and/or <tspan x="1.55" y="12">subrecipient that </tspan><tspan x="-3.65" y="24">project is complete</tspan></text><rect class="aec094ea-754b-4235-9415-bb1d5f87d4d7" x="1073.96" y="291.55" width="168.56" height="69.75"/><text class="b556157c-3e4c-4e7d-9715-930fd8e71a25" transform="translate(1080.74 312)">Oversee project Report progress <tspan x="7.05" y="12">to DTR (CDO</tspan><tspan class="e8bc085c-e073-4145-96de-5a96fabf9f3e" x="64.6" y="12">T</tspan><tspan x="70.53" y="12" xml:space="preserve"> project) and/or </tspan><tspan x="14.28" y="24">subrecipient (subrecipient </tspan><tspan x="57.24" y="36">project)</tspan></text><rect class="aec094ea-754b-4235-9415-bb1d5f87d4d7" x="570.75" y="718.56" width="91.47" height="46.88"/><text class="b556157c-3e4c-4e7d-9715-930fd8e71a25" transform="translate(582.67 738.01)"><tspan class="b2b13059-1435-4d2c-9a73-3fa81518913d">T</tspan><tspan class="a286f89e-240d-44d3-a04e-8b6ee39b3729" x="5.09" y="0">r</tspan><tspan x="9.05" y="0">ansfer funds </tspan><tspan x="12.36" y="12">to region</tspan></text><rect class="aec094ea-754b-4235-9415-bb1d5f87d4d7" x="897.19" y="904.26" width="91.47" height="46.88"/><text class="b556157c-3e4c-4e7d-9715-930fd8e71a25" transform="translate(924.63 923.71)">Monitor <tspan x="-1.76" y="13">progress</tspan></text><rect class="aec094ea-754b-4235-9415-bb1d5f87d4d7" x="404.48" y="494.96" width="96.47" height="46.88"/><text class="b556157c-3e4c-4e7d-9715-930fd8e71a25" transform="translate(426.57 508.57)">Create IG<tspan class="abd9bc36-1d84-4b9f-962a-8dda9b5ee91c" x="43.69" y="0">A</tspan><tspan x="49.47" y="0"> </tspan><tspan x="-9.91" y="12">between CDO</tspan><tspan class="e8bc085c-e073-4145-96de-5a96fabf9f3e" x="53.44" y="12">T</tspan><tspan x="59.38" y="12"> </tspan><tspan x="-14.58" y="24">and subrecipient</tspan></text><path class="aec094ea-754b-4235-9415-bb1d5f87d4d7" d="M1430.36,298.52v51.86s2.35,6.54,45.61,6.82,44.51-7.25,44.51-7.25V298.66s0-6.68-46.87-6.68C1429.09,292,1430.36,298.52,1430.36,298.52Z"/><path class="aec094ea-754b-4235-9415-bb1d5f87d4d7" d="M1430.36,307.07s-2,4.64,20.81,6.84c21,2,40.3,2.61,54.29-.47,15.57-3.42,15-6.22,15-6.22"/><text class="b556157c-3e4c-4e7d-9715-930fd8e71a25" transform="translate(1454.45 326.93)">Close out <tspan x="-11.49" y="12">project in SA</tspan><tspan class="e8bc085c-e073-4145-96de-5a96fabf9f3e" x="49.12" y="12">P</tspan><tspan x="9.33" y="25">(SAP)</tspan></text><path class="aec094ea-754b-4235-9415-bb1d5f87d4d7" d="M1430.36,303.33s-2,4.65,20.81,6.85c21,2,40.3,2.61,54.29-.47,15.57-3.42,15-6.22,15-6.22"/><path class="aec094ea-754b-4235-9415-bb1d5f87d4d7" d="M1430.36,299.13s-2,4.65,20.81,6.85c21,2,40.3,2.61,54.29-.47,15.57-3.42,15-6.22,15-6.22"/><circle class="bb48e01c-bae8-46a0-91ec-cf82a9539793" cx="1685.58" cy="931.46" r="22.5"/><text class="a798fec8-f4d5-45b1-bf64-5c36199ac71d" transform="translate(1673.26 937.34)">4-6</text><polyline class="aec094ea-754b-4235-9415-bb1d5f87d4d7" points="330.86 176.95 452.69 177.09 452.15 484.93"/><polygon class="bf689797-d304-4958-aa02-e5eb28efed7f" points="446.17 483.17 452.13 493.55 458.13 483.19 446.17 483.17"/><polyline class="aec094ea-754b-4235-9415-bb1d5f87d4d7" points="866.52 320.69 945.28 320.95 944.74 892.96"/><polygon class="bf689797-d304-4958-aa02-e5eb28efed7f" points="938.75 891.2 944.73 901.57 950.72 891.21 938.75 891.2"/><rect class="a874bffd-9272-4e58-adef-8be80a5f07ab" x="360.56" y="168.67" width="31.28" height="17.57"/><text class="ec7de211-22f6-49e1-9477-2a5e31fe1717" transform="translate(367.73 181.2)">YES</text><text class="b556157c-3e4c-4e7d-9715-930fd8e71a25" transform="translate(264.89 736.13)">CDO<tspan class="e8bc085c-e073-4145-96de-5a96fabf9f3e" x="19.58" y="0">T</tspan><tspan x="25.51" y="0" xml:space="preserve"> Project </tspan><tspan x="-4.35" y="12">or subrecipient </tspan><tspan x="12.09" y="24">project?</tspan></text><rect class="aec094ea-754b-4235-9415-bb1d5f87d4d7" x="261.6" y="707.37" width="69.4" height="69.4" transform="translate(-437.94 426.86) rotate(-45)"/><line class="aec094ea-754b-4235-9415-bb1d5f87d4d7" x1="201.78" y1="741.6" x2="236.78" y2="741.6"/><polygon class="bf689797-d304-4958-aa02-e5eb28efed7f" points="235.03 747.58 245.4 741.6 235.03 735.62 235.03 747.58"/><line class="aec094ea-754b-4235-9415-bb1d5f87d4d7" x1="662.12" y1="319.37" x2="739.97" y2="319.37"/><polygon class="bf689797-d304-4958-aa02-e5eb28efed7f" points="738.22 325.36 748.58 319.37 738.22 313.39 738.22 325.36"/><line class="aec094ea-754b-4235-9415-bb1d5f87d4d7" x1="1157.08" y1="291.51" x2="1157.08" y2="205.2"/><polygon class="bf689797-d304-4958-aa02-e5eb28efed7f" points="1163.07 206.95 1157.08 196.58 1151.1 206.95 1163.07 206.95"/><line class="aec094ea-754b-4235-9415-bb1d5f87d4d7" x1="1575.4" y1="194.36" x2="1575.4" y2="889.46"/><polygon class="bf689797-d304-4958-aa02-e5eb28efed7f" points="1569.41 887.71 1575.4 898.07 1581.38 887.71 1569.41 887.71"/><line class="aec094ea-754b-4235-9415-bb1d5f87d4d7" x1="1241.54" y1="324.24" x2="1267.64" y2="324.24"/><polygon class="bf689797-d304-4958-aa02-e5eb28efed7f" points="1265.89 330.22 1276.25 324.24 1265.89 318.25 1265.89 330.22"/><line class="aec094ea-754b-4235-9415-bb1d5f87d4d7" x1="1392.36" y1="324.24" x2="1418.46" y2="324.24"/><polygon class="bf689797-d304-4958-aa02-e5eb28efed7f" points="1416.7 330.22 1427.07 324.24 1416.7 318.25 1416.7 330.22"/><line class="aec094ea-754b-4235-9415-bb1d5f87d4d7" x1="342.97" y1="741.6" x2="557.77" y2="741.6"/><polygon class="bf689797-d304-4958-aa02-e5eb28efed7f" points="556.01 747.58 566.38 741.6 556.01 735.62 556.01 747.58"/><line class="aec094ea-754b-4235-9415-bb1d5f87d4d7" x1="296.27" y1="695.62" x2="296.27" y2="354.7"/><polygon class="bf689797-d304-4958-aa02-e5eb28efed7f" points="302.25 356.45 296.27 346.09 290.29 356.45 302.25 356.45"/><line class="aec094ea-754b-4235-9415-bb1d5f87d4d7" x1="616.85" y1="343.09" x2="616.85" y2="707.34"/><polygon class="bf689797-d304-4958-aa02-e5eb28efed7f" points="610.86 705.59 616.85 715.95 622.83 705.59 610.86 705.59"/><polyline class="aec094ea-754b-4235-9415-bb1d5f87d4d7" points="260.56 176.85 213.98 176.85 213.98 319.26 237.35 319.26"/><polygon class="bf689797-d304-4958-aa02-e5eb28efed7f" points="235.6 325.25 245.96 319.26 235.6 313.28 235.6 325.25"/><rect class="a012c660-fd72-492f-950a-dfe06e2eac28" x="224.72" y="168.34" width="26.58" height="17.57"/><text class="ec7de211-22f6-49e1-9477-2a5e31fe1717" transform="translate(231.19 180.87)">NO</text><line class="aec094ea-754b-4235-9415-bb1d5f87d4d7" x1="146.97" y1="683.77" x2="146.97" y2="705.48"/><polygon class="bf689797-d304-4958-aa02-e5eb28efed7f" points="140.99 703.73 146.97 714.1 152.95 703.73 140.99 703.73"/><rect class="b2cfe29f-49d2-4578-b98d-20a1c813fb88" x="93.78" y="714.97" width="107.79" height="60.34"/><text class="ec7de211-22f6-49e1-9477-2a5e31fe1717" transform="translate(99.62 730.83)">Complete Budgeting <tspan x="12.57" y="12">process (F</tspan><tspan class="ae2784b0-fdde-4d04-85b1-e337a77a1039" x="60.33" y="12">T</tspan><tspan class="abd9bc36-1d84-4b9f-962a-8dda9b5ee91c" x="65.5" y="12">A</tspan><tspan x="71.28" y="12" xml:space="preserve"> &amp; </tspan><tspan x="17.55" y="24">Non-fede</tspan><tspan class="a286f89e-240d-44d3-a04e-8b6ee39b3729" x="60.46" y="24">r</tspan><tspan x="64.42" y="24">al)</tspan><tspan x="7.32" y="37">(COTRAMS) (SAP)</tspan></text><circle class="bb48e01c-bae8-46a0-91ec-cf82a9539793" cx="146.97" cy="661.15" r="22.5"/><text class="a798fec8-f4d5-45b1-bf64-5c36199ac71d" transform="translate(134.66 658.36)">3-9<tspan x="-4.69" y="16">3-10</tspan></text><rect class="ecc17b52-daa5-42f5-993a-9ec81819497c" x="241.19" y="510.1" width="109.63" height="18.63"/><text class="b556157c-3e4c-4e7d-9715-930fd8e71a25" transform="translate(247.54 522.51)">Subrecipient project</text><rect class="ecc17b52-daa5-42f5-993a-9ec81819497c" x="1519.64" y="510.1" width="109.63" height="18.63"/><text class="b556157c-3e4c-4e7d-9715-930fd8e71a25" transform="translate(1526 522.51)">Subrecipient project</text><rect class="ecc17b52-daa5-42f5-993a-9ec81819497c" x="390.81" y="733.19" width="80.96" height="18.63"/><text class="b556157c-3e4c-4e7d-9715-930fd8e71a25" transform="translate(399.99 745.6)">CDO<tspan class="e8bc085c-e073-4145-96de-5a96fabf9f3e" x="19.58" y="0">T</tspan><tspan x="25.51" y="0" xml:space="preserve"> project</tspan></text><polyline class="aec094ea-754b-4235-9415-bb1d5f87d4d7" points="500.33 517.87 537.47 517.87 537.47 317.88 560.13 317.88"/><polygon class="bf689797-d304-4958-aa02-e5eb28efed7f" points="558.38 323.86 568.74 317.88 558.38 311.89 558.38 323.86"/><polyline class="aec094ea-754b-4235-9415-bb1d5f87d4d7" points="661.62 742.67 812.13 742.67 812.13 356.42"/><polygon class="bf689797-d304-4958-aa02-e5eb28efed7f" points="818.12 358.17 812.13 347.81 806.15 358.17 818.12 358.17"/><polyline class="aec094ea-754b-4235-9415-bb1d5f87d4d7" points="990.01 928.37 1024.2 928.37 1024.2 326.31 1061.53 326.31"/><polygon class="bf689797-d304-4958-aa02-e5eb28efed7f" points="1059.77 332.29 1070.14 326.31 1059.77 320.32 1059.77 332.29"/><polyline class="aec094ea-754b-4235-9415-bb1d5f87d4d7" points="1335.66 297.31 1335.66 169.93 1515.03 169.93"/><polygon class="bf689797-d304-4958-aa02-e5eb28efed7f" points="1513.28 175.91 1523.64 169.93 1513.28 163.94 1513.28 175.91"/><polyline class="aec094ea-754b-4235-9415-bb1d5f87d4d7" points="1335.66 353.35 1335.66 929.35 1512.67 929.35"/><polygon class="bf689797-d304-4958-aa02-e5eb28efed7f" points="1510.92 935.33 1521.29 929.35 1510.92 923.36 1510.92 935.33"/><rect class="ecc17b52-daa5-42f5-993a-9ec81819497c" x="1295.21" y="699.3" width="80.96" height="18.63"/><text class="b556157c-3e4c-4e7d-9715-930fd8e71a25" transform="translate(1304.39 711.71)">CDO<tspan class="e8bc085c-e073-4145-96de-5a96fabf9f3e" x="19.58" y="0">T</tspan><tspan x="25.51" y="0" xml:space="preserve"> project</tspan></text></g></svg>