<svg xmlns="http://www.w3.org/2000/svg" viewBox="0 0 1418.98 1312.17"><defs><style>.a0de2ae3-fd83-45f2-8be7-11e715091d13,.a2edd56d-5d51-4fe0-b132-8cc29c006e4e,.a4bfa814-ae28-40fa-835c-c850f2fbb544,.b38fe3f2-983b-4f29-a550-bb8c6d6b01f9,.b4ff97c0-afc3-474c-b6d0-780d79d596cd{fill:none;}.a0de2ae3-fd83-45f2-8be7-11e715091d13,.a2edd56d-5d51-4fe0-b132-8cc29c006e4e,.a4bfa814-ae28-40fa-835c-c850f2fbb544,.b38fe3f2-983b-4f29-a550-bb8c6d6b01f9,.b4ff97c0-afc3-474c-b6d0-780d79d596cd,.ec245705-3072-4f17-a98a-1e8ae55e0c9b,.efe7a309-c949-429e-bee3-771faf33fb18{stroke:#646464;}.a0de2ae3-fd83-45f2-8be7-11e715091d13,.a2edd56d-5d51-4fe0-b132-8cc29c006e4e,.a4bfa814-ae28-40fa-835c-c850f2fbb544,.b0218293-5066-4ebd-9aea-d2bc6f5d607f,.b38fe3f2-983b-4f29-a550-bb8c6d6b01f9,.ec245705-3072-4f17-a98a-1e8ae55e0c9b,.efe7a309-c949-429e-bee3-771faf33fb18{stroke-miterlimit:10;}.a4bfa814-ae28-40fa-835c-c850f2fbb544,.b38fe3f2-983b-4f29-a550-bb8c6d6b01f9{stroke-width:0.5px;}.a4bfa814-ae28-40fa-835c-c850f2fbb544{stroke-dasharray:4.99 2.99;}.b4ff97c0-afc3-474c-b6d0-780d79d596cd{stroke-linejoin:round;}.a0de2ae3-fd83-45f2-8be7-11e715091d13,.b0218293-5066-4ebd-9aea-d2bc6f5d607f,.b4ff97c0-afc3-474c-b6d0-780d79d596cd,.ec245705-3072-4f17-a98a-1e8ae55e0c9b,.efe7a309-c949-429e-bee3-771faf33fb18{stroke-width:2px;}.b1354141-9a94-457d-9a03-411c621075da,.eb9498fb-db68-4830-bf1e-e567e04c722f,.ee9e40d9-c102-43c2-9402-3fa916b3ccfa,.f617820c-00d1-45ec-a21b-8adc2629c9b1{fill:#646464;}.e797711b-6496-4244-9e85-d5426e159d35,.ec245705-3072-4f17-a98a-1e8ae55e0c9b{fill:#009add;}.f06a7bf5-58e4-4b74-827e-0a039d2356f2{fill:#d9d9d9;}.b0218293-5066-4ebd-9aea-d2bc6f5d607f,.eb0d9295-fc02-47ec-83a3-ac596b1f51b3,.efe7a309-c949-429e-bee3-771faf33fb18,.fca0155c-1002-4090-a647-461f8bc9ccde{fill:#fff;}.b0218293-5066-4ebd-9aea-d2bc6f5d607f{stroke:#3eaf49;}.e7fdae9e-da4a-4675-b6f4-d37dc062bb47,.f617820c-00d1-45ec-a21b-8adc2629c9b1,.fca0155c-1002-4090-a647-461f8bc9ccde{font-size:10px;}.b1354141-9a94-457d-9a03-411c621075da,.e7fdae9e-da4a-4675-b6f4-d37dc062bb47,.eb0d9295-fc02-47ec-83a3-ac596b1f51b3,.eb9498fb-db68-4830-bf1e-e567e04c722f,.f617820c-00d1-45ec-a21b-8adc2629c9b1,.fca0155c-1002-4090-a647-461f8bc9ccde{font-family:TrebuchetMS-Bold, Trebuchet MS;font-weight:700;}.a2e6caa4-3d88-4828-876f-6473d58cc1a0{letter-spacing:0.03em;}.b1354141-9a94-457d-9a03-411c621075da{font-size:24px;}.a4a22bbc-2a81-45c6-bb76-1c26ea88bdab{letter-spacing:-0.09em;}.a3b3de6f-c599-47cc-bc0d-d2c845c9865a{letter-spacing:-0.06em;}.e5525d83-a5bd-498b-90d1-38a7b2402f92{letter-spacing:-0.02em;}.eb9498fb-db68-4830-bf1e-e567e04c722f{font-size:11px;}.b1a2b00c-b891-4ba3-987b-474695e94290{letter-spacing:-0.03em;}.fc9777f3-9327-43a2-aa5e-5250108ed4f4{letter-spacing:-0.09em;}.ec74873e-4a61-4829-848b-63e2eaf6e1e2{letter-spacing:-0.06em;}.a5db40d7-44c5-4d4f-b23a-a32a9046a038{letter-spacing:-0.1em;}.e7fdae9e-da4a-4675-b6f4-d37dc062bb47,.e8e722d0-a5d1-445c-bc88-c5685f66d8e1{fill:#3eaf49;}.eb0d9295-fc02-47ec-83a3-ac596b1f51b3{font-size:16px;}.a480cdb3-a17b-4f92-b40b-b9e59d2a8989{fill:#d23138;}</style></defs><title>CDOT_diagrams_CH3</title><g id="ab121874-ba5a-4635-98f4-c5a7a2c12f2d" data-name="shapes"><line class="b38fe3f2-983b-4f29-a550-bb8c6d6b01f9" x1="15.63" y1="231.68" x2="18.13" y2="231.68"/><line class="a4bfa814-ae28-40fa-835c-c850f2fbb544" x1="21.12" y1="231.68" x2="1392.58" y2="231.68"/><line class="b38fe3f2-983b-4f29-a550-bb8c6d6b01f9" x1="1394.08" y1="231.68" x2="1396.58" y2="231.68"/><line class="b38fe3f2-983b-4f29-a550-bb8c6d6b01f9" x1="15.63" y1="396.13" x2="18.13" y2="396.13"/><line class="a4bfa814-ae28-40fa-835c-c850f2fbb544" x1="21.12" y1="396.13" x2="1392.58" y2="396.13"/><line class="b38fe3f2-983b-4f29-a550-bb8c6d6b01f9" x1="1394.08" y1="396.13" x2="1396.58" y2="396.13"/><line class="b38fe3f2-983b-4f29-a550-bb8c6d6b01f9" x1="10.55" y1="569.91" x2="13.05" y2="569.91"/><line class="a4bfa814-ae28-40fa-835c-c850f2fbb544" x1="16.05" y1="569.91" x2="1387.5" y2="569.91"/><line class="b38fe3f2-983b-4f29-a550-bb8c6d6b01f9" x1="1389" y1="569.91" x2="1391.5" y2="569.91"/><line class="b38fe3f2-983b-4f29-a550-bb8c6d6b01f9" x1="15.63" y1="871.99" x2="18.13" y2="871.99"/><line class="a4bfa814-ae28-40fa-835c-c850f2fbb544" x1="21.12" y1="871.99" x2="1392.58" y2="871.99"/><line class="b38fe3f2-983b-4f29-a550-bb8c6d6b01f9" x1="1394.08" y1="871.99" x2="1396.58" y2="871.99"/><line class="b38fe3f2-983b-4f29-a550-bb8c6d6b01f9" x1="15.63" y1="1010.12" x2="18.13" y2="1010.12"/><line class="a4bfa814-ae28-40fa-835c-c850f2fbb544" x1="21.12" y1="1010.12" x2="1392.58" y2="1010.12"/><line class="b38fe3f2-983b-4f29-a550-bb8c6d6b01f9" x1="1394.08" y1="1010.12" x2="1396.58" y2="1010.12"/><line class="b38fe3f2-983b-4f29-a550-bb8c6d6b01f9" x1="15.63" y1="1160.53" x2="18.13" y2="1160.53"/><line class="a4bfa814-ae28-40fa-835c-c850f2fbb544" x1="21.12" y1="1160.53" x2="1392.58" y2="1160.53"/><line class="b38fe3f2-983b-4f29-a550-bb8c6d6b01f9" x1="1394.08" y1="1160.53" x2="1396.58" y2="1160.53"/><line class="b38fe3f2-983b-4f29-a550-bb8c6d6b01f9" x1="15.63" y1="733.96" x2="18.13" y2="733.96"/><line class="a4bfa814-ae28-40fa-835c-c850f2fbb544" x1="21.12" y1="733.96" x2="1392.58" y2="733.96"/><line class="b38fe3f2-983b-4f29-a550-bb8c6d6b01f9" x1="1394.08" y1="733.96" x2="1396.58" y2="733.96"/><path class="b4ff97c0-afc3-474c-b6d0-780d79d596cd" d="M221.73,110.7s-9.39,19.72-9.39,39.51,8.74,39.34,8.74,39.34"/><path class="a0de2ae3-fd83-45f2-8be7-11e715091d13" d="M103.18,189.55S94.43,170,94.43,150.21s8.75-40.53,8.75-40.53H221.43s8.74,19.56,8.74,39.35-8.74,40.52-8.74,40.52Z"/><path class="b4ff97c0-afc3-474c-b6d0-780d79d596cd" d="M538.83,245.41s-9.39,14.55-9.39,29.16,8.74,29,8.74,29"/><path class="a0de2ae3-fd83-45f2-8be7-11e715091d13" d="M456.66,303.6s-8.75-14.43-8.75-29,8.75-29.91,8.75-29.91h81.87s8.74,14.43,8.74,29-8.74,29.91-8.74,29.91Z"/><polyline class="a0de2ae3-fd83-45f2-8be7-11e715091d13" points="243.86 147.6 304.96 147.6 304.96 625.62"/><polygon class="ee9e40d9-c102-43c2-9402-3fa916b3ccfa" points="245.61 153.58 235.25 147.6 245.61 141.62 245.61 153.58"/><line class="a0de2ae3-fd83-45f2-8be7-11e715091d13" x1="162.78" y1="188.05" x2="162.78" y2="613.19"/><polygon class="ee9e40d9-c102-43c2-9402-3fa916b3ccfa" points="156.8 611.44 162.78 621.8 168.76 611.44 156.8 611.44"/></g><g id="b32d09f7-9c83-43a1-a857-784a5c281e77" data-name="text"><path class="ec245705-3072-4f17-a98a-1e8ae55e0c9b" d="M1067.62,1114.26h97.27v-60h-97.27Zm10-60v60"/><rect class="f06a7bf5-58e4-4b74-827e-0a039d2356f2" x="1005" y="408.08" width="238.48" height="582.51"/><path class="efe7a309-c949-429e-bee3-771faf33fb18" d="M1075.61,522h97.27V462h-97.27Zm10-60v60"/><line class="a0de2ae3-fd83-45f2-8be7-11e715091d13" x1="304.7" y1="686.73" x2="304.7" y2="749.28"/><polygon class="ee9e40d9-c102-43c2-9402-3fa916b3ccfa" points="298.71 747.53 304.7 757.89 310.68 747.53 298.71 747.53"/><line class="a0de2ae3-fd83-45f2-8be7-11e715091d13" x1="708.35" y1="302.48" x2="708.35" y2="340.81"/><polygon class="ee9e40d9-c102-43c2-9402-3fa916b3ccfa" points="702.37 339.06 708.35 349.42 714.34 339.06 702.37 339.06"/><rect class="b0218293-5066-4ebd-9aea-d2bc6f5d607f" x="259.12" y="697.16" width="90.73" height="32.86"/><text class="f617820c-00d1-45ec-a21b-8adc2629c9b1" transform="translate(118.5 127.04)">Request Project <tspan x="-7.28" y="12">closeout upon final </tspan><tspan x="1.54" y="24">reimbursement </tspan><tspan x="17.12" y="36">payment</tspan><tspan x="11.66" y="48">(COTRAMS)</tspan></text><text class="f617820c-00d1-45ec-a21b-8adc2629c9b1" transform="translate(475.52 262.02)">Re<tspan class="a2e6caa4-3d88-4828-876f-6473d58cc1a0" x="11.86" y="0">v</tspan><tspan x="17.44" y="0">iew </tspan><tspan x="0.87" y="12">budget</tspan><tspan x="-8.8" y="24">(COTRAMS)</tspan></text><text class="b1354141-9a94-457d-9a03-411c621075da" transform="translate(18.5 35.68)">3-17 F<tspan class="a4a22bbc-2a81-45c6-bb76-1c26ea88bdab" x="72.23" y="0">T</tspan><tspan class="a3b3de6f-c599-47cc-bc0d-d2c845c9865a" x="84.64" y="0">A</tspan><tspan x="98.52" y="0" xml:space="preserve"> Project and</tspan><tspan class="a3b3de6f-c599-47cc-bc0d-d2c845c9865a" x="236.18" y="0"> </tspan><tspan class="e5525d83-a5bd-498b-90d1-38a7b2402f92" x="242.09" y="0">A</tspan><tspan x="256.85" y="0">ward Closeout (CDO</tspan><tspan class="e5525d83-a5bd-498b-90d1-38a7b2402f92" x="479.64" y="0">T</tspan><tspan x="493.89" y="0" xml:space="preserve"> Internal)</tspan></text><text class="eb9498fb-db68-4830-bf1e-e567e04c722f" transform="translate(44.66 182.67) rotate(-90)">Subrecipient</text><text class="eb9498fb-db68-4830-bf1e-e567e04c722f" transform="translate(37.66 680.26) rotate(-90)">DTR Project <tspan x="-14.81" y="13.2">Coordination Unit</tspan></text><text class="eb9498fb-db68-4830-bf1e-e567e04c722f" transform="translate(44.66 371.15) rotate(-90)">DTR Prog<tspan class="b1a2b00c-b891-4ba3-987b-474695e94290" x="46.73" y="0">r</tspan><tspan x="51.09" y="0">amming Unit</tspan></text><text class="eb9498fb-db68-4830-bf1e-e567e04c722f" transform="translate(44.66 529.77) rotate(-90)">DTR Planning Unit</text><text class="eb9498fb-db68-4830-bf1e-e567e04c722f" transform="translate(44.66 1112.51) rotate(-90)">Accounting</text><text class="eb9498fb-db68-4830-bf1e-e567e04c722f" transform="translate(44.66 984.33) rotate(-90)">Business Office</text><text class="eb9498fb-db68-4830-bf1e-e567e04c722f" transform="translate(44.66 1231.24) rotate(-90) scale(0.98 1)">F<tspan class="fc9777f3-9327-43a2-aa5e-5250108ed4f4" x="6.42" y="0">T</tspan><tspan class="ec74873e-4a61-4829-848b-63e2eaf6e1e2" x="12.11" y="0">A</tspan></text><text class="eb9498fb-db68-4830-bf1e-e567e04c722f" transform="translate(44.66 835.68) rotate(-90)">Procurement</text><rect class="a0de2ae3-fd83-45f2-8be7-11e715091d13" x="269.44" y="918.8" width="68.78" height="49"/><text class="f617820c-00d1-45ec-a21b-8adc2629c9b1" transform="translate(281.41 939.78)"><tspan class="a3b3de6f-c599-47cc-bc0d-d2c845c9865a">V</tspan><tspan x="5.66" y="0">erify PO </tspan><tspan x="1.86" y="12">is closed</tspan></text><rect class="a0de2ae3-fd83-45f2-8be7-11e715091d13" x="258.82" y="1057.59" width="92.27" height="65.61"/><text class="f617820c-00d1-45ec-a21b-8adc2629c9b1" transform="translate(276.5 1074.56)">Submit Final <tspan x="-7.65" y="12">Reimbursement </tspan><tspan x="-5.83" y="24">Request to F</tspan><tspan class="a4a22bbc-2a81-45c6-bb76-1c26ea88bdab" x="53.27" y="24">T</tspan><tspan class="a3b3de6f-c599-47cc-bc0d-d2c845c9865a" x="58.44" y="24">A</tspan><tspan x="64.22" y="24"> </tspan><tspan x="16.36" y="36">ECHO</tspan></text><rect class="a0de2ae3-fd83-45f2-8be7-11e715091d13" x="113.04" y="624.94" width="101.7" height="65.7"/><text class="f617820c-00d1-45ec-a21b-8adc2629c9b1" transform="translate(131.3 641.03)">Re<tspan class="a2e6caa4-3d88-4828-876f-6473d58cc1a0" x="11.86" y="0">v</tspan><tspan x="17.44" y="0">iew G</tspan><tspan class="b1a2b00c-b891-4ba3-987b-474695e94290" x="43.74" y="0">r</tspan><tspan x="47.7" y="0">ant </tspan><tspan x="8.77" y="12">Close-Out </tspan><tspan x="-7.86" y="24">Liqudation (GCL) </tspan><tspan x="13.55" y="36">request </tspan></text><rect class="a0de2ae3-fd83-45f2-8be7-11e715091d13" x="890.3" y="247.13" width="111.8" height="49.24"/><text class="f617820c-00d1-45ec-a21b-8adc2629c9b1" transform="translate(911.98 262.6)">Submit <tspan class="a3b3de6f-c599-47cc-bc0d-d2c845c9865a" x="35.39" y="0">V</tspan><tspan x="41.05" y="0">ehicle </tspan><tspan x="-7.11" y="12">Inventory Reports </tspan><tspan x="-11.58" y="24">Prog</tspan><tspan class="b1a2b00c-b891-4ba3-987b-474695e94290" x="9.24" y="24">r</tspan><tspan x="13.2" y="24">am of Projects</tspan></text><rect class="a0de2ae3-fd83-45f2-8be7-11e715091d13" x="663.15" y="351.75" width="91.65" height="37.32"/><text class="f617820c-00d1-45ec-a21b-8adc2629c9b1" transform="translate(679.7 368.34)">Send budget <tspan x="-6.02" y="12">re</tspan><tspan class="a2e6caa4-3d88-4828-876f-6473d58cc1a0" x="4" y="12">v</tspan><tspan x="9.59" y="12">ision to F</tspan><tspan class="a4a22bbc-2a81-45c6-bb76-1c26ea88bdab" x="52.91" y="12">T</tspan><tspan class="a3b3de6f-c599-47cc-bc0d-d2c845c9865a" x="58.08" y="12">A</tspan></text><rect class="a0de2ae3-fd83-45f2-8be7-11e715091d13" x="663.15" y="1204.02" width="91.65" height="37.32"/><text class="f617820c-00d1-45ec-a21b-8adc2629c9b1" transform="translate(672.89 1220.61)">Re<tspan class="a2e6caa4-3d88-4828-876f-6473d58cc1a0" x="11.86" y="0">v</tspan><tspan x="17.44" y="0">iew re</tspan><tspan class="a2e6caa4-3d88-4828-876f-6473d58cc1a0" x="47.04" y="0">v</tspan><tspan x="52.63" y="0">ised </tspan><tspan x="19.6" y="12">budget</tspan></text><rect class="a0de2ae3-fd83-45f2-8be7-11e715091d13" x="1245.55" y="1207.44" width="91.65" height="37.32"/><text class="f617820c-00d1-45ec-a21b-8adc2629c9b1" transform="translate(1262.71 1228.49)">Close<tspan class="a3b3de6f-c599-47cc-bc0d-d2c845c9865a" x="24.78" y="0"> </tspan><tspan class="e5525d83-a5bd-498b-90d1-38a7b2402f92" x="27.24" y="0">A</tspan><tspan x="33.39" y="0">ward</tspan></text><line class="a2edd56d-5d51-4fe0-b132-8cc29c006e4e" x1="64.85" y1="1286.4" x2="64.85" y2="69.02"/><polygon class="a2edd56d-5d51-4fe0-b132-8cc29c006e4e" points="1396.58 1286.74 15.61 1286.74 15.61 69.14 48.98 69.14 1396.58 69.14 1396.58 1286.74"/><line class="a0de2ae3-fd83-45f2-8be7-11e715091d13" x1="214.58" y1="656.1" x2="254.25" y2="656.1"/><polygon class="ee9e40d9-c102-43c2-9402-3fa916b3ccfa" points="252.5 662.09 262.87 656.1 252.5 650.12 252.5 662.09"/><line class="a0de2ae3-fd83-45f2-8be7-11e715091d13" x1="468.06" y1="656.1" x2="490.3" y2="656.1"/><polygon class="ee9e40d9-c102-43c2-9402-3fa916b3ccfa" points="488.55 662.09 498.91 656.1 488.55 650.12 488.55 662.09"/><rect class="efe7a309-c949-429e-bee3-771faf33fb18" x="1043.68" y="609.9" width="161.13" height="85.75"/><rect class="a0de2ae3-fd83-45f2-8be7-11e715091d13" x="1056.29" y="609.83" width="135.17" height="86.1"/><text class="f617820c-00d1-45ec-a21b-8adc2629c9b1" transform="translate(1074.3 623.4)">Submit final Milestone <tspan x="4.94" y="12">Progress Report and </tspan><tspan x="-3.41" y="24">Final Prog</tspan><tspan class="b1a2b00c-b891-4ba3-987b-474695e94290" x="43.42" y="24">r</tspan><tspan x="47.38" y="24">am Measures </tspan><tspan x="32.21" y="36">Reports:</tspan><tspan x="20.96" y="48">5304 (</tspan><tspan class="a5db40d7-44c5-4d4f-b23a-a32a9046a038" x="51.08" y="48">T</tspan><tspan x="56.17" y="48">rAMS)</tspan></text><text class="e7fdae9e-da4a-4675-b6f4-d37dc062bb47" transform="translate(271.17 709.7)">APPROVE <tspan class="ee9e40d9-c102-43c2-9402-3fa916b3ccfa" x="46.13" y="0">with </tspan><tspan class="ee9e40d9-c102-43c2-9402-3fa916b3ccfa"><tspan x="-7.96" y="13">email notification</tspan></tspan></text><line class="a0de2ae3-fd83-45f2-8be7-11e715091d13" x1="304.7" y1="830.4" x2="304.7" y2="906.73"/><polygon class="ee9e40d9-c102-43c2-9402-3fa916b3ccfa" points="298.71 904.98 304.7 915.34 310.68 904.98 298.71 904.98"/><rect class="b0218293-5066-4ebd-9aea-d2bc6f5d607f" x="259.12" y="850.61" width="90.73" height="32.86"/><text class="e7fdae9e-da4a-4675-b6f4-d37dc062bb47" transform="translate(271.17 863.15)">APPROVE <tspan class="ee9e40d9-c102-43c2-9402-3fa916b3ccfa" x="46.13" y="0">with </tspan><tspan class="ee9e40d9-c102-43c2-9402-3fa916b3ccfa"><tspan x="-7.96" y="13">email notification</tspan></tspan></text><line class="a0de2ae3-fd83-45f2-8be7-11e715091d13" x1="304.7" y1="969.19" x2="304.7" y2="1045.51"/><polygon class="ee9e40d9-c102-43c2-9402-3fa916b3ccfa" points="298.71 1043.76 304.7 1054.13 310.68 1043.76 298.71 1043.76"/><rect class="a0de2ae3-fd83-45f2-8be7-11e715091d13" x="258.82" y="1201.21" width="92.27" height="51.72"/><text class="f617820c-00d1-45ec-a21b-8adc2629c9b1" transform="translate(288.69 1218.19)">Re<tspan class="a2e6caa4-3d88-4828-876f-6473d58cc1a0" x="11.86" y="0">v</tspan><tspan x="17.44" y="0">iew </tspan><tspan x="-19.84" y="12">Reimbursement </tspan><tspan x="-1.81" y="24">Request</tspan></text><line class="a0de2ae3-fd83-45f2-8be7-11e715091d13" x1="304.7" y1="1125.57" x2="304.7" y2="1189.19"/><polygon class="ee9e40d9-c102-43c2-9402-3fa916b3ccfa" points="298.71 1187.44 304.7 1197.8 310.68 1187.44 298.71 1187.44"/><rect class="b0218293-5066-4ebd-9aea-d2bc6f5d607f" x="259.12" y="989.4" width="90.73" height="32.86"/><text class="e7fdae9e-da4a-4675-b6f4-d37dc062bb47" transform="translate(271.17 1001.93)">APPROVE <tspan class="ee9e40d9-c102-43c2-9402-3fa916b3ccfa" x="46.13" y="0">with </tspan><tspan class="ee9e40d9-c102-43c2-9402-3fa916b3ccfa"><tspan x="-7.96" y="13">email notification</tspan></tspan></text><rect class="e8e722d0-a5d1-445c-bc88-c5685f66d8e1" x="692.87" y="310.63" width="31.28" height="17.57"/><text class="fca0155c-1002-4090-a647-461f8bc9ccde" transform="translate(700.04 322.16)">YES</text><path class="a0de2ae3-fd83-45f2-8be7-11e715091d13" d="M251.3,767.27V817.5s2.78,12.18,54,12.52,52.76-13,52.76-13V767.44s0-7.92-55.54-7.92C249.8,759.52,251.3,767.27,251.3,767.27Z"/><path class="a0de2ae3-fd83-45f2-8be7-11e715091d13" d="M251.32,777.4S249,782.91,276,785.51c24.87,2.4,47.74,3.1,64.33-.55,18.44-4.06,17.8-7.37,17.8-7.37"/><text class="f617820c-00d1-45ec-a21b-8adc2629c9b1" transform="translate(273.67 803.69)">Close project<tspan x="18.69" y="13">(SAP)</tspan></text><path class="a0de2ae3-fd83-45f2-8be7-11e715091d13" d="M251.32,773S249,778.49,276,781.09c24.87,2.39,47.74,3.09,64.33-.55,18.44-4.06,17.8-7.38,17.8-7.38"/><path class="a0de2ae3-fd83-45f2-8be7-11e715091d13" d="M251.32,768S249,773.51,276,776.11c24.87,2.4,47.74,3.1,64.33-.55,18.44-4.06,17.8-7.37,17.8-7.37"/><line class="a0de2ae3-fd83-45f2-8be7-11e715091d13" x1="1165.81" y1="1082.95" x2="1200.4" y2="1082.95"/><polygon class="ee9e40d9-c102-43c2-9402-3fa916b3ccfa" points="1198.65 1088.94 1209.01 1082.95 1198.65 1076.97 1198.65 1088.94"/><circle class="e797711b-6496-4244-9e85-d5426e159d35" cx="1233.31" cy="1082.73" r="22.5"/><text class="eb0d9295-fc02-47ec-83a3-ac596b1f51b3" transform="translate(1216.32 1088.81)">3-15</text><text class="f617820c-00d1-45ec-a21b-8adc2629c9b1" transform="translate(1083.84 270.1)">Close out<tspan class="a3b3de6f-c599-47cc-bc0d-d2c845c9865a" x="43.33" y="0"> </tspan><tspan class="e5525d83-a5bd-498b-90d1-38a7b2402f92" x="45.79" y="0">A</tspan><tspan x="51.94" y="0">ward </tspan><tspan x="19.79" y="12">(</tspan><tspan class="a5db40d7-44c5-4d4f-b23a-a32a9046a038" x="23.46" y="12">T</tspan><tspan x="28.55" y="12">rAMS)</tspan></text><path class="a0de2ae3-fd83-45f2-8be7-11e715091d13" d="M1067.62,305h97.27V245h-97.27Zm10-60v60"/><text class="f617820c-00d1-45ec-a21b-8adc2629c9b1" transform="translate(1087.55 1212.73)">Reconcile how <tspan x="-3.45" y="12">much expended </tspan><tspan x="2.94" y="24">by FTC codes </tspan><tspan x="16.08" y="37">(</tspan><tspan class="a5db40d7-44c5-4d4f-b23a-a32a9046a038" x="19.75" y="37">T</tspan><tspan x="24.85" y="37">rAMS)</tspan></text><path class="a0de2ae3-fd83-45f2-8be7-11e715091d13" d="M1060.36,1260.29h110.18v-68H1060.36Zm11.33-68v68"/><text class="fca0155c-1002-4090-a647-461f8bc9ccde" transform="translate(1090.97 1079.37)">Prepare final <tspan x="2.27" y="12">FFR (</tspan><tspan class="a5db40d7-44c5-4d4f-b23a-a32a9046a038" x="26.73" y="12">T</tspan><tspan x="31.82" y="12">rAMS)</tspan></text><text class="f617820c-00d1-45ec-a21b-8adc2629c9b1" transform="translate(1087.69 483.96)">Submit reports:<tspan x="24.84" y="13">5304</tspan><tspan x="18.75" y="26">(</tspan><tspan class="a5db40d7-44c5-4d4f-b23a-a32a9046a038" x="22.42" y="26">T</tspan><tspan x="27.52" y="26">rAMS)</tspan></text><text class="f617820c-00d1-45ec-a21b-8adc2629c9b1" transform="translate(406.69 643.13)">Re<tspan class="a2e6caa4-3d88-4828-876f-6473d58cc1a0" x="11.86" y="0">v</tspan><tspan x="17.44" y="0">iew </tspan><tspan x="-7.5" y="12">Milestones </tspan><tspan x="9.17" y="24">VIN</tspan></text><path class="a0de2ae3-fd83-45f2-8be7-11e715091d13" d="M380.83,676.87v-46.7h86.72v46.7a38.55,38.55,0,0,0-43.36,0A38.58,38.58,0,0,1,380.83,676.87Z"/><text class="f617820c-00d1-45ec-a21b-8adc2629c9b1" transform="translate(286.64 653.88)">Accept/<tspan x="2.83" y="13">Reject</tspan></text><polygon class="a0de2ae3-fd83-45f2-8be7-11e715091d13" points="265.42 656.01 304.99 625.62 344.55 656.01 304.99 686.41 265.42 656.01"/><line class="a0de2ae3-fd83-45f2-8be7-11e715091d13" x1="540.4" y1="272.18" x2="657.91" y2="272.18"/><polygon class="ee9e40d9-c102-43c2-9402-3fa916b3ccfa" points="656.16 278.17 666.52 272.18 656.16 266.2 656.16 278.17"/><line class="a0de2ae3-fd83-45f2-8be7-11e715091d13" x1="1002.8" y1="272.18" x2="1056.38" y2="272.18"/><polygon class="ee9e40d9-c102-43c2-9402-3fa916b3ccfa" points="1054.63 278.17 1065 272.18 1054.63 266.2 1054.63 278.17"/><line class="a0de2ae3-fd83-45f2-8be7-11e715091d13" x1="1121.21" y1="304.94" x2="1121.21" y2="396.86"/><polygon class="ee9e40d9-c102-43c2-9402-3fa916b3ccfa" points="1115.22 395.11 1121.21 405.48 1127.19 395.11 1115.22 395.11"/><line class="a0de2ae3-fd83-45f2-8be7-11e715091d13" x1="1121.21" y1="990.77" x2="1121.21" y2="1043.96"/><polygon class="ee9e40d9-c102-43c2-9402-3fa916b3ccfa" points="1115.22 1042.21 1121.21 1052.57 1127.19 1042.21 1115.22 1042.21"/><line class="a0de2ae3-fd83-45f2-8be7-11e715091d13" x1="1121.21" y1="1114.57" x2="1121.21" y2="1180.5"/><polygon class="ee9e40d9-c102-43c2-9402-3fa916b3ccfa" points="1115.22 1178.75 1121.21 1189.11 1127.19 1178.75 1115.22 1178.75"/><line class="a0de2ae3-fd83-45f2-8be7-11e715091d13" x1="748.58" y1="272.18" x2="879.77" y2="272.18"/><polygon class="ee9e40d9-c102-43c2-9402-3fa916b3ccfa" points="878.02 278.17 888.38 272.18 878.02 266.2 878.02 278.17"/><rect class="a0de2ae3-fd83-45f2-8be7-11e715091d13" x="1244.1" y="247.13" width="111.8" height="49.24"/><text class="f617820c-00d1-45ec-a21b-8adc2629c9b1" transform="translate(1265.18 267.81)">Notify Business <tspan x="-0.15" y="12">Office by email</tspan></text><line class="a0de2ae3-fd83-45f2-8be7-11e715091d13" x1="1164.5" y1="272.18" x2="1233.58" y2="272.18"/><polygon class="ee9e40d9-c102-43c2-9402-3fa916b3ccfa" points="1231.83 278.17 1242.19 272.18 1231.83 266.2 1231.83 278.17"/><text class="f617820c-00d1-45ec-a21b-8adc2629c9b1" transform="translate(696 265.95)">Local<tspan x="-15.53" y="13">Overmatch?</tspan></text><polygon class="a0de2ae3-fd83-45f2-8be7-11e715091d13" points="669.08 272.08 708.64 241.7 748.21 272.08 708.64 302.48 669.08 272.08"/><line class="a0de2ae3-fd83-45f2-8be7-11e715091d13" x1="351.77" y1="1225.59" x2="381.94" y2="1225.59"/><polygon class="ee9e40d9-c102-43c2-9402-3fa916b3ccfa" points="380.19 1231.57 390.56 1225.59 380.19 1219.6 380.19 1231.57"/><text class="f617820c-00d1-45ec-a21b-8adc2629c9b1" transform="translate(414.89 1223.36)">Accept/<tspan x="2.83" y="13">Reject</tspan></text><polygon class="a0de2ae3-fd83-45f2-8be7-11e715091d13" points="393.67 1225.49 433.24 1195.1 472.8 1225.49 433.24 1255.89 393.67 1225.49"/><line class="a0de2ae3-fd83-45f2-8be7-11e715091d13" x1="756.4" y1="1225.59" x2="817.83" y2="1225.59"/><polygon class="ee9e40d9-c102-43c2-9402-3fa916b3ccfa" points="816.08 1231.57 826.44 1225.59 816.08 1219.6 816.08 1231.57"/><line class="a0de2ae3-fd83-45f2-8be7-11e715091d13" x1="1170.33" y1="1225.59" x2="1235.25" y2="1225.59"/><polygon class="ee9e40d9-c102-43c2-9402-3fa916b3ccfa" points="1233.5 1231.57 1243.86 1225.59 1233.5 1219.6 1233.5 1231.57"/><text class="f617820c-00d1-45ec-a21b-8adc2629c9b1" transform="translate(850.77 1223.36)">Accept/<tspan x="2.83" y="13">Reject</tspan></text><polygon class="a0de2ae3-fd83-45f2-8be7-11e715091d13" points="829.56 1225.49 869.12 1195.1 908.69 1225.49 869.12 1255.89 829.56 1225.49"/><polyline class="a0de2ae3-fd83-45f2-8be7-11e715091d13" points="257.94 1227.12 161.18 1227.12 161.18 702.09"/><polygon class="ee9e40d9-c102-43c2-9402-3fa916b3ccfa" points="167.16 703.84 161.18 693.47 155.19 703.84 167.16 703.84"/><rect class="a480cdb3-a17b-4f92-b40b-b9e59d2a8989" x="137.77" y="946.87" width="46.38" height="17.57"/><text class="fca0155c-1002-4090-a647-461f8bc9ccde" transform="translate(143.87 958.4)">REJEC<tspan class="e5525d83-a5bd-498b-90d1-38a7b2402f92" x="28.93" y="0">T</tspan></text><polyline class="a0de2ae3-fd83-45f2-8be7-11e715091d13" points="500.02 315.15 500.02 1225.54 472.8 1225.54"/><polygon class="ee9e40d9-c102-43c2-9402-3fa916b3ccfa" points="494.04 316.9 500.02 306.54 506.01 316.9 494.04 316.9"/><line class="a0de2ae3-fd83-45f2-8be7-11e715091d13" x1="709.18" y1="1191.14" x2="709.18" y2="388.63"/><polygon class="ee9e40d9-c102-43c2-9402-3fa916b3ccfa" points="715.17 1189.39 709.18 1199.75 703.2 1189.39 715.17 1189.39"/><rect class="a480cdb3-a17b-4f92-b40b-b9e59d2a8989" x="808.56" y="263.38" width="26.58" height="17.57"/><text class="fca0155c-1002-4090-a647-461f8bc9ccde" transform="translate(815.03 274.91)">NO</text><polyline class="a0de2ae3-fd83-45f2-8be7-11e715091d13" points="869.12 1195.1 869.12 368.99 764.03 368.99"/><polygon class="ee9e40d9-c102-43c2-9402-3fa916b3ccfa" points="765.78 363 755.42 368.99 765.78 374.97 765.78 363"/><rect class="a480cdb3-a17b-4f92-b40b-b9e59d2a8989" x="844.41" y="644.86" width="46.38" height="17.57"/><text class="fca0155c-1002-4090-a647-461f8bc9ccde" transform="translate(850.51 656.39)">REJEC<tspan class="e5525d83-a5bd-498b-90d1-38a7b2402f92" x="28.93" y="0">T</tspan></text><polyline class="a0de2ae3-fd83-45f2-8be7-11e715091d13" points="908.69 1225.49 945.68 1225.49 945.68 305.92"/><polygon class="ee9e40d9-c102-43c2-9402-3fa916b3ccfa" points="951.67 307.67 945.68 297.31 939.7 307.67 951.67 307.67"/><rect class="e8e722d0-a5d1-445c-bc88-c5685f66d8e1" x="917.81" y="756.41" width="57.18" height="17.57"/><text class="fca0155c-1002-4090-a647-461f8bc9ccde" transform="translate(928.96 768.93)">ACCEP<tspan class="e5525d83-a5bd-498b-90d1-38a7b2402f92" x="30.13" y="0">T</tspan></text></g></svg>