<svg xmlns="http://www.w3.org/2000/svg" viewBox="0 0 1126.42 657.33"><defs><style>.a6e49811-e3a7-49d4-b7a6-0b55c51da1f9,.b2e168f7-d876-41af-8d08-c58de093181c,.bcdb8da1-4953-4b4b-96a7-24201ebb6179,.bf33443e-f7b9-4b5b-8a6f-ade58dc122d7{fill:none;stroke:#646464;stroke-miterlimit:10;}.a6e49811-e3a7-49d4-b7a6-0b55c51da1f9{stroke-width:2px;}.af336f85-2ac7-4f73-8c77-511c8dc463c8,.b8948a13-a267-4115-9cc4-d32887a8af91,.bb2f132e-1851-4ae5-ac55-789383f5fe84,.e9fb4ed6-7279-4837-a5cb-199b5407da08,.ea6b0895-74ca-406a-bfe7-7121cb1caa6b{fill:#646464;}.b2e168f7-d876-41af-8d08-c58de093181c,.bf33443e-f7b9-4b5b-8a6f-ade58dc122d7{stroke-width:0.5px;}.bf33443e-f7b9-4b5b-8a6f-ade58dc122d7{stroke-dasharray:5.02 3.01;}.e9fb4ed6-7279-4837-a5cb-199b5407da08{font-size:24px;}.a095eb35-44e6-4e04-a577-9687eb293dde,.b8948a13-a267-4115-9cc4-d32887a8af91,.bb2f132e-1851-4ae5-ac55-789383f5fe84,.e9fb4ed6-7279-4837-a5cb-199b5407da08,.ea6b0895-74ca-406a-bfe7-7121cb1caa6b{font-family:TrebuchetMS-Bold, Trebuchet MS;font-weight:700;}.ac5084f3-5dd2-471a-ae62-2bcaab2b9137{letter-spacing:-0.06em;}.bb2f132e-1851-4ae5-ac55-789383f5fe84{font-size:11px;}.a94867d0-ea75-43bf-a093-b48e6393fea2{letter-spacing:0.03em;}.a095eb35-44e6-4e04-a577-9687eb293dde,.b8948a13-a267-4115-9cc4-d32887a8af91{font-size:10px;}.a378554c-7394-4cc2-9b3f-78ac0dd34b9e{letter-spacing:-0.03em;}.a6eba036-c651-4576-b551-00fd744ab2e6{letter-spacing:-0.07em;}.ab8ce50c-b8dc-445b-ab6f-254f7cd9d828{letter-spacing:-0.02em;}.a0e83657-2d09-4a0f-84d7-6829573e319c{letter-spacing:-0.05em;}.ea6b0895-74ca-406a-bfe7-7121cb1caa6b{font-size:10.05px;}.eb850362-a9b4-46f8-8c52-815625a3002c{letter-spacing:-0.05em;}.bc464854-4dcb-430a-b330-1f9ff9c13ac4{letter-spacing:-0.02em;}.e4e46696-2565-446a-9a52-86e69602405b{letter-spacing:0.03em;}.b4ba7e71-0468-416c-9c93-0997e5cb616a{fill:#3eaf49;}.a095eb35-44e6-4e04-a577-9687eb293dde{fill:#fff;}.aae22541-abfd-406b-8ecd-692ec83e06e6{fill:#d23138;}</style></defs><title>CDOT_diagrams_CH3</title><g id="fe72fff2-2553-4827-bfef-7f5fd97424c9" data-name="shapes"><line class="a6e49811-e3a7-49d4-b7a6-0b55c51da1f9" x1="189.85" y1="113.87" x2="366.29" y2="113.87"/><polygon class="af336f85-2ac7-4f73-8c77-511c8dc463c8" points="364.54 119.86 374.9 113.87 364.54 107.89 364.54 119.86"/><line class="a6e49811-e3a7-49d4-b7a6-0b55c51da1f9" x1="460.26" y1="113.87" x2="492.69" y2="113.87"/><polygon class="af336f85-2ac7-4f73-8c77-511c8dc463c8" points="490.94 119.86 501.31 113.87 490.94 107.89 490.94 119.86"/><line class="a6e49811-e3a7-49d4-b7a6-0b55c51da1f9" x1="136.9" y1="141.45" x2="136.9" y2="211.16"/><polygon class="af336f85-2ac7-4f73-8c77-511c8dc463c8" points="130.91 209.41 136.9 219.77 142.88 209.41 130.91 209.41"/><line class="a6e49811-e3a7-49d4-b7a6-0b55c51da1f9" x1="565.94" y1="134.28" x2="565.94" y2="217.03"/><polygon class="af336f85-2ac7-4f73-8c77-511c8dc463c8" points="559.96 215.28 565.94 225.64 571.93 215.28 559.96 215.28"/><line class="a6e49811-e3a7-49d4-b7a6-0b55c51da1f9" x1="724.93" y1="492.65" x2="724.93" y2="558.22"/><polygon class="af336f85-2ac7-4f73-8c77-511c8dc463c8" points="718.95 556.47 724.93 566.83 730.91 556.47 718.95 556.47"/><line class="a6e49811-e3a7-49d4-b7a6-0b55c51da1f9" x1="136.9" y1="291.96" x2="136.9" y2="316.72"/><polygon class="af336f85-2ac7-4f73-8c77-511c8dc463c8" points="130.91 314.97 136.9 325.33 142.88 314.97 130.91 314.97"/><polyline class="a6e49811-e3a7-49d4-b7a6-0b55c51da1f9" points="220.25 467.96 135.6 467.96 135.6 363.35"/><polygon class="af336f85-2ac7-4f73-8c77-511c8dc463c8" points="218.5 461.98 228.86 467.96 218.5 473.95 218.5 461.98"/><line class="b2e168f7-d876-41af-8d08-c58de093181c" x1="18.35" y1="379.21" x2="20.85" y2="379.21"/><line class="bf33443e-f7b9-4b5b-8a6f-ade58dc122d7" x1="23.86" y1="379.21" x2="1105.88" y2="379.21"/><line class="b2e168f7-d876-41af-8d08-c58de093181c" x1="1107.38" y1="379.21" x2="1109.88" y2="379.21"/><line class="b2e168f7-d876-41af-8d08-c58de093181c" x1="18.35" y1="530.38" x2="20.85" y2="530.38"/><line class="bf33443e-f7b9-4b5b-8a6f-ade58dc122d7" x1="23.86" y1="530.38" x2="1105.88" y2="530.38"/><line class="b2e168f7-d876-41af-8d08-c58de093181c" x1="1107.38" y1="530.38" x2="1109.88" y2="530.38"/><line class="a6e49811-e3a7-49d4-b7a6-0b55c51da1f9" x1="492.39" y1="467.03" x2="423.98" y2="467.03"/><polygon class="af336f85-2ac7-4f73-8c77-511c8dc463c8" points="490.64 461.04 501 467.02 490.64 473.01 490.64 461.04"/><line class="a6e49811-e3a7-49d4-b7a6-0b55c51da1f9" x1="821.74" y1="590.17" x2="776.49" y2="590.17"/><polygon class="af336f85-2ac7-4f73-8c77-511c8dc463c8" points="819.99 584.19 830.35 590.17 819.99 596.16 819.99 584.19"/><line class="a6e49811-e3a7-49d4-b7a6-0b55c51da1f9" x1="980.12" y1="590.17" x2="934.87" y2="590.17"/><polygon class="af336f85-2ac7-4f73-8c77-511c8dc463c8" points="978.37 584.19 988.74 590.17 978.37 596.16 978.37 584.19"/><line class="a6e49811-e3a7-49d4-b7a6-0b55c51da1f9" x1="653.9" y1="467.03" x2="627.88" y2="467.03"/><polygon class="af336f85-2ac7-4f73-8c77-511c8dc463c8" points="652.15 461.04 662.51 467.02 652.15 473.01 652.15 461.04"/><line class="a6e49811-e3a7-49d4-b7a6-0b55c51da1f9" x1="1015.39" y1="118.76" x2="963.04" y2="118.76"/><polygon class="af336f85-2ac7-4f73-8c77-511c8dc463c8" points="1013.64 112.77 1024 118.76 1013.64 124.74 1013.64 112.77"/><line class="a6e49811-e3a7-49d4-b7a6-0b55c51da1f9" x1="927.35" y1="206" x2="927.35" y2="153.66"/><polygon class="af336f85-2ac7-4f73-8c77-511c8dc463c8" points="933.33 204.25 927.35 214.62 921.37 204.25 933.33 204.25"/><polyline class="a6e49811-e3a7-49d4-b7a6-0b55c51da1f9" points="565.32 326.8 565.32 393.31 322.69 393.31 322.69 424.89"/><polygon class="af336f85-2ac7-4f73-8c77-511c8dc463c8" points="316.7 423.14 322.69 433.5 328.67 423.14 316.7 423.14"/></g><g id="b84298b9-1b4f-4b54-8dc5-253c62864cee" data-name="text"><text class="e9fb4ed6-7279-4837-a5cb-199b5407da08" transform="translate(18.5 35.68)">3-6 Single<tspan class="ac5084f3-5dd2-471a-ae62-2bcaab2b9137" x="110.68" y="0"> </tspan><tspan x="116.59" y="0">Audit</tspan></text><text class="bb2f132e-1851-4ae5-ac55-789383f5fe84" transform="translate(45.52 257.08) rotate(-90)">Subrecipient</text><text class="bb2f132e-1851-4ae5-ac55-789383f5fe84" transform="translate(45.52 491.31) rotate(-90)">Audit Di<tspan class="a94867d0-ea75-43bf-a093-b48e6393fea2" x="41.16" y="0">v</tspan><tspan x="47.3" y="0">ision</tspan></text><text class="bb2f132e-1851-4ae5-ac55-789383f5fe84" transform="translate(38.01 616.07) rotate(-90)">DTR Project <tspan x="-14.81" y="13.2">Coordination Unit</tspan></text><rect class="a6e49811-e3a7-49d4-b7a6-0b55c51da1f9" x="84.72" y="90.17" width="103.94" height="51.39"/><text class="b8948a13-a267-4115-9cc4-d32887a8af91" transform="translate(90.38 107.04)">Determine amount <tspan x="-2.82" y="12">of fede</tspan><tspan class="a378554c-7394-4cc2-9b3f-78ac0dd34b9e" x="30.55" y="12">r</tspan><tspan x="34.51" y="12">al awards in </tspan><tspan x="3.55" y="24">subrecipient</tspan><tspan class="a6eba036-c651-4576-b551-00fd744ab2e6" x="62.13" y="24">’</tspan><tspan x="65.1" y="24">s F</tspan><tspan class="ab8ce50c-b8dc-445b-ab6f-254f7cd9d828" x="78.25" y="24">Y</tspan></text><rect class="a6e49811-e3a7-49d4-b7a6-0b55c51da1f9" x="84.72" y="219.32" width="103.94" height="73.49"/><text class="b8948a13-a267-4115-9cc4-d32887a8af91" transform="translate(87.99 236.19)">Prepare Single<tspan class="ac5084f3-5dd2-471a-ae62-2bcaab2b9137" x="67.79" y="0"> </tspan><tspan x="70.25" y="0">Audit </tspan><tspan x="4.81" y="12">Certification </tspan><tspan class="a0e83657-2d09-4a0f-84d7-6829573e319c" x="66.54" y="12">F</tspan><tspan x="71.91" y="12">orm </tspan><tspan x="6.43" y="24">noting exemption </tspan><tspan x="12.75" y="36">from 2CFR 200 </tspan><tspan x="25.09" y="48">Subpart F</tspan></text><rect class="a6e49811-e3a7-49d4-b7a6-0b55c51da1f9" x="84.72" y="327.81" width="103.94" height="36.42"/><text class="ea6b0895-74ca-406a-bfe7-7121cb1caa6b" transform="translate(90.3 344.77) scale(0.99 1)">Send <tspan class="eb850362-a9b4-46f8-8c52-815625a3002c" x="25.72" y="0">F</tspan><tspan x="31.12" y="0">orm to CDO</tspan><tspan class="bc464854-4dcb-430a-b330-1f9ff9c13ac4" x="85.16" y="0">T</tspan><tspan x="91.13" y="0"> </tspan><tspan x="12.97" y="12.07">Audit Di</tspan><tspan class="e4e46696-2565-446a-9a52-86e69602405b" x="50.59" y="12.07">v</tspan><tspan x="56.21" y="12.07">ision</tspan></text><rect class="a6e49811-e3a7-49d4-b7a6-0b55c51da1f9" x="377.6" y="92.18" width="82.85" height="42.21"/><text class="b8948a13-a267-4115-9cc4-d32887a8af91" transform="translate(385.63 109.04)">Prepare single <tspan x="5.12" y="12">audit report</tspan></text><rect class="a6e49811-e3a7-49d4-b7a6-0b55c51da1f9" x="504.01" y="92.18" width="123.8" height="42.21"/><text class="b8948a13-a267-4115-9cc4-d32887a8af91" transform="translate(519.08 109.04)">Prepare Single<tspan class="ac5084f3-5dd2-471a-ae62-2bcaab2b9137" x="67.79" y="0"> </tspan><tspan x="70.25" y="0">Audit </tspan><tspan x="4.81" y="12">Certification </tspan><tspan class="a0e83657-2d09-4a0f-84d7-6829573e319c" x="66.54" y="12">F</tspan><tspan x="71.91" y="12">orm </tspan></text><rect class="a6e49811-e3a7-49d4-b7a6-0b55c51da1f9" x="504.01" y="227.71" width="123.8" height="98.53"/><text class="b8948a13-a267-4115-9cc4-d32887a8af91" transform="translate(514.74 244.57)">Send <tspan class="a0e83657-2d09-4a0f-84d7-6829573e319c" x="25.58" y="0">F</tspan><tspan x="30.95" y="0">orm with Single </tspan><tspan x="2.51" y="12">Audit report to CDO</tspan><tspan class="ab8ce50c-b8dc-445b-ab6f-254f7cd9d828" x="95.48" y="12">T</tspan><tspan x="101.42" y="12"> </tspan><tspan x="19.54" y="24">Audit Di</tspan><tspan class="a94867d0-ea75-43bf-a093-b48e6393fea2" x="56.96" y="24">v</tspan><tspan x="62.55" y="24">ision</tspan><tspan x="-4.7" y="37">(within the earlier of 30 </tspan><tspan x="6.46" y="49">days after auditor</tspan><tspan class="a6eba036-c651-4576-b551-00fd744ab2e6" x="90.19" y="49">’</tspan><tspan x="93.16" y="49">s </tspan><tspan x="-1.65" y="61">report or 90 days after </tspan><tspan x="-0.43" y="73">subrecipient</tspan><tspan class="a6eba036-c651-4576-b551-00fd744ab2e6" x="58.14" y="73">’</tspan><tspan x="61.11" y="73">s F</tspan><tspan class="ab8ce50c-b8dc-445b-ab6f-254f7cd9d828" x="74.27" y="73">Y</tspan><tspan x="80.22" y="73" xml:space="preserve"> end) </tspan></text><rect class="a6e49811-e3a7-49d4-b7a6-0b55c51da1f9" x="504.01" y="442.1" width="123.8" height="50.63"/><text class="b8948a13-a267-4115-9cc4-d32887a8af91" transform="translate(521.76 458.97)">Inform DTR Project <tspan x="-6.52" y="12">Coordination Unit and </tspan><tspan x="-10.34" y="24">subrecipient of findings</tspan></text><rect class="a6e49811-e3a7-49d4-b7a6-0b55c51da1f9" x="664.41" y="442.1" width="123.8" height="50.63"/><text class="b8948a13-a267-4115-9cc4-d32887a8af91" transform="translate(672.61 462.82)">Place <tspan class="a0e83657-2d09-4a0f-84d7-6829573e319c" x="28.02" y="0">F</tspan><tspan x="33.39" y="0">orm and Re</tspan><tspan class="a94867d0-ea75-43bf-a093-b48e6393fea2" x="86.83" y="0">v</tspan><tspan x="92.42" y="0">iew </tspan><tspan x="9.45" y="12">in</tspan><tspan class="ac5084f3-5dd2-471a-ae62-2bcaab2b9137" x="18.34" y="12"> </tspan><tspan x="20.8" y="12">Audit Sharepoint</tspan></text><rect class="a6e49811-e3a7-49d4-b7a6-0b55c51da1f9" x="675.88" y="569.35" width="100.85" height="41.24"/><text class="b8948a13-a267-4115-9cc4-d32887a8af91" transform="translate(697.02 586.06)">Access<tspan class="ac5084f3-5dd2-471a-ae62-2bcaab2b9137" x="30.93" y="0"> </tspan><tspan x="33.39" y="0">Audit </tspan><tspan x="3.83" y="13">Sharepoint</tspan></text><rect class="a6e49811-e3a7-49d4-b7a6-0b55c51da1f9" x="834.22" y="569.35" width="100.85" height="41.24"/><text class="b8948a13-a267-4115-9cc4-d32887a8af91" transform="translate(846.67 591.28)">Re<tspan class="a94867d0-ea75-43bf-a093-b48e6393fea2" x="11.86" y="0">v</tspan><tspan x="17.44" y="0">iew Findings</tspan></text><rect class="a6e49811-e3a7-49d4-b7a6-0b55c51da1f9" x="992.6" y="556.48" width="100.85" height="67.26"/><text class="b8948a13-a267-4115-9cc4-d32887a8af91" transform="translate(1001.72 575.08)">Prepare summary <tspan x="10.43" y="12">schedule and </tspan><tspan x="1.15" y="24">corrective action </tspan><tspan x="-1.49" y="36">plan, as necessary</tspan></text><rect class="a6e49811-e3a7-49d4-b7a6-0b55c51da1f9" x="1026.25" y="92.81" width="63" height="51.39"/><text class="b8948a13-a267-4115-9cc4-d32887a8af91" transform="translate(1039.67 114.68)">Request <tspan x="0.77" y="13">Hearing</tspan></text><rect class="a6e49811-e3a7-49d4-b7a6-0b55c51da1f9" x="230.09" y="435.51" width="193.85" height="63.05"/><text class="b8948a13-a267-4115-9cc4-d32887a8af91" transform="matrix(1, 0, 0, 1, 235.88, 451.33)">Re<tspan class="a94867d0-ea75-43bf-a093-b48e6393fea2" x="11.86" y="0">v</tspan><tspan x="17.44" y="0">iew Single</tspan><tspan class="ac5084f3-5dd2-471a-ae62-2bcaab2b9137" x="64.74" y="0"> </tspan><tspan x="67.2" y="0">Audit Certification </tspan><tspan class="a0e83657-2d09-4a0f-84d7-6829573e319c" x="156.94" y="0">F</tspan><tspan x="162.3" y="0">orm </tspan><tspan x="2.47" y="12">and Single</tspan><tspan class="ac5084f3-5dd2-471a-ae62-2bcaab2b9137" x="50.23" y="12"> </tspan><tspan x="52.7" y="12">Audit report (if applicable) </tspan><tspan x="18.35" y="24">for compliance with 2 CFR 200 </tspan><tspan x="16.74" y="36">Subpart F –</tspan><tspan class="ac5084f3-5dd2-471a-ae62-2bcaab2b9137" x="68.5" y="36"> </tspan><tspan x="70.96" y="36">Audit Requirements</tspan></text><line class="bcdb8da1-4953-4b4b-96a7-24201ebb6179" x1="64.85" y1="641.19" x2="64.85" y2="69.02"/><polygon class="bcdb8da1-4953-4b4b-96a7-24201ebb6179" points="1109.88 641.35 18.33 641.35 18.33 69.08 44.71 69.08 1109.88 69.08 1109.88 641.35"/><rect class="b4ba7e71-0468-416c-9c93-0997e5cb616a" x="912.13" y="178.22" width="31.28" height="17.57"/><text class="a095eb35-44e6-4e04-a577-9687eb293dde" transform="translate(919.3 189.75)">YES</text><rect class="aae22541-abfd-406b-8ecd-692ec83e06e6" x="975.69" y="109.17" width="26.58" height="17.57"/><text class="a095eb35-44e6-4e04-a577-9687eb293dde" transform="translate(982.16 121.7)">NO</text><text class="b8948a13-a267-4115-9cc4-d32887a8af91" transform="translate(909.23 115.93)">Accepts <tspan x="-3.55" y="12">Decision?</tspan></text><rect class="a6e49811-e3a7-49d4-b7a6-0b55c51da1f9" x="902.26" y="93.81" width="50.35" height="50.35" transform="translate(187.5 690.65) rotate(-45)"/><rect class="a6e49811-e3a7-49d4-b7a6-0b55c51da1f9" x="897.28" y="217.26" width="59.5" height="16.58" rx="8.29"/><text class="b8948a13-a267-4115-9cc4-d32887a8af91" transform="translate(917.92 228.62)">End</text><rect class="b4ba7e71-0468-416c-9c93-0997e5cb616a" x="82.16" y="169.68" width="110.88" height="17.57"/><text class="a095eb35-44e6-4e04-a577-9687eb293dde" transform="translate(88.38 181.2)">If less than $750,000</text><rect class="b4ba7e71-0468-416c-9c93-0997e5cb616a" x="215.39" y="106.15" width="116.47" height="17.57"/><text class="a095eb35-44e6-4e04-a577-9687eb293dde" transform="translate(220.55 117.67)">If more than $750,000</text></g></svg>