<svg xmlns="http://www.w3.org/2000/svg" viewBox="0 0 1764.97 650.16"><defs><style>.a7609d32-e9e4-4f55-9014-3ea95af8e858,.a91e2428-636d-4a8d-bb71-df15f78dfef0,.a950483c-707b-4864-9f86-e69f2c84fc5b,.e441c3d6-04ce-4ec9-8115-73e9d06ca036,.f4b01d69-7c6c-4528-a75c-5ef374440246{fill:none;}.a7609d32-e9e4-4f55-9014-3ea95af8e858,.a91e2428-636d-4a8d-bb71-df15f78dfef0,.a950483c-707b-4864-9f86-e69f2c84fc5b,.af09b9e8-9b82-43f6-9e43-2a9fff744a4a,.e441c3d6-04ce-4ec9-8115-73e9d06ca036,.f4b01d69-7c6c-4528-a75c-5ef374440246{stroke:#646464;}.a91e2428-636d-4a8d-bb71-df15f78dfef0,.a950483c-707b-4864-9f86-e69f2c84fc5b,.af09b9e8-9b82-43f6-9e43-2a9fff744a4a,.e441c3d6-04ce-4ec9-8115-73e9d06ca036,.f4b01d69-7c6c-4528-a75c-5ef374440246{stroke-miterlimit:10;}.a950483c-707b-4864-9f86-e69f2c84fc5b,.f4b01d69-7c6c-4528-a75c-5ef374440246{stroke-width:0.5px;}.f4b01d69-7c6c-4528-a75c-5ef374440246{stroke-dasharray:5.01 3;}.a7609d32-e9e4-4f55-9014-3ea95af8e858,.af09b9e8-9b82-43f6-9e43-2a9fff744a4a,.e441c3d6-04ce-4ec9-8115-73e9d06ca036{stroke-width:2px;}.bc8b8abe-a256-43fb-9819-c5f8dca4ee57,.bfd42f28-759d-4a1b-905d-9f03f430bce3,.e60a27e4-09b3-4a80-b53b-70acea7dc566,.eb20877b-b5cc-4203-b07b-f92388f8729e{fill:#646464;}.eb20877b-b5cc-4203-b07b-f92388f8729e{font-size:24px;}.a7aaec26-129c-4ee9-90e5-e19a54e2c7fd,.bc8b8abe-a256-43fb-9819-c5f8dca4ee57,.e60a27e4-09b3-4a80-b53b-70acea7dc566,.eb20877b-b5cc-4203-b07b-f92388f8729e,.f03ec7f9-61f1-4ac0-9ebf-cf8038e4fc47{font-family:TrebuchetMS-Bold, Trebuchet MS;font-weight:700;}.a4c849d5-e571-441f-8bb3-0306eb3c589c{letter-spacing:-0.09em;}.b49311ef-8e69-4562-8726-9f118d8fcf75{letter-spacing:-0.06em;}.e88f2141-334f-41d7-a904-46db68785e72{letter-spacing:-0.02em;}.bc8b8abe-a256-43fb-9819-c5f8dca4ee57{font-size:11px;}.e62b1770-cedc-4f62-9c50-77df668ddc3c{letter-spacing:-0.03em;}.e60a27e4-09b3-4a80-b53b-70acea7dc566,.f03ec7f9-61f1-4ac0-9ebf-cf8038e4fc47{font-size:10px;}.af09b9e8-9b82-43f6-9e43-2a9fff744a4a,.af6f6337-47a7-4678-9885-385bb9044efa{fill:#009add;}.a7aaec26-129c-4ee9-90e5-e19a54e2c7fd,.f03ec7f9-61f1-4ac0-9ebf-cf8038e4fc47{fill:#fff;}.a25f71fb-b322-489a-be35-d8e96c17517d{letter-spacing:-0.1em;}.bfd3c0f2-244c-4b80-a668-6ad7fc25bfec{fill:#3eaf49;}.a7aaec26-129c-4ee9-90e5-e19a54e2c7fd{font-size:16px;}.a7609d32-e9e4-4f55-9014-3ea95af8e858{stroke-linejoin:round;}.a9b6d04d-36cf-4332-b340-74a7bbaeb557{fill:#d23138;}</style></defs><title>CDOT_diagrams_CH3</title><g id="a687816b-c8f5-4949-9443-ddfc0a5e6ace" data-name="shapes"><line class="a950483c-707b-4864-9f86-e69f2c84fc5b" x1="18.37" y1="369.7" x2="20.87" y2="369.7"/><line class="f4b01d69-7c6c-4528-a75c-5ef374440246" x1="23.88" y1="369.7" x2="1744.12" y2="369.7"/><line class="a950483c-707b-4864-9f86-e69f2c84fc5b" x1="1745.63" y1="369.7" x2="1748.13" y2="369.7"/><line class="a950483c-707b-4864-9f86-e69f2c84fc5b" x1="18.37" y1="493.5" x2="20.87" y2="493.5"/><line class="f4b01d69-7c6c-4528-a75c-5ef374440246" x1="23.88" y1="493.5" x2="1744.12" y2="493.5"/><line class="a950483c-707b-4864-9f86-e69f2c84fc5b" x1="1745.63" y1="493.5" x2="1748.13" y2="493.5"/><line class="e441c3d6-04ce-4ec9-8115-73e9d06ca036" x1="520.94" y1="181.05" x2="520.94" y2="392.98"/><polygon class="bfd42f28-759d-4a1b-905d-9f03f430bce3" points="514.95 391.23 520.94 401.6 526.92 391.23 514.95 391.23"/><line class="e441c3d6-04ce-4ec9-8115-73e9d06ca036" x1="1129.7" y1="412.66" x2="1129.7" y2="187.99"/><polygon class="bfd42f28-759d-4a1b-905d-9f03f430bce3" points="1135.69 189.74 1129.7 179.38 1123.72 189.74 1135.69 189.74"/><path class="e441c3d6-04ce-4ec9-8115-73e9d06ca036" d="M763.89,381.91H869.38a6,6,0,0,1,12.1,0h66.91V191.22"/><path class="e441c3d6-04ce-4ec9-8115-73e9d06ca036" d="M763.89,480.41H869.38a6,6,0,0,1,12.1,0h66.91v48.24"/></g><g id="a44e2206-d768-4b9c-956d-4c04238b792c" data-name="text"><text class="eb20877b-b5cc-4203-b07b-f92388f8729e" transform="translate(18.5 35.68)">3-9 Budgeting F<tspan class="a4c849d5-e571-441f-8bb3-0306eb3c589c" x="176.53" y="0">T</tspan><tspan class="b49311ef-8e69-4562-8726-9f118d8fcf75" x="188.94" y="0">A</tspan><tspan x="202.82" y="0" xml:space="preserve"> (CDO</tspan><tspan class="e88f2141-334f-41d7-a904-46db68785e72" x="265.84" y="0">T</tspan><tspan x="280.09" y="0" xml:space="preserve"> Internal)</tspan></text><text class="bc8b8abe-a256-43fb-9819-c5f8dca4ee57" transform="translate(44.66 469.48) rotate(-90)">Business Office</text><text class="bc8b8abe-a256-43fb-9819-c5f8dca4ee57" transform="translate(44.66 260.45) rotate(-90)">DTR Prog<tspan class="e62b1770-cedc-4f62-9c50-77df668ddc3c" x="46.73" y="0">r</tspan><tspan x="51.09" y="0">amming Unit</tspan></text><text class="bc8b8abe-a256-43fb-9819-c5f8dca4ee57" transform="translate(44.66 584.53) rotate(-90)">Accounting</text><line class="a91e2428-636d-4a8d-bb71-df15f78dfef0" x1="64.85" y1="632" x2="64.85" y2="68.98"/><rect class="e441c3d6-04ce-4ec9-8115-73e9d06ca036" x="468.71" y="125.47" width="104.45" height="55.16"/><text class="e60a27e4-09b3-4a80-b53b-70acea7dc566" transform="translate(481.8 139.08)">Send request for <tspan x="-6.01" y="12">award setup and to </tspan><tspan x="-2.42" y="24">build F</tspan><tspan class="a4c849d5-e571-441f-8bb3-0306eb3c589c" x="29.89" y="24">T</tspan><tspan class="b49311ef-8e69-4562-8726-9f118d8fcf75" x="35.06" y="24">A</tspan><tspan x="40.84" y="24" xml:space="preserve"> budgets </tspan><tspan x="24.49" y="36">in SA</tspan><tspan class="e88f2141-334f-41d7-a904-46db68785e72" x="47.83" y="36">P</tspan></text><rect class="e441c3d6-04ce-4ec9-8115-73e9d06ca036" x="1077.48" y="136.54" width="104.45" height="38.82"/><text class="e60a27e4-09b3-4a80-b53b-70acea7dc566" transform="translate(1089.27 153.16)">Reconcile budget <tspan x="-5.03" y="12">with award amount</tspan></text><rect class="af09b9e8-9b82-43f6-9e43-2a9fff744a4a" x="1370.69" y="251.22" width="104.45" height="38.82"/><text class="f03ec7f9-61f1-4ac0-9ebf-cf8038e4fc47" transform="translate(1384.43 267.84)"><tspan class="a25f71fb-b322-489a-be35-d8e96c17517d">T</tspan><tspan class="e62b1770-cedc-4f62-9c50-77df668ddc3c" x="5.09" y="0">r</tspan><tspan x="9.05" y="0">ansfer project </tspan><tspan x="16.67" y="12">to region</tspan></text><rect class="af09b9e8-9b82-43f6-9e43-2a9fff744a4a" x="1538.19" y="123.31" width="90.85" height="63.26"/><text class="f03ec7f9-61f1-4ac0-9ebf-cf8038e4fc47" transform="translate(1552.61 139.92)">Initiate G<tspan class="e62b1770-cedc-4f62-9c50-77df668ddc3c" x="43.38" y="0">r</tspan><tspan x="47.34" y="0">ant </tspan><tspan x="5.61" y="12">Agreement </tspan><tspan x="8.02" y="24">Execution </tspan><tspan x="13.65" y="36">process </tspan></text><rect class="af09b9e8-9b82-43f6-9e43-2a9fff744a4a" x="1538.19" y="242.22" width="90.85" height="51.15"/><text class="f03ec7f9-61f1-4ac0-9ebf-cf8038e4fc47" transform="translate(1557.15 258.83)">Initiate F<tspan class="a4c849d5-e571-441f-8bb3-0306eb3c589c" x="42.5" y="0">T</tspan><tspan class="b49311ef-8e69-4562-8726-9f118d8fcf75" x="47.68" y="0">A</tspan><tspan x="53.46" y="0"> </tspan><tspan x="-10.96" y="12">G</tspan><tspan class="e62b1770-cedc-4f62-9c50-77df668ddc3c" x="-4.25" y="12">r</tspan><tspan x="-0.29" y="12">ant Execution </tspan><tspan x="9.11" y="24">process </tspan></text><path class="e441c3d6-04ce-4ec9-8115-73e9d06ca036" d="M481.88,410.4v48.34s2,6.55,39.2,6.83,38.27-7.25,38.27-7.25V410.55s0-6.69-40.29-6.69C480.79,403.86,481.88,410.4,481.88,410.4Z"/><path class="e441c3d6-04ce-4ec9-8115-73e9d06ca036" d="M481.88,419s-1.71,4.65,17.89,6.85c18,2,34.63,2.61,46.67-.47,13.37-3.42,12.91-6.22,12.91-6.22"/><text class="e60a27e4-09b3-4a80-b53b-70acea7dc566" transform="translate(495.77 440.76)">Build g<tspan class="e62b1770-cedc-4f62-9c50-77df668ddc3c" x="31.63" y="0">r</tspan><tspan x="35.59" y="0">ant </tspan><tspan x="13.06" y="12">(SAP)</tspan></text><path class="e441c3d6-04ce-4ec9-8115-73e9d06ca036" d="M481.88,415.22s-1.71,4.65,17.89,6.84c18,2,34.63,2.61,46.67-.46,13.37-3.43,12.91-6.23,12.91-6.23"/><path class="e441c3d6-04ce-4ec9-8115-73e9d06ca036" d="M481.88,411s-1.71,4.65,17.89,6.84c18,2,34.63,2.61,46.67-.46,13.37-3.43,12.91-6.23,12.91-6.23"/><path class="e441c3d6-04ce-4ec9-8115-73e9d06ca036" d="M710.3,410.4v53.35s2.76,6.54,53.56,6.83,52.28-7.26,52.28-7.26V410.55s0-6.69-55-6.69C708.81,403.86,710.3,410.4,710.3,410.4Z"/><path class="e441c3d6-04ce-4ec9-8115-73e9d06ca036" d="M710.3,419s-2.34,4.65,24.44,6.85c24.65,2,47.32,2.61,63.76-.47,18.28-3.42,17.64-6.22,17.64-6.22"/><text class="e60a27e4-09b3-4a80-b53b-70acea7dc566" transform="translate(726.87 439.76)">Build budget for <tspan x="-9.82" y="12">project at WBS level</tspan><tspan x="25.43" y="25">(SAP)</tspan></text><path class="e441c3d6-04ce-4ec9-8115-73e9d06ca036" d="M710.3,415.22s-2.34,4.65,24.44,6.84c24.65,2,47.32,2.61,63.76-.46,18.28-3.43,17.64-6.23,17.64-6.23"/><path class="e441c3d6-04ce-4ec9-8115-73e9d06ca036" d="M710.3,411s-2.34,4.65,24.44,6.84c24.65,2,47.32,2.61,63.76-.46,18.28-3.43,17.64-6.23,17.64-6.23"/><polygon class="a91e2428-636d-4a8d-bb71-df15f78dfef0" points="1749.09 632.23 18.41 632.23 18.41 68.89 60.23 68.89 1749.09 68.89 1749.09 632.23"/><polyline class="e441c3d6-04ce-4ec9-8115-73e9d06ca036" points="692.6 122.27 692.6 82.76 364.39 82.76 364.39 112.06"/><polygon class="bfd42f28-759d-4a1b-905d-9f03f430bce3" points="358.4 110.31 364.39 120.67 370.37 110.31 358.4 110.31"/><path class="e441c3d6-04ce-4ec9-8115-73e9d06ca036" d="M1271.58,120V97.28H699a6.05,6.05,0,1,0-12.1,0H520.2v18.1"/><polygon class="bfd42f28-759d-4a1b-905d-9f03f430bce3" points="514.22 113.63 520.2 123.99 526.18 113.63 514.22 113.63"/><polyline class="e441c3d6-04ce-4ec9-8115-73e9d06ca036" points="727.57 155.53 763.17 155.53 763.17 393.36"/><polygon class="bfd42f28-759d-4a1b-905d-9f03f430bce3" points="757.19 391.61 763.17 401.97 769.15 391.61 757.19 391.61"/><polyline class="e441c3d6-04ce-4ec9-8115-73e9d06ca036" points="645.3 155.84 618.3 155.84 618.3 564.79 645.2 564.79"/><polygon class="bfd42f28-759d-4a1b-905d-9f03f430bce3" points="643.55 149.86 653.91 155.84 643.55 161.82 643.55 149.86"/><polygon class="bfd42f28-759d-4a1b-905d-9f03f430bce3" points="643.44 570.77 653.81 564.79 643.44 558.8 643.44 570.77"/><polyline class="e441c3d6-04ce-4ec9-8115-73e9d06ca036" points="763.7 470.57 763.7 564.06 740.37 564.06"/><polygon class="bfd42f28-759d-4a1b-905d-9f03f430bce3" points="742.12 558.08 731.75 564.06 742.12 570.04 742.12 558.08"/><text class="e60a27e4-09b3-4a80-b53b-70acea7dc566" transform="translate(670.8 153.56)">Approve/ <tspan x="6.24" y="12">Reject</tspan></text><rect class="e441c3d6-04ce-4ec9-8115-73e9d06ca036" x="667.24" y="130.44" width="50.35" height="50.35" transform="translate(92.76 535.19) rotate(-45)"/><text class="e60a27e4-09b3-4a80-b53b-70acea7dc566" transform="translate(670.8 562.2)">Approve/ <tspan x="6.24" y="12">Reject</tspan></text><rect class="e441c3d6-04ce-4ec9-8115-73e9d06ca036" x="667.24" y="539.08" width="50.35" height="50.35" transform="translate(-196.19 654.88) rotate(-45)"/><rect class="bfd3c0f2-244c-4b80-a668-6ad7fc25bfec" x="739.29" y="260.8" width="49.23" height="17.57"/><text class="f03ec7f9-61f1-4ac0-9ebf-cf8038e4fc47" transform="translate(742.34 273.33)">APPROVE</text><rect class="bfd3c0f2-244c-4b80-a668-6ad7fc25bfec" x="739.29" y="507.1" width="49.23" height="17.57"/><text class="f03ec7f9-61f1-4ac0-9ebf-cf8038e4fc47" transform="translate(742.34 519.63)">APPROVE</text><line class="e441c3d6-04ce-4ec9-8115-73e9d06ca036" x1="114.31" y1="144.45" x2="146.22" y2="144.39"/><polygon class="bfd42f28-759d-4a1b-905d-9f03f430bce3" points="144.48 150.38 154.84 144.38 144.46 138.41 144.48 150.38"/><circle class="af6f6337-47a7-4678-9885-385bb9044efa" cx="97.72" cy="142.73" r="22.5"/><text class="a7aaec26-129c-4ee9-90e5-e19a54e2c7fd" transform="translate(85.41 148.6)">3-4</text><circle class="af6f6337-47a7-4678-9885-385bb9044efa" cx="1421.69" cy="342.7" r="22.5"/><text class="a7aaec26-129c-4ee9-90e5-e19a54e2c7fd" transform="translate(1404.69 348.57)">3-11</text><circle class="af6f6337-47a7-4678-9885-385bb9044efa" cx="1690.69" cy="154.39" r="22.5"/><text class="a7aaec26-129c-4ee9-90e5-e19a54e2c7fd" transform="translate(1673.69 160.27)">3-12</text><path class="a7609d32-e9e4-4f55-9014-3ea95af8e858" d="M253.15,123.53h9.67s-7.2,10.69-7.2,20.89,7.2,20.29,7.2,20.29"/><path class="e441c3d6-04ce-4ec9-8115-73e9d06ca036" d="M164.24,164.71s-7.2-10.08-7.2-20.29,7.2-20.89,7.2-20.89H263.1s7.2,10.08,7.2,20.28-7.2,20.9-7.2,20.9Z"/><text class="e60a27e4-09b3-4a80-b53b-70acea7dc566" transform="matrix(1, 0, 0, 1, 179.11, 140.91)">Build award<tspan x="1.78" y="12">(COTRAMS)</tspan></text><line class="e441c3d6-04ce-4ec9-8115-73e9d06ca036" x1="263.78" y1="144.45" x2="295.69" y2="144.39"/><polygon class="bfd42f28-759d-4a1b-905d-9f03f430bce3" points="293.95 150.38 304.3 144.38 293.93 138.41 293.95 150.38"/><line class="e441c3d6-04ce-4ec9-8115-73e9d06ca036" x1="413.96" y1="144.45" x2="457.95" y2="144.39"/><polygon class="bfd42f28-759d-4a1b-905d-9f03f430bce3" points="456.21 150.37 466.56 144.38 456.19 138.41 456.21 150.37"/><line class="e441c3d6-04ce-4ec9-8115-73e9d06ca036" x1="1021.23" y1="436.36" x2="1065.23" y2="436.3"/><polygon class="bfd42f28-759d-4a1b-905d-9f03f430bce3" points="1063.48 442.28 1073.84 436.29 1063.47 430.32 1063.48 442.28"/><line class="e441c3d6-04ce-4ec9-8115-73e9d06ca036" x1="1182.17" y1="154.92" x2="1226.17" y2="154.86"/><polygon class="bfd42f28-759d-4a1b-905d-9f03f430bce3" points="1224.43 160.85 1234.78 154.85 1224.41 148.88 1224.43 160.85"/><line class="e441c3d6-04ce-4ec9-8115-73e9d06ca036" x1="1304.67" y1="154.92" x2="1371.68" y2="154.86"/><polygon class="bfd42f28-759d-4a1b-905d-9f03f430bce3" points="1369.93 160.84 1380.29 154.85 1369.92 148.88 1369.93 160.84"/><path class="a7609d32-e9e4-4f55-9014-3ea95af8e858" d="M402.69,123.66l9.66,0s-7.23,10.67-7.27,20.87,7.14,20.31,7.14,20.31"/><path class="e441c3d6-04ce-4ec9-8115-73e9d06ca036" d="M313.64,164.55s-7.17-10.11-7.14-20.31,7.27-20.87,7.27-20.87l98.86.32s7.17,10.11,7.14,20.31-7.27,20.87-7.27,20.87Z"/><text class="e60a27e4-09b3-4a80-b53b-70acea7dc566" transform="matrix(1, 0, 0, 1, 326.76, 140.93)">Build budget<tspan x="3.63" y="12">(COTRAMS)</tspan></text><path class="a7609d32-e9e4-4f55-9014-3ea95af8e858" d="M1165.26,413.28l9.93,0s-7.44,11.84-7.47,23.16,7.33,22.52,7.33,22.52"/><path class="e441c3d6-04ce-4ec9-8115-73e9d06ca036" d="M1083.62,458.64s-7.37-11.21-7.33-22.53,7.47-23.15,7.47-23.15l91.72.36s7.37,11.2,7.33,22.52-7.47,23.15-7.47,23.15Z"/><text class="e60a27e4-09b3-4a80-b53b-70acea7dc566" transform="matrix(1, 0, 0, 1, 1089.84, 427.11)">Mark<tspan class="b49311ef-8e69-4562-8726-9f118d8fcf75" x="22.53" y="0"> </tspan><tspan class="e88f2141-334f-41d7-a904-46db68785e72" x="24.99" y="0">A</tspan><tspan x="31.14" y="0">ward as </tspan><tspan x="-4.41" y="12">budgeted in SA</tspan><tspan class="e88f2141-334f-41d7-a904-46db68785e72" x="65.76" y="12">P</tspan><tspan x="71.45" y="12"> </tspan><tspan x="7.71" y="24">(COTRAMS)</tspan></text><rect class="a9b6d04d-36cf-4332-b340-74a7bbaeb557" x="424.69" y="73.63" width="45.02" height="17.57"/><text class="f03ec7f9-61f1-4ac0-9ebf-cf8038e4fc47" transform="translate(429.14 86.17)">REJEC<tspan class="e88f2141-334f-41d7-a904-46db68785e72" x="28.93" y="0">T</tspan></text><rect class="a9b6d04d-36cf-4332-b340-74a7bbaeb557" x="926.32" y="358.16" width="45.02" height="17.57"/><text class="f03ec7f9-61f1-4ac0-9ebf-cf8038e4fc47" transform="translate(930.76 370.69)">REJEC<tspan class="e88f2141-334f-41d7-a904-46db68785e72" x="28.93" y="0">T</tspan></text><rect class="a9b6d04d-36cf-4332-b340-74a7bbaeb557" x="891.13" y="470.24" width="45.02" height="17.57"/><text class="f03ec7f9-61f1-4ac0-9ebf-cf8038e4fc47" transform="translate(895.58 482.77)">REJEC<tspan class="e88f2141-334f-41d7-a904-46db68785e72" x="28.93" y="0">T</tspan></text><line class="e441c3d6-04ce-4ec9-8115-73e9d06ca036" x1="559.49" y1="437.08" x2="618.19" y2="437.08"/><polyline class="e441c3d6-04ce-4ec9-8115-73e9d06ca036" points="901.53 155.84 874.54 155.84 874.54 564.79 901.43 564.79"/><polygon class="bfd42f28-759d-4a1b-905d-9f03f430bce3" points="899.78 149.86 910.14 155.84 899.78 161.82 899.78 149.86"/><polygon class="bfd42f28-759d-4a1b-905d-9f03f430bce3" points="899.68 570.77 910.04 564.79 899.68 558.8 899.68 570.77"/><polyline class="e441c3d6-04ce-4ec9-8115-73e9d06ca036" points="996.6 564.06 1019.93 564.06 1019.93 155.6 995.71 155.6"/><polygon class="bfd42f28-759d-4a1b-905d-9f03f430bce3" points="998.35 570.04 987.99 564.06 998.35 558.08 998.35 570.04"/><polygon class="bfd42f28-759d-4a1b-905d-9f03f430bce3" points="997.46 149.61 987.1 155.6 997.46 161.58 997.46 149.61"/><text class="e60a27e4-09b3-4a80-b53b-70acea7dc566" transform="translate(927.03 153.56)">Approve/ <tspan x="6.24" y="12">Reject</tspan></text><rect class="e441c3d6-04ce-4ec9-8115-73e9d06ca036" x="923.47" y="130.44" width="50.35" height="50.35" transform="translate(167.81 716.37) rotate(-45)"/><text class="e60a27e4-09b3-4a80-b53b-70acea7dc566" transform="translate(1253.96 151.56)">Change <tspan x="-5.46" y="12">required?</tspan></text><rect class="e441c3d6-04ce-4ec9-8115-73e9d06ca036" x="1246" y="130.44" width="50.35" height="50.35" transform="translate(262.28 944.44) rotate(-45)"/><text class="e60a27e4-09b3-4a80-b53b-70acea7dc566" transform="translate(1406.42 144.7)">Region <tspan x="-13.67" y="12">construction </tspan><tspan x="-3.61" y="24">project?</tspan></text><rect class="e441c3d6-04ce-4ec9-8115-73e9d06ca036" x="1393.79" y="126.59" width="56.07" height="56.07" transform="translate(307.11 1050.67) rotate(-45)"/><text class="e60a27e4-09b3-4a80-b53b-70acea7dc566" transform="translate(927.03 562.2)">Approve/ <tspan x="6.24" y="12">Reject</tspan></text><rect class="e441c3d6-04ce-4ec9-8115-73e9d06ca036" x="923.47" y="539.08" width="50.35" height="50.35" transform="translate(-121.14 836.06) rotate(-45)"/><line class="e441c3d6-04ce-4ec9-8115-73e9d06ca036" x1="815.73" y1="437.08" x2="874.43" y2="437.08"/><rect class="bfd3c0f2-244c-4b80-a668-6ad7fc25bfec" x="996.31" y="507.1" width="49.23" height="17.57"/><text class="f03ec7f9-61f1-4ac0-9ebf-cf8038e4fc47" transform="translate(999.36 519.63)">APPROVE</text><rect class="bfd3c0f2-244c-4b80-a668-6ad7fc25bfec" x="996.31" y="260.8" width="49.23" height="17.57"/><text class="f03ec7f9-61f1-4ac0-9ebf-cf8038e4fc47" transform="translate(999.36 273.33)">APPROVE</text><rect class="bfd3c0f2-244c-4b80-a668-6ad7fc25bfec" x="1121.92" y="88.13" width="31.28" height="17.57"/><text class="f03ec7f9-61f1-4ac0-9ebf-cf8038e4fc47" transform="translate(1129.09 100.66)">YES</text><rect class="a9b6d04d-36cf-4332-b340-74a7bbaeb557" x="1322.66" y="146.4" width="26.58" height="17.57"/><text class="f03ec7f9-61f1-4ac0-9ebf-cf8038e4fc47" transform="translate(1329.13 158.93)">NO</text><line class="e441c3d6-04ce-4ec9-8115-73e9d06ca036" x1="1461.05" y1="154.92" x2="1528.06" y2="154.86"/><polygon class="bfd42f28-759d-4a1b-905d-9f03f430bce3" points="1526.31 160.84 1536.67 154.85 1526.3 148.88 1526.31 160.84"/><line class="e441c3d6-04ce-4ec9-8115-73e9d06ca036" x1="1627.86" y1="154.92" x2="1658.04" y2="154.86"/><polygon class="bfd42f28-759d-4a1b-905d-9f03f430bce3" points="1656.3 160.85 1666.65 154.85 1656.27 148.88 1656.3 160.85"/><circle class="af6f6337-47a7-4678-9885-385bb9044efa" cx="1690.69" cy="267.72" r="22.5"/><text class="a7aaec26-129c-4ee9-90e5-e19a54e2c7fd" transform="translate(1673.69 273.59)">3-13</text><line class="e441c3d6-04ce-4ec9-8115-73e9d06ca036" x1="1627.86" y1="268.24" x2="1658.04" y2="268.19"/><polygon class="bfd42f28-759d-4a1b-905d-9f03f430bce3" points="1656.3 274.18 1666.65 268.17 1656.27 262.21 1656.3 274.18"/><line class="e441c3d6-04ce-4ec9-8115-73e9d06ca036" x1="1421.94" y1="193.31" x2="1422" y2="239.18"/><polygon class="bfd42f28-759d-4a1b-905d-9f03f430bce3" points="1416.01 237.44 1422.01 247.79 1427.98 237.42 1416.01 237.44"/><line class="e441c3d6-04ce-4ec9-8115-73e9d06ca036" x1="1584.2" y1="186.54" x2="1584.26" y2="230.76"/><polygon class="bfd42f28-759d-4a1b-905d-9f03f430bce3" points="1578.27 229.02 1584.27 239.37 1590.24 229 1578.27 229.02"/><line class="e441c3d6-04ce-4ec9-8115-73e9d06ca036" x1="1421.94" y1="289.78" x2="1421.99" y2="309.64"/><polygon class="bfd42f28-759d-4a1b-905d-9f03f430bce3" points="1416 307.9 1422.01 318.25 1427.97 307.88 1416 307.9"/><rect class="a9b6d04d-36cf-4332-b340-74a7bbaeb557" x="1479.04" y="146.4" width="26.58" height="17.57"/><text class="f03ec7f9-61f1-4ac0-9ebf-cf8038e4fc47" transform="translate(1485.51 158.93)">NO</text><rect class="bfd3c0f2-244c-4b80-a668-6ad7fc25bfec" x="1405.7" y="206.39" width="31.28" height="17.57"/><text class="f03ec7f9-61f1-4ac0-9ebf-cf8038e4fc47" transform="translate(1412.87 218.92)">YES</text></g></svg>