<svg xmlns="http://www.w3.org/2000/svg" viewBox="0 0 1059.28 745.52"><defs><style>.ae0c9c07-5d3e-46ef-aa75-62ce62a01879,.ae3e6064-edbf-44ff-b9b5-1d1119f99223,.b4327757-b2d0-4cbe-beed-c93912b0e311,.e6b7e6d9-71cc-4c89-84f6-4f383b86d48b,.e7f6ec18-1b36-4242-ad0f-060fdaece29d{fill:none;}.ae0c9c07-5d3e-46ef-aa75-62ce62a01879,.ae3e6064-edbf-44ff-b9b5-1d1119f99223,.b4327757-b2d0-4cbe-beed-c93912b0e311,.bdad1377-7229-433b-9f4d-067b9470db7f,.e6b7e6d9-71cc-4c89-84f6-4f383b86d48b,.e7f6ec18-1b36-4242-ad0f-060fdaece29d{stroke:#646464;}.e7f6ec18-1b36-4242-ad0f-060fdaece29d{stroke-linejoin:round;}.b4327757-b2d0-4cbe-beed-c93912b0e311,.bdad1377-7229-433b-9f4d-067b9470db7f,.e7f6ec18-1b36-4242-ad0f-060fdaece29d{stroke-width:2px;}.ae0c9c07-5d3e-46ef-aa75-62ce62a01879,.ae3e6064-edbf-44ff-b9b5-1d1119f99223,.b4327757-b2d0-4cbe-beed-c93912b0e311,.bdad1377-7229-433b-9f4d-067b9470db7f,.e6b7e6d9-71cc-4c89-84f6-4f383b86d48b{stroke-miterlimit:10;}.ae0c9c07-5d3e-46ef-aa75-62ce62a01879,.ae3e6064-edbf-44ff-b9b5-1d1119f99223{stroke-width:0.5px;}.ae3e6064-edbf-44ff-b9b5-1d1119f99223{stroke-dasharray:5.01 3.01;}.aba11ed5-819e-4a2d-9b79-6e2394e60d0d,.bac3962d-eb09-458b-90e3-dde8660f467d,.e181d4d7-9d20-4f89-b826-1caaf676e4bf,.f4d4018c-b0f0-4700-b9a1-88085c59639a,.fe6ca944-df00-47c0-8580-8f03546d1eb5{fill:#646464;}.aba11ed5-819e-4a2d-9b79-6e2394e60d0d,.aed1cbb6-35f8-4bcc-b688-f778faf702da{font-size:10px;}.aba11ed5-819e-4a2d-9b79-6e2394e60d0d,.aed1cbb6-35f8-4bcc-b688-f778faf702da,.bac3962d-eb09-458b-90e3-dde8660f467d,.f4d4018c-b0f0-4700-b9a1-88085c59639a,.fe6ca944-df00-47c0-8580-8f03546d1eb5{font-family:TrebuchetMS-Bold, Trebuchet MS;font-weight:700;}.fe6ca944-df00-47c0-8580-8f03546d1eb5{font-size:24px;}.bdbd4916-5794-493b-91db-93acfc68aafd{letter-spacing:-0.06em;}.bac3962d-eb09-458b-90e3-dde8660f467d{font-size:12px;}.f4d4018c-b0f0-4700-b9a1-88085c59639a{font-size:13px;}.bc266f47-2fd9-45e1-bf6a-be873faa98ef{letter-spacing:-0.03em;}.aed1cbb6-35f8-4bcc-b688-f778faf702da,.bdad1377-7229-433b-9f4d-067b9470db7f{fill:#fff;}.bf52c534-b2f2-4afc-a5f1-ff4dcfaec486{fill:#3eaf49;}.a7776d9b-8605-4c9c-bff5-6263dd4223a1{fill:#d23138;}.a58b853b-eb20-4b3b-b1d2-ca56fcda3886{letter-spacing:-0.02em;}</style></defs><title>CDOT_diagrams_CH5-6</title><g id="a090b371-0665-4f4b-9383-2e2fa4cde352" data-name="shapes"><path class="e7f6ec18-1b36-4242-ad0f-060fdaece29d" d="M250.34,123.3s-7.2,17.21-7.2,33.63,7.2,32.64,7.2,32.64"/><path class="b4327757-b2d0-4cbe-beed-c93912b0e311" d="M137.29,189.65s-8-16.22-8-32.65,8-33.63,8-33.63H249.85s8,16.23,8,32.65-8,33.63-8,33.63Z"/><path class="e7f6ec18-1b36-4242-ad0f-060fdaece29d" d="M683.94,123.3s-7.2,17.21-7.2,33.63,7.2,32.64,7.2,32.64"/><path class="b4327757-b2d0-4cbe-beed-c93912b0e311" d="M597.41,189.65s-8-16.22-8-32.65,8-33.63,8-33.63h86s8,16.23,8,32.65-8,33.63-8,33.63Z"/><path class="e7f6ec18-1b36-4242-ad0f-060fdaece29d" d="M1011.36,123.3s-7.2,17.21-7.2,33.63,7.2,32.64,7.2,32.64"/><path class="b4327757-b2d0-4cbe-beed-c93912b0e311" d="M924.83,189.65s-8-16.22-8-32.65,8-33.63,8-33.63h86s8,16.23,8,32.65-8,33.63-8,33.63Z"/><line class="ae0c9c07-5d3e-46ef-aa75-62ce62a01879" x1="12.15" y1="345.76" x2="14.65" y2="345.76"/><line class="ae3e6064-edbf-44ff-b9b5-1d1119f99223" x1="17.66" y1="345.76" x2="1043.21" y2="345.76"/><line class="ae0c9c07-5d3e-46ef-aa75-62ce62a01879" x1="1044.72" y1="345.76" x2="1047.22" y2="345.76"/><line class="ae0c9c07-5d3e-46ef-aa75-62ce62a01879" x1="12.15" y1="474.77" x2="14.65" y2="474.77"/><line class="ae3e6064-edbf-44ff-b9b5-1d1119f99223" x1="17.66" y1="474.77" x2="1043.21" y2="474.77"/><line class="ae0c9c07-5d3e-46ef-aa75-62ce62a01879" x1="1044.72" y1="474.77" x2="1047.22" y2="474.77"/><line class="ae0c9c07-5d3e-46ef-aa75-62ce62a01879" x1="12.15" y1="220.66" x2="14.65" y2="220.66"/><line class="ae3e6064-edbf-44ff-b9b5-1d1119f99223" x1="17.66" y1="220.66" x2="1043.21" y2="220.66"/><line class="ae0c9c07-5d3e-46ef-aa75-62ce62a01879" x1="1044.72" y1="220.66" x2="1047.22" y2="220.66"/><line class="ae0c9c07-5d3e-46ef-aa75-62ce62a01879" x1="12.15" y1="615.6" x2="14.65" y2="615.6"/><line class="ae3e6064-edbf-44ff-b9b5-1d1119f99223" x1="17.66" y1="615.6" x2="1043.21" y2="615.6"/><line class="ae0c9c07-5d3e-46ef-aa75-62ce62a01879" x1="1044.72" y1="615.6" x2="1047.22" y2="615.6"/></g><g id="a63d7d7a-03e6-4265-b279-0138288ac158" data-name="text"><line class="b4327757-b2d0-4cbe-beed-c93912b0e311" x1="969.59" y1="187.78" x2="969.59" y2="634.53"/><polygon class="e181d4d7-9d20-4f89-b826-1caaf676e4bf" points="963.61 632.78 969.59 643.14 975.58 632.78 963.61 632.78"/><text class="aba11ed5-819e-4a2d-9b79-6e2394e60d0d" transform="translate(147.52 140.92)">Submit Disposition <tspan x="13.31" y="12">Concurrence </tspan><tspan x="9.88" y="24">Request (DCR) </tspan><tspan x="17.39" y="36">(COTRAMS)</tspan></text><text class="aba11ed5-819e-4a2d-9b79-6e2394e60d0d" transform="translate(620.12 140.92)">Submit <tspan x="-9.31" y="12">Disposition </tspan><tspan x="-15.9" y="24">Authorization </tspan><tspan x="6.14" y="36">(DA)</tspan></text><text class="fe6ca944-df00-47c0-8580-8f03546d1eb5" transform="translate(18.5 35.68)">6-2 <tspan class="bdbd4916-5794-493b-91db-93acfc68aafd" x="44.17" y="0">V</tspan><tspan x="57.76" y="0">ehicle Disposition</tspan></text><text class="bac3962d-eb09-458b-90e3-dde8660f467d" transform="translate(41.74 192.91) rotate(-90)">Subrecipient</text><text class="bac3962d-eb09-458b-90e3-dde8660f467d" transform="translate(36.74 316.49) rotate(-90)">DTR Project <tspan x="0.2" y="14.4">Coordinator</tspan></text><text class="bac3962d-eb09-458b-90e3-dde8660f467d" transform="translate(28.09 441.59) rotate(-90)">DTR Project <tspan x="-16.15" y="14.4">Coordination Unit </tspan><tspan x="10.15" y="28.8">Manager</tspan></text><text class="f4d4018c-b0f0-4700-b9a1-88085c59639a" transform="translate(22.82 86.41)">Disposition<tspan class="bdbd4916-5794-493b-91db-93acfc68aafd" x="66.3" y="0"> </tspan><tspan x="69.5" y="0">Authorization (DA)</tspan></text><text class="f4d4018c-b0f0-4700-b9a1-88085c59639a" transform="translate(541.69 86.41)">Disposition<tspan class="bdbd4916-5794-493b-91db-93acfc68aafd" x="66.3" y="0"> </tspan><tspan x="69.5" y="0">Authorization (DA)</tspan></text><text class="bac3962d-eb09-458b-90e3-dde8660f467d" transform="translate(35.88 597.68) rotate(-90)">DTR<tspan class="bdbd4916-5794-493b-91db-93acfc68aafd" x="22.38" y="0"> </tspan><tspan x="25.34" y="0">Administ</tspan><tspan class="bc266f47-2fd9-45e1-bf6a-be873faa98ef" x="74.38" y="0">r</tspan><tspan x="79.14" y="0">ative </tspan><tspan x="28.71" y="14.4">Assistant</tspan></text><text class="bac3962d-eb09-458b-90e3-dde8660f467d" transform="translate(40.74 725.59) rotate(-90)">DTR Planning Unit</text><polygon class="e6b7e6d9-71cc-4c89-84f6-4f383b86d48b" points="1047.52 733.17 12.18 733.17 12.18 92.7 37.2 92.7 1047.52 92.7 1047.52 733.17"/><line class="e6b7e6d9-71cc-4c89-84f6-4f383b86d48b" x1="64.85" y1="733.27" x2="64.85" y2="92.42"/><line class="e6b7e6d9-71cc-4c89-84f6-4f383b86d48b" x1="530.94" y1="733.48" x2="530.94" y2="69.04"/><text class="f4d4018c-b0f0-4700-b9a1-88085c59639a" transform="translate(870.66 86.41)"><tspan xml:space="preserve"> Notice of Disposition (ND)</tspan></text><line class="e6b7e6d9-71cc-4c89-84f6-4f383b86d48b" x1="857.38" y1="733.48" x2="857.38" y2="69.04"/><rect class="b4327757-b2d0-4cbe-beed-c93912b0e311" x="129.8" y="523.46" width="116.64" height="59.71"/><text class="aba11ed5-819e-4a2d-9b79-6e2394e60d0d" transform="translate(146.75 538.28)">Request duplicate <tspan x="19.71" y="12">title from </tspan><tspan x="8.06" y="25">Department of </tspan><tspan x="21.91" y="37">Revenue</tspan></text><rect class="b4327757-b2d0-4cbe-beed-c93912b0e311" x="299.81" y="379.52" width="79.85" height="51.86"/><text class="aba11ed5-819e-4a2d-9b79-6e2394e60d0d" transform="translate(309.44 394.35)">Approve DCR <tspan x="3.23" y="12">and release </tspan><tspan x="12.18" y="24">the lien</tspan></text><rect class="b4327757-b2d0-4cbe-beed-c93912b0e311" x="929.24" y="645.37" width="79.85" height="51.86"/><text class="aba11ed5-819e-4a2d-9b79-6e2394e60d0d" transform="translate(938.87 660.19)">Approve DCR <tspan x="3.23" y="12">and release </tspan><tspan x="12.18" y="24">the lien</tspan></text><rect class="b4327757-b2d0-4cbe-beed-c93912b0e311" x="435.03" y="133.28" width="73.65" height="47.83"/><text class="aba11ed5-819e-4a2d-9b79-6e2394e60d0d" transform="translate(443.08 159.78)">Receive title</text><rect class="bdad1377-7229-433b-9f4d-067b9470db7f" x="919.69" y="399.38" width="103.35" height="30.66"/><text class="aba11ed5-819e-4a2d-9b79-6e2394e60d0d" transform="translate(932.08 416.5)">Email gene<tspan class="bc266f47-2fd9-45e1-bf6a-be873faa98ef" x="50.97" y="0">r</tspan><tspan x="54.93" y="0">ated</tspan></text><rect class="b4327757-b2d0-4cbe-beed-c93912b0e311" x="762.45" y="133.28" width="73.65" height="47.83"/><text class="aba11ed5-819e-4a2d-9b79-6e2394e60d0d" transform="translate(775.36 154.89)">Dispose of <tspan x="6.94" y="12">vehicle</tspan></text><rect class="b4327757-b2d0-4cbe-beed-c93912b0e311" x="292.14" y="527.39" width="93.26" height="56.72"/><text class="aba11ed5-819e-4a2d-9b79-6e2394e60d0d" transform="translate(311.78 546.22)">Mail title to <tspan x="-12.33" y="12">subrecipient and </tspan><tspan x="-5" y="24">verify receipt</tspan></text><line class="b4327757-b2d0-4cbe-beed-c93912b0e311" x1="188.61" y1="189.53" x2="188.61" y2="239.02"/><polygon class="e181d4d7-9d20-4f89-b826-1caaf676e4bf" points="182.63 237.27 188.61 247.63 194.6 237.27 182.63 237.27"/><text class="aba11ed5-819e-4a2d-9b79-6e2394e60d0d" transform="translate(167.23 277.57)">Approve/<tspan x="-4.59" y="13">Reject DCR</tspan></text><polygon class="b4327757-b2d0-4cbe-beed-c93912b0e311" points="145.66 282.33 188.65 249.32 231.64 282.33 188.65 315.36 145.66 282.33"/><text class="aba11ed5-819e-4a2d-9b79-6e2394e60d0d" transform="translate(616.82 277.57)">Approve/<tspan x="-1.37" y="13">Reject D</tspan><tspan class="bdbd4916-5794-493b-91db-93acfc68aafd" x="38.42" y="13">A</tspan></text><polygon class="b4327757-b2d0-4cbe-beed-c93912b0e311" points="595.25 282.33 638.24 249.32 681.23 282.33 638.24 315.36 595.25 282.33"/><line class="b4327757-b2d0-4cbe-beed-c93912b0e311" x1="188.61" y1="315.36" x2="188.61" y2="362.15"/><polygon class="e181d4d7-9d20-4f89-b826-1caaf676e4bf" points="182.63 360.4 188.61 370.76 194.6 360.4 182.63 360.4"/><line class="b4327757-b2d0-4cbe-beed-c93912b0e311" x1="229.63" y1="405.65" x2="287.75" y2="405.65"/><polygon class="e181d4d7-9d20-4f89-b826-1caaf676e4bf" points="286 411.63 296.36 405.65 286 399.66 286 411.63"/><line class="b4327757-b2d0-4cbe-beed-c93912b0e311" x1="508.93" y1="156.46" x2="577.64" y2="156.46"/><polygon class="e181d4d7-9d20-4f89-b826-1caaf676e4bf" points="575.89 162.44 586.25 156.46 575.89 150.48 575.89 162.44"/><text class="aba11ed5-819e-4a2d-9b79-6e2394e60d0d" transform="translate(947.54 140.92)">Submit <tspan x="-5.07" y="12">Notice of </tspan><tspan x="-9.31" y="24">Disposition </tspan><tspan x="5.97" y="36">(ND)</tspan></text><line class="b4327757-b2d0-4cbe-beed-c93912b0e311" x1="836.35" y1="156.46" x2="905.06" y2="156.46"/><polygon class="e181d4d7-9d20-4f89-b826-1caaf676e4bf" points="903.31 162.44 913.67 156.46 903.31 150.48 903.31 162.44"/><line class="b4327757-b2d0-4cbe-beed-c93912b0e311" x1="188.61" y1="438.49" x2="188.61" y2="512.67"/><polygon class="e181d4d7-9d20-4f89-b826-1caaf676e4bf" points="182.63 510.92 188.61 521.28 194.6 510.92 182.63 510.92"/><line class="b4327757-b2d0-4cbe-beed-c93912b0e311" x1="340.16" y1="431.91" x2="340.16" y2="515.94"/><polygon class="e181d4d7-9d20-4f89-b826-1caaf676e4bf" points="334.18 514.19 340.17 524.56 346.15 514.19 334.18 514.19"/><text class="aba11ed5-819e-4a2d-9b79-6e2394e60d0d" transform="translate(169.3 400.7)">DTR has <tspan x="6.62" y="13">title?</tspan></text><polygon class="b4327757-b2d0-4cbe-beed-c93912b0e311" points="144.93 405.46 187.92 372.45 230.9 405.46 187.92 438.49 144.93 405.46"/><rect class="bf52c534-b2f2-4afc-a5f1-ff4dcfaec486" x="162.68" y="326.16" width="54.77" height="17.57"/><text class="aed1cbb6-35f8-4bcc-b688-f778faf702da" transform="translate(168.51 337.69)">APPROVE</text><polyline class="e6b7e6d9-71cc-4c89-84f6-4f383b86d48b" points="12.18 94.36 12.18 68.55 1047.52 68.61 1047.52 111.67"/><polyline class="b4327757-b2d0-4cbe-beed-c93912b0e311" points="145.66 282.33 97.31 282.33 97.31 152.75 120.65 152.75"/><polygon class="e181d4d7-9d20-4f89-b826-1caaf676e4bf" points="118.9 158.73 129.26 152.75 118.9 146.76 118.9 158.73"/><rect class="a7776d9b-8605-4c9c-bff5-6263dd4223a1" x="72.65" y="190.71" width="47.09" height="17.57"/><text class="aed1cbb6-35f8-4bcc-b688-f778faf702da" transform="translate(78.76 202.23)">REJEC<tspan class="a58b853b-eb20-4b3b-b1d2-ca56fcda3886" x="28.93" y="0">T</tspan></text><rect class="a7776d9b-8605-4c9c-bff5-6263dd4223a1" x="173.62" y="452.78" width="31.28" height="17.57"/><text class="aed1cbb6-35f8-4bcc-b688-f778faf702da" transform="translate(182.4 464.31)">NO</text><rect class="bf52c534-b2f2-4afc-a5f1-ff4dcfaec486" x="240.84" y="396.13" width="31.28" height="17.57"/><text class="aed1cbb6-35f8-4bcc-b688-f778faf702da" transform="translate(248.01 407.66)">YES</text><polyline class="b4327757-b2d0-4cbe-beed-c93912b0e311" points="383.88 557.55 409.29 557.55 409.29 155.85 426.54 155.85"/><polygon class="e181d4d7-9d20-4f89-b826-1caaf676e4bf" points="424.79 161.83 435.15 155.85 424.79 149.87 424.79 161.83"/><polyline class="b4327757-b2d0-4cbe-beed-c93912b0e311" points="595.25 282.33 559.81 282.33 559.81 156.83"/><rect class="a7776d9b-8605-4c9c-bff5-6263dd4223a1" x="536.88" y="190.71" width="47.09" height="17.57"/><text class="aed1cbb6-35f8-4bcc-b688-f778faf702da" transform="translate(542.99 202.23)">REJEC<tspan class="a58b853b-eb20-4b3b-b1d2-ca56fcda3886" x="28.93" y="0">T</tspan></text><polyline class="b4327757-b2d0-4cbe-beed-c93912b0e311" points="681.23 282.33 801.22 282.33 801.22 182.24"/><rect class="bf52c534-b2f2-4afc-a5f1-ff4dcfaec486" x="773.54" y="242.11" width="54.77" height="17.57"/><text class="aed1cbb6-35f8-4bcc-b688-f778faf702da" transform="translate(779.37 253.64)">APPROVE</text></g></svg>