<svg xmlns="http://www.w3.org/2000/svg" viewBox="0 0 2164.39 1531.1"><defs><style>.ac1532d9-1382-484d-91d8-d337ed3643fb,.bf61ba8e-ce07-422f-bfe0-516312fafa97,.e4250496-fef8-406f-b325-2cf0722429ad,.e56e862f-0624-4c61-a690-49a762e6d801,.f2726862-caa6-41df-b69f-d8a6ae06a738,.f6a6e09e-e85e-418d-aedc-01340b794467{fill:none;}.a9bde1a5-6ee6-4ba2-9e66-d98a741beda0,.ac1532d9-1382-484d-91d8-d337ed3643fb,.bf61ba8e-ce07-422f-bfe0-516312fafa97,.e4250496-fef8-406f-b325-2cf0722429ad,.e56e862f-0624-4c61-a690-49a762e6d801,.f6a6e09e-e85e-418d-aedc-01340b794467{stroke:#646464;}.a2661cca-a726-411b-87be-53e0cdc3e33e,.a9bde1a5-6ee6-4ba2-9e66-d98a741beda0,.ab3e7a87-168b-4c79-b5ef-010407c309dc,.ac1532d9-1382-484d-91d8-d337ed3643fb,.bf61ba8e-ce07-422f-bfe0-516312fafa97,.e56e862f-0624-4c61-a690-49a762e6d801,.f2726862-caa6-41df-b69f-d8a6ae06a738,.f6a6e09e-e85e-418d-aedc-01340b794467{stroke-miterlimit:10;}.a2661cca-a726-411b-87be-53e0cdc3e33e,.a9bde1a5-6ee6-4ba2-9e66-d98a741beda0,.ab3e7a87-168b-4c79-b5ef-010407c309dc,.e4250496-fef8-406f-b325-2cf0722429ad,.e56e862f-0624-4c61-a690-49a762e6d801{stroke-width:2px;}.a9a9a5a6-2249-42b4-8b9e-5c55a040e854,.a9cbd786-07ac-4f42-bb67-e9e027d783f6,.b7e8ca66-8f2b-489b-a61f-c7ca14246809,.b9c6003b-3e7a-495c-9af5-6ced488260a0{fill:#646464;}.bf61ba8e-ce07-422f-bfe0-516312fafa97,.f6a6e09e-e85e-418d-aedc-01340b794467{stroke-width:0.5px;}.f6a6e09e-e85e-418d-aedc-01340b794467{stroke-dasharray:5 3;}.e4250496-fef8-406f-b325-2cf0722429ad{stroke-linejoin:round;}.a9a9a5a6-2249-42b4-8b9e-5c55a040e854,.b24e99aa-b299-4f3f-a0a4-8c58381d3bf6,.eae68603-6060-4ab2-8b8a-872f32ba1fce{font-size:10px;}.a9a9a5a6-2249-42b4-8b9e-5c55a040e854,.a9cbd786-07ac-4f42-bb67-e9e027d783f6,.b24e99aa-b299-4f3f-a0a4-8c58381d3bf6,.b9c6003b-3e7a-495c-9af5-6ced488260a0,.bd0dd857-9a6e-4d62-80ad-539fc2092cef,.eae68603-6060-4ab2-8b8a-872f32ba1fce{font-family:TrebuchetMS-Bold, Trebuchet MS;font-weight:700;}.b5564475-9590-4302-b3ab-c8c475d7b8e0{letter-spacing:0.03em;}.e39eb3e3-aadf-4447-8e3e-a29720d26714{letter-spacing:-0.06em;}.a9baf5f0-0a76-4d58-b33b-6702511e4364{letter-spacing:-0.03em;}.a9cbd786-07ac-4f42-bb67-e9e027d783f6{font-size:24px;}.b9c6003b-3e7a-495c-9af5-6ced488260a0{font-size:11px;}.bbd204a4-2097-4afe-8e60-b3280007cc82{letter-spacing:-0.02em;}.a9bde1a5-6ee6-4ba2-9e66-d98a741beda0,.f7c4dbb7-3cd0-46c2-985b-08be91081a1d{fill:#009add;}.a2661cca-a726-411b-87be-53e0cdc3e33e,.ab3e7a87-168b-4c79-b5ef-010407c309dc,.bd0dd857-9a6e-4d62-80ad-539fc2092cef,.eae68603-6060-4ab2-8b8a-872f32ba1fce{fill:#fff;}.add4bfad-a3d0-42f7-b152-18c44d4640b5{letter-spacing:-0.09em;}.bd0dd857-9a6e-4d62-80ad-539fc2092cef{font-size:16px;}.b10f175a-54ee-4daf-bf82-a6aa360fe41a{letter-spacing:-0.09em;}.f2f19160-ec35-4180-b794-e622efed13d3{fill:#d23138;}.a70e4b58-c816-4716-935b-67cb98381ea1{fill:#3eaf49;}.f2726862-caa6-41df-b69f-d8a6ae06a738{stroke:#666;stroke-dasharray:8 4;}.b24e99aa-b299-4f3f-a0a4-8c58381d3bf6{fill:#7e8083;}.ab3e7a87-168b-4c79-b5ef-010407c309dc{stroke:#d23138;}.a2661cca-a726-411b-87be-53e0cdc3e33e{stroke:#3eaf49;}</style></defs><title>CDOT_diagrams_CH3</title><g id="a05e8d0b-f950-4450-b58d-c3e797b6a3cc" data-name="shapes"><line class="e56e862f-0624-4c61-a690-49a762e6d801" x1="150.97" y1="536.88" x2="150.97" y2="504.97"/><polygon class="b7e8ca66-8f2b-489b-a61f-c7ca14246809" points="156.96 506.72 150.97 496.36 144.99 506.72 156.96 506.72"/><line class="bf61ba8e-ce07-422f-bfe0-516312fafa97" x1="18.37" y1="231.68" x2="20.87" y2="231.68"/><line class="f6a6e09e-e85e-418d-aedc-01340b794467" x1="23.87" y1="231.68" x2="2140.6" y2="231.68"/><line class="bf61ba8e-ce07-422f-bfe0-516312fafa97" x1="2142.1" y1="231.68" x2="2144.6" y2="231.68"/><line class="bf61ba8e-ce07-422f-bfe0-516312fafa97" x1="18.37" y1="396.13" x2="20.87" y2="396.13"/><line class="f6a6e09e-e85e-418d-aedc-01340b794467" x1="23.87" y1="396.13" x2="2140.6" y2="396.13"/><line class="bf61ba8e-ce07-422f-bfe0-516312fafa97" x1="2142.1" y1="396.13" x2="2144.6" y2="396.13"/><line class="bf61ba8e-ce07-422f-bfe0-516312fafa97" x1="18.37" y1="669.51" x2="20.87" y2="669.51"/><line class="f6a6e09e-e85e-418d-aedc-01340b794467" x1="23.87" y1="669.51" x2="2140.6" y2="669.51"/><line class="bf61ba8e-ce07-422f-bfe0-516312fafa97" x1="2142.1" y1="669.51" x2="2144.6" y2="669.51"/><line class="bf61ba8e-ce07-422f-bfe0-516312fafa97" x1="18.37" y1="978.85" x2="20.87" y2="978.85"/><line class="f6a6e09e-e85e-418d-aedc-01340b794467" x1="23.87" y1="978.85" x2="2140.6" y2="978.85"/><line class="bf61ba8e-ce07-422f-bfe0-516312fafa97" x1="2142.1" y1="978.85" x2="2144.6" y2="978.85"/><line class="bf61ba8e-ce07-422f-bfe0-516312fafa97" x1="18.37" y1="1233.51" x2="20.87" y2="1233.51"/><line class="f6a6e09e-e85e-418d-aedc-01340b794467" x1="23.87" y1="1233.51" x2="2140.6" y2="1233.51"/><line class="bf61ba8e-ce07-422f-bfe0-516312fafa97" x1="2142.1" y1="1233.51" x2="2144.6" y2="1233.51"/><line class="bf61ba8e-ce07-422f-bfe0-516312fafa97" x1="18.37" y1="1377.8" x2="20.87" y2="1377.8"/><line class="f6a6e09e-e85e-418d-aedc-01340b794467" x1="23.87" y1="1377.8" x2="2140.6" y2="1377.8"/><line class="bf61ba8e-ce07-422f-bfe0-516312fafa97" x1="2142.1" y1="1377.8" x2="2144.6" y2="1377.8"/><line class="bf61ba8e-ce07-422f-bfe0-516312fafa97" x1="18.37" y1="803.02" x2="20.87" y2="803.02"/><line class="f6a6e09e-e85e-418d-aedc-01340b794467" x1="23.87" y1="803.02" x2="2140.6" y2="803.02"/><line class="bf61ba8e-ce07-422f-bfe0-516312fafa97" x1="2142.1" y1="803.02" x2="2144.6" y2="803.02"/><path class="e4250496-fef8-406f-b325-2cf0722429ad" d="M388.59,435.13h11.73s-8.74,15-8.74,29.28,8.74,28.42,8.74,28.42"/><path class="e56e862f-0624-4c61-a690-49a762e6d801" d="M270.54,492.83s-8.75-14.12-8.75-28.42,8.75-29.28,8.75-29.28H400.66s8.75,14.12,8.75,28.42-8.75,29.28-8.75,29.28Z"/><path class="e4250496-fef8-406f-b325-2cf0722429ad" d="M585.85,113.33s-9.39,14.25-9.39,28.55,8.75,28.42,8.75,28.42"/><path class="e56e862f-0624-4c61-a690-49a762e6d801" d="M447.88,170.3s-8.75-14.13-8.75-28.42,8.75-29.28,8.75-29.28H585.55s8.75,14.12,8.75,28.42-8.75,29.28-8.75,29.28Z"/><path class="e4250496-fef8-406f-b325-2cf0722429ad" d="M559.45,253.64s-9.24,14.35-9.09,28.64,9,28.33,9,28.33"/><path class="e56e862f-0624-4c61-a690-49a762e6d801" d="M469.17,310.84s-8.74-14.13-8.74-28.43,8.74-29.28,8.74-29.28l90.28.51s8.75,14.12,8.75,28.42-8.75,29.28-8.75,29.28Z"/><path class="e4250496-fef8-406f-b325-2cf0722429ad" d="M1165.79,1164s-9.24,12.09-9.09,24.15,9,23.88,9,23.88"/><path class="e56e862f-0624-4c61-a690-49a762e6d801" d="M1075.51,1212.16s-8.75-11.91-8.75-24,8.75-24.68,8.75-24.68l90.28.42s8.75,11.91,8.75,24-8.75,24.68-8.75,24.68Z"/><path class="e4250496-fef8-406f-b325-2cf0722429ad" d="M790.15,112.6s-9.24,14.34-9.09,28.64,9.05,28.33,9.05,28.33"/><path class="e56e862f-0624-4c61-a690-49a762e6d801" d="M652.47,170.3s-8.75-14.13-8.75-28.42,8.75-29.28,8.75-29.28H790.15s8.75,14.12,8.75,28.42-8.75,29.28-8.75,29.28Z"/><line class="e56e862f-0624-4c61-a690-49a762e6d801" x1="206.1" y1="463.48" x2="250.12" y2="463.48"/><polygon class="b7e8ca66-8f2b-489b-a61f-c7ca14246809" points="248.37 469.46 258.73 463.48 248.37 457.49 248.37 469.46"/><line class="e56e862f-0624-4c61-a690-49a762e6d801" x1="586.63" y1="141.59" x2="630.64" y2="141.59"/><polygon class="b7e8ca66-8f2b-489b-a61f-c7ca14246809" points="628.89 147.58 639.25 141.59 628.89 135.61 628.89 147.58"/><line class="e56e862f-0624-4c61-a690-49a762e6d801" x1="517.02" y1="170.64" x2="517.02" y2="242.28"/><polygon class="b7e8ca66-8f2b-489b-a61f-c7ca14246809" points="511.04 240.53 517.02 250.89 523 240.53 511.04 240.53"/></g><g id="b31bed75-efc9-4c78-935f-f6ff47fb34a6" data-name="text"><polyline class="e56e862f-0624-4c61-a690-49a762e6d801" points="1273.78 116.04 1273.78 92.72 1055.15 92.72 1055.15 125.15"/><polygon class="b7e8ca66-8f2b-489b-a61f-c7ca14246809" points="1049.17 123.4 1055.15 133.76 1061.13 123.4 1049.17 123.4"/><text class="a9a9a5a6-2249-42b4-8b9e-5c55a040e854" transform="translate(277.23 453.55)">Notify subrecipient to <tspan x="-0.86" y="12">re</tspan><tspan class="b5564475-9590-4302-b3ab-c8c475d7b8e0" x="9.16" y="12">v</tspan><tspan x="14.75" y="12">iew Milestones and </tspan><tspan x="-9.47" y="24">complete Risk</tspan><tspan class="e39eb3e3-aadf-4447-8e3e-a29720d26714" x="56.03" y="24"> </tspan><tspan x="58.49" y="24">Assessment</tspan></text><text class="a9a9a5a6-2249-42b4-8b9e-5c55a040e854" transform="translate(455.62 132.02)">Update Milestones and <tspan x="-8.47" y="12">Complete Risk</tspan><tspan class="e39eb3e3-aadf-4447-8e3e-a29720d26714" x="58.02" y="12"> </tspan><tspan x="60.48" y="12">Assessment </tspan><tspan x="26.96" y="24">(COTRAMS)</tspan></text><text class="a9a9a5a6-2249-42b4-8b9e-5c55a040e854" transform="translate(470.39 271.56)"><tspan xml:space="preserve"> Complete Risk </tspan><tspan x="8" y="12">Assessment </tspan><tspan x="8.95" y="24">(COTRAMS)</tspan></text><text class="a9a9a5a6-2249-42b4-8b9e-5c55a040e854" transform="translate(1087.25 1179.06)">Build G<tspan class="a9baf5f0-0a76-4d58-b33b-6702511e4364" x="33.33" y="0">r</tspan><tspan x="37.29" y="0">ant </tspan><tspan x="0.58" y="12">Agreement </tspan><tspan x="0.43" y="24">(COTRAMS)</tspan></text><text class="a9a9a5a6-2249-42b4-8b9e-5c55a040e854" transform="translate(658.72 129.85)">Submit Certifications &amp; <tspan x="-5.45" y="12">Assu</tspan><tspan class="a9baf5f0-0a76-4d58-b33b-6702511e4364" x="15.4" y="12">r</tspan><tspan x="19.36" y="12">ances when notified </tspan><tspan x="28.44" y="24">(COTRAMS)</tspan></text><text class="a9cbd786-07ac-4f42-bb67-e9e027d783f6" transform="translate(18.5 35.68)">3-11 Budget to Executed G<tspan class="a9baf5f0-0a76-4d58-b33b-6702511e4364" x="301.29" y="0">r</tspan><tspan x="310.79" y="0">ant</tspan><tspan class="e39eb3e3-aadf-4447-8e3e-a29720d26714" x="347.26" y="0"> </tspan><tspan x="353.17" y="0">Agreement</tspan></text><text class="b9c6003b-3e7a-495c-9af5-6ced488260a0" transform="translate(44.66 182.67) rotate(-90)">Subrecipient</text><text class="b9c6003b-3e7a-495c-9af5-6ced488260a0" transform="translate(44.66 376.87) rotate(-90)">DTR Project Coordinator</text><text class="b9c6003b-3e7a-495c-9af5-6ced488260a0" transform="translate(44.66 588.19) rotate(-90)">DTR Prog<tspan class="a9baf5f0-0a76-4d58-b33b-6702511e4364" x="46.73" y="0">r</tspan><tspan x="51.09" y="0">amming Unit</tspan></text><text class="b9c6003b-3e7a-495c-9af5-6ced488260a0" transform="translate(44.66 770.35) rotate(-90)">DTR Projects</text><text class="b9c6003b-3e7a-495c-9af5-6ced488260a0" transform="translate(44.66 927.51) rotate(-90)">Business Office</text><text class="b9c6003b-3e7a-495c-9af5-6ced488260a0" transform="translate(44.66 1345.23) rotate(-90)">Chief Engineer</text><text class="b9c6003b-3e7a-495c-9af5-6ced488260a0" transform="translate(44.66 1489.42) rotate(-90)">CDO<tspan class="bbd204a4-2097-4afe-8e60-b3280007cc82" x="21.53" y="0">T</tspan><tspan x="28.06" y="0" xml:space="preserve"> Controller</tspan></text><text class="b9c6003b-3e7a-495c-9af5-6ced488260a0" transform="translate(44.66 1144.52) rotate(-90)">Procurement</text><rect class="a9bde1a5-6ee6-4ba2-9e66-d98a741beda0" x="97.78" y="434.04" width="107.79" height="60.34"/><text class="eae68603-6060-4ab2-8b8a-872f32ba1fce" transform="translate(103.62 449.9)">Complete Budgeting <tspan x="12.57" y="12">process (F</tspan><tspan class="add4bfad-a3d0-42f7-b152-18c44d4640b5" x="60.33" y="12">T</tspan><tspan class="e39eb3e3-aadf-4447-8e3e-a29720d26714" x="65.5" y="12">A</tspan><tspan x="71.28" y="12" xml:space="preserve"> &amp; </tspan><tspan x="17.55" y="24">Non-fede</tspan><tspan class="a9baf5f0-0a76-4d58-b33b-6702511e4364" x="60.46" y="24">r</tspan><tspan x="64.42" y="24">al)</tspan><tspan x="7.32" y="37">(COTRAMS) (SAP)</tspan></text><rect class="e56e862f-0624-4c61-a690-49a762e6d801" x="781.56" y="705.73" width="101.7" height="49"/><text class="a9a9a5a6-2249-42b4-8b9e-5c55a040e854" transform="translate(793.37 721.82)">Give to Business <tspan x="-2.2" y="12">Office for budget </tspan><tspan x="17.66" y="24">approval</tspan></text><rect class="e56e862f-0624-4c61-a690-49a762e6d801" x="1433.49" y="140.76" width="101.7" height="49"/><text class="a9a9a5a6-2249-42b4-8b9e-5c55a040e854" transform="translate(1443.01 156.85)">Mail signed G<tspan class="a9baf5f0-0a76-4d58-b33b-6702511e4364" x="61.22" y="0">r</tspan><tspan x="65.18" y="0">ant </tspan><tspan x="8.2" y="12">Agreement to </tspan><tspan x="9.66" y="24">Procurement </tspan></text><rect class="e56e862f-0624-4c61-a690-49a762e6d801" x="1955.18" y="140.2" width="84.07" height="49"/><text class="a9a9a5a6-2249-42b4-8b9e-5c55a040e854" transform="translate(1980.38 159.84)">Initiate <tspan x="-0.32" y="12">Project</tspan></text><rect class="e56e862f-0624-4c61-a690-49a762e6d801" x="1017.12" y="136.73" width="75.15" height="49.24"/><text class="a9a9a5a6-2249-42b4-8b9e-5c55a040e854" transform="translate(1029.7 164.47)">Notify DTR</text><rect class="e56e862f-0624-4c61-a690-49a762e6d801" x="958.66" y="869.69" width="85.78" height="41.14"/><text class="a9a9a5a6-2249-42b4-8b9e-5c55a040e854" transform="translate(976.83 886.99)">Send SC to <tspan x="-5.8" y="12">Procurement</tspan></text><line class="ac1532d9-1382-484d-91d8-d337ed3643fb" x1="64.85" y1="1510.15" x2="64.85" y2="69.02"/><polygon class="ac1532d9-1382-484d-91d8-d337ed3643fb" points="2144.6 1510.56 18.33 1510.56 18.33 69.17 69.72 69.17 2144.6 69.17 2144.6 1510.56"/><text class="bd0dd857-9a6e-4d62-80ad-539fc2092cef" transform="translate(2067.85 658.39)">3-9</text><text class="a9a9a5a6-2249-42b4-8b9e-5c55a040e854" transform="translate(598.45 714.85)">G<tspan class="a9baf5f0-0a76-4d58-b33b-6702511e4364" x="6.71" y="0">r</tspan><tspan x="10.67" y="0">ant Unit </tspan><tspan x="4.73" y="12">Manager </tspan><tspan x="-13.84" y="24">Approve/ Reject </tspan><tspan x="18.64" y="36">SC</tspan></text><rect class="e56e862f-0624-4c61-a690-49a762e6d801" x="588.17" y="695.97" width="69.08" height="69.08" transform="translate(-334.16 654.28) rotate(-45)"/><text class="a9a9a5a6-2249-42b4-8b9e-5c55a040e854" transform="translate(812.38 874.56)">Accu<tspan class="a9baf5f0-0a76-4d58-b33b-6702511e4364" x="22.48" y="0">r</tspan><tspan x="26.44" y="0">ate </tspan><tspan x="-10.94" y="12">amount, fund </tspan><tspan x="-13.63" y="24">source, scope? </tspan><tspan class="b10f175a-54ee-4daf-bf82-a6aa360fe41a" x="4.99" y="36">Y</tspan><tspan x="10.2" y="36">es/No</tspan></text><rect class="e56e862f-0624-4c61-a690-49a762e6d801" x="798.58" y="854.95" width="69.08" height="69.08" transform="translate(-384.95 849.63) rotate(-45)"/><text class="a9a9a5a6-2249-42b4-8b9e-5c55a040e854" transform="translate(1239 160.29)">Re<tspan class="b5564475-9590-4302-b3ab-c8c475d7b8e0" x="11.86" y="0">v</tspan><tspan x="17.44" y="0">iew G</tspan><tspan class="e39eb3e3-aadf-4447-8e3e-a29720d26714" x="43.74" y="0">A</tspan><tspan x="49.52" y="0" xml:space="preserve"> and </tspan><tspan x="-1.81" y="12">Approve/Reject </tspan></text><rect class="e56e862f-0624-4c61-a690-49a762e6d801" x="1239.24" y="130.34" width="69.08" height="69.08" transform="translate(256.49 948.99) rotate(-45)"/><text class="a9a9a5a6-2249-42b4-8b9e-5c55a040e854" transform="translate(1105.88 1028.54)">Meets <tspan x="-16.9" y="13">procurement </tspan><tspan x="-20.22" y="25">requirements? </tspan><tspan class="b10f175a-54ee-4daf-bf82-a6aa360fe41a" x="-2.14" y="37">Y</tspan><tspan x="3.07" y="37">es/No</tspan></text><rect class="e56e862f-0624-4c61-a690-49a762e6d801" x="1087.59" y="1012.29" width="63.79" height="63.79" transform="translate(-410.46 1097.43) rotate(-45)"/><line class="e56e862f-0624-4c61-a690-49a762e6d801" x1="1273.92" y1="1163.34" x2="1273.92" y2="224.34"/><polygon class="b7e8ca66-8f2b-489b-a61f-c7ca14246809" points="1279.91 226.09 1273.92 215.73 1267.94 226.09 1279.91 226.09"/><polyline class="e56e862f-0624-4c61-a690-49a762e6d801" points="1483.67 189.64 1483.67 1090.25 1516.72 1090.25"/><polygon class="b7e8ca66-8f2b-489b-a61f-c7ca14246809" points="1514.97 1096.23 1525.34 1090.25 1514.97 1084.26 1514.97 1096.23"/><circle class="f7c4dbb7-3cd0-46c2-985b-08be91081a1d" cx="150.97" cy="558.18" r="22.5"/><text class="bd0dd857-9a6e-4d62-80ad-539fc2092cef" transform="translate(138.66 555.38)">3-9<tspan x="-4.69" y="16">3-10</tspan></text><line class="e56e862f-0624-4c61-a690-49a762e6d801" x1="573.98" y1="730.51" x2="328.85" y2="730.51"/><line class="e56e862f-0624-4c61-a690-49a762e6d801" x1="783.54" y1="889.55" x2="328.18" y2="889.55"/><rect class="f2f19160-ec35-4180-b794-e622efed13d3" x="471.05" y="721.25" width="46.38" height="17.57"/><text class="eae68603-6060-4ab2-8b8a-872f32ba1fce" transform="translate(477.14 732.78)">REJEC<tspan class="bbd204a4-2097-4afe-8e60-b3280007cc82" x="28.93" y="0">T</tspan></text><rect class="f2f19160-ec35-4180-b794-e622efed13d3" x="1128.06" y="84.06" width="46.38" height="17.57"/><text class="eae68603-6060-4ab2-8b8a-872f32ba1fce" transform="translate(1134.15 95.59)">REJEC<tspan class="bbd204a4-2097-4afe-8e60-b3280007cc82" x="28.93" y="0">T</tspan></text><line class="e56e862f-0624-4c61-a690-49a762e6d801" x1="882.22" y1="889.61" x2="947.17" y2="889.61"/><polygon class="b7e8ca66-8f2b-489b-a61f-c7ca14246809" points="945.42 895.59 955.78 889.61 945.42 883.62 945.42 895.59"/><line class="e56e862f-0624-4c61-a690-49a762e6d801" x1="670.83" y1="730.12" x2="770.66" y2="730.12"/><polygon class="b7e8ca66-8f2b-489b-a61f-c7ca14246809" points="768.91 736.1 779.27 730.12 768.91 724.14 768.91 736.1"/><rect class="e56e862f-0624-4c61-a690-49a762e6d801" x="1222.91" y="1163.14" width="101.7" height="49"/><text class="a9a9a5a6-2249-42b4-8b9e-5c55a040e854" transform="translate(1245.4 1179.23)">Email G<tspan class="a9baf5f0-0a76-4d58-b33b-6702511e4364" x="35.27" y="0">r</tspan><tspan x="39.23" y="0">ant </tspan><tspan x="-4.77" y="12">Agreement to </tspan><tspan x="-2.08" y="24">subrecipient</tspan></text><rect class="e56e862f-0624-4c61-a690-49a762e6d801" x="1528.32" y="1062.03" width="132.58" height="58.97"/><text class="a9a9a5a6-2249-42b4-8b9e-5c55a040e854" transform="translate(1541.99 1078.12)">If less than $.5M, send <tspan x="1.81" y="12">G</tspan><tspan class="e39eb3e3-aadf-4447-8e3e-a29720d26714" x="8.53" y="12">A</tspan><tspan x="14.31" y="12" xml:space="preserve"> to DTR Director; if </tspan><tspan x="-3.77" y="24">greater than $.5M, send </tspan><tspan x="11.93" y="36">to Chief Engineer</tspan></text><rect class="e56e862f-0624-4c61-a690-49a762e6d801" x="1913.05" y="519.92" width="166.31" height="86.1"/><text class="a9a9a5a6-2249-42b4-8b9e-5c55a040e854" transform="translate(1939.19 533.49)">Mail G<tspan class="a9baf5f0-0a76-4d58-b33b-6702511e4364" x="28.44" y="0">r</tspan><tspan x="32.4" y="0">ant</tspan><tspan class="e39eb3e3-aadf-4447-8e3e-a29720d26714" x="47.59" y="0"> </tspan><tspan x="50.05" y="0">Agreement to </tspan><tspan x="-17.43" y="12">subrecipient Notify DTR Project </tspan><tspan x="-15.49" y="24">Coordination Unit Manager and </tspan><tspan x="-0.29" y="36">DTR Project Coordinator</tspan><tspan x="-3.18" y="48">Update COTRAMS with PO </tspan><tspan x="38.89" y="60">number</tspan></text><rect class="e56e862f-0624-4c61-a690-49a762e6d801" x="1900.44" y="519.98" width="191.52" height="85.75"/><rect class="e56e862f-0624-4c61-a690-49a762e6d801" x="1528.32" y="698.45" width="132.58" height="58.97"/><text class="a9a9a5a6-2249-42b4-8b9e-5c55a040e854" transform="translate(1539.5 714.54)">DTR Director sign G<tspan class="a9baf5f0-0a76-4d58-b33b-6702511e4364" x="91.06" y="0">r</tspan><tspan x="95.02" y="0">ant </tspan><tspan x="0.71" y="12">Agreement and send to </tspan><tspan x="17.1" y="24">CDO</tspan><tspan class="bbd204a4-2097-4afe-8e60-b3280007cc82" x="36.67" y="24">T</tspan><tspan x="42.61" y="24" xml:space="preserve"> Controller</tspan></text><rect class="e56e862f-0624-4c61-a690-49a762e6d801" x="1528.32" y="1279.66" width="132.58" height="43.72"/><text class="a9a9a5a6-2249-42b4-8b9e-5c55a040e854" transform="translate(1548.62 1295.75)">Sign G<tspan class="e39eb3e3-aadf-4447-8e3e-a29720d26714" x="28.75" y="0">A</tspan><tspan x="34.53" y="0" xml:space="preserve"> and send to </tspan><tspan x="7.98" y="12">CDO</tspan><tspan class="bbd204a4-2097-4afe-8e60-b3280007cc82" x="27.56" y="12">T</tspan><tspan x="33.5" y="12" xml:space="preserve"> Controller</tspan></text><rect class="e56e862f-0624-4c61-a690-49a762e6d801" x="1947.84" y="1007.21" width="97.81" height="43.72"/><text class="a9a9a5a6-2249-42b4-8b9e-5c55a040e854" transform="translate(1973.84 1030.75)">Route G<tspan class="e39eb3e3-aadf-4447-8e3e-a29720d26714" x="37.11" y="0">A</tspan></text><rect class="e56e862f-0624-4c61-a690-49a762e6d801" x="1673.72" y="1413.19" width="143.9" height="43.72"/><text class="a9a9a5a6-2249-42b4-8b9e-5c55a040e854" transform="translate(1684.81 1431.28)">Sign G<tspan class="a9baf5f0-0a76-4d58-b33b-6702511e4364" x="28.75" y="0">r</tspan><tspan x="32.71" y="0">ant</tspan><tspan class="e39eb3e3-aadf-4447-8e3e-a29720d26714" x="47.9" y="0"> </tspan><tspan x="50.36" y="0">Agreement and </tspan><tspan x="11.64" y="12">send to Procurement</tspan></text><line class="e56e862f-0624-4c61-a690-49a762e6d801" x1="1166.86" y1="1187.53" x2="1212.01" y2="1187.53"/><polygon class="b7e8ca66-8f2b-489b-a61f-c7ca14246809" points="1210.26 1193.52 1220.62 1187.53 1210.26 1181.55 1210.26 1193.52"/><line class="e56e862f-0624-4c61-a690-49a762e6d801" x1="1996.95" y1="1107.15" x2="1996.95" y2="1062"/><polygon class="b7e8ca66-8f2b-489b-a61f-c7ca14246809" points="2002.94 1063.75 1996.95 1053.39 1990.97 1063.75 2002.94 1063.75"/><line class="e56e862f-0624-4c61-a690-49a762e6d801" x1="1996.95" y1="1008.11" x2="1996.95" y2="621.29"/><polygon class="b7e8ca66-8f2b-489b-a61f-c7ca14246809" points="2002.94 623.04 1996.95 612.68 1990.97 623.04 2002.94 623.04"/><line class="e56e862f-0624-4c61-a690-49a762e6d801" x1="1996.95" y1="519.43" x2="1996.95" y2="199.89"/><polygon class="b7e8ca66-8f2b-489b-a61f-c7ca14246809" points="2002.94 201.64 1996.95 191.28 1990.97 201.64 2002.94 201.64"/><line class="e56e862f-0624-4c61-a690-49a762e6d801" x1="832.76" y1="755.22" x2="832.76" y2="829.68"/><polygon class="b7e8ca66-8f2b-489b-a61f-c7ca14246809" points="826.77 827.92 832.76 838.29 838.74 827.92 826.77 827.92"/><rect class="a70e4b58-c816-4716-935b-67cb98381ea1" x="690.93" y="721.08" width="57.18" height="17.57"/><text class="eae68603-6060-4ab2-8b8a-872f32ba1fce" transform="translate(698.56 733.6)">APPROVE</text><line class="e56e862f-0624-4c61-a690-49a762e6d801" x1="1322.28" y1="164.13" x2="1422.11" y2="164.13"/><polygon class="b7e8ca66-8f2b-489b-a61f-c7ca14246809" points="1420.36 170.12 1430.72 164.13 1420.36 158.15 1420.36 170.12"/><rect class="a70e4b58-c816-4716-935b-67cb98381ea1" x="1342.38" y="155.09" width="57.18" height="17.57"/><text class="eae68603-6060-4ab2-8b8a-872f32ba1fce" transform="translate(1350.01 167.62)">APPROVE</text><rect class="a70e4b58-c816-4716-935b-67cb98381ea1" x="896.16" y="879.78" width="31.28" height="17.57"/><text class="eae68603-6060-4ab2-8b8a-872f32ba1fce" transform="translate(903.34 891.31)">YES</text><line class="e56e862f-0624-4c61-a690-49a762e6d801" x1="1119.4" y1="1088.46" x2="1119.4" y2="1153.41"/><polygon class="b7e8ca66-8f2b-489b-a61f-c7ca14246809" points="1113.42 1151.66 1119.4 1162.02 1125.38 1151.66 1113.42 1151.66"/><rect class="a70e4b58-c816-4716-935b-67cb98381ea1" x="1103.76" y="1115.41" width="31.28" height="17.57"/><text class="eae68603-6060-4ab2-8b8a-872f32ba1fce" transform="translate(1110.93 1126.94)">YES</text><path class="e56e862f-0624-4c61-a690-49a762e6d801" d="M272.89,567.09v68.14s3.16,8.79,61.31,9.18S394,634.66,394,634.66V567.28s0-9-63-9C271.19,558.29,272.89,567.09,272.89,567.09Z"/><path class="e56e862f-0624-4c61-a690-49a762e6d801" d="M272.92,578.58s-2.68,6.25,28,9.2c28.22,2.72,54.17,3.51,73-.63,20.92-4.6,20.19-8.36,20.19-8.36"/><text class="a9a9a5a6-2249-42b4-8b9e-5c55a040e854" transform="translate(287.68 603.21)">Build Shopping Cart <tspan x="-4.9" y="12" xml:space="preserve">(SC)  in SA</tspan><tspan class="bbd204a4-2097-4afe-8e60-b3280007cc82" x="43.05" y="12">P</tspan><tspan x="48.74" y="12" xml:space="preserve"> with SOW </tspan><tspan x="-1.67" y="24">and Risk</tspan><tspan class="e39eb3e3-aadf-4447-8e3e-a29720d26714" x="37.26" y="24"> </tspan><tspan x="39.72" y="24">Assessment</tspan></text><path class="e56e862f-0624-4c61-a690-49a762e6d801" d="M272.92,573.56s-2.68,6.25,28,9.2c28.22,2.72,54.17,3.51,73-.63,20.92-4.6,20.19-8.36,20.19-8.36"/><path class="e56e862f-0624-4c61-a690-49a762e6d801" d="M272.92,567.91s-2.68,6.25,28,9.2c28.22,2.72,54.17,3.51,73-.62,20.92-4.6,20.19-8.37,20.19-8.37"/><path class="e56e862f-0624-4c61-a690-49a762e6d801" d="M1944.11,1115.22v60.06s2.79,7.75,54,8.09,52.75-8.59,52.75-8.59v-59.39s0-7.92-55.54-7.92C1942.61,1107.47,1944.11,1115.22,1944.11,1115.22Z"/><path class="e56e862f-0624-4c61-a690-49a762e6d801" d="M1944.13,1125.35s-2.36,5.5,24.66,8.11c24.87,2.39,47.75,3.09,64.33-.56,18.44-4.05,17.8-7.37,17.8-7.37"/><text class="a9a9a5a6-2249-42b4-8b9e-5c55a040e854" transform="translate(1970.27 1149.64)">Enter G<tspan class="a9baf5f0-0a76-4d58-b33b-6702511e4364" x="35.3" y="0">r</tspan><tspan x="39.26" y="0">ant </tspan><tspan x="-19.27" y="13">Agreement into SA</tspan><tspan class="bbd204a4-2097-4afe-8e60-b3280007cc82" x="68.04" y="13">P</tspan><tspan x="14.9" y="26">(SAP)</tspan></text><path class="e56e862f-0624-4c61-a690-49a762e6d801" d="M1944.13,1120.92s-2.36,5.51,24.66,8.11c24.87,2.4,47.75,3.1,64.33-.55,18.44-4,17.8-7.37,17.8-7.37"/><path class="e56e862f-0624-4c61-a690-49a762e6d801" d="M1944.13,1116s-2.36,5.5,24.66,8.11c24.87,2.39,47.75,3.09,64.33-.56,18.44-4,17.8-7.37,17.8-7.37"/><path class="f2726862-caa6-41df-b69f-d8a6ae06a738" d="M1907.13,474.93H2111.2a0,0,0,0,1,0,0V606.09a26,26,0,0,1-26,26H1881.1a0,0,0,0,1,0,0V501A26,26,0,0,1,1907.13,474.93Z"/><text class="b24e99aa-b299-4f3f-a0a4-8c58381d3bf6" transform="translate(2051.3 486.31)">DTR<tspan class="e39eb3e3-aadf-4447-8e3e-a29720d26714" x="18.65" y="0"> </tspan><tspan x="21.11" y="0">Admin</tspan></text><polyline class="e56e862f-0624-4c61-a690-49a762e6d801" points="334.5 434.8 334.5 140.61 427.13 140.61"/><polygon class="b7e8ca66-8f2b-489b-a61f-c7ca14246809" points="425.38 146.59 435.74 140.61 425.38 134.62 425.38 146.59"/><polyline class="e56e862f-0624-4c61-a690-49a762e6d801" points="394.58 604.57 623.06 604.57 623.06 670.53"/><polygon class="b7e8ca66-8f2b-489b-a61f-c7ca14246809" points="617.08 668.78 623.06 679.14 629.05 668.78 617.08 668.78"/><polyline class="e56e862f-0624-4c61-a690-49a762e6d801" points="1044.44 890.26 1119.57 890.26 1119.57 986.6"/><polygon class="b7e8ca66-8f2b-489b-a61f-c7ca14246809" points="1113.59 984.85 1119.57 995.21 1125.55 984.85 1113.59 984.85"/><rect class="f2f19160-ec35-4180-b794-e622efed13d3" x="610.48" y="879.04" width="26.58" height="17.57"/><text class="eae68603-6060-4ab2-8b8a-872f32ba1fce" transform="translate(616.95 890.57)">NO</text><polyline class="e56e862f-0624-4c61-a690-49a762e6d801" points="1074.23 1044.15 327.98 1044.15 327.98 655.17"/><polygon class="b7e8ca66-8f2b-489b-a61f-c7ca14246809" points="333.97 656.92 327.98 646.56 322 656.92 333.97 656.92"/><rect class="f2f19160-ec35-4180-b794-e622efed13d3" x="700.25" y="1033.64" width="26.58" height="17.57"/><text class="eae68603-6060-4ab2-8b8a-872f32ba1fce" transform="translate(706.72 1045.17)">NO</text><line class="e56e862f-0624-4c61-a690-49a762e6d801" x1="1592.38" y1="1062.27" x2="1592.38" y2="769.85"/><polygon class="b7e8ca66-8f2b-489b-a61f-c7ca14246809" points="1598.36 771.6 1592.38 761.24 1586.4 771.6 1598.36 771.6"/><rect class="ab3e7a87-168b-4c79-b5ef-010407c309dc" x="1573.9" y="889.56" width="39.62" height="17.57"/><text class="a9a9a5a6-2249-42b4-8b9e-5c55a040e854" transform="translate(1576.57 901.09)">&lt;$ .5M</text><line class="e56e862f-0624-4c61-a690-49a762e6d801" x1="1592.7" y1="1121.16" x2="1592.7" y2="1264.77"/><polygon class="b7e8ca66-8f2b-489b-a61f-c7ca14246809" points="1586.71 1263.02 1592.7 1273.38 1598.68 1263.02 1586.71 1263.02"/><rect class="a2661cca-a726-411b-87be-53e0cdc3e33e" x="1572.62" y="1191.04" width="39.07" height="17.57"/><text class="a9a9a5a6-2249-42b4-8b9e-5c55a040e854" transform="translate(1576.3 1202.57)">&gt;$ .5M</text><polyline class="e56e862f-0624-4c61-a690-49a762e6d801" points="1591.23 1323.45 1591.23 1434.93 1662.01 1434.93"/><polygon class="b7e8ca66-8f2b-489b-a61f-c7ca14246809" points="1660.26 1440.91 1670.62 1434.93 1660.26 1428.95 1660.26 1440.91"/><polyline class="e56e862f-0624-4c61-a690-49a762e6d801" points="1660.99 726.91 1746.24 726.91 1746.24 1401.6"/><polygon class="b7e8ca66-8f2b-489b-a61f-c7ca14246809" points="1740.26 1399.85 1746.24 1410.21 1752.22 1399.85 1740.26 1399.85"/><polyline class="e56e862f-0624-4c61-a690-49a762e6d801" points="1817.7 1434.98 1997.45 1434.98 1997.45 1197.94"/><polygon class="b7e8ca66-8f2b-489b-a61f-c7ca14246809" points="2003.44 1199.69 1997.45 1189.33 1991.47 1199.69 2003.44 1199.69"/></g></svg>