<svg xmlns="http://www.w3.org/2000/svg" viewBox="0 0 1934.02 874.43"><defs><style>.a2221fc7-a32d-49ed-a52f-01c1d12c90b1,.a7ab2865-c05b-4953-b40f-1788ccb3aa5f,.ade5fb33-47ed-4e65-be8a-e9fd142d6778,.b302eafb-cd1f-4f48-b61c-2d141833fb85,.bebc116d-75e6-4abc-9934-cc108e68aede{fill:none;stroke:#646464;}.a2221fc7-a32d-49ed-a52f-01c1d12c90b1,.ade5fb33-47ed-4e65-be8a-e9fd142d6778,.b302eafb-cd1f-4f48-b61c-2d141833fb85,.bebc116d-75e6-4abc-9934-cc108e68aede{stroke-miterlimit:10;}.a2221fc7-a32d-49ed-a52f-01c1d12c90b1,.bebc116d-75e6-4abc-9934-cc108e68aede{stroke-width:0.5px;}.bebc116d-75e6-4abc-9934-cc108e68aede{stroke-dasharray:4.99 3;}.a7ab2865-c05b-4953-b40f-1788ccb3aa5f{stroke-linejoin:round;}.a7ab2865-c05b-4953-b40f-1788ccb3aa5f,.ade5fb33-47ed-4e65-be8a-e9fd142d6778{stroke-width:2px;}.b386752e-a72e-4062-bf03-7b90ae833820,.e7295c93-ab19-471b-93e1-cc2a834dcbd1{font-size:10px;}.b218c2f1-3e3f-4a15-b0f3-77abdec7dcc7,.bf7d53b3-8afd-4d38-8a1f-e819e6e44009,.e7295c93-ab19-471b-93e1-cc2a834dcbd1,.fd55b63c-271a-4136-8eb3-1ef7971625aa{fill:#646464;}.b218c2f1-3e3f-4a15-b0f3-77abdec7dcc7,.b386752e-a72e-4062-bf03-7b90ae833820,.e7295c93-ab19-471b-93e1-cc2a834dcbd1,.fd55b63c-271a-4136-8eb3-1ef7971625aa{font-family:TrebuchetMS-Bold, Trebuchet MS;font-weight:700;}.a25bb245-dee2-4b74-8a37-9a70b457c26e{letter-spacing:-0.09em;}.b218c2f1-3e3f-4a15-b0f3-77abdec7dcc7{font-size:24px;}.fd55b63c-271a-4136-8eb3-1ef7971625aa{font-size:11px;}.e46e7871-2dc0-45e4-9002-95c9d5585b3e{letter-spacing:-0.09em;}.bcbf17a8-d6f8-4959-bb5b-53ed0ddec95d{letter-spacing:-0.06em;}.f764d95f-16bb-4b0c-8848-2e54696b4b44{letter-spacing:-0.05em;}.a45700dd-b14f-4ca4-9df7-e189f98673b8{letter-spacing:-0.09em;}.aa142158-b24d-40b3-a414-8b99a17ef406{letter-spacing:-0.06em;}.a8c7e325-2fdf-458d-a2d2-6be849584cce{letter-spacing:0.03em;}.a705a8ce-2f55-44f4-adbc-be3357c9c2ad{letter-spacing:-0.07em;}.bf7f0aed-a251-4918-811b-25152d91c807{letter-spacing:-0.02em;}.a23f8622-6f50-4670-b209-1aaef4e64188{letter-spacing:-0.1em;}.b2aee778-016f-4e27-bded-eeda68032052{fill:#3eaf49;}.b386752e-a72e-4062-bf03-7b90ae833820{fill:#fff;}.bc9ca158-2f3d-445d-bbca-45218bb0c202{fill:#d23138;}</style></defs><title>CDOT_diagrams_CH5-6</title><g id="a2e67c87-dbe4-4a6f-b600-dfddb34d369b" data-name="shapes"><line class="a2221fc7-a32d-49ed-a52f-01c1d12c90b1" x1="18.68" y1="180.6" x2="21.18" y2="180.6"/><line class="bebc116d-75e6-4abc-9934-cc108e68aede" x1="24.18" y1="180.6" x2="1908.63" y2="180.6"/><line class="a2221fc7-a32d-49ed-a52f-01c1d12c90b1" x1="1910.13" y1="180.6" x2="1912.63" y2="180.6"/><line class="a2221fc7-a32d-49ed-a52f-01c1d12c90b1" x1="18.68" y1="462.89" x2="21.18" y2="462.89"/><line class="bebc116d-75e6-4abc-9934-cc108e68aede" x1="24.18" y1="462.89" x2="1908.63" y2="462.89"/><line class="a2221fc7-a32d-49ed-a52f-01c1d12c90b1" x1="1910.13" y1="462.89" x2="1912.63" y2="462.89"/><line class="a2221fc7-a32d-49ed-a52f-01c1d12c90b1" x1="18.68" y1="586.92" x2="21.18" y2="586.92"/><line class="bebc116d-75e6-4abc-9934-cc108e68aede" x1="24.18" y1="586.92" x2="1908.63" y2="586.92"/><line class="a2221fc7-a32d-49ed-a52f-01c1d12c90b1" x1="1910.13" y1="586.92" x2="1912.63" y2="586.92"/><line class="a2221fc7-a32d-49ed-a52f-01c1d12c90b1" x1="18.68" y1="728.93" x2="21.18" y2="728.93"/><line class="bebc116d-75e6-4abc-9934-cc108e68aede" x1="24.18" y1="728.93" x2="1908.63" y2="728.93"/><line class="a2221fc7-a32d-49ed-a52f-01c1d12c90b1" x1="1910.13" y1="728.93" x2="1912.63" y2="728.93"/><path class="a7ab2865-c05b-4953-b40f-1788ccb3aa5f" d="M233.31,355.3S225,373.78,225,391.42s8.29,35.06,8.29,35.06"/><path class="ade5fb33-47ed-4e65-be8a-e9fd142d6778" d="M112.25,426.56S103,409.14,103,391.5s9.24-36.12,9.24-36.12H232.74S242,372.81,242,390.44s-9.24,36.12-9.24,36.12Z"/></g><g id="f0a1e489-bfd9-4180-b93b-f2b3516256db" data-name="text"><text class="e7295c93-ab19-471b-93e1-cc2a834dcbd1" transform="matrix(1, 0, 0, 1, 1546.41, 644.44)">Approve?<tspan class="a25bb245-dee2-4b74-8a37-9a70b457c26e" x="5.91" y="13">Y</tspan><tspan x="11.12" y="13">es/No</tspan></text><polygon class="ade5fb33-47ed-4e65-be8a-e9fd142d6778" points="1527.13 646.77 1567.98 615.09 1609.13 646.38 1568.28 678.08 1527.13 646.77"/><text class="b218c2f1-3e3f-4a15-b0f3-77abdec7dcc7" transform="translate(18.5 35.68)">5-3 DBE Semiannual Report</text><text class="fd55b63c-271a-4136-8eb3-1ef7971625aa" transform="translate(43.31 156.94) rotate(-90)">Subrecipient</text><text class="fd55b63c-271a-4136-8eb3-1ef7971625aa" transform="translate(43.32 351.06) rotate(-90)">CRBRC</text><text class="fd55b63c-271a-4136-8eb3-1ef7971625aa" transform="translate(38.66 835.34) rotate(-90)">Direct Recipient <tspan x="9.04" y="13.2">of F</tspan><tspan class="e46e7871-2dc0-45e4-9002-95c9d5585b3e" x="29.07" y="13.2">T</tspan><tspan class="bcbf17a8-d6f8-4959-bb5b-53ed0ddec95d" x="34.76" y="13.2">A</tspan><tspan x="41.12" y="13.2"> </tspan><tspan class="f764d95f-16bb-4b0c-8848-2e54696b4b44" x="44.43" y="13.2">F</tspan><tspan x="50.33" y="13.2">unds</tspan></text><text class="fd55b63c-271a-4136-8eb3-1ef7971625aa" transform="translate(43.31 661.32) rotate(-90) scale(0.99 1)">F<tspan class="a45700dd-b14f-4ca4-9df7-e189f98673b8" x="6.42" y="0">T</tspan><tspan class="aa142158-b24d-40b3-a414-8b99a17ef406" x="12.11" y="0">A</tspan></text><text class="fd55b63c-271a-4136-8eb3-1ef7971625aa" transform="translate(43.32 532.72) rotate(-90) scale(0.99 1)">DTR</text><polygon class="b302eafb-cd1f-4f48-b61c-2d141833fb85" points="1911.41 860.14 18.76 860.14 18.76 68.61 64.5 68.61 1911.41 68.61 1911.41 860.14"/><line class="b302eafb-cd1f-4f48-b61c-2d141833fb85" x1="64.85" y1="860.45" x2="64.85" y2="68.94"/><text class="e7295c93-ab19-471b-93e1-cc2a834dcbd1" transform="translate(120.12 375.42)">File Semiannual DBE <tspan x="10.46" y="12" xml:space="preserve">Report  and F</tspan><tspan class="e46e7871-2dc0-45e4-9002-95c9d5585b3e" x="73.95" y="12">T</tspan><tspan class="bcbf17a8-d6f8-4959-bb5b-53ed0ddec95d" x="79.12" y="12">A</tspan><tspan x="84.9" y="12"> </tspan><tspan x="1.68" y="24">Concurrence Letter </tspan><tspan x="21.87" y="36">(COTRAMS)</tspan></text><rect class="ade5fb33-47ed-4e65-be8a-e9fd142d6778" x="283.03" y="255.62" width="83.97" height="63.38"/><text class="e7295c93-ab19-471b-93e1-cc2a834dcbd1" transform="translate(291.86 284.03)">Create Survey <tspan x="15.13" y="12">Monkey</tspan></text><rect class="ade5fb33-47ed-4e65-be8a-e9fd142d6778" x="283.03" y="490.47" width="83.97" height="63.38"/><text class="e7295c93-ab19-471b-93e1-cc2a834dcbd1" transform="translate(292.03 507.47)">Pro<tspan class="a8c7e325-2fdf-458d-a2d2-6be849584cce" x="15.8" y="0">v</tspan><tspan x="21.39" y="0">ide list of </tspan><tspan x="1.31" y="12">subrecipients </tspan><tspan x="6.39" y="24">to CRBRC if </tspan><tspan x="15.38" y="36">needed</tspan></text><rect class="ade5fb33-47ed-4e65-be8a-e9fd142d6778" x="424.75" y="490.47" width="83.97" height="63.38"/><text class="e7295c93-ab19-471b-93e1-cc2a834dcbd1" transform="translate(429.9 513.33)"><tspan class="f764d95f-16bb-4b0c-8848-2e54696b4b44">F</tspan><tspan x="5.37" y="0">orward Survey </tspan><tspan x="12.5" y="12">Monkey to </tspan><tspan x="5.16" y="24">subrecipients</tspan></text><rect class="ade5fb33-47ed-4e65-be8a-e9fd142d6778" x="583.09" y="489.46" width="83.97" height="70.43"/><text class="e7295c93-ab19-471b-93e1-cc2a834dcbd1" transform="translate(602.03 503.69)">DTR Units <tspan x="1" y="12">complete </tspan><tspan x="-12.32" y="24">Survey Monkey</tspan><tspan x="-12.57" y="37">(by May 15 and </tspan><tspan x="4.79" y="49">Nov 15)</tspan></text><rect class="ade5fb33-47ed-4e65-be8a-e9fd142d6778" x="583.09" y="97.89" width="83.97" height="58.82"/><text class="e7295c93-ab19-471b-93e1-cc2a834dcbd1" transform="translate(602.53 113.26)">Complete <tspan x="-12.82" y="12">Survey Monkey </tspan><tspan x="-13.06" y="24">(by May 15 and </tspan><tspan x="4.3" y="36">Nov 15)</tspan></text><rect class="ade5fb33-47ed-4e65-be8a-e9fd142d6778" x="847.82" y="97.89" width="83.97" height="58.82"/><text class="e7295c93-ab19-471b-93e1-cc2a834dcbd1" transform="translate(871.85 118.2)">Pro<tspan class="a8c7e325-2fdf-458d-a2d2-6be849584cce" x="15.8" y="0">v</tspan><tspan x="21.39" y="0">ide </tspan><tspan x="-18.66" y="13">clarifications as </tspan><tspan x="-5.71" y="25">requested</tspan></text><rect class="ade5fb33-47ed-4e65-be8a-e9fd142d6778" x="425.15" y="205.58" width="83.97" height="62.39"/><text class="e7295c93-ab19-471b-93e1-cc2a834dcbd1" transform="translate(438.28 222.37)">Send Survey <tspan x="4.51" y="12">Monkey to </tspan><tspan x="-2.82" y="24">subrecipients </tspan><tspan x="10.53" y="36">directly</tspan></text><rect class="ade5fb33-47ed-4e65-be8a-e9fd142d6778" x="425.15" y="374.27" width="83.97" height="62.39"/><text class="e7295c93-ab19-471b-93e1-cc2a834dcbd1" transform="translate(438.28 391.05)">Send Survey <tspan x="-6.32" y="12">Monkey to DTR </tspan><tspan x="5.1" y="24">to send to </tspan><tspan x="-2.82" y="36">subrecipients</tspan></text><rect class="ade5fb33-47ed-4e65-be8a-e9fd142d6778" x="120.71" y="758.7" width="111.63" height="82.94"/><text class="e7295c93-ab19-471b-93e1-cc2a834dcbd1" transform="translate(138.03 779.13)">Submit a copy of <tspan x="-2.84" y="12">agency</tspan><tspan class="a705a8ce-2f55-44f4-adbc-be3357c9c2ad" x="29.61" y="12">’</tspan><tspan x="32.58" y="12">s</tspan><tspan class="bf7f0aed-a251-4918-811b-25152d91c807" x="36.88" y="12"> </tspan><tspan class="a23f8622-6f50-4670-b209-1aaef4e64188" x="39.72" y="12">T</tspan><tspan x="44.81" y="12">riennial </tspan><tspan x="-4.87" y="24">DBE Goal to CRBRC </tspan><tspan x="9.44" y="36">with the F</tspan><tspan class="e46e7871-2dc0-45e4-9002-95c9d5585b3e" x="57.65" y="36">T</tspan><tspan class="bcbf17a8-d6f8-4959-bb5b-53ed0ddec95d" x="62.82" y="36">A</tspan><tspan x="68.6" y="36"> </tspan><tspan x="-6.98" y="48">Concurrence Letter</tspan></text><rect class="ade5fb33-47ed-4e65-be8a-e9fd142d6778" x="425.15" y="288.63" width="83.97" height="62.39"/><text class="e7295c93-ab19-471b-93e1-cc2a834dcbd1" transform="translate(438.28 311.25)">Send Survey <tspan x="-6.32" y="12">Monkey to DTR </tspan><tspan x="16.65" y="24">Units</tspan></text><rect class="ade5fb33-47ed-4e65-be8a-e9fd142d6778" x="717.43" y="288.63" width="83.97" height="62.39"/><text class="e7295c93-ab19-471b-93e1-cc2a834dcbd1" transform="translate(742.17 315.16)">Re<tspan class="a8c7e325-2fdf-458d-a2d2-6be849584cce" x="11.86" y="0">v</tspan><tspan x="17.44" y="0">iew </tspan><tspan x="-0.97" y="13">Surveys</tspan></text><rect class="ade5fb33-47ed-4e65-be8a-e9fd142d6778" x="979.63" y="288.63" width="83.97" height="62.39"/><text class="e7295c93-ab19-471b-93e1-cc2a834dcbd1" transform="translate(992.65 310.16)">Compile and <tspan x="11.03" y="12" xml:space="preserve">analyze  </tspan><tspan x="18.75" y="25">data</tspan></text><rect class="ade5fb33-47ed-4e65-be8a-e9fd142d6778" x="1255.47" y="615.05" width="83.97" height="62.39"/><text class="e7295c93-ab19-471b-93e1-cc2a834dcbd1" transform="translate(1262.91 630.76)">Re<tspan class="a8c7e325-2fdf-458d-a2d2-6be849584cce" x="11.86" y="0">v</tspan><tspan x="17.44" y="0">iew Report </tspan><tspan x="-0.63" y="12">for compliance </tspan><tspan x="1.95" y="24">with</tspan><tspan class="bf7f0aed-a251-4918-811b-25152d91c807" x="22.66" y="24"> </tspan><tspan class="a23f8622-6f50-4670-b209-1aaef4e64188" x="25.49" y="24">T</tspan><tspan x="30.58" y="24">riennial </tspan><tspan x="13.44" y="36">DBE Goal </tspan></text><rect class="ade5fb33-47ed-4e65-be8a-e9fd142d6778" x="979.63" y="615.05" width="83.97" height="62.39"/><text class="e7295c93-ab19-471b-93e1-cc2a834dcbd1" transform="translate(1009.17 636.58)">Notify <tspan x="-1.04" y="12">CRBRC </tspan><tspan x="-3.65" y="24">(</tspan><tspan class="a23f8622-6f50-4670-b209-1aaef4e64188" x="0.03" y="24">T</tspan><tspan x="5.12" y="24">rAMS)</tspan></text><line class="ade5fb33-47ed-4e65-be8a-e9fd142d6778" x1="174.21" y1="425.67" x2="174.21" y2="747.41"/><polygon class="bf7d53b3-8afd-4d38-8a1f-e819e6e44009" points="168.23 745.66 174.21 756.03 180.19 745.66 168.23 745.66"/><line class="ade5fb33-47ed-4e65-be8a-e9fd142d6778" x1="890.63" y1="156.9" x2="890.63" y2="277.3"/><polygon class="bf7d53b3-8afd-4d38-8a1f-e819e6e44009" points="884.64 275.55 890.63 285.91 896.61 275.55 884.64 275.55"/><line class="ade5fb33-47ed-4e65-be8a-e9fd142d6778" x1="890.63" y1="492.18" x2="890.63" y2="362.94"/><polygon class="bf7d53b3-8afd-4d38-8a1f-e819e6e44009" points="896.61 364.69 890.63 354.32 884.64 364.69 896.61 364.69"/><line class="ade5fb33-47ed-4e65-be8a-e9fd142d6778" x1="1299.17" y1="602.76" x2="1299.17" y2="351.39"/><polygon class="bf7d53b3-8afd-4d38-8a1f-e819e6e44009" points="1305.15 601.01 1299.17 611.38 1293.18 601.01 1305.15 601.01"/><line class="ade5fb33-47ed-4e65-be8a-e9fd142d6778" x1="1746.9" y1="610.37" x2="1746.9" y2="362.74"/><polygon class="bf7d53b3-8afd-4d38-8a1f-e819e6e44009" points="1752.89 364.49 1746.9 354.12 1740.92 364.49 1752.89 364.49"/><line class="ade5fb33-47ed-4e65-be8a-e9fd142d6778" x1="1440.91" y1="602.76" x2="1440.91" y2="351.39"/><polygon class="bf7d53b3-8afd-4d38-8a1f-e819e6e44009" points="1446.89 601.01 1440.91 611.38 1434.92 601.01 1446.89 601.01"/><line class="ade5fb33-47ed-4e65-be8a-e9fd142d6778" x1="326.68" y1="329.6" x2="326.68" y2="491.16"/><polygon class="bf7d53b3-8afd-4d38-8a1f-e819e6e44009" points="320.7 331.35 326.68 320.99 332.66 331.35 320.7 331.35"/><line class="ade5fb33-47ed-4e65-be8a-e9fd142d6778" x1="467.42" y1="436.42" x2="467.42" y2="476.68"/><polygon class="bf7d53b3-8afd-4d38-8a1f-e819e6e44009" points="461.44 474.93 467.42 485.29 473.41 474.93 461.44 474.93"/><polyline class="ade5fb33-47ed-4e65-be8a-e9fd142d6778" points="414.07 235.1 395.09 235.1 395.09 403.95 407.98 403.95"/><polygon class="bf7d53b3-8afd-4d38-8a1f-e819e6e44009" points="412.32 229.12 422.68 235.1 412.32 241.09 412.32 229.12"/><polygon class="bf7d53b3-8afd-4d38-8a1f-e819e6e44009" points="406.23 409.94 416.59 403.95 406.23 397.97 406.23 409.94"/><line class="ade5fb33-47ed-4e65-be8a-e9fd142d6778" x1="414.83" y1="320.68" x2="395.09" y2="320.68"/><polygon class="bf7d53b3-8afd-4d38-8a1f-e819e6e44009" points="413.08 314.69 423.44 320.68 413.08 326.66 413.08 314.69"/><line class="ade5fb33-47ed-4e65-be8a-e9fd142d6778" x1="706.74" y1="320.68" x2="687" y2="320.68"/><polygon class="bf7d53b3-8afd-4d38-8a1f-e819e6e44009" points="704.99 314.69 715.35 320.68 704.99 326.66 704.99 314.69"/><rect class="ade5fb33-47ed-4e65-be8a-e9fd142d6778" x="841.56" y="288.63" width="96.49" height="62.39"/><text class="e7295c93-ab19-471b-93e1-cc2a834dcbd1" transform="translate(857.93 302.85)"><tspan class="bf7f0aed-a251-4918-811b-25152d91c807">W</tspan><tspan x="8.66" y="0">ork through </tspan><tspan x="1.58" y="12">clarifications </tspan><tspan x="-9.27" y="24">with subrecipient </tspan><tspan x="2.61" y="36">or DTR Units</tspan></text><rect class="ade5fb33-47ed-4e65-be8a-e9fd142d6778" x="1684.43" y="288.63" width="114.63" height="62.39"/><text class="e7295c93-ab19-471b-93e1-cc2a834dcbd1" transform="translate(1697.85 302.85)">Upload Semiannual <tspan x="-1.7" y="12">DBE Report and F</tspan><tspan class="e46e7871-2dc0-45e4-9002-95c9d5585b3e" x="79.86" y="12">T</tspan><tspan class="bcbf17a8-d6f8-4959-bb5b-53ed0ddec95d" x="85.03" y="12">A</tspan><tspan x="90.81" y="12"> </tspan><tspan x="8.85" y="24">concurrence to </tspan><tspan x="-1.39" y="36">CRBRC shared drive </tspan></text><rect class="ade5fb33-47ed-4e65-be8a-e9fd142d6778" x="841.56" y="491.83" width="96.49" height="62.39"/><text class="e7295c93-ab19-471b-93e1-cc2a834dcbd1" transform="translate(871.85 510.93)">Pro<tspan class="a8c7e325-2fdf-458d-a2d2-6be849584cce" x="15.8" y="0">v</tspan><tspan x="21.39" y="0">ide </tspan><tspan x="-18.66" y="13">clarifications as </tspan><tspan x="-5.71" y="25">requested</tspan></text><rect class="ade5fb33-47ed-4e65-be8a-e9fd142d6778" x="1794.44" y="491.83" width="96.49" height="62.39"/><text class="e7295c93-ab19-471b-93e1-cc2a834dcbd1" transform="translate(1805.33 510.93)">Add Semiannual <tspan x="4.71" y="12">DBE Report to </tspan><tspan x="8.12" y="24">shared drive</tspan></text><line class="ade5fb33-47ed-4e65-be8a-e9fd142d6778" x1="830.95" y1="320.68" x2="801.82" y2="320.68"/><polygon class="bf7d53b3-8afd-4d38-8a1f-e819e6e44009" points="829.2 314.69 839.56 320.68 829.2 326.66 829.2 314.69"/><polyline class="ade5fb33-47ed-4e65-be8a-e9fd142d6778" points="890.74 403.75 1023.55 403.75 1023.55 614.31"/><rect class="ade5fb33-47ed-4e65-be8a-e9fd142d6778" x="1103.54" y="283.62" width="96.49" height="76.1"/><path class="bf7d53b3-8afd-4d38-8a1f-e819e6e44009" d="M1120.56,293.07l-.52,1.05a1.89,1.89,0,0,0-1.37-.42,1.76,1.76,0,0,0-1.46.75,3,3,0,0,0-.57,1.89,2.8,2.8,0,0,0,.53,1.82,1.7,1.7,0,0,0,1.41.68,1.91,1.91,0,0,0,1.58-.72l.59,1a3,3,0,0,1-2.27.83,2.87,2.87,0,0,1-2.33-1,4,4,0,0,1-.83-2.69,3.87,3.87,0,0,1,.92-2.65,2.94,2.94,0,0,1,2.35-1.07A3.48,3.48,0,0,1,1120.56,293.07Z"/><path class="bf7d53b3-8afd-4d38-8a1f-e819e6e44009" d="M1121.36,297.22a2.77,2.77,0,0,1,.69-2,2.67,2.67,0,0,1,3.68,0,2.82,2.82,0,0,1,.66,2,2.9,2.9,0,0,1-.67,2,2.7,2.7,0,0,1-3.7,0A2.89,2.89,0,0,1,1121.36,297.22Zm1.27,0c0,1.15.42,1.73,1.25,1.73a1.06,1.06,0,0,0,.9-.45,2.07,2.07,0,0,0,.34-1.28c0-1.14-.42-1.71-1.24-1.71a1.07,1.07,0,0,0-.91.45A2,2,0,0,0,1122.63,297.22Z"/><path class="bf7d53b3-8afd-4d38-8a1f-e819e6e44009" d="M1133.42,299.84v-3.27c0-.69-.31-1-.92-1a.94.94,0,0,0-.53.16,1,1,0,0,0-.36.37v3.77h-1.22v-3.46a.79.79,0,0,0-.24-.61.9.9,0,0,0-.67-.23,1,1,0,0,0-.5.17,1.31,1.31,0,0,0-.4.37v3.76h-1.22v-5.22h.84l.25.45a1.71,1.71,0,0,1,1.32-.55,2.05,2.05,0,0,1,1.56.56,1.65,1.65,0,0,1,.64-.41,2.42,2.42,0,0,1,.82-.15,1.77,1.77,0,0,1,1.36.5,1.85,1.85,0,0,1,.49,1.37v3.45Z"/><path class="bf7d53b3-8afd-4d38-8a1f-e819e6e44009" d="M1137.08,299.71v2.19h-1.22v-7.28h1.22V295a1.55,1.55,0,0,1,1.13-.45c1.66,0,2.5.92,2.5,2.75a2.68,2.68,0,0,1-.69,2,2.55,2.55,0,0,1-1.89.69A2.31,2.31,0,0,1,1137.08,299.71Zm0-3.82v2.75a1.19,1.19,0,0,0,.78.27,1.56,1.56,0,0,0,1.21-.4,2.43,2.43,0,0,0,0-2.58,1.64,1.64,0,0,0-1.21-.38A1.11,1.11,0,0,0,1137.08,295.89Z"/><path class="bf7d53b3-8afd-4d38-8a1f-e819e6e44009" d="M1142,292.67l1.22-.3v5.88c0,.65.2,1,.58,1.16a1,1,0,0,1-1,.53c-.55,0-.83-.38-.83-1.15Z"/><path class="bf7d53b3-8afd-4d38-8a1f-e819e6e44009" d="M1149.4,297.6h-3.74a1.4,1.4,0,0,0,.43,1,1.58,1.58,0,0,0,1.07.34,1.71,1.71,0,0,0,1.27-.43l.47.93a3,3,0,0,1-1.92.52,2.52,2.52,0,0,1-1.89-.7,2.63,2.63,0,0,1-.7-1.95,2.77,2.77,0,0,1,.76-2,2.51,2.51,0,0,1,1.84-.76,2.43,2.43,0,0,1,1.82.68,2.31,2.31,0,0,1,.69,1.72A3.15,3.15,0,0,1,1149.4,297.6Zm-3.69-.91h2.57a1.15,1.15,0,0,0-1.27-1.15A1.25,1.25,0,0,0,1145.71,296.69Z"/><path class="bf7d53b3-8afd-4d38-8a1f-e819e6e44009" d="M1150.66,295.6h-.6v-1h.6v-1.07l1.23-.45v1.52h1.43v1h-1.43v2.29a1.32,1.32,0,0,0,.17.79.74.74,0,0,0,.62.23,1.53,1.53,0,0,0,.82-.24v1.13a4.21,4.21,0,0,1-1.21.14,1.6,1.6,0,0,1-1.21-.44,1.74,1.74,0,0,1-.42-1.26Z"/><path class="bf7d53b3-8afd-4d38-8a1f-e819e6e44009" d="M1159.11,297.6h-3.73a1.32,1.32,0,0,0,.43,1,1.54,1.54,0,0,0,1.06.34,1.71,1.71,0,0,0,1.27-.43l.47.93a3,3,0,0,1-1.92.52,2.52,2.52,0,0,1-1.89-.7,2.63,2.63,0,0,1-.7-1.95,2.74,2.74,0,0,1,.77-2,2.49,2.49,0,0,1,1.83-.76,2.47,2.47,0,0,1,1.83.68,2.31,2.31,0,0,1,.68,1.72A3.15,3.15,0,0,1,1159.11,297.6Zm-3.69-.91H1158a1.15,1.15,0,0,0-1.27-1.15A1.25,1.25,0,0,0,1155.42,296.69Z"/><path class="bf7d53b3-8afd-4d38-8a1f-e819e6e44009" d="M1162.94,299.45l.46-1.14a2.63,2.63,0,0,0,1.48.53c.75,0,1.12-.26,1.12-.78a1.13,1.13,0,0,0-.26-.7,3.38,3.38,0,0,0-1.09-.74,5.75,5.75,0,0,1-1.11-.68,1.92,1.92,0,0,1-.44-.64,2.09,2.09,0,0,1-.15-.81,1.74,1.74,0,0,1,.61-1.37,2.2,2.2,0,0,1,1.56-.55,2.92,2.92,0,0,1,1.82.46l-.39,1.1a2.35,2.35,0,0,0-1.41-.48,1,1,0,0,0-.68.23.81.81,0,0,0-.24.6c0,.41.45.84,1.36,1.28a4.51,4.51,0,0,1,1,.65,2,2,0,0,1,.48.69,2.21,2.21,0,0,1,.17.87,1.79,1.79,0,0,1-.69,1.44,2.84,2.84,0,0,1-1.84.56A3.27,3.27,0,0,1,1162.94,299.45Z"/><path class="bf7d53b3-8afd-4d38-8a1f-e819e6e44009" d="M1173,297.6h-3.73a1.32,1.32,0,0,0,.43,1,1.55,1.55,0,0,0,1.06.34,1.71,1.71,0,0,0,1.27-.43l.48.93a3,3,0,0,1-1.93.52,2.52,2.52,0,0,1-1.89-.7,2.67,2.67,0,0,1-.7-1.95,2.74,2.74,0,0,1,.77-2,2.49,2.49,0,0,1,1.83-.76,2.47,2.47,0,0,1,1.83.68,2.31,2.31,0,0,1,.69,1.72A3.3,3.3,0,0,1,1173,297.6Zm-3.69-.91h2.57a1.15,1.15,0,0,0-1.27-1.15A1.25,1.25,0,0,0,1169.29,296.69Z"/><path class="bf7d53b3-8afd-4d38-8a1f-e819e6e44009" d="M1180.12,299.84v-3.27c0-.69-.31-1-.92-1a.94.94,0,0,0-.53.16,1,1,0,0,0-.36.37v3.77h-1.22v-3.46a.79.79,0,0,0-.24-.61.9.9,0,0,0-.67-.23,1,1,0,0,0-.5.17,1.31,1.31,0,0,0-.4.37v3.76h-1.22v-5.22h.84l.25.45a1.71,1.71,0,0,1,1.32-.55,2.05,2.05,0,0,1,1.56.56,1.65,1.65,0,0,1,.64-.41,2.42,2.42,0,0,1,.82-.15,1.77,1.77,0,0,1,1.36.5,1.85,1.85,0,0,1,.49,1.37v3.45Z"/><path class="bf7d53b3-8afd-4d38-8a1f-e819e6e44009" d="M1183,299.84v-4.22h-.66v-1h1.9v5.22Zm.63-7.25a.72.72,0,0,1,.71.71.69.69,0,0,1-.21.5.65.65,0,0,1-.5.2.68.68,0,0,1-.5-.2.72.72,0,0,1-.2-.5.7.7,0,0,1,.7-.71Z"/><path class="bf7d53b3-8afd-4d38-8a1f-e819e6e44009" d="M1185.51,297.52v-1.15h2.59v1.15Z"/><path class="bf7d53b3-8afd-4d38-8a1f-e819e6e44009" d="M1129.16,311.32a1.2,1.2,0,0,1-.58.45,2.27,2.27,0,0,1-.86.17,2,2,0,0,1-1.33-.42,1.51,1.51,0,0,1-.48-1.2,1.69,1.69,0,0,1,.68-1.42,3.18,3.18,0,0,1,1.94-.51,2,2,0,0,1,.5.07c0-.61-.39-.92-1.16-.92a2.66,2.66,0,0,0-1.16.23l-.26-.95a3.46,3.46,0,0,1,1.5-.3,2.43,2.43,0,0,1,1.75.54,2.89,2.89,0,0,1,.56,2.06v1.12q0,1,.42,1.32a.65.65,0,0,1-.34.32,1.33,1.33,0,0,1-.42.06.68.68,0,0,1-.48-.19A1,1,0,0,1,1129.16,311.32Zm-.12-1.94a2.73,2.73,0,0,0-.46-.06c-1,0-1.45.32-1.45.95,0,.47.27.7.82.7a1,1,0,0,0,1.09-1.1Z"/><path class="bf7d53b3-8afd-4d38-8a1f-e819e6e44009" d="M1134.94,311.84v-3a1.5,1.5,0,0,0-.25-1,1,1,0,0,0-.84-.31,1.35,1.35,0,0,0-.58.15,1.29,1.29,0,0,0-.47.38v3.77h-1.22v-5.22h.88l.22.48a1.82,1.82,0,0,1,1.47-.58,1.92,1.92,0,0,1,1.47.56,2.14,2.14,0,0,1,.54,1.56v3.2Z"/><path class="bf7d53b3-8afd-4d38-8a1f-e819e6e44009" d="M1140.85,311.84v-3a1.5,1.5,0,0,0-.26-1,1,1,0,0,0-.84-.31,1.28,1.28,0,0,0-.57.15,1.33,1.33,0,0,0-.48.38v3.77h-1.22v-5.22h.88l.22.48a1.84,1.84,0,0,1,1.47-.58,1.93,1.93,0,0,1,1.48.56,2.14,2.14,0,0,1,.54,1.56v3.2Z"/><path class="bf7d53b3-8afd-4d38-8a1f-e819e6e44009" d="M1146.75,311.85v-.44a2.24,2.24,0,0,1-.71.38,2.66,2.66,0,0,1-.83.15c-1.22,0-1.83-.64-1.83-1.93v-3.39h1.23v3.3c0,.67.3,1,.9,1a1.51,1.51,0,0,0,.77-.21,1.06,1.06,0,0,0,.47-.5v-3.59H1148v5.23Z"/><path class="bf7d53b3-8afd-4d38-8a1f-e819e6e44009" d="M1152.2,311.32a1.2,1.2,0,0,1-.58.45,2.27,2.27,0,0,1-.86.17,2,2,0,0,1-1.33-.42,1.51,1.51,0,0,1-.48-1.2,1.69,1.69,0,0,1,.68-1.42,3.2,3.2,0,0,1,1.94-.51,2.12,2.12,0,0,1,.51.07c0-.61-.39-.92-1.17-.92a2.62,2.62,0,0,0-1.15.23l-.27-.95a3.46,3.46,0,0,1,1.5-.3,2.43,2.43,0,0,1,1.75.54,2.84,2.84,0,0,1,.56,2.06v1.12q0,1,.42,1.32a.65.65,0,0,1-.34.32,1.33,1.33,0,0,1-.42.06.66.66,0,0,1-.47-.19A1,1,0,0,1,1152.2,311.32Zm-.11-1.94a2.82,2.82,0,0,0-.47-.06c-1,0-1.45.32-1.45.95,0,.47.27.7.82.7a1,1,0,0,0,1.1-1.1Z"/><path class="bf7d53b3-8afd-4d38-8a1f-e819e6e44009" d="M1154.83,304.67l1.22-.3v5.88c0,.65.19,1,.58,1.16a1,1,0,0,1-1,.53c-.55,0-.83-.38-.83-1.15Z"/><path class="bf7d53b3-8afd-4d38-8a1f-e819e6e44009" d="M1162.24,311.84h-1.58V304.7l1.9-.06a3.34,3.34,0,0,1,2.48.92A3.29,3.29,0,0,1,1166,308Q1166,311.85,1162.24,311.84Zm-.32-6v4.89c.21,0,.43,0,.67,0a1.81,1.81,0,0,0,1.5-.7,3.08,3.08,0,0,0,.55-1.95c0-1.53-.71-2.3-2.13-2.3Z"/><path class="bf7d53b3-8afd-4d38-8a1f-e819e6e44009" d="M1169.27,311.84h-2.19V304.7c1-.05,1.64-.07,2-.07a2.88,2.88,0,0,1,1.74.47,1.61,1.61,0,0,1,.63,1.36,1.5,1.5,0,0,1-.9,1.35,1.84,1.84,0,0,1,1.33,1.91,1.87,1.87,0,0,1-.74,1.55A3,3,0,0,1,1169.27,311.84Zm-.92-6.13v1.72l.62,0c.82,0,1.24-.32,1.24-.94s-.38-.82-1.13-.82Zm0,2.71v2.36l.63,0a2.11,2.11,0,0,0,1.23-.28,1.15,1.15,0,0,0,.38-1,1.08,1.08,0,0,0-.35-.89,2.15,2.15,0,0,0-1.25-.28Z"/><path class="bf7d53b3-8afd-4d38-8a1f-e819e6e44009" d="M1174.3,305.82v1.67h2.37v1.08h-2.37v2.15h3.24v1.12H1173v-7.15h4.57v1.13Z"/><path class="bf7d53b3-8afd-4d38-8a1f-e819e6e44009" d="M1140.77,323.84l-1.91-2.95-.81,0v3h-1.32v-7.15l.83,0c.48,0,.86,0,1.16,0,1.81,0,2.72.7,2.72,2.11a1.9,1.9,0,0,1-.37,1.15,2.06,2.06,0,0,1-1,.74l2.11,3.22Zm-2.72-6v2l.54,0a2.29,2.29,0,0,0,1.16-.22.94.94,0,0,0,.37-.88.76.76,0,0,0-.39-.73,2.81,2.81,0,0,0-1.25-.21Z"/><path class="bf7d53b3-8afd-4d38-8a1f-e819e6e44009" d="M1147.44,321.6h-3.74a1.36,1.36,0,0,0,.43,1,1.58,1.58,0,0,0,1.07.34,1.73,1.73,0,0,0,1.27-.43l.47.93a3,3,0,0,1-1.92.52,2.56,2.56,0,0,1-1.9-.7,2.67,2.67,0,0,1-.69-1.95,2.73,2.73,0,0,1,.76-2,2.5,2.5,0,0,1,1.84-.76,2.46,2.46,0,0,1,1.82.68,2.31,2.31,0,0,1,.69,1.72A3.15,3.15,0,0,1,1147.44,321.6Zm-3.69-.91h2.56a1.14,1.14,0,0,0-1.27-1.15A1.25,1.25,0,0,0,1143.75,320.69Z"/><path class="bf7d53b3-8afd-4d38-8a1f-e819e6e44009" d="M1149.64,323.71v2.19h-1.22v-7.28h1.22V319a1.55,1.55,0,0,1,1.13-.45c1.66,0,2.5.92,2.5,2.75a2.68,2.68,0,0,1-.69,2,2.55,2.55,0,0,1-1.89.69A2.25,2.25,0,0,1,1149.64,323.71Zm0-3.82v2.75a1.19,1.19,0,0,0,.78.27,1.58,1.58,0,0,0,1.21-.4,1.87,1.87,0,0,0,.37-1.27,1.83,1.83,0,0,0-.37-1.31,1.64,1.64,0,0,0-1.21-.38A1.11,1.11,0,0,0,1149.64,319.89Z"/><path class="bf7d53b3-8afd-4d38-8a1f-e819e6e44009" d="M1154,321.22a2.77,2.77,0,0,1,.69-2,2.36,2.36,0,0,1,1.82-.75,2.4,2.4,0,0,1,1.86.72,3.32,3.32,0,0,1,0,4,2.68,2.68,0,0,1-3.69,0A2.89,2.89,0,0,1,1154,321.22Zm1.27,0c0,1.15.41,1.73,1.24,1.73a1.06,1.06,0,0,0,.91-.45,2.14,2.14,0,0,0,.33-1.28c0-1.14-.41-1.71-1.24-1.71a1.06,1.06,0,0,0-.9.45A2,2,0,0,0,1155.27,321.22Z"/><path class="bf7d53b3-8afd-4d38-8a1f-e819e6e44009" d="M1163,319.75a1.28,1.28,0,0,0-.71-.21,1,1,0,0,0-.76.38,1.43,1.43,0,0,0-.33.95v3H1160v-5.22h1.22v.47a1.74,1.74,0,0,1,1.36-.57,1.92,1.92,0,0,1,1,.19Z"/><path class="bf7d53b3-8afd-4d38-8a1f-e819e6e44009" d="M1164.46,319.6h-.61v-1h.61v-1.07l1.22-.45v1.52h1.44v1h-1.44v2.29a1.31,1.31,0,0,0,.18.79.72.72,0,0,0,.61.23,1.51,1.51,0,0,0,.82-.24v1.13a4.17,4.17,0,0,1-1.21.14,1.59,1.59,0,0,1-1.2-.44,1.74,1.74,0,0,1-.42-1.26Z"/><path class="bf7d53b3-8afd-4d38-8a1f-e819e6e44009" d="M1120.13,329.55v.67a6.74,6.74,0,0,0-1,3.91q0,3,1,4.11v.83a5.07,5.07,0,0,1-1.76-2.07,6.75,6.75,0,0,1-.61-2.88,5.93,5.93,0,0,1,.69-2.71A3.92,3.92,0,0,1,1120.13,329.55Z"/><path class="bf7d53b3-8afd-4d38-8a1f-e819e6e44009" d="M1122.16,336.56l-.27.38h-.69v-7.27l1.22-.3v2.45a2,2,0,0,1,1.07-.3,2.48,2.48,0,0,1,1.85.72,2.57,2.57,0,0,1,.7,1.86,3,3,0,0,1-.71,2.08,2.48,2.48,0,0,1-1.92.76A2.1,2.1,0,0,1,1122.16,336.56Zm.26-3.7v2.73a.91.91,0,0,0,.73.32,1.58,1.58,0,0,0,1.25-.42,2,2,0,0,0,.37-1.35c0-1.06-.51-1.59-1.52-1.59A1.1,1.1,0,0,0,1122.42,332.86Z"/><path class="bf7d53b3-8afd-4d38-8a1f-e819e6e44009" d="M1129.43,337.68a1.68,1.68,0,0,1-.84.87,3.12,3.12,0,0,1-1.49.35v-1.08c.94,0,1.41-.24,1.41-.71a4.43,4.43,0,0,0-.39-1.44l-1.64-4.05h1.26l1.43,3.61,1.28-3.61h1.27Z"/><path class="bf7d53b3-8afd-4d38-8a1f-e819e6e44009" d="M1134.89,335.19H1136c.11.42.46.62,1,.62a1,1,0,0,0,.88-.4,2.36,2.36,0,0,0,.25-1.23v-4.49h1.27v4.45a3.14,3.14,0,0,1-.6,2.11,2.47,2.47,0,0,1-1.95.69,2.12,2.12,0,0,1-1.43-.46A1.72,1.72,0,0,1,1134.89,335.19Z"/><path class="bf7d53b3-8afd-4d38-8a1f-e819e6e44009" d="M1144.16,336.85v-.44a2.24,2.24,0,0,1-.71.38,2.67,2.67,0,0,1-.84.15c-1.21,0-1.82-.64-1.82-1.93v-3.39H1142v3.3c0,.67.3,1,.91,1a1.51,1.51,0,0,0,.77-.21,1.17,1.17,0,0,0,.47-.5v-3.59h1.22v5.23Z"/><path class="bf7d53b3-8afd-4d38-8a1f-e819e6e44009" d="M1150.06,336.84v-3a1.5,1.5,0,0,0-.25-1,1,1,0,0,0-.84-.31,1.28,1.28,0,0,0-.57.15,1.25,1.25,0,0,0-.48.38v3.77h-1.22v-5.22h.88l.22.48a1.83,1.83,0,0,1,1.47-.58,1.91,1.91,0,0,1,1.47.56,2.1,2.1,0,0,1,.54,1.56v3.2Z"/><path class="bf7d53b3-8afd-4d38-8a1f-e819e6e44009" d="M1157.27,334.6h-3.73a1.32,1.32,0,0,0,.43,1,1.54,1.54,0,0,0,1.06.34,1.71,1.71,0,0,0,1.27-.43l.47.93a3,3,0,0,1-1.92.52,2.52,2.52,0,0,1-1.89-.7,2.63,2.63,0,0,1-.7-1.95,2.74,2.74,0,0,1,.77-2,2.69,2.69,0,0,1,3.66-.08,2.34,2.34,0,0,1,.68,1.72A3.15,3.15,0,0,1,1157.27,334.6Zm-3.69-.91h2.57a1.15,1.15,0,0,0-1.27-1.15A1.25,1.25,0,0,0,1153.58,333.69Z"/><path class="bf7d53b3-8afd-4d38-8a1f-e819e6e44009" d="M1163.48,336.84v-5.15l-1.45.87v-1.22a6.31,6.31,0,0,0,2.21-1.68h.51v7.18Z"/><path class="bf7d53b3-8afd-4d38-8a1f-e819e6e44009" d="M1173.15,336.32a1.31,1.31,0,0,1-.58.45,2.36,2.36,0,0,1-.87.17,1.94,1.94,0,0,1-1.32-.42,1.48,1.48,0,0,1-.49-1.2,1.69,1.69,0,0,1,.68-1.42,3.2,3.2,0,0,1,1.94-.51,2.12,2.12,0,0,1,.51.07c0-.61-.39-.92-1.17-.92a2.62,2.62,0,0,0-1.15.23l-.26-.95a3.41,3.41,0,0,1,1.49-.3,2.46,2.46,0,0,1,1.76.54,2.89,2.89,0,0,1,.55,2.06v1.12q0,1,.42,1.32a.67.67,0,0,1-.33.32,1.44,1.44,0,0,1-.43.06.67.67,0,0,1-.47-.19A.89.89,0,0,1,1173.15,336.32Zm-.12-1.94a2.82,2.82,0,0,0-.47-.06c-1,0-1.45.32-1.45.95,0,.47.28.7.82.7a1,1,0,0,0,1.1-1.1Z"/><path class="bf7d53b3-8afd-4d38-8a1f-e819e6e44009" d="M1178.93,336.84v-3a1.5,1.5,0,0,0-.26-1,1,1,0,0,0-.84-.31,1.28,1.28,0,0,0-.57.15,1.42,1.42,0,0,0-.48.38v3.77h-1.22v-5.22h.88l.23.48a1.82,1.82,0,0,1,1.47-.58,1.92,1.92,0,0,1,1.47.56,2.14,2.14,0,0,1,.54,1.56v3.2Z"/><path class="bf7d53b3-8afd-4d38-8a1f-e819e6e44009" d="M1184.83,336.84v-.31a1.2,1.2,0,0,1-.51.29,2.36,2.36,0,0,1-.75.12,2.21,2.21,0,0,1-1.72-.69,2.77,2.77,0,0,1-.63-1.93,2.85,2.85,0,0,1,.72-2,2.35,2.35,0,0,1,1.81-.78,2.44,2.44,0,0,1,1.08.24v-2.09l1.22-.3v7.47Zm0-4a1.29,1.29,0,0,0-.82-.32,1.41,1.41,0,0,0-1.12.45,1.84,1.84,0,0,0-.4,1.28c0,1.09.52,1.63,1.57,1.63a1.14,1.14,0,0,0,.43-.1.68.68,0,0,0,.34-.22Z"/><path class="bf7d53b3-8afd-4d38-8a1f-e819e6e44009" d="M1139.19,348.84h-1.58V341.7l1.9-.06a3.34,3.34,0,0,1,2.48.92,3.29,3.29,0,0,1,.92,2.43Q1142.91,348.85,1139.19,348.84Zm-.32-6v4.89c.21,0,.43,0,.67,0a1.84,1.84,0,0,0,1.51-.7,3.14,3.14,0,0,0,.54-1.95c0-1.53-.71-2.3-2.13-2.3Z"/><path class="bf7d53b3-8afd-4d38-8a1f-e819e6e44009" d="M1148.63,346.6h-3.74a1.36,1.36,0,0,0,.43,1,1.55,1.55,0,0,0,1.06.34,1.7,1.7,0,0,0,1.27-.43l.48.93a3,3,0,0,1-1.93.52,2.55,2.55,0,0,1-1.89-.7,2.67,2.67,0,0,1-.69-1.95,2.73,2.73,0,0,1,.76-2,2.49,2.49,0,0,1,1.83-.76,2.47,2.47,0,0,1,1.83.68,2.31,2.31,0,0,1,.69,1.72A3.94,3.94,0,0,1,1148.63,346.6Zm-3.7-.91h2.57a1.15,1.15,0,0,0-1.27-1.15A1.26,1.26,0,0,0,1144.93,345.69Z"/><path class="bf7d53b3-8afd-4d38-8a1f-e819e6e44009" d="M1153.81,344l-.53.91a1.6,1.6,0,0,0-1.15-.4,1.35,1.35,0,0,0-1.09.46,1.87,1.87,0,0,0-.41,1.28c0,1.09.53,1.64,1.57,1.64a1.79,1.79,0,0,0,1.2-.45l.45,1a2.81,2.81,0,0,1-.93.42,4.35,4.35,0,0,1-.94.09,2.59,2.59,0,0,1-1.92-.7,3,3,0,0,1,.07-4,2.83,2.83,0,0,1,2.09-.76A2.56,2.56,0,0,1,1153.81,344Z"/><path class="bf7d53b3-8afd-4d38-8a1f-e819e6e44009" d="M1160,348.84v-5.15l-1.45.87v-1.22a6.45,6.45,0,0,0,2.22-1.68h.5v7.18Z"/><path class="bf7d53b3-8afd-4d38-8a1f-e819e6e44009" d="M1163.83,351.07v-.83c.65-.71,1-2.08,1-4.11a6.66,6.66,0,0,0-1-3.91v-.67a4,4,0,0,1,1.69,1.86,6,6,0,0,1,.68,2.71,6.61,6.61,0,0,1-.61,2.88A5,5,0,0,1,1163.83,351.07Z"/><line class="ade5fb33-47ed-4e65-be8a-e9fd142d6778" x1="1092.93" y1="320.68" x2="1063.8" y2="320.68"/><polygon class="bf7d53b3-8afd-4d38-8a1f-e819e6e44009" points="1091.18 314.69 1101.54 320.68 1091.18 326.66 1091.18 314.69"/><line class="ade5fb33-47ed-4e65-be8a-e9fd142d6778" x1="1229.69" y1="320.68" x2="1200.56" y2="320.68"/><polygon class="bf7d53b3-8afd-4d38-8a1f-e819e6e44009" points="1227.94 314.69 1238.3 320.68 1227.94 326.66 1227.94 314.69"/><line class="ade5fb33-47ed-4e65-be8a-e9fd142d6778" x1="1515.89" y1="646.31" x2="1486.76" y2="646.31"/><polygon class="bf7d53b3-8afd-4d38-8a1f-e819e6e44009" points="1514.14 640.33 1524.5 646.31 1514.14 652.29 1514.14 640.33"/><line class="ade5fb33-47ed-4e65-be8a-e9fd142d6778" x1="1671.19" y1="646.31" x2="1608.08" y2="646.31"/><polygon class="bf7d53b3-8afd-4d38-8a1f-e819e6e44009" points="1669.43 640.33 1679.8 646.31 1669.43 652.29 1669.43 640.33"/><line class="ade5fb33-47ed-4e65-be8a-e9fd142d6778" x1="966.78" y1="320.68" x2="937.65" y2="320.68"/><polygon class="bf7d53b3-8afd-4d38-8a1f-e819e6e44009" points="965.03 314.69 975.39 320.68 965.03 326.66 965.03 314.69"/><polyline class="ade5fb33-47ed-4e65-be8a-e9fd142d6778" points="572.52 125.2 544.95 125.2 544.95 521.73 508.55 521.73"/><polygon class="bf7d53b3-8afd-4d38-8a1f-e819e6e44009" points="570.77 119.22 581.13 125.2 570.77 131.19 570.77 119.22"/><line class="ade5fb33-47ed-4e65-be8a-e9fd142d6778" x1="366.64" y1="286.24" x2="394.01" y2="286.24"/><line class="ade5fb33-47ed-4e65-be8a-e9fd142d6778" x1="509.26" y1="234.19" x2="544.31" y2="234.19"/><polyline class="ade5fb33-47ed-4e65-be8a-e9fd142d6778" points="665.83 124.64 687.33 124.64 687.33 525.37 666.81 525.37"/><path class="ade5fb33-47ed-4e65-be8a-e9fd142d6778" d="M509.06,323h29.26a6.62,6.62,0,1,1,13.24,0h7.63V521.71h13"/><polygon class="bf7d53b3-8afd-4d38-8a1f-e819e6e44009" points="570.46 527.69 580.82 521.71 570.46 515.73 570.46 527.69"/><rect class="ade5fb33-47ed-4e65-be8a-e9fd142d6778" x="1239.63" y="288.63" width="111.78" height="62.39"/><text class="e7295c93-ab19-471b-93e1-cc2a834dcbd1" transform="translate(1264.29 309.69)">Semiannual DBE <tspan x="0.13" y="12">Report in</tspan><tspan class="bf7f0aed-a251-4918-811b-25152d91c807" x="43.61" y="12"> </tspan><tspan class="a23f8622-6f50-4670-b209-1aaef4e64188" x="46.44" y="12">T</tspan><tspan x="51.53" y="12">rAMS </tspan><tspan x="-0.73" y="24">and copy to DTR</tspan></text><line class="ade5fb33-47ed-4e65-be8a-e9fd142d6778" x1="1252.51" y1="287.25" x2="1252.51" y2="352.63"/><line class="ade5fb33-47ed-4e65-be8a-e9fd142d6778" x1="1380.58" y1="320.68" x2="1351.45" y2="320.68"/><polygon class="bf7d53b3-8afd-4d38-8a1f-e819e6e44009" points="1378.83 314.69 1389.19 320.68 1378.83 326.66 1378.83 314.69"/><rect class="ade5fb33-47ed-4e65-be8a-e9fd142d6778" x="1390.51" y="288.63" width="95.66" height="62.39"/><text class="e7295c93-ab19-471b-93e1-cc2a834dcbd1" transform="translate(1417.34 303.29)">Respond to <tspan x="-2.37" y="12">requests for </tspan><tspan x="-4.3" y="24">clarifications </tspan><tspan x="8.19" y="36">(</tspan><tspan class="a23f8622-6f50-4670-b209-1aaef4e64188" x="11.87" y="36">T</tspan><tspan x="16.96" y="36">rAMS)</tspan></text><line class="ade5fb33-47ed-4e65-be8a-e9fd142d6778" x1="1403.4" y1="287.25" x2="1403.4" y2="352.63"/><rect class="ade5fb33-47ed-4e65-be8a-e9fd142d6778" x="1390.51" y="616" width="95.66" height="62.39"/><text class="e7295c93-ab19-471b-93e1-cc2a834dcbd1" transform="translate(1432.05 630.66)">Send <tspan x="-17.08" y="13">requests for </tspan><tspan x="-19.01" y="25">clarifications </tspan><tspan x="-6.52" y="37">(</tspan><tspan class="a23f8622-6f50-4670-b209-1aaef4e64188" x="-2.85" y="37">T</tspan><tspan x="2.25" y="37">rAMS)</tspan></text><line class="ade5fb33-47ed-4e65-be8a-e9fd142d6778" x1="1403.4" y1="614.62" x2="1403.4" y2="680"/><rect class="ade5fb33-47ed-4e65-be8a-e9fd142d6778" x="1684.15" y="610.28" width="114.9" height="67.96"/><text class="e7295c93-ab19-471b-93e1-cc2a834dcbd1" transform="translate(1737.07 625.64)">Send <tspan x="-30.1" y="13">email notification </tspan><tspan x="-24.28" y="25">of concurrence </tspan><tspan x="-32.68" y="37">with notes (</tspan><tspan class="a23f8622-6f50-4670-b209-1aaef4e64188" x="23.31" y="37">T</tspan><tspan x="28.41" y="37">rAMS)</tspan></text><line class="ade5fb33-47ed-4e65-be8a-e9fd142d6778" x1="1697.03" y1="608.78" x2="1697.03" y2="680"/><rect class="b2aee778-016f-4e27-bded-eeda68032052" x="1622.41" y="636.67" width="31.28" height="17.57"/><text class="b386752e-a72e-4062-bf03-7b90ae833820" transform="translate(1629.58 648.2)">YES</text><polyline class="ade5fb33-47ed-4e65-be8a-e9fd142d6778" points="1568.27 679.08 1568.27 700.62 1018.11 700.62 1018.11 688.12"/><polygon class="bf7d53b3-8afd-4d38-8a1f-e819e6e44009" points="1024.09 689.87 1018.11 679.5 1012.12 689.87 1024.09 689.87"/><rect class="bc9ca158-2f3d-445d-bbca-45218bb0c202" x="1286.35" y="689.89" width="31.28" height="17.57"/><text class="b386752e-a72e-4062-bf03-7b90ae833820" transform="translate(1295.13 701.42)">NO</text><polyline class="ade5fb33-47ed-4e65-be8a-e9fd142d6778" points="1797.73 316.55 1843.65 316.55 1843.65 480.15"/><polygon class="bf7d53b3-8afd-4d38-8a1f-e819e6e44009" points="1837.67 478.4 1843.65 488.76 1849.64 478.4 1837.67 478.4"/></g></svg>