<svg xmlns="http://www.w3.org/2000/svg" viewBox="0 0 604.5 541.35"><defs><style>.a790cce9-e500-4a50-8b61-d36c3614cc01,.ab787d36-b933-47b9-a377-0baaacf672a2,.b281e9c2-b6e5-492c-9da7-c7dc647d6174,.e72a6955-0831-44ae-b588-a78e30baaa47,.ed04622d-80e0-4f02-9076-ea37a6edcd03{fill:none;stroke:#646464;stroke-miterlimit:10;}.ab787d36-b933-47b9-a377-0baaacf672a2{stroke-width:2px;}.ac0b9fe5-e475-4482-8587-a96b6cd65cd4,.b2930c81-ae7a-4370-8039-f9e8c103cfd0,.b90d666c-7798-43ed-b957-9dd57cdc0495,.e72e3634-98ba-4295-b94b-26ffd225f2a6,.fa9c3ceb-31af-406b-9be1-b3e88c9086d8{fill:#646464;}.a790cce9-e500-4a50-8b61-d36c3614cc01,.b281e9c2-b6e5-492c-9da7-c7dc647d6174{stroke-width:0.5px;}.a790cce9-e500-4a50-8b61-d36c3614cc01{stroke-dasharray:5 3;}.b90d666c-7798-43ed-b957-9dd57cdc0495{font-size:24px;}.b2930c81-ae7a-4370-8039-f9e8c103cfd0,.b2aa3b2f-6c7e-4f52-9e74-2f49a797f653,.b90d666c-7798-43ed-b957-9dd57cdc0495,.e72e3634-98ba-4295-b94b-26ffd225f2a6{font-family:TrebuchetMS-Bold, Trebuchet MS;font-weight:700;}.a7152084-efe2-4549-9c8f-ab7524abcc0c{letter-spacing:-0.06em;}.ae9d824c-787d-46c0-9f3e-e5355d238ed8{letter-spacing:-0.09em;}.fba7ffba-48bf-46f8-9a67-87dff45a6f71{letter-spacing:-0.02em;}.e72e3634-98ba-4295-b94b-26ffd225f2a6{font-size:11px;}.b2930c81-ae7a-4370-8039-f9e8c103cfd0,.fa9c3ceb-31af-406b-9be1-b3e88c9086d8{font-size:10px;}.ab1071fc-f502-4f7c-af46-f1e0e9d90c02{letter-spacing:-0.05em;}.e515ccb5-b59e-4ba3-b3ce-50bd33e7bc16{fill:#009add;}.b2aa3b2f-6c7e-4f52-9e74-2f49a797f653{font-size:16px;fill:#fff;}.fa9c3ceb-31af-406b-9be1-b3e88c9086d8{font-family:TrebuchetMS, Trebuchet MS;}.e72a6955-0831-44ae-b588-a78e30baaa47{stroke-dasharray:5 3;}</style></defs><title>CDOT_diagrams_CH3</title><g id="e3b3c3e5-87f0-47d4-a465-e63c84a99c71" data-name="shapes"><line class="ab787d36-b933-47b9-a377-0baaacf672a2" x1="114.33" y1="469.84" x2="146.25" y2="469.84"/><polygon class="ac0b9fe5-e475-4482-8587-a96b6cd65cd4" points="144.5 475.83 154.86 469.84 144.5 463.86 144.5 475.83"/><line class="b281e9c2-b6e5-492c-9da7-c7dc647d6174" x1="18.35" y1="202.31" x2="20.85" y2="202.31"/><line class="a790cce9-e500-4a50-8b61-d36c3614cc01" x1="23.85" y1="202.31" x2="582.64" y2="202.31"/><line class="b281e9c2-b6e5-492c-9da7-c7dc647d6174" x1="584.15" y1="202.31" x2="586.65" y2="202.31"/><line class="b281e9c2-b6e5-492c-9da7-c7dc647d6174" x1="18.35" y1="309.39" x2="20.85" y2="309.39"/><line class="a790cce9-e500-4a50-8b61-d36c3614cc01" x1="23.85" y1="309.39" x2="582.64" y2="309.39"/><line class="b281e9c2-b6e5-492c-9da7-c7dc647d6174" x1="584.15" y1="309.39" x2="586.65" y2="309.39"/><line class="b281e9c2-b6e5-492c-9da7-c7dc647d6174" x1="18.35" y1="415.93" x2="20.85" y2="415.93"/><line class="a790cce9-e500-4a50-8b61-d36c3614cc01" x1="23.85" y1="415.93" x2="582.64" y2="415.93"/><line class="b281e9c2-b6e5-492c-9da7-c7dc647d6174" x1="584.15" y1="415.93" x2="586.65" y2="415.93"/><line class="ab787d36-b933-47b9-a377-0baaacf672a2" x1="360.56" y1="158.3" x2="360.56" y2="210.32"/><polygon class="ac0b9fe5-e475-4482-8587-a96b6cd65cd4" points="354.57 208.57 360.56 218.94 366.54 208.57 354.57 208.57"/><line class="ab787d36-b933-47b9-a377-0baaacf672a2" x1="360.56" y1="290.37" x2="360.56" y2="323.52"/><polygon class="ac0b9fe5-e475-4482-8587-a96b6cd65cd4" points="354.57 321.77 360.56 332.13 366.54 321.77 354.57 321.77"/><polyline class="ab787d36-b933-47b9-a377-0baaacf672a2" points="244.99 474.61 273.93 474.61 273.93 118.38 297.86 118.38"/><polygon class="ac0b9fe5-e475-4482-8587-a96b6cd65cd4" points="296.11 124.37 306.47 118.38 296.11 112.4 296.11 124.37"/></g><g id="e5307327-6b25-4030-866f-1ed41628cafa" data-name="text"><text class="b90d666c-7798-43ed-b957-9dd57cdc0495" transform="translate(18.5 35.68)">3-14 F<tspan class="a7152084-efe2-4549-9c8f-ab7524abcc0c" x="72.23" y="0">F</tspan><tspan class="ae9d824c-787d-46c0-9f3e-e5355d238ed8" x="84.91" y="0">AT</tspan><tspan class="a7152084-efe2-4549-9c8f-ab7524abcc0c" x="110.25" y="0">A</tspan><tspan x="124.13" y="0" xml:space="preserve"> Process (CDO</tspan><tspan class="fba7ffba-48bf-46f8-9a67-87dff45a6f71" x="279.05" y="0">T</tspan><tspan x="293.3" y="0" xml:space="preserve"> Internal)</tspan></text><text class="e72e3634-98ba-4295-b94b-26ffd225f2a6" transform="translate(45.52 145.69) rotate(-90)">DTR</text><text class="e72e3634-98ba-4295-b94b-26ffd225f2a6" transform="translate(45.52 376.58) rotate(-90)">F<tspan class="a7152084-efe2-4549-9c8f-ab7524abcc0c" x="6.42" y="0">F</tspan><tspan class="ae9d824c-787d-46c0-9f3e-e5355d238ed8" x="12.23" y="0">AT</tspan><tspan class="a7152084-efe2-4549-9c8f-ab7524abcc0c" x="23.84" y="0">A</tspan></text><text class="e72e3634-98ba-4295-b94b-26ffd225f2a6" transform="translate(45.52 284.41) rotate(-90)">Accounting</text><text class="e72e3634-98ba-4295-b94b-26ffd225f2a6" transform="translate(45.52 478.48) rotate(-90)">F<tspan class="ae9d824c-787d-46c0-9f3e-e5355d238ed8" x="6.42" y="0">T</tspan><tspan class="a7152084-efe2-4549-9c8f-ab7524abcc0c" x="12.11" y="0">A</tspan></text><rect class="ab787d36-b933-47b9-a377-0baaacf672a2" x="156.48" y="433.22" width="87.63" height="80.14"/><text class="b2930c81-ae7a-4370-8039-f9e8c103cfd0" transform="translate(162.18 453)"><tspan class="ab1071fc-f502-4f7c-af46-f1e0e9d90c02">P</tspan><tspan x="5.4" y="0">ost notification </tspan><tspan x="10.28" y="12">of executed </tspan><tspan class="fba7ffba-48bf-46f8-9a67-87dff45a6f71" x="1.99" y="24">A</tspan><tspan x="8.15" y="24">ward to F</tspan><tspan class="a7152084-efe2-4549-9c8f-ab7524abcc0c" x="52.87" y="24">F</tspan><tspan class="ae9d824c-787d-46c0-9f3e-e5355d238ed8" x="58.16" y="24">AT</tspan><tspan class="a7152084-efe2-4549-9c8f-ab7524abcc0c" x="68.71" y="24">A</tspan><tspan x="74.49" y="24"> </tspan><tspan x="29.74" y="36">site </tspan><tspan x="23.49" y="49">(FSRS)</tspan></text><rect class="ab787d36-b933-47b9-a377-0baaacf672a2" x="316.51" y="221.27" width="87.63" height="68.69"/><text class="b2930c81-ae7a-4370-8039-f9e8c103cfd0" transform="translate(344.28 241.05)">Upload <tspan x="-17.62" y="13">information to </tspan><tspan x="-7.56" y="25">F</tspan><tspan class="a7152084-efe2-4549-9c8f-ab7524abcc0c" x="-1.73" y="25">F</tspan><tspan class="ae9d824c-787d-46c0-9f3e-e5355d238ed8" x="3.55" y="25">AT</tspan><tspan class="a7152084-efe2-4549-9c8f-ab7524abcc0c" x="14.11" y="25">A</tspan><tspan x="19.89" y="25" xml:space="preserve"> site </tspan><tspan x="1.42" y="37">(FSRS)</tspan></text><rect class="ab787d36-b933-47b9-a377-0baaacf672a2" x="468.2" y="221.27" width="87.63" height="68.69"/><text class="b2930c81-ae7a-4370-8039-f9e8c103cfd0" transform="translate(494.61 238.91)">Capture <tspan x="-14.58" y="12">screen shot of </tspan><tspan x="-11.45" y="24">confirmation </tspan><tspan x="0.87" y="36">and file</tspan></text><rect class="ab787d36-b933-47b9-a377-0baaacf672a2" x="316.51" y="335.29" width="87.63" height="59.37"/><text class="b2930c81-ae7a-4370-8039-f9e8c103cfd0" transform="translate(344.28 355.06)">Upload <tspan x="-7.51" y="13">successful </tspan><tspan x="0.63" y="26">screen</tspan></text><line class="ed04622d-80e0-4f02-9076-ea37a6edcd03" x1="64.85" y1="521.15" x2="64.85" y2="70.24"/><circle class="e515ccb5-b59e-4ba3-b3ce-50bd33e7bc16" cx="97.74" cy="468.4" r="22.5"/><text class="b2aa3b2f-6c7e-4f52-9e74-2f49a797f653" transform="translate(80.74 474.24)">3-13</text><text class="fa9c3ceb-31af-406b-9be1-b3e88c9086d8" transform="translate(474.41 100.01)"><tspan xml:space="preserve">•  WBS</tspan><tspan x="0" y="13" xml:space="preserve">•   Subrecipient</tspan><tspan x="0" y="26" xml:space="preserve">•   9-digit zip code</tspan><tspan x="0" y="39" xml:space="preserve">•   City</tspan><tspan x="0" y="52" xml:space="preserve">•   State</tspan><tspan x="0" y="65" xml:space="preserve">•   $$s</tspan><tspan x="0" y="78" xml:space="preserve">•   DUNS #</tspan></text><rect class="e72a6955-0831-44ae-b588-a78e30baaa47" x="467.89" y="86.33" width="99.93" height="101.1"/><line class="e72a6955-0831-44ae-b588-a78e30baaa47" x1="413.67" y1="122.87" x2="458.64" y2="122.87"/><polygon class="ac0b9fe5-e475-4482-8587-a96b6cd65cd4" points="457.47 126.86 464.38 122.87 457.47 118.88 457.47 126.86"/><polygon class="ed04622d-80e0-4f02-9076-ea37a6edcd03" points="586.66 520.72 18.36 520.72 18.36 69.3 32.09 69.3 586.66 69.3 586.66 520.72"/><text class="b2930c81-ae7a-4370-8039-f9e8c103cfd0" transform="translate(328.5 111.34)">Send F<tspan class="a7152084-efe2-4549-9c8f-ab7524abcc0c" x="31.42" y="0">F</tspan><tspan class="ae9d824c-787d-46c0-9f3e-e5355d238ed8" x="36.7" y="0">AT</tspan><tspan class="a7152084-efe2-4549-9c8f-ab7524abcc0c" x="47.26" y="0">A</tspan><tspan x="53.04" y="0"> </tspan><tspan x="4.41" y="13">Report to </tspan><tspan x="0.56" y="26">Accounting</tspan></text><path class="ab787d36-b933-47b9-a377-0baaacf672a2" d="M404.48,86.75a75.83,75.83,0,0,0,0,71.41M318.19,86.75h86.29a75.88,75.88,0,0,1,0,71.41H318.19A75.83,75.83,0,0,1,318.19,86.75Z"/><polyline class="ab787d36-b933-47b9-a377-0baaacf672a2" points="404.36 365.6 511.56 365.6 511.56 301.18"/><polygon class="ac0b9fe5-e475-4482-8587-a96b6cd65cd4" points="517.54 302.93 511.56 292.57 505.57 302.93 517.54 302.93"/></g></svg>