<svg xmlns="http://www.w3.org/2000/svg" viewBox="0 0 2188.5 498.44"><defs><style>.a5aa6089-71cd-4e83-9675-79a9b0de5257,.a9465477-c8b2-454f-b139-c6302aa6636a,.bf9342f8-6da3-46a4-93e9-3edc3a8103aa,.ee598d41-34f1-4ccf-9869-ceb1d2337ea9,.ef3c001c-07f0-41c1-b66c-fe4f19b20277{fill:none;stroke:#646464;}.a9465477-c8b2-454f-b139-c6302aa6636a,.bf9342f8-6da3-46a4-93e9-3edc3a8103aa,.ee598d41-34f1-4ccf-9869-ceb1d2337ea9,.ef3c001c-07f0-41c1-b66c-fe4f19b20277{stroke-miterlimit:10;}.a5aa6089-71cd-4e83-9675-79a9b0de5257,.bf9342f8-6da3-46a4-93e9-3edc3a8103aa{stroke-width:2px;}.a786f904-d954-42e5-9767-241fecd25f7f,.ae11288f-03f5-4646-9548-efdcca7f6cb5,.b292ba1b-c33a-4ab6-bc76-eb48a667d90c,.fdc64a58-f4e2-448c-b506-2d709cb03e31{fill:#646464;}.a9465477-c8b2-454f-b139-c6302aa6636a,.ef3c001c-07f0-41c1-b66c-fe4f19b20277{stroke-width:0.5px;}.ef3c001c-07f0-41c1-b66c-fe4f19b20277{stroke-dasharray:5 3;}.a5aa6089-71cd-4e83-9675-79a9b0de5257{stroke-linejoin:round;}.a6a1f7fe-8c98-41a0-b670-65ec1c813cba,.fdc64a58-f4e2-448c-b506-2d709cb03e31{font-size:10px;}.a6a1f7fe-8c98-41a0-b670-65ec1c813cba,.a786f904-d954-42e5-9767-241fecd25f7f,.ae11288f-03f5-4646-9548-efdcca7f6cb5,.ae49a8eb-69ce-4f95-9027-fbb1b3059201,.fdc64a58-f4e2-448c-b506-2d709cb03e31{font-family:TrebuchetMS-Bold, Trebuchet MS;font-weight:700;}.e994ebc4-3781-42f2-ae17-5fdbc0fbf4e2{letter-spacing:-0.03em;}.a1969e85-2a40-4037-87b2-8bc0cb06bdc0{letter-spacing:-0.07em;}.a693af62-ab4a-4325-8ebb-8aa2207c31e0{letter-spacing:-0.06em;}.a786f904-d954-42e5-9767-241fecd25f7f{font-size:24px;}.a76164d9-857d-4780-b394-0e687c0e581b{letter-spacing:-0.02em;}.b8de62d6-710d-434d-856e-e5d2be3cbcc7{letter-spacing:-0.05em;}.ae11288f-03f5-4646-9548-efdcca7f6cb5{font-size:11px;}.f513ebc7-8bb0-422b-a4af-78b69f108646{letter-spacing:-0.1em;}.b69870fd-7e79-49bc-88b0-f7dec1c2d922{letter-spacing:0.03em;}.b158fb9e-ba57-4f42-a61e-837a06216838{fill:#3eaf49;}.a6a1f7fe-8c98-41a0-b670-65ec1c813cba,.ae49a8eb-69ce-4f95-9027-fbb1b3059201{fill:#fff;}.be1a573c-9593-4442-b351-533c4df7a964{fill:#d23138;}.aca80a28-019b-41ab-babb-18cdc12ff1fd{fill:#009add;}.ae49a8eb-69ce-4f95-9027-fbb1b3059201{font-size:16px;}.b6ea2df3-2032-45e3-a5b6-19bde8dc9eec{letter-spacing:-0.09em;}</style></defs><title>CDOT_diagrams_CH4</title><g id="ec2ba675-b2b0-4715-bbc7-51ff830fcd94" data-name="shapes"><line class="bf9342f8-6da3-46a4-93e9-3edc3a8103aa" x1="158.48" y1="180.48" x2="158.48" y2="212.39"/><polygon class="b292ba1b-c33a-4ab6-bc76-eb48a667d90c" points="152.5 210.64 158.48 221 164.46 210.64 152.5 210.64"/><line class="bf9342f8-6da3-46a4-93e9-3edc3a8103aa" x1="821.14" y1="367.63" x2="821.14" y2="322.22"/><polygon class="b292ba1b-c33a-4ab6-bc76-eb48a667d90c" points="827.12 323.97 821.14 313.6 815.15 323.97 827.12 323.97"/><line class="bf9342f8-6da3-46a4-93e9-3edc3a8103aa" x1="1287.02" y1="364.42" x2="1287.02" y2="227.05"/><polygon class="b292ba1b-c33a-4ab6-bc76-eb48a667d90c" points="1293 228.8 1287.02 218.44 1281.03 228.8 1293 228.8"/><line class="bf9342f8-6da3-46a4-93e9-3edc3a8103aa" x1="223.58" y1="245.06" x2="251.61" y2="245.06"/><polygon class="b292ba1b-c33a-4ab6-bc76-eb48a667d90c" points="249.86 251.04 260.22 245.06 249.86 239.08 249.86 251.04"/><line class="a9465477-c8b2-454f-b139-c6302aa6636a" x1="18.37" y1="340.28" x2="20.87" y2="340.28"/><line class="ef3c001c-07f0-41c1-b66c-fe4f19b20277" x1="23.88" y1="340.28" x2="2167.85" y2="340.28"/><line class="a9465477-c8b2-454f-b139-c6302aa6636a" x1="2169.35" y1="340.28" x2="2171.85" y2="340.28"/><path class="a5aa6089-71cd-4e83-9675-79a9b0de5257" d="M560.37,219.54s-7.2,13.14-7.2,25.67,7.2,24.92,7.2,24.92"/><path class="bf9342f8-6da3-46a4-93e9-3edc3a8103aa" d="M447.32,270.18s-8-12.38-8-24.91,8-25.67,8-25.67H559.87s8,12.38,8,24.92-8,25.66-8,25.66Z"/><polyline class="bf9342f8-6da3-46a4-93e9-3edc3a8103aa" points="561.69 244.13 633.58 244.13 633.58 347.99"/><polygon class="b292ba1b-c33a-4ab6-bc76-eb48a667d90c" points="627.59 346.24 633.58 356.61 639.56 346.24 627.59 346.24"/><polyline class="bf9342f8-6da3-46a4-93e9-3edc3a8103aa" points="589.59 393.75 498.7 393.75 498.7 280.19"/><polygon class="b292ba1b-c33a-4ab6-bc76-eb48a667d90c" points="504.68 281.94 498.7 271.57 492.71 281.94 504.68 281.94"/><polyline class="bf9342f8-6da3-46a4-93e9-3edc3a8103aa" points="1029.41 222.71 1090.01 222.71 1090.01 347.99"/><polygon class="b292ba1b-c33a-4ab6-bc76-eb48a667d90c" points="1084.03 346.24 1090.01 356.61 1095.99 346.24 1084.03 346.24"/><polyline class="bf9342f8-6da3-46a4-93e9-3edc3a8103aa" points="1046.03 393.75 982.5 393.75 982.5 260.64"/><polygon class="b292ba1b-c33a-4ab6-bc76-eb48a667d90c" points="988.48 262.39 982.5 252.03 976.51 262.39 988.48 262.39"/><line class="bf9342f8-6da3-46a4-93e9-3edc3a8103aa" x1="428.45" y1="244.73" x2="396.33" y2="244.67"/><polygon class="b292ba1b-c33a-4ab6-bc76-eb48a667d90c" points="426.71 238.74 437.06 244.75 426.69 250.71 426.71 238.74"/><path class="a5aa6089-71cd-4e83-9675-79a9b0de5257" d="M878.12,368.18s-7.2,13.13-7.2,25.67,7.2,24.91,7.2,24.91"/><path class="bf9342f8-6da3-46a4-93e9-3edc3a8103aa" d="M766.37,418.17s-8-12.38-8-24.92,8-25.66,8-25.66H878.93s8,12.38,8,24.91-8,25.67-8,25.67Z"/><line class="bf9342f8-6da3-46a4-93e9-3edc3a8103aa" x1="747.5" y1="392.7" x2="678.96" y2="392.69"/><polygon class="b292ba1b-c33a-4ab6-bc76-eb48a667d90c" points="745.75 386.72 756.12 392.7 745.75 398.68 745.75 386.72"/><path class="a5aa6089-71cd-4e83-9675-79a9b0de5257" d="M1353.25,364.34s-7.2,14.93-7.2,29.17,7.2,28.32,7.2,28.32"/><path class="bf9342f8-6da3-46a4-93e9-3edc3a8103aa" d="M1221.15,421.16s-8-14.08-8-28.32,8-29.18,8-29.18h132.91s8,14.08,8,28.32-8,29.18-8,29.18Z"/><line class="bf9342f8-6da3-46a4-93e9-3edc3a8103aa" x1="1202.85" y1="392.7" x2="1134.31" y2="392.69"/><polygon class="b292ba1b-c33a-4ab6-bc76-eb48a667d90c" points="1201.1 386.72 1211.46 392.7 1201.1 398.68 1201.1 386.72"/><path class="a5aa6089-71cd-4e83-9675-79a9b0de5257" d="M1028.63,199.1s-7.2,13.13-7.2,25.66,7.2,24.92,7.2,24.92"/><path class="bf9342f8-6da3-46a4-93e9-3edc3a8103aa" d="M941.45,249.08s-8-12.38-8-24.91,8-25.67,8-25.67h88s8,12.38,8,24.92-8,25.66-8,25.66Z"/><path class="a5aa6089-71cd-4e83-9675-79a9b0de5257" d="M1969.47,160.65s-7.2,13.14-7.2,25.67,7.2,24.92,7.2,24.92"/><path class="bf9342f8-6da3-46a4-93e9-3edc3a8103aa" d="M1882.29,210.64s-8-12.38-8-24.92,8-25.66,8-25.66h88s8,12.38,8,24.91-8,25.67-8,25.67Z"/><line class="bf9342f8-6da3-46a4-93e9-3edc3a8103aa" x1="922.45" y1="223.61" x2="887.95" y2="223.6"/><polygon class="b292ba1b-c33a-4ab6-bc76-eb48a667d90c" points="920.71 217.63 931.07 223.62 920.7 229.6 920.71 217.63"/><line class="bf9342f8-6da3-46a4-93e9-3edc3a8103aa" x1="1379.21" y1="185.01" x2="1344.71" y2="184.99"/><polygon class="b292ba1b-c33a-4ab6-bc76-eb48a667d90c" points="1377.47 179.02 1387.83 185.01 1377.46 190.99 1377.47 179.02"/><line class="bf9342f8-6da3-46a4-93e9-3edc3a8103aa" x1="1729.65" y1="185.01" x2="1667.38" y2="184.99"/><polygon class="b292ba1b-c33a-4ab6-bc76-eb48a667d90c" points="1727.9 179.03 1738.26 185.01 1727.9 190.99 1727.9 179.03"/><line class="bf9342f8-6da3-46a4-93e9-3edc3a8103aa" x1="1610.59" y1="276.65" x2="1610.6" y2="227.95"/><polygon class="b292ba1b-c33a-4ab6-bc76-eb48a667d90c" points="1616.57 274.9 1610.59 285.26 1604.61 274.89 1616.57 274.9"/><line class="bf9342f8-6da3-46a4-93e9-3edc3a8103aa" x1="2070.83" y1="363.96" x2="2070.84" y2="215.21"/><polygon class="b292ba1b-c33a-4ab6-bc76-eb48a667d90c" points="2076.81 362.21 2070.83 372.57 2064.84 362.21 2076.81 362.21"/><line class="bf9342f8-6da3-46a4-93e9-3edc3a8103aa" x1="1920.05" y1="363.96" x2="1920.06" y2="210"/><polygon class="b292ba1b-c33a-4ab6-bc76-eb48a667d90c" points="1926.04 362.21 1920.05 372.57 1914.07 362.21 1926.04 362.21"/><line class="bf9342f8-6da3-46a4-93e9-3edc3a8103aa" x1="1542.71" y1="185.01" x2="1508.21" y2="184.99"/><polygon class="b292ba1b-c33a-4ab6-bc76-eb48a667d90c" points="1540.97 179.02 1551.33 185.01 1540.96 190.99 1540.97 179.02"/><line class="bf9342f8-6da3-46a4-93e9-3edc3a8103aa" x1="1863.29" y1="185.01" x2="1828.79" y2="184.99"/><polygon class="b292ba1b-c33a-4ab6-bc76-eb48a667d90c" points="1861.55 179.02 1871.9 185.01 1861.54 190.99 1861.55 179.02"/><path class="a5aa6089-71cd-4e83-9675-79a9b0de5257" d="M2127.63,156.08s-8.52,15.54-8.52,30.36,8.52,29.48,8.52,29.48"/><path class="bf9342f8-6da3-46a4-93e9-3edc3a8103aa" d="M2024.5,215.21s-9.5-14.65-9.5-29.47,9.5-30.36,9.5-30.36h104.08s9.5,14.65,9.5,29.47-9.5,30.36-9.5,30.36Z"/><line class="bf9342f8-6da3-46a4-93e9-3edc3a8103aa" x1="2004.03" y1="185.01" x2="1969.53" y2="184.99"/><polygon class="b292ba1b-c33a-4ab6-bc76-eb48a667d90c" points="2002.29 179.02 2012.65 185.01 2002.28 190.99 2002.29 179.02"/></g><g id="f13b6569-16f6-496b-8658-c5c6cf7cbb1d" data-name="text"><text class="fdc64a58-f4e2-448c-b506-2d709cb03e31" transform="translate(448.91 238.34)">Submit Procurement <tspan x="-1.98" y="12">Concurrence Request </tspan><tspan x="35.5" y="24">(PCR)</tspan></text><text class="fdc64a58-f4e2-448c-b506-2d709cb03e31" transform="translate(771.89 386.32)">Gene<tspan class="e994ebc4-3781-42f2-ae17-5fdbc0fbf4e2" x="24.11" y="0">r</tspan><tspan x="28.07" y="0">ate Purchase </tspan><tspan x="1.31" y="12">Authorization (</tspan><tspan class="a1969e85-2a40-4037-87b2-8bc0cb06bdc0" x="72.16" y="12">P</tspan><tspan x="77.29" y="12">A) </tspan><tspan x="18.49" y="24">(COTRAMS) </tspan></text><text class="fdc64a58-f4e2-448c-b506-2d709cb03e31" transform="translate(957.24 223.1)">Submit <tspan class="a1969e85-2a40-4037-87b2-8bc0cb06bdc0" x="35.39" y="0">P</tspan><tspan class="a693af62-ab4a-4325-8ebb-8aa2207c31e0" x="40.52" y="0">A</tspan></text><text class="fdc64a58-f4e2-448c-b506-2d709cb03e31" transform="translate(1887.46 176.79)">Submit Notice <tspan x="-0.24" y="12">of</tspan><tspan class="a693af62-ab4a-4325-8ebb-8aa2207c31e0" x="9.12" y="12"> </tspan><tspan x="11.58" y="12">Acceptance </tspan><tspan x="22.59" y="24">(NA) </tspan></text><text class="fdc64a58-f4e2-448c-b506-2d709cb03e31" transform="translate(2022.1 177.12)">If vehicle purchase, <tspan x="3.65" y="12">complete Security </tspan><tspan x="9.61" y="24">Agreement (SA)</tspan></text><text class="a786f904-d954-42e5-9767-241fecd25f7f" transform="translate(18.5 35.68)">4-4<tspan class="a76164d9-857d-4780-b394-0e687c0e581b" x="36.94" y="0"> </tspan><tspan x="43.73" y="0">Third-</tspan><tspan class="b8de62d6-710d-434d-856e-e5d2be3cbcc7" x="112.8" y="0">P</tspan><tspan x="125.77" y="0">arty Procurement</tspan></text><text class="ae11288f-03f5-4646-9548-efdcca7f6cb5" transform="translate(44.66 243.43) rotate(-90)">Subrecipient</text><text class="ae11288f-03f5-4646-9548-efdcca7f6cb5" transform="translate(44.66 475.67) rotate(-90)">DTR Project Coordinator</text><rect class="bf9342f8-6da3-46a4-93e9-3edc3a8103aa" x="99.22" y="117.53" width="123.77" height="62.58"/><text class="fdc64a58-f4e2-448c-b506-2d709cb03e31" transform="translate(118.77 134.4)">Consult DTR Quick <tspan x="-12.6" y="12">Procurement Guide and </tspan><tspan x="-11.21" y="24">coordinate with DTR as </tspan><tspan x="25.65" y="36">needed</tspan></text><rect class="bf9342f8-6da3-46a4-93e9-3edc3a8103aa" x="99.22" y="224.41" width="123.77" height="42.4"/><text class="fdc64a58-f4e2-448c-b506-2d709cb03e31" transform="translate(112.2 242.28)">Prepare Independent <tspan x="5.31" y="12">Cost Estimate (ICE)</tspan></text><rect class="bf9342f8-6da3-46a4-93e9-3edc3a8103aa" x="262.41" y="177.58" width="133.49" height="134.75"/><path class="b292ba1b-c33a-4ab6-bc76-eb48a667d90c" d="M274,197.9h-1.58v-7.15c1,0,1.64-.05,1.9-.05a3.34,3.34,0,0,1,2.48.91,3.29,3.29,0,0,1,.92,2.43Q277.73,197.9,274,197.9Zm-.31-6v4.88q.3,0,.66,0a1.81,1.81,0,0,0,1.51-.7,3.1,3.1,0,0,0,.54-1.95c0-1.53-.71-2.3-2.13-2.3Z"/><path class="b292ba1b-c33a-4ab6-bc76-eb48a667d90c" d="M283.45,195.66h-3.74a1.34,1.34,0,0,0,.43,1,1.56,1.56,0,0,0,1.06.35,1.7,1.7,0,0,0,1.27-.44l.48.93A3,3,0,0,1,281,198a2.59,2.59,0,0,1-1.89-.7,2.68,2.68,0,0,1-.69-2,2.71,2.71,0,0,1,.76-2,2.67,2.67,0,0,1,3.66-.09,2.32,2.32,0,0,1,.69,1.73A4.23,4.23,0,0,1,283.45,195.66Zm-3.7-.92h2.57a1.14,1.14,0,0,0-1.27-1.15A1.26,1.26,0,0,0,279.75,194.74Z"/><path class="b292ba1b-c33a-4ab6-bc76-eb48a667d90c" d="M284.71,193.65h-.6v-1h.6V191.6l1.22-.44v1.51h1.44v1h-1.44v2.29a1.29,1.29,0,0,0,.18.79.7.7,0,0,0,.61.24,1.48,1.48,0,0,0,.82-.24v1.12a3.76,3.76,0,0,1-1.21.15,1.56,1.56,0,0,1-1.2-.45,1.73,1.73,0,0,1-.42-1.25Z"/><path class="b292ba1b-c33a-4ab6-bc76-eb48a667d90c" d="M293.16,195.66h-3.74a1.38,1.38,0,0,0,.43,1,1.58,1.58,0,0,0,1.07.35,1.73,1.73,0,0,0,1.27-.44l.47.93a3,3,0,0,1-1.92.53,2.6,2.6,0,0,1-1.9-.7,2.68,2.68,0,0,1-.69-2,2.71,2.71,0,0,1,.76-2,2.67,2.67,0,0,1,3.66-.09,2.32,2.32,0,0,1,.69,1.73A3.32,3.32,0,0,1,293.16,195.66Zm-3.69-.92H292a1.14,1.14,0,0,0-1.26-1.15A1.25,1.25,0,0,0,289.47,194.74Z"/><path class="b292ba1b-c33a-4ab6-bc76-eb48a667d90c" d="M297.26,193.81a1.25,1.25,0,0,0-.72-.22,1,1,0,0,0-.75.39,1.4,1.4,0,0,0-.33.94v3h-1.22v-5.23h1.22v.48a1.71,1.71,0,0,1,1.36-.58,2,2,0,0,1,1,.19Z"/><path class="b292ba1b-c33a-4ab6-bc76-eb48a667d90c" d="M304.56,197.9v-3.28c0-.68-.3-1-.92-1a1.05,1.05,0,0,0-.53.16,1,1,0,0,0-.35.37v3.78h-1.22v-3.47a.79.79,0,0,0-.24-.61,1,1,0,0,0-.68-.23,1,1,0,0,0-.5.17,1.18,1.18,0,0,0-.39.38v3.76h-1.22v-5.23h.84l.25.46a1.69,1.69,0,0,1,1.31-.56,2,2,0,0,1,1.57.57,1.57,1.57,0,0,1,.64-.41,2.17,2.17,0,0,1,.82-.16,1.82,1.82,0,0,1,1.36.5,1.92,1.92,0,0,1,.48,1.38v3.45Z"/><path class="b292ba1b-c33a-4ab6-bc76-eb48a667d90c" d="M307.43,197.9v-4.23h-.67v-1h1.91v5.23Zm.63-7.26a.67.67,0,0,1,.5.21.69.69,0,0,1,.21.5.71.71,0,0,1-1.42,0,.69.69,0,0,1,.21-.5A.67.67,0,0,1,308.06,190.64Z"/><path class="b292ba1b-c33a-4ab6-bc76-eb48a667d90c" d="M313.45,197.9v-3a1.52,1.52,0,0,0-.25-1,1,1,0,0,0-.84-.31,1.35,1.35,0,0,0-.58.15,1.29,1.29,0,0,0-.47.38v3.78h-1.22v-5.23H311l.22.49a1.82,1.82,0,0,1,1.47-.59,2,2,0,0,1,1.47.56,2.14,2.14,0,0,1,.54,1.56v3.21Z"/><path class="b292ba1b-c33a-4ab6-bc76-eb48a667d90c" d="M320.66,195.66h-3.74a1.38,1.38,0,0,0,.43,1,1.58,1.58,0,0,0,1.07.35,1.73,1.73,0,0,0,1.27-.44l.47.93a3,3,0,0,1-1.92.53,2.6,2.6,0,0,1-1.9-.7,2.68,2.68,0,0,1-.69-2,2.71,2.71,0,0,1,.76-2,2.67,2.67,0,0,1,3.66-.09,2.32,2.32,0,0,1,.69,1.73A3.32,3.32,0,0,1,320.66,195.66Zm-3.69-.92h2.56a1.14,1.14,0,0,0-1.26-1.15A1.25,1.25,0,0,0,317,194.74Z"/><path class="b292ba1b-c33a-4ab6-bc76-eb48a667d90c" d="M325.87,197.77V200h-1.22v-7.28h1.22V193a1.57,1.57,0,0,1,1.13-.45c1.67,0,2.5.92,2.5,2.76a2.67,2.67,0,0,1-.69,2,2.52,2.52,0,0,1-1.89.7A2.45,2.45,0,0,1,325.87,197.77Zm0-3.82v2.75a1.19,1.19,0,0,0,.78.27,1.56,1.56,0,0,0,1.21-.41,2.42,2.42,0,0,0,0-2.57,1.58,1.58,0,0,0-1.21-.38A1.07,1.07,0,0,0,325.87,194Z"/><path class="b292ba1b-c33a-4ab6-bc76-eb48a667d90c" d="M333.6,193.81a1.25,1.25,0,0,0-.72-.22,1,1,0,0,0-.75.39,1.4,1.4,0,0,0-.33.94v3h-1.23v-5.23h1.23v.48a1.71,1.71,0,0,1,1.36-.58,2,2,0,0,1,.95.19Z"/><path class="b292ba1b-c33a-4ab6-bc76-eb48a667d90c" d="M334.51,195.27a2.78,2.78,0,0,1,.69-2,2.66,2.66,0,0,1,3.67,0,2.85,2.85,0,0,1,.66,2,2.82,2.82,0,0,1-.67,2A2.37,2.37,0,0,1,337,198a2.34,2.34,0,0,1-1.85-.75A2.85,2.85,0,0,1,334.51,195.27Zm1.27,0c0,1.15.41,1.73,1.24,1.73a1.09,1.09,0,0,0,.91-.45,2.12,2.12,0,0,0,.33-1.28c0-1.13-.41-1.7-1.24-1.7a1.09,1.09,0,0,0-.91.45A2.06,2.06,0,0,0,335.78,195.27Z"/><path class="b292ba1b-c33a-4ab6-bc76-eb48a667d90c" d="M344.61,193.08l-.52.92a1.63,1.63,0,0,0-1.16-.41,1.4,1.4,0,0,0-1.09.46,1.89,1.89,0,0,0-.41,1.28c0,1.1.53,1.65,1.57,1.65a1.79,1.79,0,0,0,1.2-.45l.45,1a3.29,3.29,0,0,1-.93.42,4.35,4.35,0,0,1-.94.09,2.56,2.56,0,0,1-1.91-.71,2.65,2.65,0,0,1-.71-2,2.71,2.71,0,0,1,.77-2,2.87,2.87,0,0,1,2.09-.76A2.56,2.56,0,0,1,344.61,193.08Z"/><path class="b292ba1b-c33a-4ab6-bc76-eb48a667d90c" d="M349,197.9v-.44a2.06,2.06,0,0,1-.71.38,2.69,2.69,0,0,1-.83.16c-1.22,0-1.83-.65-1.83-1.94v-3.39h1.22V196c0,.67.31,1,.91,1a1.5,1.5,0,0,0,.77-.22,1.06,1.06,0,0,0,.47-.5v-3.59h1.22v5.23Z"/><path class="b292ba1b-c33a-4ab6-bc76-eb48a667d90c" d="M354.55,193.81a1.19,1.19,0,0,0-.71-.22,1,1,0,0,0-.76.39,1.4,1.4,0,0,0-.33.94v3h-1.22v-5.23h1.22v.48a1.72,1.72,0,0,1,1.36-.58,2,2,0,0,1,1,.19Z"/><path class="b292ba1b-c33a-4ab6-bc76-eb48a667d90c" d="M360.47,195.66h-3.73a1.3,1.3,0,0,0,.43,1,1.56,1.56,0,0,0,1.06.35,1.72,1.72,0,0,0,1.27-.44l.47.93a3,3,0,0,1-1.92.53,2.56,2.56,0,0,1-1.89-.7,2.68,2.68,0,0,1-.7-2,2.71,2.71,0,0,1,.77-2,2.67,2.67,0,0,1,3.66-.09,2.31,2.31,0,0,1,.68,1.73A3.32,3.32,0,0,1,360.47,195.66Zm-3.69-.92h2.57a1.15,1.15,0,0,0-1.27-1.15A1.25,1.25,0,0,0,356.78,194.74Z"/><path class="b292ba1b-c33a-4ab6-bc76-eb48a667d90c" d="M367.61,197.9v-3.28c0-.68-.31-1-.93-1a1,1,0,0,0-.52.16,1,1,0,0,0-.36.37v3.78h-1.22v-3.47a.79.79,0,0,0-.24-.61.94.94,0,0,0-.67-.23,1,1,0,0,0-.5.17,1.23,1.23,0,0,0-.4.38v3.76h-1.22v-5.23h.84l.25.46a1.71,1.71,0,0,1,1.31-.56,2,2,0,0,1,1.57.57,1.57,1.57,0,0,1,.64-.41,2.17,2.17,0,0,1,.82-.16,1.82,1.82,0,0,1,1.36.5,1.92,1.92,0,0,1,.49,1.38v3.45Z"/><path class="b292ba1b-c33a-4ab6-bc76-eb48a667d90c" d="M374.81,195.66h-3.73a1.3,1.3,0,0,0,.43,1,1.56,1.56,0,0,0,1.06.35,1.72,1.72,0,0,0,1.27-.44l.48.93a3,3,0,0,1-1.93.53,2.56,2.56,0,0,1-1.89-.7,2.68,2.68,0,0,1-.7-2,2.71,2.71,0,0,1,.77-2,2.67,2.67,0,0,1,3.66-.09,2.32,2.32,0,0,1,.69,1.73A3.52,3.52,0,0,1,374.81,195.66Zm-3.69-.92h2.57a1.15,1.15,0,0,0-1.27-1.15A1.25,1.25,0,0,0,371.12,194.74Z"/><path class="b292ba1b-c33a-4ab6-bc76-eb48a667d90c" d="M379.26,197.9v-3a1.51,1.51,0,0,0-.26-1,1,1,0,0,0-.84-.31,1.28,1.28,0,0,0-.57.15,1.42,1.42,0,0,0-.48.38v3.78h-1.22v-5.23h.88l.23.49a1.82,1.82,0,0,1,1.47-.59,2,2,0,0,1,1.47.56,2.14,2.14,0,0,1,.54,1.56v3.21Z"/><path class="b292ba1b-c33a-4ab6-bc76-eb48a667d90c" d="M382,193.65h-.6v-1h.6V191.6l1.22-.44v1.51h1.44v1H383.2v2.29a1.29,1.29,0,0,0,.18.79.7.7,0,0,0,.61.24,1.48,1.48,0,0,0,.82-.24v1.12a3.76,3.76,0,0,1-1.21.15,1.56,1.56,0,0,1-1.2-.45,1.73,1.73,0,0,1-.42-1.25Z"/><path class="b292ba1b-c33a-4ab6-bc76-eb48a667d90c" d="M315.43,209.9v-3.28c0-.68-.31-1-.93-1a1,1,0,0,0-.52.16,1,1,0,0,0-.36.37v3.78H312.4v-3.47a.79.79,0,0,0-.24-.61.94.94,0,0,0-.67-.23,1,1,0,0,0-.5.17,1.13,1.13,0,0,0-.4.38v3.76h-1.22v-5.23h.84l.25.46a1.71,1.71,0,0,1,1.31-.56,2,2,0,0,1,1.57.57,1.57,1.57,0,0,1,.64-.41,2.17,2.17,0,0,1,.82-.16,1.82,1.82,0,0,1,1.36.5,1.88,1.88,0,0,1,.49,1.38v3.45Z"/><path class="b292ba1b-c33a-4ab6-bc76-eb48a667d90c" d="M322.63,207.66H318.9a1.3,1.3,0,0,0,.43,1,1.56,1.56,0,0,0,1.06.35,1.72,1.72,0,0,0,1.27-.44l.48.93a3,3,0,0,1-1.93.53,2.56,2.56,0,0,1-1.89-.7,2.68,2.68,0,0,1-.7-2,2.71,2.71,0,0,1,.77-2,2.67,2.67,0,0,1,3.66-.09,2.32,2.32,0,0,1,.69,1.73A3.52,3.52,0,0,1,322.63,207.66Zm-3.69-.92h2.57a1.15,1.15,0,0,0-1.27-1.15A1.25,1.25,0,0,0,318.94,206.74Z"/><path class="b292ba1b-c33a-4ab6-bc76-eb48a667d90c" d="M323.9,205.65h-.61v-1h.61V203.6l1.22-.44v1.51h1.43v1h-1.43v2.29a1.38,1.38,0,0,0,.17.79.73.73,0,0,0,.62.24,1.51,1.51,0,0,0,.82-.24v1.12a3.8,3.8,0,0,1-1.21.15,1.56,1.56,0,0,1-1.2-.45,1.73,1.73,0,0,1-.42-1.25Z"/><path class="b292ba1b-c33a-4ab6-bc76-eb48a667d90c" d="M331.06,209.9v-3.22a1,1,0,0,0-.3-.78,1.07,1.07,0,0,0-.79-.29,1.26,1.26,0,0,0-.61.16,1.11,1.11,0,0,0-.44.37v3.76h-1.24v-7.18l1.24-.29V205a1.84,1.84,0,0,1,1.3-.43,2,2,0,0,1,1.52.55,2.08,2.08,0,0,1,.55,1.56v3.22Z"/><path class="b292ba1b-c33a-4ab6-bc76-eb48a667d90c" d="M333.26,207.27a2.78,2.78,0,0,1,.69-2,2.67,2.67,0,0,1,3.68,0,3.3,3.3,0,0,1,0,4,2.67,2.67,0,0,1-3.7,0A2.85,2.85,0,0,1,333.26,207.27Zm1.27,0c0,1.15.42,1.73,1.25,1.73a1.06,1.06,0,0,0,.9-.45,2.05,2.05,0,0,0,.34-1.28c0-1.13-.42-1.7-1.24-1.7a1.07,1.07,0,0,0-.91.45A2.06,2.06,0,0,0,334.53,207.27Z"/><path class="b292ba1b-c33a-4ab6-bc76-eb48a667d90c" d="M342.63,209.9v-.32a1.2,1.2,0,0,1-.51.29,2.41,2.41,0,0,1-.75.13,2.18,2.18,0,0,1-1.72-.7,2.75,2.75,0,0,1-.63-1.93,2.85,2.85,0,0,1,.72-2,2.48,2.48,0,0,1,2.89-.53v-2.1l1.22-.29v7.47Zm0-4a1.27,1.27,0,0,0-.82-.31,1.42,1.42,0,0,0-1.12.44,1.86,1.86,0,0,0-.4,1.29c0,1.08.52,1.63,1.57,1.63a1.18,1.18,0,0,0,.43-.11.83.83,0,0,0,.34-.21Z"/><path class="b292ba1b-c33a-4ab6-bc76-eb48a667d90c" d="M345.26,205.3a.85.85,0,0,1,.26-.62.89.89,0,0,1,1.24,0,.88.88,0,1,1-1.5.62Zm0,4a.88.88,0,1,1,1.5.62.87.87,0,0,1-1.24,0A.85.85,0,0,1,345.26,209.26Z"/><path class="b292ba1b-c33a-4ab6-bc76-eb48a667d90c" d="M278.68,222.9l-1.91-3-.81,0v3h-1.32v-7.15l.83,0c.48,0,.86,0,1.15,0,1.82,0,2.73.71,2.73,2.11a2,2,0,0,1-.38,1.16,2.05,2.05,0,0,1-.94.74l2.11,3.22ZM276,216.85v2l.54,0a2.27,2.27,0,0,0,1.16-.23.93.93,0,0,0,.37-.87.77.77,0,0,0-.39-.74,2.81,2.81,0,0,0-1.25-.21Z"/><path class="b292ba1b-c33a-4ab6-bc76-eb48a667d90c" d="M282,216.87v1.68h2.51v1.08H282v3.27h-1.27v-7.15h4.71v1.12Z"/><path class="b292ba1b-c33a-4ab6-bc76-eb48a667d90c" d="M287.86,220.27v2.63h-1.27v-7.15c.84,0,1.34-.05,1.48-.05a4.56,4.56,0,0,1,2.48.52,1.79,1.79,0,0,1,.78,1.62c0,1.64-1,2.46-2.9,2.46Zm0-3.42v2.29l.5,0a2.13,2.13,0,0,0,1.27-.29,1.07,1.07,0,0,0,.4-.94c0-.74-.59-1.12-1.79-1.12A2.34,2.34,0,0,0,287.86,216.85Z"/><path class="b292ba1b-c33a-4ab6-bc76-eb48a667d90c" d="M291.49,224.72l-.41-.53c.59-.44.89-.79.89-1.05a.51.51,0,0,0-.1-.29.7.7,0,0,1-.47-.63.61.61,0,0,1,.25-.48.92.92,0,0,1,.6-.19.78.78,0,0,1,.59.25.82.82,0,0,1,.25.6,2.19,2.19,0,0,1-.29,1.13A4.11,4.11,0,0,1,291.49,224.72Z"/><path class="b292ba1b-c33a-4ab6-bc76-eb48a667d90c" d="M302.75,216.13l-.52,1.05a1.85,1.85,0,0,0-1.37-.43,1.76,1.76,0,0,0-1.46.75,3,3,0,0,0-.57,1.9,2.84,2.84,0,0,0,.53,1.82,1.69,1.69,0,0,0,1.41.67,1.91,1.91,0,0,0,1.58-.72l.59,1a3,3,0,0,1-2.27.82,2.87,2.87,0,0,1-2.33-1,4,4,0,0,1-.83-2.69,3.94,3.94,0,0,1,.92-2.65,3,3,0,0,1,2.35-1.07A3.38,3.38,0,0,1,302.75,216.13Z"/><path class="b292ba1b-c33a-4ab6-bc76-eb48a667d90c" d="M305.56,222.9H304v-7.15c1,0,1.65-.05,1.91-.05a3.35,3.35,0,0,1,2.48.91,3.28,3.28,0,0,1,.91,2.43Q309.27,222.9,305.56,222.9Zm-.32-6v4.88q.3,0,.66,0a1.8,1.8,0,0,0,1.51-.7,3.1,3.1,0,0,0,.54-1.95c0-1.53-.71-2.3-2.13-2.3Z"/><path class="b292ba1b-c33a-4ab6-bc76-eb48a667d90c" d="M310.05,219.26a4,4,0,0,1,.84-2.58,2.71,2.71,0,0,1,2.24-1.06,2.93,2.93,0,0,1,2.36,1,4,4,0,0,1,.81,2.68,4.15,4.15,0,0,1-.85,2.75,3,3,0,0,1-2.42,1,2.61,2.61,0,0,1-2.21-1A4.48,4.48,0,0,1,310.05,219.26Zm1.32,0a3.6,3.6,0,0,0,.43,1.94,1.35,1.35,0,0,0,1.23.69,1.68,1.68,0,0,0,1.45-.67,3.21,3.21,0,0,0,.5-2c0-1.68-.61-2.51-1.85-2.51a1.47,1.47,0,0,0-1.31.68A3.26,3.26,0,0,0,311.37,219.26Z"/><path class="b292ba1b-c33a-4ab6-bc76-eb48a667d90c" d="M320.34,216.87v6h-1.27v-6h-2.28v-1.12h5.92v1.12Z"/><path class="b292ba1b-c33a-4ab6-bc76-eb48a667d90c" d="M327.65,220.27v2.63h-1.27v-7.15c.84,0,1.34-.05,1.48-.05a4.56,4.56,0,0,1,2.48.52,1.79,1.79,0,0,1,.78,1.62c0,1.64-1,2.46-2.9,2.46Zm0-3.42v2.29l.5,0a2.13,2.13,0,0,0,1.27-.29,1.07,1.07,0,0,0,.4-.94c0-.74-.59-1.12-1.79-1.12A2.34,2.34,0,0,0,327.65,216.85Z"/><path class="b292ba1b-c33a-4ab6-bc76-eb48a667d90c" d="M335.19,218.81a1.19,1.19,0,0,0-.71-.22,1,1,0,0,0-.76.39,1.4,1.4,0,0,0-.33.94v3h-1.22v-5.23h1.22v.48a1.72,1.72,0,0,1,1.36-.58,2,2,0,0,1,1,.19Z"/><path class="b292ba1b-c33a-4ab6-bc76-eb48a667d90c" d="M336.77,222.9v-4.23h-.67v-1H338v5.23Zm.63-7.26a.67.67,0,0,1,.5.21.69.69,0,0,1,.21.5.72.72,0,0,1-.71.71.69.69,0,0,1-.5-.21.67.67,0,0,1-.21-.5.72.72,0,0,1,.71-.71Z"/><path class="b292ba1b-c33a-4ab6-bc76-eb48a667d90c" d="M343.53,218.08,343,219a1.63,1.63,0,0,0-1.16-.41,1.4,1.4,0,0,0-1.09.46,1.89,1.89,0,0,0-.4,1.28q0,1.65,1.56,1.65a1.77,1.77,0,0,0,1.2-.45l.45,1a3.29,3.29,0,0,1-.93.42,4.35,4.35,0,0,1-.94.09,2.56,2.56,0,0,1-1.91-.71,2.64,2.64,0,0,1-.7-2,2.71,2.71,0,0,1,.76-2,2.87,2.87,0,0,1,2.09-.76A2.56,2.56,0,0,1,343.53,218.08Z"/><path class="b292ba1b-c33a-4ab6-bc76-eb48a667d90c" d="M349.21,220.66h-3.73a1.3,1.3,0,0,0,.43,1A1.56,1.56,0,0,0,347,222a1.72,1.72,0,0,0,1.27-.44l.47.93a3,3,0,0,1-1.92.53,2.56,2.56,0,0,1-1.89-.7,2.68,2.68,0,0,1-.7-2,2.71,2.71,0,0,1,.77-2,2.67,2.67,0,0,1,3.66-.09,2.32,2.32,0,0,1,.69,1.73A3.52,3.52,0,0,1,349.21,220.66Zm-3.69-.92h2.57a1.15,1.15,0,0,0-1.27-1.15A1.25,1.25,0,0,0,345.52,219.74Z"/><path class="b292ba1b-c33a-4ab6-bc76-eb48a667d90c" d="M357,222.9l-.52-1.45H354l-.5,1.45h-1.41l2.85-7.25h.56l2.87,7.25Zm-1.75-5.06-.86,2.64h1.72Z"/><path class="b292ba1b-c33a-4ab6-bc76-eb48a667d90c" d="M358.7,224.24l.77-1a2.05,2.05,0,0,0,1.42.59,2.18,2.18,0,0,0,.87-.16.47.47,0,0,0,.34-.43c0-.31-.25-.46-.75-.46a5.67,5.67,0,0,0-.61,0,4.26,4.26,0,0,1-.61,0q-1.26,0-1.26-.9a.8.8,0,0,1,.21-.51,1.27,1.27,0,0,1,.48-.36,1.87,1.87,0,0,1-.89-1.65,1.79,1.79,0,0,1,.62-1.39,2.16,2.16,0,0,1,1.51-.55,2.37,2.37,0,0,1,1.18.27l.47-.56.85.77-.58.42a2,2,0,0,1,.3,1.08,1.91,1.91,0,0,1-.54,1.43,1.88,1.88,0,0,1-1.38.54l-.35,0-.2,0-.26.11c-.15.07-.23.14-.23.22s.11.19.34.19a2.77,2.77,0,0,0,.51-.07,3.1,3.1,0,0,1,.61-.08c1.19,0,1.78.48,1.78,1.44a1.41,1.41,0,0,1-.71,1.24,3.17,3.17,0,0,1-1.72.45A3.59,3.59,0,0,1,358.7,224.24Zm1.22-4.73a1.07,1.07,0,0,0,.25.74.88.88,0,0,0,.69.28.83.83,0,0,0,.67-.27,1.11,1.11,0,0,0,.24-.75,1,1,0,0,0-.25-.67.84.84,0,0,0-.66-.28.91.91,0,0,0-.68.27A.89.89,0,0,0,359.92,219.51Z"/><path class="b292ba1b-c33a-4ab6-bc76-eb48a667d90c" d="M367.13,218.81a1.25,1.25,0,0,0-.72-.22,1,1,0,0,0-.75.39,1.4,1.4,0,0,0-.33.94v3h-1.22v-5.23h1.22v.48a1.71,1.71,0,0,1,1.36-.58,2.06,2.06,0,0,1,1,.19Z"/><path class="b292ba1b-c33a-4ab6-bc76-eb48a667d90c" d="M373.05,220.66h-3.74a1.34,1.34,0,0,0,.43,1,1.56,1.56,0,0,0,1.06.35,1.72,1.72,0,0,0,1.27-.44l.48.93a3,3,0,0,1-1.93.53,2.59,2.59,0,0,1-1.89-.7,2.68,2.68,0,0,1-.69-2,2.71,2.71,0,0,1,.76-2,2.67,2.67,0,0,1,3.66-.09,2.32,2.32,0,0,1,.69,1.73A4.23,4.23,0,0,1,373.05,220.66Zm-3.7-.92h2.57a1.15,1.15,0,0,0-1.27-1.15A1.26,1.26,0,0,0,369.35,219.74Z"/><path class="b292ba1b-c33a-4ab6-bc76-eb48a667d90c" d="M378.79,220.66h-3.73a1.3,1.3,0,0,0,.43,1,1.56,1.56,0,0,0,1.06.35,1.72,1.72,0,0,0,1.27-.44l.47.93a3,3,0,0,1-1.92.53,2.56,2.56,0,0,1-1.89-.7,2.68,2.68,0,0,1-.7-2,2.71,2.71,0,0,1,.77-2,2.67,2.67,0,0,1,3.66-.09,2.32,2.32,0,0,1,.69,1.73A3.52,3.52,0,0,1,378.79,220.66Zm-3.69-.92h2.57a1.15,1.15,0,0,0-1.27-1.15A1.25,1.25,0,0,0,375.1,219.74Z"/><path class="b292ba1b-c33a-4ab6-bc76-eb48a667d90c" d="M379.74,220.57v-1.14h2.59v1.14Z"/><path class="b292ba1b-c33a-4ab6-bc76-eb48a667d90c" d="M285.59,234.9v-3.28c0-.68-.3-1-.92-1a1.05,1.05,0,0,0-.53.16,1,1,0,0,0-.35.37v3.78h-1.22v-3.47a.79.79,0,0,0-.24-.61,1,1,0,0,0-.68-.23,1,1,0,0,0-.5.17,1.18,1.18,0,0,0-.39.38v3.76h-1.22v-5.23h.84l.25.46a1.69,1.69,0,0,1,1.31-.56,2,2,0,0,1,1.57.57,1.57,1.57,0,0,1,.64-.41,2.17,2.17,0,0,1,.82-.16,1.82,1.82,0,0,1,1.36.5,1.92,1.92,0,0,1,.49,1.38v3.45Z"/><path class="b292ba1b-c33a-4ab6-bc76-eb48a667d90c" d="M292.8,232.66h-3.73a1.3,1.3,0,0,0,.43,1,1.54,1.54,0,0,0,1.06.35,1.72,1.72,0,0,0,1.27-.44l.47.93a3,3,0,0,1-1.92.53,2.56,2.56,0,0,1-1.89-.7,2.64,2.64,0,0,1-.7-2,2.71,2.71,0,0,1,.77-2,2.67,2.67,0,0,1,3.66-.09,2.35,2.35,0,0,1,.68,1.73A3.32,3.32,0,0,1,292.8,232.66Zm-3.69-.92h2.57a1.15,1.15,0,0,0-1.27-1.15A1.25,1.25,0,0,0,289.11,231.74Z"/><path class="b292ba1b-c33a-4ab6-bc76-eb48a667d90c" d="M297.24,234.9v-3a1.52,1.52,0,0,0-.25-1,1,1,0,0,0-.84-.31,1.28,1.28,0,0,0-.57.15,1.33,1.33,0,0,0-.48.38v3.78h-1.22v-5.23h.88l.22.49a1.85,1.85,0,0,1,1.47-.59,2,2,0,0,1,1.48.56,2.14,2.14,0,0,1,.54,1.56v3.21Z"/><path class="b292ba1b-c33a-4ab6-bc76-eb48a667d90c" d="M300,230.65h-.61v-1H300V228.6l1.22-.44v1.51h1.44v1h-1.44v2.29a1.29,1.29,0,0,0,.18.79.7.7,0,0,0,.61.24,1.51,1.51,0,0,0,.82-.24v1.12a3.8,3.8,0,0,1-1.21.15,1.56,1.56,0,0,1-1.2-.45,1.73,1.73,0,0,1-.42-1.25Z"/><path class="b292ba1b-c33a-4ab6-bc76-eb48a667d90c" d="M304.15,236.72l-.42-.53q.9-.66.9-1.05a.59.59,0,0,0-.1-.29.7.7,0,0,1-.47-.63.58.58,0,0,1,.25-.48.92.92,0,0,1,.6-.19.79.79,0,0,1,.59.25.82.82,0,0,1,.25.6,2.29,2.29,0,0,1-.29,1.13A4.11,4.11,0,0,1,304.15,236.72Z"/><path class="b292ba1b-c33a-4ab6-bc76-eb48a667d90c" d="M315.41,228.13l-.52,1.05a1.86,1.86,0,0,0-1.37-.43,1.78,1.78,0,0,0-1.47.75,3,3,0,0,0-.57,1.9,2.9,2.9,0,0,0,.53,1.82,1.72,1.72,0,0,0,1.42.67,1.91,1.91,0,0,0,1.58-.72l.59,1a3,3,0,0,1-2.28.82,2.88,2.88,0,0,1-2.33-1,4,4,0,0,1-.83-2.69,3.9,3.9,0,0,1,.93-2.65,3,3,0,0,1,2.35-1.07A3.4,3.4,0,0,1,315.41,228.13Z"/><path class="b292ba1b-c33a-4ab6-bc76-eb48a667d90c" d="M316.21,232.27a2.78,2.78,0,0,1,.69-2,2.66,2.66,0,0,1,3.67,0,2.85,2.85,0,0,1,.66,2,2.82,2.82,0,0,1-.67,2,2.37,2.37,0,0,1-1.84.74,2.34,2.34,0,0,1-1.85-.75A2.85,2.85,0,0,1,316.21,232.27Zm1.27,0c0,1.15.41,1.73,1.24,1.73a1.06,1.06,0,0,0,.91-.45,2.12,2.12,0,0,0,.33-1.28c0-1.13-.41-1.7-1.24-1.7a1.06,1.06,0,0,0-.9.45A2,2,0,0,0,317.48,232.27Z"/><path class="b292ba1b-c33a-4ab6-bc76-eb48a667d90c" d="M322.42,227.72l1.22-.29v5.88c0,.64.19,1,.58,1.15a1,1,0,0,1-1,.54c-.55,0-.83-.39-.83-1.16Z"/><path class="b292ba1b-c33a-4ab6-bc76-eb48a667d90c" d="M324.82,232.27a2.78,2.78,0,0,1,.69-2,2.66,2.66,0,0,1,3.67,0,2.85,2.85,0,0,1,.66,2,2.82,2.82,0,0,1-.67,2,2.37,2.37,0,0,1-1.84.74,2.34,2.34,0,0,1-1.85-.75A2.85,2.85,0,0,1,324.82,232.27Zm1.27,0c0,1.15.41,1.73,1.24,1.73a1.07,1.07,0,0,0,.91-.45,2.12,2.12,0,0,0,.33-1.28c0-1.13-.41-1.7-1.24-1.7a1.09,1.09,0,0,0-.91.45A2.06,2.06,0,0,0,326.09,232.27Z"/><path class="b292ba1b-c33a-4ab6-bc76-eb48a667d90c" d="M333.84,230.81a1.25,1.25,0,0,0-.72-.22,1,1,0,0,0-.75.39,1.4,1.4,0,0,0-.33.94v3h-1.22v-5.23H332v.48a1.72,1.72,0,0,1,1.36-.58,2,2,0,0,1,1,.19Z"/><path class="b292ba1b-c33a-4ab6-bc76-eb48a667d90c" d="M337.69,234.38a1.13,1.13,0,0,1-.58.44,2.11,2.11,0,0,1-.86.18,1.92,1.92,0,0,1-1.33-.43,1.5,1.5,0,0,1-.48-1.19,1.68,1.68,0,0,1,.68-1.43,3.17,3.17,0,0,1,1.93-.51,2.05,2.05,0,0,1,.51.08c0-.62-.39-.93-1.16-.93a2.66,2.66,0,0,0-1.16.23l-.26-.95a3.46,3.46,0,0,1,1.5-.3,2.39,2.39,0,0,1,1.75.55,2.89,2.89,0,0,1,.56,2.06v1.12c0,.69.14,1.13.42,1.31a.71.71,0,0,1-.34.33,1.33,1.33,0,0,1-.42.06.69.69,0,0,1-.48-.2A1,1,0,0,1,337.69,234.38Zm-.12-1.94a3,3,0,0,0-.47-.07c-1,0-1.44.32-1.44.95,0,.47.27.7.81.7a1,1,0,0,0,1.1-1.09Z"/><path class="b292ba1b-c33a-4ab6-bc76-eb48a667d90c" d="M343.47,234.9v-.32a1.2,1.2,0,0,1-.51.29,2.36,2.36,0,0,1-.75.13,2.18,2.18,0,0,1-1.72-.7,2.75,2.75,0,0,1-.63-1.93,2.85,2.85,0,0,1,.72-2,2.35,2.35,0,0,1,1.81-.78,2.29,2.29,0,0,1,1.08.25v-2.1l1.22-.29v7.47Zm0-4a1.27,1.27,0,0,0-.82-.31,1.44,1.44,0,0,0-1.12.44,1.86,1.86,0,0,0-.4,1.29A1.42,1.42,0,0,0,342.7,234a1.23,1.23,0,0,0,.44-.11.77.77,0,0,0,.33-.21Z"/><path class="b292ba1b-c33a-4ab6-bc76-eb48a667d90c" d="M345.57,232.27a2.78,2.78,0,0,1,.69-2,2.36,2.36,0,0,1,1.82-.75,2.4,2.4,0,0,1,1.86.72,2.9,2.9,0,0,1,.65,2,2.82,2.82,0,0,1-.67,2,2.66,2.66,0,0,1-3.69,0A2.85,2.85,0,0,1,345.57,232.27Zm1.27,0c0,1.15.41,1.73,1.24,1.73a1.06,1.06,0,0,0,.91-.45,2.12,2.12,0,0,0,.33-1.28c0-1.13-.41-1.7-1.24-1.7a1.06,1.06,0,0,0-.9.45A2,2,0,0,0,346.84,232.27Z"/><path class="b292ba1b-c33a-4ab6-bc76-eb48a667d90c" d="M355.93,232.27v2.63h-1.27v-7.15c.84,0,1.34-.05,1.48-.05a4.56,4.56,0,0,1,2.48.52,1.79,1.79,0,0,1,.78,1.62c0,1.64-1,2.46-2.9,2.46Zm0-3.42v2.29l.5,0a2.13,2.13,0,0,0,1.27-.29,1.07,1.07,0,0,0,.4-.94c0-.74-.59-1.12-1.79-1.12A2.34,2.34,0,0,0,355.93,228.85Z"/><path class="b292ba1b-c33a-4ab6-bc76-eb48a667d90c" d="M363.48,230.81a1.25,1.25,0,0,0-.72-.22,1,1,0,0,0-.76.39,1.4,1.4,0,0,0-.33.94v3h-1.22v-5.23h1.22v.48a1.74,1.74,0,0,1,1.37-.58,2,2,0,0,1,.95.19Z"/><path class="b292ba1b-c33a-4ab6-bc76-eb48a667d90c" d="M365.05,234.9v-4.23h-.67v-1h1.91v5.23Zm.63-7.26a.67.67,0,0,1,.5.21.69.69,0,0,1,.21.5.72.72,0,0,1-.71.71.69.69,0,0,1-.5-.21.67.67,0,0,1-.21-.5.72.72,0,0,1,.71-.71Z"/><path class="b292ba1b-c33a-4ab6-bc76-eb48a667d90c" d="M371.81,230.08l-.52.92a1.62,1.62,0,0,0-1.15-.41,1.4,1.4,0,0,0-1.1.46,1.89,1.89,0,0,0-.4,1.28q0,1.65,1.56,1.65a1.76,1.76,0,0,0,1.2-.45l.45,1a3.29,3.29,0,0,1-.93.42,4.35,4.35,0,0,1-.94.09,2.56,2.56,0,0,1-1.91-.71,2.64,2.64,0,0,1-.7-2,2.71,2.71,0,0,1,.76-2,2.88,2.88,0,0,1,2.09-.76A2.56,2.56,0,0,1,371.81,230.08Z"/><path class="b292ba1b-c33a-4ab6-bc76-eb48a667d90c" d="M377.49,232.66h-3.73a1.3,1.3,0,0,0,.43,1,1.56,1.56,0,0,0,1.06.35,1.72,1.72,0,0,0,1.27-.44l.48.93a3,3,0,0,1-1.93.53,2.58,2.58,0,0,1-1.89-.7,2.68,2.68,0,0,1-.7-2,2.71,2.71,0,0,1,.77-2,2.67,2.67,0,0,1,3.66-.09,2.32,2.32,0,0,1,.69,1.73A3.52,3.52,0,0,1,377.49,232.66Zm-3.69-.92h2.57a1.15,1.15,0,0,0-1.27-1.15A1.25,1.25,0,0,0,373.8,231.74Z"/><path class="b292ba1b-c33a-4ab6-bc76-eb48a667d90c" d="M277.92,246.9l-.52-1.45H275l-.5,1.45H273l2.85-7.25h.56l2.87,7.25Zm-1.75-5.06-.86,2.64H277Z"/><path class="b292ba1b-c33a-4ab6-bc76-eb48a667d90c" d="M279.62,248.24l.77-1a2.14,2.14,0,0,0,2.29.43.49.49,0,0,0,.35-.43c0-.31-.26-.46-.76-.46a5.67,5.67,0,0,0-.61,0,4.16,4.16,0,0,1-.61,0q-1.26,0-1.26-.9a.8.8,0,0,1,.21-.51,1.23,1.23,0,0,1,.49-.36,1.86,1.86,0,0,1-.9-1.65,1.79,1.79,0,0,1,.62-1.39,2.16,2.16,0,0,1,1.51-.55,2.37,2.37,0,0,1,1.18.27l.48-.56.84.77-.58.42a2,2,0,0,1,.3,1.08,1.91,1.91,0,0,1-.54,1.43,1.86,1.86,0,0,1-1.37.54l-.36,0-.2,0-.26.11c-.15.07-.22.14-.22.22s.11.19.33.19a2.77,2.77,0,0,0,.51-.07,3.1,3.1,0,0,1,.61-.08c1.19,0,1.78.48,1.78,1.44a1.39,1.39,0,0,1-.71,1.24,3.17,3.17,0,0,1-1.72.45A3.61,3.61,0,0,1,279.62,248.24Zm1.22-4.73a1,1,0,0,0,.26.74.88.88,0,0,0,.69.28.81.81,0,0,0,.66-.27,1.11,1.11,0,0,0,.24-.75.93.93,0,0,0-.25-.67.83.83,0,0,0-.65-.28.91.91,0,0,0-1,.95Z"/><path class="b292ba1b-c33a-4ab6-bc76-eb48a667d90c" d="M288.05,242.81a1.25,1.25,0,0,0-.72-.22,1,1,0,0,0-.75.39,1.4,1.4,0,0,0-.33.94v3H285v-5.23h1.22v.48a1.71,1.71,0,0,1,1.36-.58,2,2,0,0,1,1,.19Z"/><path class="b292ba1b-c33a-4ab6-bc76-eb48a667d90c" d="M294,244.66h-3.74a1.38,1.38,0,0,0,.43,1,1.58,1.58,0,0,0,1.07.35,1.73,1.73,0,0,0,1.27-.44l.47.93a3,3,0,0,1-1.92.53,2.6,2.6,0,0,1-1.9-.7,2.68,2.68,0,0,1-.69-2,2.71,2.71,0,0,1,.76-2,2.67,2.67,0,0,1,3.66-.09,2.32,2.32,0,0,1,.69,1.73A3.32,3.32,0,0,1,294,244.66Zm-3.69-.92h2.57a1.15,1.15,0,0,0-1.27-1.15A1.25,1.25,0,0,0,290.28,243.74Z"/><path class="b292ba1b-c33a-4ab6-bc76-eb48a667d90c" d="M299.72,244.66H296a1.34,1.34,0,0,0,.43,1,1.56,1.56,0,0,0,1.06.35,1.72,1.72,0,0,0,1.27-.44l.48.93a3,3,0,0,1-1.93.53,2.59,2.59,0,0,1-1.89-.7,2.68,2.68,0,0,1-.69-2,2.71,2.71,0,0,1,.76-2,2.67,2.67,0,0,1,3.66-.09,2.32,2.32,0,0,1,.69,1.73A4.23,4.23,0,0,1,299.72,244.66Zm-3.7-.92h2.57a1.15,1.15,0,0,0-1.27-1.15A1.26,1.26,0,0,0,296,243.74Z"/><path class="b292ba1b-c33a-4ab6-bc76-eb48a667d90c" d="M306.85,246.9v-3.28c0-.68-.31-1-.92-1a1,1,0,0,0-.53.16,1,1,0,0,0-.36.37v3.78h-1.22v-3.47a.79.79,0,0,0-.24-.61.94.94,0,0,0-.67-.23,1,1,0,0,0-.5.17,1.18,1.18,0,0,0-.39.38v3.76h-1.23v-5.23h.84l.25.46a1.71,1.71,0,0,1,1.32-.56,2,2,0,0,1,1.56.57,1.65,1.65,0,0,1,.64-.41,2.21,2.21,0,0,1,.82-.16,1.8,1.8,0,0,1,1.36.5,1.88,1.88,0,0,1,.49,1.38v3.45Z"/><path class="b292ba1b-c33a-4ab6-bc76-eb48a667d90c" d="M314.06,244.66h-3.74a1.34,1.34,0,0,0,.43,1,1.57,1.57,0,0,0,1.07.35,1.69,1.69,0,0,0,1.26-.44l.48.93a3,3,0,0,1-1.93.53,2.59,2.59,0,0,1-1.89-.7,2.68,2.68,0,0,1-.69-2,2.71,2.71,0,0,1,.76-2,2.67,2.67,0,0,1,3.66-.09,2.32,2.32,0,0,1,.69,1.73A4.23,4.23,0,0,1,314.06,244.66Zm-3.7-.92h2.57a1.14,1.14,0,0,0-1.27-1.15A1.26,1.26,0,0,0,310.36,243.74Z"/><path class="b292ba1b-c33a-4ab6-bc76-eb48a667d90c" d="M318.5,246.9v-3a1.51,1.51,0,0,0-.26-1,1,1,0,0,0-.83-.31,1.35,1.35,0,0,0-.58.15,1.29,1.29,0,0,0-.47.38v3.78h-1.22v-5.23H316l.23.49a1.82,1.82,0,0,1,1.47-.59,2,2,0,0,1,1.47.56,2.14,2.14,0,0,1,.54,1.56v3.21Z"/><path class="b292ba1b-c33a-4ab6-bc76-eb48a667d90c" d="M321.22,242.65h-.6v-1h.6V240.6l1.23-.44v1.51h1.43v1h-1.43v2.29a1.3,1.3,0,0,0,.17.79.72.72,0,0,0,.62.24,1.53,1.53,0,0,0,.82-.24v1.12a3.84,3.84,0,0,1-1.21.15,1.57,1.57,0,0,1-1.21-.45,1.73,1.73,0,0,1-.42-1.25Z"/><path class="b292ba1b-c33a-4ab6-bc76-eb48a667d90c" d="M330.52,239.6v.68a6.68,6.68,0,0,0-1,3.9c0,2,.33,3.4,1,4.12v.82a5.07,5.07,0,0,1-1.76-2.07,6.75,6.75,0,0,1-.61-2.88,6,6,0,0,1,.69-2.71A4,4,0,0,1,330.52,239.6Z"/><path class="b292ba1b-c33a-4ab6-bc76-eb48a667d90c" d="M331.42,246.5l.47-1.13a2.56,2.56,0,0,0,1.48.52c.74,0,1.12-.26,1.12-.78a1.1,1.1,0,0,0-.27-.7,3.31,3.31,0,0,0-1.08-.74A5.28,5.28,0,0,1,332,243a1.84,1.84,0,0,1-.44-.63,2.17,2.17,0,0,1-.16-.81,1.8,1.8,0,0,1,.61-1.38,2.28,2.28,0,0,1,1.56-.55,2.88,2.88,0,0,1,1.82.47l-.38,1.09a2.4,2.4,0,0,0-1.41-.48,1,1,0,0,0-.68.23.79.79,0,0,0-.25.61c0,.41.46.83,1.37,1.28a4.66,4.66,0,0,1,1,.64,2,2,0,0,1,.48.69,2.09,2.09,0,0,1,.17.88,1.79,1.79,0,0,1-.68,1.43,2.86,2.86,0,0,1-1.84.56A3.24,3.24,0,0,1,331.42,246.5Z"/><path class="b292ba1b-c33a-4ab6-bc76-eb48a667d90c" d="M337,242.65h-.61v-1H337V240.6l1.22-.44v1.51h1.43v1h-1.43v2.29a1.38,1.38,0,0,0,.17.79.72.72,0,0,0,.62.24,1.53,1.53,0,0,0,.82-.24v1.12a3.84,3.84,0,0,1-1.21.15,1.56,1.56,0,0,1-1.2-.45,1.73,1.73,0,0,1-.42-1.25Z"/><path class="b292ba1b-c33a-4ab6-bc76-eb48a667d90c" d="M343.68,246.38a1.18,1.18,0,0,1-.58.44,2.18,2.18,0,0,1-.86.18,1.9,1.9,0,0,1-1.33-.43,1.48,1.48,0,0,1-.49-1.19,1.69,1.69,0,0,1,.69-1.43,3.15,3.15,0,0,1,1.93-.51,2.2,2.2,0,0,1,.51.08q0-.93-1.17-.93a2.62,2.62,0,0,0-1.15.23l-.26-.95a3.45,3.45,0,0,1,1.49-.3,2.41,2.41,0,0,1,1.76.55,2.89,2.89,0,0,1,.55,2.06v1.12c0,.69.14,1.13.42,1.31a.69.69,0,0,1-.33.33,1.44,1.44,0,0,1-.43.06.69.69,0,0,1-.47-.2A.92.92,0,0,1,343.68,246.38Zm-.12-1.94a3.12,3.12,0,0,0-.47-.07c-1,0-1.45.32-1.45.95,0,.47.28.7.82.7a1,1,0,0,0,1.1-1.09Z"/><path class="b292ba1b-c33a-4ab6-bc76-eb48a667d90c" d="M346.28,242.65h-.61v-1h.61V240.6l1.22-.44v1.51h1.43v1H347.5v2.29a1.38,1.38,0,0,0,.17.79.73.73,0,0,0,.62.24,1.51,1.51,0,0,0,.82-.24v1.12a3.8,3.8,0,0,1-1.21.15,1.56,1.56,0,0,1-1.2-.45,1.73,1.73,0,0,1-.42-1.25Z"/><path class="b292ba1b-c33a-4ab6-bc76-eb48a667d90c" d="M354.73,244.66H351a1.34,1.34,0,0,0,.43,1,1.56,1.56,0,0,0,1.06.35,1.72,1.72,0,0,0,1.27-.44l.48.93a3,3,0,0,1-1.93.53,2.59,2.59,0,0,1-1.89-.7,2.68,2.68,0,0,1-.69-2,2.71,2.71,0,0,1,.76-2,2.67,2.67,0,0,1,3.66-.09,2.32,2.32,0,0,1,.69,1.73A4.23,4.23,0,0,1,354.73,244.66Zm-3.7-.92h2.57a1.15,1.15,0,0,0-1.27-1.15A1.26,1.26,0,0,0,351,243.74Z"/><path class="b292ba1b-c33a-4ab6-bc76-eb48a667d90c" d="M361.73,240.64a2.38,2.38,0,0,0-.61-.13.73.73,0,0,0-.59.3,1.13,1.13,0,0,0-.24.73v.13h1.09v1h-1.07v4.22h-1.22v-4.22h-.76v-1h.77a2.36,2.36,0,0,1,.56-1.55,1.74,1.74,0,0,1,1.37-.59,3.61,3.61,0,0,1,1.06.19Z"/><path class="b292ba1b-c33a-4ab6-bc76-eb48a667d90c" d="M365.88,246.9v-.44a2.06,2.06,0,0,1-.71.38,2.7,2.7,0,0,1-.84.16c-1.21,0-1.82-.65-1.82-1.94v-3.39h1.22V245c0,.67.31,1,.91,1a1.52,1.52,0,0,0,.77-.22,1.06,1.06,0,0,0,.47-.5v-3.59h1.22v5.23Z"/><path class="b292ba1b-c33a-4ab6-bc76-eb48a667d90c" d="M371.79,246.9v-3a1.51,1.51,0,0,0-.26-1,1,1,0,0,0-.84-.31,1.28,1.28,0,0,0-.57.15,1.33,1.33,0,0,0-.48.38v3.78h-1.22v-5.23h.88l.23.49a1.81,1.81,0,0,1,1.46-.59,2,2,0,0,1,1.48.56,2.14,2.14,0,0,1,.54,1.56v3.21Z"/><path class="b292ba1b-c33a-4ab6-bc76-eb48a667d90c" d="M377.69,246.9v-.32a1.2,1.2,0,0,1-.51.29,2.36,2.36,0,0,1-.75.13,2.18,2.18,0,0,1-1.72-.7,2.75,2.75,0,0,1-.63-1.93,2.85,2.85,0,0,1,.72-2,2.35,2.35,0,0,1,1.81-.78,2.32,2.32,0,0,1,1.08.25v-2.1l1.22-.29v7.47Zm0-4a1.27,1.27,0,0,0-.82-.31,1.44,1.44,0,0,0-1.12.44,1.86,1.86,0,0,0-.4,1.29c0,1.08.52,1.63,1.57,1.63a1.28,1.28,0,0,0,.44-.11.77.77,0,0,0,.33-.21Z"/><path class="b292ba1b-c33a-4ab6-bc76-eb48a667d90c" d="M379.81,246.56l.43-1a2,2,0,0,0,1.24.43c.47,0,.71-.16.71-.5A.64.64,0,0,0,382,245a3.17,3.17,0,0,0-.84-.45c-.9-.38-1.35-.9-1.35-1.57a1.22,1.22,0,0,1,.52-1.06,2.17,2.17,0,0,1,1.32-.38,3.26,3.26,0,0,1,1.53.37l-.35.95a1.66,1.66,0,0,0-1.11-.35c-.43,0-.64.17-.64.51a.45.45,0,0,0,.21.36,4.19,4.19,0,0,0,.9.43,2.34,2.34,0,0,1,1,.66,1.48,1.48,0,0,1,.3.93,1.37,1.37,0,0,1-.54,1.15,2.34,2.34,0,0,1-1.47.42,3.13,3.13,0,0,1-.83-.09A4.09,4.09,0,0,1,379.81,246.56Z"/><path class="b292ba1b-c33a-4ab6-bc76-eb48a667d90c" d="M277,256.27a2.78,2.78,0,0,1,.69-1.95,2.67,2.67,0,0,1,3.68,0,3.28,3.28,0,0,1,0,4,2.66,2.66,0,0,1-3.69,0A2.85,2.85,0,0,1,277,256.27Zm1.27,0c0,1.15.42,1.73,1.25,1.73a1.06,1.06,0,0,0,.9-.45,2.12,2.12,0,0,0,.34-1.28c0-1.13-.42-1.7-1.24-1.7a1.06,1.06,0,0,0-.91.45A2,2,0,0,0,278.26,256.27Z"/><path class="b292ba1b-c33a-4ab6-bc76-eb48a667d90c" d="M286.36,258.9v-3a1.51,1.51,0,0,0-.26-1,1,1,0,0,0-.84-.31,1.28,1.28,0,0,0-.57.15,1.42,1.42,0,0,0-.48.38v3.78H283v-5.23h.88l.23.49a1.82,1.82,0,0,1,1.47-.59,2,2,0,0,1,1.47.56,2.14,2.14,0,0,1,.54,1.56v3.21Z"/><path class="b292ba1b-c33a-4ab6-bc76-eb48a667d90c" d="M289.11,251.72l1.22-.29v5.88c0,.64.19,1,.57,1.15a1,1,0,0,1-1,.54c-.56,0-.83-.39-.83-1.16Z"/><path class="b292ba1b-c33a-4ab6-bc76-eb48a667d90c" d="M294.16,259.74a1.68,1.68,0,0,1-.84.87,3.22,3.22,0,0,1-1.5.34v-1.08c.95,0,1.42-.24,1.42-.71a4.33,4.33,0,0,0-.39-1.43l-1.64-4.06h1.26l1.43,3.61,1.28-3.61h1.27Z"/><path class="b292ba1b-c33a-4ab6-bc76-eb48a667d90c" d="M297.32,261.12v-.82c.64-.72,1-2.09,1-4.12a6.68,6.68,0,0,0-1-3.9v-.68a4,4,0,0,1,1.68,1.86,6,6,0,0,1,.69,2.71,6.75,6.75,0,0,1-.61,2.88A5.07,5.07,0,0,1,297.32,261.12Z"/><path class="b292ba1b-c33a-4ab6-bc76-eb48a667d90c" d="M301.25,260.72l-.41-.53c.59-.44.89-.79.89-1.05a.51.51,0,0,0-.1-.29.69.69,0,0,1-.46-.63.6.6,0,0,1,.24-.48,1,1,0,0,1,.61-.19.77.77,0,0,1,.58.25.83.83,0,0,1,.26.6,2.29,2.29,0,0,1-.29,1.13A4.3,4.3,0,0,1,301.25,260.72Z"/><path class="b292ba1b-c33a-4ab6-bc76-eb48a667d90c" d="M307.22,258.56l.43-1a2,2,0,0,0,1.24.43c.47,0,.71-.16.71-.5a.61.61,0,0,0-.22-.49,3.06,3.06,0,0,0-.83-.45c-.9-.38-1.35-.9-1.35-1.57a1.23,1.23,0,0,1,.51-1.06,2.23,2.23,0,0,1,1.33-.38,3.26,3.26,0,0,1,1.53.37l-.35.95a1.66,1.66,0,0,0-1.11-.35c-.43,0-.64.17-.64.51a.45.45,0,0,0,.21.36,4,4,0,0,0,.89.43,2.45,2.45,0,0,1,1,.66,1.48,1.48,0,0,1,.3.93,1.37,1.37,0,0,1-.54,1.15,2.34,2.34,0,0,1-1.47.42,3.16,3.16,0,0,1-.84-.09A3.81,3.81,0,0,1,307.22,258.56Z"/><path class="b292ba1b-c33a-4ab6-bc76-eb48a667d90c" d="M317.9,258.9v-3.28c0-.68-.31-1-.92-1a1,1,0,0,0-.53.16,1,1,0,0,0-.36.37v3.78h-1.22v-3.47a.79.79,0,0,0-.24-.61.94.94,0,0,0-.67-.23,1,1,0,0,0-.5.17,1.18,1.18,0,0,0-.39.38v3.76h-1.23v-5.23h.84l.25.46a1.71,1.71,0,0,1,1.32-.56,2,2,0,0,1,1.56.57,1.65,1.65,0,0,1,.64-.41,2.21,2.21,0,0,1,.82-.16,1.8,1.8,0,0,1,1.36.5,1.88,1.88,0,0,1,.49,1.38v3.45Z"/><path class="b292ba1b-c33a-4ab6-bc76-eb48a667d90c" d="M323.35,258.38a1.18,1.18,0,0,1-.58.44,2.14,2.14,0,0,1-.86.18,1.92,1.92,0,0,1-1.33-.43,1.5,1.5,0,0,1-.48-1.19,1.68,1.68,0,0,1,.68-1.43,3.17,3.17,0,0,1,1.93-.51,2.05,2.05,0,0,1,.51.08q0-.93-1.17-.93a2.65,2.65,0,0,0-1.15.23l-.26-.95a3.46,3.46,0,0,1,1.5-.3,2.39,2.39,0,0,1,1.75.55,2.89,2.89,0,0,1,.56,2.06v1.12c0,.69.14,1.13.42,1.31a.71.71,0,0,1-.34.33,1.33,1.33,0,0,1-.42.06.69.69,0,0,1-.48-.2A1,1,0,0,1,323.35,258.38Zm-.12-1.94a3,3,0,0,0-.47-.07c-1,0-1.44.32-1.44.95,0,.47.27.7.81.7a1,1,0,0,0,1.1-1.09Z"/><path class="b292ba1b-c33a-4ab6-bc76-eb48a667d90c" d="M326,251.72l1.22-.29v5.88c0,.64.19,1,.57,1.15a1,1,0,0,1-1,.54c-.56,0-.83-.39-.83-1.16Z"/><path class="b292ba1b-c33a-4ab6-bc76-eb48a667d90c" d="M328.92,251.72l1.23-.29v5.88c0,.64.19,1,.57,1.15a1,1,0,0,1-1,.54c-.55,0-.83-.39-.83-1.16Z"/><path class="b292ba1b-c33a-4ab6-bc76-eb48a667d90c" d="M335.8,258.77V261h-1.22v-7.28h1.22V254a1.55,1.55,0,0,1,1.13-.45c1.66,0,2.5.92,2.5,2.76a2.67,2.67,0,0,1-.69,2,2.52,2.52,0,0,1-1.89.7A2.45,2.45,0,0,1,335.8,258.77Zm0-3.82v2.75a1.19,1.19,0,0,0,.78.27,1.58,1.58,0,0,0,1.21-.41,1.87,1.87,0,0,0,.37-1.27,1.8,1.8,0,0,0-.37-1.3,1.6,1.6,0,0,0-1.21-.38A1.07,1.07,0,0,0,335.8,255Z"/><path class="b292ba1b-c33a-4ab6-bc76-eb48a667d90c" d="M343.87,258.9v-.44a2.06,2.06,0,0,1-.71.38,2.7,2.7,0,0,1-.84.16c-1.21,0-1.82-.65-1.82-1.94v-3.39h1.22V257c0,.67.3,1,.91,1a1.52,1.52,0,0,0,.77-.22,1.06,1.06,0,0,0,.47-.5v-3.59h1.22v5.23Z"/><path class="b292ba1b-c33a-4ab6-bc76-eb48a667d90c" d="M349.43,254.81a1.22,1.22,0,0,0-.72-.22,1,1,0,0,0-.75.39,1.4,1.4,0,0,0-.33.94v3h-1.22v-5.23h1.22v.48a1.72,1.72,0,0,1,1.36-.58,2,2,0,0,1,1,.19Z"/><path class="b292ba1b-c33a-4ab6-bc76-eb48a667d90c" d="M354.78,254.08l-.52.92a1.6,1.6,0,0,0-1.15-.41,1.42,1.42,0,0,0-1.1.46,1.89,1.89,0,0,0-.4,1.28c0,1.1.52,1.65,1.57,1.65a1.75,1.75,0,0,0,1.19-.45l.45,1a3.06,3.06,0,0,1-.93.42,4.28,4.28,0,0,1-.94.09,2.59,2.59,0,0,1-1.91-.71,2.64,2.64,0,0,1-.7-2,2.71,2.71,0,0,1,.77-2,2.87,2.87,0,0,1,2.09-.76A2.53,2.53,0,0,1,354.78,254.08Z"/><path class="b292ba1b-c33a-4ab6-bc76-eb48a667d90c" d="M359.18,258.9v-3.22a1,1,0,0,0-.3-.78,1.06,1.06,0,0,0-.79-.29,1.26,1.26,0,0,0-.61.16,1.11,1.11,0,0,0-.44.37v3.76H355.8v-7.18l1.24-.29V254a1.86,1.86,0,0,1,1.3-.43,2,2,0,0,1,1.53.55,2.11,2.11,0,0,1,.54,1.56v3.22Z"/><path class="b292ba1b-c33a-4ab6-bc76-eb48a667d90c" d="M364.64,258.38a1.18,1.18,0,0,1-.58.44,2.14,2.14,0,0,1-.86.18,1.9,1.9,0,0,1-1.33-.43,1.5,1.5,0,0,1-.48-1.19,1.68,1.68,0,0,1,.68-1.43,3.17,3.17,0,0,1,1.93-.51,2.05,2.05,0,0,1,.51.08q0-.93-1.17-.93a2.62,2.62,0,0,0-1.15.23l-.26-.95a3.46,3.46,0,0,1,1.5-.3,2.4,2.4,0,0,1,1.75.55,2.89,2.89,0,0,1,.56,2.06v1.12c0,.69.14,1.13.42,1.31a.71.71,0,0,1-.34.33,1.4,1.4,0,0,1-.43.06.69.69,0,0,1-.47-.2A1,1,0,0,1,364.64,258.38Zm-.12-1.94a3,3,0,0,0-.47-.07c-1,0-1.44.32-1.44.95,0,.47.27.7.81.7a1,1,0,0,0,1.1-1.09Z"/><path class="b292ba1b-c33a-4ab6-bc76-eb48a667d90c" d="M366.73,258.56l.44-1a1.9,1.9,0,0,0,1.23.43c.48,0,.71-.16.71-.5a.64.64,0,0,0-.21-.49,3.06,3.06,0,0,0-.83-.45c-.91-.38-1.36-.9-1.36-1.57a1.24,1.24,0,0,1,.52-1.06,2.22,2.22,0,0,1,1.32-.38,3.27,3.27,0,0,1,1.54.37l-.35.95a1.67,1.67,0,0,0-1.12-.35c-.42,0-.64.17-.64.51a.45.45,0,0,0,.21.36,4.19,4.19,0,0,0,.9.43,2.34,2.34,0,0,1,1,.66,1.48,1.48,0,0,1,.3.93,1.39,1.39,0,0,1-.53,1.15,2.34,2.34,0,0,1-1.47.42,3.16,3.16,0,0,1-.84-.09A4.09,4.09,0,0,1,366.73,258.56Z"/><path class="b292ba1b-c33a-4ab6-bc76-eb48a667d90c" d="M376,256.66h-3.74a1.38,1.38,0,0,0,.43,1,1.58,1.58,0,0,0,1.07.35,1.73,1.73,0,0,0,1.27-.44l.47.93a3,3,0,0,1-1.92.53,2.56,2.56,0,0,1-1.89-.7,2.64,2.64,0,0,1-.7-2,2.71,2.71,0,0,1,.76-2,2.67,2.67,0,0,1,3.66-.09,2.32,2.32,0,0,1,.69,1.73A3.32,3.32,0,0,1,376,256.66Zm-3.69-.92h2.57a1.15,1.15,0,0,0-1.27-1.15A1.25,1.25,0,0,0,372.34,255.74Z"/><path class="b292ba1b-c33a-4ab6-bc76-eb48a667d90c" d="M377.51,260.72l-.42-.53q.9-.66.9-1.05a.53.53,0,0,0-.11-.29.7.7,0,0,1-.46-.63.6.6,0,0,1,.24-.48,1,1,0,0,1,.61-.19.85.85,0,0,1,.84.85,2.29,2.29,0,0,1-.29,1.13A4.11,4.11,0,0,1,377.51,260.72Z"/><path class="b292ba1b-c33a-4ab6-bc76-eb48a667d90c" d="M269.92,270.56l.44-1a1.9,1.9,0,0,0,1.23.43c.48,0,.72-.16.72-.5a.64.64,0,0,0-.22-.49,3.06,3.06,0,0,0-.83-.45c-.91-.38-1.36-.9-1.36-1.57a1.24,1.24,0,0,1,.52-1.06,2.22,2.22,0,0,1,1.32-.38,3.27,3.27,0,0,1,1.54.37l-.35.95a1.67,1.67,0,0,0-1.12-.35c-.42,0-.64.17-.64.51a.45.45,0,0,0,.21.36,4.19,4.19,0,0,0,.9.43,2.34,2.34,0,0,1,1,.66,1.49,1.49,0,0,1,.31.93,1.37,1.37,0,0,1-.54,1.15,2.34,2.34,0,0,1-1.47.42,3.16,3.16,0,0,1-.84-.09A4.09,4.09,0,0,1,269.92,270.56Z"/><path class="b292ba1b-c33a-4ab6-bc76-eb48a667d90c" d="M274.21,268.27a2.78,2.78,0,0,1,.69-1.95,2.67,2.67,0,0,1,3.68,0,3.28,3.28,0,0,1,0,4,2.66,2.66,0,0,1-3.69,0A2.85,2.85,0,0,1,274.21,268.27Zm1.27,0c0,1.15.42,1.73,1.25,1.73a1.06,1.06,0,0,0,.9-.45,2.12,2.12,0,0,0,.34-1.28c0-1.13-.42-1.7-1.24-1.7a1.06,1.06,0,0,0-.91.45A2,2,0,0,0,275.48,268.27Z"/><path class="b292ba1b-c33a-4ab6-bc76-eb48a667d90c" d="M280.42,263.72l1.22-.29v5.88c0,.64.19,1,.58,1.15a1,1,0,0,1-1,.54c-.55,0-.83-.39-.83-1.16Z"/><path class="b292ba1b-c33a-4ab6-bc76-eb48a667d90c" d="M287.83,268.66h-3.74a1.38,1.38,0,0,0,.43,1,1.58,1.58,0,0,0,1.07.35,1.73,1.73,0,0,0,1.27-.44l.47.93a3,3,0,0,1-1.92.53,2.6,2.6,0,0,1-1.9-.7,2.68,2.68,0,0,1-.69-2,2.71,2.71,0,0,1,.76-2,2.67,2.67,0,0,1,3.66-.09,2.32,2.32,0,0,1,.69,1.73A3.32,3.32,0,0,1,287.83,268.66Zm-3.69-.92h2.57a1.15,1.15,0,0,0-1.27-1.15A1.25,1.25,0,0,0,284.14,267.74Z"/><path class="b292ba1b-c33a-4ab6-bc76-eb48a667d90c" d="M291.6,270.56l.43-1a2,2,0,0,0,1.24.43c.47,0,.71-.16.71-.5a.64.64,0,0,0-.21-.49,3.34,3.34,0,0,0-.84-.45c-.9-.38-1.35-.9-1.35-1.57a1.22,1.22,0,0,1,.52-1.06,2.17,2.17,0,0,1,1.32-.38,3.26,3.26,0,0,1,1.53.37l-.35.95a1.66,1.66,0,0,0-1.11-.35c-.43,0-.64.17-.64.51a.45.45,0,0,0,.21.36,4.19,4.19,0,0,0,.9.43,2.34,2.34,0,0,1,1,.66,1.48,1.48,0,0,1,.3.93,1.37,1.37,0,0,1-.54,1.15,2.34,2.34,0,0,1-1.47.42,3.13,3.13,0,0,1-.83-.09A4.09,4.09,0,0,1,291.6,270.56Z"/><path class="b292ba1b-c33a-4ab6-bc76-eb48a667d90c" d="M295.89,268.27a2.78,2.78,0,0,1,.69-1.95,2.35,2.35,0,0,1,1.82-.75,2.39,2.39,0,0,1,1.85.72,2.85,2.85,0,0,1,.66,2,2.82,2.82,0,0,1-.67,2,2.37,2.37,0,0,1-1.84.74,2.34,2.34,0,0,1-1.85-.75A2.85,2.85,0,0,1,295.89,268.27Zm1.26,0c0,1.15.42,1.73,1.25,1.73a1.09,1.09,0,0,0,.91-.45,2.12,2.12,0,0,0,.33-1.28c0-1.13-.41-1.7-1.24-1.7a1.09,1.09,0,0,0-.91.45A2.06,2.06,0,0,0,297.15,268.27Z"/><path class="b292ba1b-c33a-4ab6-bc76-eb48a667d90c" d="M305.26,270.9v-.44a2.11,2.11,0,0,1-.72.38,2.69,2.69,0,0,1-.83.16c-1.22,0-1.82-.65-1.82-1.94v-3.39h1.22V269c0,.67.3,1,.9,1a1.5,1.5,0,0,0,.77-.22,1.09,1.09,0,0,0,.48-.5v-3.59h1.22v5.23Z"/><path class="b292ba1b-c33a-4ab6-bc76-eb48a667d90c" d="M310.82,266.81a1.25,1.25,0,0,0-.72-.22,1,1,0,0,0-.76.39,1.39,1.39,0,0,0-.32.94v3h-1.23v-5.23H309v.48a1.71,1.71,0,0,1,1.36-.58,2,2,0,0,1,.95.19Z"/><path class="b292ba1b-c33a-4ab6-bc76-eb48a667d90c" d="M316.17,266.08l-.52.92a1.63,1.63,0,0,0-1.16-.41,1.4,1.4,0,0,0-1.09.46,1.89,1.89,0,0,0-.41,1.28c0,1.1.53,1.65,1.57,1.65a1.79,1.79,0,0,0,1.2-.45l.45,1a3.29,3.29,0,0,1-.93.42,4.35,4.35,0,0,1-.94.09,2.56,2.56,0,0,1-1.91-.71,2.64,2.64,0,0,1-.7-2,2.71,2.71,0,0,1,.76-2,2.87,2.87,0,0,1,2.09-.76A2.56,2.56,0,0,1,316.17,266.08Z"/><path class="b292ba1b-c33a-4ab6-bc76-eb48a667d90c" d="M321.85,268.66h-3.73a1.3,1.3,0,0,0,.43,1,1.54,1.54,0,0,0,1.06.35,1.72,1.72,0,0,0,1.27-.44l.47.93a3,3,0,0,1-1.92.53,2.56,2.56,0,0,1-1.89-.7,2.64,2.64,0,0,1-.7-2,2.71,2.71,0,0,1,.77-2,2.67,2.67,0,0,1,3.66-.09A2.31,2.31,0,0,1,322,268,3.32,3.32,0,0,1,321.85,268.66Zm-3.69-.92h2.57a1.15,1.15,0,0,0-1.27-1.15A1.25,1.25,0,0,0,318.16,267.74Z"/><path class="b292ba1b-c33a-4ab6-bc76-eb48a667d90c" d="M323.33,272.72l-.41-.53c.59-.44.89-.79.89-1.05a.51.51,0,0,0-.1-.29.7.7,0,0,1-.47-.63.58.58,0,0,1,.25-.48.92.92,0,0,1,.6-.19.79.79,0,0,1,.59.25.82.82,0,0,1,.25.6,2.19,2.19,0,0,1-.29,1.13A4.11,4.11,0,0,1,323.33,272.72Z"/><path class="b292ba1b-c33a-4ab6-bc76-eb48a667d90c" d="M333,270.9v-.32a1.2,1.2,0,0,1-.51.29,2.36,2.36,0,0,1-.75.13,2.18,2.18,0,0,1-1.72-.7,2.75,2.75,0,0,1-.63-1.93,2.85,2.85,0,0,1,.72-2,2.35,2.35,0,0,1,1.81-.78,2.32,2.32,0,0,1,1.08.25v-2.1l1.22-.29v7.47Zm0-4a1.27,1.27,0,0,0-.82-.31,1.44,1.44,0,0,0-1.12.44,1.86,1.86,0,0,0-.4,1.29c0,1.08.52,1.63,1.57,1.63a1.28,1.28,0,0,0,.44-.11.77.77,0,0,0,.33-.21Z"/><path class="b292ba1b-c33a-4ab6-bc76-eb48a667d90c" d="M335.08,268.27a2.78,2.78,0,0,1,.69-1.95,2.36,2.36,0,0,1,1.82-.75,2.4,2.4,0,0,1,1.86.72,2.9,2.9,0,0,1,.65,2,2.82,2.82,0,0,1-.67,2,2.66,2.66,0,0,1-3.69,0A2.85,2.85,0,0,1,335.08,268.27Zm1.27,0c0,1.15.41,1.73,1.24,1.73a1.06,1.06,0,0,0,.91-.45,2.12,2.12,0,0,0,.33-1.28c0-1.13-.41-1.7-1.24-1.7a1.06,1.06,0,0,0-.9.45A2,2,0,0,0,336.35,268.27Z"/><path class="b292ba1b-c33a-4ab6-bc76-eb48a667d90c" d="M345.18,266.08l-.52.92a1.62,1.62,0,0,0-1.15-.41,1.4,1.4,0,0,0-1.1.46,1.89,1.89,0,0,0-.4,1.28c0,1.1.52,1.65,1.57,1.65a1.75,1.75,0,0,0,1.19-.45l.45,1a3.06,3.06,0,0,1-.93.42,4.28,4.28,0,0,1-.94.09,2.57,2.57,0,0,1-1.91-.71,2.64,2.64,0,0,1-.7-2,2.67,2.67,0,0,1,.77-2,2.85,2.85,0,0,1,2.09-.76A2.55,2.55,0,0,1,345.18,266.08Z"/><path class="b292ba1b-c33a-4ab6-bc76-eb48a667d90c" d="M349.57,270.9v-.44a2.11,2.11,0,0,1-.72.38,2.69,2.69,0,0,1-.83.16c-1.22,0-1.82-.65-1.82-1.94v-3.39h1.22V269c0,.67.3,1,.9,1a1.47,1.47,0,0,0,.77-.22,1.09,1.09,0,0,0,.48-.5v-3.59h1.22v5.23Z"/><path class="b292ba1b-c33a-4ab6-bc76-eb48a667d90c" d="M358.16,270.9v-3.28c0-.68-.31-1-.92-1a1.05,1.05,0,0,0-.53.16,1,1,0,0,0-.36.37v3.78h-1.22v-3.47a.79.79,0,0,0-.24-.61.94.94,0,0,0-.67-.23,1,1,0,0,0-.5.17,1.18,1.18,0,0,0-.39.38v3.76h-1.22v-5.23H353l.25.46a1.68,1.68,0,0,1,1.31-.56,2.06,2.06,0,0,1,1.57.57,1.51,1.51,0,0,1,.64-.41,2.14,2.14,0,0,1,.82-.16,1.84,1.84,0,0,1,1.36.5,1.92,1.92,0,0,1,.48,1.38v3.45Z"/><path class="b292ba1b-c33a-4ab6-bc76-eb48a667d90c" d="M365.37,268.66h-3.74a1.34,1.34,0,0,0,.43,1,1.58,1.58,0,0,0,1.07.35,1.73,1.73,0,0,0,1.27-.44l.47.93A3,3,0,0,1,363,271a2.6,2.6,0,0,1-1.9-.7,2.68,2.68,0,0,1-.69-2,2.71,2.71,0,0,1,.76-2,2.67,2.67,0,0,1,3.66-.09,2.32,2.32,0,0,1,.69,1.73A3.32,3.32,0,0,1,365.37,268.66Zm-3.69-.92h2.56a1.14,1.14,0,0,0-1.26-1.15A1.25,1.25,0,0,0,361.68,267.74Z"/><path class="b292ba1b-c33a-4ab6-bc76-eb48a667d90c" d="M369.81,270.9v-3a1.46,1.46,0,0,0-.26-1,1,1,0,0,0-.83-.31,1.35,1.35,0,0,0-.58.15,1.29,1.29,0,0,0-.47.38v3.78h-1.22v-5.23h.88l.22.49a1.82,1.82,0,0,1,1.47-.59,2,2,0,0,1,1.47.56,2.14,2.14,0,0,1,.54,1.56v3.21Z"/><path class="b292ba1b-c33a-4ab6-bc76-eb48a667d90c" d="M372.54,266.65h-.61v-1h.61V264.6l1.22-.44v1.51h1.43v1h-1.43v2.29a1.38,1.38,0,0,0,.17.79.72.72,0,0,0,.62.24,1.53,1.53,0,0,0,.82-.24v1.12a3.84,3.84,0,0,1-1.21.15,1.56,1.56,0,0,1-1.2-.45,1.73,1.73,0,0,1-.42-1.25Z"/><path class="b292ba1b-c33a-4ab6-bc76-eb48a667d90c" d="M381,268.66h-3.73a1.3,1.3,0,0,0,.43,1,1.56,1.56,0,0,0,1.06.35,1.72,1.72,0,0,0,1.27-.44l.48.93a3,3,0,0,1-1.93.53,2.56,2.56,0,0,1-1.89-.7,2.64,2.64,0,0,1-.7-2,2.71,2.71,0,0,1,.77-2,2.67,2.67,0,0,1,3.66-.09,2.32,2.32,0,0,1,.69,1.73A3.52,3.52,0,0,1,381,268.66Zm-3.69-.92h2.57a1.15,1.15,0,0,0-1.27-1.15A1.25,1.25,0,0,0,377.29,267.74Z"/><path class="b292ba1b-c33a-4ab6-bc76-eb48a667d90c" d="M385.43,270.9v-.32a1.32,1.32,0,0,1-.52.29,2.35,2.35,0,0,1-.74.13,2.17,2.17,0,0,1-1.72-.7,2.75,2.75,0,0,1-.63-1.93,2.85,2.85,0,0,1,.72-2,2.48,2.48,0,0,1,2.89-.53v-2.1l1.22-.29v7.47Zm0-4a1.29,1.29,0,0,0-.82-.31,1.46,1.46,0,0,0-1.13.44,1.91,1.91,0,0,0-.39,1.29c0,1.08.52,1.63,1.57,1.63a1.18,1.18,0,0,0,.43-.11.9.9,0,0,0,.34-.21Z"/><path class="b292ba1b-c33a-4ab6-bc76-eb48a667d90c" d="M274.15,285v-2.2a2.51,2.51,0,0,1-1.21.25,2.32,2.32,0,0,1-1.78-.7,3.2,3.2,0,0,1,.09-4,2.55,2.55,0,0,1,1.89-.75,2.05,2.05,0,0,1,1.24.41l.2-.31h.79V285Zm0-6a1.19,1.19,0,0,0-.85-.3,1.38,1.38,0,0,0-1.12.47,1.9,1.9,0,0,0-.4,1.26c0,1.08.49,1.63,1.48,1.63a1.47,1.47,0,0,0,.89-.26Z"/><path class="b292ba1b-c33a-4ab6-bc76-eb48a667d90c" d="M280,282.9v-.44a2.06,2.06,0,0,1-.71.38,2.69,2.69,0,0,1-.83.16c-1.22,0-1.82-.65-1.82-1.94v-3.39h1.22V281c0,.67.3,1,.9,1a1.5,1.5,0,0,0,.77-.22,1,1,0,0,0,.47-.5v-3.59h1.23v5.23Z"/><path class="b292ba1b-c33a-4ab6-bc76-eb48a667d90c" d="M282.16,280.27a2.78,2.78,0,0,1,.69-1.95,2.67,2.67,0,0,1,3.68,0,3.3,3.3,0,0,1,0,4,2.39,2.39,0,0,1-1.84.74,2.35,2.35,0,0,1-1.86-.75A2.85,2.85,0,0,1,282.16,280.27Zm1.27,0c0,1.15.42,1.73,1.25,1.73a1.06,1.06,0,0,0,.9-.45,2.05,2.05,0,0,0,.34-1.28c0-1.13-.42-1.7-1.24-1.7a1.07,1.07,0,0,0-.91.45A2,2,0,0,0,283.43,280.27Z"/><path class="b292ba1b-c33a-4ab6-bc76-eb48a667d90c" d="M288.35,278.65h-.61v-1h.61V276.6l1.22-.44v1.51H291v1h-1.43v2.29a1.38,1.38,0,0,0,.17.79.73.73,0,0,0,.62.24,1.51,1.51,0,0,0,.82-.24v1.12A3.8,3.8,0,0,1,290,283a1.56,1.56,0,0,1-1.2-.45,1.73,1.73,0,0,1-.42-1.25Z"/><path class="b292ba1b-c33a-4ab6-bc76-eb48a667d90c" d="M296.8,280.66h-3.74a1.34,1.34,0,0,0,.43,1,1.56,1.56,0,0,0,1.06.35,1.72,1.72,0,0,0,1.27-.44l.48.93a3,3,0,0,1-1.93.53,2.59,2.59,0,0,1-1.89-.7,2.68,2.68,0,0,1-.69-2,2.71,2.71,0,0,1,.76-2,2.67,2.67,0,0,1,3.66-.09,2.32,2.32,0,0,1,.69,1.73A4.23,4.23,0,0,1,296.8,280.66Zm-3.7-.92h2.57a1.15,1.15,0,0,0-1.27-1.15A1.26,1.26,0,0,0,293.1,279.74Z"/><path class="b292ba1b-c33a-4ab6-bc76-eb48a667d90c" d="M298.28,284.72l-.42-.53c.6-.44.89-.79.89-1.05a.51.51,0,0,0-.1-.29.69.69,0,0,1-.46-.63.6.6,0,0,1,.24-.48,1,1,0,0,1,.61-.19.81.81,0,0,1,.59.25.86.86,0,0,1,.25.6,2.29,2.29,0,0,1-.29,1.13A4.23,4.23,0,0,1,298.28,284.72Z"/><path class="b292ba1b-c33a-4ab6-bc76-eb48a667d90c" d="M305.68,282.77V285h-1.22v-7.28h1.22V278a1.55,1.55,0,0,1,1.13-.45c1.67,0,2.5.92,2.5,2.76a2.67,2.67,0,0,1-.69,2,2.52,2.52,0,0,1-1.89.7A2.45,2.45,0,0,1,305.68,282.77Zm0-3.82v2.75a1.19,1.19,0,0,0,.78.27,1.56,1.56,0,0,0,1.21-.41,2.42,2.42,0,0,0,0-2.57,1.58,1.58,0,0,0-1.21-.38A1.07,1.07,0,0,0,305.68,279Z"/><path class="b292ba1b-c33a-4ab6-bc76-eb48a667d90c" d="M310.71,282.9v-4.23H310v-1H312v5.23Zm.63-7.26a.67.67,0,0,1,.5.21.69.69,0,0,1,.21.5.72.72,0,0,1-.71.71.69.69,0,0,1-.5-.21.67.67,0,0,1-.21-.5.72.72,0,0,1,.71-.71Z"/><path class="b292ba1b-c33a-4ab6-bc76-eb48a667d90c" d="M313,284.24l.77-.95a2.07,2.07,0,0,0,1.42.59,2.11,2.11,0,0,0,.87-.16.49.49,0,0,0,.35-.43c0-.31-.26-.46-.76-.46a5.67,5.67,0,0,0-.61,0,4.26,4.26,0,0,1-.61.05q-1.26,0-1.26-.9a.8.8,0,0,1,.21-.51,1.23,1.23,0,0,1,.49-.36,1.86,1.86,0,0,1-.9-1.65,1.79,1.79,0,0,1,.62-1.39,2.16,2.16,0,0,1,1.51-.55,2.37,2.37,0,0,1,1.18.27l.48-.56.84.77-.58.42a2,2,0,0,1,.3,1.08,1.91,1.91,0,0,1-.54,1.43,1.87,1.87,0,0,1-1.38.54l-.35,0-.2,0-.26.11c-.15.07-.23.14-.23.22s.12.19.34.19a2.77,2.77,0,0,0,.51-.07,3.1,3.1,0,0,1,.61-.08c1.19,0,1.78.48,1.78,1.44a1.41,1.41,0,0,1-.71,1.24,3.17,3.17,0,0,1-1.72.45A3.61,3.61,0,0,1,313,284.24Zm1.22-4.73a1.07,1.07,0,0,0,.25.74.91.91,0,0,0,.7.28.81.81,0,0,0,.66-.27,1.11,1.11,0,0,0,.24-.75,1,1,0,0,0-.25-.67.83.83,0,0,0-.65-.28.91.91,0,0,0-.95.95Z"/><path class="b292ba1b-c33a-4ab6-bc76-eb48a667d90c" d="M318,284.24l.77-.95a2.07,2.07,0,0,0,1.42.59,2.11,2.11,0,0,0,.87-.16.47.47,0,0,0,.34-.43c0-.31-.25-.46-.75-.46a5.67,5.67,0,0,0-.61,0,4.26,4.26,0,0,1-.61.05q-1.26,0-1.26-.9a.8.8,0,0,1,.21-.51,1.23,1.23,0,0,1,.49-.36,1.86,1.86,0,0,1-.9-1.65,1.79,1.79,0,0,1,.62-1.39,2.16,2.16,0,0,1,1.51-.55,2.37,2.37,0,0,1,1.18.27l.48-.56.84.77-.58.42a2,2,0,0,1,.3,1.08,1.91,1.91,0,0,1-.54,1.43,1.87,1.87,0,0,1-1.38.54l-.35,0-.2,0-.26.11c-.15.07-.23.14-.23.22s.12.19.34.19a2.77,2.77,0,0,0,.51-.07,3.1,3.1,0,0,1,.61-.08c1.19,0,1.78.48,1.78,1.44a1.41,1.41,0,0,1-.71,1.24,3.17,3.17,0,0,1-1.72.45A3.61,3.61,0,0,1,318,284.24Zm1.22-4.73a1.07,1.07,0,0,0,.25.74.9.9,0,0,0,.69.28.83.83,0,0,0,.67-.27,1.11,1.11,0,0,0,.24-.75,1,1,0,0,0-.25-.67.84.84,0,0,0-.66-.28.91.91,0,0,0-.94.95Z"/><path class="b292ba1b-c33a-4ab6-bc76-eb48a667d90c" d="M325.72,283.74a1.68,1.68,0,0,1-.84.87,3.18,3.18,0,0,1-1.49.34v-1.08c.94,0,1.41-.24,1.41-.71a4.33,4.33,0,0,0-.39-1.43l-1.64-4.06H324l1.42,3.61,1.29-3.61H328Z"/><path class="b292ba1b-c33a-4ab6-bc76-eb48a667d90c" d="M328.62,280.57v-1.14h2.58v1.14Z"/><path class="b292ba1b-c33a-4ab6-bc76-eb48a667d90c" d="M333.28,282.61,333,283h-.69v-7.28l1.22-.29v2.44a2,2,0,0,1,1.06-.3,2.42,2.42,0,0,1,1.85.73,2.54,2.54,0,0,1,.71,1.85,3,3,0,0,1-.71,2.08,2.49,2.49,0,0,1-1.92.77A2,2,0,0,1,333.28,282.61Zm.26-3.7v2.73a.88.88,0,0,0,.73.32,1.6,1.6,0,0,0,1.25-.42,2,2,0,0,0,.37-1.34q0-1.59-1.53-1.59A1.07,1.07,0,0,0,333.54,278.91Z"/><path class="b292ba1b-c33a-4ab6-bc76-eb48a667d90c" d="M341.14,282.38a1.13,1.13,0,0,1-.58.44,2.11,2.11,0,0,1-.86.18,1.94,1.94,0,0,1-1.33-.43,1.5,1.5,0,0,1-.48-1.19,1.71,1.71,0,0,1,.68-1.43,3.2,3.2,0,0,1,1.94-.51,2.05,2.05,0,0,1,.5.08c0-.62-.38-.93-1.16-.93a2.59,2.59,0,0,0-1.15.23l-.27-.95a3.46,3.46,0,0,1,1.5-.3,2.39,2.39,0,0,1,1.75.55,2.89,2.89,0,0,1,.56,2.06v1.12c0,.69.14,1.13.42,1.31a.67.67,0,0,1-.34.33,1.33,1.33,0,0,1-.42.06.71.71,0,0,1-.48-.2A1,1,0,0,1,341.14,282.38Zm-.12-1.94a2.87,2.87,0,0,0-.46-.07c-1,0-1.45.32-1.45.95,0,.47.27.7.82.7a1,1,0,0,0,1.09-1.09Z"/><path class="b292ba1b-c33a-4ab6-bc76-eb48a667d90c" d="M347.66,278.08l-.52.92a1.62,1.62,0,0,0-1.15-.41,1.4,1.4,0,0,0-1.1.46,1.89,1.89,0,0,0-.4,1.28q0,1.65,1.56,1.65a1.77,1.77,0,0,0,1.2-.45l.45,1a3.29,3.29,0,0,1-.93.42,4.35,4.35,0,0,1-.94.09,2.56,2.56,0,0,1-1.91-.71,2.64,2.64,0,0,1-.7-2,2.71,2.71,0,0,1,.76-2,2.87,2.87,0,0,1,2.09-.76A2.56,2.56,0,0,1,347.66,278.08Z"/><path class="b292ba1b-c33a-4ab6-bc76-eb48a667d90c" d="M352,282.9l-1.54-2.37-.58.62v1.75h-1.22v-7.18l1.22-.29v4.25l1.74-2h1.47l-1.77,2,2.13,3.25Z"/><path class="b292ba1b-c33a-4ab6-bc76-eb48a667d90c" d="M359.67,275.6v.68a6.68,6.68,0,0,0-1,3.9c0,2,.33,3.4,1,4.12v.82a5.07,5.07,0,0,1-1.76-2.07,6.75,6.75,0,0,1-.61-2.88,6,6,0,0,1,.69-2.71A4,4,0,0,1,359.67,275.6Z"/><path class="b292ba1b-c33a-4ab6-bc76-eb48a667d90c" d="M362.18,276.87v1.68h2.52v1.08h-2.52v3.27h-1.27v-7.15h4.71v1.12Z"/><path class="b292ba1b-c33a-4ab6-bc76-eb48a667d90c" d="M370.37,282.9l-.52-1.45H367.4l-.5,1.45h-1.41l2.85-7.25h.56l2.87,7.25Zm-1.75-5.06-.86,2.64h1.72Z"/><path class="b292ba1b-c33a-4ab6-bc76-eb48a667d90c" d="M372.19,282.5l.46-1.13a2.61,2.61,0,0,0,1.48.52c.75,0,1.12-.26,1.12-.78a1.15,1.15,0,0,0-.26-.7,3.38,3.38,0,0,0-1.09-.74,5.57,5.57,0,0,1-1.11-.68,1.81,1.81,0,0,1-.43-.63,2,2,0,0,1-.16-.81,1.76,1.76,0,0,1,.61-1.38,2.25,2.25,0,0,1,1.56-.55,2.9,2.9,0,0,1,1.82.47l-.39,1.09a2.35,2.35,0,0,0-1.41-.48,1,1,0,0,0-.68.23.82.82,0,0,0-.24.61c0,.41.45.83,1.36,1.28a4.54,4.54,0,0,1,1,.64,2,2,0,0,1,.48.69,2.26,2.26,0,0,1,.17.88,1.77,1.77,0,0,1-.69,1.43A2.84,2.84,0,0,1,374,283,3.21,3.21,0,0,1,372.19,282.5Z"/><path class="b292ba1b-c33a-4ab6-bc76-eb48a667d90c" d="M380.55,276.87v6h-1.27v-6H377v-1.12h5.92v1.12Z"/><path class="b292ba1b-c33a-4ab6-bc76-eb48a667d90c" d="M383.56,280.57v-1.14h2.58v1.14Z"/><path class="b292ba1b-c33a-4ab6-bc76-eb48a667d90c" d="M311.23,288.87v1.68h2.37v1.08h-2.37v2.14h3.25v1.13H310v-7.15h4.57v1.12Z"/><path class="b292ba1b-c33a-4ab6-bc76-eb48a667d90c" d="M319.69,294.9l-1.91-3-.81,0v3h-1.32v-7.15l.83,0c.48,0,.86,0,1.16,0,1.81,0,2.72.71,2.72,2.11a1.9,1.9,0,0,1-.38,1.16,2.05,2.05,0,0,1-.94.74l2.11,3.22Zm-2.72-6v2l.54,0a2.27,2.27,0,0,0,1.16-.23.93.93,0,0,0,.37-.87.77.77,0,0,0-.39-.74,2.81,2.81,0,0,0-1.25-.21Z"/><path class="b292ba1b-c33a-4ab6-bc76-eb48a667d90c" d="M324.36,292.27a2.78,2.78,0,0,1,.69-1.95,2.66,2.66,0,0,1,3.67,0,2.85,2.85,0,0,1,.66,2,2.82,2.82,0,0,1-.67,2,2.37,2.37,0,0,1-1.84.74,2.34,2.34,0,0,1-1.85-.75A2.85,2.85,0,0,1,324.36,292.27Zm1.27,0c0,1.15.41,1.73,1.24,1.73a1.07,1.07,0,0,0,.91-.45,2.12,2.12,0,0,0,.33-1.28c0-1.13-.41-1.7-1.24-1.7a1.06,1.06,0,0,0-.9.45A2,2,0,0,0,325.63,292.27Z"/><path class="b292ba1b-c33a-4ab6-bc76-eb48a667d90c" d="M333.72,294.9v-3a1.52,1.52,0,0,0-.25-1,1,1,0,0,0-.84-.31,1.28,1.28,0,0,0-.57.15,1.33,1.33,0,0,0-.48.38v3.78h-1.22v-5.23h.88l.22.49a1.85,1.85,0,0,1,1.47-.59,2,2,0,0,1,1.48.56,2.14,2.14,0,0,1,.54,1.56v3.21Z"/><path class="b292ba1b-c33a-4ab6-bc76-eb48a667d90c" d="M336.47,287.72l1.22-.29v5.88c0,.64.2,1,.58,1.15a1,1,0,0,1-1,.54c-.55,0-.83-.39-.83-1.16Z"/><path class="b292ba1b-c33a-4ab6-bc76-eb48a667d90c" d="M341.53,295.74a1.68,1.68,0,0,1-.84.87,3.25,3.25,0,0,1-1.5.34v-1.08c.94,0,1.41-.24,1.41-.71a4.33,4.33,0,0,0-.39-1.43l-1.63-4.06h1.26l1.43,3.61,1.28-3.61h1.27Z"/><path class="b292ba1b-c33a-4ab6-bc76-eb48a667d90c" d="M344.69,297.12v-.82c.64-.72,1-2.09,1-4.12a6.68,6.68,0,0,0-1-3.9v-.68a4,4,0,0,1,1.68,1.86,5.94,5.94,0,0,1,.68,2.71,6.75,6.75,0,0,1-.6,2.88A5.15,5.15,0,0,1,344.69,297.12Z"/><rect class="bf9342f8-6da3-46a4-93e9-3edc3a8103aa" x="754.01" y="166.91" width="133.49" height="144.42"/><text class="fdc64a58-f4e2-448c-b506-2d709cb03e31" transform="translate(776.71 181.26)">Check SAM.gov for <tspan x="-11.63" y="12">vendor regist</tspan><tspan class="e994ebc4-3781-42f2-ae17-5fdbc0fbf4e2" x="50.34" y="12">r</tspan><tspan x="54.3" y="12">ation and </tspan><tspan x="-8.19" y="24">eligibility and capture </tspan><tspan x="-6.04" y="36">time-stamped screen </tspan><tspan x="33.35" y="48">shot</tspan><tspan x="-2.9" y="61">If vehicle purchase, </tspan><tspan x="-4.5" y="73">check that vendor is </tspan><tspan x="-9.58" y="85">eligible</tspan><tspan class="a76164d9-857d-4780-b394-0e687c0e581b" x="24.62" y="85"> </tspan><tspan class="f513ebc7-8bb0-422b-a4af-78b69f108646" x="27.45" y="85">T</tspan><tspan class="e994ebc4-3781-42f2-ae17-5fdbc0fbf4e2" x="32.54" y="85">r</tspan><tspan x="36.5" y="85">ansit </tspan><tspan class="a693af62-ab4a-4325-8ebb-8aa2207c31e0" x="62" y="85">V</tspan><tspan x="67.67" y="85">ehicle </tspan><tspan x="-13.26" y="97">Manufacturer (TVM) and </tspan><tspan x="-8.57" y="109">capture time-stamped </tspan><tspan x="16.3" y="121">screen shot</tspan></text><rect class="bf9342f8-6da3-46a4-93e9-3edc3a8103aa" x="1227.18" y="155.37" width="117.46" height="61.32"/><text class="fdc64a58-f4e2-448c-b506-2d709cb03e31" transform="translate(1242.44 176.7)">Order equipment, <tspan x="-3.45" y="12">vehicle, or supplies </tspan><tspan x="-7.98" y="24">from selected vendor</tspan></text><rect class="bf9342f8-6da3-46a4-93e9-3edc3a8103aa" x="1564.45" y="284.4" width="93.71" height="42.48"/><text class="fdc64a58-f4e2-448c-b506-2d709cb03e31" transform="translate(1579.31 309.68)">Notify vendor</text><rect class="bf9342f8-6da3-46a4-93e9-3edc3a8103aa" x="2023.98" y="371.72" width="93.71" height="42.48"/><text class="fdc64a58-f4e2-448c-b506-2d709cb03e31" transform="translate(2046.87 396.99)">Re<tspan class="b69870fd-7e79-49bc-88b0-f7dec1c2d922" x="11.86" y="0">v</tspan><tspan x="17.44" y="0">iew S</tspan><tspan class="a693af62-ab4a-4325-8ebb-8aa2207c31e0" x="42.13" y="0">A</tspan></text><rect class="bf9342f8-6da3-46a4-93e9-3edc3a8103aa" x="1876.72" y="371.72" width="93.71" height="42.48"/><text class="fdc64a58-f4e2-448c-b506-2d709cb03e31" transform="translate(1898.83 396.99)">Re<tspan class="b69870fd-7e79-49bc-88b0-f7dec1c2d922" x="11.86" y="0">v</tspan><tspan x="17.44" y="0">iew N</tspan><tspan class="a693af62-ab4a-4325-8ebb-8aa2207c31e0" x="43.7" y="0">A</tspan></text><rect class="bf9342f8-6da3-46a4-93e9-3edc3a8103aa" x="1391.38" y="155.37" width="117.46" height="61.32"/><text class="fdc64a58-f4e2-448c-b506-2d709cb03e31" transform="translate(1401.98 176.7)">Receive and inspect <tspan x="-0.49" y="12">equipment, vehicle, </tspan><tspan x="21.42" y="24">or supplies</tspan></text><rect class="bf9342f8-6da3-46a4-93e9-3edc3a8103aa" x="1740.78" y="157.35" width="88.09" height="57.37"/><text class="fdc64a58-f4e2-448c-b506-2d709cb03e31" transform="translate(1751.84 181.73)">Conduct post-<tspan x="-0.1" y="13">delivery audit</tspan></text><polygon class="ee598d41-34f1-4ccf-9869-ceb1d2337ea9" points="2171.96 483.66 18.38 483.66 18.38 68.91 70.42 68.91 2171.96 68.91 2171.96 483.66"/><line class="ee598d41-34f1-4ccf-9869-ceb1d2337ea9" x1="64.85" y1="483.28" x2="64.85" y2="68.95"/><rect class="b158fb9e-ba57-4f42-a61e-837a06216838" x="684.17" y="384.42" width="53.45" height="17.57" transform="translate(0.58 -1.05) rotate(0.08)"/><text class="a6a1f7fe-8c98-41a0-b670-65ec1c813cba" transform="matrix(1, 0, 0, 1, 689.34, 395.92)">APPROVE</text><text class="fdc64a58-f4e2-448c-b506-2d709cb03e31" transform="translate(1233.75 377.85)">If vehicle purchase, <tspan x="-15.17" y="12">prepare a</tspan><tspan class="a76164d9-857d-4780-b394-0e687c0e581b" x="30.19" y="12"> </tspan><tspan x="33.02" y="12">TVM Survey and </tspan><tspan x="-4.95" y="24">attach the screenshot </tspan><tspan x="20.37" y="36">(COTRAMS)</tspan></text><rect class="b158fb9e-ba57-4f42-a61e-837a06216838" x="1141.52" y="384.42" width="53.45" height="17.57" transform="translate(0.58 -1.73) rotate(0.08)"/><text class="a6a1f7fe-8c98-41a0-b670-65ec1c813cba" transform="matrix(1, 0, 0, 1, 1146.69, 395.92)">APPROVE</text><rect class="be1a573c-9593-4442-b351-533c4df7a964" x="474.94" y="355.93" width="47.91" height="17.57" transform="translate(0.54 -0.74) rotate(0.08)"/><text class="a6a1f7fe-8c98-41a0-b670-65ec1c813cba" transform="matrix(1, 0, 0, 1, 481.46, 367.43)">REJEC<tspan class="a76164d9-857d-4780-b394-0e687c0e581b" x="28.93" y="0">T</tspan></text><circle class="aca80a28-019b-41ab-babb-18cdc12ff1fd" cx="2070.83" cy="105.9" r="22.5"/><text class="ae49a8eb-69ce-4f95-9027-fbb1b3059201" transform="translate(2058.52 111.84)">4-2</text><line class="bf9342f8-6da3-46a4-93e9-3edc3a8103aa" x1="2070.83" y1="156.53" x2="2070.83" y2="137.6"/><polygon class="b292ba1b-c33a-4ab6-bc76-eb48a667d90c" points="2076.81 139.35 2070.83 128.99 2064.85 139.35 2076.81 139.35"/><rect class="be1a573c-9593-4442-b351-533c4df7a964" x="1595.3" y="241.25" width="31.28" height="17.57"/><text class="a6a1f7fe-8c98-41a0-b670-65ec1c813cba" transform="translate(1604.09 252.78)">NO</text><text class="fdc64a58-f4e2-448c-b506-2d709cb03e31" transform="matrix(1, 0, 0, 1, 596.9, 395.8)">Approve/Reject <tspan x="27.55" y="12">PCR</tspan></text><polygon class="bf9342f8-6da3-46a4-93e9-3edc3a8103aa" points="589.95 393.2 634.08 358.98 678.53 392.79 634.4 427.03 589.95 393.2"/><rect class="be1a573c-9593-4442-b351-533c4df7a964" x="959.22" y="355.93" width="47.91" height="17.57" transform="translate(0.54 -1.46) rotate(0.08)"/><text class="a6a1f7fe-8c98-41a0-b670-65ec1c813cba" transform="matrix(1, 0, 0, 1, 965.74, 367.43)">REJEC<tspan class="a76164d9-857d-4780-b394-0e687c0e581b" x="28.93" y="0">T</tspan></text><text class="fdc64a58-f4e2-448c-b506-2d709cb03e31" transform="matrix(1, 0, 0, 1, 1053.34, 395.8)">Approve/Reject <tspan x="27.55" y="12">PCR</tspan></text><polygon class="bf9342f8-6da3-46a4-93e9-3edc3a8103aa" points="1046.38 393.2 1090.52 358.98 1134.97 392.79 1090.84 427.03 1046.38 393.2"/><text class="fdc64a58-f4e2-448c-b506-2d709cb03e31" transform="matrix(1, 0, 0, 1, 1583.9, 173.92)">Acceptable?<tspan class="b6ea2df3-2032-45e3-a5b6-19bde8dc9eec" x="12.41" y="13">Y</tspan><tspan x="17.62" y="13">es/No</tspan><tspan x="-5.08" y="26">(w/in 15 days)</tspan></text><polygon class="bf9342f8-6da3-46a4-93e9-3edc3a8103aa" points="1553.53 185.49 1610.48 141.31 1667.85 184.95 1610.89 229.14 1553.53 185.49"/></g></svg>