<svg xmlns="http://www.w3.org/2000/svg" viewBox="0 0 1179.85 914.7"><defs><style>.a0476db3-3e7f-482a-b16e-f6b2fea50304,.aa3239cb-3ac1-4da2-86a1-f97203fc2d56,.e97ff897-603d-436d-854c-57f4ff9c0729,.fc5d3a7a-a10a-4253-86ce-2134df685210,.ffb3ca5a-9b80-4ee2-869d-45473ae751c4{fill:none;}.a0476db3-3e7f-482a-b16e-f6b2fea50304,.aa3239cb-3ac1-4da2-86a1-f97203fc2d56,.bb71b5e2-94f3-43a0-a978-bfd21846eddb,.e97ff897-603d-436d-854c-57f4ff9c0729,.fc5d3a7a-a10a-4253-86ce-2134df685210,.ffb3ca5a-9b80-4ee2-869d-45473ae751c4{stroke:#646464;}.aa3239cb-3ac1-4da2-86a1-f97203fc2d56{stroke-linejoin:round;}.aa3239cb-3ac1-4da2-86a1-f97203fc2d56,.bb71b5e2-94f3-43a0-a978-bfd21846eddb,.fc5d3a7a-a10a-4253-86ce-2134df685210{stroke-width:2px;}.a0476db3-3e7f-482a-b16e-f6b2fea50304,.bb71b5e2-94f3-43a0-a978-bfd21846eddb,.e97ff897-603d-436d-854c-57f4ff9c0729,.fc5d3a7a-a10a-4253-86ce-2134df685210,.ffb3ca5a-9b80-4ee2-869d-45473ae751c4{stroke-miterlimit:10;}.a0476db3-3e7f-482a-b16e-f6b2fea50304,.ffb3ca5a-9b80-4ee2-869d-45473ae751c4{stroke-width:0.5px;}.a0476db3-3e7f-482a-b16e-f6b2fea50304{stroke-dasharray:5 3;}.a3ad461d-acc5-4a8f-81fc-e8b6b0ccf72b,.ba2c35c5-2627-4806-a0aa-bba5b495b344,.e2adcb63-92a1-403a-9a8a-2d74f32d67f0,.ecccd712-17e4-44d2-9c60-4b7d77fb4e9f{fill:#646464;}.b1139fba-3247-4847-92e9-255adbf1ea60,.bb71b5e2-94f3-43a0-a978-bfd21846eddb,.f2c6497b-e208-4f37-81c6-5cdccc4141b3{fill:#fff;}.ecccd712-17e4-44d2-9c60-4b7d77fb4e9f,.f2c6497b-e208-4f37-81c6-5cdccc4141b3{font-size:10px;}.b1139fba-3247-4847-92e9-255adbf1ea60,.ba2c35c5-2627-4806-a0aa-bba5b495b344,.e2adcb63-92a1-403a-9a8a-2d74f32d67f0,.ecccd712-17e4-44d2-9c60-4b7d77fb4e9f,.f2c6497b-e208-4f37-81c6-5cdccc4141b3{font-family:TrebuchetMS-Bold, Trebuchet MS;font-weight:700;}.aeb9dc13-191d-4d58-8560-3ddbdcf206bf{fill:#009add;}.b1139fba-3247-4847-92e9-255adbf1ea60{font-size:16px;}.ba2c35c5-2627-4806-a0aa-bba5b495b344{font-size:24px;}.a9a7f64a-986a-4920-b375-ecf05244a242{letter-spacing:-0.09em;}.fb167e77-61f4-4f49-bf42-a86ec2cb5017{letter-spacing:-0.06em;}.bfc3efaf-b077-4f5d-a5bf-6f9e276fb993{letter-spacing:-0.02em;}.e2adcb63-92a1-403a-9a8a-2d74f32d67f0{font-size:11px;}.a6c3cff2-1843-4ea0-98b7-ab08dc2da658{letter-spacing:-0.1em;}.bb935b00-aa40-467e-beea-c9afb8c176b8{letter-spacing:-0.03em;}.ee96da83-d037-4c2f-8047-ee26155838f3{letter-spacing:-0.11em;}.a97c74c7-2f1d-485d-9358-c5a17a887e59{letter-spacing:0.03em;}.a99acac7-def4-49a6-bfef-1ca4766b9bd5{fill:#d23138;}.bbf3dc78-81b5-4e30-85bc-52067037df52{fill:#3eaf49;}</style></defs><title>CDOT_diagrams_CH3</title><g id="bbdaa413-dad2-41b6-8157-56a361b8a99c" data-name="shapes"><path class="aa3239cb-3ac1-4da2-86a1-f97203fc2d56" d="M1040,259.65s-9.24,12.1-9.09,24.15,9,23.89,9,23.89"/><path class="fc5d3a7a-a10a-4253-86ce-2134df685210" d="M949.74,307.78s-8.75-11.91-8.75-24,8.75-24.69,8.75-24.69l90.28.43s8.74,11.91,8.74,24-8.74,24.69-8.74,24.69Z"/><line class="ffb3ca5a-9b80-4ee2-869d-45473ae751c4" x1="18.38" y1="349.89" x2="20.88" y2="349.89"/><line class="a0476db3-3e7f-482a-b16e-f6b2fea50304" x1="23.88" y1="349.89" x2="1159.33" y2="349.89"/><line class="ffb3ca5a-9b80-4ee2-869d-45473ae751c4" x1="1160.83" y1="349.89" x2="1163.33" y2="349.89"/><line class="ffb3ca5a-9b80-4ee2-869d-45473ae751c4" x1="18.38" y1="213.71" x2="20.88" y2="213.71"/><line class="a0476db3-3e7f-482a-b16e-f6b2fea50304" x1="23.88" y1="213.71" x2="1159.33" y2="213.71"/><line class="ffb3ca5a-9b80-4ee2-869d-45473ae751c4" x1="1160.83" y1="213.71" x2="1163.33" y2="213.71"/><line class="ffb3ca5a-9b80-4ee2-869d-45473ae751c4" x1="18.38" y1="483.79" x2="20.88" y2="483.79"/><line class="a0476db3-3e7f-482a-b16e-f6b2fea50304" x1="23.88" y1="483.79" x2="1159.33" y2="483.79"/><line class="ffb3ca5a-9b80-4ee2-869d-45473ae751c4" x1="1160.83" y1="483.79" x2="1163.33" y2="483.79"/><line class="ffb3ca5a-9b80-4ee2-869d-45473ae751c4" x1="18.38" y1="615.53" x2="20.88" y2="615.53"/><line class="a0476db3-3e7f-482a-b16e-f6b2fea50304" x1="23.88" y1="615.53" x2="1159.33" y2="615.53"/><line class="ffb3ca5a-9b80-4ee2-869d-45473ae751c4" x1="1160.83" y1="615.53" x2="1163.33" y2="615.53"/><line class="ffb3ca5a-9b80-4ee2-869d-45473ae751c4" x1="18.38" y1="768.52" x2="20.88" y2="768.52"/><line class="a0476db3-3e7f-482a-b16e-f6b2fea50304" x1="23.88" y1="768.52" x2="1159.33" y2="768.52"/><line class="ffb3ca5a-9b80-4ee2-869d-45473ae751c4" x1="1160.83" y1="768.52" x2="1163.33" y2="768.52"/><line class="fc5d3a7a-a10a-4253-86ce-2134df685210" x1="220.47" y1="178.56" x2="220.47" y2="309.55"/><polygon class="a3ad461d-acc5-4a8f-81fc-e8b6b0ccf72b" points="214.49 307.8 220.47 318.16 226.46 307.8 214.49 307.8"/></g><g id="a06e14e4-c669-4292-aef2-fc711d6c330b" data-name="text"><rect class="bb71b5e2-94f3-43a0-a978-bfd21846eddb" x="142.28" y="318.16" width="430.07" height="420.42"/><text class="ecccd712-17e4-44d2-9c60-4b7d77fb4e9f" transform="translate(955.08 280.68)">Adjust budget <tspan x="6.82" y="12">(COTRAMS)</tspan></text><line class="fc5d3a7a-a10a-4253-86ce-2134df685210" x1="1041.08" y1="283.16" x2="1086.23" y2="283.16"/><polygon class="a3ad461d-acc5-4a8f-81fc-e8b6b0ccf72b" points="1084.48 289.14 1094.84 283.16 1084.48 277.17 1084.48 289.14"/><line class="fc5d3a7a-a10a-4253-86ce-2134df685210" x1="883.8" y1="283.16" x2="928.95" y2="283.16"/><polygon class="a3ad461d-acc5-4a8f-81fc-e8b6b0ccf72b" points="927.2 289.14 937.56 283.16 927.2 277.17 927.2 289.14"/><circle class="aeb9dc13-191d-4d58-8560-3ddbdcf206bf" cx="106.45" cy="145.15" r="22.5"/><text class="b1139fba-3247-4847-92e9-255adbf1ea60" transform="translate(94.13 151)">4-5</text><circle class="aeb9dc13-191d-4d58-8560-3ddbdcf206bf" cx="1120.33" cy="282.99" r="22.5"/><text class="b1139fba-3247-4847-92e9-255adbf1ea60" transform="translate(1108.02 288.83)">3-9</text><text class="ba2c35c5-2627-4806-a0aa-bba5b495b344" transform="translate(18.5 37.17)">3-16 F<tspan class="a9a7f64a-986a-4920-b375-ecf05244a242" x="72.23" y="0">T</tspan><tspan class="fb167e77-61f4-4f49-bf42-a86ec2cb5017" x="84.64" y="0">A </tspan><tspan class="bfc3efaf-b077-4f5d-a5bf-6f9e276fb993" x="104.43" y="0">A</tspan><tspan x="119.19" y="0">ward</tspan><tspan class="fb167e77-61f4-4f49-bf42-a86ec2cb5017" x="174.97" y="0"> </tspan><tspan x="180.88" y="0">Amendment for Capital Project (Change of Scope, Budget, Schedule)</tspan></text><text class="e2adcb63-92a1-403a-9a8a-2d74f32d67f0" transform="translate(39.06 471.07) rotate(-90)"><tspan xml:space="preserve">Project  Coordination</tspan><tspan x="21.38" y="13.2">Unit Manager</tspan></text><text class="e2adcb63-92a1-403a-9a8a-2d74f32d67f0" transform="translate(39.06 588.07) rotate(-90)"><tspan class="a6c3cff2-1843-4ea0-98b7-ab08dc2da658">T</tspan><tspan class="bb935b00-aa40-467e-beea-c9afb8c176b8" x="5.6" y="0">r</tspan><tspan x="9.96" y="0">ansportation </tspan><tspan x="7.17" y="13.2">Commission</tspan></text><text class="e2adcb63-92a1-403a-9a8a-2d74f32d67f0" transform="translate(39.06 838.49) rotate(-90)">F<tspan class="a9a7f64a-986a-4920-b375-ecf05244a242" x="6.42" y="0">T</tspan><tspan class="fb167e77-61f4-4f49-bf42-a86ec2cb5017" x="12.11" y="0">A</tspan></text><text class="e2adcb63-92a1-403a-9a8a-2d74f32d67f0" transform="translate(32.54 756.72) rotate(-90)">Executive Directo<tspan class="ee96da83-d037-4c2f-8047-ee26155838f3" x="91.45" y="0">r</tspan><tspan x="94.91" y="0">, Chief </tspan><tspan x="0.44" y="13.2">Enginee</tspan><tspan class="ee96da83-d037-4c2f-8047-ee26155838f3" x="41.13" y="13.2">r</tspan><tspan x="44.59" y="13.2">, Chief Financial </tspan><tspan x="46.69" y="26.4">Officer</tspan></text><text class="e2adcb63-92a1-403a-9a8a-2d74f32d67f0" transform="translate(39.06 172.27) rotate(-90)">DTR Project <tspan x="0.19" y="13.2">Coordinator</tspan></text><text class="e2adcb63-92a1-403a-9a8a-2d74f32d67f0" transform="translate(44.66 324.15) rotate(-90)">DTR Prog<tspan class="bb935b00-aa40-467e-beea-c9afb8c176b8" x="46.73" y="0">r</tspan><tspan x="51.09" y="0">amming </tspan><tspan x="34.78" y="13.2">Unit</tspan></text><line class="e97ff897-603d-436d-854c-57f4ff9c0729" x1="64.85" y1="892.52" x2="64.85" y2="69.02"/><polygon class="e97ff897-603d-436d-854c-57f4ff9c0729" points="1163.96 892.86 18.39 892.86 18.39 68.89 46.08 68.89 1163.96 68.89 1163.96 892.86"/><text class="ecccd712-17e4-44d2-9c60-4b7d77fb4e9f" transform="translate(801.05 836.86)">Requirements <tspan x="21.22" y="12">met?</tspan></text><polygon class="fc5d3a7a-a10a-4253-86ce-2134df685210" points="794.39 832.98 833.96 802.59 873.52 832.98 833.96 863.38 794.39 832.98"/><text class="ecccd712-17e4-44d2-9c60-4b7d77fb4e9f" transform="translate(184.3 433.74)"><tspan class="fb167e77-61f4-4f49-bf42-a86ec2cb5017"> </tspan><tspan x="2.46" y="0">Approve all:</tspan></text><text class="ecccd712-17e4-44d2-9c60-4b7d77fb4e9f" transform="translate(155.38 338.24)">Approval</text><polygon class="fc5d3a7a-a10a-4253-86ce-2134df685210" points="174.74 429.49 214.31 399.11 253.87 429.49 214.31 459.89 174.74 429.49"/><text class="ecccd712-17e4-44d2-9c60-4b7d77fb4e9f" transform="translate(335.4 421.03)">If funding change is 10% or less, or <tspan x="-1.51" y="12">$250,000 or less above the original </tspan><tspan x="28.08" y="24">amount, final approval</tspan></text><path class="fc5d3a7a-a10a-4253-86ce-2134df685210" d="M522.3,403.75c-11.9,16.59-11.9,36.5,0,53.1m-195.52-53.1H522.3c11.9,16.59,11.9,36.5,0,53.1H326.78C314.88,440.25,314.88,420.34,326.78,403.75Z"/><line class="fc5d3a7a-a10a-4253-86ce-2134df685210" x1="128.96" y1="145.37" x2="169.35" y2="145.37"/><polygon class="a3ad461d-acc5-4a8f-81fc-e8b6b0ccf72b" points="167.6 151.36 177.97 145.37 167.6 139.39 167.6 151.36"/><rect class="fc5d3a7a-a10a-4253-86ce-2134df685210" x="179.63" y="113.99" width="87.63" height="63.91"/><text class="ecccd712-17e4-44d2-9c60-4b7d77fb4e9f" transform="translate(205.15 136.06)">Approve <tspan x="2.32" y="12">Project </tspan><tspan x="-8.83" y="24">Amendment</tspan></text><rect class="fc5d3a7a-a10a-4253-86ce-2134df685210" x="640.95" y="249.38" width="87.63" height="63.91"/><text class="ecccd712-17e4-44d2-9c60-4b7d77fb4e9f" transform="translate(669.75 271.45)">Submit <tspan x="-5.68" y="12">approved </tspan><tspan x="-17.92" y="24">request to F</tspan><tspan class="a9a7f64a-986a-4920-b375-ecf05244a242" x="39.35" y="24">T</tspan><tspan class="fb167e77-61f4-4f49-bf42-a86ec2cb5017" x="44.52" y="24">A</tspan></text><rect class="fc5d3a7a-a10a-4253-86ce-2134df685210" x="640.95" y="800.64" width="87.63" height="63.91"/><text class="ecccd712-17e4-44d2-9c60-4b7d77fb4e9f" transform="translate(668.93 822.71)">Re<tspan class="a97c74c7-2f1d-485d-9358-c5a17a887e59" x="11.86" y="0">v</tspan><tspan x="17.44" y="0">iew </tspan><tspan x="-10.79" y="12">amendment </tspan><tspan x="-0.89" y="24">request</tspan></text><rect class="fc5d3a7a-a10a-4253-86ce-2134df685210" x="1049.58" y="800.64" width="87.63" height="63.91"/><text class="ecccd712-17e4-44d2-9c60-4b7d77fb4e9f" transform="translate(1076.97 828.46)">Send to <tspan x="-11.68" y="12">subrecipient</tspan></text><line class="fc5d3a7a-a10a-4253-86ce-2134df685210" x1="253.87" y1="429.49" x2="317.9" y2="429.49"/><rect class="bb71b5e2-94f3-43a0-a978-bfd21846eddb" x="271.3" y="421.3" width="28.74" height="15.91"/><text class="ecccd712-17e4-44d2-9c60-4b7d77fb4e9f" transform="translate(276.61 432.41)">AND</text><text class="ecccd712-17e4-44d2-9c60-4b7d77fb4e9f" transform="translate(191.42 552.56)"><tspan class="fb167e77-61f4-4f49-bf42-a86ec2cb5017"> </tspan><tspan x="2.46" y="0">Approve:</tspan></text><polygon class="fc5d3a7a-a10a-4253-86ce-2134df685210" points="174.74 548.32 214.31 517.93 253.87 548.32 214.31 578.71 174.74 548.32"/><text class="ecccd712-17e4-44d2-9c60-4b7d77fb4e9f" transform="translate(332.68 539.85)"><tspan xml:space="preserve"> If funding change is more than 15%, </tspan><tspan x="6.1" y="12">or more than $500,000 above the </tspan><tspan x="48.64" y="24">original amount</tspan></text><path class="fc5d3a7a-a10a-4253-86ce-2134df685210" d="M522.3,522.57c-11.9,16.59-11.9,36.51,0,53.1m-195.52-53.1H522.3c11.9,16.59,11.9,36.51,0,53.1H326.78C314.88,559.08,314.88,539.16,326.78,522.57Z"/><line class="fc5d3a7a-a10a-4253-86ce-2134df685210" x1="253.87" y1="548.31" x2="317.9" y2="548.31"/><text class="ecccd712-17e4-44d2-9c60-4b7d77fb4e9f" transform="translate(191.42 673.73)"><tspan class="fb167e77-61f4-4f49-bf42-a86ec2cb5017"> </tspan><tspan x="2.46" y="0">Approve:</tspan></text><polygon class="fc5d3a7a-a10a-4253-86ce-2134df685210" points="174.74 669.48 214.31 639.09 253.87 669.48 214.31 699.88 174.74 669.48"/><text class="ecccd712-17e4-44d2-9c60-4b7d77fb4e9f" transform="translate(339.74 661.01)">If funding change is 10 to 15%, or <tspan x="0.21" y="12">between $250,000 and $500,000 </tspan><tspan x="16.84" y="24">above the original amount</tspan></text><path class="fc5d3a7a-a10a-4253-86ce-2134df685210" d="M522.3,643.74c-11.9,16.59-11.9,36.5,0,53.1m-195.52-53.1H522.3c11.9,16.59,11.9,36.5,0,53.1H326.78C314.88,680.24,314.88,660.33,326.78,643.74Z"/><line class="fc5d3a7a-a10a-4253-86ce-2134df685210" x1="253.87" y1="669.48" x2="317.9" y2="669.48"/><line class="fc5d3a7a-a10a-4253-86ce-2134df685210" x1="214.31" y1="459.89" x2="214.31" y2="506.04"/><polygon class="a3ad461d-acc5-4a8f-81fc-e8b6b0ccf72b" points="208.32 504.29 214.31 514.65 220.29 504.29 208.32 504.29"/><line class="fc5d3a7a-a10a-4253-86ce-2134df685210" x1="728.72" y1="833.41" x2="783" y2="833.41"/><polygon class="a3ad461d-acc5-4a8f-81fc-e8b6b0ccf72b" points="781.25 839.39 791.61 833.4 781.25 827.42 781.25 839.39"/><line class="fc5d3a7a-a10a-4253-86ce-2134df685210" x1="874.35" y1="833.41" x2="1037.09" y2="833.41"/><polygon class="a3ad461d-acc5-4a8f-81fc-e8b6b0ccf72b" points="1035.34 839.39 1045.7 833.4 1035.34 827.42 1035.34 839.39"/><line class="fc5d3a7a-a10a-4253-86ce-2134df685210" x1="214.31" y1="579.4" x2="214.31" y2="626.75"/><polygon class="a3ad461d-acc5-4a8f-81fc-e8b6b0ccf72b" points="208.32 625 214.31 635.36 220.29 625 208.32 625"/><line class="fc5d3a7a-a10a-4253-86ce-2134df685210" x1="684.42" y1="314.9" x2="684.42" y2="788.16"/><polygon class="a3ad461d-acc5-4a8f-81fc-e8b6b0ccf72b" points="678.44 786.41 684.42 796.77 690.41 786.41 678.44 786.41"/><line class="fc5d3a7a-a10a-4253-86ce-2134df685210" x1="833.94" y1="328.52" x2="833.94" y2="803.8"/><polygon class="a3ad461d-acc5-4a8f-81fc-e8b6b0ccf72b" points="827.95 330.27 833.94 319.91 839.92 330.27 827.95 330.27"/><polyline class="fc5d3a7a-a10a-4253-86ce-2134df685210" points="500.73 403.59 500.73 382.34 547.64 382.34 547.64 720.34 500.73 720.34 500.73 696.75"/><line class="fc5d3a7a-a10a-4253-86ce-2134df685210" x1="531.08" y1="430.49" x2="547.64" y2="413.94"/><line class="fc5d3a7a-a10a-4253-86ce-2134df685210" x1="531.08" y1="546.38" x2="547.29" y2="530.17"/><line class="fc5d3a7a-a10a-4253-86ce-2134df685210" x1="531.08" y1="669.85" x2="547.29" y2="653.64"/><polyline class="fc5d3a7a-a10a-4253-86ce-2134df685210" points="572.33 537.09 603.6 537.09 603.6 279.07 631.48 279.07"/><polygon class="a3ad461d-acc5-4a8f-81fc-e8b6b0ccf72b" points="629.73 285.05 640.09 279.07 629.73 273.08 629.73 285.05"/><path class="fc5d3a7a-a10a-4253-86ce-2134df685210" d="M784.89,254.33V309.4s2.56,7.1,49.54,7.41,48.36-7.88,48.36-7.88V254.49s0-7.26-50.91-7.26C783.52,247.23,784.89,254.33,784.89,254.33Z"/><path class="fc5d3a7a-a10a-4253-86ce-2134df685210" d="M784.91,263.62s-2.16,5.05,22.61,7.43c22.8,2.2,43.77,2.84,59-.51,16.9-3.71,16.31-6.75,16.31-6.75"/><text class="ecccd712-17e4-44d2-9c60-4b7d77fb4e9f" transform="translate(801.27 290.24)">Adjust budget<tspan x="20.3" y="13">(SAP)</tspan></text><path class="fc5d3a7a-a10a-4253-86ce-2134df685210" d="M784.91,259.56s-2.16,5.05,22.61,7.44c22.8,2.19,43.77,2.83,59-.51,16.9-3.72,16.31-6.76,16.31-6.76"/><path class="fc5d3a7a-a10a-4253-86ce-2134df685210" d="M785.83,255s-2.16,5.05,22.61,7.43c22.8,2.2,43.77,2.84,59-.5,16.91-3.72,16.32-6.76,16.32-6.76"/><rect class="a99acac7-def4-49a6-bfef-1ca4766b9bd5" x="924.97" y="825.93" width="46.38" height="17.57"/><text class="f2c6497b-e208-4f37-81c6-5cdccc4141b3" transform="translate(931.06 837.45)">REJEC<tspan class="bfc3efaf-b077-4f5d-a5bf-6f9e276fb993" x="28.93" y="0">T</tspan></text><rect class="bbf3dc78-81b5-4e30-85bc-52067037df52" x="805.34" y="543.82" width="57.18" height="17.57"/><text class="f2c6497b-e208-4f37-81c6-5cdccc4141b3" transform="translate(816.49 556.35)">ACCEP<tspan class="bfc3efaf-b077-4f5d-a5bf-6f9e276fb993" x="30.13" y="0">T</tspan></text></g></svg>