<svg xmlns="http://www.w3.org/2000/svg" viewBox="0 0 874.55 676.45"><defs><style>.a0668153-f5e1-4d5a-89ee-823a99222f56,.b3c3b8d8-d016-479c-b107-336e9a4f2195,.ba3345c9-60f5-41f7-85cc-564a489ce75c,.bd8a0234-6d5d-4416-99a7-33df12fc541f{fill:none;}.a0668153-f5e1-4d5a-89ee-823a99222f56,.b3c3b8d8-d016-479c-b107-336e9a4f2195,.ba3345c9-60f5-41f7-85cc-564a489ce75c,.bd8a0234-6d5d-4416-99a7-33df12fc541f,.f4228f26-b578-49c2-a340-7b933b458b1f{stroke:#646464;stroke-miterlimit:10;}.b3c3b8d8-d016-479c-b107-336e9a4f2195,.bd8a0234-6d5d-4416-99a7-33df12fc541f{stroke-width:0.5px;}.b3c3b8d8-d016-479c-b107-336e9a4f2195{stroke-dasharray:4.99 3;}.ba3345c9-60f5-41f7-85cc-564a489ce75c,.f4228f26-b578-49c2-a340-7b933b458b1f{stroke-width:2px;}.a1d64410-bb5a-4c9a-a2a0-c52ae1f74fe8,.b721ba6a-1841-4e8f-ba2b-c40f55739050,.ba188e44-0499-4f30-97c0-4d29191b344e,.bcdca940-2fdb-4bd3-ba0f-9101e135e678,.f9847743-a670-43c0-8fe0-67ab3ab35b6c{fill:#646464;}.bfaa725d-d54a-4920-974d-a131eec232cb,.f4228f26-b578-49c2-a340-7b933b458b1f{fill:#fff;}.a1d64410-bb5a-4c9a-a2a0-c52ae1f74fe8{font-size:24px;}.a1d64410-bb5a-4c9a-a2a0-c52ae1f74fe8,.b721ba6a-1841-4e8f-ba2b-c40f55739050,.ba188e44-0499-4f30-97c0-4d29191b344e,.bcdca940-2fdb-4bd3-ba0f-9101e135e678,.bfaa725d-d54a-4920-974d-a131eec232cb{font-family:TrebuchetMS-Bold, Trebuchet MS;font-weight:700;}.b6c5009e-c4c2-47c6-ba6d-ba8c5abc0a9d{letter-spacing:-0.06em;}.bcdca940-2fdb-4bd3-ba0f-9101e135e678{font-size:11px;}.a20d3e72-b35c-4c50-ab64-2fe1eb4ba8ee{letter-spacing:-0.03em;}.b721ba6a-1841-4e8f-ba2b-c40f55739050,.bfaa725d-d54a-4920-974d-a131eec232cb{font-size:10px;}.b9552326-a4a5-4b08-a4c7-d2375ea4b007{letter-spacing:0.03em;}.b4e34860-8009-4850-841f-ed027301060b{letter-spacing:-0.02em;}.ba188e44-0499-4f30-97c0-4d29191b344e{font-size:14px;}.b229de67-6ce3-4185-8d81-92c54641e58a{fill:#d23138;}.fb0ab692-fca0-4a07-b0ac-df00115da42a{fill:#3eaf49;}</style></defs><title>CDOT_diagrams_CH4</title><g id="a4f43520-12b8-4bba-af82-7883d9bda7ca" data-name="shapes"><line class="bd8a0234-6d5d-4416-99a7-33df12fc541f" x1="18.38" y1="168.73" x2="20.88" y2="168.73"/><line class="b3c3b8d8-d016-479c-b107-336e9a4f2195" x1="23.87" y1="168.73" x2="853.03" y2="168.73"/><line class="bd8a0234-6d5d-4416-99a7-33df12fc541f" x1="854.53" y1="168.73" x2="857.03" y2="168.73"/><line class="bd8a0234-6d5d-4416-99a7-33df12fc541f" x1="18.38" y1="392.35" x2="20.88" y2="392.35"/><line class="b3c3b8d8-d016-479c-b107-336e9a4f2195" x1="23.87" y1="392.35" x2="853.03" y2="392.35"/><line class="bd8a0234-6d5d-4416-99a7-33df12fc541f" x1="854.53" y1="392.35" x2="857.03" y2="392.35"/><line class="bd8a0234-6d5d-4416-99a7-33df12fc541f" x1="18.38" y1="514.46" x2="20.88" y2="514.46"/><line class="b3c3b8d8-d016-479c-b107-336e9a4f2195" x1="23.87" y1="514.46" x2="853.03" y2="514.46"/><line class="bd8a0234-6d5d-4416-99a7-33df12fc541f" x1="854.53" y1="514.46" x2="857.03" y2="514.46"/><line class="ba3345c9-60f5-41f7-85cc-564a489ce75c" x1="173.84" y1="149.77" x2="173.84" y2="195.56"/><polygon class="f9847743-a670-43c0-8fe0-67ab3ab35b6c" points="167.86 193.81 173.84 204.17 179.82 193.81 167.86 193.81"/><line class="ba3345c9-60f5-41f7-85cc-564a489ce75c" x1="402.03" y1="277.27" x2="402.03" y2="311.89"/><polygon class="f9847743-a670-43c0-8fe0-67ab3ab35b6c" points="396.05 279.02 402.03 268.66 408.02 279.02 396.05 279.02"/><line class="ba3345c9-60f5-41f7-85cc-564a489ce75c" x1="513.38" y1="347.51" x2="453.77" y2="347.51"/><polygon class="f9847743-a670-43c0-8fe0-67ab3ab35b6c" points="511.63 341.52 522 347.51 511.63 353.49 511.63 341.52"/><polyline class="ba3345c9-60f5-41f7-85cc-564a489ce75c" points="268.39 456.87 307.27 456.87 307.27 348.06 340 348.06"/><polygon class="f9847743-a670-43c0-8fe0-67ab3ab35b6c" points="338.25 354.04 348.62 348.06 338.25 342.07 338.25 354.04"/><polyline class="ba3345c9-60f5-41f7-85cc-564a489ce75c" points="402.64 208.72 402.64 122.86 256.48 122.86"/><polygon class="f9847743-a670-43c0-8fe0-67ab3ab35b6c" points="258.23 116.88 247.87 122.86 258.23 128.84 258.23 116.88"/><rect class="f4228f26-b578-49c2-a340-7b933b458b1f" x="85.27" y="206.78" width="182.34" height="409.81"/></g><g id="ecd8c680-76b8-44c9-802d-c4d56bb61c0d" data-name="text"><text class="a1d64410-bb5a-4c9a-a2a0-c52ae1f74fe8" transform="translate(18.5 35.68)">4-5<tspan class="b6c5009e-c4c2-47c6-ba6d-ba8c5abc0a9d" x="36.94" y="0"> </tspan><tspan x="42.84" y="0">Amendment for Capital Project (Change of Scope, Budget, Schedule)</tspan></text><text class="bcdca940-2fdb-4bd3-ba0f-9101e135e678" transform="translate(42.66 151.02) rotate(-90)">Subrecipient</text><text class="bcdca940-2fdb-4bd3-ba0f-9101e135e678" transform="translate(42.66 325.91) rotate(-90)">DTR Project Coordinator</text><text class="bcdca940-2fdb-4bd3-ba0f-9101e135e678" transform="translate(37.99 498.8) rotate(-90)">DTR Prog<tspan class="a20d3e72-b35c-4c50-ab64-2fe1eb4ba8ee" x="46.73" y="0">r</tspan><tspan x="51.09" y="0">amming</tspan><tspan x="33.12" y="13.2" xml:space="preserve"> Unit</tspan></text><text class="bcdca940-2fdb-4bd3-ba0f-9101e135e678" transform="translate(42.53 635.3) rotate(-90)">Procurement Office</text><polygon class="a0668153-f5e1-4d5a-89ee-823a99222f56" points="857.07 657.38 18.38 657.38 18.38 68.61 38.64 68.61 857.07 68.61 857.07 657.38"/><line class="a0668153-f5e1-4d5a-89ee-823a99222f56" x1="64.85" y1="657.64" x2="64.85" y2="69.03"/><rect class="ba3345c9-60f5-41f7-85cc-564a489ce75c" x="100.57" y="98.67" width="145.66" height="50.63"/><text class="b721ba6a-1841-4e8f-ba2b-c40f55739050" transform="translate(110.16 119.57)">Submit amendment to DTR <tspan x="0.94" y="12">in writing w/ justifications</tspan></text><rect class="ba3345c9-60f5-41f7-85cc-564a489ce75c" x="341.65" y="208.23" width="120.37" height="60.5"/><text class="b721ba6a-1841-4e8f-ba2b-c40f55739050" transform="translate(348.2 232.77)">Return to subrecipient <tspan x="26.07" y="12">for changes</tspan></text><rect class="ba3345c9-60f5-41f7-85cc-564a489ce75c" x="523.04" y="320.26" width="108.87" height="60.5"/><text class="b721ba6a-1841-4e8f-ba2b-c40f55739050" transform="translate(539.54 344.8)">Re<tspan class="b9552326-a4a5-4b08-a4c7-d2375ea4b007" x="11.86" y="0">v</tspan><tspan x="17.44" y="0">ise or create </tspan><tspan x="-6.4" y="12">new Scope of </tspan><tspan class="b4e34860-8009-4850-841f-ed027301060b" x="58.94" y="12">W</tspan><tspan x="67.6" y="12">ork</tspan></text><text class="ba188e44-0499-4f30-97c0-4d29191b344e" transform="translate(100.62 228.11)">Re<tspan class="b9552326-a4a5-4b08-a4c7-d2375ea4b007" x="16.6" y="0">v</tspan><tspan x="24.42" y="0">iew</tspan></text><rect class="ba3345c9-60f5-41f7-85cc-564a489ce75c" x="105.45" y="260.92" width="145.66" height="50.63"/><text class="b721ba6a-1841-4e8f-ba2b-c40f55739050" transform="translate(111.98 281.81)">Re<tspan class="b9552326-a4a5-4b08-a4c7-d2375ea4b007" x="11.86" y="0">v</tspan><tspan x="17.44" y="0">iew amendment request </tspan><tspan x="16.07" y="12">for t</tspan><tspan class="a20d3e72-b35c-4c50-ab64-2fe1eb4ba8ee" x="36.68" y="12">r</tspan><tspan x="40.64" y="12">acking purposes</tspan></text><rect class="ba3345c9-60f5-41f7-85cc-564a489ce75c" x="105.45" y="389.93" width="145.66" height="50.63"/><text class="b721ba6a-1841-4e8f-ba2b-c40f55739050" transform="translate(132.65 405.94)">Re<tspan class="b9552326-a4a5-4b08-a4c7-d2375ea4b007" x="11.86" y="0">v</tspan><tspan x="17.44" y="0">iew amendment </tspan><tspan x="-4.02" y="12">request for budget or </tspan><tspan x="-3.6" y="24">financial implications</tspan></text><rect class="ba3345c9-60f5-41f7-85cc-564a489ce75c" x="105.45" y="520.9" width="145.66" height="50.63"/><text class="b721ba6a-1841-4e8f-ba2b-c40f55739050" transform="translate(130.69 536.91)">Re<tspan class="b9552326-a4a5-4b08-a4c7-d2375ea4b007" x="11.86" y="0">v</tspan><tspan x="17.44" y="0">iew amendment </tspan><tspan x="5.26" y="12">request for scope </tspan><tspan x="18.01" y="24">implications</tspan></text><rect class="b229de67-6ce3-4185-8d81-92c54641e58a" x="386.65" y="288.45" width="31.28" height="17.57"/><text class="bfaa725d-d54a-4920-974d-a131eec232cb" transform="translate(395.44 299.98)">NO</text><text class="b721ba6a-1841-4e8f-ba2b-c40f55739050" transform="matrix(1, 0, 0, 1, 366.04, 347.96)">Justification for <tspan x="9.59" y="12">amendment</tspan></text><polygon class="ba3345c9-60f5-41f7-85cc-564a489ce75c" points="350.7 348.55 402.29 311.89 454.24 348.06 402.64 384.74 350.7 348.55"/><rect class="fb0ab692-fca0-4a07-b0ac-df00115da42a" x="467.52" y="337.01" width="31.28" height="17.57"/><text class="bfaa725d-d54a-4920-974d-a131eec232cb" transform="translate(474.69 348.54)">YES</text></g></svg>