<svg xmlns="http://www.w3.org/2000/svg" viewBox="0 0 1249.57 895.16"><defs><style>.a36a3173-0c07-4827-9eab-6ea3bbfeec9a,.a654d1a7-998c-4ac2-b2b3-1856583dd0a3,.ac0da234-7a5b-4f73-bb10-89211863016d,.e0deada4-fbf1-4acf-afb0-9848523bc50c,.e1d498d1-81e2-4d87-aa47-84e4a9bd86eb{fill:none;}.a36a3173-0c07-4827-9eab-6ea3bbfeec9a,.a654d1a7-998c-4ac2-b2b3-1856583dd0a3,.ac0da234-7a5b-4f73-bb10-89211863016d,.e1d498d1-81e2-4d87-aa47-84e4a9bd86eb,.e4a48d0d-0beb-4718-a1d7-dae22e5d339c{stroke:#646464;}.a36a3173-0c07-4827-9eab-6ea3bbfeec9a,.a654d1a7-998c-4ac2-b2b3-1856583dd0a3,.ac0da234-7a5b-4f73-bb10-89211863016d,.e0deada4-fbf1-4acf-afb0-9848523bc50c,.e1d498d1-81e2-4d87-aa47-84e4a9bd86eb,.e4a48d0d-0beb-4718-a1d7-dae22e5d339c{stroke-miterlimit:10;}.a654d1a7-998c-4ac2-b2b3-1856583dd0a3,.e4a48d0d-0beb-4718-a1d7-dae22e5d339c{stroke-width:2px;}.a4841c81-8bf9-4c00-bbab-3b7ea2a852b4,.a49969e7-b03c-4a5a-b4ec-ee65d7277242,.e5614551-d856-42a3-a87f-7d311c8369e6,.f9a7db2b-5e97-4e48-a5d3-5e32c7495354{fill:#646464;}.a36a3173-0c07-4827-9eab-6ea3bbfeec9a,.e1d498d1-81e2-4d87-aa47-84e4a9bd86eb{stroke-width:0.5px;}.a36a3173-0c07-4827-9eab-6ea3bbfeec9a{stroke-dasharray:4.99 3;}.f9a7db2b-5e97-4e48-a5d3-5e32c7495354{font-size:24px;}.a2980fb4-e2cb-429a-a324-a34141925517,.a4841c81-8bf9-4c00-bbab-3b7ea2a852b4,.e0732351-311d-413f-92e4-f428d45cd6e0,.e5614551-d856-42a3-a87f-7d311c8369e6,.eb1b3b7c-0421-4f40-9d6a-e242043ff72e,.f9a7db2b-5e97-4e48-a5d3-5e32c7495354{font-family:TrebuchetMS-Bold, Trebuchet MS;font-weight:700;}.a29e3185-fad5-4883-9962-cb7e36f50e34{letter-spacing:-0.02em;}.b3c19f32-e298-408d-aa36-9aab2f18ab86{letter-spacing:-0.1em;}.a3a63ab9-d294-47d3-9807-e141b8dec66b{letter-spacing:-0.03em;}.e5614551-d856-42a3-a87f-7d311c8369e6{font-size:11px;}.f4556813-c657-4cb7-987b-3ee35d135209{letter-spacing:-0.09em;}.bda19184-fd98-4796-884b-285c54439f64{letter-spacing:-0.06em;}.a2980fb4-e2cb-429a-a324-a34141925517,.a4841c81-8bf9-4c00-bbab-3b7ea2a852b4,.eb1b3b7c-0421-4f40-9d6a-e242043ff72e{font-size:10px;}.bc45fd3b-e8a0-4d6a-ab41-654c8c2edaff{letter-spacing:0.03em;}.e4a48d0d-0beb-4718-a1d7-dae22e5d339c,.fac4a8cb-3589-4b32-9075-046ba3756fd6{fill:#009add;}.e0732351-311d-413f-92e4-f428d45cd6e0,.eb1b3b7c-0421-4f40-9d6a-e242043ff72e{fill:#fff;}.ef582217-3f20-402e-bd98-d9f57530f56c{fill:#d23138;}.e747b735-fb45-4180-96fe-91862fc4ace0{fill:#3eaf49;}.e0732351-311d-413f-92e4-f428d45cd6e0{font-size:16px;}.e0deada4-fbf1-4acf-afb0-9848523bc50c{stroke:#666;stroke-dasharray:8 4;}.a2980fb4-e2cb-429a-a324-a34141925517{fill:#7e8083;}</style></defs><title>CDOT_diagrams_CH3</title><g id="b521dc81-37db-4217-8178-4462bfc46562" data-name="shapes"><line class="a654d1a7-998c-4ac2-b2b3-1856583dd0a3" x1="114.33" y1="113.87" x2="146.25" y2="113.87"/><polygon class="a49969e7-b03c-4a5a-b4ec-ee65d7277242" points="144.5 119.86 154.86 113.87 144.5 107.89 144.5 119.86"/><line class="a654d1a7-998c-4ac2-b2b3-1856583dd0a3" x1="243.29" y1="113.87" x2="275.2" y2="113.87"/><polygon class="a49969e7-b03c-4a5a-b4ec-ee65d7277242" points="273.45 119.86 283.81 113.87 273.45 107.89 273.45 119.86"/><line class="e1d498d1-81e2-4d87-aa47-84e4a9bd86eb" x1="18.37" y1="377.52" x2="20.87" y2="377.52"/><line class="a36a3173-0c07-4827-9eab-6ea3bbfeec9a" x1="23.87" y1="377.52" x2="1229.01" y2="377.52"/><line class="e1d498d1-81e2-4d87-aa47-84e4a9bd86eb" x1="1230.51" y1="377.52" x2="1233.01" y2="377.52"/><line class="e1d498d1-81e2-4d87-aa47-84e4a9bd86eb" x1="18.37" y1="483.08" x2="20.87" y2="483.08"/><line class="a36a3173-0c07-4827-9eab-6ea3bbfeec9a" x1="23.87" y1="483.08" x2="1229.01" y2="483.08"/><line class="e1d498d1-81e2-4d87-aa47-84e4a9bd86eb" x1="1230.51" y1="483.08" x2="1233.01" y2="483.08"/><line class="e1d498d1-81e2-4d87-aa47-84e4a9bd86eb" x1="18.37" y1="627.93" x2="20.87" y2="627.93"/><line class="a36a3173-0c07-4827-9eab-6ea3bbfeec9a" x1="23.87" y1="627.93" x2="1229.01" y2="627.93"/><line class="e1d498d1-81e2-4d87-aa47-84e4a9bd86eb" x1="1230.51" y1="627.93" x2="1233.01" y2="627.93"/><line class="e1d498d1-81e2-4d87-aa47-84e4a9bd86eb" x1="18.37" y1="754.29" x2="20.87" y2="754.29"/><line class="a36a3173-0c07-4827-9eab-6ea3bbfeec9a" x1="23.87" y1="754.29" x2="1229.01" y2="754.29"/><line class="e1d498d1-81e2-4d87-aa47-84e4a9bd86eb" x1="1230.51" y1="754.29" x2="1233.01" y2="754.29"/><line class="a654d1a7-998c-4ac2-b2b3-1856583dd0a3" x1="423.22" y1="113.54" x2="357.68" y2="113.54"/><polygon class="a49969e7-b03c-4a5a-b4ec-ee65d7277242" points="421.47 107.56 431.83 113.54 421.47 119.53 421.47 107.56"/><line class="a654d1a7-998c-4ac2-b2b3-1856583dd0a3" x1="322.43" y1="208.4" x2="322.43" y2="149.77"/><polygon class="a49969e7-b03c-4a5a-b4ec-ee65d7277242" points="328.41 206.65 322.43 217.01 316.44 206.65 328.41 206.65"/><line class="a654d1a7-998c-4ac2-b2b3-1856583dd0a3" x1="479.79" y1="652.98" x2="479.79" y2="136.7"/><polygon class="a49969e7-b03c-4a5a-b4ec-ee65d7277242" points="485.77 651.23 479.79 661.59 473.8 651.23 485.77 651.23"/><line class="a654d1a7-998c-4ac2-b2b3-1856583dd0a3" x1="322.43" y1="296.19" x2="322.43" y2="269.01"/><polygon class="a49969e7-b03c-4a5a-b4ec-ee65d7277242" points="328.41 294.44 322.43 304.81 316.44 294.44 328.41 294.44"/><line class="a654d1a7-998c-4ac2-b2b3-1856583dd0a3" x1="645.81" y1="366.92" x2="645.81" y2="557.29"/><polygon class="a49969e7-b03c-4a5a-b4ec-ee65d7277242" points="639.83 368.67 645.82 358.31 651.8 368.67 639.83 368.67"/><line class="a654d1a7-998c-4ac2-b2b3-1856583dd0a3" x1="322.43" y1="403.7" x2="322.43" y2="355.63"/><polygon class="a49969e7-b03c-4a5a-b4ec-ee65d7277242" points="328.41 401.95 322.43 412.32 316.44 401.95 328.41 401.95"/><line class="a654d1a7-998c-4ac2-b2b3-1856583dd0a3" x1="322.43" y1="510.24" x2="322.43" y2="462.16"/><polygon class="a49969e7-b03c-4a5a-b4ec-ee65d7277242" points="328.41 508.49 322.43 518.85 316.44 508.49 328.41 508.49"/><line class="a654d1a7-998c-4ac2-b2b3-1856583dd0a3" x1="1004.63" y1="766.38" x2="1004.63" y2="583.91"/><polygon class="a49969e7-b03c-4a5a-b4ec-ee65d7277242" points="1010.62 764.63 1004.63 774.99 998.65 764.63 1010.62 764.63"/><line class="a654d1a7-998c-4ac2-b2b3-1856583dd0a3" x1="258.08" y1="690.87" x2="443.62" y2="690.87"/><polygon class="a49969e7-b03c-4a5a-b4ec-ee65d7277242" points="259.83 696.85 249.47 690.87 259.83 684.88 259.83 696.85"/><path class="a654d1a7-998c-4ac2-b2b3-1856583dd0a3" d="M357.68,556.37H473.61a6,6,0,1,1,12.09,0H748.84a6.05,6.05,0,0,1,12.1,0h44.79"/><polygon class="a49969e7-b03c-4a5a-b4ec-ee65d7277242" points="803.98 562.35 814.34 556.37 803.98 550.38 803.98 562.35"/><path class="a654d1a7-998c-4ac2-b2b3-1856583dd0a3" d="M383.06,329h91a6,6,0,1,1,12.09,0h109"/><polygon class="a49969e7-b03c-4a5a-b4ec-ee65d7277242" points="384.81 334.98 374.45 329 384.81 323.01 384.81 334.98"/><line class="a654d1a7-998c-4ac2-b2b3-1856583dd0a3" x1="701.88" y1="690.75" x2="516.34" y2="690.75"/><polygon class="a49969e7-b03c-4a5a-b4ec-ee65d7277242" points="700.13 684.77 710.49 690.75 700.13 696.74 700.13 684.77"/></g><g id="bca16ddc-ecbd-4629-a817-7ffd3bd5bc9c" data-name="text"><polyline class="a654d1a7-998c-4ac2-b2b3-1856583dd0a3" points="754.8 670.75 754.8 328.59 714.82 328.59"/><polygon class="a49969e7-b03c-4a5a-b4ec-ee65d7277242" points="716.57 322.6 706.2 328.59 716.57 334.57 716.57 322.6"/><text class="f9a7db2b-5e97-4e48-a5d3-5e32c7495354" transform="translate(18.5 35.69)">3-8<tspan class="a29e3185-fad5-4883-9962-cb7e36f50e34" x="36.94" y="0"> </tspan><tspan class="b3c19f32-e298-408d-aa36-9aab2f18ab86" x="43.73" y="0">T</tspan><tspan class="a3a63ab9-d294-47d3-9807-e141b8dec66b" x="55.96" y="0">r</tspan><tspan x="65.46" y="0">ansit STI</tspan><tspan class="a29e3185-fad5-4883-9962-cb7e36f50e34" x="160.29" y="0">P</tspan></text><text class="e5614551-d856-42a3-a87f-7d311c8369e6" transform="translate(44.66 469.47) rotate(-90)">Business Office</text><text class="e5614551-d856-42a3-a87f-7d311c8369e6" transform="translate(44.66 260.44) rotate(-90)">DTR Prog<tspan class="a3a63ab9-d294-47d3-9807-e141b8dec66b" x="46.73" y="0">r</tspan><tspan x="51.09" y="0">amming Unit</tspan></text><text class="e5614551-d856-42a3-a87f-7d311c8369e6" transform="translate(44.66 570.42) rotate(-90)">OFMB</text><text class="e5614551-d856-42a3-a87f-7d311c8369e6" transform="translate(44.66 702.56) rotate(-90)">MPO</text><text class="e5614551-d856-42a3-a87f-7d311c8369e6" transform="translate(44.66 824.88) rotate(-90)">F<tspan class="f4556813-c657-4cb7-987b-3ee35d135209" x="6.42" y="0">T</tspan><tspan class="bda19184-fd98-4796-884b-285c54439f64" x="12.11" y="0">A</tspan></text><rect class="a654d1a7-998c-4ac2-b2b3-1856583dd0a3" x="172.17" y="663.73" width="73.21" height="51.39"/><text class="a4841c81-8bf9-4c00-bbab-3b7ea2a852b4" transform="translate(183.1 691.43)">Notify DTR</text><rect class="a654d1a7-998c-4ac2-b2b3-1856583dd0a3" x="443.17" y="663.73" width="73.21" height="51.39"/><text class="a4841c81-8bf9-4c00-bbab-3b7ea2a852b4" transform="translate(453.14 691.43)">TI<tspan class="a29e3185-fad5-4883-9962-cb7e36f50e34" x="8.9" y="0">P</tspan><tspan x="14.59" y="0" xml:space="preserve"> Project</tspan></text><rect class="a654d1a7-998c-4ac2-b2b3-1856583dd0a3" x="712.19" y="670.41" width="84.57" height="41.71"/><text class="a4841c81-8bf9-4c00-bbab-3b7ea2a852b4" transform="translate(724.07 688.89)">Notify DTR of <tspan x="-4.82" y="12">t</tspan><tspan class="a3a63ab9-d294-47d3-9807-e141b8dec66b" x="-0.85" y="12">r</tspan><tspan x="3.11" y="12">ansit projects</tspan></text><rect class="a654d1a7-998c-4ac2-b2b3-1856583dd0a3" x="273.18" y="220.24" width="98.22" height="47.9"/><text class="a4841c81-8bf9-4c00-bbab-3b7ea2a852b4" transform="translate(286.64 235.1)">Add project to <tspan x="5.98" y="12">F</tspan><tspan class="f4556813-c657-4cb7-987b-3ee35d135209" x="11.82" y="12">T</tspan><tspan x="16.99" y="12">A/</tspan><tspan class="bda19184-fd98-4796-884b-285c54439f64" x="27.22" y="12">F</tspan><tspan x="32.5" y="12">ASTER </tspan><tspan x="11.16" y="24">ru</tspan><tspan class="a3a63ab9-d294-47d3-9807-e141b8dec66b" x="21.34" y="24">r</tspan><tspan x="25.3" y="24">al pool</tspan></text><rect class="a654d1a7-998c-4ac2-b2b3-1856583dd0a3" x="435.1" y="89.22" width="87.4" height="47.9"/><text class="a4841c81-8bf9-4c00-bbab-3b7ea2a852b4" transform="translate(451.72 104.09)">Send award <tspan x="-6.32" y="12">notification to </tspan><tspan x="16.9" y="24">MPO</tspan></text><rect class="a654d1a7-998c-4ac2-b2b3-1856583dd0a3" x="273.18" y="307.24" width="98.22" height="47.9"/><text class="a4841c81-8bf9-4c00-bbab-3b7ea2a852b4" transform="translate(283.56 322.11)">Send request to <tspan x="2.66" y="12">STIP/budget to </tspan><tspan x="1.65" y="24">Business Office</tspan></text><rect class="a654d1a7-998c-4ac2-b2b3-1856583dd0a3" x="595.23" y="307.24" width="106.62" height="47.9"/><text class="a4841c81-8bf9-4c00-bbab-3b7ea2a852b4" transform="translate(603.86 322.11)">Re<tspan class="bc45fd3b-e8a0-4d6a-ab41-654c8c2edaff" x="11.86" y="0">v</tspan><tspan x="17.44" y="0">ise F</tspan><tspan class="f4556813-c657-4cb7-987b-3ee35d135209" x="39.33" y="0">T</tspan><tspan x="44.5" y="0">A/</tspan><tspan class="bda19184-fd98-4796-884b-285c54439f64" x="54.73" y="0">F</tspan><tspan x="60.01" y="0">ASTER </tspan><tspan x="7.64" y="12">Ru</tspan><tspan class="a3a63ab9-d294-47d3-9807-e141b8dec66b" x="19.66" y="12">r</tspan><tspan x="23.62" y="12" xml:space="preserve">al  pool with </tspan><tspan x="25.41" y="24">projects</tspan></text><rect class="a654d1a7-998c-4ac2-b2b3-1856583dd0a3" x="273.18" y="414.76" width="98.22" height="47.9"/><path class="a49969e7-b03c-4a5a-b4ec-ee65d7277242" d="M290.61,422.47h1.27v4.85a1.22,1.22,0,0,0,1.31,1.3,1.53,1.53,0,0,0,1.08-.36,1.26,1.26,0,0,0,.38-1v-4.82h1.27v4.92a2.15,2.15,0,0,1-.74,1.73,2.94,2.94,0,0,1-2,.62,2.75,2.75,0,0,1-1.92-.61,2.2,2.2,0,0,1-.67-1.74Z"/><path class="a49969e7-b03c-4a5a-b4ec-ee65d7277242" d="M298.43,429.49v2.18h-1.22v-7.28h1.22v.35a1.6,1.6,0,0,1,1.13-.44c1.67,0,2.5.91,2.5,2.75a2.7,2.7,0,0,1-.69,2,2.55,2.55,0,0,1-1.89.69A2.45,2.45,0,0,1,298.43,429.49Zm0-3.82v2.75a1.19,1.19,0,0,0,.78.27,1.56,1.56,0,0,0,1.21-.4,1.82,1.82,0,0,0,.37-1.27,1.88,1.88,0,0,0-.36-1.31,1.67,1.67,0,0,0-1.22-.38A1.07,1.07,0,0,0,298.43,425.67Z"/><path class="a49969e7-b03c-4a5a-b4ec-ee65d7277242" d="M306.5,429.62v-.31a1.31,1.31,0,0,1-.51.29,2.36,2.36,0,0,1-.75.12,2.21,2.21,0,0,1-1.72-.69,2.8,2.8,0,0,1-.63-1.94,2.87,2.87,0,0,1,.72-2,2.38,2.38,0,0,1,1.81-.77,2.44,2.44,0,0,1,1.08.24v-2.1l1.22-.29v7.47Zm0-4a1.33,1.33,0,0,0-.82-.31,1.41,1.41,0,0,0-1.12.45,1.84,1.84,0,0,0-.4,1.28c0,1.09.52,1.63,1.57,1.63a1.49,1.49,0,0,0,.44-.1.77.77,0,0,0,.33-.22Z"/><path class="a49969e7-b03c-4a5a-b4ec-ee65d7277242" d="M311.85,429.1a1.2,1.2,0,0,1-.58.45,2.27,2.27,0,0,1-.86.17,2,2,0,0,1-1.33-.42,1.51,1.51,0,0,1-.48-1.2,1.68,1.68,0,0,1,.68-1.42,3.18,3.18,0,0,1,1.94-.51,2,2,0,0,1,.5.07c0-.62-.38-.92-1.16-.92a2.46,2.46,0,0,0-1.15.23l-.27-.95a3.46,3.46,0,0,1,1.5-.3,2.43,2.43,0,0,1,1.75.54,2.89,2.89,0,0,1,.56,2.06V428c0,.7.14,1.14.42,1.31a.63.63,0,0,1-.34.33,1.33,1.33,0,0,1-.42.06.65.65,0,0,1-.48-.2A.94.94,0,0,1,311.85,429.1Zm-.12-1.94a2.61,2.61,0,0,0-.46-.06c-1,0-1.45.31-1.45.95,0,.46.27.7.82.7a1,1,0,0,0,1.09-1.1Z"/><path class="a49969e7-b03c-4a5a-b4ec-ee65d7277242" d="M314.45,425.37h-.6v-1h.6v-1.06l1.22-.45v1.51h1.44v1h-1.44v2.29a1.35,1.35,0,0,0,.18.8.74.74,0,0,0,.62.23,1.53,1.53,0,0,0,.82-.24v1.12a3.87,3.87,0,0,1-1.22.15,1.59,1.59,0,0,1-1.2-.44,1.78,1.78,0,0,1-.42-1.26Z"/><path class="a49969e7-b03c-4a5a-b4ec-ee65d7277242" d="M322.9,427.38h-3.73a1.28,1.28,0,0,0,.43,1,1.54,1.54,0,0,0,1.06.35,1.71,1.71,0,0,0,1.27-.43l.47.93a3,3,0,0,1-1.92.52,2.52,2.52,0,0,1-1.89-.7,2.64,2.64,0,0,1-.7-2,2.71,2.71,0,0,1,.77-2,2.7,2.7,0,0,1,3.66-.09,2.37,2.37,0,0,1,.68,1.73A3.23,3.23,0,0,1,322.9,427.38Zm-3.69-.92h2.57a1.15,1.15,0,0,0-1.27-1.14A1.25,1.25,0,0,0,319.21,426.46Z"/><path class="a49969e7-b03c-4a5a-b4ec-ee65d7277242" d="M328.34,423.6v1.67h2.51v1.08h-2.51v3.27h-1.27v-7.15h4.71v1.13Z"/><path class="a49969e7-b03c-4a5a-b4ec-ee65d7277242" d="M335.81,423.6v6h-1.27v-6h-2.27v-1.13h5.92v1.13Z"/><path class="a49969e7-b03c-4a5a-b4ec-ee65d7277242" d="M342.25,429.62l-.53-1.45h-2.45l-.49,1.45h-1.42l2.86-7.25h.55l2.88,7.25Zm-1.76-5.06-.86,2.64h1.72Z"/><path class="a49969e7-b03c-4a5a-b4ec-ee65d7277242" d="M344.85,429.62h-1.1l2.7-7.18h1.09Z"/><path class="a49969e7-b03c-4a5a-b4ec-ee65d7277242" d="M348.11,427.3v-1.15h2.58v1.15Z"/><path class="a49969e7-b03c-4a5a-b4ec-ee65d7277242" d="M292.53,435.6v1.67H295v1.08h-2.51v3.27h-1.27v-7.15H296v1.13Z"/><path class="a49969e7-b03c-4a5a-b4ec-ee65d7277242" d="M300.71,441.62l-.52-1.45h-2.45l-.5,1.45h-1.41l2.85-7.25h.56l2.87,7.25ZM299,436.56l-.86,2.64h1.72Z"/><path class="a49969e7-b03c-4a5a-b4ec-ee65d7277242" d="M302.53,441.23l.47-1.14a2.58,2.58,0,0,0,1.48.53c.74,0,1.12-.26,1.12-.78a1.08,1.08,0,0,0-.27-.7,3.46,3.46,0,0,0-1.08-.75,4.89,4.89,0,0,1-1.11-.68,1.67,1.67,0,0,1-.44-.63,2.09,2.09,0,0,1-.16-.81,1.81,1.81,0,0,1,.61-1.38,2.28,2.28,0,0,1,1.56-.54,2.88,2.88,0,0,1,1.82.46l-.38,1.09a2.46,2.46,0,0,0-1.41-.47.91.91,0,0,0-.68.23.76.76,0,0,0-.25.6c0,.41.46.84,1.37,1.28a4.09,4.09,0,0,1,1,.65,2,2,0,0,1,.49.69,2.21,2.21,0,0,1,.16.87,1.78,1.78,0,0,1-.68,1.43,2.81,2.81,0,0,1-1.84.56A3.32,3.32,0,0,1,302.53,441.23Z"/><path class="a49969e7-b03c-4a5a-b4ec-ee65d7277242" d="M310.89,435.6v6h-1.27v-6h-2.27v-1.13h5.92v1.13Z"/><path class="a49969e7-b03c-4a5a-b4ec-ee65d7277242" d="M315.37,435.6v1.67h2.37v1.08h-2.37v2.14h3.24v1.13H314.1v-7.15h4.57v1.13Z"/><path class="a49969e7-b03c-4a5a-b4ec-ee65d7277242" d="M323.82,441.62l-1.91-2.95-.8,0v3h-1.32v-7.15l.83,0,1.15,0c1.82,0,2.73.7,2.73,2.11a1.93,1.93,0,0,1-.38,1.15,2,2,0,0,1-.95.74l2.12,3.22Zm-2.71-6.05v2l.54,0a2.17,2.17,0,0,0,1.16-.23.92.92,0,0,0,.37-.87.76.76,0,0,0-.4-.74,2.74,2.74,0,0,0-1.24-.21Z"/><path class="a49969e7-b03c-4a5a-b4ec-ee65d7277242" d="M331.86,437.53a1.32,1.32,0,0,0-.72-.21,1,1,0,0,0-.75.38,1.4,1.4,0,0,0-.33.94v3h-1.22v-5.23h1.22v.48a1.74,1.74,0,0,1,1.36-.57,1.92,1.92,0,0,1,1,.19Z"/><path class="a49969e7-b03c-4a5a-b4ec-ee65d7277242" d="M336.48,441.63v-.44a2.24,2.24,0,0,1-.71.37,2.48,2.48,0,0,1-.84.16c-1.21,0-1.82-.64-1.82-1.93v-3.4h1.22v3.3c0,.67.3,1,.91,1a1.43,1.43,0,0,0,.77-.22,1.1,1.1,0,0,0,.47-.49v-3.6h1.22v5.24Z"/><path class="a49969e7-b03c-4a5a-b4ec-ee65d7277242" d="M342,437.53a1.32,1.32,0,0,0-.72-.21,1,1,0,0,0-.75.38,1.4,1.4,0,0,0-.33.94v3H339v-5.23h1.22v.48a1.74,1.74,0,0,1,1.36-.57,1.92,1.92,0,0,1,1,.19Z"/><path class="a49969e7-b03c-4a5a-b4ec-ee65d7277242" d="M345.89,441.1a1.2,1.2,0,0,1-.58.45,2.27,2.27,0,0,1-.86.17,2,2,0,0,1-1.33-.42,1.51,1.51,0,0,1-.48-1.2,1.65,1.65,0,0,1,.68-1.42,3.17,3.17,0,0,1,1.93-.51,2,2,0,0,1,.51.07c0-.62-.39-.92-1.16-.92a2.53,2.53,0,0,0-1.16.23l-.26-.95a3.46,3.46,0,0,1,1.5-.3,2.43,2.43,0,0,1,1.75.54,2.89,2.89,0,0,1,.56,2.06V440c0,.7.14,1.14.42,1.31a.67.67,0,0,1-.34.33,1.33,1.33,0,0,1-.42.06.65.65,0,0,1-.48-.2A.94.94,0,0,1,345.89,441.1Zm-.12-1.94a2.7,2.7,0,0,0-.47-.06c-1,0-1.44.31-1.44.95,0,.46.27.7.81.7a1,1,0,0,0,1.1-1.1Z"/><path class="a49969e7-b03c-4a5a-b4ec-ee65d7277242" d="M348.52,434.44l1.22-.29V440c0,.65.19,1,.57,1.15a1,1,0,0,1-1,.54c-.56,0-.83-.38-.83-1.15Z"/><path class="a49969e7-b03c-4a5a-b4ec-ee65d7277242" d="M295,453.49v2.18h-1.22v-7.28H295v.35a1.57,1.57,0,0,1,1.13-.44c1.66,0,2.5.91,2.5,2.75a2.7,2.7,0,0,1-.69,2,2.57,2.57,0,0,1-1.89.69A2.38,2.38,0,0,1,295,453.49Zm0-3.82v2.75a1.19,1.19,0,0,0,.77.27,1.59,1.59,0,0,0,1.22-.4,2.43,2.43,0,0,0,0-2.58,1.64,1.64,0,0,0-1.21-.38A1.07,1.07,0,0,0,295,449.67Z"/><path class="a49969e7-b03c-4a5a-b4ec-ee65d7277242" d="M299.35,451a2.77,2.77,0,0,1,.69-1.95,2.66,2.66,0,0,1,3.67,0,3.28,3.28,0,0,1,0,4,2.34,2.34,0,0,1-1.84.74A2.37,2.37,0,0,1,300,453,2.89,2.89,0,0,1,299.35,451Zm1.27,0c0,1.15.41,1.72,1.24,1.72a1.07,1.07,0,0,0,.91-.45,2.09,2.09,0,0,0,.33-1.27c0-1.14-.41-1.71-1.24-1.71a1.09,1.09,0,0,0-.91.45A2.1,2.1,0,0,0,300.62,451Z"/><path class="a49969e7-b03c-4a5a-b4ec-ee65d7277242" d="M305,451a2.77,2.77,0,0,1,.69-1.95,2.66,2.66,0,0,1,3.67,0,3.28,3.28,0,0,1,0,4,2.34,2.34,0,0,1-1.84.74,2.37,2.37,0,0,1-1.85-.74A2.89,2.89,0,0,1,305,451Zm1.27,0c0,1.15.41,1.72,1.24,1.72a1.09,1.09,0,0,0,.91-.45,2.09,2.09,0,0,0,.33-1.27c0-1.14-.41-1.71-1.24-1.71a1.09,1.09,0,0,0-.91.45A2.1,2.1,0,0,0,306.28,451Z"/><path class="a49969e7-b03c-4a5a-b4ec-ee65d7277242" d="M311.22,446.44l1.22-.29V452c0,.65.19,1,.58,1.15a1,1,0,0,1-1,.54c-.55,0-.83-.38-.83-1.15Z"/><path class="a49969e7-b03c-4a5a-b4ec-ee65d7277242" d="M317.3,453.62v-4.23h-.67v-1h1.9v5.23Zm.63-7.25a.72.72,0,0,1,.5.2.71.71,0,0,1,0,1,.72.72,0,0,1-.5.2.7.7,0,0,1-.5-.2.71.71,0,0,1,0-1A.7.7,0,0,1,317.93,446.37Z"/><path class="a49969e7-b03c-4a5a-b4ec-ee65d7277242" d="M323.32,453.62v-3a1.53,1.53,0,0,0-.26-1,1,1,0,0,0-.84-.3,1.31,1.31,0,0,0-.57.15,1.4,1.4,0,0,0-.48.37v3.78H320v-5.23h.88l.23.49a1.82,1.82,0,0,1,1.47-.58,2,2,0,0,1,1.47.55,2.18,2.18,0,0,1,.54,1.56v3.21Z"/><path class="a49969e7-b03c-4a5a-b4ec-ee65d7277242" d="M328.6,453.23l.47-1.14a2.58,2.58,0,0,0,1.48.53c.75,0,1.12-.26,1.12-.78a1.08,1.08,0,0,0-.27-.7,3.34,3.34,0,0,0-1.08-.75,4.89,4.89,0,0,1-1.11-.68,1.67,1.67,0,0,1-.44-.63,2.09,2.09,0,0,1-.15-.81,1.8,1.8,0,0,1,.6-1.38,2.28,2.28,0,0,1,1.56-.54,2.93,2.93,0,0,1,1.83.46l-.39,1.09a2.46,2.46,0,0,0-1.41-.47.92.92,0,0,0-.68.23.78.78,0,0,0-.24.6c0,.41.45.84,1.36,1.28a4.09,4.09,0,0,1,1,.65,1.89,1.89,0,0,1,.49.69,2.21,2.21,0,0,1,.16.87,1.78,1.78,0,0,1-.68,1.43,2.79,2.79,0,0,1-1.84.56A3.32,3.32,0,0,1,328.6,453.23Z"/><path class="a49969e7-b03c-4a5a-b4ec-ee65d7277242" d="M337,447.6v6H335.7v-6h-2.28v-1.13h5.92v1.13Z"/><path class="a49969e7-b03c-4a5a-b4ec-ee65d7277242" d="M340.2,453.62v-7.15h1.27v7.15Z"/><path class="a49969e7-b03c-4a5a-b4ec-ee65d7277242" d="M344.23,451v2.63H343v-7.15l1.48-.05a4.56,4.56,0,0,1,2.48.52,1.82,1.82,0,0,1,.78,1.62c0,1.64-1,2.46-2.9,2.46Zm0-3.42v2.29a3.62,3.62,0,0,0,.5,0,2.2,2.2,0,0,0,1.27-.29,1.09,1.09,0,0,0,.4-.95c0-.74-.59-1.11-1.79-1.11Z"/><rect class="e4a48d0d-0beb-4718-a1d7-dae22e5d339c" x="155.87" y="89.29" width="87.54" height="47.9"/><text class="eb1b3b7c-0421-4f40-9d6a-e242043ff72e" transform="translate(164.53 116.21)"><tspan class="a29e3185-fad5-4883-9962-cb7e36f50e34">A</tspan><tspan x="6.15" y="0">ward projects</tspan></text><line class="ac0da234-7a5b-4f73-bb10-89211863016d" x1="64.85" y1="874.28" x2="64.85" y2="69.02"/><rect class="ef582217-3f20-402e-bd98-d9f57530f56c" x="308.47" y="165.53" width="26.58" height="17.57"/><text class="eb1b3b7c-0421-4f40-9d6a-e242043ff72e" transform="translate(314.94 178.07)">NO</text><rect class="e747b735-fb45-4180-96fe-91862fc4ace0" x="372.89" y="104.01" width="31.28" height="17.57"/><text class="eb1b3b7c-0421-4f40-9d6a-e242043ff72e" transform="translate(380.06 116.55)">YES</text><text class="a4841c81-8bf9-4c00-bbab-3b7ea2a852b4" transform="translate(298.78 111.72)">Project in <tspan x="3.61" y="12">an MPO?</tspan></text><rect class="a654d1a7-998c-4ac2-b2b3-1856583dd0a3" x="296.9" y="88.6" width="50.35" height="50.35" transform="translate(13.88 261.06) rotate(-45)"/><text class="a4841c81-8bf9-4c00-bbab-3b7ea2a852b4" transform="translate(300.46 554.31)">Approve/ <tspan x="6.24" y="12">Reject</tspan></text><rect class="a654d1a7-998c-4ac2-b2b3-1856583dd0a3" x="296.9" y="531.19" width="50.35" height="50.35" transform="translate(-299.08 390.7) rotate(-45)"/><text class="a4841c81-8bf9-4c00-bbab-3b7ea2a852b4" transform="translate(982.67 810.82)">Approve/ <tspan x="6.24" y="12">Reject</tspan></text><rect class="a654d1a7-998c-4ac2-b2b3-1856583dd0a3" x="979.1" y="787.7" width="50.35" height="50.35" transform="translate(-280.64 948.22) rotate(-45)"/><circle class="fac4a8cb-3589-4b32-9075-046ba3756fd6" cx="97.74" cy="112.43" r="22.5"/><text class="e0732351-311d-413f-92e4-f428d45cd6e0" transform="translate(85.43 118.3)">3-4</text><polyline class="a654d1a7-998c-4ac2-b2b3-1856583dd0a3" points="172.05 687.88 125.34 687.88 125.34 242.25 262.36 242.25"/><polygon class="a49969e7-b03c-4a5a-b4ec-ee65d7277242" points="260.61 248.24 270.97 242.25 260.61 236.27 260.61 248.24"/><polyline class="a654d1a7-998c-4ac2-b2b3-1856583dd0a3" points="286.47 556.37 208.42 556.37 208.42 242.25"/><rect class="ef582217-3f20-402e-bd98-d9f57530f56c" x="185.97" y="423.15" width="45.02" height="17.57"/><text class="eb1b3b7c-0421-4f40-9d6a-e242043ff72e" transform="translate(190.42 435.68)">REJEC<tspan class="a29e3185-fad5-4883-9962-cb7e36f50e34" x="28.93" y="0">T</tspan></text><polygon class="ac0da234-7a5b-4f73-bb10-89211863016d" points="1233.68 874.61 18.4 874.61 18.4 68.89 47.76 68.89 1233.68 68.89 1233.68 874.61"/><line class="a654d1a7-998c-4ac2-b2b3-1856583dd0a3" x1="911.76" y1="560.37" x2="957.59" y2="560.37"/><polygon class="a49969e7-b03c-4a5a-b4ec-ee65d7277242" points="955.84 566.35 966.2 560.37 955.84 554.38 955.84 566.35"/><line class="a654d1a7-998c-4ac2-b2b3-1856583dd0a3" x1="1039.63" y1="812.95" x2="1126.59" y2="812.95"/><polygon class="a49969e7-b03c-4a5a-b4ec-ee65d7277242" points="1124.84 818.94 1135.2 812.95 1124.84 806.97 1124.84 818.94"/><path class="a654d1a7-998c-4ac2-b2b3-1856583dd0a3" d="M835.66,582.79V537.36H912.9v45.43Z"/><line class="a654d1a7-998c-4ac2-b2b3-1856583dd0a3" x1="847.13" y1="537.49" x2="847.13" y2="582.79"/><line class="a654d1a7-998c-4ac2-b2b3-1856583dd0a3" x1="902.54" y1="537.49" x2="902.54" y2="582.79"/><path class="e0deada4-fbf1-4acf-afb0-9848523bc50c" d="M832.28,508.16H941.73a0,0,0,0,1,0,0v81.52a15,15,0,0,1-15,15H817.28a0,0,0,0,1,0,0V523.16A15,15,0,0,1,832.28,508.16Z"/><text class="a4841c81-8bf9-4c00-bbab-3b7ea2a852b4" transform="translate(854.36 552.52)">Maintain <tspan x="4.81" y="12">4-year </tspan><tspan x="10.07" y="25">STI</tspan><tspan class="a29e3185-fad5-4883-9962-cb7e36f50e34" x="24.08" y="25">P</tspan></text><path class="a654d1a7-998c-4ac2-b2b3-1856583dd0a3" d="M966.16,582.79V537.36h77.25v45.43Z"/><text class="a4841c81-8bf9-4c00-bbab-3b7ea2a852b4" transform="translate(988.6 552.52)">Submit <tspan x="1.08" y="12">4-year </tspan><tspan x="-9.88" y="25">STI</tspan><tspan class="a29e3185-fad5-4883-9962-cb7e36f50e34" x="4.13" y="25">P</tspan><tspan x="9.82" y="25" xml:space="preserve"> to F</tspan><tspan class="f4556813-c657-4cb7-987b-3ee35d135209" x="31.31" y="25">T</tspan><tspan class="bda19184-fd98-4796-884b-285c54439f64" x="36.48" y="25">A</tspan></text><path class="a654d1a7-998c-4ac2-b2b3-1856583dd0a3" d="M1138.18,835.93V790.5h77.25v45.43Z"/><text class="a2980fb4-e2cb-429a-a324-a34141925517" transform="translate(1144.61 809.06)">Send approval <tspan x="-0.88" y="12">letter to CDO</tspan><tspan class="a29e3185-fad5-4883-9962-cb7e36f50e34" x="60.99" y="12">T</tspan></text><text class="a2980fb4-e2cb-429a-a324-a34141925517" transform="translate(839.98 519.54)">CDO<tspan class="a29e3185-fad5-4883-9962-cb7e36f50e34" x="19.58" y="0">T</tspan><tspan x="25.51" y="0" xml:space="preserve"> Budget Process</tspan></text><rect class="e747b735-fb45-4180-96fe-91862fc4ace0" x="1059.66" y="804.09" width="49.23" height="17.57"/><text class="eb1b3b7c-0421-4f40-9d6a-e242043ff72e" transform="translate(1062.71 816.62)">APPROVE</text><rect class="e747b735-fb45-4180-96fe-91862fc4ace0" x="538.52" y="547.58" width="49.23" height="17.57"/><text class="eb1b3b7c-0421-4f40-9d6a-e242043ff72e" transform="translate(541.57 560.11)">APPROVE</text></g></svg>