<svg xmlns="http://www.w3.org/2000/svg" viewBox="0 0 1673.39 951.32"><defs><style>.a717f159-0fe6-43f7-9ab6-8ab9f69ad431,.bf6de55a-1ab0-497d-ab4f-21070ffeb822,.e2e6c9b8-14a8-4286-9a1c-695adfbed353,.eebdff6e-ebc2-4c08-b6c0-857587b6d2d5,.ff18b095-39f4-4ec7-a2dc-d8533a8b1530{fill:none;}.a717f159-0fe6-43f7-9ab6-8ab9f69ad431,.bf6de55a-1ab0-497d-ab4f-21070ffeb822,.e2e6c9b8-14a8-4286-9a1c-695adfbed353,.eebdff6e-ebc2-4c08-b6c0-857587b6d2d5,.ef9d49bf-43d5-4ac2-b38d-59b01dc443fe,.ff18b095-39f4-4ec7-a2dc-d8533a8b1530{stroke:#646464;}.a717f159-0fe6-43f7-9ab6-8ab9f69ad431,.bf6de55a-1ab0-497d-ab4f-21070ffeb822,.e2e6c9b8-14a8-4286-9a1c-695adfbed353,.eebdff6e-ebc2-4c08-b6c0-857587b6d2d5,.ef9d49bf-43d5-4ac2-b38d-59b01dc443fe{stroke-miterlimit:10;}.a717f159-0fe6-43f7-9ab6-8ab9f69ad431,.eebdff6e-ebc2-4c08-b6c0-857587b6d2d5{stroke-width:0.5px;}.a717f159-0fe6-43f7-9ab6-8ab9f69ad431{stroke-dasharray:5 3;}.ff18b095-39f4-4ec7-a2dc-d8533a8b1530{stroke-linejoin:round;}.bf6de55a-1ab0-497d-ab4f-21070ffeb822,.ef9d49bf-43d5-4ac2-b38d-59b01dc443fe,.ff18b095-39f4-4ec7-a2dc-d8533a8b1530{stroke-width:2px;}.bcbeaa36-7fc5-4ada-b4b3-75cfc2d237a4{font-size:24px;}.a5439e69-33f6-44bc-ad78-c5c8ba9d43e0,.b3b4432c-4cd7-4e8b-83e9-aaae770c930f,.bcbeaa36-7fc5-4ada-b4b3-75cfc2d237a4,.f9ed056f-a562-4553-bd0a-bd831fcc4af8{fill:#646464;}.b3b4432c-4cd7-4e8b-83e9-aaae770c930f,.bcbeaa36-7fc5-4ada-b4b3-75cfc2d237a4,.ee0b16e2-b166-4484-b75c-3dad92ffdca1,.f9ed056f-a562-4553-bd0a-bd831fcc4af8{font-family:TrebuchetMS-Bold, Trebuchet MS;font-weight:700;}.aafc6f6f-1a7a-49cb-b31c-f86cb8278f32{letter-spacing:-0.02em;}.afcd1875-1a9c-4eb6-b2d5-d26ce02f9b78{letter-spacing:-0.1em;}.e1849a23-b90c-4b0d-8b1b-5474b329a109{letter-spacing:-0.03em;}.f9ed056f-a562-4553-bd0a-bd831fcc4af8{font-size:11px;}.bccdd0e4-ae9b-4954-bd8b-a024edd21840{letter-spacing:-0.09em;}.e58e7737-3ae3-4a65-ab6e-8af88d8c8140{letter-spacing:-0.06em;}.f29d647c-e1aa-4e25-9015-5161a0178ec3{letter-spacing:-0.05em;}.a72e4bb5-73f1-4f2a-a337-2b832cbab765{letter-spacing:-0.03em;}.b3b4432c-4cd7-4e8b-83e9-aaae770c930f,.ee0b16e2-b166-4484-b75c-3dad92ffdca1{font-size:10px;}.adb58d3d-7025-4154-b2f3-e52c9be40d43{letter-spacing:-0.07em;}.ee0b16e2-b166-4484-b75c-3dad92ffdca1,.ef9d49bf-43d5-4ac2-b38d-59b01dc443fe{fill:#fff;}.b676fcb0-8367-4e09-bb0c-3628e6a777a0{fill:#d23138;}.eb6a41ae-baf7-4c38-bed3-5e93be75a67d{fill:#3eaf49;}</style></defs><title>CDOT_diagrams_CH5-6</title><g id="abf540b8-af19-451d-aa86-90968fe145a2" data-name="shapes"><line class="eebdff6e-ebc2-4c08-b6c0-857587b6d2d5" x1="18.68" y1="180.6" x2="21.18" y2="180.6"/><line class="a717f159-0fe6-43f7-9ab6-8ab9f69ad431" x1="24.19" y1="180.6" x2="1648" y2="180.6"/><line class="eebdff6e-ebc2-4c08-b6c0-857587b6d2d5" x1="1649.5" y1="180.6" x2="1652" y2="180.6"/><line class="eebdff6e-ebc2-4c08-b6c0-857587b6d2d5" x1="18.68" y1="432.91" x2="21.18" y2="432.91"/><line class="a717f159-0fe6-43f7-9ab6-8ab9f69ad431" x1="24.19" y1="432.91" x2="1648" y2="432.91"/><line class="eebdff6e-ebc2-4c08-b6c0-857587b6d2d5" x1="1649.5" y1="432.91" x2="1652" y2="432.91"/><line class="eebdff6e-ebc2-4c08-b6c0-857587b6d2d5" x1="18.68" y1="648.17" x2="21.18" y2="648.17"/><line class="a717f159-0fe6-43f7-9ab6-8ab9f69ad431" x1="24.19" y1="648.17" x2="1648" y2="648.17"/><line class="eebdff6e-ebc2-4c08-b6c0-857587b6d2d5" x1="1649.5" y1="648.17" x2="1652" y2="648.17"/><line class="eebdff6e-ebc2-4c08-b6c0-857587b6d2d5" x1="18.68" y1="790.18" x2="21.18" y2="790.18"/><line class="a717f159-0fe6-43f7-9ab6-8ab9f69ad431" x1="24.19" y1="790.18" x2="1648" y2="790.18"/><line class="eebdff6e-ebc2-4c08-b6c0-857587b6d2d5" x1="1649.5" y1="790.18" x2="1652" y2="790.18"/><path class="ff18b095-39f4-4ec7-a2dc-d8533a8b1530" d="M233.31,210.35S225,226,225,240.89s8.29,29.64,8.29,29.64"/><path class="bf6de55a-1ab0-497d-ab4f-21070ffeb822" d="M112.25,270.6S103,255.87,103,241s9.24-30.53,9.24-30.53H232.74S242,225.15,242,240.06s-9.24,30.54-9.24,30.54Z"/><path class="ff18b095-39f4-4ec7-a2dc-d8533a8b1530" d="M372.7,90.13S365,107.86,365,124.79s7.74,33.66,7.74,33.66"/><path class="bf6de55a-1ab0-497d-ab4f-21070ffeb822" d="M259.5,158.52s-8.64-16.72-8.64-33.65S259.5,90.2,259.5,90.2H372.17s8.64,16.73,8.64,33.66-8.64,34.66-8.64,34.66Z"/><path class="ff18b095-39f4-4ec7-a2dc-d8533a8b1530" d="M946.61,90.13s-7.75,17.73-7.75,34.66,7.75,33.66,7.75,33.66"/><path class="bf6de55a-1ab0-497d-ab4f-21070ffeb822" d="M844.53,158.52s-8.64-16.72-8.64-33.65,8.64-34.67,8.64-34.67H946.07s8.64,16.73,8.64,33.66-8.64,34.66-8.64,34.66Z"/><path class="ff18b095-39f4-4ec7-a2dc-d8533a8b1530" d="M1242.67,330s-7.75,17.74-7.75,34.67,7.75,33.65,7.75,33.65"/><path class="bf6de55a-1ab0-497d-ab4f-21070ffeb822" d="M1140.59,398.38s-8.64-16.73-8.64-33.66,8.64-34.66,8.64-34.66h101.54s8.64,16.72,8.64,33.65-8.64,34.67-8.64,34.67Z"/><path class="ff18b095-39f4-4ec7-a2dc-d8533a8b1530" d="M1409.62,207.55s-7.75,17.74-7.75,34.67,7.75,33.65,7.75,33.65"/><path class="bf6de55a-1ab0-497d-ab4f-21070ffeb822" d="M1307.54,276s-8.64-16.73-8.64-33.66,8.64-34.67,8.64-34.67h101.54s8.64,16.73,8.64,33.66-8.64,34.67-8.64,34.67Z"/></g><g id="a3cd7489-a3a8-4d1c-8fc2-679982bc7596" data-name="text"><text class="bcbeaa36-7fc5-4ada-b4b3-75cfc2d237a4" transform="translate(18.5 35.68)">5-4 EEO<tspan class="aafc6f6f-1a7a-49cb-b31c-f86cb8278f32" x="88.35" y="0"> </tspan><tspan class="afcd1875-1a9c-4eb6-b2d5-d26ce02f9b78" x="95.14" y="0">T</tspan><tspan class="e1849a23-b90c-4b0d-8b1b-5474b329a109" x="107.37" y="0">r</tspan><tspan x="116.87" y="0">acking and Reporting (every 4 years)</tspan></text><text class="f9ed056f-a562-4553-bd0a-bd831fcc4af8" transform="translate(43.31 156.93) rotate(-90)">Subrecipient</text><text class="f9ed056f-a562-4553-bd0a-bd831fcc4af8" transform="translate(43.31 333.7) rotate(-90)">CRBRC</text><text class="f9ed056f-a562-4553-bd0a-bd831fcc4af8" transform="translate(38.66 760.74) rotate(-90)">Direct Recipient <tspan x="9.04" y="13.2">of F</tspan><tspan class="bccdd0e4-ae9b-4954-bd8b-a024edd21840" x="29.07" y="13.2">T</tspan><tspan class="e58e7737-3ae3-4a65-ab6e-8af88d8c8140" x="34.76" y="13.2">A</tspan><tspan x="41.12" y="13.2"> </tspan><tspan class="f29d647c-e1aa-4e25-9015-5161a0178ec3" x="44.43" y="13.2">F</tspan><tspan x="50.33" y="13.2">unds</tspan></text><text class="f9ed056f-a562-4553-bd0a-bd831fcc4af8" transform="translate(43.32 552.42) rotate(-90) scale(0.99 1)">DTR</text><text class="f9ed056f-a562-4553-bd0a-bd831fcc4af8" transform="translate(43.32 904.21) rotate(-90) scale(0.99 1)">Cont<tspan class="a72e4bb5-73f1-4f2a-a337-2b832cbab765" x="23.81" y="0">r</tspan><tspan x="28.17" y="0">actor to DTR</tspan></text><polygon class="e2e6c9b8-14a8-4286-9a1c-695adfbed353" points="1650.94 930.97 18.75 930.97 18.75 68.61 58.2 68.61 1650.94 68.61 1650.94 930.97"/><line class="e2e6c9b8-14a8-4286-9a1c-695adfbed353" x1="64.85" y1="931.3" x2="64.85" y2="68.97"/><text class="b3b4432c-4cd7-4e8b-83e9-aaae770c930f" transform="translate(126.78 230.47)">File EEO Plan and <tspan x="1.24" y="12">F</tspan><tspan class="bccdd0e4-ae9b-4954-bd8b-a024edd21840" x="7.08" y="12">T</tspan><tspan class="e58e7737-3ae3-4a65-ab6e-8af88d8c8140" x="12.25" y="12">A</tspan><tspan x="18.03" y="12" xml:space="preserve"> Concurrence </tspan><tspan x="-0.9" y="24">Letter (COTRAMS)</tspan></text><rect class="bf6de55a-1ab0-497d-ab4f-21070ffeb822" x="220.55" y="672.55" width="111.63" height="82.94"/><text class="b3b4432c-4cd7-4e8b-83e9-aaae770c930f" transform="translate(237.86 692.98)">Submit a copy of <tspan x="-3.09" y="12">agency</tspan><tspan class="adb58d3d-7025-4154-b2f3-e52c9be40d43" x="29.37" y="12">’</tspan><tspan x="32.33" y="12">s EEO Plan </tspan><tspan x="-3.69" y="24">to CRBRC with the </tspan><tspan x="-0.76" y="36">F</tspan><tspan class="bccdd0e4-ae9b-4954-bd8b-a024edd21840" x="5.07" y="36">T</tspan><tspan class="e58e7737-3ae3-4a65-ab6e-8af88d8c8140" x="10.24" y="36">A</tspan><tspan x="16.02" y="36" xml:space="preserve"> Concurrence </tspan><tspan x="24.41" y="48">Letter</tspan></text><rect class="bf6de55a-1ab0-497d-ab4f-21070ffeb822" x="349.26" y="456.23" width="94.67" height="82.94"/><text class="b3b4432c-4cd7-4e8b-83e9-aaae770c930f" transform="translate(363.1 476.65)">Run report of <tspan x="17.31" y="12">active </tspan><tspan x="0.08" y="24">subrecipients </tspan><tspan x="8.4" y="36">that meet </tspan><tspan x="9.24" y="48">threshold </tspan></text><rect class="bf6de55a-1ab0-497d-ab4f-21070ffeb822" x="848.37" y="456.23" width="94.67" height="82.94"/><text class="b3b4432c-4cd7-4e8b-83e9-aaae770c930f" transform="translate(869.26 476.65)">Send list of <tspan x="-5.36" y="12">subrecipients </tspan><tspan x="-6.1" y="24">requiring EEO </tspan><tspan x="-12.74" y="36">Report to CRBRC</tspan></text><text class="b3b4432c-4cd7-4e8b-83e9-aaae770c930f" transform="translate(349.14 557.21)">$ amount requested <tspan x="5.1" y="12">or awarded &amp; # of </tspan><tspan x="13.34" y="24">t</tspan><tspan class="e1849a23-b90c-4b0d-8b1b-5474b329a109" x="17.31" y="24">r</tspan><tspan x="21.27" y="24">ansit-related </tspan><tspan x="22.33" y="36">employees</tspan></text><rect class="bf6de55a-1ab0-497d-ab4f-21070ffeb822" x="348.27" y="199.5" width="94.67" height="82.94"/><text class="b3b4432c-4cd7-4e8b-83e9-aaae770c930f" transform="translate(363.48 226.41)">Request ist of <tspan x="0.69" y="12">subrecipients </tspan><tspan x="9" y="24">that meet </tspan><tspan x="9.85" y="36">threshold </tspan></text><rect class="bf6de55a-1ab0-497d-ab4f-21070ffeb822" x="220.55" y="813.65" width="111.63" height="82.94"/><text class="b3b4432c-4cd7-4e8b-83e9-aaae770c930f" transform="translate(237.86 834.08)">Submit a copy of <tspan x="-7.74" y="12">company</tspan><tspan class="adb58d3d-7025-4154-b2f3-e52c9be40d43" x="34.02" y="12">’</tspan><tspan x="36.99" y="12">s EEO Plan </tspan><tspan x="-3.69" y="24">to CRBRC with the </tspan><tspan x="-0.76" y="36">F</tspan><tspan class="bccdd0e4-ae9b-4954-bd8b-a024edd21840" x="5.07" y="36">T</tspan><tspan class="e58e7737-3ae3-4a65-ab6e-8af88d8c8140" x="10.24" y="36">A</tspan><tspan x="16.02" y="36" xml:space="preserve"> Concurrence </tspan><tspan x="24.41" y="48">Letter</tspan></text><polyline class="bf6de55a-1ab0-497d-ab4f-21070ffeb822" points="174.21 284.04 174.21 857.55 220.83 857.55"/><polygon class="a5439e69-33f6-44bc-ad78-c5c8ba9d43e0" points="168.23 285.79 174.21 275.42 180.19 285.79 168.23 285.79"/><text class="b3b4432c-4cd7-4e8b-83e9-aaae770c930f" transform="translate(270.61 110.24)">Update employee <tspan x="6.02" y="12">level in agency </tspan><tspan x="4.16" y="24">profile annually </tspan><tspan x="15.22" y="36">(COTRAMS)</tspan></text><polyline class="bf6de55a-1ab0-497d-ab4f-21070ffeb822" points="314.85 158.53 314.85 497.35 337.62 497.35"/><polygon class="a5439e69-33f6-44bc-ad78-c5c8ba9d43e0" points="335.87 503.33 346.23 497.35 335.87 491.36 335.87 503.33"/><text class="b3b4432c-4cd7-4e8b-83e9-aaae770c930f" transform="translate(846.28 121.97)">Submit EEO report <tspan x="17.47" y="12">(COTRAMS)</tspan></text><text class="b3b4432c-4cd7-4e8b-83e9-aaae770c930f" transform="translate(1160.02 361.82)">Send email <tspan x="-16.39" y="12">through COTRAMS</tspan></text><text class="b3b4432c-4cd7-4e8b-83e9-aaae770c930f" transform="translate(1326.97 239.39)">Send email <tspan x="-16.39" y="12">through COTRAMS</tspan></text><polyline class="bf6de55a-1ab0-497d-ab4f-21070ffeb822" points="942.89 124.69 1046.56 124.69 1046.56 186.4"/><polygon class="a5439e69-33f6-44bc-ad78-c5c8ba9d43e0" points="1040.58 184.65 1046.56 195.01 1052.54 184.65 1040.58 184.65"/><line class="bf6de55a-1ab0-497d-ab4f-21070ffeb822" x1="443.68" y1="497.35" x2="488.87" y2="497.35"/><polygon class="a5439e69-33f6-44bc-ad78-c5c8ba9d43e0" points="487.12 503.33 497.48 497.35 487.12 491.36 487.12 503.33"/><line class="bf6de55a-1ab0-497d-ab4f-21070ffeb822" x1="553.34" y1="539.41" x2="553.34" y2="584.6"/><polygon class="a5439e69-33f6-44bc-ad78-c5c8ba9d43e0" points="547.36 582.85 553.34 593.22 559.32 582.85 547.36 582.85"/><line class="bf6de55a-1ab0-497d-ab4f-21070ffeb822" x1="606.53" y1="497.35" x2="661.94" y2="497.35"/><polygon class="a5439e69-33f6-44bc-ad78-c5c8ba9d43e0" points="660.19 503.33 670.55 497.35 660.19 491.36 660.19 503.33"/><line class="bf6de55a-1ab0-497d-ab4f-21070ffeb822" x1="219.5" y1="713.78" x2="174.46" y2="713.78"/><line class="bf6de55a-1ab0-497d-ab4f-21070ffeb822" x1="395.64" y1="282.33" x2="395.64" y2="444.43"/><polygon class="a5439e69-33f6-44bc-ad78-c5c8ba9d43e0" points="389.66 442.68 395.64 453.04 401.63 442.68 389.66 442.68"/><rect class="bf6de55a-1ab0-497d-ab4f-21070ffeb822" x="848.69" y="199.5" width="94.67" height="82.94"/><text class="b3b4432c-4cd7-4e8b-83e9-aaae770c930f" transform="translate(878 226.41)">Contact <tspan x="-17.58" y="12">subrecipient to </tspan><tspan x="-8.47" y="24">submit EEO </tspan><tspan x="3.16" y="36">report</tspan></text><rect class="bf6de55a-1ab0-497d-ab4f-21070ffeb822" x="998.69" y="199.5" width="94.67" height="82.94"/><text class="b3b4432c-4cd7-4e8b-83e9-aaae770c930f" transform="translate(1014.61 236.84)">Conduct desk <tspan x="19.42" y="12">audit</tspan></text><rect class="bf6de55a-1ab0-497d-ab4f-21070ffeb822" x="1310.44" y="330.84" width="94.67" height="82.94"/><text class="b3b4432c-4cd7-4e8b-83e9-aaae770c930f" transform="translate(1316.76 363.98)">Contact recipient <tspan x="18.63" y="12">regarding </tspan><tspan x="12.74" y="25">deficiencies</tspan></text><rect class="ef9d49bf-43d5-4ac2-b38d-59b01dc443fe" x="1514.71" y="144.44" width="94.67" height="330.67"/><path class="a5439e69-33f6-44bc-ad78-c5c8ba9d43e0" d="M1538,271.68l-.53,1.05a1.86,1.86,0,0,0-1.36-.42,1.77,1.77,0,0,0-1.47.75,3,3,0,0,0-.57,1.89,2.88,2.88,0,0,0,.53,1.82,1.71,1.71,0,0,0,1.41.68,1.89,1.89,0,0,0,1.59-.73l.59,1a3,3,0,0,1-2.28.83,2.88,2.88,0,0,1-2.33-1,4.08,4.08,0,0,1-.83-2.69,3.92,3.92,0,0,1,.92-2.65,3,3,0,0,1,2.36-1.07A3.41,3.41,0,0,1,1538,271.68Z"/><path class="a5439e69-33f6-44bc-ad78-c5c8ba9d43e0" d="M1543.29,278.45l-1.91-2.95-.81,0v3h-1.32V271.3l.83,0,1.16,0c1.81,0,2.72.7,2.72,2.11a1.91,1.91,0,0,1-.38,1.15,2,2,0,0,1-.94.74l2.11,3.22Zm-2.72-6.05v2l.54,0a2.4,2.4,0,0,0,1.16-.22,1,1,0,0,0,.37-.88.77.77,0,0,0-.39-.74,2.81,2.81,0,0,0-1.25-.21Z"/><path class="a5439e69-33f6-44bc-ad78-c5c8ba9d43e0" d="M1547.55,278.45h-2.19V271.3c1,0,1.64-.06,2-.06a2.88,2.88,0,0,1,1.74.47,1.61,1.61,0,0,1,.63,1.36,1.5,1.5,0,0,1-.9,1.35,1.83,1.83,0,0,1,1.33,1.91,1.87,1.87,0,0,1-.74,1.55A3,3,0,0,1,1547.55,278.45Zm-.92-6.13V274c.2,0,.4,0,.62,0,.82,0,1.24-.31,1.24-.93s-.38-.82-1.13-.82C1547.16,272.3,1546.92,272.3,1546.63,272.32Zm0,2.71v2.36l.63,0a2,2,0,0,0,1.23-.29,1.12,1.12,0,0,0,.38-.95,1.07,1.07,0,0,0-.35-.89,2.08,2.08,0,0,0-1.25-.28Z"/><path class="a5439e69-33f6-44bc-ad78-c5c8ba9d43e0" d="M1555.35,278.45l-1.91-2.95-.81,0v3h-1.32V271.3l.83,0,1.16,0c1.81,0,2.72.7,2.72,2.11a1.85,1.85,0,0,1-.38,1.15,2,2,0,0,1-.94.74l2.11,3.22Zm-2.72-6.05v2l.54,0a2.4,2.4,0,0,0,1.16-.22,1,1,0,0,0,.37-.88.77.77,0,0,0-.39-.74,2.81,2.81,0,0,0-1.25-.21Z"/><path class="a5439e69-33f6-44bc-ad78-c5c8ba9d43e0" d="M1562.32,271.68l-.52,1.05a1.89,1.89,0,0,0-1.37-.42,1.76,1.76,0,0,0-1.46.75,3,3,0,0,0-.57,1.89,2.88,2.88,0,0,0,.53,1.82,1.7,1.7,0,0,0,1.41.68,1.88,1.88,0,0,0,1.58-.73l.59,1a3,3,0,0,1-2.27.83,2.87,2.87,0,0,1-2.33-1,4.08,4.08,0,0,1-.83-2.69,3.92,3.92,0,0,1,.92-2.65,3,3,0,0,1,2.36-1.07A3.37,3.37,0,0,1,1562.32,271.68Z"/><path class="a5439e69-33f6-44bc-ad78-c5c8ba9d43e0" d="M1563.87,280.28l-.42-.53q.9-.67.9-1.05a.48.48,0,0,0-.11-.29.69.69,0,0,1-.46-.63.6.6,0,0,1,.24-.49,1,1,0,0,1,.61-.19.82.82,0,0,1,.59.26.85.85,0,0,1,.25.59,2.29,2.29,0,0,1-.29,1.13A4.36,4.36,0,0,1,1563.87,280.28Z"/><path class="a5439e69-33f6-44bc-ad78-c5c8ba9d43e0" d="M1571.81,278.45h-1.59V271.3l1.91-.05a3.34,3.34,0,0,1,2.48.92,3.29,3.29,0,0,1,.92,2.43Q1575.53,278.46,1571.81,278.45Zm-.32-6v4.89c.21,0,.43,0,.67,0a1.81,1.81,0,0,0,1.5-.7,3.09,3.09,0,0,0,.55-2c0-1.53-.71-2.29-2.13-2.29Z"/><path class="a5439e69-33f6-44bc-ad78-c5c8ba9d43e0" d="M1579.56,272.43v6h-1.27v-6H1576V271.3h5.92v1.13Z"/><path class="a5439e69-33f6-44bc-ad78-c5c8ba9d43e0" d="M1586.8,278.45l-1.91-2.95-.8,0v3h-1.32V271.3l.82,0,1.16,0c1.82,0,2.73.7,2.73,2.11a1.91,1.91,0,0,1-.38,1.15,2,2,0,0,1-.95.74l2.12,3.22Zm-2.71-6.05v2l.53,0a2.47,2.47,0,0,0,1.17-.22,1,1,0,0,0,.37-.88.76.76,0,0,0-.4-.74,2.77,2.77,0,0,0-1.24-.21Z"/><path class="a5439e69-33f6-44bc-ad78-c5c8ba9d43e0" d="M1589.2,280.28l-.41-.53c.59-.45.89-.8.89-1.05a.46.46,0,0,0-.1-.29.69.69,0,0,1-.46-.63.6.6,0,0,1,.24-.49,1,1,0,0,1,.61-.19.78.78,0,0,1,.58.26.82.82,0,0,1,.26.59,2.29,2.29,0,0,1-.29,1.13A4.43,4.43,0,0,1,1589.2,280.28Z"/><path class="a5439e69-33f6-44bc-ad78-c5c8ba9d43e0" d="M1533.16,290.12l.43-1a2,2,0,0,0,1.24.44c.47,0,.71-.17.71-.51a.64.64,0,0,0-.21-.49,3.89,3.89,0,0,0-.84-.45c-.9-.37-1.35-.89-1.35-1.57a1.24,1.24,0,0,1,.52-1.06,2.17,2.17,0,0,1,1.32-.37,3.35,3.35,0,0,1,1.53.36l-.35.95a1.64,1.64,0,0,0-1.11-.34c-.43,0-.64.17-.64.51a.46.46,0,0,0,.21.36,4.76,4.76,0,0,0,.9.43,2.25,2.25,0,0,1,1,.66,1.44,1.44,0,0,1,.3.93,1.37,1.37,0,0,1-.54,1.14,2.34,2.34,0,0,1-1.47.42,3.69,3.69,0,0,1-.83-.08A4.79,4.79,0,0,1,1533.16,290.12Z"/><path class="a5439e69-33f6-44bc-ad78-c5c8ba9d43e0" d="M1541.16,290.46V290a2.11,2.11,0,0,1-.72.37,2.43,2.43,0,0,1-.83.16c-1.21,0-1.82-.64-1.82-1.93v-3.4H1539v3.3c0,.67.3,1,.9,1a1.46,1.46,0,0,0,.77-.21,1.14,1.14,0,0,0,.48-.5v-3.6h1.22v5.24Z"/><path class="a5439e69-33f6-44bc-ad78-c5c8ba9d43e0" d="M1544.56,290.17l-.27.38h-.69v-7.27l1.22-.3v2.44a2.09,2.09,0,0,1,1.06-.29,2.45,2.45,0,0,1,1.85.72,2.57,2.57,0,0,1,.71,1.86,3,3,0,0,1-.71,2.08,2.48,2.48,0,0,1-1.92.76A2.1,2.1,0,0,1,1544.56,290.17Zm.26-3.7v2.73a.91.91,0,0,0,.73.32,1.6,1.6,0,0,0,1.25-.42,2.05,2.05,0,0,0,.37-1.35q0-1.59-1.53-1.59A1,1,0,0,0,1544.82,286.47Z"/><path class="a5439e69-33f6-44bc-ad78-c5c8ba9d43e0" d="M1552.53,286.36a1.26,1.26,0,0,0-.71-.21,1,1,0,0,0-.76.38,1.4,1.4,0,0,0-.33.94v3h-1.22v-5.23h1.22v.48a1.74,1.74,0,0,1,1.36-.57,1.92,1.92,0,0,1,1,.19Z"/><path class="a5439e69-33f6-44bc-ad78-c5c8ba9d43e0" d="M1558.45,288.21h-3.73a1.28,1.28,0,0,0,.43,1,1.51,1.51,0,0,0,1.06.35,1.71,1.71,0,0,0,1.27-.43l.47.93a3,3,0,0,1-1.92.52,2.52,2.52,0,0,1-1.89-.7,2.64,2.64,0,0,1-.7-2,2.71,2.71,0,0,1,.77-2,2.7,2.7,0,0,1,3.66-.09,2.33,2.33,0,0,1,.68,1.73A3.23,3.23,0,0,1,1558.45,288.21Zm-3.69-.92h2.57a1.15,1.15,0,0,0-1.27-1.14A1.25,1.25,0,0,0,1554.76,287.29Z"/><path class="a5439e69-33f6-44bc-ad78-c5c8ba9d43e0" d="M1563.63,285.64l-.52.91a1.61,1.61,0,0,0-1.15-.4,1.38,1.38,0,0,0-1.1.46,1.86,1.86,0,0,0-.4,1.27c0,1.1.52,1.65,1.57,1.65a1.75,1.75,0,0,0,1.19-.45l.45,1a3.06,3.06,0,0,1-.93.42,4.28,4.28,0,0,1-.94.09,2.53,2.53,0,0,1-1.91-.71,3,3,0,0,1,.07-3.95,2.81,2.81,0,0,1,2.09-.76A2.55,2.55,0,0,1,1563.63,285.64Z"/><path class="a5439e69-33f6-44bc-ad78-c5c8ba9d43e0" d="M1565,290.45v-4.23h-.67v-1h1.9v5.23Zm.63-7.25a.7.7,0,0,1,.7.71.71.71,0,1,1-1.41,0,.69.69,0,0,1,.2-.5A.69.69,0,0,1,1565.61,283.2Z"/><path class="a5439e69-33f6-44bc-ad78-c5c8ba9d43e0" d="M1568.75,290.32v2.18h-1.22v-7.28h1.22v.36a1.57,1.57,0,0,1,1.13-.45c1.67,0,2.5.91,2.5,2.75a2.68,2.68,0,0,1-.69,2,2.55,2.55,0,0,1-1.89.69A2.45,2.45,0,0,1,1568.75,290.32Zm0-3.82v2.75a1.21,1.21,0,0,0,.78.27,1.56,1.56,0,0,0,1.21-.4,1.84,1.84,0,0,0,.37-1.27,1.88,1.88,0,0,0-.36-1.31,1.65,1.65,0,0,0-1.21-.38A1.08,1.08,0,0,0,1568.75,286.5Z"/><path class="a5439e69-33f6-44bc-ad78-c5c8ba9d43e0" d="M1573.78,290.45v-4.23h-.66v-1h1.9v5.23Zm.63-7.25a.72.72,0,0,1,.71.71.7.7,0,0,1-.71.7.68.68,0,0,1-.7-.7.7.7,0,0,1,.7-.71Z"/><path class="a5439e69-33f6-44bc-ad78-c5c8ba9d43e0" d="M1581.11,288.21h-3.74a1.36,1.36,0,0,0,.43,1,1.53,1.53,0,0,0,1.07.35,1.73,1.73,0,0,0,1.27-.43l.47.93a3,3,0,0,1-1.92.52,2.56,2.56,0,0,1-1.9-.7,2.68,2.68,0,0,1-.69-2,2.71,2.71,0,0,1,.76-2,2.7,2.7,0,0,1,3.66-.09,2.34,2.34,0,0,1,.69,1.73A3.23,3.23,0,0,1,1581.11,288.21Zm-3.69-.92H1580a1.15,1.15,0,0,0-1.27-1.14A1.25,1.25,0,0,0,1577.42,287.29Z"/><path class="a5439e69-33f6-44bc-ad78-c5c8ba9d43e0" d="M1585.55,290.45v-3a1.55,1.55,0,0,0-.25-1,1.06,1.06,0,0,0-.84-.3,1.35,1.35,0,0,0-.58.15,1.27,1.27,0,0,0-.47.37v3.78h-1.22v-5.23h.88l.22.49a1.82,1.82,0,0,1,1.47-.58,2,2,0,0,1,1.47.55,2.19,2.19,0,0,1,.54,1.57v3.2Z"/><path class="a5439e69-33f6-44bc-ad78-c5c8ba9d43e0" d="M1588.28,286.21h-.61v-1h.61v-1.06l1.22-.45v1.51h1.43v1h-1.43v2.29a1.42,1.42,0,0,0,.17.79.76.76,0,0,0,.62.23,1.53,1.53,0,0,0,.82-.24v1.12a3.8,3.8,0,0,1-1.21.15,1.59,1.59,0,0,1-1.2-.44,1.76,1.76,0,0,1-.42-1.26Z"/><path class="a5439e69-33f6-44bc-ad78-c5c8ba9d43e0" d="M1535.33,297.64l-.52.91a1.61,1.61,0,0,0-1.15-.4,1.37,1.37,0,0,0-1.1.46,1.86,1.86,0,0,0-.4,1.27c0,1.1.52,1.65,1.57,1.65a1.75,1.75,0,0,0,1.19-.45l.45,1a3.06,3.06,0,0,1-.93.42,4.28,4.28,0,0,1-.94.09,2.53,2.53,0,0,1-1.91-.71,3,3,0,0,1,.07-3.95,2.81,2.81,0,0,1,2.09-.76A2.55,2.55,0,0,1,1535.33,297.64Z"/><path class="a5439e69-33f6-44bc-ad78-c5c8ba9d43e0" d="M1536,299.83a2.77,2.77,0,0,1,.69-1.95,2.36,2.36,0,0,1,1.82-.75,2.39,2.39,0,0,1,1.85.72,3.28,3.28,0,0,1,0,4,2.34,2.34,0,0,1-1.84.74,2.37,2.37,0,0,1-1.85-.74A2.89,2.89,0,0,1,1536,299.83Zm1.27,0c0,1.15.41,1.72,1.24,1.72a1.08,1.08,0,0,0,.91-.44,2.14,2.14,0,0,0,.33-1.28c0-1.14-.41-1.71-1.24-1.71a1.09,1.09,0,0,0-.91.45A2.1,2.1,0,0,0,1537.28,299.83Z"/><path class="a5439e69-33f6-44bc-ad78-c5c8ba9d43e0" d="M1541.67,299.83a2.77,2.77,0,0,1,.69-1.95,2.35,2.35,0,0,1,1.82-.75,2.39,2.39,0,0,1,1.85.72,3.28,3.28,0,0,1,0,4,2.34,2.34,0,0,1-1.84.74,2.37,2.37,0,0,1-1.85-.74A2.89,2.89,0,0,1,1541.67,299.83Zm1.26,0c0,1.15.42,1.72,1.25,1.72a1.08,1.08,0,0,0,.91-.44,2.14,2.14,0,0,0,.33-1.28c0-1.14-.41-1.71-1.24-1.71a1.09,1.09,0,0,0-.91.45A2.1,2.1,0,0,0,1542.93,299.83Z"/><path class="a5439e69-33f6-44bc-ad78-c5c8ba9d43e0" d="M1550.69,298.36a1.32,1.32,0,0,0-.72-.21,1,1,0,0,0-.75.38,1.4,1.4,0,0,0-.33.94v3h-1.22v-5.23h1.22v.48a1.73,1.73,0,0,1,1.36-.57,1.94,1.94,0,0,1,1,.19Z"/><path class="a5439e69-33f6-44bc-ad78-c5c8ba9d43e0" d="M1555.3,302.45v-.31a1.31,1.31,0,0,1-.51.29,2.36,2.36,0,0,1-.75.12,2.21,2.21,0,0,1-1.72-.69,2.78,2.78,0,0,1-.63-1.94,2.83,2.83,0,0,1,.72-2,2.51,2.51,0,0,1,2.89-.54v-2.09l1.22-.3v7.47Zm0-4a1.27,1.27,0,0,0-.81-.31,1.42,1.42,0,0,0-1.13.45,1.89,1.89,0,0,0-.4,1.28,1.42,1.42,0,0,0,1.58,1.63,1.18,1.18,0,0,0,.43-.1.77.77,0,0,0,.33-.22Z"/><path class="a5439e69-33f6-44bc-ad78-c5c8ba9d43e0" d="M1558.07,302.45v-4.23h-.67v-1h1.91v5.23Zm.63-7.25a.67.67,0,0,1,.5.21.66.66,0,0,1,.21.5.69.69,0,0,1-.21.5.7.7,0,0,1-.5.2.72.72,0,0,1-.5-.2.69.69,0,0,1-.21-.5.66.66,0,0,1,.21-.5A.69.69,0,0,1,1558.7,295.2Z"/><path class="a5439e69-33f6-44bc-ad78-c5c8ba9d43e0" d="M1564.09,302.45v-3a1.55,1.55,0,0,0-.25-1,1.06,1.06,0,0,0-.84-.3,1.35,1.35,0,0,0-.58.15,1.27,1.27,0,0,0-.47.37v3.78h-1.22v-5.23h.88l.22.49a1.82,1.82,0,0,1,1.47-.58,2,2,0,0,1,1.47.55,2.19,2.19,0,0,1,.54,1.57v3.2Z"/><path class="a5439e69-33f6-44bc-ad78-c5c8ba9d43e0" d="M1569.54,301.93a1.2,1.2,0,0,1-.58.45,2.27,2.27,0,0,1-.86.17,2,2,0,0,1-1.33-.42,1.51,1.51,0,0,1-.48-1.2,1.68,1.68,0,0,1,.68-1.42,3.18,3.18,0,0,1,1.94-.51,2,2,0,0,1,.5.07c0-.62-.39-.92-1.16-.92a2.53,2.53,0,0,0-1.16.23l-.26-.95a3.46,3.46,0,0,1,1.5-.3,2.43,2.43,0,0,1,1.75.54,2.89,2.89,0,0,1,.56,2.06v1.12q0,1,.42,1.32a.65.65,0,0,1-.34.32,1.33,1.33,0,0,1-.42.06.68.68,0,0,1-.48-.19A1,1,0,0,1,1569.54,301.93Zm-.12-1.94a2.61,2.61,0,0,0-.46-.06c-1,0-1.45.32-1.45.95,0,.46.27.7.82.7a1,1,0,0,0,1.09-1.1Z"/><path class="a5439e69-33f6-44bc-ad78-c5c8ba9d43e0" d="M1572.14,298.21h-.6v-1h.6v-1.06l1.22-.45v1.51h1.44v1h-1.44v2.29a1.33,1.33,0,0,0,.18.79.74.74,0,0,0,.62.23,1.53,1.53,0,0,0,.82-.24v1.12a3.87,3.87,0,0,1-1.22.15,1.59,1.59,0,0,1-1.2-.44,1.76,1.76,0,0,1-.42-1.26Z"/><path class="a5439e69-33f6-44bc-ad78-c5c8ba9d43e0" d="M1580.59,300.21h-3.73a1.28,1.28,0,0,0,.43,1,1.49,1.49,0,0,0,1.06.35,1.71,1.71,0,0,0,1.27-.43l.47.93a3,3,0,0,1-1.92.52,2.52,2.52,0,0,1-1.89-.7,2.64,2.64,0,0,1-.7-2,2.71,2.71,0,0,1,.77-2,2.69,2.69,0,0,1,3.65-.09,2.34,2.34,0,0,1,.69,1.73A3.23,3.23,0,0,1,1580.59,300.21Zm-3.69-.92h2.57a1.15,1.15,0,0,0-1.27-1.14A1.25,1.25,0,0,0,1576.9,299.29Z"/><path class="a5439e69-33f6-44bc-ad78-c5c8ba9d43e0" d="M1584.87,298.21h-.61v-1h.61v-1.06l1.22-.45v1.51h1.43v1h-1.43v2.29a1.42,1.42,0,0,0,.17.79.76.76,0,0,0,.62.23,1.51,1.51,0,0,0,.82-.24v1.12a3.8,3.8,0,0,1-1.21.15,1.59,1.59,0,0,1-1.2-.44,1.76,1.76,0,0,1-.42-1.26Z"/><path class="a5439e69-33f6-44bc-ad78-c5c8ba9d43e0" d="M1588.31,299.83a2.77,2.77,0,0,1,.69-1.95,2.35,2.35,0,0,1,1.82-.75,2.39,2.39,0,0,1,1.85.72,3.28,3.28,0,0,1,0,4,2.34,2.34,0,0,1-1.84.74,2.37,2.37,0,0,1-1.85-.74A2.89,2.89,0,0,1,1588.31,299.83Zm1.27,0c0,1.15.41,1.72,1.24,1.72a1.08,1.08,0,0,0,.91-.44,2.14,2.14,0,0,0,.33-1.28c0-1.14-.41-1.71-1.24-1.71a1.09,1.09,0,0,0-.91.45A2.1,2.1,0,0,0,1589.58,299.83Z"/><path class="a5439e69-33f6-44bc-ad78-c5c8ba9d43e0" d="M1525,314.45v-.31a1.31,1.31,0,0,1-.51.29,2.36,2.36,0,0,1-.75.12,2.22,2.22,0,0,1-1.72-.69,3.25,3.25,0,0,1,.1-3.95,2.35,2.35,0,0,1,1.8-.78,2.38,2.38,0,0,1,1.08.24v-2.09l1.23-.3v7.47Zm0-4a1.27,1.27,0,0,0-.81-.31,1.42,1.42,0,0,0-1.13.45,1.88,1.88,0,0,0-.39,1.28c0,1.09.52,1.63,1.57,1.63a1.14,1.14,0,0,0,.43-.1.77.77,0,0,0,.33-.22Z"/><path class="a5439e69-33f6-44bc-ad78-c5c8ba9d43e0" d="M1532.13,312.21h-3.73a1.28,1.28,0,0,0,.43,1,1.51,1.51,0,0,0,1.06.35,1.71,1.71,0,0,0,1.27-.43l.48.93a3,3,0,0,1-1.93.52,2.52,2.52,0,0,1-1.89-.7,2.68,2.68,0,0,1-.7-2,2.71,2.71,0,0,1,.77-2,2.7,2.7,0,0,1,3.66-.09,2.34,2.34,0,0,1,.69,1.73A3.41,3.41,0,0,1,1532.13,312.21Zm-3.69-.92H1531a1.14,1.14,0,0,0-1.27-1.14A1.25,1.25,0,0,0,1528.44,311.29Z"/><path class="a5439e69-33f6-44bc-ad78-c5c8ba9d43e0" d="M1535.38,314.55h-.44l-2.36-5.33h1.34l1.25,3.2,1.34-3.2h1.29Z"/><path class="a5439e69-33f6-44bc-ad78-c5c8ba9d43e0" d="M1543.15,312.21h-3.73a1.28,1.28,0,0,0,.43,1,1.51,1.51,0,0,0,1.06.35,1.71,1.71,0,0,0,1.27-.43l.48.93a3,3,0,0,1-1.93.52,2.54,2.54,0,0,1-1.89-.7,2.68,2.68,0,0,1-.7-2,2.71,2.71,0,0,1,.77-2,2.7,2.7,0,0,1,3.66-.09,2.34,2.34,0,0,1,.69,1.73A3.41,3.41,0,0,1,1543.15,312.21Zm-3.69-.92H1542a1.14,1.14,0,0,0-1.27-1.14A1.25,1.25,0,0,0,1539.46,311.29Z"/><path class="a5439e69-33f6-44bc-ad78-c5c8ba9d43e0" d="M1544.44,307.28l1.22-.3v5.88c0,.65.2,1,.58,1.15a1,1,0,0,1-1,.54c-.55,0-.83-.38-.83-1.15Z"/><path class="a5439e69-33f6-44bc-ad78-c5c8ba9d43e0" d="M1546.84,311.83a2.77,2.77,0,0,1,.69-1.95,2.67,2.67,0,0,1,3.68,0,3.26,3.26,0,0,1,0,4,2.32,2.32,0,0,1-1.83.74,2.37,2.37,0,0,1-1.86-.74A2.89,2.89,0,0,1,1546.84,311.83Zm1.27,0c0,1.15.42,1.72,1.25,1.72a1,1,0,0,0,.9-.44,2.14,2.14,0,0,0,.34-1.28c0-1.14-.42-1.71-1.24-1.71a1.06,1.06,0,0,0-.91.45A2,2,0,0,0,1548.11,311.83Z"/><path class="a5439e69-33f6-44bc-ad78-c5c8ba9d43e0" d="M1554,314.32v2.18h-1.22v-7.28H1554v.36a1.57,1.57,0,0,1,1.13-.45c1.67,0,2.5.91,2.5,2.75a2.68,2.68,0,0,1-.69,2,2.55,2.55,0,0,1-1.89.69A2.45,2.45,0,0,1,1554,314.32Zm0-3.82v2.75a1.21,1.21,0,0,0,.78.27,1.56,1.56,0,0,0,1.21-.4,1.84,1.84,0,0,0,.37-1.27,1.88,1.88,0,0,0-.36-1.31,1.65,1.65,0,0,0-1.21-.38A1.08,1.08,0,0,0,1554,310.5Z"/><path class="a5439e69-33f6-44bc-ad78-c5c8ba9d43e0" d="M1564.59,313.93a1.2,1.2,0,0,1-.58.45,2.27,2.27,0,0,1-.86.17,2,2,0,0,1-1.33-.42,1.51,1.51,0,0,1-.48-1.2,1.65,1.65,0,0,1,.68-1.42A3.18,3.18,0,0,1,1564,311a2,2,0,0,1,.5.07c0-.62-.39-.92-1.16-.92a2.53,2.53,0,0,0-1.16.23l-.26-.95a3.46,3.46,0,0,1,1.5-.3,2.43,2.43,0,0,1,1.75.54,2.89,2.89,0,0,1,.56,2.06v1.12q0,1,.42,1.32a.65.65,0,0,1-.34.32,1.33,1.33,0,0,1-.42.06.68.68,0,0,1-.48-.19A1,1,0,0,1,1564.59,313.93Zm-.12-1.94a2.7,2.7,0,0,0-.47-.06c-1,0-1.44.32-1.44.95,0,.46.27.7.81.7a1,1,0,0,0,1.1-1.1Z"/><path class="a5439e69-33f6-44bc-ad78-c5c8ba9d43e0" d="M1574.12,309.64l-.52.91a1.61,1.61,0,0,0-1.15-.4,1.37,1.37,0,0,0-1.1.46,1.86,1.86,0,0,0-.4,1.27q0,1.65,1.56,1.65a1.76,1.76,0,0,0,1.2-.45l.45,1a3.06,3.06,0,0,1-.93.42,4.35,4.35,0,0,1-.94.09,2.53,2.53,0,0,1-1.91-.71,2.63,2.63,0,0,1-.7-2,2.68,2.68,0,0,1,.76-2,2.84,2.84,0,0,1,2.09-.76A2.56,2.56,0,0,1,1574.12,309.64Z"/><path class="a5439e69-33f6-44bc-ad78-c5c8ba9d43e0" d="M1574.79,311.83a2.77,2.77,0,0,1,.7-1.95,2.35,2.35,0,0,1,1.82-.75,2.39,2.39,0,0,1,1.85.72,3.28,3.28,0,0,1,0,4,2.34,2.34,0,0,1-1.84.74,2.37,2.37,0,0,1-1.85-.74A2.89,2.89,0,0,1,1574.79,311.83Zm1.27,0c0,1.15.42,1.72,1.25,1.72a1.08,1.08,0,0,0,.91-.44,2.14,2.14,0,0,0,.33-1.28c0-1.14-.41-1.71-1.24-1.71a1.09,1.09,0,0,0-.91.45A2.1,2.1,0,0,0,1576.06,311.83Z"/><path class="a5439e69-33f6-44bc-ad78-c5c8ba9d43e0" d="M1583.82,310.36a1.32,1.32,0,0,0-.72-.21,1,1,0,0,0-.75.38,1.4,1.4,0,0,0-.33.94v3h-1.22v-5.23H1582v.48a1.73,1.73,0,0,1,1.36-.57,1.94,1.94,0,0,1,1,.19Z"/><path class="a5439e69-33f6-44bc-ad78-c5c8ba9d43e0" d="M1588.09,310.36a1.32,1.32,0,0,0-.72-.21,1,1,0,0,0-.75.38,1.4,1.4,0,0,0-.33.94v3h-1.22v-5.23h1.22v.48a1.73,1.73,0,0,1,1.36-.57,1.92,1.92,0,0,1,1,.19Z"/><path class="a5439e69-33f6-44bc-ad78-c5c8ba9d43e0" d="M1594,312.21h-3.74a1.36,1.36,0,0,0,.43,1,1.53,1.53,0,0,0,1.07.35,1.73,1.73,0,0,0,1.27-.43l.47.93a3,3,0,0,1-1.92.52,2.56,2.56,0,0,1-1.9-.7,2.68,2.68,0,0,1-.69-2,2.71,2.71,0,0,1,.76-2,2.7,2.7,0,0,1,3.66-.09,2.34,2.34,0,0,1,.69,1.73A3.23,3.23,0,0,1,1594,312.21Zm-3.69-.92h2.57a1.15,1.15,0,0,0-1.27-1.14A1.25,1.25,0,0,0,1590.32,311.29Z"/><path class="a5439e69-33f6-44bc-ad78-c5c8ba9d43e0" d="M1599.19,309.64l-.52.91a1.62,1.62,0,0,0-1.16-.4,1.36,1.36,0,0,0-1.09.46,1.86,1.86,0,0,0-.4,1.27q0,1.65,1.56,1.65a1.77,1.77,0,0,0,1.2-.45l.45,1a3.29,3.29,0,0,1-.93.42,4.35,4.35,0,0,1-.94.09,2.52,2.52,0,0,1-1.91-.71,2.63,2.63,0,0,1-.7-2,2.68,2.68,0,0,1,.76-2,2.83,2.83,0,0,1,2.09-.76A2.56,2.56,0,0,1,1599.19,309.64Z"/><path class="a5439e69-33f6-44bc-ad78-c5c8ba9d43e0" d="M1600.08,312.13V311h2.58v1.15Z"/><path class="a5439e69-33f6-44bc-ad78-c5c8ba9d43e0" d="M1526.48,322.21h-.61v-1h.61v-1.06l1.22-.45v1.51h1.43v1h-1.43v2.29a1.42,1.42,0,0,0,.17.79.76.76,0,0,0,.62.23,1.53,1.53,0,0,0,.82-.24v1.12a3.8,3.8,0,0,1-1.21.15,1.59,1.59,0,0,1-1.2-.44,1.76,1.76,0,0,1-.42-1.26Z"/><path class="a5439e69-33f6-44bc-ad78-c5c8ba9d43e0" d="M1530.58,326.45v-4.23h-.67v-1h1.91v5.23Zm.63-7.25a.72.72,0,0,1,.71.71.7.7,0,0,1-.71.7.72.72,0,0,1-.5-.2.69.69,0,0,1-.21-.5.66.66,0,0,1,.21-.5A.69.69,0,0,1,1531.21,319.2Z"/><path class="a5439e69-33f6-44bc-ad78-c5c8ba9d43e0" d="M1535.41,326.55H1535l-2.37-5.33h1.34l1.25,3.2,1.35-3.2h1.29Z"/><path class="a5439e69-33f6-44bc-ad78-c5c8ba9d43e0" d="M1543.18,324.21h-3.73a1.28,1.28,0,0,0,.43,1,1.49,1.49,0,0,0,1.06.35,1.71,1.71,0,0,0,1.27-.43l.47.93a3,3,0,0,1-1.92.52,2.52,2.52,0,0,1-1.89-.7,2.64,2.64,0,0,1-.7-2,2.71,2.71,0,0,1,.77-2,2.69,2.69,0,0,1,3.65-.09,2.34,2.34,0,0,1,.69,1.73A3.23,3.23,0,0,1,1543.18,324.21Zm-3.69-.92h2.57a1.15,1.15,0,0,0-1.27-1.14A1.25,1.25,0,0,0,1539.49,323.29Z"/><path class="a5439e69-33f6-44bc-ad78-c5c8ba9d43e0" d="M1550.18,325.93a1.2,1.2,0,0,1-.58.45,2.27,2.27,0,0,1-.86.17,2,2,0,0,1-1.33-.42,1.51,1.51,0,0,1-.48-1.2,1.68,1.68,0,0,1,.68-1.42,3.2,3.2,0,0,1,1.94-.51,2.12,2.12,0,0,1,.51.07c0-.62-.39-.92-1.17-.92a2.48,2.48,0,0,0-1.15.23l-.27-.95a3.46,3.46,0,0,1,1.5-.3,2.43,2.43,0,0,1,1.75.54,2.84,2.84,0,0,1,.56,2.06v1.12q0,1,.42,1.32a.65.65,0,0,1-.34.32,1.33,1.33,0,0,1-.42.06.66.66,0,0,1-.47-.19A1.06,1.06,0,0,1,1550.18,325.93Zm-.11-1.94a2.82,2.82,0,0,0-.47-.06c-1,0-1.45.32-1.45.95,0,.46.27.7.82.7a1,1,0,0,0,1.1-1.1Z"/><path class="a5439e69-33f6-44bc-ad78-c5c8ba9d43e0" d="M1556.7,321.64l-.52.91a1.61,1.61,0,0,0-1.15-.4,1.37,1.37,0,0,0-1.1.46,1.86,1.86,0,0,0-.4,1.27q0,1.65,1.56,1.65a1.76,1.76,0,0,0,1.2-.45l.45,1a3.06,3.06,0,0,1-.93.42,4.35,4.35,0,0,1-.94.09,2.53,2.53,0,0,1-1.91-.71,2.63,2.63,0,0,1-.7-2,2.68,2.68,0,0,1,.76-2,2.84,2.84,0,0,1,2.09-.76A2.56,2.56,0,0,1,1556.7,321.64Z"/><path class="a5439e69-33f6-44bc-ad78-c5c8ba9d43e0" d="M1557.9,322.21h-.6v-1h.6v-1.06l1.22-.45v1.51h1.44v1h-1.44v2.29a1.33,1.33,0,0,0,.18.79.74.74,0,0,0,.61.23,1.48,1.48,0,0,0,.82-.24v1.12a3.76,3.76,0,0,1-1.21.15,1.59,1.59,0,0,1-1.2-.44,1.76,1.76,0,0,1-.42-1.26Z"/><path class="a5439e69-33f6-44bc-ad78-c5c8ba9d43e0" d="M1562,326.45v-4.23h-.67v-1h1.9v5.23Zm.63-7.25a.69.69,0,0,1,.5.21.66.66,0,0,1,.21.5.69.69,0,0,1-.21.5.72.72,0,0,1-.5.2.7.7,0,0,1-.5-.2.69.69,0,0,1-.21-.5.66.66,0,0,1,.21-.5A.67.67,0,0,1,1562.64,319.2Z"/><path class="a5439e69-33f6-44bc-ad78-c5c8ba9d43e0" d="M1564.32,323.83a2.77,2.77,0,0,1,.69-1.95,2.67,2.67,0,0,1,3.68,0,2.82,2.82,0,0,1,.66,2,2.86,2.86,0,0,1-.67,2,2.34,2.34,0,0,1-1.84.74,2.39,2.39,0,0,1-1.86-.74A2.89,2.89,0,0,1,1564.32,323.83Zm1.27,0c0,1.15.42,1.72,1.25,1.72a1,1,0,0,0,.9-.44,2.07,2.07,0,0,0,.34-1.28c0-1.14-.42-1.71-1.24-1.71a1.07,1.07,0,0,0-.91.45A2.1,2.1,0,0,0,1565.59,323.83Z"/><path class="a5439e69-33f6-44bc-ad78-c5c8ba9d43e0" d="M1573.69,326.45v-3a1.55,1.55,0,0,0-.26-1,1,1,0,0,0-.84-.3,1.31,1.31,0,0,0-.57.15,1.4,1.4,0,0,0-.48.37v3.78h-1.22v-5.23h.88l.23.49a1.82,1.82,0,0,1,1.47-.58,2,2,0,0,1,1.47.55,2.19,2.19,0,0,1,.54,1.57v3.2Z"/><path class="a5439e69-33f6-44bc-ad78-c5c8ba9d43e0" d="M1580.36,326.32v2.18h-1.22v-7.28h1.22v.36a1.57,1.57,0,0,1,1.13-.45c1.67,0,2.5.91,2.5,2.75a2.68,2.68,0,0,1-.69,2,2.55,2.55,0,0,1-1.89.69A2.45,2.45,0,0,1,1580.36,326.32Zm0-3.82v2.75a1.19,1.19,0,0,0,.78.27,1.56,1.56,0,0,0,1.21-.4,1.84,1.84,0,0,0,.37-1.27,1.88,1.88,0,0,0-.36-1.31,1.67,1.67,0,0,0-1.22-.38A1.07,1.07,0,0,0,1580.36,322.5Z"/><path class="a5439e69-33f6-44bc-ad78-c5c8ba9d43e0" d="M1585.28,319.28l1.22-.3v5.88c0,.65.19,1,.57,1.15a1,1,0,0,1-1,.54c-.56,0-.83-.38-.83-1.15Z"/><path class="a5439e69-33f6-44bc-ad78-c5c8ba9d43e0" d="M1590.92,325.93a1.22,1.22,0,0,1-.57.45,2.36,2.36,0,0,1-.87.17,1.94,1.94,0,0,1-1.32-.42,1.48,1.48,0,0,1-.49-1.2,1.68,1.68,0,0,1,.68-1.42,3.2,3.2,0,0,1,1.94-.51,2.12,2.12,0,0,1,.51.07c0-.62-.39-.92-1.17-.92a2.48,2.48,0,0,0-1.15.23l-.27-.95a3.46,3.46,0,0,1,1.5-.3,2.46,2.46,0,0,1,1.76.54,2.89,2.89,0,0,1,.55,2.06v1.12q0,1,.42,1.32a.67.67,0,0,1-.33.32,1.44,1.44,0,0,1-.43.06.67.67,0,0,1-.47-.19A1.06,1.06,0,0,1,1590.92,325.93Zm-.11-1.94a2.82,2.82,0,0,0-.47-.06c-1,0-1.45.32-1.45.95,0,.46.28.7.82.7a1,1,0,0,0,1.1-1.1Z"/><path class="a5439e69-33f6-44bc-ad78-c5c8ba9d43e0" d="M1596.71,326.45v-3a1.55,1.55,0,0,0-.26-1,1,1,0,0,0-.84-.3,1.28,1.28,0,0,0-.57.15,1.31,1.31,0,0,0-.48.37v3.78h-1.22v-5.23h.88l.23.49a1.82,1.82,0,0,1,1.47-.58,2,2,0,0,1,1.47.55,2.19,2.19,0,0,1,.54,1.57v3.2Z"/><path class="a5439e69-33f6-44bc-ad78-c5c8ba9d43e0" d="M1557.16,337.93a1.2,1.2,0,0,1-.58.45,2.27,2.27,0,0,1-.86.17,2,2,0,0,1-1.33-.42,1.51,1.51,0,0,1-.48-1.2,1.68,1.68,0,0,1,.68-1.42,3.18,3.18,0,0,1,1.94-.51,2,2,0,0,1,.5.07c0-.62-.39-.92-1.16-.92a2.53,2.53,0,0,0-1.16.23l-.26-.95a3.46,3.46,0,0,1,1.5-.3,2.43,2.43,0,0,1,1.75.54,2.89,2.89,0,0,1,.56,2.06v1.12q0,1,.42,1.32a.65.65,0,0,1-.34.32,1.33,1.33,0,0,1-.42.06.68.68,0,0,1-.48-.19A1,1,0,0,1,1557.16,337.93ZM1557,336a2.7,2.7,0,0,0-.47-.06c-1,0-1.44.32-1.44.95,0,.46.27.7.81.7a1,1,0,0,0,1.1-1.1Z"/><path class="a5439e69-33f6-44bc-ad78-c5c8ba9d43e0" d="M1562.94,338.45v-3a1.55,1.55,0,0,0-.25-1,1.08,1.08,0,0,0-.84-.3,1.35,1.35,0,0,0-.58.15,1.27,1.27,0,0,0-.47.37v3.78h-1.22v-5.23h.88l.22.49a1.82,1.82,0,0,1,1.47-.58,2,2,0,0,1,1.47.55,2.19,2.19,0,0,1,.54,1.57v3.2Z"/><path class="a5439e69-33f6-44bc-ad78-c5c8ba9d43e0" d="M1568.84,338.45v-.31a1.31,1.31,0,0,1-.51.29,2.36,2.36,0,0,1-.75.12,2.22,2.22,0,0,1-1.72-.69,3.25,3.25,0,0,1,.1-3.95,2.35,2.35,0,0,1,1.8-.78,2.38,2.38,0,0,1,1.08.24v-2.09l1.23-.3v7.47Zm0-4a1.27,1.27,0,0,0-.81-.31,1.43,1.43,0,0,0-1.13.45,1.88,1.88,0,0,0-.39,1.28c0,1.09.52,1.63,1.57,1.63a1.14,1.14,0,0,0,.43-.1.77.77,0,0,0,.33-.22Z"/><path class="a5439e69-33f6-44bc-ad78-c5c8ba9d43e0" d="M1531.13,344.2a2,2,0,0,0-.61-.13.75.75,0,0,0-.59.29,1.15,1.15,0,0,0-.24.74v.12h1.09v1h-1.07v4.22h-1.22v-4.22h-.76v-1h.77a2.38,2.38,0,0,1,.56-1.55,1.78,1.78,0,0,1,1.37-.59,3.61,3.61,0,0,1,1.06.19Z"/><path class="a5439e69-33f6-44bc-ad78-c5c8ba9d43e0" d="M1531.57,347.83a2.77,2.77,0,0,1,.69-1.95,2.67,2.67,0,0,1,3.68,0,2.82,2.82,0,0,1,.66,2,2.86,2.86,0,0,1-.67,2,2.68,2.68,0,0,1-3.7,0A2.89,2.89,0,0,1,1531.57,347.83Zm1.27,0c0,1.15.42,1.72,1.25,1.72a1,1,0,0,0,.9-.44,2.07,2.07,0,0,0,.34-1.28c0-1.14-.42-1.71-1.24-1.71a1.07,1.07,0,0,0-.91.45A2,2,0,0,0,1532.84,347.83Z"/><path class="a5439e69-33f6-44bc-ad78-c5c8ba9d43e0" d="M1537.78,343.28l1.22-.3v5.88c0,.65.2,1,.58,1.15a1,1,0,0,1-1,.54c-.55,0-.83-.38-.83-1.15Z"/><path class="a5439e69-33f6-44bc-ad78-c5c8ba9d43e0" d="M1540.73,343.28l1.22-.3v5.88c0,.65.2,1,.58,1.15a1,1,0,0,1-1,.54c-.55,0-.83-.38-.83-1.15Z"/><path class="a5439e69-33f6-44bc-ad78-c5c8ba9d43e0" d="M1543.13,347.83a2.77,2.77,0,0,1,.69-1.95,2.36,2.36,0,0,1,1.82-.75,2.4,2.4,0,0,1,1.86.72,2.86,2.86,0,0,1,.65,2,2.81,2.81,0,0,1-.67,2,2.33,2.33,0,0,1-1.84.74,2.37,2.37,0,0,1-1.85-.74A2.89,2.89,0,0,1,1543.13,347.83Zm1.27,0c0,1.15.41,1.72,1.24,1.72a1.05,1.05,0,0,0,.91-.44,2.14,2.14,0,0,0,.33-1.28c0-1.14-.41-1.71-1.24-1.71a1.06,1.06,0,0,0-.9.45A2,2,0,0,0,1544.4,347.83Z"/><path class="a5439e69-33f6-44bc-ad78-c5c8ba9d43e0" d="M1554.27,350.55h-.45l-1.43-3.21-1.43,3.21h-.45l-2-5.33h1.28l1,3.12,1.28-3.12h.44l1.32,3.14,1.13-3.14h1.21Z"/><path class="a5439e69-33f6-44bc-ad78-c5c8ba9d43e0" d="M1556.84,348.13V347h2.58v1.15Z"/><path class="a5439e69-33f6-44bc-ad78-c5c8ba9d43e0" d="M1560.83,346.21h-.61v-1h.61v-1.06l1.22-.45v1.51h1.43v1h-1.43v2.29a1.34,1.34,0,0,0,.17.79.74.74,0,0,0,.62.23,1.53,1.53,0,0,0,.82-.24v1.12a3.84,3.84,0,0,1-1.21.15,1.58,1.58,0,0,1-1.2-.44,1.76,1.76,0,0,1-.42-1.26Z"/><path class="a5439e69-33f6-44bc-ad78-c5c8ba9d43e0" d="M1568,350.45v-3.22a1.06,1.06,0,0,0-.3-.78,1.14,1.14,0,0,0-.8-.29,1.31,1.31,0,0,0-.61.17,1.1,1.1,0,0,0-.44.37v3.75h-1.24v-7.17l1.24-.3v2.58a1.88,1.88,0,0,1,1.31-.43,2.06,2.06,0,0,1,1.52.54,2.11,2.11,0,0,1,.54,1.56v3.22Z"/><path class="a5439e69-33f6-44bc-ad78-c5c8ba9d43e0" d="M1573.55,346.36a1.26,1.26,0,0,0-.71-.21,1,1,0,0,0-.76.38,1.4,1.4,0,0,0-.33.94v3h-1.22v-5.23h1.22v.48a1.75,1.75,0,0,1,1.37-.57,1.9,1.9,0,0,1,1,.19Z"/><path class="a5439e69-33f6-44bc-ad78-c5c8ba9d43e0" d="M1574.46,347.83a2.77,2.77,0,0,1,.69-1.95,2.67,2.67,0,0,1,3.68,0,2.82,2.82,0,0,1,.66,2,2.86,2.86,0,0,1-.67,2,2.34,2.34,0,0,1-1.84.74,2.39,2.39,0,0,1-1.86-.74A2.89,2.89,0,0,1,1574.46,347.83Zm1.27,0c0,1.15.42,1.72,1.25,1.72a1,1,0,0,0,.9-.44,2.07,2.07,0,0,0,.34-1.28c0-1.14-.42-1.71-1.24-1.71a1.07,1.07,0,0,0-.91.45A2,2,0,0,0,1575.73,347.83Z"/><path class="a5439e69-33f6-44bc-ad78-c5c8ba9d43e0" d="M1583.83,350.46V350a2.05,2.05,0,0,1-.71.37,2.43,2.43,0,0,1-.83.16c-1.22,0-1.83-.64-1.83-1.93v-3.4h1.22v3.3c0,.67.31,1,.91,1a1.51,1.51,0,0,0,.77-.21,1.11,1.11,0,0,0,.47-.5v-3.6h1.22v5.24Z"/><path class="a5439e69-33f6-44bc-ad78-c5c8ba9d43e0" d="M1586,351.8l.77-1a2.07,2.07,0,0,0,1.43.59,2,2,0,0,0,.87-.16.46.46,0,0,0,.34-.43c0-.31-.25-.46-.76-.46-.13,0-.34,0-.61.05s-.47.05-.61.05c-.84,0-1.26-.3-1.26-.91a.76.76,0,0,1,.21-.5,1.33,1.33,0,0,1,.49-.37,1.85,1.85,0,0,1-.89-1.65,1.76,1.76,0,0,1,.61-1.38,2.19,2.19,0,0,1,1.52-.55,2.33,2.33,0,0,1,1.17.26l.48-.56.85.77-.59.42a1.89,1.89,0,0,1,.31,1.09,1.85,1.85,0,0,1-1.92,2l-.35,0-.2,0a1,1,0,0,0-.26.1c-.16.07-.23.14-.23.22s.11.2.34.2a2.85,2.85,0,0,0,.5-.08,3,3,0,0,1,.61-.07c1.19,0,1.79.48,1.79,1.43a1.39,1.39,0,0,1-.72,1.24,3.15,3.15,0,0,1-1.72.45A3.61,3.61,0,0,1,1586,351.8Zm1.22-4.74a1,1,0,0,0,.26.74.88.88,0,0,0,.69.29.85.85,0,0,0,.67-.28,1.14,1.14,0,0,0,.23-.75,1,1,0,0,0-.25-.67.85.85,0,0,0-.65-.27.93.93,0,0,0-.68.26A.91.91,0,0,0,1587.2,347.06Z"/><path class="a5439e69-33f6-44bc-ad78-c5c8ba9d43e0" d="M1594.78,350.45v-3.22a1.06,1.06,0,0,0-.31-.78,1.1,1.1,0,0,0-.79-.29,1.31,1.31,0,0,0-.61.17,1.1,1.1,0,0,0-.44.37v3.75h-1.24v-7.17l1.24-.3v2.58a1.86,1.86,0,0,1,1.31-.43,2.06,2.06,0,0,1,1.52.54,2.11,2.11,0,0,1,.54,1.56v3.22Z"/><line class="bf6de55a-1ab0-497d-ab4f-21070ffeb822" x1="896.06" y1="290.94" x2="896.06" y2="453.04"/><polygon class="a5439e69-33f6-44bc-ad78-c5c8ba9d43e0" points="890.08 292.69 896.06 282.33 902.04 292.69 890.08 292.69"/><line class="bf6de55a-1ab0-497d-ab4f-21070ffeb822" x1="896.06" y1="169.56" x2="896.06" y2="200.88"/><polygon class="a5439e69-33f6-44bc-ad78-c5c8ba9d43e0" points="890.08 171.31 896.06 160.95 902.04 171.31 890.08 171.31"/><text class="b3b4432c-4cd7-4e8b-83e9-aaae770c930f" transform="translate(523.12 492.88)">Subrecipient <tspan x="-7.82" y="12">meets reporting </tspan><tspan x="5.22" y="24">threshold?</tspan></text><text class="b3b4432c-4cd7-4e8b-83e9-aaae770c930f" transform="translate(543.41 613.06)">END</text><polygon class="bf6de55a-1ab0-497d-ab4f-21070ffeb822" points="498.46 497.64 552.81 455.9 607.16 497.64 552.81 539.4 498.46 497.64"/><rect class="b676fcb0-8367-4e09-bb0c-3628e6a777a0" x="536.91" y="550.64" width="31.28" height="17.57"/><text class="ee0b16e2-b166-4484-b75c-3dad92ffdca1" transform="translate(545.69 562.17)">NO</text><rect class="eb6a41ae-baf7-4c38-bed3-5e93be75a67d" x="615.14" y="489.97" width="31.28" height="17.57"/><text class="ee0b16e2-b166-4484-b75c-3dad92ffdca1" transform="translate(622.31 501.5)">YES</text><line class="bf6de55a-1ab0-497d-ab4f-21070ffeb822" x1="1093.42" y1="240.61" x2="1138.61" y2="240.61"/><polygon class="a5439e69-33f6-44bc-ad78-c5c8ba9d43e0" points="1136.86 246.6 1147.22 240.61 1136.86 234.63 1136.86 246.6"/><line class="bf6de55a-1ab0-497d-ab4f-21070ffeb822" x1="1191.39" y1="273.77" x2="1191.39" y2="318.97"/><polygon class="a5439e69-33f6-44bc-ad78-c5c8ba9d43e0" points="1185.41 317.21 1191.39 327.58 1197.38 317.21 1185.41 317.21"/><line class="bf6de55a-1ab0-497d-ab4f-21070ffeb822" x1="1357.23" y1="274.77" x2="1357.23" y2="319.97"/><polygon class="a5439e69-33f6-44bc-ad78-c5c8ba9d43e0" points="1351.25 318.21 1357.23 328.58 1363.21 318.21 1351.25 318.21"/><line class="bf6de55a-1ab0-497d-ab4f-21070ffeb822" x1="1233.25" y1="240.61" x2="1288.66" y2="240.61"/><polygon class="a5439e69-33f6-44bc-ad78-c5c8ba9d43e0" points="1286.91 246.6 1297.28 240.61 1286.91 234.63 1286.91 246.6"/><text class="b3b4432c-4cd7-4e8b-83e9-aaae770c930f" transform="translate(1175.52 236.15)">Report <tspan x="-8.2" y="13">complete?</tspan></text><polygon class="bf6de55a-1ab0-497d-ab4f-21070ffeb822" points="1148.2 240.91 1190.97 208.06 1233.74 240.91 1190.97 273.77 1148.2 240.91"/><rect class="b676fcb0-8367-4e09-bb0c-3628e6a777a0" x="1245.37" y="230.98" width="31.28" height="17.57"/><text class="ee0b16e2-b166-4484-b75c-3dad92ffdca1" transform="translate(1254.16 242.51)">NO</text><rect class="eb6a41ae-baf7-4c38-bed3-5e93be75a67d" x="1175.25" y="282.39" width="31.28" height="17.57"/><text class="ee0b16e2-b166-4484-b75c-3dad92ffdca1" transform="translate(1182.43 293.92)">YES</text><rect class="bf6de55a-1ab0-497d-ab4f-21070ffeb822" x="503.88" y="596.27" width="98.23" height="29.64" rx="14.82"/><line class="bf6de55a-1ab0-497d-ab4f-21070ffeb822" x1="728.05" y1="539.41" x2="728.05" y2="584.6"/><polygon class="a5439e69-33f6-44bc-ad78-c5c8ba9d43e0" points="722.07 582.85 728.05 593.22 734.04 582.85 722.07 582.85"/><line class="bf6de55a-1ab0-497d-ab4f-21070ffeb822" x1="781.24" y1="497.35" x2="836.66" y2="497.35"/><polygon class="a5439e69-33f6-44bc-ad78-c5c8ba9d43e0" points="834.91 503.33 845.27 497.35 834.91 491.36 834.91 503.33"/><text class="b3b4432c-4cd7-4e8b-83e9-aaae770c930f" transform="translate(696.89 492.88)">Is EEO report <tspan x="-1.25" y="12">due? (every 4 </tspan><tspan x="16.3" y="24">years)</tspan></text><text class="b3b4432c-4cd7-4e8b-83e9-aaae770c930f" transform="translate(718.13 613.06)">END</text><polygon class="bf6de55a-1ab0-497d-ab4f-21070ffeb822" points="673.17 497.64 727.52 455.9 781.87 497.64 727.52 539.4 673.17 497.64"/><rect class="b676fcb0-8367-4e09-bb0c-3628e6a777a0" x="711.62" y="550.64" width="31.28" height="17.57"/><text class="ee0b16e2-b166-4484-b75c-3dad92ffdca1" transform="translate(720.41 562.17)">NO</text><rect class="eb6a41ae-baf7-4c38-bed3-5e93be75a67d" x="789.85" y="489.97" width="31.28" height="17.57"/><text class="ee0b16e2-b166-4484-b75c-3dad92ffdca1" transform="translate(797.02 501.5)">YES</text><rect class="bf6de55a-1ab0-497d-ab4f-21070ffeb822" x="678.59" y="596.27" width="98.23" height="29.64" rx="14.82"/><polyline class="bf6de55a-1ab0-497d-ab4f-21070ffeb822" points="1404.4 372.24 1459.13 372.24 1459.13 296.66 1505.25 296.66"/><polygon class="a5439e69-33f6-44bc-ad78-c5c8ba9d43e0" points="1503.5 302.64 1513.86 296.66 1503.5 290.68 1503.5 302.64"/></g></svg>