<svg xmlns="http://www.w3.org/2000/svg" viewBox="0 0 1246.31 762.23"><defs><style>.a5fa82d6-a1fd-4420-8013-0a3670245311,.aa5ac092-4e1c-4078-b628-dd36f1052ce6,.b8d926c1-5754-4e00-9b27-72b058133b1d,.e09ca819-eac0-4ca8-94ef-ef69f79b4d7f{fill:none;stroke:#646464;stroke-miterlimit:10;}.aa5ac092-4e1c-4078-b628-dd36f1052ce6,.e09ca819-eac0-4ca8-94ef-ef69f79b4d7f{stroke-width:0.5px;}.e09ca819-eac0-4ca8-94ef-ef69f79b4d7f{stroke-dasharray:5 3;}.b8d926c1-5754-4e00-9b27-72b058133b1d{stroke-width:2px;}.a89b4ddd-5b70-4441-8ab3-fb644105108b,.bc526358-f08a-4d53-9760-071ecdc140ad{font-size:10px;}.a89b4ddd-5b70-4441-8ab3-fb644105108b,.b2ca3bc2-dd6d-4858-bd5d-0ce36a949911,.b9111e81-3cce-4e0b-bfd9-666e58a3c38f,.e8c95e3b-449b-48a3-a0fb-ba326a3a91e3{fill:#646464;}.a89b4ddd-5b70-4441-8ab3-fb644105108b,.b9111e81-3cce-4e0b-bfd9-666e58a3c38f,.bc526358-f08a-4d53-9760-071ecdc140ad,.e8c95e3b-449b-48a3-a0fb-ba326a3a91e3{font-family:TrebuchetMS-Bold, Trebuchet MS;font-weight:700;}.e843d06e-5c23-4b65-93d9-4b7ef5a3ed61{letter-spacing:-0.02em;}.bcb12e24-52f9-48d8-8229-d911ec92f94c{letter-spacing:0.03em;}.b9111e81-3cce-4e0b-bfd9-666e58a3c38f{font-size:11px;}.aded62f7-1ba6-4e14-9aa0-86264371ca25{letter-spacing:-0.03em;}.b549a395-ce20-4999-a32a-24a49a7e1596{letter-spacing:-0.09em;}.f53db0af-a9df-4283-ad64-93a3fb41da78{letter-spacing:-0.06em;}.bcba361c-b146-4d4e-abae-3a56ab6522c5{letter-spacing:-0.1em;}.b9502031-c72d-456a-9ce1-ed7888048de5{fill:#d23138;}.bc526358-f08a-4d53-9760-071ecdc140ad{fill:#fff;}.b70b3c0a-6c71-4a25-8ce6-618a31f95cde{fill:#3eaf49;}.e8c95e3b-449b-48a3-a0fb-ba326a3a91e3{font-size:24px;}</style></defs><title>CDOT_diagrams_CH3</title><g id="b77cf349-165c-460f-94ec-1f4ee2440861" data-name="shapes"><line class="aa5ac092-4e1c-4078-b628-dd36f1052ce6" x1="18.87" y1="426.24" x2="21.37" y2="426.24"/><line class="e09ca819-eac0-4ca8-94ef-ef69f79b4d7f" x1="24.36" y1="426.24" x2="1222.34" y2="426.24"/><line class="aa5ac092-4e1c-4078-b628-dd36f1052ce6" x1="1223.84" y1="426.24" x2="1226.34" y2="426.24"/><line class="aa5ac092-4e1c-4078-b628-dd36f1052ce6" x1="18.87" y1="254.83" x2="21.37" y2="254.83"/><line class="e09ca819-eac0-4ca8-94ef-ef69f79b4d7f" x1="24.36" y1="254.83" x2="1222.34" y2="254.83"/><line class="aa5ac092-4e1c-4078-b628-dd36f1052ce6" x1="1223.84" y1="254.83" x2="1226.34" y2="254.83"/><line class="aa5ac092-4e1c-4078-b628-dd36f1052ce6" x1="18.87" y1="602.98" x2="21.37" y2="602.98"/><line class="e09ca819-eac0-4ca8-94ef-ef69f79b4d7f" x1="24.36" y1="602.98" x2="1222.34" y2="602.98"/><line class="aa5ac092-4e1c-4078-b628-dd36f1052ce6" x1="1223.84" y1="602.98" x2="1226.34" y2="602.98"/></g><g id="fed475c5-5ad5-4423-bc56-ab0248110310" data-name="text"><rect class="b8d926c1-5754-4e00-9b27-72b058133b1d" x="263.12" y="300.76" width="87.63" height="68.69"/><text class="a89b4ddd-5b70-4441-8ab3-fb644105108b" transform="translate(285.81 318.41)">Final PO<tspan class="e843d06e-5c23-4b65-93d9-4b7ef5a3ed61" x="38.91" y="0">P</tspan><tspan x="44.6" y="0"> </tspan><tspan x="-7.97" y="12">only: Re</tspan><tspan class="bcb12e24-52f9-48d8-8229-d911ec92f94c" x="30.42" y="12">v</tspan><tspan x="36" y="12">iew </tspan><tspan x="2.98" y="24">for local </tspan><tspan x="-2.64" y="36">overmatch </tspan></text><rect class="b8d926c1-5754-4e00-9b27-72b058133b1d" x="912.22" y="650.23" width="87.63" height="50.93"/><text class="a89b4ddd-5b70-4441-8ab3-fb644105108b" transform="translate(923.82 679.08)">Re<tspan class="bcb12e24-52f9-48d8-8229-d911ec92f94c" x="11.86" y="0">v</tspan><tspan x="17.44" y="0">iew report</tspan></text><path class="b8d926c1-5754-4e00-9b27-72b058133b1d" d="M90.19,141.1v60.07s2.79,7.75,54,8.09,52.75-8.6,52.75-8.6V141.27s0-7.92-55.54-7.92C88.69,133.35,90.19,141.1,90.19,141.1Z"/><path class="b8d926c1-5754-4e00-9b27-72b058133b1d" d="M90.22,151.23s-2.36,5.51,24.66,8.11c24.87,2.4,47.74,3.09,64.33-.55,18.44-4.06,17.8-7.37,17.8-7.37"/><text class="a89b4ddd-5b70-4441-8ab3-fb644105108b" transform="translate(120.8 175.52)">Download <tspan x="-18.11" y="13">S_PLN_16000269 </tspan><tspan x="10.45" y="26">(SAP)</tspan></text><path class="b8d926c1-5754-4e00-9b27-72b058133b1d" d="M90.22,146.81s-2.36,5.5,24.66,8.11c24.87,2.39,47.74,3.09,64.33-.56C197.65,150.31,197,147,197,147"/><path class="b8d926c1-5754-4e00-9b27-72b058133b1d" d="M90.22,141.83s-2.36,5.51,24.66,8.11c24.87,2.4,47.74,3.09,64.33-.55C197.65,145.33,197,142,197,142"/><path class="b8d926c1-5754-4e00-9b27-72b058133b1d" d="M418.84,141.1v60.07s2.79,7.75,54,8.09,52.75-8.6,52.75-8.6V141.27s0-7.92-55.54-7.92C417.34,133.35,418.84,141.1,418.84,141.1Z"/><path class="b8d926c1-5754-4e00-9b27-72b058133b1d" d="M418.87,151.23s-2.36,5.51,24.66,8.11c24.87,2.4,47.74,3.09,64.33-.55,18.44-4.06,17.79-7.37,17.79-7.37"/><text class="a89b4ddd-5b70-4441-8ab3-fb644105108b" transform="translate(435.93 175.52)">Download ZG01 <tspan x="23.98" y="13">(SAP)</tspan></text><path class="b8d926c1-5754-4e00-9b27-72b058133b1d" d="M418.87,146.81s-2.36,5.5,24.66,8.11c24.87,2.39,47.74,3.09,64.33-.56,18.44-4.05,17.79-7.37,17.79-7.37"/><path class="b8d926c1-5754-4e00-9b27-72b058133b1d" d="M418.87,141.83s-2.36,5.51,24.66,8.11c24.87,2.4,47.74,3.09,64.33-.55,18.44-4.06,17.79-7.37,17.79-7.37"/><text class="b9111e81-3cce-4e0b-bfd9-666e58a3c38f" transform="translate(39.55 544.34) rotate(-90)">DTR Project <tspan x="-37.94" y="13.2">Coordination Unit Manager</tspan></text><text class="b9111e81-3cce-4e0b-bfd9-666e58a3c38f" transform="translate(45.15 400.45) rotate(-90)">DTR Prog<tspan class="aded62f7-1ba6-4e14-9aa0-86264371ca25" x="46.73" y="0">r</tspan><tspan x="51.09" y="0">amming Unit</tspan></text><text class="b9111e81-3cce-4e0b-bfd9-666e58a3c38f" transform="translate(45.15 192.53) rotate(-90)">Accounting</text><text class="b9111e81-3cce-4e0b-bfd9-666e58a3c38f" transform="translate(45.15 681.98) rotate(-90)">F<tspan class="b549a395-ce20-4999-a32a-24a49a7e1596" x="6.42" y="0">T</tspan><tspan class="f53db0af-a9df-4283-ad64-93a3fb41da78" x="12.11" y="0">A</tspan></text><line class="a5fa82d6-a1fd-4420-8013-0a3670245311" x1="65.34" y1="742.72" x2="65.34" y2="69"/><polygon class="a5fa82d6-a1fd-4420-8013-0a3670245311" points="1227.01 742.99 18.89 742.99 18.89 68.89 48.08 68.89 1227.01 68.89 1227.01 742.99"/><line class="b8d926c1-5754-4e00-9b27-72b058133b1d" x1="196.42" y1="170.4" x2="236.81" y2="170.4"/><polygon class="b2ca3bc2-dd6d-4858-bd5d-0ce36a949911" points="235.06 176.38 245.42 170.4 235.06 164.41 235.06 176.38"/><line class="b8d926c1-5754-4e00-9b27-72b058133b1d" x1="367.22" y1="170.4" x2="407.61" y2="170.4"/><polygon class="b2ca3bc2-dd6d-4858-bd5d-0ce36a949911" points="405.86 176.38 416.22 170.4 405.86 164.41 405.86 176.38"/><line class="b8d926c1-5754-4e00-9b27-72b058133b1d" x1="306.61" y1="301.03" x2="306.61" y2="209.06"/><polygon class="b2ca3bc2-dd6d-4858-bd5d-0ce36a949911" points="312.59 210.81 306.61 200.44 300.63 210.81 312.59 210.81"/><line class="b8d926c1-5754-4e00-9b27-72b058133b1d" x1="638.92" y1="196.12" x2="638.92" y2="475.43"/><polygon class="b2ca3bc2-dd6d-4858-bd5d-0ce36a949911" points="632.93 473.68 638.91 484.04 644.9 473.68 632.93 473.68"/><line class="b8d926c1-5754-4e00-9b27-72b058133b1d" x1="805.07" y1="197.62" x2="805.07" y2="623.73"/><polygon class="b2ca3bc2-dd6d-4858-bd5d-0ce36a949911" points="799.09 621.98 805.07 632.34 811.05 621.98 799.09 621.98"/><text class="a89b4ddd-5b70-4441-8ab3-fb644105108b" transform="translate(616.37 514.99)"><tspan class="f53db0af-a9df-4283-ad64-93a3fb41da78"> </tspan><tspan x="2.46" y="0">Approve/</tspan><tspan x="7.47" y="13">Reject</tspan></text><polygon class="b8d926c1-5754-4e00-9b27-72b058133b1d" points="599.81 517.12 639.37 486.73 678.94 517.12 639.37 547.52 599.81 517.12"/><text class="a89b4ddd-5b70-4441-8ab3-fb644105108b" transform="translate(262.86 154.05)">Gene<tspan class="aded62f7-1ba6-4e14-9aa0-86264371ca25" x="24.11" y="0">r</tspan><tspan x="28.07" y="0">ate report of </tspan><tspan x="-1.05" y="12">g</tspan><tspan class="aded62f7-1ba6-4e14-9aa0-86264371ca25" x="3.96" y="12">r</tspan><tspan x="7.92" y="12">ant expenses and </tspan><tspan x="-1.56" y="24">cash disbursements</tspan></text><path class="b8d926c1-5754-4e00-9b27-72b058133b1d" d="M247.23,197.7V134.82h120V197.7a54.58,54.58,0,0,0-60,0A54.56,54.56,0,0,1,247.23,197.7Z"/><line class="b8d926c1-5754-4e00-9b27-72b058133b1d" x1="525.8" y1="170.4" x2="566.19" y2="170.4"/><polygon class="b2ca3bc2-dd6d-4858-bd5d-0ce36a949911" points="564.44 176.38 574.8 170.4 564.44 164.41 564.44 176.38"/><line class="b8d926c1-5754-4e00-9b27-72b058133b1d" x1="859.03" y1="673.75" x2="899.42" y2="673.75"/><polygon class="b2ca3bc2-dd6d-4858-bd5d-0ce36a949911" points="897.67 679.73 908.04 673.75 897.67 667.76 897.67 679.73"/><rect class="b8d926c1-5754-4e00-9b27-72b058133b1d" x="1052.96" y="642.23" width="87.63" height="63.91"/><text class="a89b4ddd-5b70-4441-8ab3-fb644105108b" transform="translate(1065.66 664.3)">Contact CDO<tspan class="e843d06e-5c23-4b65-93d9-4b7ef5a3ed61" x="58.64" y="0">T</tspan><tspan x="64.58" y="0"> </tspan><tspan x="-1.48" y="12">with results of </tspan><tspan x="16.2" y="24">re</tspan><tspan class="bcb12e24-52f9-48d8-8229-d911ec92f94c" x="26.22" y="24">v</tspan><tspan x="31.81" y="24">iew</tspan></text><line class="b8d926c1-5754-4e00-9b27-72b058133b1d" x1="999.78" y1="673.75" x2="1040.17" y2="673.75"/><polygon class="b2ca3bc2-dd6d-4858-bd5d-0ce36a949911" points="1038.42 679.73 1048.78 673.75 1038.42 667.76 1038.42 679.73"/><text class="a89b4ddd-5b70-4441-8ab3-fb644105108b" transform="translate(592.23 162.52)">Gene<tspan class="aded62f7-1ba6-4e14-9aa0-86264371ca25" x="24.11" y="0">r</tspan><tspan x="28.07" y="0">ate report of </tspan><tspan x="2.5" y="12">F</tspan><tspan class="b549a395-ce20-4999-a32a-24a49a7e1596" x="8.34" y="12">T</tspan><tspan class="f53db0af-a9df-4283-ad64-93a3fb41da78" x="13.51" y="12">A</tspan><tspan x="19.29" y="12" xml:space="preserve"> commitments</tspan></text><path class="b8d926c1-5754-4e00-9b27-72b058133b1d" d="M576.61,197.7V134.82h120V197.7a54.56,54.56,0,0,0-60,0A54.56,54.56,0,0,1,576.61,197.7Z"/><text class="a89b4ddd-5b70-4441-8ab3-fb644105108b" transform="translate(772.34 156.12)">Submit report <tspan x="17.85" y="12">to F</tspan><tspan class="b549a395-ce20-4999-a32a-24a49a7e1596" x="36.33" y="12">T</tspan><tspan class="f53db0af-a9df-4283-ad64-93a3fb41da78" x="41.5" y="12">A</tspan><tspan x="12.93" y="25">(</tspan><tspan class="bcba361c-b146-4d4e-abae-3a56ab6522c5" x="16.6" y="25">T</tspan><tspan x="21.69" y="25">rAMS))</tspan></text><path class="b8d926c1-5754-4e00-9b27-72b058133b1d" d="M751.88,196.83h94.48v-60H751.88Zm11.81-60v60"/><text class="a89b4ddd-5b70-4441-8ab3-fb644105108b" transform="translate(774.25 657.56)">Reconcile how <tspan x="-10.53" y="12">much expended by </tspan><tspan x="10.02" y="24">FTC codes </tspan><tspan x="16.08" y="37">(</tspan><tspan class="bcba361c-b146-4d4e-abae-3a56ab6522c5" x="19.75" y="37">T</tspan><tspan x="24.85" y="37">rAMS)</tspan></text><path class="b8d926c1-5754-4e00-9b27-72b058133b1d" d="M744.06,707.81H859.51V636.28H744.06Zm14.44-71.53v71.53"/><polyline class="b8d926c1-5754-4e00-9b27-72b058133b1d" points="144.23 221.46 144.23 517.05 599.81 517.05"/><polygon class="b2ca3bc2-dd6d-4858-bd5d-0ce36a949911" points="138.25 223.22 144.23 212.85 150.22 223.22 138.25 223.22"/><rect class="b9502031-c72d-456a-9ce1-ed7888048de5" x="278.18" y="508.79" width="46.38" height="17.57"/><text class="bc526358-f08a-4d53-9760-071ecdc140ad" transform="translate(284.27 520.31)">REJEC<tspan class="e843d06e-5c23-4b65-93d9-4b7ef5a3ed61" x="28.93" y="0">T</tspan></text><polyline class="b8d926c1-5754-4e00-9b27-72b058133b1d" points="678.94 517.12 715.91 517.12 715.91 168.06 740.06 168.06"/><polygon class="b2ca3bc2-dd6d-4858-bd5d-0ce36a949911" points="738.31 174.05 748.67 168.06 738.31 162.08 738.31 174.05"/><rect class="b70b3c0a-6c71-4a25-8ce6-618a31f95cde" x="686.56" y="334.35" width="57.18" height="17.57"/><text class="bc526358-f08a-4d53-9760-071ecdc140ad" transform="translate(694.18 346.88)">APPROVE</text><text class="e8c95e3b-449b-48a3-a0fb-ba326a3a91e3" transform="translate(18.5 37.17)">3-15 FFR Reporting (Quarterly: 5339;<tspan class="f53db0af-a9df-4283-ad64-93a3fb41da78" x="422.12" y="0"> </tspan><tspan x="428.03" y="0">Annually:</tspan><tspan class="f53db0af-a9df-4283-ad64-93a3fb41da78" x="534.3" y="0"> </tspan><tspan x="540.21" y="0">All Other F</tspan><tspan class="b549a395-ce20-4999-a32a-24a49a7e1596" x="662.7" y="0">T</tspan><tspan class="f53db0af-a9df-4283-ad64-93a3fb41da78" x="675.11" y="0">A</tspan><tspan x="688.98" y="0" xml:space="preserve"> G</tspan><tspan class="aded62f7-1ba6-4e14-9aa0-86264371ca25" x="712.32" y="0">r</tspan><tspan x="721.83" y="0">ants; F</tspan><tspan class="b549a395-ce20-4999-a32a-24a49a7e1596" x="798.68" y="0">T</tspan><tspan class="f53db0af-a9df-4283-ad64-93a3fb41da78" x="811.09" y="0">A </tspan><tspan class="e843d06e-5c23-4b65-93d9-4b7ef5a3ed61" x="830.87" y="0">A</tspan><tspan x="845.64" y="0">ward Closeout) (CDO</tspan><tspan class="e843d06e-5c23-4b65-93d9-4b7ef5a3ed61" x="1077.23" y="0">T</tspan><tspan x="1091.48" y="0" xml:space="preserve"> Internal)</tspan></text></g></svg>