<svg xmlns="http://www.w3.org/2000/svg" viewBox="0 0 1402.04 513.43"><defs><style>.aa1dda84-663b-4e72-a5af-9d5e57c88160,.afefcdb0-2acc-4515-bc7f-eab510b05ded,.bd0eeeaf-c7db-401a-94ac-5fbed4f4d3fb,.ee3288a7-4f2f-488a-9d30-343df5fe3b1c{fill:none;}.aa1dda84-663b-4e72-a5af-9d5e57c88160,.afefcdb0-2acc-4515-bc7f-eab510b05ded,.bd0eeeaf-c7db-401a-94ac-5fbed4f4d3fb,.e814816e-d63d-4c3a-99e1-840eef892cda,.ee3288a7-4f2f-488a-9d30-343df5fe3b1c{stroke:#646464;stroke-miterlimit:10;}.aa1dda84-663b-4e72-a5af-9d5e57c88160,.e814816e-d63d-4c3a-99e1-840eef892cda{stroke-width:2px;}.baedbb9e-16d1-4d9a-9d06-876b6a0f30dd,.bf24eb00-c092-4c92-a986-da78b3d409a0,.e2491f01-47bc-43f0-93be-027053fab9b7,.fffb0cdc-6415-4536-b0d3-934a194a6dd4{fill:#646464;}.bd0eeeaf-c7db-401a-94ac-5fbed4f4d3fb,.ee3288a7-4f2f-488a-9d30-343df5fe3b1c{stroke-width:0.5px;}.ee3288a7-4f2f-488a-9d30-343df5fe3b1c{stroke-dasharray:5 3;}.baedbb9e-16d1-4d9a-9d06-876b6a0f30dd{font-size:24px;}.a73a3b5a-ec96-47c1-a01d-878709b50607,.baedbb9e-16d1-4d9a-9d06-876b6a0f30dd,.bf24eb00-c092-4c92-a986-da78b3d409a0,.ed09440f-2441-4320-9ada-fa07100d6a12,.fffb0cdc-6415-4536-b0d3-934a194a6dd4{font-family:TrebuchetMS-Bold, Trebuchet MS;font-weight:700;}.bdabbc7d-018c-4b01-b0b9-9d6b7df00187{letter-spacing:-0.02em;}.b7f1fd02-897c-4652-a97c-7688bac4b46a{letter-spacing:-0.05em;}.abbfdefa-cf51-4545-8d0e-2015bf2a4f59{letter-spacing:-0.06em;}.fffb0cdc-6415-4536-b0d3-934a194a6dd4{font-size:11px;}.be11d04d-9a7a-4def-a75b-72a00cf83a4c{letter-spacing:-0.1em;}.b572bfaf-2e64-4a6d-987d-dacb009541f9{letter-spacing:-0.03em;}.a73a3b5a-ec96-47c1-a01d-878709b50607,.bf24eb00-c092-4c92-a986-da78b3d409a0{font-size:10px;}.e6e48977-8ca3-40ca-8de7-cf50eca77652{letter-spacing:0.03em;}.a69d90a7-3fb5-4f30-97d7-da7d0de39e0b{letter-spacing:-0.11em;}.b953ef40-260f-49c7-96e2-1ae44006352f{letter-spacing:-0.09em;}.e814816e-d63d-4c3a-99e1-840eef892cda,.fd7206ad-898c-4c28-a823-8826f4bb8116{fill:#009add;}.a73a3b5a-ec96-47c1-a01d-878709b50607,.ed09440f-2441-4320-9ada-fa07100d6a12{fill:#fff;}.ed09440f-2441-4320-9ada-fa07100d6a12{font-size:16px;}</style></defs><title>CDOT_diagrams_CH3</title><g id="f8f04586-9924-4ff2-99fe-22814edab48e" data-name="shapes"><line class="aa1dda84-663b-4e72-a5af-9d5e57c88160" x1="285.83" y1="139.07" x2="317.74" y2="139.07"/><polygon class="e2491f01-47bc-43f0-93be-027053fab9b7" points="315.99 145.06 326.36 139.07 315.99 133.09 315.99 145.06"/><line class="aa1dda84-663b-4e72-a5af-9d5e57c88160" x1="285.83" y1="307.91" x2="371.7" y2="307.91"/><polygon class="e2491f01-47bc-43f0-93be-027053fab9b7" points="369.95 313.89 380.32 307.91 369.95 301.92 369.95 313.89"/><line class="aa1dda84-663b-4e72-a5af-9d5e57c88160" x1="572.2" y1="139.07" x2="604.11" y2="139.07"/><polygon class="e2491f01-47bc-43f0-93be-027053fab9b7" points="602.36 145.06 612.73 139.07 602.36 133.09 602.36 145.06"/><line class="aa1dda84-663b-4e72-a5af-9d5e57c88160" x1="780.36" y1="139.07" x2="812.27" y2="139.07"/><polygon class="e2491f01-47bc-43f0-93be-027053fab9b7" points="810.52 145.06 820.88 139.07 810.52 133.09 810.52 145.06"/><line class="aa1dda84-663b-4e72-a5af-9d5e57c88160" x1="968.02" y1="139.07" x2="999.93" y2="139.07"/><polygon class="e2491f01-47bc-43f0-93be-027053fab9b7" points="998.18 145.06 1008.54 139.07 998.18 133.09 998.18 145.06"/><line class="bd0eeeaf-c7db-401a-94ac-5fbed4f4d3fb" x1="18.37" y1="251.55" x2="20.87" y2="251.55"/><line class="ee3288a7-4f2f-488a-9d30-343df5fe3b1c" x1="23.88" y1="251.55" x2="1375.57" y2="251.55"/><line class="bd0eeeaf-c7db-401a-94ac-5fbed4f4d3fb" x1="1377.07" y1="251.55" x2="1379.57" y2="251.55"/><line class="bd0eeeaf-c7db-401a-94ac-5fbed4f4d3fb" x1="18.37" y1="363.52" x2="20.87" y2="363.52"/><line class="ee3288a7-4f2f-488a-9d30-343df5fe3b1c" x1="23.88" y1="363.52" x2="1375.57" y2="363.52"/><line class="bd0eeeaf-c7db-401a-94ac-5fbed4f4d3fb" x1="1377.07" y1="363.52" x2="1379.57" y2="363.52"/><line class="aa1dda84-663b-4e72-a5af-9d5e57c88160" x1="895.26" y1="160.48" x2="895.26" y2="186.2"/><polygon class="e2491f01-47bc-43f0-93be-027053fab9b7" points="889.28 184.45 895.26 194.81 901.24 184.45 889.28 184.45"/><line class="aa1dda84-663b-4e72-a5af-9d5e57c88160" x1="1174.92" y1="139.07" x2="1206.83" y2="139.07"/><polygon class="e2491f01-47bc-43f0-93be-027053fab9b7" points="1205.08 145.06 1215.44 139.07 1205.08 133.09 1205.08 145.06"/><line class="aa1dda84-663b-4e72-a5af-9d5e57c88160" x1="1279.39" y1="160.48" x2="1279.39" y2="186.2"/><polygon class="e2491f01-47bc-43f0-93be-027053fab9b7" points="1273.4 184.45 1279.39 194.81 1285.37 184.45 1273.4 184.45"/><polyline class="aa1dda84-663b-4e72-a5af-9d5e57c88160" points="514.34 306.18 985.43 306.18 985.43 139.59"/><polyline class="aa1dda84-663b-4e72-a5af-9d5e57c88160" points="286.2 432.94 985.43 432.94 985.43 301.45"/></g><g id="b9036e1a-92f2-4828-bebe-a9caccd1e057" data-name="text"><text class="baedbb9e-16d1-4d9a-9d06-876b6a0f30dd" transform="translate(18.5 35.68)">3-1 CDO<tspan class="bdabbc7d-018c-4b01-b0b9-9d6b7df00187" x="91.15" y="0">T</tspan><tspan x="105.4" y="0" xml:space="preserve"> Outreach/Planning to Notice of </tspan><tspan class="b7f1fd02-897c-4652-a97c-7688bac4b46a" x="468.39" y="0">F</tspan><tspan x="481.27" y="0">unding</tspan><tspan class="abbfdefa-cf51-4545-8d0e-2015bf2a4f59" x="556.92" y="0"> </tspan><tspan class="bdabbc7d-018c-4b01-b0b9-9d6b7df00187" x="562.83" y="0">A</tspan><tspan x="577.59" y="0">vailability</tspan></text><text class="fffb0cdc-6415-4536-b0d3-934a194a6dd4" transform="translate(42.66 170.57) rotate(-90)">DTR</text><text class="fffb0cdc-6415-4536-b0d3-934a194a6dd4" transform="translate(36.78 344.59) rotate(-90)"><tspan class="be11d04d-9a7a-4def-a75b-72a00cf83a4c">T</tspan><tspan class="b572bfaf-2e64-4a6d-987d-dacb009541f9" x="5.6" y="0">r</tspan><tspan x="9.96" y="0">ansportation </tspan><tspan x="7.17" y="13.2">Commission</tspan></text><text class="fffb0cdc-6415-4536-b0d3-934a194a6dd4" transform="translate(42.66 448.08) rotate(-90)">CRBRC</text><rect class="aa1dda84-663b-4e72-a5af-9d5e57c88160" x="77.29" y="93.49" width="208.91" height="90.2" rx="45.1"/><text class="bf24eb00-c092-4c92-a986-da78b3d409a0" transform="translate(105.43 109.56)">Identify needs &amp; gaps based on:<tspan class="be11d04d-9a7a-4def-a75b-72a00cf83a4c" x="-7.87" y="17">T</tspan><tspan class="b572bfaf-2e64-4a6d-987d-dacb009541f9" x="-2.78" y="17">r</tspan><tspan x="1.18" y="17">ansportation Commission,</tspan><tspan class="bdabbc7d-018c-4b01-b0b9-9d6b7df00187" x="122.07" y="17"> </tspan><tspan class="be11d04d-9a7a-4def-a75b-72a00cf83a4c" x="124.9" y="17">T</tspan><tspan class="b572bfaf-2e64-4a6d-987d-dacb009541f9" x="130" y="17">r</tspan><tspan x="133.96" y="17">ansit </tspan><tspan x="-21.26" y="29">Development Prog</tspan><tspan class="b572bfaf-2e64-4a6d-987d-dacb009541f9" x="64.41" y="29">r</tspan><tspan x="68.37" y="29">am, Statewide</tspan><tspan class="bdabbc7d-018c-4b01-b0b9-9d6b7df00187" x="135.46" y="29"> </tspan><tspan class="be11d04d-9a7a-4def-a75b-72a00cf83a4c" x="138.29" y="29">T</tspan><tspan class="b572bfaf-2e64-4a6d-987d-dacb009541f9" x="143.39" y="29">r</tspan><tspan x="147.35" y="29">ansit </tspan><tspan x="-17.62" y="41">Plan,</tspan><tspan class="bdabbc7d-018c-4b01-b0b9-9d6b7df00187" x="6.1" y="41"> </tspan><tspan class="be11d04d-9a7a-4def-a75b-72a00cf83a4c" x="8.93" y="41">T</tspan><tspan class="b572bfaf-2e64-4a6d-987d-dacb009541f9" x="14.02" y="41">r</tspan><tspan x="17.98" y="41">ansportation</tspan><tspan class="abbfdefa-cf51-4545-8d0e-2015bf2a4f59" x="77.08" y="41"> </tspan><tspan x="79.54" y="41">Asset Management </tspan><tspan x="-16.26" y="53">Plan, equity conside</tspan><tspan class="b572bfaf-2e64-4a6d-987d-dacb009541f9" x="78.79" y="53">r</tspan><tspan x="82.75" y="53">ations, legislative </tspan><tspan x="22.53" y="65">mandates, other goals</tspan></text><rect class="aa1dda84-663b-4e72-a5af-9d5e57c88160" x="77.29" y="286.43" width="208.91" height="43.91" rx="21.95"/><text class="bf24eb00-c092-4c92-a986-da78b3d409a0" transform="translate(94.23 302.51)">Advertise Consolidated Capital NO<tspan class="abbfdefa-cf51-4545-8d0e-2015bf2a4f59" x="159.9" y="0">FA</tspan><tspan x="170.97" y="0"> </tspan><tspan x="9.67" y="17">(</tspan><tspan class="bdabbc7d-018c-4b01-b0b9-9d6b7df00187" x="13.34" y="17">W</tspan><tspan x="22" y="17">ebsite, Emails, Connect2DOT)</tspan></text><rect class="aa1dda84-663b-4e72-a5af-9d5e57c88160" x="77.29" y="405.67" width="208.91" height="54.31" rx="27.16"/><text class="bf24eb00-c092-4c92-a986-da78b3d409a0" transform="translate(96.53 427.09)">Identify DBE opportunities Confirm <tspan x="0.53" y="12">outreach acti</tspan><tspan class="e6e48977-8ca3-40ca-8de7-cf50eca77652" x="62.85" y="12">v</tspan><tspan x="68.44" y="12">ities Set Semiannual </tspan><tspan x="60.91" y="24">DBE Goal</tspan></text><rect class="aa1dda84-663b-4e72-a5af-9d5e57c88160" x="328.8" y="84.4" width="243.56" height="111.77"/><text class="bf24eb00-c092-4c92-a986-da78b3d409a0" transform="translate(338.27 101.27)">Conduct outreach to ser<tspan class="e6e48977-8ca3-40ca-8de7-cf50eca77652" x="113.39" y="0">v</tspan><tspan x="118.97" y="0">ice pro</tspan><tspan class="e6e48977-8ca3-40ca-8de7-cf50eca77652" x="151.59" y="0">v</tspan><tspan x="157.18" y="0">iders (existing </tspan><tspan x="-1.71" y="12">subrecipients, public agenc</tspan><tspan class="a69d90a7-3fb5-4f30-97d7-da7d0de39e0b" x="126.58" y="12">y</tspan><tspan x="130.81" y="12">, non-profit, private </tspan><tspan x="31.93" y="24">ser</tspan><tspan class="e6e48977-8ca3-40ca-8de7-cf50eca77652" x="46.26" y="24">v</tspan><tspan x="51.84" y="24">ice pro</tspan><tspan class="e6e48977-8ca3-40ca-8de7-cf50eca77652" x="84.46" y="24">v</tspan><tspan x="90.05" y="24">iders, including DBEs)</tspan><tspan x="35.22" y="41">Conduct t</tspan><tspan class="b572bfaf-2e64-4a6d-987d-dacb009541f9" x="80.67" y="41">r</tspan><tspan x="84.63" y="41">ansit planning process</tspan><tspan x="72.29" y="58">Coordinate with:</tspan><tspan x="47.13" y="71">Local Coordinating Councils</tspan><tspan x="39.57" y="84">Regional Coordinating Councils</tspan></text><rect class="aa1dda84-663b-4e72-a5af-9d5e57c88160" x="615.15" y="103.9" width="165.14" height="70.2"/><text class="bf24eb00-c092-4c92-a986-da78b3d409a0" transform="translate(627.66 120.77)">Identify residual funds (closed <tspan x="5.86" y="12">g</tspan><tspan class="b572bfaf-2e64-4a6d-987d-dacb009541f9" x="10.88" y="12">r</tspan><tspan x="14.84" y="12">ants, uncommitted funds)</tspan><tspan x="6.21" y="29">Identify new prog</tspan><tspan class="b572bfaf-2e64-4a6d-987d-dacb009541f9" x="88.72" y="29">r</tspan><tspan x="92.68" y="29">am funds </tspan><tspan x="18.54" y="42">(F</tspan><tspan class="b953ef40-260f-49c7-96e2-1ae44006352f" x="28.05" y="42">T</tspan><tspan x="33.22" y="42">A, </tspan><tspan class="abbfdefa-cf51-4545-8d0e-2015bf2a4f59" x="46.24" y="42">F</tspan><tspan x="51.52" y="42">ASTER, SB 228)</tspan></text><rect class="aa1dda84-663b-4e72-a5af-9d5e57c88160" x="382.49" y="286.82" width="132.24" height="41.14"/><text class="bf24eb00-c092-4c92-a986-da78b3d409a0" transform="translate(393.31 303.69)">Update policies related <tspan x="8.67" y="12">to fund distribution</tspan></text><rect class="aa1dda84-663b-4e72-a5af-9d5e57c88160" x="1010.01" y="96.88" width="165.14" height="87.19"/><text class="bf24eb00-c092-4c92-a986-da78b3d409a0" transform="translate(1036.4 113.74)">Develop NO<tspan class="abbfdefa-cf51-4545-8d0e-2015bf2a4f59" x="54.35" y="0">FA</tspan><tspan x="65.41" y="0" xml:space="preserve"> based on:</tspan><tspan x="35.31" y="15">Priorities</tspan><tspan class="b7f1fd02-897c-4652-a97c-7688bac4b46a" x="17.05" y="30">F</tspan><tspan x="22.42" y="30">unding amounts </tspan><tspan x="18.65" y="45">Prog</tspan><tspan class="b572bfaf-2e64-4a6d-987d-dacb009541f9" x="39.47" y="45">r</tspan><tspan x="43.43" y="45">am criteria </tspan><tspan x="17.78" y="60">Planning process</tspan></text><rect class="e814816e-d63d-4c3a-99e1-840eef892cda" x="822.43" y="120.68" width="145.65" height="39.92"/><text class="a73a3b5a-ec96-47c1-a01d-878709b50607" transform="translate(833 135.45)">Allocate available funds to <tspan x="1.49" y="12">prog</tspan><tspan class="b572bfaf-2e64-4a6d-987d-dacb009541f9" x="22.26" y="12">r</tspan><tspan x="26.22" y="12">ams (Annual Budget)</tspan></text><polygon class="afefcdb0-2acc-4515-bc7f-eab510b05ded" points="1379.64 495.39 18.38 495.39 18.38 68.91 51.27 68.91 1379.64 68.91 1379.64 495.39"/><line class="afefcdb0-2acc-4515-bc7f-eab510b05ded" x1="64.85" y1="495" x2="64.85" y2="68.95"/><rect class="e814816e-d63d-4c3a-99e1-840eef892cda" x="1216.99" y="107.44" width="124.13" height="62.53"/><text class="a73a3b5a-ec96-47c1-a01d-878709b50607" transform="translate(1224.99 122.66)">Advertise Consolidated <tspan x="23.7" y="12">Capital NO</tspan><tspan class="abbfdefa-cf51-4545-8d0e-2015bf2a4f59" x="72.91" y="12">FA</tspan><tspan x="83.98" y="12"> </tspan><tspan x="13.29" y="25">(</tspan><tspan class="bdabbc7d-018c-4b01-b0b9-9d6b7df00187" x="16.96" y="25">W</tspan><tspan x="25.62" y="25">ebsite, Emails, </tspan><tspan x="20.08" y="37">Connect2DOT)</tspan></text><circle class="fd7206ad-898c-4c28-a823-8826f4bb8116" cx="1279.08" cy="218.41" r="22.5"/><text class="ed09440f-2441-4320-9ada-fa07100d6a12" transform="translate(1266.77 224.28)">3-4</text><circle class="fd7206ad-898c-4c28-a823-8826f4bb8116" cx="894.86" cy="218.41" r="22.5"/><text class="ed09440f-2441-4320-9ada-fa07100d6a12" transform="translate(882.55 224.28)">3-3</text></g></svg>