<svg xmlns="http://www.w3.org/2000/svg" viewBox="0 0 1228.54 770.8"><defs><style>.aaa18232-133e-4eed-b4f9-af46a07359c3,.f189f687-36a1-48d2-9397-1191ecc99f1e{fill:#009add;}.a11676ee-faea-4931-8bdd-37b07baa0976,.aaa18232-133e-4eed-b4f9-af46a07359c3,.ba1ff8df-50e7-4b62-a899-8f416d4ee432,.f73fec06-8617-41e8-9ae6-21d204ff52e2,.fa1c7f85-c58b-4fe5-b053-2d302573989f,.fcac95ba-ce23-4d23-800f-964647dcd96e{stroke:#646464;stroke-miterlimit:10;}.aaa18232-133e-4eed-b4f9-af46a07359c3,.f73fec06-8617-41e8-9ae6-21d204ff52e2{stroke-width:2px;}.a11676ee-faea-4931-8bdd-37b07baa0976,.ba1ff8df-50e7-4b62-a899-8f416d4ee432,.f73fec06-8617-41e8-9ae6-21d204ff52e2,.fa1c7f85-c58b-4fe5-b053-2d302573989f,.fcac95ba-ce23-4d23-800f-964647dcd96e{fill:none;}.b076f256-faae-4bd2-b60f-17a4cd84b985,.bae3b05c-f47e-4327-8dcb-bf106062174b,.bdd7df3e-8ee4-4b05-ac06-541589a69603,.e25e51fd-b76d-470f-a7ce-9ab97cf3e6ed,.ecfeed46-6c43-4b54-9bbc-dcce2ff7d8b1{fill:#646464;}.a11676ee-faea-4931-8bdd-37b07baa0976,.ba1ff8df-50e7-4b62-a899-8f416d4ee432,.fcac95ba-ce23-4d23-800f-964647dcd96e{stroke-width:0.5px;}.ba1ff8df-50e7-4b62-a899-8f416d4ee432{stroke-dasharray:4.99 2.99;}.b076f256-faae-4bd2-b60f-17a4cd84b985{font-size:24px;}.a644fa41-e40f-4a6c-b191-a0ad5ae87f73,.b052cc73-c2a0-4aa8-94dd-cc9f7a4b6165,.b076f256-faae-4bd2-b60f-17a4cd84b985,.b3bd9d11-8b0e-4127-acd0-5a1ce36adcc0,.b8e7827d-7c32-4ee4-a731-8d952bfcd6a2,.bae3b05c-f47e-4327-8dcb-bf106062174b,.be9a54f3-9596-4545-88de-6423bc03d1c2,.e25e51fd-b76d-470f-a7ce-9ab97cf3e6ed,.ed3c6785-ddc5-4dd5-9aea-7d721101ad9b,.f87b47a7-2cbd-4fa1-a431-12d1d1a27a00,.fefcbe48-6a9c-41f7-8dbf-cb9df240661a{font-family:TrebuchetMS-Bold, Trebuchet MS;font-weight:700;}.a60c3f05-c073-41e7-a332-51bef73e5833,.b3bd9d11-8b0e-4127-acd0-5a1ce36adcc0{letter-spacing:-0.02em;}.a80320cf-576d-4ccf-9c58-1f8e1c7ff88a,.be9a54f3-9596-4545-88de-6423bc03d1c2{letter-spacing:-0.1em;}.b052cc73-c2a0-4aa8-94dd-cc9f7a4b6165,.b67d8ad7-f06e-4f7e-a460-0b44dac67a83{letter-spacing:-0.03em;}.bae3b05c-f47e-4327-8dcb-bf106062174b{font-size:11px;}.bd7e5763-6226-4997-8016-e3de9535420b{letter-spacing:-0.06em;}.b596d6ba-5120-4ce2-8f80-321a8ea9605d{letter-spacing:-0.1em;}.a83f3e2e-9b1c-4a7d-86e8-212c67d03763{letter-spacing:-0.03em;}.a6504b97-d785-40bd-889a-de04a78da0a0{letter-spacing:-0.06em;}.f4dc7e93-89c0-4dc4-9b07-007070d23d7f{letter-spacing:0.03em;}.a908cbbb-6601-4287-abbc-413ac0df3239{letter-spacing:-0.02em;}.f277a5ef-d9c8-46ec-b6b4-1828774a3ed8,.fefcbe48-6a9c-41f7-8dbf-cb9df240661a{letter-spacing:-0.05em;}.a644fa41-e40f-4a6c-b191-a0ad5ae87f73,.e25e51fd-b76d-470f-a7ce-9ab97cf3e6ed,.ecfeed46-6c43-4b54-9bbc-dcce2ff7d8b1{font-size:10px;}.a644fa41-e40f-4a6c-b191-a0ad5ae87f73,.b8e7827d-7c32-4ee4-a731-8d952bfcd6a2{fill:#fff;}.ecfeed46-6c43-4b54-9bbc-dcce2ff7d8b1{font-family:MyriadPro-Regular, Myriad Pro;}.af777297-3964-45e4-9eec-4ef1d86e5fcc,.f87b47a7-2cbd-4fa1-a431-12d1d1a27a00{letter-spacing:0.03em;}.ad04ecee-9027-454f-9e8b-c968c09e5434{letter-spacing:-0.09em;}.f26297dc-265e-42d5-b272-cfe00545b66c{letter-spacing:-0.13em;}.a11676ee-faea-4931-8bdd-37b07baa0976{stroke-dasharray:5 3;}.b8e7827d-7c32-4ee4-a731-8d952bfcd6a2{font-size:16px;}</style></defs><title>CDOT_diagrams_ch2</title><g id="f97b4ba6-3452-43df-bffd-2ceb3ca206a9" data-name="shapes"><rect class="aaa18232-133e-4eed-b4f9-af46a07359c3" x="1043.7" y="519.99" width="63.97" height="46.71"/><rect class="aaa18232-133e-4eed-b4f9-af46a07359c3" x="1043.7" y="658.87" width="63.97" height="46.71"/><polyline class="f73fec06-8617-41e8-9ae6-21d204ff52e2" points="269.02 145.98 855.45 145.98 855.45 508.13"/><polygon class="bdd7df3e-8ee4-4b05-ac06-541589a69603" points="849.47 506.38 855.45 516.75 861.43 506.38 849.47 506.38"/><line class="f73fec06-8617-41e8-9ae6-21d204ff52e2" x1="224.58" y1="288.8" x2="335.44" y2="288.8"/><polygon class="bdd7df3e-8ee4-4b05-ac06-541589a69603" points="333.69 294.78 344.05 288.8 333.69 282.81 333.69 294.78"/><line class="f73fec06-8617-41e8-9ae6-21d204ff52e2" x1="306.51" y1="542.91" x2="452.71" y2="542.91"/><polygon class="bdd7df3e-8ee4-4b05-ac06-541589a69603" points="450.96 548.9 461.32 542.91 450.96 536.93 450.96 548.9"/><line class="f73fec06-8617-41e8-9ae6-21d204ff52e2" x1="672.08" y1="542.91" x2="715.94" y2="542.91"/><polygon class="bdd7df3e-8ee4-4b05-ac06-541589a69603" points="714.18 548.9 724.55 542.91 714.18 536.93 714.18 548.9"/><line class="f73fec06-8617-41e8-9ae6-21d204ff52e2" x1="999.56" y1="542.91" x2="1033.5" y2="542.91"/><polygon class="bdd7df3e-8ee4-4b05-ac06-541589a69603" points="1031.75 548.9 1042.11 542.91 1031.75 536.93 1031.75 548.9"/><line class="f73fec06-8617-41e8-9ae6-21d204ff52e2" x1="1001.84" y1="682.29" x2="1033.5" y2="682.29"/><polygon class="bdd7df3e-8ee4-4b05-ac06-541589a69603" points="1031.75 688.27 1042.11 682.29 1031.75 676.31 1031.75 688.27"/><line class="f73fec06-8617-41e8-9ae6-21d204ff52e2" x1="1107.08" y1="542.91" x2="1141.03" y2="542.91"/><polygon class="bdd7df3e-8ee4-4b05-ac06-541589a69603" points="1139.28 548.9 1149.64 542.91 1139.28 536.93 1139.28 548.9"/><line class="f73fec06-8617-41e8-9ae6-21d204ff52e2" x1="1107.39" y1="682.29" x2="1141.03" y2="682.29"/><polygon class="bdd7df3e-8ee4-4b05-ac06-541589a69603" points="1139.28 688.27 1149.64 682.29 1139.28 676.31 1139.28 688.27"/><line class="f73fec06-8617-41e8-9ae6-21d204ff52e2" x1="553.19" y1="288.8" x2="855.17" y2="288.8"/><line class="fcac95ba-ce23-4d23-800f-964647dcd96e" x1="18.37" y1="220.02" x2="20.87" y2="220.02"/><line class="ba1ff8df-50e7-4b62-a899-8f416d4ee432" x1="23.87" y1="220.02" x2="1203.6" y2="220.02"/><line class="fcac95ba-ce23-4d23-800f-964647dcd96e" x1="1205.1" y1="220.02" x2="1207.6" y2="220.02"/><line class="fcac95ba-ce23-4d23-800f-964647dcd96e" x1="18.37" y1="360.73" x2="20.87" y2="360.73"/><line class="ba1ff8df-50e7-4b62-a899-8f416d4ee432" x1="23.87" y1="360.73" x2="1203.6" y2="360.73"/><line class="fcac95ba-ce23-4d23-800f-964647dcd96e" x1="1205.1" y1="360.73" x2="1207.6" y2="360.73"/><line class="fcac95ba-ce23-4d23-800f-964647dcd96e" x1="18.37" y1="486.92" x2="20.87" y2="486.92"/><line class="ba1ff8df-50e7-4b62-a899-8f416d4ee432" x1="23.87" y1="486.92" x2="1203.6" y2="486.92"/><line class="fcac95ba-ce23-4d23-800f-964647dcd96e" x1="1205.1" y1="486.92" x2="1207.6" y2="486.92"/><line class="fcac95ba-ce23-4d23-800f-964647dcd96e" x1="18.37" y1="599.26" x2="20.87" y2="599.26"/><line class="ba1ff8df-50e7-4b62-a899-8f416d4ee432" x1="23.87" y1="599.26" x2="1203.6" y2="599.26"/><line class="fcac95ba-ce23-4d23-800f-964647dcd96e" x1="1205.1" y1="599.26" x2="1207.6" y2="599.26"/><line class="f73fec06-8617-41e8-9ae6-21d204ff52e2" x1="568.05" y1="288.35" x2="568.05" y2="508.28"/><polygon class="bdd7df3e-8ee4-4b05-ac06-541589a69603" points="562.07 506.53 568.05 516.89 574.04 506.53 562.07 506.53"/><line class="f73fec06-8617-41e8-9ae6-21d204ff52e2" x1="855.4" y1="569.02" x2="855.4" y2="650.61"/><polygon class="bdd7df3e-8ee4-4b05-ac06-541589a69603" points="849.42 648.86 855.4 659.22 861.39 648.86 849.42 648.86"/><line class="f73fec06-8617-41e8-9ae6-21d204ff52e2" x1="449.35" y1="145.89" x2="449.35" y2="249.61"/><polygon class="bdd7df3e-8ee4-4b05-ac06-541589a69603" points="443.36 247.85 449.35 258.22 455.33 247.85 443.36 247.85"/><polyline class="f73fec06-8617-41e8-9ae6-21d204ff52e2" points="259 423.86 449.25 423.86 449.25 328.53"/><polygon class="bdd7df3e-8ee4-4b05-ac06-541589a69603" points="455.23 330.28 449.25 319.92 443.26 330.28 455.23 330.28"/></g><g id="e05fe6a2-152f-40ad-8b4d-54acaa1b05e7" data-name="text"><text class="b076f256-faae-4bd2-b60f-17a4cd84b985" transform="translate(18.5 32.68)">2-1<tspan class="a60c3f05-c073-41e7-a332-51bef73e5833" x="36.94" y="0"> </tspan><tspan class="a80320cf-576d-4ccf-9c58-1f8e1c7ff88a" x="43.73" y="0">T</tspan><tspan class="b67d8ad7-f06e-4f7e-a460-0b44dac67a83" x="55.96" y="0">r</tspan><tspan x="65.46" y="0">ansit or Rail Project Planning Lifecycle </tspan></text><text class="bae3b05c-f47e-4327-8dcb-bf106062174b" transform="translate(46.97 211.68) rotate(-90)"><tspan class="a80320cf-576d-4ccf-9c58-1f8e1c7ff88a">T</tspan><tspan class="b67d8ad7-f06e-4f7e-a460-0b44dac67a83" x="5.6" y="0">r</tspan><tspan x="9.96" y="0">ansit and Rail</tspan><tspan class="bd7e5763-6226-4997-8016-e3de9535420b" x="79.16" y="0"> </tspan><tspan x="81.87" y="0">Agencies/ </tspan><tspan x="9.47" y="13.2">Commissions/Councils</tspan></text><text class="bae3b05c-f47e-4327-8dcb-bf106062174b" transform="translate(46.97 579.37) rotate(-90)">DTR Planning<tspan x="-12.51" y="13.2" xml:space="preserve"> and Prog</tspan><tspan class="b67d8ad7-f06e-4f7e-a460-0b44dac67a83" x="35.76" y="13.2">r</tspan><tspan x="40.12" y="13.2">amming</tspan></text><text class="bae3b05c-f47e-4327-8dcb-bf106062174b" transform="translate(33.78 351.23) rotate(-90)"><tspan class="a80320cf-576d-4ccf-9c58-1f8e1c7ff88a">T</tspan><tspan class="b67d8ad7-f06e-4f7e-a460-0b44dac67a83" x="5.6" y="0">r</tspan><tspan x="9.96" y="0">ansportation Planning </tspan><tspan x="8.79" y="13.2">Region/Metropolitan </tspan><tspan x="4.67" y="26.4">Planning Organization </tspan><tspan x="33.73" y="39.6">(TPR/MPO)</tspan></text><text class="bae3b05c-f47e-4327-8dcb-bf106062174b" transform="translate(33.78 472.35) rotate(-90)">Local Coordinating <tspan x="4.92" y="13.2">Council/Regional </tspan><tspan x="-5.53" y="26.4">Coordinating Council </tspan><tspan x="21.91" y="39.6">(LCC/RCC)</tspan></text><text class="bae3b05c-f47e-4327-8dcb-bf106062174b" transform="translate(33.78 752.52) rotate(-90) scale(1.02 1)"><tspan class="b596d6ba-5120-4ce2-8f80-321a8ea9605d">T</tspan><tspan class="a83f3e2e-9b1c-4a7d-86e8-212c67d03763" x="5.6" y="0">r</tspan><tspan x="9.96" y="0">ansportation Commission, </tspan><tspan class="b596d6ba-5120-4ce2-8f80-321a8ea9605d" x="8.38" y="13.2">T</tspan><tspan class="a83f3e2e-9b1c-4a7d-86e8-212c67d03763" x="13.98" y="13.2">r</tspan><tspan x="18.33" y="13.2">ansit and Rail</tspan><tspan class="a6504b97-d785-40bd-889a-de04a78da0a0" x="87.54" y="13.2"> </tspan><tspan x="90.25" y="13.2">Ad</tspan><tspan class="f4dc7e93-89c0-4dc4-9b07-007070d23d7f" x="103.6" y="13.2">v</tspan><tspan x="109.74" y="13.2">isory </tspan><tspan x="11.26" y="26.4">Committee,</tspan><tspan class="a908cbbb-6601-4287-abbc-413ac0df3239" x="71.81" y="26.4"> </tspan><tspan class="b596d6ba-5120-4ce2-8f80-321a8ea9605d" x="74.93" y="26.4">T</tspan><tspan class="a83f3e2e-9b1c-4a7d-86e8-212c67d03763" x="80.53" y="26.4">r</tspan><tspan x="84.89" y="26.4">ansit and </tspan><tspan x="13.5" y="39.6">Intermodal Committee</tspan></text><text class="bae3b05c-f47e-4327-8dcb-bf106062174b" transform="translate(105.65 65.8)">Project &amp; Needs Identification</text><text class="bae3b05c-f47e-4327-8dcb-bf106062174b" transform="translate(389.76 65.8)">Project Consolidation &amp; Prioritization</text><text class="bae3b05c-f47e-4327-8dcb-bf106062174b" transform="translate(876.84 65.8)">CDO<tspan class="a60c3f05-c073-41e7-a332-51bef73e5833" x="21.53" y="0">T</tspan><tspan x="28.06" y="0"> </tspan><tspan class="f277a5ef-d9c8-46ec-b6b4-1828774a3ed8" x="31.38" y="0">F</tspan><tspan x="37.28" y="0">unding Decisions</tspan></text><text class="a644fa41-e40f-4a6c-b191-a0ad5ae87f73" transform="translate(1064.36 534.27)">Start <tspan x="-15.11" y="12">Application </tspan><tspan x="-6.32" y="24">Process</tspan></text><text class="a644fa41-e40f-4a6c-b191-a0ad5ae87f73" transform="translate(1064.36 673.15)">Start <tspan x="-11.83" y="12">Budgeting</tspan><tspan x="-6.32" y="24">Process</tspan></text><rect class="f73fec06-8617-41e8-9ae6-21d204ff52e2" x="98.14" y="93.49" width="170.66" height="102.92"/><text class="ecfeed46-6c43-4b54-9bbc-dcce2ff7d8b1" transform="translate(104.78 109.56)"><tspan xml:space="preserve">•  </tspan><tspan class="ed3c6785-ddc5-4dd5-9aea-7d721101ad9b" x="7.06" y="0">Ser</tspan><tspan class="f87b47a7-2cbd-4fa1-a431-12d1d1a27a00" x="22.19" y="0">v</tspan><tspan class="ed3c6785-ddc5-4dd5-9aea-7d721101ad9b" x="27.78" y="0">ice and Ope</tspan><tspan class="b052cc73-c2a0-4aa8-94dd-cc9f7a4b6165" x="83.29" y="0">r</tspan><tspan class="ed3c6785-ddc5-4dd5-9aea-7d721101ad9b" x="87.25" y="0">ations Plans</tspan><tspan x="0" y="13" xml:space="preserve">•  </tspan><tspan class="ed3c6785-ddc5-4dd5-9aea-7d721101ad9b" x="7.06" y="13">Asset Management Plans</tspan><tspan x="0" y="26" xml:space="preserve">•  </tspan><tspan class="be9a54f3-9596-4545-88de-6423bc03d1c2" x="7.06" y="26">T</tspan><tspan class="b052cc73-c2a0-4aa8-94dd-cc9f7a4b6165" x="12.15" y="26">r</tspan><tspan class="ed3c6785-ddc5-4dd5-9aea-7d721101ad9b" x="16.11" y="26">ansportation Master Plans</tspan><tspan x="0" y="39" xml:space="preserve">•  </tspan><tspan class="ed3c6785-ddc5-4dd5-9aea-7d721101ad9b" x="7.06" y="39">Capital Plans and Studies</tspan><tspan x="0" y="52" xml:space="preserve">•  </tspan><tspan class="ed3c6785-ddc5-4dd5-9aea-7d721101ad9b" x="7.06" y="52">Safety and Security Plans</tspan><tspan x="0" y="65" xml:space="preserve">•  </tspan><tspan class="fefcbe48-6a9c-41f7-8dbf-cb9df240661a" x="7.06" y="65">F</tspan><tspan class="ed3c6785-ddc5-4dd5-9aea-7d721101ad9b" x="12.43" y="65">easibility Plans and Studies</tspan><tspan x="0" y="78" xml:space="preserve">•  </tspan><tspan class="ed3c6785-ddc5-4dd5-9aea-7d721101ad9b" x="7.06" y="78">5311/5310 Quarterly Reports</tspan></text><rect class="f73fec06-8617-41e8-9ae6-21d204ff52e2" x="98.14" y="511.8" width="208.8" height="65.59"/><text class="ecfeed46-6c43-4b54-9bbc-dcce2ff7d8b1" transform="translate(104.78 527.88)">• <tspan class="ed3c6785-ddc5-4dd5-9aea-7d721101ad9b" x="4.94" y="0">State Freight and </tspan><tspan class="fefcbe48-6a9c-41f7-8dbf-cb9df240661a" x="88.88" y="0">P</tspan><tspan class="ed3c6785-ddc5-4dd5-9aea-7d721101ad9b" x="94.28" y="0">assenger Rail Plan </tspan><tspan class="ed3c6785-ddc5-4dd5-9aea-7d721101ad9b"><tspan x="0" y="12">(every 4 years)</tspan></tspan><tspan x="0" y="25" xml:space="preserve">•  </tspan><tspan class="ed3c6785-ddc5-4dd5-9aea-7d721101ad9b" x="7.06" y="25">Intercity and Regional Bus Network Plan</tspan><tspan x="0" y="38" xml:space="preserve">•  </tspan><tspan class="ed3c6785-ddc5-4dd5-9aea-7d721101ad9b" x="7.06" y="38">Other Plans or Studies</tspan></text><rect class="f73fec06-8617-41e8-9ae6-21d204ff52e2" x="464.05" y="517.81" width="208.8" height="51.22"/><text class="e25e51fd-b76d-470f-a7ce-9ab97cf3e6ed" transform="translate(470.69 533.89)"><tspan xml:space="preserve">•  Statewide</tspan><tspan class="a60c3f05-c073-41e7-a332-51bef73e5833" x="57.76" y="0"> </tspan><tspan class="a80320cf-576d-4ccf-9c58-1f8e1c7ff88a" x="60.59" y="0">T</tspan><tspan class="b67d8ad7-f06e-4f7e-a460-0b44dac67a83" x="65.68" y="0">r</tspan><tspan x="69.64" y="0">ansit Plan (every 5 years)</tspan><tspan x="0" y="13">• </tspan><tspan class="a60c3f05-c073-41e7-a332-51bef73e5833" x="8.26" y="13"> </tspan><tspan class="a80320cf-576d-4ccf-9c58-1f8e1c7ff88a" x="11.09" y="13">T</tspan><tspan class="b67d8ad7-f06e-4f7e-a460-0b44dac67a83" x="16.18" y="13">r</tspan><tspan x="20.14" y="13">ansit Development Prog</tspan><tspan class="b67d8ad7-f06e-4f7e-a460-0b44dac67a83" x="131.31" y="13">r</tspan><tspan x="135.27" y="13">am</tspan><tspan x="0" y="26" xml:space="preserve">•  Statewide</tspan><tspan class="bd7e5763-6226-4997-8016-e3de9535420b" x="57.76" y="26"> </tspan><tspan x="60.22" y="26">Asset Management Plan</tspan></text><rect class="f73fec06-8617-41e8-9ae6-21d204ff52e2" x="725.2" y="517.81" width="274.44" height="51.22"/><text class="e25e51fd-b76d-470f-a7ce-9ab97cf3e6ed" transform="translate(731.83 533.88)"><tspan xml:space="preserve">•  DTR Calls for Projects process (fede</tspan><tspan class="b67d8ad7-f06e-4f7e-a460-0b44dac67a83" x="178.77" y="0">r</tspan><tspan x="182.73" y="0">al/state funding)</tspan><tspan x="0" y="13" xml:space="preserve">•  CDO</tspan><tspan class="a60c3f05-c073-41e7-a332-51bef73e5833" x="30.84" y="13">T</tspan><tspan x="36.78" y="13" xml:space="preserve"> St</tspan><tspan class="b67d8ad7-f06e-4f7e-a460-0b44dac67a83" x="48.87" y="13">r</tspan><tspan x="52.83" y="13">ategic Projects selection process</tspan><tspan x="0" y="26" xml:space="preserve">•  F</tspan><tspan class="ad04ecee-9027-454f-9e8b-c968c09e5434" x="17.1" y="26">T</tspan><tspan class="bd7e5763-6226-4997-8016-e3de9535420b" x="22.28" y="26">A</tspan><tspan x="28.06" y="26" xml:space="preserve"> Discretionary </tspan><tspan class="f277a5ef-d9c8-46ec-b6b4-1828774a3ed8" x="96.38" y="26">F</tspan><tspan x="101.75" y="26">unding Projects selection process</tspan></text><rect class="f73fec06-8617-41e8-9ae6-21d204ff52e2" x="725.2" y="662.46" width="275.99" height="39.86"/><text class="ecfeed46-6c43-4b54-9bbc-dcce2ff7d8b1" transform="translate(731.83 678.54)"><tspan xml:space="preserve">•  </tspan><tspan class="be9a54f3-9596-4545-88de-6423bc03d1c2" x="7.06" y="0">T</tspan><tspan class="b052cc73-c2a0-4aa8-94dd-cc9f7a4b6165" x="12.15" y="0">r</tspan><tspan class="ed3c6785-ddc5-4dd5-9aea-7d721101ad9b" x="16.11" y="0">ansportation Commission</tspan><tspan x="0" y="13" xml:space="preserve">•  </tspan><tspan class="ed3c6785-ddc5-4dd5-9aea-7d721101ad9b" x="7.06" y="13">Statewide</tspan><tspan class="b3bd9d11-8b0e-4127-acd0-5a1ce36adcc0" x="53.55" y="13"> </tspan><tspan class="be9a54f3-9596-4545-88de-6423bc03d1c2" x="56.38" y="13">T</tspan><tspan class="b052cc73-c2a0-4aa8-94dd-cc9f7a4b6165" x="61.47" y="13">r</tspan><tspan class="ed3c6785-ddc5-4dd5-9aea-7d721101ad9b" x="65.43" y="13">ansportation Improvement Prog</tspan><tspan class="b052cc73-c2a0-4aa8-94dd-cc9f7a4b6165" x="213.74" y="13">r</tspan><tspan class="ed3c6785-ddc5-4dd5-9aea-7d721101ad9b" x="217.7" y="13">am (STIP)</tspan></text><rect class="f73fec06-8617-41e8-9ae6-21d204ff52e2" x="98.14" y="249.5" width="125.55" height="80.81"/><text class="e25e51fd-b76d-470f-a7ce-9ab97cf3e6ed" transform="translate(104.78 266.37)"><tspan xml:space="preserve">•  Cities and Counties</tspan><tspan x="0" y="13" xml:space="preserve">•  Stakeholder Groups</tspan><tspan x="0" y="26" xml:space="preserve">•  Indi</tspan><tspan class="af777297-3964-45e4-9eec-4ef1d86e5fcc" x="28.75" y="26">v</tspan><tspan x="34.33" y="26">iduals</tspan><tspan x="0" y="39" xml:space="preserve">•  Public Outreach</tspan><tspan x="0" y="52" xml:space="preserve">•  Local Plans</tspan></text><rect class="f73fec06-8617-41e8-9ae6-21d204ff52e2" x="346.75" y="261.3" width="206.42" height="56.63"/><text class="e25e51fd-b76d-470f-a7ce-9ab97cf3e6ed" transform="translate(353.38 280.17)"><tspan xml:space="preserve">•  Regional</tspan><tspan class="a60c3f05-c073-41e7-a332-51bef73e5833" x="50.97" y="0"> </tspan><tspan class="a80320cf-576d-4ccf-9c58-1f8e1c7ff88a" x="53.8" y="0">T</tspan><tspan class="b67d8ad7-f06e-4f7e-a460-0b44dac67a83" x="58.89" y="0">r</tspan><tspan x="62.85" y="0">ansportation Plan </tspan><tspan x="0" y="13" xml:space="preserve">•  Regional</tspan><tspan class="a60c3f05-c073-41e7-a332-51bef73e5833" x="50.97" y="13"> </tspan><tspan class="a80320cf-576d-4ccf-9c58-1f8e1c7ff88a" x="53.8" y="13">T</tspan><tspan class="b67d8ad7-f06e-4f7e-a460-0b44dac67a83" x="58.89" y="13">r</tspan><tspan x="62.85" y="13">ansit Plan (Consolidated </tspan><tspan class="f26297dc-265e-42d5-b272-cfe00545b66c" x="178.33" y="13">	</tspan><tspan x="180" y="13" xml:space="preserve">                </tspan><tspan x="0" y="25">Human Ser</tspan><tspan class="af777297-3964-45e4-9eec-4ef1d86e5fcc" x="50.71" y="25">v</tspan><tspan x="56.3" y="25">ices</tspan><tspan class="a60c3f05-c073-41e7-a332-51bef73e5833" x="74.45" y="25"> </tspan><tspan class="a80320cf-576d-4ccf-9c58-1f8e1c7ff88a" x="77.29" y="25">T</tspan><tspan class="b67d8ad7-f06e-4f7e-a460-0b44dac67a83" x="82.38" y="25">r</tspan><tspan x="86.34" y="25">ansportation Plan)</tspan></text><rect class="f73fec06-8617-41e8-9ae6-21d204ff52e2" x="98.14" y="380.94" width="160.92" height="82.3"/><text class="e25e51fd-b76d-470f-a7ce-9ab97cf3e6ed" transform="translate(104.78 398.8)"><tspan xml:space="preserve">•  Human Ser</tspan><tspan class="af777297-3964-45e4-9eec-4ef1d86e5fcc" x="61.98" y="0">v</tspan><tspan x="67.57" y="0">ices</tspan><tspan class="bd7e5763-6226-4997-8016-e3de9535420b" x="85.72" y="0"> </tspan><tspan x="88.18" y="0">Agencies</tspan><tspan x="0" y="13" xml:space="preserve">•  Public Health Organizations</tspan><tspan x="0" y="26" xml:space="preserve">•  Community Organizations</tspan><tspan x="0" y="39" xml:space="preserve">•  Nonprofit Organizations</tspan><tspan x="0" y="52">• </tspan><tspan class="a60c3f05-c073-41e7-a332-51bef73e5833" x="8.26" y="52"> </tspan><tspan class="a80320cf-576d-4ccf-9c58-1f8e1c7ff88a" x="11.09" y="52">T</tspan><tspan class="b67d8ad7-f06e-4f7e-a460-0b44dac67a83" x="16.18" y="52">r</tspan><tspan x="20.14" y="52">ansit Pro</tspan><tspan class="af777297-3964-45e4-9eec-4ef1d86e5fcc" x="61.44" y="52">v</tspan><tspan x="67.03" y="52">iders</tspan></text><polygon class="fa1c7f85-c58b-4fe5-b053-2d302573989f" points="1207.66 761.7 18.38 761.7 18.38 73.5 47.12 73.5 1207.66 73.5 1207.66 761.7"/><line class="fa1c7f85-c58b-4fe5-b053-2d302573989f" x1="84.39" y1="761.07" x2="84.39" y2="73.56"/><line class="a11676ee-faea-4931-8bdd-37b07baa0976" x1="320.97" y1="761.89" x2="320.97" y2="53.53"/><line class="a11676ee-faea-4931-8bdd-37b07baa0976" x1="698.89" y1="761.89" x2="698.89" y2="53.53"/><rect class="fa1c7f85-c58b-4fe5-b053-2d302573989f" x="18.38" y="53.28" width="1189.29" height="19.09"/><circle class="f189f687-36a1-48d2-9397-1191ecc99f1e" cx="1173.06" cy="542.26" r="22.5"/><text class="b8e7827d-7c32-4ee4-a731-8d952bfcd6a2" transform="translate(1156.06 548.13)">3-11</text><circle class="f189f687-36a1-48d2-9397-1191ecc99f1e" cx="1173.06" cy="682.16" r="22.5"/><text class="b8e7827d-7c32-4ee4-a731-8d952bfcd6a2" transform="translate(1160.75 688.03)">3-4</text></g></svg>