<svg xmlns="http://www.w3.org/2000/svg" viewBox="0 0 2273.2 1003.32"><defs><style>.bdf929c5-f5cd-4e17-a3eb-53984d75cb45,.e8d69af4-2858-457a-87f0-64cd981de524{fill:#009add;}.af242569-0fdd-48f9-a9c6-a9eeea0fc7e9,.afecd6ee-0bf6-4446-b38f-f492d087e38e,.b6f2c4f3-020e-496a-8314-46bcb44c5fe3,.e8d69af4-2858-457a-87f0-64cd981de524,.f2476e19-97e9-4114-bc1c-35603b6e6b48,.f90a1314-124d-413e-9b5b-8ed3d6acf0fd{stroke:#646464;}.af242569-0fdd-48f9-a9c6-a9eeea0fc7e9,.afecd6ee-0bf6-4446-b38f-f492d087e38e,.b6f2c4f3-020e-496a-8314-46bcb44c5fe3,.e8d69af4-2858-457a-87f0-64cd981de524,.f2476e19-97e9-4114-bc1c-35603b6e6b48{stroke-miterlimit:10;}.e8d69af4-2858-457a-87f0-64cd981de524,.f2476e19-97e9-4114-bc1c-35603b6e6b48,.f90a1314-124d-413e-9b5b-8ed3d6acf0fd{stroke-width:2px;}.af242569-0fdd-48f9-a9c6-a9eeea0fc7e9,.afecd6ee-0bf6-4446-b38f-f492d087e38e,.b6f2c4f3-020e-496a-8314-46bcb44c5fe3,.f2476e19-97e9-4114-bc1c-35603b6e6b48,.f90a1314-124d-413e-9b5b-8ed3d6acf0fd{fill:none;}.f90a1314-124d-413e-9b5b-8ed3d6acf0fd{stroke-linejoin:round;}.a5b89788-47fc-462e-9144-6b47ca07c824{font-size:24px;}.a5b89788-47fc-462e-9144-6b47ca07c824,.ae080522-f690-4480-86ce-cb275e08f9dd,.b37f2395-4b52-40a1-8438-352754554add,.e65553bd-f77e-4660-ab98-a69905ce404e,.e91ead72-b0cb-4cb1-b3c1-7b395bd0e2c7{fill:#646464;}.a5b89788-47fc-462e-9144-6b47ca07c824,.b37f2395-4b52-40a1-8438-352754554add,.b5b4dd1f-7ba2-4d19-9cb4-f096e0da1f27,.bb41becb-a685-4273-8dcf-5ed1b2896c5e,.e65553bd-f77e-4660-ab98-a69905ce404e{font-family:TrebuchetMS-Bold, Trebuchet MS;font-weight:700;}.f660f69d-c72c-4023-81fa-8603d54c3be3{letter-spacing:-0.06em;}.bd88373d-5568-4f6b-bef7-91b54e75ba50{letter-spacing:-0.02em;}.b37f2395-4b52-40a1-8438-352754554add{font-size:11px;}.be914962-9caa-4014-a157-86b8272ed10f{letter-spacing:-0.03em;}.afecd6ee-0bf6-4446-b38f-f492d087e38e{stroke-width:0.5px;}.af242569-0fdd-48f9-a9c6-a9eeea0fc7e9,.afecd6ee-0bf6-4446-b38f-f492d087e38e{stroke-dasharray:5 3;}.bb41becb-a685-4273-8dcf-5ed1b2896c5e,.e65553bd-f77e-4660-ab98-a69905ce404e,.e91ead72-b0cb-4cb1-b3c1-7b395bd0e2c7{font-size:10px;}.afd623a7-8a3c-476d-ad2d-6ed7e9012e0a{letter-spacing:-0.11em;}.acab40f7-55b5-4199-859e-45a9e01fa16c{letter-spacing:-0.1em;}.a296ee4a-7d83-4022-9c6f-e91289a3a463{letter-spacing:0.03em;}.b5b4dd1f-7ba2-4d19-9cb4-f096e0da1f27,.bb41becb-a685-4273-8dcf-5ed1b2896c5e{fill:#fff;}.e3882f43-42c7-4775-b678-df0966a30c64{letter-spacing:-0.09em;}.b5b4dd1f-7ba2-4d19-9cb4-f096e0da1f27{font-size:16px;}.b98c62df-2678-4bdb-b059-093118b4529d{letter-spacing:-0.05em;}.a9e6c1e7-167a-4fab-b74f-129f38c3009e{letter-spacing:-0.09em;}.aa10e9e8-b002-480c-b428-5b8ec5bea408{fill:#3eaf49;}.ae243ca2-9aeb-40e3-84de-3dc77d87ec1b{fill:#d23138;}.e91ead72-b0cb-4cb1-b3c1-7b395bd0e2c7{font-family:TrebuchetMS, Trebuchet MS;}</style></defs><title>CDOT_diagrams_CH3</title><g id="f0ba2d3b-7121-4452-a53b-7cf7c0b26325" data-name="shapes"><path class="e8d69af4-2858-457a-87f0-64cd981de524" d="M1566.18,867s-9.72-14.09-9.72-28.34,9.72-29.2,9.72-29.2h95.62s9.72,14.09,9.72,28.34-9.72,29.2-9.72,29.2Z"/><path class="f90a1314-124d-413e-9b5b-8ed3d6acf0fd" d="M988.07,209.7s-9.39,12.78-9.39,25.61,8.75,25.49,8.75,25.49"/><path class="f2476e19-97e9-4114-bc1c-35603b6e6b48" d="M905.9,260.8s-8.74-12.67-8.74-25.49,8.74-26.26,8.74-26.26h81.87s8.75,12.67,8.75,25.49-8.75,26.26-8.75,26.26Z"/><path class="f90a1314-124d-413e-9b5b-8ed3d6acf0fd" d="M1662.13,810.23s-10.44,14.21-10.44,28.47,9.73,28.34,9.73,28.34"/></g><g id="a22c33b6-ae3e-4adf-a039-ff3eba23e7d9" data-name="text"><circle class="bdf929c5-f5cd-4e17-a3eb-53984d75cb45" cx="1612.24" cy="932.78" r="30.12"/><polygon class="b6f2c4f3-020e-496a-8314-46bcb44c5fe3" points="2248.85 979.94 19.87 979.94 19.87 69.13 73.74 69.13 2248.85 69.13 2248.85 979.94"/><text class="a5b89788-47fc-462e-9144-6b47ca07c824" transform="translate(18.5 35.72)">3-19 Section 5311(f) Planning through<tspan class="f660f69d-c72c-4023-81fa-8603d54c3be3" x="429.13" y="0"> </tspan><tspan class="bd88373d-5568-4f6b-bef7-91b54e75ba50" x="435.04" y="0">A</tspan><tspan x="449.8" y="0">ward</tspan></text><line class="b6f2c4f3-020e-496a-8314-46bcb44c5fe3" x1="64.85" y1="980.68" x2="64.85" y2="69"/><text class="b37f2395-4b52-40a1-8438-352754554add" transform="translate(44.66 495.56) rotate(-90)">DTR Bus Ope<tspan class="be914962-9caa-4014-a157-86b8272ed10f" x="65.39" y="0">r</tspan><tspan x="69.75" y="0">ations Unit</tspan></text><text class="b37f2395-4b52-40a1-8438-352754554add" transform="translate(44.66 695) rotate(-90)">Greyhound</text><text class="b37f2395-4b52-40a1-8438-352754554add" transform="translate(44.66 924.12) rotate(-90)">DTR Prog<tspan class="be914962-9caa-4014-a157-86b8272ed10f" x="46.73" y="0">r</tspan><tspan x="51.09" y="0">amming Unit</tspan></text><text class="b37f2395-4b52-40a1-8438-352754554add" transform="translate(44.66 266.54) rotate(-90)">Subrecipient/Ope<tspan class="be914962-9caa-4014-a157-86b8272ed10f" x="90.07" y="0">r</tspan><tspan x="94.43" y="0">ator/Carrier</tspan></text><line class="afecd6ee-0bf6-4446-b38f-f492d087e38e" x1="2247.92" y1="304.23" x2="19.81" y2="304.23"/><line class="afecd6ee-0bf6-4446-b38f-f492d087e38e" x1="2247.92" y1="573.08" x2="19.81" y2="573.08"/><line class="afecd6ee-0bf6-4446-b38f-f492d087e38e" x1="2247.92" y1="757.64" x2="19.81" y2="757.64"/><rect class="f2476e19-97e9-4114-bc1c-35603b6e6b48" x="1074.3" y="215.2" width="79.99" height="49.24"/><text class="e65553bd-f77e-4660-ab98-a69905ce404e" transform="translate(1091.14 230.58)"><tspan class="afd623a7-8a3c-476d-ad2d-6ed7e9012e0a">T</tspan><tspan x="5.01" y="0">erminate </tspan><tspan x="10.84" y="12">G</tspan><tspan class="be914962-9caa-4014-a157-86b8272ed10f" x="17.55" y="12">r</tspan><tspan x="21.51" y="12">ant </tspan><tspan x="-1.89" y="24">Agreement</tspan></text><rect class="f2476e19-97e9-4114-bc1c-35603b6e6b48" x="1407.58" y="220.09" width="93.95" height="49.24"/><text class="e65553bd-f77e-4660-ab98-a69905ce404e" transform="translate(1418.01 235.47)">Request In-kind <tspan x="10.07" y="12">Match from </tspan><tspan x="10.94" y="24">Greyhound</tspan></text><rect class="f2476e19-97e9-4114-bc1c-35603b6e6b48" x="1266.19" y="94.96" width="88.28" height="49.24"/><text class="e65553bd-f77e-4660-ab98-a69905ce404e" transform="translate(1280.51 110.34)">Extend G<tspan class="be914962-9caa-4014-a157-86b8272ed10f" x="42.36" y="0">r</tspan><tspan x="46.32" y="0">ant </tspan><tspan x="-4.12" y="12">Agreement (up </tspan><tspan x="5.67" y="24">to 4 years) </tspan></text><rect class="f2476e19-97e9-4114-bc1c-35603b6e6b48" x="99.48" y="342.75" width="100.36" height="65.96"/><text class="e65553bd-f77e-4660-ab98-a69905ce404e" transform="translate(131.52 360.65)">Conduct <tspan x="-11.75" y="12">outreach and </tspan><tspan x="-6.99" y="24">planning to </tspan><tspan x="-14.23" y="36">identify needs</tspan></text><rect class="f2476e19-97e9-4114-bc1c-35603b6e6b48" x="243.24" y="346.75" width="138.73" height="60.04"/><text class="e65553bd-f77e-4660-ab98-a69905ce404e" transform="translate(261.2 368.9)">Consult with<tspan class="bd88373d-5568-4f6b-bef7-91b54e75ba50" x="58.54" y="0"> </tspan><tspan class="acab40f7-55b5-4199-859e-45a9e01fa16c" x="61.37" y="0">T</tspan><tspan class="be914962-9caa-4014-a157-86b8272ed10f" x="66.46" y="0">r</tspan><tspan x="70.42" y="0">ansit &amp; </tspan><tspan x="-5.76" y="12">Rail</tspan><tspan class="f660f69d-c72c-4023-81fa-8603d54c3be3" x="11.61" y="12"> </tspan><tspan x="14.07" y="12">Ad</tspan><tspan class="a296ee4a-7d83-4022-9c6f-e91289a3a463" x="26.21" y="12">v</tspan><tspan x="31.79" y="12">isory Committee </tspan><tspan x="18.29" y="24">subcommittee</tspan></text><rect class="f2476e19-97e9-4114-bc1c-35603b6e6b48" x="91.74" y="469.55" width="114.82" height="33.79"/><rect class="af242569-0fdd-48f9-a9c6-a9eeea0fc7e9" x="91.74" y="451.63" width="114.82" height="70.37"/><text class="e65553bd-f77e-4660-ab98-a69905ce404e" transform="translate(107.99 483.01)">Intercity Bus Plan <tspan x="-10.8" y="12">Statewide</tspan><tspan class="bd88373d-5568-4f6b-bef7-91b54e75ba50" x="35.69" y="12"> </tspan><tspan class="acab40f7-55b5-4199-859e-45a9e01fa16c" x="38.52" y="12">T</tspan><tspan class="be914962-9caa-4014-a157-86b8272ed10f" x="43.61" y="12">r</tspan><tspan x="47.57" y="12">ansit Plan</tspan></text><line class="f2476e19-97e9-4114-bc1c-35603b6e6b48" x1="200.12" y1="376.83" x2="231.01" y2="376.83"/><polygon class="ae080522-f690-4480-86ce-cb275e08f9dd" points="229.26 382.81 239.62 376.83 229.26 370.85 229.26 382.81"/><line class="f2476e19-97e9-4114-bc1c-35603b6e6b48" x1="382.18" y1="376.83" x2="413.07" y2="376.83"/><polygon class="ae080522-f690-4480-86ce-cb275e08f9dd" points="411.32 382.81 421.68 376.83 411.32 370.85 411.32 382.81"/><line class="f2476e19-97e9-4114-bc1c-35603b6e6b48" x1="637.13" y1="119.57" x2="668.02" y2="119.57"/><polygon class="ae080522-f690-4480-86ce-cb275e08f9dd" points="666.27 125.56 676.63 119.58 666.27 113.59 666.27 125.56"/><line class="f2476e19-97e9-4114-bc1c-35603b6e6b48" x1="491.91" y1="376.83" x2="522.8" y2="376.83"/><polygon class="ae080522-f690-4480-86ce-cb275e08f9dd" points="521.05 382.81 531.41 376.83 521.05 370.85 521.05 382.81"/><rect class="f2476e19-97e9-4114-bc1c-35603b6e6b48" x="533.39" y="346.75" width="112.59" height="60.04"/><text class="e65553bd-f77e-4660-ab98-a69905ce404e" transform="translate(560.15 361.95)">Issue call for <tspan x="10.22" y="12">Projects </tspan><tspan x="-2.43" y="24">(Consolidated </tspan><tspan x="-16" y="36">Ope</tspan><tspan class="be914962-9caa-4014-a157-86b8272ed10f" x="2.6" y="36">r</tspan><tspan x="6.56" y="36">ating Projects) </tspan></text><rect class="f2476e19-97e9-4114-bc1c-35603b6e6b48" x="975.39" y="325.25" width="112.59" height="88.93"/><text class="e65553bd-f77e-4660-ab98-a69905ce404e" transform="translate(981.77 340.45)">Evaluate applications <tspan x="27.06" y="12">based on:</tspan><tspan x="33.84" y="24">Routes</tspan><tspan x="15.99" y="36">Ridership data</tspan><tspan x="21.47" y="48">$$ available </tspan><tspan x="13.62" y="60">Ope</tspan><tspan class="be914962-9caa-4014-a157-86b8272ed10f" x="32.22" y="60">r</tspan><tspan x="36.18" y="60">ating costs</tspan></text><rect class="f2476e19-97e9-4114-bc1c-35603b6e6b48" x="1381.69" y="624.68" width="144.96" height="99.49"/><text class="e65553bd-f77e-4660-ab98-a69905ce404e" transform="translate(1410.42 639.87)">Evaluate request:<tspan x="-17.69" y="12">5-7 day week fixed route </tspan><tspan x="24.45" y="24">ser</tspan><tspan class="a296ee4a-7d83-4022-9c6f-e91289a3a463" x="38.77" y="24">v</tspan><tspan x="44.36" y="24">ice</tspan><tspan x="-11.6" y="36">Meaningful connection</tspan><tspan x="-20.6" y="48">Interline ticket agreement </tspan><tspan x="-5.36" y="60">Interstate ope</tspan><tspan class="be914962-9caa-4014-a157-86b8272ed10f" x="60.86" y="60">r</tspan><tspan x="64.82" y="60">ating </tspan><tspan x="19.66" y="72">authority</tspan></text><rect class="f2476e19-97e9-4114-bc1c-35603b6e6b48" x="541.76" y="88.96" width="95.84" height="60.04"/><text class="e65553bd-f77e-4660-ab98-a69905ce404e" transform="translate(562.06 114.97)">Contact Bus <tspan x="-9.06" y="12">Ope</tspan><tspan class="be914962-9caa-4014-a157-86b8272ed10f" x="9.55" y="12">r</tspan><tspan x="13.51" y="12">ations Unit </tspan></text><rect class="f2476e19-97e9-4114-bc1c-35603b6e6b48" x="423.48" y="346.75" width="68.97" height="60.04"/><text class="e65553bd-f77e-4660-ab98-a69905ce404e" transform="translate(439.81 373.07)">Identify <tspan x="3.18" y="12">routes</tspan></text><rect class="f2476e19-97e9-4114-bc1c-35603b6e6b48" x="688.41" y="495.89" width="68.97" height="60.04"/><text class="e65553bd-f77e-4660-ab98-a69905ce404e" transform="translate(700.99 528.73)">Issue RF<tspan class="bd88373d-5568-4f6b-bef7-91b54e75ba50" x="38.01" y="0">P</tspan></text><rect class="f2476e19-97e9-4114-bc1c-35603b6e6b48" x="976.71" y="504.32" width="111.17" height="47.61"/><text class="e65553bd-f77e-4660-ab98-a69905ce404e" transform="translate(988.93 519.83)">Evaluate proposals <tspan x="20.97" y="12">Based on: </tspan><tspan x="6.43" y="24">Competitive bid</tspan></text><rect class="f2476e19-97e9-4114-bc1c-35603b6e6b48" x="1135.04" y="504.32" width="93.65" height="47.61"/><text class="e65553bd-f77e-4660-ab98-a69905ce404e" transform="translate(1166.96 519.84)"><tspan class="bd88373d-5568-4f6b-bef7-91b54e75ba50">A</tspan><tspan x="6.15" y="0">ward </tspan><tspan x="-23.6" y="12">(5yr</tspan><tspan class="f660f69d-c72c-4023-81fa-8603d54c3be3" x="-4.46" y="12"> </tspan><tspan x="-2" y="12">Agreement)</tspan></text><rect class="f2476e19-97e9-4114-bc1c-35603b6e6b48" x="1573.74" y="640.35" width="93.65" height="65.68"/><text class="e65553bd-f77e-4660-ab98-a69905ce404e" transform="translate(1582.59 670.27)">Approve in-kind <tspan x="21.25" y="12">Match?</tspan></text><rect class="e8d69af4-2858-457a-87f0-64cd981de524" x="1737.29" y="807.16" width="103.91" height="65.68"/><text class="bb41becb-a685-4273-8dcf-5ed1b2896c5e" transform="translate(1744.53 831.86)">Initiate F<tspan class="e3882f43-42c7-4775-b678-df0966a30c64" x="42.5" y="0">T</tspan><tspan class="f660f69d-c72c-4023-81fa-8603d54c3be3" x="47.68" y="0">A </tspan><tspan class="bd88373d-5568-4f6b-bef7-91b54e75ba50" x="55.92" y="0">A</tspan><tspan x="62.07" y="0">ward </tspan><tspan x="16.22" y="12">Application </tspan><tspan x="25.04" y="24">process</tspan></text><rect class="f2476e19-97e9-4114-bc1c-35603b6e6b48" x="1573.74" y="461.54" width="93.65" height="65.68"/><text class="e65553bd-f77e-4660-ab98-a69905ce404e" transform="translate(1607.79 478.75)">Apply <tspan class="acab40f7-55b5-4199-859e-45a9e01fa16c" x="-20.94" y="12">T</tspan><tspan class="be914962-9caa-4014-a157-86b8272ed10f" x="-15.85" y="12">r</tspan><tspan x="-11.89" y="12">ansportation </tspan><tspan x="-17.78" y="24">Development </tspan><tspan x="-3.46" y="36">Credits</tspan></text><rect class="f2476e19-97e9-4114-bc1c-35603b6e6b48" x="1262.05" y="815.15" width="93.65" height="47.61"/><text class="e65553bd-f77e-4660-ab98-a69905ce404e" transform="translate(1271.56 842.4)">Approve budget</text><line class="f2476e19-97e9-4114-bc1c-35603b6e6b48" x1="149.45" y1="409.2" x2="149.45" y2="442.28"/><polygon class="ae080522-f690-4480-86ce-cb275e08f9dd" points="143.47 440.53 149.45 450.89 155.43 440.53 143.47 440.53"/><line class="f2476e19-97e9-4114-bc1c-35603b6e6b48" x1="590.58" y1="161.57" x2="590.58" y2="347.46"/><polygon class="ae080522-f690-4480-86ce-cb275e08f9dd" points="584.59 163.32 590.58 152.96 596.56 163.32 584.59 163.32"/><line class="f2476e19-97e9-4114-bc1c-35603b6e6b48" x1="721.07" y1="205.88" x2="721.07" y2="151.96"/><polygon class="ae080522-f690-4480-86ce-cb275e08f9dd" points="727.05 204.13 721.07 214.49 715.09 204.13 727.05 204.13"/><path class="f2476e19-97e9-4114-bc1c-35603b6e6b48" d="M1908.6,814.48v70s2.56,7.1,49.54,7.41,48.36-7.88,48.36-7.88V814.63s0-7.26-50.92-7.26C1907.22,807.37,1908.6,814.48,1908.6,814.48Z"/><path class="f2476e19-97e9-4114-bc1c-35603b6e6b48" d="M1908.62,823.76s-2.16,5,22.61,7.44c22.8,2.19,43.77,2.83,59-.51,16.91-3.72,16.32-6.76,16.32-6.76"/><text class="e65553bd-f77e-4660-ab98-a69905ce404e" transform="translate(1914.28 845.47)">Submit Greyhound <tspan x="4.55" y="12">letter with g</tspan><tspan class="be914962-9caa-4014-a157-86b8272ed10f" x="62.96" y="12">r</tspan><tspan x="66.92" y="12">ant </tspan><tspan x="1.18" y="24">application to F</tspan><tspan class="e3882f43-42c7-4775-b678-df0966a30c64" x="74.53" y="24">T</tspan><tspan class="f660f69d-c72c-4023-81fa-8603d54c3be3" x="79.7" y="24">A</tspan><tspan x="85.48" y="24"> </tspan><tspan x="25.53" y="36">(</tspan><tspan class="acab40f7-55b5-4199-859e-45a9e01fa16c" x="29.2" y="36">T</tspan><tspan x="34.29" y="36">rAMS)</tspan></text><path class="f2476e19-97e9-4114-bc1c-35603b6e6b48" d="M1908.62,819.71s-2.16,5,22.61,7.43c22.8,2.2,43.77,2.84,59-.51,16.91-3.71,16.32-6.76,16.32-6.76"/><path class="f2476e19-97e9-4114-bc1c-35603b6e6b48" d="M1909.54,815.14s-2.16,5.05,22.61,7.44c22.8,2.2,43.77,2.83,59-.51,16.91-3.72,16.32-6.76,16.32-6.76"/><path class="f2476e19-97e9-4114-bc1c-35603b6e6b48" d="M2035.68,814.48v70s4.19,7.1,81.3,7.41,79.36-7.88,79.36-7.88V814.63s0-7.26-83.56-7.26C2033.42,807.37,2035.68,814.48,2035.68,814.48Z"/><path class="f2476e19-97e9-4114-bc1c-35603b6e6b48" d="M2035.71,823.76s-3.54,5,37.1,7.44c37.42,2.19,71.83,2.83,96.79-.51,27.74-3.72,26.77-6.76,26.77-6.76"/><text class="e65553bd-f77e-4660-ab98-a69905ce404e" transform="translate(2042.71 845.47)">Submit g<tspan class="be914962-9caa-4014-a157-86b8272ed10f" x="40.41" y="0">r</tspan><tspan x="44.37" y="0">ant application to F</tspan><tspan class="e3882f43-42c7-4775-b678-df0966a30c64" x="135.93" y="0">T</tspan><tspan class="f660f69d-c72c-4023-81fa-8603d54c3be3" x="141.1" y="0">A</tspan><tspan x="146.88" y="0"> </tspan><tspan x="-1.26" y="12">identifying</tspan><tspan class="bd88373d-5568-4f6b-bef7-91b54e75ba50" x="49.06" y="12"> </tspan><tspan x="51.9" y="12">TDCs as local match, </tspan><tspan x="5.35" y="24">with a copy of the</tspan><tspan class="bd88373d-5568-4f6b-bef7-91b54e75ba50" x="90.38" y="24"> </tspan><tspan x="93.21" y="24">TDC letter </tspan><tspan x="55.64" y="37">(</tspan><tspan class="acab40f7-55b5-4199-859e-45a9e01fa16c" x="59.31" y="37">T</tspan><tspan x="64.4" y="37">rAMS)</tspan></text><path class="f2476e19-97e9-4114-bc1c-35603b6e6b48" d="M2035.71,819.71s-3.54,5,37.1,7.43c37.42,2.2,71.83,2.84,96.79-.51,27.74-3.71,26.77-6.76,26.77-6.76"/><path class="f2476e19-97e9-4114-bc1c-35603b6e6b48" d="M2037.22,815.14s-3.55,5.05,37.1,7.44c37.42,2.2,71.83,2.83,96.78-.51,27.75-3.72,26.78-6.76,26.78-6.76"/><text class="b5b4dd1f-7ba2-4d19-9cb4-f096e0da1f27" transform="translate(1600.39 924.63)">3-9</text><text class="e65553bd-f77e-4660-ab98-a69905ce404e" transform="translate(703.47 112.1)">Current <tspan x="-16.66" y="12">Subreceipient? </tspan></text><polygon class="f2476e19-97e9-4114-bc1c-35603b6e6b48" points="679.31 119.55 721.56 87.1 763.82 119.55 721.56 152.01 679.31 119.55"/><line class="f2476e19-97e9-4114-bc1c-35603b6e6b48" x1="764.22" y1="119.57" x2="1060.93" y2="119.57"/><polygon class="ae080522-f690-4480-86ce-cb275e08f9dd" points="1059.18 125.56 1069.54 119.58 1059.18 113.59 1059.18 125.56"/><text class="e65553bd-f77e-4660-ab98-a69905ce404e" transform="translate(1100.86 105.09)">Meets <tspan class="b98c62df-2678-4bdb-b059-093118b4529d" x="-16.26" y="13">P</tspan><tspan x="-10.86" y="13">erformance </tspan><tspan x="-13.02" y="26">thresholds?</tspan></text><polygon class="f2476e19-97e9-4114-bc1c-35603b6e6b48" points="1072.21 119.55 1114.47 87.1 1156.72 119.55 1114.47 152.01 1072.21 119.55"/><text class="e65553bd-f77e-4660-ab98-a69905ce404e" transform="translate(1296.74 234.22)">Have <tspan x="-22.36" y="13">in-kind Match? </tspan><tspan class="a9e6c1e7-167a-4fab-b74f-129f38c3009e" x="-4.16" y="26">Y</tspan><tspan x="1.05" y="26">es/No</tspan></text><polygon class="f2476e19-97e9-4114-bc1c-35603b6e6b48" points="1266.08 243.68 1308.34 211.22 1350.59 243.68 1308.34 276.14 1266.08 243.68"/><text class="e65553bd-f77e-4660-ab98-a69905ce404e" transform="translate(697.31 241.91)">More than <tspan x="2.5" y="13">2 private </tspan><tspan x="1.27" y="25">ope</tspan><tspan class="be914962-9caa-4014-a157-86b8272ed10f" x="18.5" y="25">r</tspan><tspan x="22.46" y="25">ators </tspan><tspan x="-2.78" y="37">interested?</tspan></text><polygon class="f2476e19-97e9-4114-bc1c-35603b6e6b48" points="667.57 258.07 720.94 217.08 774.3 258.07 720.94 299.07 667.57 258.07"/><text class="e65553bd-f77e-4660-ab98-a69905ce404e" transform="translate(925.59 225.78)">Submit <tspan x="-10.25" y="12">Application</tspan><tspan x="-9.62" y="24">(COTRAMS)</tspan></text><text class="bb41becb-a685-4273-8dcf-5ed1b2896c5e" transform="translate(1566.44 830.98)">Set up F<tspan class="e3882f43-42c7-4775-b678-df0966a30c64" x="38.42" y="0">T</tspan><tspan class="f660f69d-c72c-4023-81fa-8603d54c3be3" x="43.59" y="0">A</tspan><tspan x="49.37" y="0" xml:space="preserve"> award </tspan><tspan x="14.32" y="12">and budget </tspan><tspan x="14.67" y="24">(COTRAMS)</tspan></text><text class="bb41becb-a685-4273-8dcf-5ed1b2896c5e" transform="translate(1589.55 935.48)">Budgeting <tspan x="14.76" y="12">F</tspan><tspan class="e3882f43-42c7-4775-b678-df0966a30c64" x="20.59" y="12">T</tspan><tspan class="f660f69d-c72c-4023-81fa-8603d54c3be3" x="25.76" y="12">A</tspan></text><polyline class="f2476e19-97e9-4114-bc1c-35603b6e6b48" points="986.84 235.22 1032.7 235.22 1032.7 314.11"/><polygon class="ae080522-f690-4480-86ce-cb275e08f9dd" points="1026.72 312.36 1032.7 322.72 1038.69 312.36 1026.72 312.36"/><line class="f2476e19-97e9-4114-bc1c-35603b6e6b48" x1="721.71" y1="299.07" x2="721.71" y2="483.2"/><polygon class="ae080522-f690-4480-86ce-cb275e08f9dd" points="715.73 481.45 721.71 491.81 727.69 481.45 715.73 481.45"/><rect class="aa10e9e8-b002-480c-b428-5b8ec5bea408" x="707.53" y="423.57" width="31.28" height="17.57"/><text class="bb41becb-a685-4273-8dcf-5ed1b2896c5e" transform="translate(714.7 435.1)">YES</text><rect class="aa10e9e8-b002-480c-b428-5b8ec5bea408" x="888.34" y="109.61" width="31.28" height="17.57"/><text class="bb41becb-a685-4273-8dcf-5ed1b2896c5e" transform="translate(895.52 121.14)">YES</text><line class="f2476e19-97e9-4114-bc1c-35603b6e6b48" x1="1157.12" y1="119.57" x2="1255.04" y2="119.57"/><polygon class="ae080522-f690-4480-86ce-cb275e08f9dd" points="1253.29 125.56 1263.66 119.58 1253.29 113.59 1253.29 125.56"/><rect class="aa10e9e8-b002-480c-b428-5b8ec5bea408" x="1184.49" y="109.61" width="31.28" height="17.57"/><text class="bb41becb-a685-4273-8dcf-5ed1b2896c5e" transform="translate(1191.66 121.14)">YES</text><rect class="ae243ca2-9aeb-40e3-84de-3dc77d87ec1b" x="706.91" y="162.96" width="26.58" height="17.57"/><text class="bb41becb-a685-4273-8dcf-5ed1b2896c5e" transform="translate(713.38 174.49)">NO</text><line class="f2476e19-97e9-4114-bc1c-35603b6e6b48" x1="1114.95" y1="205.88" x2="1114.95" y2="151.96"/><polygon class="ae080522-f690-4480-86ce-cb275e08f9dd" points="1120.94 204.13 1114.95 214.49 1108.97 204.13 1120.94 204.13"/><line class="f2476e19-97e9-4114-bc1c-35603b6e6b48" x1="1308.47" y1="802.8" x2="1308.47" y2="276.09"/><polygon class="ae080522-f690-4480-86ce-cb275e08f9dd" points="1314.46 801.05 1308.47 811.41 1302.49 801.05 1314.46 801.05"/><rect class="ae243ca2-9aeb-40e3-84de-3dc77d87ec1b" x="1100.79" y="162.96" width="26.58" height="17.57"/><text class="bb41becb-a685-4273-8dcf-5ed1b2896c5e" transform="translate(1107.27 174.49)">NO</text><line class="f2476e19-97e9-4114-bc1c-35603b6e6b48" x1="1620.41" y1="640" x2="1620.41" y2="542.06"/><polygon class="ae080522-f690-4480-86ce-cb275e08f9dd" points="1626.4 543.81 1620.41 533.45 1614.43 543.81 1626.4 543.81"/><rect class="ae243ca2-9aeb-40e3-84de-3dc77d87ec1b" x="1606.25" y="588.47" width="26.58" height="17.57"/><text class="bb41becb-a685-4273-8dcf-5ed1b2896c5e" transform="translate(1612.72 600)">NO</text><line class="f2476e19-97e9-4114-bc1c-35603b6e6b48" x1="1397.31" y1="243.32" x2="1348.01" y2="243.32"/><polygon class="ae080522-f690-4480-86ce-cb275e08f9dd" points="1395.56 237.34 1405.92 243.32 1395.56 249.31 1395.56 237.34"/><rect class="ae243ca2-9aeb-40e3-84de-3dc77d87ec1b" x="1360.69" y="235.1" width="26.58" height="17.57"/><text class="bb41becb-a685-4273-8dcf-5ed1b2896c5e" transform="translate(1367.16 246.63)">NO</text><polyline class="f2476e19-97e9-4114-bc1c-35603b6e6b48" points="720.24 186.87 946.01 186.87 946.01 198.41"/><polygon class="ae080522-f690-4480-86ce-cb275e08f9dd" points="940.03 196.66 946.01 207.03 951.99 196.66 940.03 196.66"/><polyline class="f2476e19-97e9-4114-bc1c-35603b6e6b48" points="1254.86 244.35 1243.32 244.35 1243.32 529.93 1228.47 529.93"/><polygon class="ae080522-f690-4480-86ce-cb275e08f9dd" points="1253.11 238.37 1263.47 244.35 1253.11 250.33 1253.11 238.37"/><line class="f2476e19-97e9-4114-bc1c-35603b6e6b48" x1="757.38" y1="526.99" x2="965.74" y2="526.99"/><polygon class="ae080522-f690-4480-86ce-cb275e08f9dd" points="963.99 532.98 974.35 527 963.99 521.01 963.99 532.98"/><line class="f2476e19-97e9-4114-bc1c-35603b6e6b48" x1="1089.11" y1="526.99" x2="1123.1" y2="526.99"/><polygon class="ae080522-f690-4480-86ce-cb275e08f9dd" points="1121.35 532.98 1131.71 527 1121.35 521.01 1121.35 532.98"/><line class="f2476e19-97e9-4114-bc1c-35603b6e6b48" x1="1527.38" y1="674.02" x2="1561.37" y2="674.02"/><polygon class="ae080522-f690-4480-86ce-cb275e08f9dd" points="1559.62 680 1569.98 674.02 1559.62 668.04 1559.62 680"/><line class="f2476e19-97e9-4114-bc1c-35603b6e6b48" x1="1356.66" y1="838.22" x2="1545" y2="838.22"/><polygon class="ae080522-f690-4480-86ce-cb275e08f9dd" points="1543.25 844.2 1553.61 838.22 1543.25 832.24 1543.25 844.2"/><line class="f2476e19-97e9-4114-bc1c-35603b6e6b48" x1="1661.6" y1="838.22" x2="1725.49" y2="838.22"/><polygon class="ae080522-f690-4480-86ce-cb275e08f9dd" points="1723.74 844.2 1734.1 838.22 1723.74 832.24 1723.74 844.2"/><line class="f2476e19-97e9-4114-bc1c-35603b6e6b48" x1="1841" y1="838.22" x2="1871.84" y2="838.22"/><polygon class="ae080522-f690-4480-86ce-cb275e08f9dd" points="1870.09 844.2 1880.46 838.22 1870.09 832.24 1870.09 844.2"/><line class="f2476e19-97e9-4114-bc1c-35603b6e6b48" x1="1612.88" y1="866.56" x2="1612.88" y2="892.44"/><polygon class="ae080522-f690-4480-86ce-cb275e08f9dd" points="1606.9 890.69 1612.88 901.05 1618.87 890.69 1606.9 890.69"/><circle class="bdf929c5-f5cd-4e17-a3eb-53984d75cb45" cx="1789.56" cy="932.78" r="30.12"/><text class="b5b4dd1f-7ba2-4d19-9cb4-f096e0da1f27" transform="translate(1772.56 924.63)">3-13</text><text class="bb41becb-a685-4273-8dcf-5ed1b2896c5e" transform="translate(1765.24 935.48)">F<tspan class="e3882f43-42c7-4775-b678-df0966a30c64" x="5.83" y="0">T</tspan><tspan class="f660f69d-c72c-4023-81fa-8603d54c3be3" x="11.01" y="0">A </tspan><tspan class="bd88373d-5568-4f6b-bef7-91b54e75ba50" x="19.25" y="0">A</tspan><tspan x="25.4" y="0">ward</tspan><tspan x="-2.11" y="12">Application</tspan></text><line class="f2476e19-97e9-4114-bc1c-35603b6e6b48" x1="1789.74" y1="872.99" x2="1789.74" y2="892.44"/><polygon class="ae080522-f690-4480-86ce-cb275e08f9dd" points="1783.75 890.69 1789.74 901.05 1795.72 890.69 1783.75 890.69"/><rect class="f2476e19-97e9-4114-bc1c-35603b6e6b48" x="1135.04" y="336.24" width="91.85" height="63.57"/><text class="e65553bd-f77e-4660-ab98-a69905ce404e" transform="translate(1166.96 351.76)"><tspan class="bd88373d-5568-4f6b-bef7-91b54e75ba50">A</tspan><tspan x="6.15" y="0">ward </tspan><tspan x="-21.77" y="12">(1yr</tspan><tspan class="f660f69d-c72c-4023-81fa-8603d54c3be3" x="-2.63" y="12"> </tspan><tspan x="-0.17" y="12">Agreement </tspan><tspan x="-20.48" y="24">with option for </tspan><tspan x="-14.93" y="36">4 additional)</tspan></text><line class="f2476e19-97e9-4114-bc1c-35603b6e6b48" x1="1089.11" y1="367.71" x2="1123.1" y2="367.71"/><polygon class="ae080522-f690-4480-86ce-cb275e08f9dd" points="1121.35 373.7 1131.71 367.71 1121.35 361.73 1121.35 373.7"/><text class="e91ead72-b0cb-4cb1-b3c1-7b395bd0e2c7" transform="translate(993.25 455.47)">First priority:<tspan x="0" y="13">local, non-profit </tspan><tspan x="0" y="25">operators</tspan></text><rect class="af242569-0fdd-48f9-a9c6-a9eeea0fc7e9" x="986.73" y="441.8" width="88.33" height="46.32"/><line class="af242569-0fdd-48f9-a9c6-a9eeea0fc7e9" x1="1030.75" y1="413.87" x2="1030.75" y2="434.91"/><polygon class="ae080522-f690-4480-86ce-cb275e08f9dd" points="1026.76 433.75 1030.75 440.65 1034.74 433.75 1026.76 433.75"/><line class="f2476e19-97e9-4114-bc1c-35603b6e6b48" x1="1227.49" y1="367.68" x2="1242.15" y2="367.68"/><rect class="aa10e9e8-b002-480c-b428-5b8ec5bea408" x="1292.98" y="524.89" width="31.28" height="17.57"/><text class="bb41becb-a685-4273-8dcf-5ed1b2896c5e" transform="translate(1300.15 536.42)">YES</text><line class="f2476e19-97e9-4114-bc1c-35603b6e6b48" x1="1454.35" y1="269.54" x2="1454.35" y2="613.66"/><polygon class="ae080522-f690-4480-86ce-cb275e08f9dd" points="1448.37 611.91 1454.36 622.28 1460.34 611.91 1448.37 611.91"/><polyline class="f2476e19-97e9-4114-bc1c-35603b6e6b48" points="1307.97 776.6 1619.26 776.6 1619.26 706.05"/><rect class="aa10e9e8-b002-480c-b428-5b8ec5bea408" x="1450.18" y="767.47" width="31.28" height="17.57"/><text class="bb41becb-a685-4273-8dcf-5ed1b2896c5e" transform="translate(1457.35 778.99)">YES</text><rect class="afecd6ee-0bf6-4446-b38f-f492d087e38e" x="1880.43" y="777.2" width="336.63" height="134.72"/><polyline class="f2476e19-97e9-4114-bc1c-35603b6e6b48" points="1666.33 671.65 1960.52 671.65 1960.52 796.93"/><polygon class="ae080522-f690-4480-86ce-cb275e08f9dd" points="1954.54 795.18 1960.52 805.55 1966.51 795.18 1954.54 795.18"/><polyline class="f2476e19-97e9-4114-bc1c-35603b6e6b48" points="1666.33 493.76 2114.95 493.76 2114.95 794.98"/><polygon class="ae080522-f690-4480-86ce-cb275e08f9dd" points="2108.97 793.23 2114.95 803.59 2120.93 793.23 2108.97 793.23"/><rect class="aa10e9e8-b002-480c-b428-5b8ec5bea408" x="1788.51" y="660.85" width="31.28" height="17.57"/><text class="bb41becb-a685-4273-8dcf-5ed1b2896c5e" transform="translate(1795.68 672.38)">YES</text></g></svg>