<svg xmlns="http://www.w3.org/2000/svg" viewBox="0 0 1297.75 585.23"><defs><style>.b93018a7-7994-4271-b8f4-573313d91c6e,.bc7788e8-9b8f-4742-8406-c6e25c95b9d8,.e10049df-6dc0-4262-b4de-7fb49419f870,.f67bde93-06e5-45de-bf07-37a1944688f8,.fcbb7aa8-f4b8-459d-ba33-07a32757067f{fill:none;stroke:#646464;}.b93018a7-7994-4271-b8f4-573313d91c6e{stroke-linejoin:round;}.b93018a7-7994-4271-b8f4-573313d91c6e,.bc7788e8-9b8f-4742-8406-c6e25c95b9d8{stroke-width:2px;}.bc7788e8-9b8f-4742-8406-c6e25c95b9d8,.e10049df-6dc0-4262-b4de-7fb49419f870,.f67bde93-06e5-45de-bf07-37a1944688f8,.fcbb7aa8-f4b8-459d-ba33-07a32757067f{stroke-miterlimit:10;}.e10049df-6dc0-4262-b4de-7fb49419f870,.f67bde93-06e5-45de-bf07-37a1944688f8{stroke-width:0.5px;}.f67bde93-06e5-45de-bf07-37a1944688f8{stroke-dasharray:5.01 3.01;}.ac5e9237-ee6d-4a68-96ea-a1b9ffb95b12,.bda8d095-d471-4641-8c65-ed0b1bd892e4{font-size:10px;}.a0a0b57b-23a4-4128-81de-7c957cef69b2,.ad57cf92-621d-4fea-8815-092c8010edc3,.bda8d095-d471-4641-8c65-ed0b1bd892e4,.ebb16ab9-9768-4557-bccc-903fdca0cc0c,.fca637ae-c57a-41bc-bf0a-b197acebc317{fill:#646464;}.a0a0b57b-23a4-4128-81de-7c957cef69b2,.ac5e9237-ee6d-4a68-96ea-a1b9ffb95b12,.ad57cf92-621d-4fea-8815-092c8010edc3,.bda8d095-d471-4641-8c65-ed0b1bd892e4,.fca637ae-c57a-41bc-bf0a-b197acebc317{font-family:TrebuchetMS-Bold, Trebuchet MS;font-weight:700;}.bf4b9d40-e90a-440e-b0c4-218dd774a257{letter-spacing:-0.06em;}.f5820cc6-e7e7-41a4-bf14-aa9f72939f1d{letter-spacing:-0.02em;}.ad57cf92-621d-4fea-8815-092c8010edc3{font-size:24px;}.a460e226-9d00-4fb6-9143-0d057281d878{letter-spacing:-0.05em;}.fca637ae-c57a-41bc-bf0a-b197acebc317{font-size:12px;}.a0a0b57b-23a4-4128-81de-7c957cef69b2{font-size:13px;}.f72e9cc4-afc1-44a1-a133-4361c63ed078{letter-spacing:-0.03em;}.e24ead39-0152-460b-851c-d480272e390f{letter-spacing:-0.09em;}.e1f84918-9b6b-4a33-8892-f75c5f317027{letter-spacing:0.03em;}.e3f815dd-924e-4993-b312-1415560af21e{fill:#3eaf49;}.ac5e9237-ee6d-4a68-96ea-a1b9ffb95b12{fill:#fff;}.ac774250-6807-49c7-8696-09076e37422d{fill:#d23138;}</style></defs><title>CDOT_diagrams_CH5-6</title><g id="fc41cd16-4673-4c8e-bfc9-f0e988e4bac5" data-name="shapes"><path class="b93018a7-7994-4271-b8f4-573313d91c6e" d="M209.31,143.24s-7.2,14.57-7.2,28.48,7.2,27.64,7.2,27.64"/><path class="bc7788e8-9b8f-4742-8406-c6e25c95b9d8" d="M96.26,199.42s-8-13.73-8-27.64,8-28.47,8-28.47H208.81s8,13.73,8,27.64-8,28.47-8,28.47Z"/><path class="b93018a7-7994-4271-b8f4-573313d91c6e" d="M598.3,143.24s-7.2,14.57-7.2,28.48,7.2,27.64,7.2,27.64"/><path class="bc7788e8-9b8f-4742-8406-c6e25c95b9d8" d="M485.26,199.42s-8-13.73-8-27.64,8-28.47,8-28.47H597.81s8,13.73,8,27.64-8,28.47-8,28.47Z"/><path class="b93018a7-7994-4271-b8f4-573313d91c6e" d="M215,259.55s-7.83,16.73-7.83,32.7S215,324,215,324"/><path class="bc7788e8-9b8f-4742-8406-c6e25c95b9d8" d="M92,324.06s-8.73-15.78-8.73-31.74S92,259.62,92,259.62H214.41s8.74,15.78,8.74,31.74-8.74,32.7-8.74,32.7Z"/><line class="e10049df-6dc0-4262-b4de-7fb49419f870" x1="12.15" y1="244.11" x2="14.65" y2="244.11"/><line class="f67bde93-06e5-45de-bf07-37a1944688f8" x1="17.66" y1="244.11" x2="1275.76" y2="244.11"/><line class="e10049df-6dc0-4262-b4de-7fb49419f870" x1="1277.27" y1="244.11" x2="1279.77" y2="244.11"/><line class="e10049df-6dc0-4262-b4de-7fb49419f870" x1="12.15" y1="437.72" x2="14.65" y2="437.72"/><line class="f67bde93-06e5-45de-bf07-37a1944688f8" x1="17.66" y1="437.72" x2="1275.76" y2="437.72"/><line class="e10049df-6dc0-4262-b4de-7fb49419f870" x1="1277.27" y1="437.72" x2="1279.77" y2="437.72"/></g><g id="a1569c85-984d-44f2-b117-bbcaf90bc027" data-name="text"><text class="bda8d095-d471-4641-8c65-ed0b1bd892e4" transform="translate(106.17 162.02)">Define Incidental <tspan x="-1.8" y="12">Use in application </tspan><tspan x="14.19" y="24">(COTRAMS)</tspan></text><path class="b93018a7-7994-4271-b8f4-573313d91c6e" d="M800.6,143.24s-7.2,14.57-7.2,28.48,7.2,27.64,7.2,27.64"/><path class="bc7788e8-9b8f-4742-8406-c6e25c95b9d8" d="M687.55,199.42s-8-13.73-8-27.64,8-28.47,8-28.47H800.11s8,13.73,8,27.64-8,28.47-8,28.47Z"/><text class="bda8d095-d471-4641-8c65-ed0b1bd892e4" transform="translate(701.04 162.02)">Enter facility in <tspan x="13.9" y="12">inventory </tspan><tspan x="10.62" y="24">(COTRAMS)</tspan></text><text class="bda8d095-d471-4641-8c65-ed0b1bd892e4" transform="translate(491.21 162.02)">Maintain inventory <tspan x="0.76" y="12">and Incidental Use</tspan><tspan x="18.14" y="24">(COTRAMS)</tspan></text><text class="bda8d095-d471-4641-8c65-ed0b1bd892e4" transform="translate(90.67 281.33)">Send<tspan class="bf4b9d40-e90a-440e-b0c4-218dd774a257" x="22.57" y="0"> </tspan><tspan class="f5820cc6-e7e7-41a4-bf14-aa9f72939f1d" x="25.03" y="0">A</tspan><tspan x="31.18" y="0">ward Letter with </tspan><tspan x="-2.89" y="12">Scope of </tspan><tspan class="f5820cc6-e7e7-41a4-bf14-aa9f72939f1d" x="39.95" y="12">W</tspan><tspan x="48.61" y="12">ork, including </tspan><tspan x="22.03" y="24">Incidental Use</tspan><tspan x="29.38" y="36">(COTRAMS)</tspan></text><text class="ad57cf92-621d-4fea-8815-092c8010edc3" transform="translate(18.5 35.68)">6-1 <tspan class="a460e226-9d00-4fb6-9143-0d057281d878" x="44.17" y="0">F</tspan><tspan x="57.05" y="0">acility Incidental Use</tspan></text><text class="fca637ae-c57a-41bc-bf0a-b197acebc317" transform="translate(41.74 205.62) rotate(-90)">Subrecipient</text><text class="a0a0b57b-23a4-4128-81de-7c957cef69b2" transform="translate(284.56 86.41)">New <tspan class="a460e226-9d00-4fb6-9143-0d057281d878" x="30.25" y="0">F</tspan><tspan x="37.23" y="0">acility</tspan></text><text class="a0a0b57b-23a4-4128-81de-7c957cef69b2" transform="translate(875.17 86.41)">Existing <tspan class="a460e226-9d00-4fb6-9143-0d057281d878" x="51.2" y="0">F</tspan><tspan x="58.18" y="0">acility</tspan></text><text class="fca637ae-c57a-41bc-bf0a-b197acebc317" transform="translate(41.74 403.21) rotate(-90)">DTR Prog<tspan class="f72e9cc4-afc1-44a1-a133-4361c63ed078" x="50.98" y="0">r</tspan><tspan x="55.73" y="0">amming Unit</tspan></text><text class="fca637ae-c57a-41bc-bf0a-b197acebc317" transform="translate(36.74 535.74) rotate(-90)">DTR Project <tspan x="-16.15" y="14.4">Coordination Unit</tspan></text><polygon class="fcbb7aa8-f4b8-459d-ba33-07a32757067f" points="1280.13 569.21 12.19 569.21 12.19 94.36 42.83 94.36 1280.13 94.36 1280.13 569.21"/><polyline class="fcbb7aa8-f4b8-459d-ba33-07a32757067f" points="64.84 569.28 64.84 68.61 1280.13 68.61 1280.13 111.67"/><line class="fcbb7aa8-f4b8-459d-ba33-07a32757067f" x1="632.7" y1="569.28" x2="632.7" y2="69.04"/><rect class="bc7788e8-9b8f-4742-8406-c6e25c95b9d8" x="104.31" y="368.09" width="101.3" height="51.86"/><text class="bda8d095-d471-4641-8c65-ed0b1bd892e4" transform="translate(108.64 384.53)">Include in Prog<tspan class="f72e9cc4-afc1-44a1-a133-4361c63ed078" x="69.95" y="0">r</tspan><tspan x="73.91" y="0">am </tspan><tspan x="3.86" y="12">of Projects (POP) </tspan><tspan x="11.27" y="24">for F</tspan><tspan class="e24ead39-0152-460b-851c-d480272e390f" x="33.75" y="24">T</tspan><tspan class="bf4b9d40-e90a-440e-b0c4-218dd774a257" x="38.92" y="24">A </tspan><tspan class="f5820cc6-e7e7-41a4-bf14-aa9f72939f1d" x="47.16" y="24">A</tspan><tspan x="53.31" y="24">ward</tspan></text><rect class="bc7788e8-9b8f-4742-8406-c6e25c95b9d8" x="316.18" y="148.18" width="101.3" height="51.86"/><text class="bda8d095-d471-4641-8c65-ed0b1bd892e4" transform="translate(323.46 164.62)">Confirm Incidental <tspan x="7.58" y="12">Use in Scope of </tspan><tspan class="f5820cc6-e7e7-41a4-bf14-aa9f72939f1d" x="31.33" y="24">W</tspan><tspan x="39.99" y="24">ork</tspan></text><rect class="bc7788e8-9b8f-4742-8406-c6e25c95b9d8" x="316.18" y="481.32" width="101.3" height="51.86"/><text class="bda8d095-d471-4641-8c65-ed0b1bd892e4" transform="translate(328.81 497.76)">Monitor/confirm <tspan x="-1.31" y="12">Incidental Use at </tspan><tspan x="31.01" y="24">SIR</tspan></text><rect class="bc7788e8-9b8f-4742-8406-c6e25c95b9d8" x="683.98" y="469.35" width="119.7" height="63.82"/><text class="bda8d095-d471-4641-8c65-ed0b1bd892e4" transform="translate(725.72 483.75)">Identify<tspan x="-15.05" y="13">Incidental Use </tspan><tspan x="-32.55" y="25">through SIR questions </tspan><tspan x="-13.99" y="37">and site </tspan><tspan class="e1f84918-9b6b-4a33-8892-f75c5f317027" x="26.08" y="37">v</tspan><tspan x="31.66" y="37">isits</tspan></text><rect class="bc7788e8-9b8f-4742-8406-c6e25c95b9d8" x="1141.44" y="469.35" width="119.7" height="63.82"/><text class="bda8d095-d471-4641-8c65-ed0b1bd892e4" transform="translate(1158.59 483.75)">Monitor Incidental <tspan x="14.43" y="12">Use through </tspan><tspan x="5.85" y="25">Reimbursement </tspan><tspan x="3.2" y="37">Requests and SIR</tspan></text><rect class="bc7788e8-9b8f-4742-8406-c6e25c95b9d8" x="1150.99" y="302.22" width="101.07" height="53.89"/><text class="bda8d095-d471-4641-8c65-ed0b1bd892e4" transform="translate(1165 316.62)">Update Prog<tspan class="f72e9cc4-afc1-44a1-a133-4361c63ed078" x="57.28" y="0">r</tspan><tspan x="61.24" y="0">am </tspan><tspan x="-2.47" y="12">of Projects (POP) </tspan><tspan x="4.94" y="24">for F</tspan><tspan class="e24ead39-0152-460b-851c-d480272e390f" x="27.42" y="24">T</tspan><tspan class="bf4b9d40-e90a-440e-b0c4-218dd774a257" x="32.59" y="24">A </tspan><tspan class="f5820cc6-e7e7-41a4-bf14-aa9f72939f1d" x="40.83" y="24">A</tspan><tspan x="46.98" y="24">ward</tspan></text><line class="bc7788e8-9b8f-4742-8406-c6e25c95b9d8" x1="147.58" y1="199.3" x2="147.58" y2="248.79"/><polygon class="ebb16ab9-9768-4557-bccc-903fdca0cc0c" points="141.6 247.04 147.58 257.41 153.57 247.04 141.6 247.04"/><line class="bc7788e8-9b8f-4742-8406-c6e25c95b9d8" x1="416.65" y1="172.65" x2="466.14" y2="172.65"/><polygon class="ebb16ab9-9768-4557-bccc-903fdca0cc0c" points="464.39 178.63 474.75 172.65 464.39 166.66 464.39 178.63"/><line class="bc7788e8-9b8f-4742-8406-c6e25c95b9d8" x1="804.41" y1="172.65" x2="911.32" y2="172.65"/><polygon class="ebb16ab9-9768-4557-bccc-903fdca0cc0c" points="909.57 178.63 919.93 172.65 909.57 166.66 909.57 178.63"/><line class="bc7788e8-9b8f-4742-8406-c6e25c95b9d8" x1="366.51" y1="199.3" x2="366.51" y2="469.77"/><polygon class="ebb16ab9-9768-4557-bccc-903fdca0cc0c" points="360.53 468.02 366.51 478.38 372.5 468.02 360.53 468.02"/><line class="bc7788e8-9b8f-4742-8406-c6e25c95b9d8" x1="147.58" y1="323.87" x2="147.58" y2="356.54"/><polygon class="ebb16ab9-9768-4557-bccc-903fdca0cc0c" points="141.6 354.79 147.58 365.15 153.57 354.79 141.6 354.79"/><text class="bda8d095-d471-4641-8c65-ed0b1bd892e4" transform="translate(944.27 157.64)">Send Incidental Use <tspan x="-9.29" y="12">letter for approval with </tspan><tspan x="-4.91" y="24">required attachments</tspan></text><path class="bc7788e8-9b8f-4742-8406-c6e25c95b9d8" d="M925.52,199.68c1.78.71,4.37,1.66,7.58,2.61h0a90,90,0,0,0,25.17,3.8h0a63.83,63.83,0,0,0,31-7.53h0a67.06,67.06,0,0,1,32.41-7.78h0a100.39,100.39,0,0,1,35.09,6.76h0V142.73H923.6v56.15c.46.2,1.11.48,1.92.8Z"/><polyline class="bc7788e8-9b8f-4742-8406-c6e25c95b9d8" points="204.04 393.35 276.37 393.35 276.37 172.46 305.87 172.46"/><polygon class="ebb16ab9-9768-4557-bccc-903fdca0cc0c" points="304.12 178.45 314.49 172.46 304.12 166.48 304.12 178.45"/><polyline class="bc7788e8-9b8f-4742-8406-c6e25c95b9d8" points="803.17 500.54 842.27 500.54 842.27 173.44"/><line class="bc7788e8-9b8f-4742-8406-c6e25c95b9d8" x1="989.54" y1="199.35" x2="989.54" y2="457.35"/><polygon class="ebb16ab9-9768-4557-bccc-903fdca0cc0c" points="983.56 455.6 989.54 465.96 995.52 455.6 983.56 455.6"/><line class="bc7788e8-9b8f-4742-8406-c6e25c95b9d8" x1="1030.9" y1="500.74" x2="1130.78" y2="500.74"/><polygon class="ebb16ab9-9768-4557-bccc-903fdca0cc0c" points="1129.03 506.72 1139.39 500.74 1129.03 494.75 1129.03 506.72"/><text class="bda8d095-d471-4641-8c65-ed0b1bd892e4" transform="translate(968.11 496.16)">Approve/<tspan x="4.05" y="13">Reject?</tspan></text><polygon class="bc7788e8-9b8f-4742-8406-c6e25c95b9d8" points="946.54 500.92 989.52 467.9 1032.51 500.92 989.52 533.95 946.54 500.92"/><rect class="e3f815dd-924e-4993-b312-1415560af21e" x="1056" y="492.36" width="54.77" height="17.57"/><text class="ac5e9237-ee6d-4a68-96ea-a1b9ffb95b12" transform="translate(1061.83 503.89)">APPROVE</text><polyline class="bc7788e8-9b8f-4742-8406-c6e25c95b9d8" points="946.54 499.97 875.42 499.97 875.42 172.87"/><rect class="ac774250-6807-49c7-8696-09076e37422d" x="851.64" y="331.13" width="47.09" height="17.57"/><text class="ac5e9237-ee6d-4a68-96ea-a1b9ffb95b12" transform="translate(857.75 342.66)">REJEC<tspan class="f5820cc6-e7e7-41a4-bf14-aa9f72939f1d" x="28.93" y="0">T</tspan></text><path class="bc7788e8-9b8f-4742-8406-c6e25c95b9d8" d="M1043.61,500.86c-1-8.79,0-168.11,0-168.11h107.51"/></g></svg>