<svg xmlns="http://www.w3.org/2000/svg" viewBox="0 0 661.19 584.35"><defs><style>.b483371f-968f-42c4-93c1-1e7b50089d23,.b5acea02-84c3-40d5-bbae-72274a0fc87d,.b8dc7f4f-6a76-4b44-9df6-4cf9e5999d5e,.eb5cd61a-9cca-4ad0-b762-bd92f7df5b29,.f0432717-36a9-4153-a5db-aaef43501f51{fill:none;}.b483371f-968f-42c4-93c1-1e7b50089d23,.b5acea02-84c3-40d5-bbae-72274a0fc87d,.b8dc7f4f-6a76-4b44-9df6-4cf9e5999d5e,.eb5cd61a-9cca-4ad0-b762-bd92f7df5b29,.f0432717-36a9-4153-a5db-aaef43501f51,.f4ea178b-8800-4d23-a0a6-bdb9831b545c{stroke:#646464;stroke-miterlimit:10;}.b5acea02-84c3-40d5-bbae-72274a0fc87d,.f4ea178b-8800-4d23-a0a6-bdb9831b545c{stroke-width:2px;}.a4c12a60-10a7-487f-88d5-ad4432058a82,.acad2b48-9604-4741-b689-a08f727658c9,.bf8a8f7f-01ba-4be4-920f-775d18c278a5,.e1c8803e-a489-4327-a23f-fb5ad62d78e4,.f069fb7e-5d58-4b9c-8c43-bf247d2bc6f7{fill:#646464;}.b483371f-968f-42c4-93c1-1e7b50089d23,.b8dc7f4f-6a76-4b44-9df6-4cf9e5999d5e{stroke-width:0.5px;}.b483371f-968f-42c4-93c1-1e7b50089d23{stroke-dasharray:5.03 3.02;}.bf8a8f7f-01ba-4be4-920f-775d18c278a5{font-size:24px;}.a1050354-18ba-4c91-9c77-12315bb113fe,.a451d5ff-6f8b-4477-9496-216529c1b3cb,.a4c12a60-10a7-487f-88d5-ad4432058a82,.b58143b1-a305-4df1-90bc-9719495f315d,.bbd91989-50cc-4b04-a380-cc96671200e4,.be2a31ae-d6d8-472c-89a6-da04cf643bb1,.bf8a8f7f-01ba-4be4-920f-775d18c278a5,.e1c8803e-a489-4327-a23f-fb5ad62d78e4,.fce724f1-9d39-4bba-bc0e-6aa097133f3e{font-family:TrebuchetMS-Bold, Trebuchet MS;font-weight:700;}.bda31529-a4a8-4fb9-a17b-121151cdb50c,.be2a31ae-d6d8-472c-89a6-da04cf643bb1{letter-spacing:-0.02em;}.a451d5ff-6f8b-4477-9496-216529c1b3cb,.b9b48b06-0b7e-4996-af62-9b99a119781d{letter-spacing:-0.06em;}.e1c8803e-a489-4327-a23f-fb5ad62d78e4{font-size:11px;}.b63ee011-9098-451c-a9fb-8923f8e1d0de{letter-spacing:-0.03em;}.a4c12a60-10a7-487f-88d5-ad4432058a82,.acad2b48-9604-4741-b689-a08f727658c9,.b58143b1-a305-4df1-90bc-9719495f315d{font-size:10px;}.b51dda4e-e8af-4379-9dc8-402feb30d5d8{letter-spacing:0.03em;}.a8455ed1-b2ac-4aa7-ab09-96ceda1de7b0,.f4ea178b-8800-4d23-a0a6-bdb9831b545c{fill:#009add;}.a1050354-18ba-4c91-9c77-12315bb113fe{font-size:16px;}.a1050354-18ba-4c91-9c77-12315bb113fe,.b58143b1-a305-4df1-90bc-9719495f315d{fill:#fff;}.acad2b48-9604-4741-b689-a08f727658c9{font-family:MyriadPro-Regular, Myriad Pro;}.bbd91989-50cc-4b04-a380-cc96671200e4{letter-spacing:-0.09em;}.eb5cd61a-9cca-4ad0-b762-bd92f7df5b29{stroke-dasharray:5 3;}</style></defs><title>CDOT_diagrams_CH3</title><g id="a5f4767f-da5a-40d0-8557-0dc28ff208f0" data-name="shapes"><line class="b5acea02-84c3-40d5-bbae-72274a0fc87d" x1="114.33" y1="113.87" x2="146.25" y2="113.87"/><polygon class="f069fb7e-5d58-4b9c-8c43-bf247d2bc6f7" points="144.5 119.86 154.86 113.87 144.5 107.89 144.5 119.86"/><line class="b5acea02-84c3-40d5-bbae-72274a0fc87d" x1="574.56" y1="409.14" x2="542.65" y2="409.14"/><polygon class="f069fb7e-5d58-4b9c-8c43-bf247d2bc6f7" points="572.81 403.16 583.17 409.14 572.81 415.13 572.81 403.16"/><line class="b5acea02-84c3-40d5-bbae-72274a0fc87d" x1="574.56" y1="522.03" x2="542.65" y2="522.03"/><polygon class="f069fb7e-5d58-4b9c-8c43-bf247d2bc6f7" points="572.81 516.04 583.17 522.03 572.81 528.01 572.81 516.04"/><line class="b5acea02-84c3-40d5-bbae-72274a0fc87d" x1="208.08" y1="129.72" x2="208.08" y2="179.23"/><polygon class="f069fb7e-5d58-4b9c-8c43-bf247d2bc6f7" points="202.1 177.48 208.08 187.85 214.07 177.48 202.1 177.48"/><line class="b5acea02-84c3-40d5-bbae-72274a0fc87d" x1="503.25" y1="234.3" x2="503.25" y2="366.56"/><polygon class="f069fb7e-5d58-4b9c-8c43-bf247d2bc6f7" points="497.27 364.81 503.25 375.18 509.24 364.81 497.27 364.81"/><line class="b5acea02-84c3-40d5-bbae-72274a0fc87d" x1="503.25" y1="439.68" x2="503.25" y2="479.94"/><polygon class="f069fb7e-5d58-4b9c-8c43-bf247d2bc6f7" points="497.27 478.19 503.25 488.55 509.24 478.19 497.27 478.19"/><line class="b8dc7f4f-6a76-4b44-9df6-4cf9e5999d5e" x1="18.35" y1="174.94" x2="20.85" y2="174.94"/><line class="b483371f-968f-42c4-93c1-1e7b50089d23" x1="23.87" y1="174.94" x2="641.93" y2="174.94"/><line class="b8dc7f4f-6a76-4b44-9df6-4cf9e5999d5e" x1="643.44" y1="174.94" x2="645.94" y2="174.94"/><line class="b8dc7f4f-6a76-4b44-9df6-4cf9e5999d5e" x1="18.35" y1="356.41" x2="20.85" y2="356.41"/><line class="b483371f-968f-42c4-93c1-1e7b50089d23" x1="23.87" y1="356.41" x2="641.93" y2="356.41"/><line class="b8dc7f4f-6a76-4b44-9df6-4cf9e5999d5e" x1="643.44" y1="356.41" x2="645.94" y2="356.41"/><line class="b8dc7f4f-6a76-4b44-9df6-4cf9e5999d5e" x1="18.35" y1="462.94" x2="20.85" y2="462.94"/><line class="b483371f-968f-42c4-93c1-1e7b50089d23" x1="23.87" y1="462.94" x2="641.93" y2="462.94"/><line class="b8dc7f4f-6a76-4b44-9df6-4cf9e5999d5e" x1="643.44" y1="462.94" x2="645.94" y2="462.94"/><line class="b5acea02-84c3-40d5-bbae-72274a0fc87d" x1="249.79" y1="212.84" x2="299.63" y2="212.84"/><polygon class="f069fb7e-5d58-4b9c-8c43-bf247d2bc6f7" points="297.88 218.82 308.24 212.84 297.88 206.85 297.88 218.82"/><line class="b5acea02-84c3-40d5-bbae-72274a0fc87d" x1="400.05" y1="212.84" x2="449.88" y2="212.84"/><polygon class="f069fb7e-5d58-4b9c-8c43-bf247d2bc6f7" points="448.13 218.82 458.5 212.84 448.13 206.85 448.13 218.82"/></g><g id="a5232308-dc29-483c-8618-8b515335a834" data-name="text"><text class="bf8a8f7f-01ba-4be4-920f-775d18c278a5" transform="translate(18.5 35.68)">3-7 MPO<tspan class="bda31529-a4a8-4fb9-a17b-121151cdb50c" x="93.01" y="0"> </tspan><tspan x="99.81" y="0">TI</tspan><tspan class="bda31529-a4a8-4fb9-a17b-121151cdb50c" x="121.17" y="0">P</tspan><tspan class="b9b48b06-0b7e-4996-af62-9b99a119781d" x="134.82" y="0"> </tspan><tspan x="140.73" y="0">Amendment/Modification Process</tspan></text><text class="e1c8803e-a489-4327-a23f-fb5ad62d78e4" transform="translate(45.52 132.98) rotate(-90)">MPO</text><text class="e1c8803e-a489-4327-a23f-fb5ad62d78e4" transform="translate(45.52 447.37) rotate(-90)">Business Office</text><text class="e1c8803e-a489-4327-a23f-fb5ad62d78e4" transform="translate(45.52 312.36) rotate(-90)">DTR Prog<tspan class="b63ee011-9098-451c-a9fb-8923f8e1d0de" x="46.73" y="0">r</tspan><tspan x="51.09" y="0">amming</tspan></text><text class="e1c8803e-a489-4327-a23f-fb5ad62d78e4" transform="translate(45.52 530.7) rotate(-90)">OFMB</text><rect class="b5acea02-84c3-40d5-bbae-72274a0fc87d" x="162.81" y="191.82" width="87.63" height="43.02"/><text class="a4c12a60-10a7-487f-88d5-ad4432058a82" transform="translate(173.72 210.6)">Re<tspan class="b51dda4e-e8af-4379-9dc8-402feb30d5d8" x="11.86" y="0">v</tspan><tspan x="17.44" y="0">iew</tspan><tspan class="bda31529-a4a8-4fb9-a17b-121151cdb50c" x="34.01" y="0"> </tspan><tspan x="36.84" y="0">TI</tspan><tspan class="bda31529-a4a8-4fb9-a17b-121151cdb50c" x="45.74" y="0">P</tspan><tspan x="51.43" y="0" xml:space="preserve"> for </tspan><tspan x="15.36" y="12">changes</tspan></text><rect class="b5acea02-84c3-40d5-bbae-72274a0fc87d" x="459.93" y="191.82" width="87.63" height="43.02"/><text class="a4c12a60-10a7-487f-88d5-ad4432058a82" transform="translate(474.66 210.6)">Send form to <tspan x="-5.13" y="12">Business Office</tspan></text><line class="f0432717-36a9-4153-a5db-aaef43501f51" x1="64.85" y1="568.16" x2="64.85" y2="69.02"/><circle class="a8455ed1-b2ac-4aa7-ab09-96ceda1de7b0" cx="97.74" cy="112.43" r="22.5"/><text class="a1050354-18ba-4c91-9c77-12315bb113fe" transform="translate(85.43 118.28)">3-4</text><circle class="a8455ed1-b2ac-4aa7-ab09-96ceda1de7b0" cx="606.69" cy="408.7" r="22.5"/><text class="a1050354-18ba-4c91-9c77-12315bb113fe" transform="translate(594.38 414.54)">3-8</text><circle class="a8455ed1-b2ac-4aa7-ab09-96ceda1de7b0" cx="606.69" cy="521.58" r="22.5"/><text class="a1050354-18ba-4c91-9c77-12315bb113fe" transform="translate(594.38 527.43)">3-8</text><rect class="b5acea02-84c3-40d5-bbae-72274a0fc87d" x="156.75" y="100.75" width="102.8" height="28.65" rx="14.32"/><text class="a4c12a60-10a7-487f-88d5-ad4432058a82" transform="translate(177.6 112.11)">Notify DTR of <tspan x="-5.42" y="12">TI</tspan><tspan class="bda31529-a4a8-4fb9-a17b-121151cdb50c" x="3.48" y="12">P</tspan><tspan x="9.17" y="12" xml:space="preserve"> amendment</tspan></text><text class="a4c12a60-10a7-487f-88d5-ad4432058a82" transform="translate(325.24 211.19)">Prepare STI<tspan class="bda31529-a4a8-4fb9-a17b-121151cdb50c" x="54.09" y="0">P</tspan><tspan x="59.78" y="0"> </tspan><tspan x="-10.52" y="12">amendment form</tspan></text><path class="b5acea02-84c3-40d5-bbae-72274a0fc87d" d="M312.67,236.92c1.18.55,2.91,1.3,5.05,2.05h0a51.6,51.6,0,0,0,16.75,3h0A37.44,37.44,0,0,0,355.08,236h0a39.23,39.23,0,0,1,21.57-6.11h0A58.19,58.19,0,0,1,400,235.23h0v-43H311.39v44.11c.3.15.73.37,1.28.63Z"/><text class="acad2b48-9604-4741-b689-a08f727658c9" transform="translate(295.51 288.59)"><tspan xml:space="preserve">•  </tspan><tspan class="fce724f1-9d39-4bba-bc0e-6aa097133f3e" x="7.06" y="0">F</tspan><tspan class="bbd91989-50cc-4b04-a380-cc96671200e4" x="12.9" y="0">T</tspan><tspan class="a451d5ff-6f8b-4477-9496-216529c1b3cb" x="18.07" y="0">A</tspan><tspan class="fce724f1-9d39-4bba-bc0e-6aa097133f3e" x="23.85" y="0" xml:space="preserve"> CDO</tspan><tspan class="be2a31ae-d6d8-472c-89a6-da04cf643bb1" x="46.44" y="0">T</tspan><tspan class="fce724f1-9d39-4bba-bc0e-6aa097133f3e" x="52.37" y="0" xml:space="preserve"> Subrecipient</tspan><tspan x="0" y="17" xml:space="preserve">•  </tspan><tspan class="fce724f1-9d39-4bba-bc0e-6aa097133f3e" x="7.06" y="17">F</tspan><tspan class="bbd91989-50cc-4b04-a380-cc96671200e4" x="12.9" y="17">T</tspan><tspan class="a451d5ff-6f8b-4477-9496-216529c1b3cb" x="18.07" y="17">A</tspan><tspan class="fce724f1-9d39-4bba-bc0e-6aa097133f3e" x="23.85" y="17" xml:space="preserve"> Non-CDO</tspan><tspan class="be2a31ae-d6d8-472c-89a6-da04cf643bb1" x="68.34" y="17">T</tspan><tspan class="fce724f1-9d39-4bba-bc0e-6aa097133f3e" x="74.28" y="17" xml:space="preserve"> Recipient</tspan><tspan x="0" y="34" xml:space="preserve">•  </tspan><tspan class="a451d5ff-6f8b-4477-9496-216529c1b3cb" x="7.06" y="34">F</tspan><tspan class="fce724f1-9d39-4bba-bc0e-6aa097133f3e" x="12.34" y="34">ASTER</tspan><tspan x="0" y="51" xml:space="preserve">•  </tspan><tspan class="fce724f1-9d39-4bba-bc0e-6aa097133f3e" x="7.06" y="51">CMAQ</tspan></text><rect class="eb5cd61a-9cca-4ad0-b762-bd92f7df5b29" x="288.99" y="272.38" width="132.25" height="74.14"/><line class="eb5cd61a-9cca-4ad0-b762-bd92f7df5b29" x1="355.75" y1="235.95" x2="355.75" y2="264.44"/><polygon class="f069fb7e-5d58-4b9c-8c43-bf247d2bc6f7" points="351.76 263.28 355.75 270.19 359.74 263.28 351.76 263.28"/><polygon class="f0432717-36a9-4153-a5db-aaef43501f51" points="645.96 568.37 18.36 568.37 18.36 69.3 33.53 69.3 645.96 69.3 645.96 568.37"/><path class="f4ea178b-8800-4d23-a0a6-bdb9831b545c" d="M464.26,383.79v48.34s2,6.54,39.2,6.83,38.26-7.26,38.26-7.26V383.93s0-6.68-40.29-6.68C463.17,377.25,464.26,383.79,464.26,383.79Z"/><path class="f4ea178b-8800-4d23-a0a6-bdb9831b545c" d="M464.26,392.34s-1.71,4.65,17.89,6.84c18,2,34.63,2.61,46.66-.46,13.38-3.43,12.91-6.23,12.91-6.23"/><text class="b58143b1-a305-4df1-90bc-9719495f315d" transform="translate(480.38 414.14)">Build STI<tspan class="bda31529-a4a8-4fb9-a17b-121151cdb50c" x="40.63" y="0">P</tspan><tspan x="46.31" y="0"> </tspan><tspan x="-8.96" y="12">budgets (SAP)</tspan></text><path class="f4ea178b-8800-4d23-a0a6-bdb9831b545c" d="M464.26,388.61s-1.71,4.64,17.89,6.84c18,2,34.63,2.61,46.66-.47,13.38-3.42,12.91-6.22,12.91-6.22"/><path class="f4ea178b-8800-4d23-a0a6-bdb9831b545c" d="M464.26,384.41s-1.71,4.64,17.89,6.84c18,2,34.63,2.61,46.66-.47,13.38-3.42,12.91-6.22,12.91-6.22"/><path class="f4ea178b-8800-4d23-a0a6-bdb9831b545c" d="M464.26,497.17v48.34s2,6.54,39.2,6.82,38.26-7.25,38.26-7.25V497.31s0-6.68-40.29-6.68C463.17,490.63,464.26,497.17,464.26,497.17Z"/><path class="f4ea178b-8800-4d23-a0a6-bdb9831b545c" d="M464.26,505.71s-1.71,4.65,17.89,6.85c18,2,34.63,2.61,46.66-.47,13.38-3.42,12.91-6.22,12.91-6.22"/><text class="b58143b1-a305-4df1-90bc-9719495f315d" transform="translate(472.71 527.52)">Approve STI<tspan class="bda31529-a4a8-4fb9-a17b-121151cdb50c" x="55.96" y="0">P</tspan><tspan x="61.65" y="0"> </tspan><tspan x="-1.29" y="12">budgets (SAP)</tspan></text><path class="f4ea178b-8800-4d23-a0a6-bdb9831b545c" d="M464.26,502s-1.71,4.65,17.89,6.84c18,2,34.63,2.62,46.66-.46,13.38-3.42,12.91-6.22,12.91-6.22"/><path class="f4ea178b-8800-4d23-a0a6-bdb9831b545c" d="M464.26,497.78s-1.71,4.65,17.89,6.84c18,2,34.63,2.62,46.66-.46,13.38-3.42,12.91-6.22,12.91-6.22"/></g></svg>