<svg xmlns="http://www.w3.org/2000/svg" viewBox="0 0 1654.5 778.34"><defs><style>.b2ce5e5d-e84d-46ba-a383-63e39f200752,.b2ce986d-c60f-404d-87a0-dcfff203cd0a,.b47d1e14-1828-4de1-bb40-b3579e67786c,.ea7b6931-cbe4-411d-b753-6dc5af3151ab,.f11be8d9-1262-4b6d-a427-90503645a2ef,.fd0303ee-4656-443d-b27e-df75c73df13c{fill:none;stroke:#646464;}.b2ce5e5d-e84d-46ba-a383-63e39f200752,.b47d1e14-1828-4de1-bb40-b3579e67786c,.ea7b6931-cbe4-411d-b753-6dc5af3151ab,.f11be8d9-1262-4b6d-a427-90503645a2ef,.fd0303ee-4656-443d-b27e-df75c73df13c{stroke-miterlimit:10;}.b47d1e14-1828-4de1-bb40-b3579e67786c,.f11be8d9-1262-4b6d-a427-90503645a2ef{stroke-width:0.5px;}.f11be8d9-1262-4b6d-a427-90503645a2ef{stroke-dasharray:5.01 3;}.b2ce5e5d-e84d-46ba-a383-63e39f200752{stroke-dasharray:5 3;}.af48168b-b906-465d-95a1-2d9fb90d307f,.bcc1abab-a9c3-44f3-b810-03ac3586b8bc,.bda28314-cbc3-4377-be18-4810548c018e,.ede26bd7-ba31-47ac-82d5-67b29c49b76e{fill:#646464;}.b2ce986d-c60f-404d-87a0-dcfff203cd0a,.ea7b6931-cbe4-411d-b753-6dc5af3151ab{stroke-width:2px;}.b2ce986d-c60f-404d-87a0-dcfff203cd0a{stroke-linejoin:round;}.af48168b-b906-465d-95a1-2d9fb90d307f{font-size:24px;}.a3bf0783-a35b-450c-aba9-d738d0b0419d,.af48168b-b906-465d-95a1-2d9fb90d307f,.bda28314-cbc3-4377-be18-4810548c018e,.ede26bd7-ba31-47ac-82d5-67b29c49b76e,.f3a69ca0-8f6c-48c6-b207-855bd7ec0aea{font-family:TrebuchetMS-Bold, Trebuchet MS;font-weight:700;}.ede26bd7-ba31-47ac-82d5-67b29c49b76e{font-size:11px;}.bda28314-cbc3-4377-be18-4810548c018e,.f3a69ca0-8f6c-48c6-b207-855bd7ec0aea{font-size:10px;}.bd8627f4-5c72-4190-be96-488fab72bff4{letter-spacing:-0.06em;}.e4427cbc-9c81-4da6-ae24-3596b8e2f1db{letter-spacing:-0.02em;}.f7710ba9-e720-4baa-9cc8-7466aabb90df{letter-spacing:-0.04em;}.fd7f1f6d-7c61-4380-ae63-74a09508191f{letter-spacing:-0.05em;}.f3376bd6-335b-43fd-b068-ce550be8e877{letter-spacing:-0.03em;}.aff85018-4791-4538-9ae5-2c463775b7af{letter-spacing:-0.09em;}.a20b8248-ffba-4e70-b52c-c9e972d878ff{letter-spacing:0.03em;}.f66cdad0-b1ae-4219-906c-a90d269478bc{fill:#009add;}.a3bf0783-a35b-450c-aba9-d738d0b0419d{font-size:16px;}.a3bf0783-a35b-450c-aba9-d738d0b0419d,.f3a69ca0-8f6c-48c6-b207-855bd7ec0aea{fill:#fff;}.e7866d5f-2619-4626-8b53-3afd85a77d97{letter-spacing:-0.09em;}.b412b96c-80cd-4c3c-90c9-a04d018b7bdd{fill:#3eaf49;}.afa4aeac-38f3-48f2-b8c9-240774a5fd84{fill:#d23138;}</style></defs><title>CDOT_diagrams_CH4</title><g id="a10a2baa-2abe-475b-b7a5-b70fe9725d5a" data-name="shapes"><line class="b47d1e14-1828-4de1-bb40-b3579e67786c" x1="18.38" y1="243.15" x2="20.88" y2="243.15"/><line class="f11be8d9-1262-4b6d-a427-90503645a2ef" x1="23.88" y1="243.15" x2="1632.93" y2="243.15"/><line class="b47d1e14-1828-4de1-bb40-b3579e67786c" x1="1634.43" y1="243.15" x2="1636.93" y2="243.15"/><line class="b47d1e14-1828-4de1-bb40-b3579e67786c" x1="18.38" y1="458.41" x2="20.88" y2="458.41"/><line class="f11be8d9-1262-4b6d-a427-90503645a2ef" x1="23.88" y1="458.41" x2="1632.93" y2="458.41"/><line class="b47d1e14-1828-4de1-bb40-b3579e67786c" x1="1634.43" y1="458.41" x2="1636.93" y2="458.41"/><line class="b2ce5e5d-e84d-46ba-a383-63e39f200752" x1="480.51" y1="135.05" x2="541.97" y2="135.05"/><polygon class="bcc1abab-a9c3-44f3-b810-03ac3586b8bc" points="541.1 138.04 546.28 135.05 541.1 132.06 541.1 138.04"/><line class="ea7b6931-cbe4-411d-b753-6dc5af3151ab" x1="280.32" y1="135.05" x2="318.95" y2="135.05"/><polygon class="bcc1abab-a9c3-44f3-b810-03ac3586b8bc" points="317.2 141.03 327.56 135.05 317.2 129.07 317.2 141.03"/><line class="ea7b6931-cbe4-411d-b753-6dc5af3151ab" x1="562.88" y1="304.14" x2="601.4" y2="304.14"/><polygon class="bcc1abab-a9c3-44f3-b810-03ac3586b8bc" points="599.65 310.12 610.02 304.13 599.65 298.15 599.65 310.12"/><line class="ea7b6931-cbe4-411d-b753-6dc5af3151ab" x1="1037.99" y1="392.97" x2="1037.99" y2="548.36"/><polygon class="bcc1abab-a9c3-44f3-b810-03ac3586b8bc" points="1032.01 546.61 1037.99 556.97 1043.98 546.61 1032.01 546.61"/><line class="ea7b6931-cbe4-411d-b753-6dc5af3151ab" x1="1037.99" y1="613.85" x2="1037.99" y2="637.94"/><polygon class="bcc1abab-a9c3-44f3-b810-03ac3586b8bc" points="1032.01 636.18 1037.99 646.55 1043.98 636.18 1032.01 636.18"/><line class="ea7b6931-cbe4-411d-b753-6dc5af3151ab" x1="1218.81" y1="559.85" x2="1218.81" y2="373.97"/><polygon class="bcc1abab-a9c3-44f3-b810-03ac3586b8bc" points="1224.79 375.72 1218.81 365.36 1212.83 375.72 1224.79 375.72"/><line class="ea7b6931-cbe4-411d-b753-6dc5af3151ab" x1="1543.3" y1="681.05" x2="1543.3" y2="208.84"/><polygon class="bcc1abab-a9c3-44f3-b810-03ac3586b8bc" points="1549.28 210.59 1543.3 200.23 1537.31 210.59 1549.28 210.59"/><path class="b2ce986d-c60f-404d-87a0-dcfff203cd0a" d="M480,97.22s-8.23,19-8.23,37.22S480,170.57,480,170.57"/><path class="ea7b6931-cbe4-411d-b753-6dc5af3151ab" d="M340.6,170.57s-8.23-17.95-8.23-36.13,8.23-37.22,8.23-37.22H481.3s8.22,18,8.22,36.13-8.22,37.22-8.22,37.22Z"/><line class="ea7b6931-cbe4-411d-b753-6dc5af3151ab" x1="368.08" y1="278.42" x2="368.08" y2="184.1"/><polygon class="bcc1abab-a9c3-44f3-b810-03ac3586b8bc" points="374.06 185.85 368.08 175.49 362.09 185.85 374.06 185.85"/><line class="ea7b6931-cbe4-411d-b753-6dc5af3151ab" x1="489.54" y1="262.39" x2="489.54" y2="136.39"/><polygon class="bcc1abab-a9c3-44f3-b810-03ac3586b8bc" points="495.52 260.64 489.54 271 483.56 260.64 495.52 260.64"/><path class="b2ce986d-c60f-404d-87a0-dcfff203cd0a" d="M405.28,277.51h8s-6,13.83-6,27,6,26.25,6,26.25"/><path class="ea7b6931-cbe4-411d-b753-6dc5af3151ab" d="M331.49,330.8s-6-13.05-6-26.25,6-27,6-27h82.05s6,13,6,26.25-6,27-6,27Z"/><path class="b2ce986d-c60f-404d-87a0-dcfff203cd0a" d="M553.44,272.5H563s-7.09,16.41-7.09,32.07S563,335.7,563,335.7"/><path class="ea7b6931-cbe4-411d-b753-6dc5af3151ab" d="M460,335.7s-7.09-15.47-7.09-31.13S460,272.5,460,272.5H563.87S571,288,571,303.63s-7.09,32.07-7.09,32.07Z"/><line class="ea7b6931-cbe4-411d-b753-6dc5af3151ab" x1="880.64" y1="364.87" x2="964.7" y2="364.87"/><polygon class="bcc1abab-a9c3-44f3-b810-03ac3586b8bc" points="962.95 370.86 973.31 364.88 962.95 358.89 962.95 370.86"/><line class="ea7b6931-cbe4-411d-b753-6dc5af3151ab" x1="1543.13" y1="164.31" x2="1543.13" y2="143.51"/><polygon class="bcc1abab-a9c3-44f3-b810-03ac3586b8bc" points="1549.11 145.26 1543.13 134.9 1537.15 145.26 1549.11 145.26"/><line class="ea7b6931-cbe4-411d-b753-6dc5af3151ab" x1="1263.84" y1="713.8" x2="1317.53" y2="713.8"/><polygon class="bcc1abab-a9c3-44f3-b810-03ac3586b8bc" points="1315.78 719.78 1326.14 713.8 1315.78 707.81 1315.78 719.78"/><line class="ea7b6931-cbe4-411d-b753-6dc5af3151ab" x1="1417.61" y1="713.8" x2="1492.16" y2="713.8"/><polygon class="bcc1abab-a9c3-44f3-b810-03ac3586b8bc" points="1490.41 719.78 1500.78 713.8 1490.41 707.81 1490.41 719.78"/><path class="b2ce986d-c60f-404d-87a0-dcfff203cd0a" d="M871.2,337.63h9.52s-7.09,14.24-7.09,27.83,7.09,27,7.09,27"/><path class="ea7b6931-cbe4-411d-b753-6dc5af3151ab" d="M777.72,392.48s-7.09-13.43-7.09-27,7.09-27.83,7.09-27.83H881.63s7.09,13.43,7.09,27-7.09,27.83-7.09,27.83Z"/><path class="b2ce986d-c60f-404d-87a0-dcfff203cd0a" d="M1084.27,559.49h9.51s-7.09,14.24-7.09,27.83,7.09,27,7.09,27"/><path class="ea7b6931-cbe4-411d-b753-6dc5af3151ab" d="M990.79,614.34s-7.09-13.42-7.09-27,7.09-27.83,7.09-27.83H1094.7s7.09,13.43,7.09,27-7.09,27.83-7.09,27.83Z"/><path class="b2ce986d-c60f-404d-87a0-dcfff203cd0a" d="M1253.25,559.49h9.51s-7.09,14.24-7.09,27.83,7.09,27,7.09,27"/><path class="ea7b6931-cbe4-411d-b753-6dc5af3151ab" d="M1174.09,614.34s-7.09-13.42-7.09-27,7.09-27.83,7.09-27.83h89.59s7.09,13.43,7.09,27-7.09,27.83-7.09,27.83Z"/><path class="b2ce986d-c60f-404d-87a0-dcfff203cd0a" d="M1085.85,337.63h9.51s-7.09,14.24-7.09,27.83,7.09,27,7.09,27"/><path class="ea7b6931-cbe4-411d-b753-6dc5af3151ab" d="M984.05,392.48s-7.09-13.43-7.09-27,7.09-27.83,7.09-27.83h112.23s7.09,13.43,7.09,27-7.09,27.83-7.09,27.83Z"/><rect class="ea7b6931-cbe4-411d-b753-6dc5af3151ab" x="81.14" y="109.83" width="199.18" height="50.89" rx="23.54"/><rect class="ea7b6931-cbe4-411d-b753-6dc5af3151ab" x="1475.84" y="163.82" width="134.6" height="34.39" rx="15.91"/><path class="ea7b6931-cbe4-411d-b753-6dc5af3151ab" d="M668.76,343.55v16.83H514.44a6,6,0,0,0-12.1,0H369.63V343.21"/><polygon class="bcc1abab-a9c3-44f3-b810-03ac3586b8bc" points="375.61 344.96 369.63 334.6 363.65 344.96 375.61 344.96"/></g><g id="ba1aaa78-c588-45dc-aafc-9ede45529213" data-name="text"><polyline class="ea7b6931-cbe4-411d-b753-6dc5af3151ab" points="769.9 372.39 508.15 372.39 508.15 346.68"/><polygon class="bcc1abab-a9c3-44f3-b810-03ac3586b8bc" points="514.14 348.43 508.15 338.06 502.17 348.43 514.14 348.43"/><text class="af48168b-b906-465d-95a1-2d9fb90d307f" transform="translate(18.5 35.68)">4-2 Capital Project Reimbursement Request</text><text class="ede26bd7-ba31-47ac-82d5-67b29c49b76e" transform="translate(42.66 187.72) rotate(-90)">Subrecipient</text><text class="ede26bd7-ba31-47ac-82d5-67b29c49b76e" transform="translate(42.66 430.82) rotate(-90)">DTR Project Coordination Unit</text><text class="ede26bd7-ba31-47ac-82d5-67b29c49b76e" transform="translate(42.66 655.32) rotate(-90) scale(0.99 1)">Business Office</text><polygon class="fd0303ee-4656-443d-b27e-df75c73df13c" points="1637.01 758.98 18.38 758.98 18.38 68.61 57.49 68.61 1637.01 68.61 1637.01 758.98"/><line class="fd0303ee-4656-443d-b27e-df75c73df13c" x1="64.85" y1="759.28" x2="64.85" y2="69.11"/><rect class="b2ce5e5d-e84d-46ba-a383-63e39f200752" x="547.72" y="80.61" width="178.73" height="144.54"/><text class="bda28314-cbc3-4377-be18-4810548c018e" transform="translate(554.23 96.62)">Independent Cost Estimate <tspan x="0" y="13">Procurement Concurrence Request </tspan><tspan x="0" y="26">Purchase</tspan><tspan class="bd8627f4-5c72-4190-be96-488fab72bff4" x="42.48" y="26"> </tspan><tspan x="44.94" y="26">Authorization</tspan><tspan x="0" y="39">Notice of</tspan><tspan class="bd8627f4-5c72-4190-be96-488fab72bff4" x="42.51" y="39"> </tspan><tspan x="44.98" y="39">Acceptance</tspan><tspan x="0" y="52">Security</tspan><tspan class="bd8627f4-5c72-4190-be96-488fab72bff4" x="38.44" y="52"> </tspan><tspan x="40.9" y="52">Agreement</tspan><tspan x="0" y="65">Application for</tspan><tspan class="e4427cbc-9c81-4da6-ae24-3596b8e2f1db" x="69.51" y="65"> </tspan><tspan class="f7710ba9-e720-4baa-9cc8-7466aabb90df" x="72.34" y="65">T</tspan><tspan x="78.09" y="65">itle or</tspan><tspan class="e4427cbc-9c81-4da6-ae24-3596b8e2f1db" x="106.68" y="65"> </tspan><tspan class="f7710ba9-e720-4baa-9cc8-7466aabb90df" x="109.51" y="65">T</tspan><tspan x="115.26" y="65">itle </tspan><tspan x="0" y="78">Invoice</tspan><tspan x="0" y="91">Proof of </tspan><tspan class="fd7f1f6d-7c61-4380-ae63-74a09508191f" x="40.54" y="91">P</tspan><tspan x="45.94" y="91">ayment</tspan><tspan class="fd7f1f6d-7c61-4380-ae63-74a09508191f" x="0" y="104">P</tspan><tspan x="5.4" y="104">ost Delivery </tspan><tspan x="0" y="117">Certifications</tspan></text><rect class="ea7b6931-cbe4-411d-b753-6dc5af3151ab" x="1163.54" y="302.43" width="114.36" height="61.35"/><text class="bda28314-cbc3-4377-be18-4810548c018e" transform="translate(1179.71 318.43)">DTR Prog<tspan class="f3376bd6-335b-43fd-b068-ce550be8e877" x="42.49" y="0">r</tspan><tspan x="46.45" y="0">amming </tspan><tspan x="-6.6" y="12">create a voucher for </tspan><tspan x="3.35" y="24">reimbursements </tspan><tspan x="-2.53" y="36">made every month </tspan></text><rect class="ea7b6931-cbe4-411d-b753-6dc5af3151ab" x="1397.04" y="302.43" width="114.36" height="61.35"/><text class="bda28314-cbc3-4377-be18-4810548c018e" transform="translate(1413.22 318.43)">DTR Prog<tspan class="f3376bd6-335b-43fd-b068-ce550be8e877" x="42.49" y="0">r</tspan><tspan x="46.45" y="0">amming </tspan><tspan x="-1.13" y="12">submit voucher to </tspan><tspan x="1.92" y="24">F</tspan><tspan class="aff85018-4791-4538-9ae5-2c463775b7af" x="7.76" y="24">T</tspan><tspan class="bd8627f4-5c72-4190-be96-488fab72bff4" x="12.93" y="24">A</tspan><tspan x="18.71" y="24"> </tspan><tspan class="a20b8248-ffba-4e70-b52c-c9e972d878ff" x="21.72" y="24">v</tspan><tspan x="27.31" y="24">ia ECHO for </tspan><tspan x="5.51" y="36">reimbursement</tspan></text><rect class="ea7b6931-cbe4-411d-b753-6dc5af3151ab" x="1277.57" y="472.49" width="114.36" height="61.35"/><text class="bda28314-cbc3-4377-be18-4810548c018e" transform="translate(1290.09 488.5)">Confirm voucher <tspan x="6.81" y="12">contains valid </tspan><tspan x="7.79" y="24">charges/ paid </tspan><tspan x="20.09" y="36">invoices </tspan></text><rect class="ea7b6931-cbe4-411d-b753-6dc5af3151ab" x="1503.7" y="682.3" width="80.85" height="61.35"/><text class="bda28314-cbc3-4377-be18-4810548c018e" transform="translate(1520.09 703.52)">SA<tspan class="e4427cbc-9c81-4da6-ae24-3596b8e2f1db" x="11.45" y="0">P</tspan><tspan x="17.13" y="0" xml:space="preserve"> issues </tspan><tspan x="-6.35" y="12">electronic or </tspan><tspan x="-4.85" y="24">paper check</tspan></text><text class="bda28314-cbc3-4377-be18-4810548c018e" transform="translate(352.72 113.92)">Submit Reimbursement <tspan x="12.58" y="12">Request (RR) with </tspan><tspan x="7.24" y="24">required documents</tspan><tspan x="34.36" y="36">(see list)</tspan><tspan x="28.73" y="48">(COTRAMS)</tspan></text><text class="bda28314-cbc3-4377-be18-4810548c018e" transform="translate(121.75 128.73)">If vehicle, complete<tspan class="e4427cbc-9c81-4da6-ae24-3596b8e2f1db" x="93.53" y="0"> </tspan><tspan class="f7710ba9-e720-4baa-9cc8-7466aabb90df" x="96.36" y="0">T</tspan><tspan x="102.1" y="0">itle </tspan><tspan x="-25.49" y="12">Application with CDO</tspan><tspan class="e4427cbc-9c81-4da6-ae24-3596b8e2f1db" x="73.7" y="12">T</tspan><tspan x="79.63" y="12" xml:space="preserve"> as lienholder</tspan></text><text class="bda28314-cbc3-4377-be18-4810548c018e" transform="translate(1485.48 184.86)">Receive reimbursement</text><circle class="f66cdad0-b1ae-4219-906c-a90d269478bc" cx="1543.12" cy="111.51" r="22.5"/><text class="a3bf0783-a35b-450c-aba9-d738d0b0419d" transform="translate(1530.8 117.38)">4-6</text><text class="a3bf0783-a35b-450c-aba9-d738d0b0419d" transform="translate(825.65 224.28)">3-3</text><path class="ea7b6931-cbe4-411d-b753-6dc5af3151ab" d="M775.71,256v48.34s2.31,6.54,44.75,6.83,43.68-7.25,43.68-7.25V256.16s0-6.69-46-6.69C774.47,249.47,775.71,256,775.71,256Z"/><path class="ea7b6931-cbe4-411d-b753-6dc5af3151ab" d="M775.71,264.56s-2,4.65,20.42,6.84c20.6,2,39.54,2.61,53.27-.46,15.27-3.42,14.74-6.22,14.74-6.22"/><text class="bda28314-cbc3-4377-be18-4810548c018e" transform="translate(789.01 282.17)">Enter ser<tspan class="a20b8248-ffba-4e70-b52c-c9e972d878ff" x="42.92" y="0">v</tspan><tspan x="48.5" y="0">ice </tspan><tspan x="-8.93" y="12">entry sheet (SES) </tspan><tspan x="18.85" y="25">(SAP)</tspan></text><path class="ea7b6931-cbe4-411d-b753-6dc5af3151ab" d="M775.71,260.83s-2,4.64,20.42,6.84c20.6,2,39.54,2.61,53.27-.47,15.27-3.42,14.74-6.22,14.74-6.22"/><path class="ea7b6931-cbe4-411d-b753-6dc5af3151ab" d="M776.72,256.63s-2,4.64,20.42,6.84c20.59,2,39.53,2.61,53.26-.47,15.27-3.42,14.74-6.22,14.74-6.22"/><path class="ea7b6931-cbe4-411d-b753-6dc5af3151ab" d="M1175.35,694.53V730.1s2.31,6.54,44.75,6.83,43.68-7.25,43.68-7.25v-35s0-6.68-46-6.68C1174.11,688,1175.35,694.53,1175.35,694.53Z"/><path class="ea7b6931-cbe4-411d-b753-6dc5af3151ab" d="M1175.35,703.07s-1.95,4.65,20.42,6.85c20.6,2,39.54,2.61,53.27-.47,15.27-3.42,14.74-6.22,14.74-6.22"/><text class="bda28314-cbc3-4377-be18-4810548c018e" transform="translate(1193.56 725.87)"><tspan class="fd7f1f6d-7c61-4380-ae63-74a09508191f">P</tspan><tspan x="5.4" y="0">ark in SA</tspan><tspan class="e4427cbc-9c81-4da6-ae24-3596b8e2f1db" x="46.84" y="0">P</tspan></text><path class="ea7b6931-cbe4-411d-b753-6dc5af3151ab" d="M1175.35,699.34s-1.95,4.65,20.42,6.85c20.6,2,39.54,2.61,53.27-.47,15.27-3.42,14.74-6.22,14.74-6.22"/><path class="ea7b6931-cbe4-411d-b753-6dc5af3151ab" d="M1175.35,695.14s-1.95,4.65,20.42,6.85c20.6,2,39.54,2.61,53.27-.47,15.27-3.42,14.74-6.22,14.74-6.22"/><path class="ea7b6931-cbe4-411d-b753-6dc5af3151ab" d="M1328.75,693.53v38.53s2.31,6.54,44.75,6.82,43.68-7.25,43.68-7.25v-38s0-6.68-46-6.68C1327.51,687,1328.75,693.53,1328.75,693.53Z"/><path class="ea7b6931-cbe4-411d-b753-6dc5af3151ab" d="M1328.75,702.07s-2,4.65,20.42,6.85c20.6,2,39.54,2.61,53.27-.47,15.27-3.42,14.74-6.22,14.74-6.22"/><text class="bda28314-cbc3-4377-be18-4810548c018e" transform="translate(1331.9 720.64)">Approve payment <tspan x="28.99" y="12">(SAP)</tspan></text><path class="ea7b6931-cbe4-411d-b753-6dc5af3151ab" d="M1328.75,698.34s-2,4.65,20.42,6.84c20.6,2,39.54,2.62,53.27-.46,15.27-3.42,14.74-6.22,14.74-6.22"/><path class="ea7b6931-cbe4-411d-b753-6dc5af3151ab" d="M1328.75,694.14s-2,4.65,20.42,6.85c20.6,2,39.54,2.61,53.27-.47,15.27-3.42,14.74-6.22,14.74-6.22"/><text class="bda28314-cbc3-4377-be18-4810548c018e" transform="translate(649.6 287.61)">Request <tspan x="-6.61" y="13">eligible for </tspan><tspan x="-19.31" y="26">reimbursement?</tspan><tspan class="e7866d5f-2619-4626-8b53-3afd85a77d97" x="3.06" y="39">Y</tspan><tspan x="8.27" y="39">es/No</tspan></text><polygon class="ea7b6931-cbe4-411d-b753-6dc5af3151ab" points="614.06 303.88 668.41 262.13 722.76 303.88 668.41 345.64 614.06 303.88"/><text class="bda28314-cbc3-4377-be18-4810548c018e" transform="translate(353 299.09)">Reject <tspan x="-2.72" y="12">request</tspan></text><text class="bda28314-cbc3-4377-be18-4810548c018e" transform="translate(488.5 289.16)">Project <tspan x="-28.26" y="12">Coordinator re</tspan><tspan class="a20b8248-ffba-4e70-b52c-c9e972d878ff" x="40.4" y="12">v</tspan><tspan x="45.99" y="12">iew </tspan><tspan x="-11.22" y="24">requests for </tspan><tspan x="-14.79" y="36">completeness</tspan></text><text class="bda28314-cbc3-4377-be18-4810548c018e" transform="translate(805.1 354.84)">Project <tspan x="-28.26" y="12">Coordinator re</tspan><tspan class="a20b8248-ffba-4e70-b52c-c9e972d878ff" x="40.4" y="12">v</tspan><tspan x="45.99" y="12">iew </tspan><tspan x="-8.66" y="24">(COTRAMS)</tspan></text><text class="bda28314-cbc3-4377-be18-4810548c018e" transform="translate(999.97 576.7)">Business Office <tspan x="19.26" y="12">re</tspan><tspan class="a20b8248-ffba-4e70-b52c-c9e972d878ff" x="29.28" y="12">v</tspan><tspan x="34.87" y="12">iew </tspan><tspan x="9.54" y="24">(COTRAMS)</tspan></text><text class="bda28314-cbc3-4377-be18-4810548c018e" transform="translate(1174.07 581.34)">Approve request <tspan x="13.06" y="12">(COTRAMS)</tspan></text><text class="bda28314-cbc3-4377-be18-4810548c018e" transform="translate(985.12 358.94)">Project Coordination <tspan x="0.34" y="12">Unit Manager re</tspan><tspan class="a20b8248-ffba-4e70-b52c-c9e972d878ff" x="75.06" y="12">v</tspan><tspan x="80.64" y="12">iew </tspan><tspan x="22.97" y="24">(COTRAMS)</tspan></text><polyline class="ea7b6931-cbe4-411d-b753-6dc5af3151ab" points="765.64 281.31 741.36 281.31 741.36 363.17 759.33 363.17"/><polygon class="bcc1abab-a9c3-44f3-b810-03ac3586b8bc" points="763.89 275.33 774.25 281.31 763.89 287.3 763.89 275.33"/><polygon class="bcc1abab-a9c3-44f3-b810-03ac3586b8bc" points="757.58 369.15 767.94 363.17 757.58 357.18 757.58 369.15"/><line class="ea7b6931-cbe4-411d-b753-6dc5af3151ab" x1="722.76" y1="303.88" x2="740.9" y2="303.88"/><rect class="b412b96c-80cd-4c3c-90c9-a04d018b7bdd" x="725.99" y="339.04" width="31.28" height="17.57"/><text class="f3a69ca0-8f6c-48c6-b207-855bd7ec0aea" transform="translate(733.16 350.57)">YES</text><polyline class="ea7b6931-cbe4-411d-b753-6dc5af3151ab" points="1155.88 588.14 1136.47 588.14 1136.47 716.91 1162.88 716.91"/><polygon class="bcc1abab-a9c3-44f3-b810-03ac3586b8bc" points="1154.13 582.15 1164.49 588.14 1154.13 594.12 1154.13 582.15"/><polygon class="bcc1abab-a9c3-44f3-b810-03ac3586b8bc" points="1161.13 722.89 1171.5 716.91 1161.13 710.92 1161.13 722.89"/><rect class="b412b96c-80cd-4c3c-90c9-a04d018b7bdd" x="1120.78" y="692.78" width="31.28" height="17.57"/><text class="f3a69ca0-8f6c-48c6-b207-855bd7ec0aea" transform="translate(1127.95 704.31)">YES</text><rect class="afa4aeac-38f3-48f2-b8c9-240774a5fd84" x="609.16" y="366.27" width="46.38" height="17.57"/><rect class="b412b96c-80cd-4c3c-90c9-a04d018b7bdd" x="898.02" y="356.82" width="56.62" height="17.57"/><text class="f3a69ca0-8f6c-48c6-b207-855bd7ec0aea" transform="translate(904.62 369.35)">APPROVE</text><rect class="b412b96c-80cd-4c3c-90c9-a04d018b7bdd" x="1009.44" y="470.19" width="56.62" height="17.57"/><text class="f3a69ca0-8f6c-48c6-b207-855bd7ec0aea" transform="translate(1016.04 482.72)">APPROVE</text><line class="ea7b6931-cbe4-411d-b753-6dc5af3151ab" x1="1082.71" y1="681" x2="1136.2" y2="681"/><polyline class="ea7b6931-cbe4-411d-b753-6dc5af3151ab" points="1277.22 328.96 1332.72 328.96 1332.72 462.22"/><polygon class="bcc1abab-a9c3-44f3-b810-03ac3586b8bc" points="1326.74 460.47 1332.72 470.83 1338.71 460.47 1326.74 460.47"/><polyline class="ea7b6931-cbe4-411d-b753-6dc5af3151ab" points="995.35 681.24 829.31 681.24 829.31 403.73"/><polygon class="bcc1abab-a9c3-44f3-b810-03ac3586b8bc" points="835.29 405.48 829.31 395.11 823.33 405.48 835.29 405.48"/><polyline class="ea7b6931-cbe4-411d-b753-6dc5af3151ab" points="1451.81 375.97 1451.81 505.9 1391.79 505.9"/><polygon class="bcc1abab-a9c3-44f3-b810-03ac3586b8bc" points="1445.83 377.72 1451.81 367.36 1457.8 377.72 1445.83 377.72"/><rect class="b2ce5e5d-e84d-46ba-a383-63e39f200752" x="1140.94" y="257.23" width="387.53" height="289.31"/><rect class="afa4aeac-38f3-48f2-b8c9-240774a5fd84" x="861.42" y="673.23" width="31.28" height="17.57"/><text class="f3a69ca0-8f6c-48c6-b207-855bd7ec0aea" transform="translate(870.21 684.76)">NO</text><rect class="afa4aeac-38f3-48f2-b8c9-240774a5fd84" x="536.93" y="352.65" width="31.28" height="17.57"/><text class="f3a69ca0-8f6c-48c6-b207-855bd7ec0aea" transform="translate(545.72 364.18)">NO</text><text class="f3a69ca0-8f6c-48c6-b207-855bd7ec0aea" transform="translate(615.25 377.79)">REJEC<tspan class="e4427cbc-9c81-4da6-ae24-3596b8e2f1db" x="28.93" y="0">T</tspan></text><text class="bda28314-cbc3-4377-be18-4810548c018e" transform="matrix(1, 0, 0, 1, 1015.38, 675.85)">Complete<tspan x="-10.15" y="13">and accu</tspan><tspan class="f3376bd6-335b-43fd-b068-ce550be8e877" x="31.37" y="13">r</tspan><tspan x="35.33" y="13">ate?</tspan></text><polygon class="ea7b6931-cbe4-411d-b753-6dc5af3151ab" points="994.13 681.86 1038.26 647.63 1082.71 681.44 1038.58 715.68 994.13 681.86"/></g></svg>