<svg xmlns="http://www.w3.org/2000/svg" viewBox="0 0 2049.71 611.82"><defs><style>.a28ceb06-dd5c-46af-8a04-de1d57a42bc9,.b648053f-07a4-4212-b6f9-27a936495c13{fill:#009add;}.a2cb0c75-53c5-4b40-9e97-f9d8dddd6bce,.ae502f07-bed1-4745-aa1d-0117fbe84f7f,.b3804e72-25f8-4743-8881-868a9db9f4b6,.b648053f-07a4-4212-b6f9-27a936495c13,.b874cbe6-8272-4975-9c0f-f670f62d1cbb,.f3efa84e-f30b-4c81-941b-c498ead7a388,.fd3de0ed-2044-4e4a-8e87-a320dad55730{stroke:#646464;}.a2cb0c75-53c5-4b40-9e97-f9d8dddd6bce,.ae502f07-bed1-4745-aa1d-0117fbe84f7f,.b3804e72-25f8-4743-8881-868a9db9f4b6,.b648053f-07a4-4212-b6f9-27a936495c13,.b874cbe6-8272-4975-9c0f-f670f62d1cbb,.f3efa84e-f30b-4c81-941b-c498ead7a388{stroke-miterlimit:10;}.a2cb0c75-53c5-4b40-9e97-f9d8dddd6bce,.b648053f-07a4-4212-b6f9-27a936495c13,.fd3de0ed-2044-4e4a-8e87-a320dad55730{stroke-width:2px;}.a2cb0c75-53c5-4b40-9e97-f9d8dddd6bce,.ae502f07-bed1-4745-aa1d-0117fbe84f7f,.b3804e72-25f8-4743-8881-868a9db9f4b6,.b874cbe6-8272-4975-9c0f-f670f62d1cbb,.f3efa84e-f30b-4c81-941b-c498ead7a388,.fd3de0ed-2044-4e4a-8e87-a320dad55730{fill:none;}.a4f33479-fe8b-4c1a-a10e-bd6a1be0f1cc,.a64932c2-d78e-408a-8961-2ec51bc6df34,.bc29471d-0923-4e7d-8b1c-46162e6e24fc,.ee571796-0128-420b-836e-bc061f0ceeb9,.ee975c9d-0823-4942-b15f-a8e4977625d4{fill:#646464;}.ae502f07-bed1-4745-aa1d-0117fbe84f7f,.f3efa84e-f30b-4c81-941b-c498ead7a388{stroke-width:0.5px;}.f3efa84e-f30b-4c81-941b-c498ead7a388{stroke-dasharray:5 3;}.fd3de0ed-2044-4e4a-8e87-a320dad55730{stroke-linejoin:round;}.a4f33479-fe8b-4c1a-a10e-bd6a1be0f1cc,.a64932c2-d78e-408a-8961-2ec51bc6df34,.afd55808-5806-4016-8085-b445b22d84d9{font-size:10px;}.afd55808-5806-4016-8085-b445b22d84d9,.bd47ca22-4afb-444b-880d-f89c18383ddd{fill:#fff;}.a0c41a46-60b5-4581-8898-aeff51defa12,.a64932c2-d78e-408a-8961-2ec51bc6df34,.a6d111ea-af06-4be0-b233-6f6cbe38d05a,.a6d84740-cfe5-4b16-a588-0faa47621280,.afd55808-5806-4016-8085-b445b22d84d9,.b7f0fb45-7fc1-45e0-9571-9b0830f88ca2,.bc29471d-0923-4e7d-8b1c-46162e6e24fc,.bd47ca22-4afb-444b-880d-f89c18383ddd,.ee571796-0128-420b-836e-bc061f0ceeb9{font-family:TrebuchetMS-Bold, Trebuchet MS;font-weight:700;}.ee571796-0128-420b-836e-bc061f0ceeb9{font-size:24px;}.f85bbdf4-25ab-48b0-9e40-b80f1b37e3e2{letter-spacing:-0.06em;}.bc29471d-0923-4e7d-8b1c-46162e6e24fc{font-size:11px;}.b5e2d4aa-7f80-4c07-b1ea-24f15264235e{fill:#3eaf49;}.f21ea85b-6a3b-4bd6-b20b-028b29223c87{fill:#d23138;}.b3549ddb-9cb6-48fc-abec-4c936785f8b7,.b7f0fb45-7fc1-45e0-9571-9b0830f88ca2{letter-spacing:0.03em;}.b400268a-72fd-434c-9903-0631aa596206{letter-spacing:-0.11em;}.a6d84740-cfe5-4b16-a588-0faa47621280,.b3c174f4-438b-4bb7-8254-41a89cbb3ec9{letter-spacing:-0.03em;}.a4f33479-fe8b-4c1a-a10e-bd6a1be0f1cc{font-family:MyriadPro-Regular, Myriad Pro;}.a6d111ea-af06-4be0-b233-6f6cbe38d05a,.ba2a0298-9a02-469b-b490-4d0c77856435{letter-spacing:-0.02em;}.a178e3fa-afee-4f49-b089-798ac0aa66fd{letter-spacing:-0.05em;}.a4db0cb8-c1ab-4a85-9989-30916c234beb{letter-spacing:-0.04em;}.b874cbe6-8272-4975-9c0f-f670f62d1cbb{stroke-dasharray:5 3;}.bd47ca22-4afb-444b-880d-f89c18383ddd{font-size:16px;}</style></defs><title>CDOT_diagrams_CH3</title><g id="a73f8854-41fc-4ef1-99bf-e2c4736e64fa" data-name="shapes"><path class="b648053f-07a4-4212-b6f9-27a936495c13" d="M1926.71,129.84s-5.85-10.06-5.85-20.23,5.85-20.83,5.85-20.83H2005s5.84,10,5.84,20.22-5.84,20.84-5.84,20.84Z"/><line class="a2cb0c75-53c5-4b40-9e97-f9d8dddd6bce" x1="222.08" y1="125.76" x2="253.99" y2="125.76"/><polygon class="ee975c9d-0823-4942-b15f-a8e4977625d4" points="252.24 131.74 262.6 125.76 252.24 119.77 252.24 131.74"/><line class="a2cb0c75-53c5-4b40-9e97-f9d8dddd6bce" x1="388.71" y1="125.76" x2="420.62" y2="125.76"/><polygon class="ee975c9d-0823-4942-b15f-a8e4977625d4" points="418.87 131.74 429.23 125.76 418.87 119.77 418.87 131.74"/><line class="a2cb0c75-53c5-4b40-9e97-f9d8dddd6bce" x1="530.63" y1="125.31" x2="562.54" y2="125.31"/><polygon class="ee975c9d-0823-4942-b15f-a8e4977625d4" points="560.79 131.29 571.15 125.31 560.79 119.33 560.79 131.29"/><line class="ae502f07-bed1-4745-aa1d-0117fbe84f7f" x1="18.37" y1="344.19" x2="20.87" y2="344.19"/><line class="f3efa84e-f30b-4c81-941b-c498ead7a388" x1="23.88" y1="344.19" x2="2023.21" y2="344.19"/><line class="ae502f07-bed1-4745-aa1d-0117fbe84f7f" x1="2024.71" y1="344.19" x2="2027.21" y2="344.19"/><polyline class="a2cb0c75-53c5-4b40-9e97-f9d8dddd6bce" points="777.79 147.51 731.97 147.51 731.97 415.72 705.01 415.72"/><polygon class="ee975c9d-0823-4942-b15f-a8e4977625d4" points="776.04 141.53 786.41 147.51 776.04 153.5 776.04 141.53"/><path class="fd3de0ed-2044-4e4a-8e87-a320dad55730" d="M1996.93,88.78h7.85s-5.85,10.66-5.85,20.83,5.85,20.23,5.85,20.23"/><path class="fd3de0ed-2044-4e4a-8e87-a320dad55730" d="M1457.93,123.47h9.67s-7.21,13.13-7.21,25.67,7.21,24.91,7.21,24.91"/><path class="fd3de0ed-2044-4e4a-8e87-a320dad55730" d="M1500.44,385.74s-7.2,13.14-7.2,25.67,7.2,24.92,7.2,24.92"/><path class="a2cb0c75-53c5-4b40-9e97-f9d8dddd6bce" d="M1360.74,174.05s-7.2-12.38-7.2-24.91,7.2-25.67,7.2-25.67h107.14s7.2,12.38,7.2,24.92-7.2,25.66-7.2,25.66Z"/><path class="a2cb0c75-53c5-4b40-9e97-f9d8dddd6bce" d="M1417,436.38s-7.2-12.38-7.2-24.91,7.2-25.67,7.2-25.67h83.8s7.2,12.38,7.2,24.92-7.2,25.66-7.2,25.66Z"/><path class="fd3de0ed-2044-4e4a-8e87-a320dad55730" d="M1635.44,385.74s-7.21,13.14-7.21,25.67,7.21,24.92,7.21,24.92"/><path class="a2cb0c75-53c5-4b40-9e97-f9d8dddd6bce" d="M1552,436.38s-7.2-12.38-7.2-24.91,7.2-25.67,7.2-25.67h83.81s7.2,12.38,7.2,24.92-7.2,25.66-7.2,25.66Z"/><line class="a2cb0c75-53c5-4b40-9e97-f9d8dddd6bce" x1="622.13" y1="144.09" x2="622.13" y2="360.35"/><polygon class="ee975c9d-0823-4942-b15f-a8e4977625d4" points="616.14 358.6 622.13 368.96 628.11 358.6 616.14 358.6"/><line class="a2cb0c75-53c5-4b40-9e97-f9d8dddd6bce" x1="857.16" y1="216.48" x2="857.16" y2="265.9"/><polygon class="ee975c9d-0823-4942-b15f-a8e4977625d4" points="851.17 264.14 857.16 274.51 863.14 264.14 851.17 264.14"/><line class="a2cb0c75-53c5-4b40-9e97-f9d8dddd6bce" x1="925.86" y1="147.42" x2="1014.83" y2="147.42"/><polygon class="ee975c9d-0823-4942-b15f-a8e4977625d4" points="1013.08 153.4 1023.44 147.42 1013.08 141.43 1013.08 153.4"/><line class="a2cb0c75-53c5-4b40-9e97-f9d8dddd6bce" x1="1843.21" y1="109.04" x2="1910.28" y2="109.04"/><polygon class="ee975c9d-0823-4942-b15f-a8e4977625d4" points="1908.53 115.03 1918.89 109.04 1908.53 103.06 1908.53 115.03"/><line class="a2cb0c75-53c5-4b40-9e97-f9d8dddd6bce" x1="1094.66" y1="216.48" x2="1094.66" y2="265.9"/><polygon class="ee975c9d-0823-4942-b15f-a8e4977625d4" points="1088.68 264.14 1094.66 274.51 1100.64 264.14 1088.68 264.14"/><line class="a2cb0c75-53c5-4b40-9e97-f9d8dddd6bce" x1="1094.66" y1="319.91" x2="1094.66" y2="361.68"/><polygon class="ee975c9d-0823-4942-b15f-a8e4977625d4" points="1088.68 359.93 1094.66 370.29 1100.64 359.93 1088.68 359.93"/><line class="a2cb0c75-53c5-4b40-9e97-f9d8dddd6bce" x1="1163.36" y1="147.42" x2="1339.42" y2="147.42"/><polygon class="ee975c9d-0823-4942-b15f-a8e4977625d4" points="1337.67 153.4 1348.04 147.42 1337.67 141.43 1337.67 153.4"/><line class="a2cb0c75-53c5-4b40-9e97-f9d8dddd6bce" x1="1176.68" y1="410.33" x2="1213.88" y2="410.33"/><polygon class="ee975c9d-0823-4942-b15f-a8e4977625d4" points="1212.13 416.31 1222.49 410.33 1212.13 404.35 1212.13 416.31"/><line class="a2cb0c75-53c5-4b40-9e97-f9d8dddd6bce" x1="1508.01" y1="410.33" x2="1534.14" y2="410.33"/><polygon class="ee975c9d-0823-4942-b15f-a8e4977625d4" points="1532.39 416.31 1542.75 410.33 1532.39 404.35 1532.39 416.31"/><line class="a2cb0c75-53c5-4b40-9e97-f9d8dddd6bce" x1="1231.94" y1="543.35" x2="1024.51" y2="543.35"/><polygon class="ee975c9d-0823-4942-b15f-a8e4977625d4" points="1026.26 537.37 1015.9 543.35 1026.26 549.34 1026.26 537.37"/><line class="a2cb0c75-53c5-4b40-9e97-f9d8dddd6bce" x1="1593.43" y1="182.14" x2="1593.43" y2="135.53"/><polygon class="ee975c9d-0823-4942-b15f-a8e4977625d4" points="1599.41 137.28 1593.43 126.92 1587.45 137.28 1599.41 137.28"/><line class="a2cb0c75-53c5-4b40-9e97-f9d8dddd6bce" x1="1593.43" y1="385.94" x2="1593.43" y2="263.93"/><polygon class="ee975c9d-0823-4942-b15f-a8e4977625d4" points="1599.41 265.68 1593.43 255.32 1587.45 265.68 1599.41 265.68"/><line class="a2cb0c75-53c5-4b40-9e97-f9d8dddd6bce" x1="1964.9" y1="130.05" x2="1964.9" y2="155.77"/><polygon class="ee975c9d-0823-4942-b15f-a8e4977625d4" points="1958.92 154.02 1964.9 164.38 1970.88 154.02 1958.92 154.02"/><polyline class="a2cb0c75-53c5-4b40-9e97-f9d8dddd6bce" points="1475.08 148.39 1506.37 148.39 1506.37 217.74 1546.48 217.74"/><polygon class="ee975c9d-0823-4942-b15f-a8e4977625d4" points="1544.73 223.73 1555.09 217.74 1544.73 211.76 1544.73 223.73"/><polyline class="a2cb0c75-53c5-4b40-9e97-f9d8dddd6bce" points="1741.13 108.67 1680.86 108.67 1680.86 217.52 1628.94 217.52"/><polygon class="ee975c9d-0823-4942-b15f-a8e4977625d4" points="1739.38 102.68 1749.74 108.67 1739.38 114.65 1739.38 102.68"/><line class="a2cb0c75-53c5-4b40-9e97-f9d8dddd6bce" x1="1277.34" y1="462.63" x2="1277.34" y2="509.24"/><polygon class="ee975c9d-0823-4942-b15f-a8e4977625d4" points="1271.36 507.49 1277.34 517.85 1283.33 507.49 1271.36 507.49"/><line class="a2cb0c75-53c5-4b40-9e97-f9d8dddd6bce" x1="1399.7" y1="409.94" x2="1330.4" y2="409.87"/><polygon class="ee975c9d-0823-4942-b15f-a8e4977625d4" points="1397.95 403.95 1408.31 409.94 1397.94 415.92 1397.95 403.95"/></g><g id="a9d4204c-884a-4a5d-81f8-f78f19e776bf" data-name="text"><text class="afd55808-5806-4016-8085-b445b22d84d9" transform="translate(1945.06 100.1)">Submit <tspan x="-9.74" y="12">application</tspan><tspan x="-9.62" y="24">(COTRAMS)</tspan></text><text class="a64932c2-d78e-408a-8961-2ec51bc6df34" transform="translate(1359.37 140.79)">Update required info <tspan x="9.9" y="12">in agency profile </tspan><tspan x="23.34" y="24">(COTRAMS)</tspan></text><text class="a64932c2-d78e-408a-8961-2ec51bc6df34" transform="translate(1420.37 406.12)">Set up agency <tspan x="4.43" y="12">in COTRAMS</tspan></text><text class="a64932c2-d78e-408a-8961-2ec51bc6df34" transform="translate(1565.58 406.12)">Complete <tspan x="-11" y="12">agency profile</tspan></text><text class="ee571796-0128-420b-836e-bc061f0ceeb9" transform="translate(18.5 35.68)">3-2 Subrecipient Planning through<tspan class="f85bbdf4-25ab-48b0-9e40-b80f1b37e3e2" x="384.83" y="0"> </tspan><tspan x="390.74" y="0">Application</tspan></text><text class="bc29471d-0923-4e7d-8b1c-46162e6e24fc" transform="translate(44.66 233.42) rotate(-90)">Subrecipient</text><text class="bc29471d-0923-4e7d-8b1c-46162e6e24fc" transform="translate(44.66 473.73) rotate(-90)">DTR</text><rect class="b5e2d4aa-7f80-4c07-b1ea-24f15264235e" x="810" y="232.58" width="95.39" height="17.57"/><text class="afd55808-5806-4016-8085-b445b22d84d9" transform="translate(816.74 244.11)">If<tspan class="f85bbdf4-25ab-48b0-9e40-b80f1b37e3e2" x="6.48" y="0"> </tspan><tspan x="8.94" y="0">Another</tspan><tspan class="f85bbdf4-25ab-48b0-9e40-b80f1b37e3e2" x="46.75" y="0"> </tspan><tspan x="49.21" y="0">Agency</tspan></text><rect class="b5e2d4aa-7f80-4c07-b1ea-24f15264235e" x="942.92" y="138.76" width="55.43" height="17.57"/><text class="afd55808-5806-4016-8085-b445b22d84d9" transform="translate(948.33 150.29)">If Directly</text><rect class="b5e2d4aa-7f80-4c07-b1ea-24f15264235e" x="1079.14" y="232.58" width="31.28" height="17.57"/><text class="afd55808-5806-4016-8085-b445b22d84d9" transform="translate(1086.31 244.11)">YES</text><rect class="b5e2d4aa-7f80-4c07-b1ea-24f15264235e" x="1665.68" y="150.49" width="31.28" height="17.57"/><text class="afd55808-5806-4016-8085-b445b22d84d9" transform="translate(1672.85 162.01)">YES</text><rect class="f21ea85b-6a3b-4bd6-b20b-028b29223c87" x="1243.73" y="138.76" width="26.58" height="17.57"/><text class="afd55808-5806-4016-8085-b445b22d84d9" transform="translate(1250.2 150.29)">NO</text><rect class="f21ea85b-6a3b-4bd6-b20b-028b29223c87" x="1580.01" y="150.43" width="26.58" height="17.57"/><text class="afd55808-5806-4016-8085-b445b22d84d9" transform="translate(1586.48 161.96)">NO</text><rect class="a2cb0c75-53c5-4b40-9e97-f9d8dddd6bce" x="1011.87" y="373.02" width="165.14" height="75.02"/><text class="a64932c2-d78e-408a-8961-2ec51bc6df34" transform="translate(1032.88 389.89)">Re<tspan class="b3549ddb-9cb6-48fc-abec-4c936785f8b7" x="11.86" y="0">v</tspan><tspan x="17.44" y="0">iew Questionnaire for:</tspan><tspan class="b400268a-72fd-434c-9903-0631aa596206" x="18.02" y="15">T</tspan><tspan x="23.03" y="15">echnical Capacity </tspan><tspan x="18.89" y="30">Financial Capacity</tspan><tspan x="12.58" y="46">Ci</tspan><tspan class="b3549ddb-9cb6-48fc-abec-4c936785f8b7" x="21.68" y="46">v</tspan><tspan x="27.27" y="46">il Rights Prog</tspan><tspan class="b3c174f4-438b-4bb7-8254-41a89cbb3ec9" x="88.36" y="46">r</tspan><tspan x="92.32" y="46">ams</tspan></text><text class="a4f33479-fe8b-4c1a-a10e-bd6a1be0f1cc" transform="translate(1710 199.46)"><tspan xml:space="preserve">•  </tspan><tspan class="a0c41a46-60b5-4581-8898-aeff51defa12" x="7.06" y="0">Define project</tspan><tspan x="0" y="17" xml:space="preserve">•  </tspan><tspan class="a0c41a46-60b5-4581-8898-aeff51defa12" x="7.06" y="17">Prepare Independent Cost Estimate</tspan><tspan x="0" y="34" xml:space="preserve">•  </tspan><tspan class="a0c41a46-60b5-4581-8898-aeff51defa12" x="7.06" y="34">Prepare budget (local match)</tspan><tspan x="0" y="51" xml:space="preserve">•  </tspan><tspan class="a0c41a46-60b5-4581-8898-aeff51defa12" x="7.06" y="51">Obtain letters of support</tspan><tspan x="0" y="68" xml:space="preserve">•  </tspan><tspan class="a0c41a46-60b5-4581-8898-aeff51defa12" x="7.06" y="68">Re</tspan><tspan class="b7f0fb45-7fc1-45e0-9571-9b0830f88ca2" x="18.92" y="68">v</tspan><tspan class="a0c41a46-60b5-4581-8898-aeff51defa12" x="24.5" y="68">iew list of required prog</tspan><tspan class="a6d84740-cfe5-4b16-a588-0faa47621280" x="138.03" y="68">r</tspan><tspan class="a0c41a46-60b5-4581-8898-aeff51defa12" x="141.99" y="68">am </tspan><tspan class="a0c41a46-60b5-4581-8898-aeff51defa12"><tspan x="0" y="80">documents</tspan></tspan><tspan x="0" y="97" xml:space="preserve">•  </tspan><tspan class="a0c41a46-60b5-4581-8898-aeff51defa12" x="7.06" y="97">Register on SAM.gov</tspan><tspan x="0" y="114" xml:space="preserve">•  </tspan><tspan class="a0c41a46-60b5-4581-8898-aeff51defa12" x="7.06" y="114">Apply for CDO</tspan><tspan class="a6d111ea-af06-4be0-b233-6f6cbe38d05a" x="72.56" y="114">T</tspan><tspan class="a0c41a46-60b5-4581-8898-aeff51defa12" x="78.5" y="114" xml:space="preserve"> vendor number (W9)</tspan></text><text class="a64932c2-d78e-408a-8961-2ec51bc6df34" transform="translate(839.36 108.76)">Decide:<tspan x="-1.71" y="13">Apply as </tspan><tspan x="-19.85" y="26">Direct</tspan><tspan class="f85bbdf4-25ab-48b0-9e40-b80f1b37e3e2" x="8.66" y="26"> </tspan><tspan x="11.12" y="26">Applicant</tspan><tspan x="11.18" y="39">OR</tspan><tspan x="-15.23" y="52">Apply through </tspan><tspan x="-18.38" y="65">another agency </tspan></text><rect class="a2cb0c75-53c5-4b40-9e97-f9d8dddd6bce" x="99.22" y="94.07" width="123.77" height="62.58"/><text class="a64932c2-d78e-408a-8961-2ec51bc6df34" transform="translate(124.75 110.94)">Develop/update <tspan x="-10.26" y="12">needs/financial plan </tspan><tspan x="-13.28" y="25">(apply for 5304 funds </tspan><tspan x="16.3" y="37">to assist)</tspan></text><rect class="a2cb0c75-53c5-4b40-9e97-f9d8dddd6bce" x="265.85" y="94.07" width="123.77" height="62.58"/><text class="a64932c2-d78e-408a-8961-2ec51bc6df34" transform="translate(272.68 110.94)"><tspan class="a178e3fa-afee-4f49-b089-798ac0aa66fd">P</tspan><tspan x="5.4" y="0">articipate in statewide </tspan><tspan x="5.39" y="12">and regional planning </tspan><tspan x="33.11" y="24">processes</tspan><tspan x="12.71" y="37">(MPOs,</tspan><tspan class="ba2a0298-9a02-469b-b490-4d0c77856435" x="44.71" y="37"> </tspan><tspan x="47.54" y="37">TPRs, etc.)</tspan></text><rect class="a2cb0c75-53c5-4b40-9e97-f9d8dddd6bce" x="431.03" y="106.16" width="99.05" height="38.86"/><text class="a64932c2-d78e-408a-8961-2ec51bc6df34" transform="translate(438.16 123.03)">Identify/prioritize <tspan x="22.77" y="12">projects</tspan></text><rect class="a2cb0c75-53c5-4b40-9e97-f9d8dddd6bce" x="573.75" y="106.16" width="103.68" height="37.97"/><text class="a64932c2-d78e-408a-8961-2ec51bc6df34" transform="translate(585.2 122.03)">Discuss proposed <tspan x="-2.24" y="12">projects with DTR</tspan></text><rect class="a2cb0c75-53c5-4b40-9e97-f9d8dddd6bce" x="1534.82" y="86.31" width="117.03" height="37.97"/><text class="a64932c2-d78e-408a-8961-2ec51bc6df34" transform="translate(1547.72 102.18)"><tspan class="a4db0cb8-c1ab-4a85-9989-30916c234beb">W</tspan><tspan x="8.47" y="0">ait for next cycle </tspan><tspan x="-7.12" y="12">Update agency profile</tspan></text><rect class="a2cb0c75-53c5-4b40-9e97-f9d8dddd6bce" x="1030.99" y="275.92" width="126.86" height="44.16"/><text class="a64932c2-d78e-408a-8961-2ec51bc6df34" transform="translate(1036.64 294.77)">Complete New<tspan class="f85bbdf4-25ab-48b0-9e40-b80f1b37e3e2" x="67.88" y="0"> </tspan><tspan x="70.34" y="0">Applicant </tspan><tspan x="24.38" y="12">Questionnaire</tspan></text><rect class="a2cb0c75-53c5-4b40-9e97-f9d8dddd6bce" x="1753.93" y="86.31" width="89.34" height="47.04"/><text class="a64932c2-d78e-408a-8961-2ec51bc6df34" transform="translate(1775.53 100.18)">Complete <tspan x="0.16" y="12">pre-NO</tspan><tspan class="f85bbdf4-25ab-48b0-9e40-b80f1b37e3e2" x="33.38" y="12">FA</tspan><tspan x="44.45" y="12"> </tspan><tspan x="-16.73" y="24">planning process</tspan></text><rect class="a2cb0c75-53c5-4b40-9e97-f9d8dddd6bce" x="1232.78" y="521.1" width="89.34" height="47.04"/><text class="a64932c2-d78e-408a-8961-2ec51bc6df34" transform="translate(1241.54 534.96)"><tspan class="ba2a0298-9a02-469b-b490-4d0c77856435">W</tspan><tspan x="8.66" y="0">ork with new </tspan><tspan x="6.25" y="12">applicant on </tspan><tspan x="5.23" y="24">defficiencies</tspan></text><rect class="a2cb0c75-53c5-4b40-9e97-f9d8dddd6bce" x="911.23" y="517.73" width="101.7" height="52.08"/><text class="a64932c2-d78e-408a-8961-2ec51bc6df34" transform="translate(925.78 536.63)"><tspan class="ba2a0298-9a02-469b-b490-4d0c77856435">W</tspan><tspan x="8.66" y="0">ork with new </tspan><tspan x="-6.32" y="12">applicant to meet </tspan><tspan x="5.64" y="24">requiements</tspan></text><rect class="a2cb0c75-53c5-4b40-9e97-f9d8dddd6bce" x="539.57" y="372.59" width="165.14" height="82.46"/><text class="a64932c2-d78e-408a-8961-2ec51bc6df34" transform="translate(557.79 389.46)">Ad<tspan class="b3549ddb-9cb6-48fc-abec-4c936785f8b7" x="12.14" y="0">v</tspan><tspan x="17.72" y="0">ise/plan to optimize the </tspan><tspan x="-9.52" y="12">project Eligibility Requirements</tspan><tspan x="-9.28" y="29">Assist applicants in determining </tspan><tspan x="-4.03" y="41">best way to apply (directly or </tspan><tspan x="-7.84" y="53">through larger agencies/ MPOs)</tspan></text><polygon class="b3804e72-25f8-4743-8881-868a9db9f4b6" points="2027.31 589.22 18.38 589.22 18.38 68.91 66.92 68.91 2027.31 68.91 2027.31 589.22"/><line class="b3804e72-25f8-4743-8881-868a9db9f4b6" x1="64.85" y1="588.74" x2="64.85" y2="68.96"/><rect class="a2cb0c75-53c5-4b40-9e97-f9d8dddd6bce" x="793.35" y="276.56" width="126.73" height="43.91" rx="21.95"/><text class="a64932c2-d78e-408a-8961-2ec51bc6df34" transform="translate(805.3 296.64)">Coordinate with MPOs <tspan x="9.57" y="12">or larger agencies</tspan></text><rect class="a2cb0c75-53c5-4b40-9e97-f9d8dddd6bce" x="808.11" y="98.5" width="98" height="98" transform="translate(146.75 649.27) rotate(-45)"/><text class="a64932c2-d78e-408a-8961-2ec51bc6df34" transform="translate(1048.34 146.1)">New Subreceipient? <tspan x="29.12" y="13">YES/NO</tspan></text><rect class="a2cb0c75-53c5-4b40-9e97-f9d8dddd6bce" x="1045.73" y="98.5" width="98" height="98" transform="translate(216.34 817.29) rotate(-45)"/><text class="a64932c2-d78e-408a-8961-2ec51bc6df34" transform="translate(1578.01 211.69)">Apply? <tspan x="-1.95" y="13">YES/NO</tspan></text><rect class="a2cb0c75-53c5-4b40-9e97-f9d8dddd6bce" x="1568.16" y="192.57" width="50.35" height="50.35" transform="translate(312.71 1190.43) rotate(-45)"/><rect class="b5e2d4aa-7f80-4c07-b1ea-24f15264235e" x="1347.76" y="401.47" width="31.28" height="17.57" transform="translate(0.61 -2.02) rotate(0.08)"/><text class="afd55808-5806-4016-8085-b445b22d84d9" transform="matrix(1, 0, 0, 1, 1354.87, 412.9)">YES</text><rect class="f21ea85b-6a3b-4bd6-b20b-028b29223c87" x="1263.92" y="476.49" width="26.58" height="17.57" transform="translate(0.72 -1.89) rotate(0.08)"/><text class="afd55808-5806-4016-8085-b445b22d84d9" transform="matrix(1, 0, 0, 1, 1270.33, 487.93)">NO</text><text class="a64932c2-d78e-408a-8961-2ec51bc6df34" transform="matrix(1, 0, 0, 1, 1264.03, 394.45)">Meets <tspan x="-8.67" y="13">threshold </tspan><tspan x="-20.23" y="26">requirements?</tspan><tspan x="-3.66" y="39">YES/NO</tspan></text><rect class="a2cb0c75-53c5-4b40-9e97-f9d8dddd6bce" x="1240.46" y="372.98" width="74.45" height="74.45" transform="translate(83.26 1021.84) rotate(-44.92)"/><rect class="b874cbe6-8272-4975-9c0f-f670f62d1cbb" x="1703.48" y="169.49" width="193.78" height="164.21"/><line class="b874cbe6-8272-4975-9c0f-f670f62d1cbb" x1="1799.3" y1="133.41" x2="1799.3" y2="161.91"/><polygon class="ee975c9d-0823-4942-b15f-a8e4977625d4" points="1795.32 160.74 1799.3 167.65 1803.29 160.74 1795.32 160.74"/><polyline class="a2cb0c75-53c5-4b40-9e97-f9d8dddd6bce" points="960.11 516.45 960.11 295.65 1021.78 295.65"/><polygon class="ee975c9d-0823-4942-b15f-a8e4977625d4" points="1020.03 301.64 1030.39 295.65 1020.03 289.67 1020.03 301.64"/><circle class="a28ceb06-dd5c-46af-8a04-de1d57a42bc9" cx="1965.65" cy="187.39" r="22.5"/><text class="bd47ca22-4afb-444b-880d-f89c18383ddd" transform="translate(1953.34 193.26)">3-4</text></g></svg>