<svg xmlns="http://www.w3.org/2000/svg" viewBox="0 0 1013.04 527.11"><defs><style>.a1ba835b-bee6-4ad7-a2b2-6cf7c37939af,.b73e25af-be11-46a0-b147-df7440a556c3,.bd1174a6-77c0-4cd0-8ff0-d3513d9fb1e1,.bd45ca4a-487b-4c1a-8cec-8adafaf19176,.e15c13f2-4577-4247-98eb-a36829a97398{fill:none;stroke:#646464;stroke-miterlimit:10;}.bd1174a6-77c0-4cd0-8ff0-d3513d9fb1e1{stroke-width:2px;}.b2b5cc38-39d2-4618-8e0a-472f7db0b864,.b7dc43c6-8857-4d86-86ae-9a467d629065,.bc9ec291-a5b6-4641-97ac-fc07ce5877b3,.e227d5a9-7044-4f2f-97f6-b3fd668aab0b{fill:#646464;}.b73e25af-be11-46a0-b147-df7440a556c3,.bd45ca4a-487b-4c1a-8cec-8adafaf19176,.e15c13f2-4577-4247-98eb-a36829a97398{stroke-width:0.5px;}.bd45ca4a-487b-4c1a-8cec-8adafaf19176{stroke-dasharray:4.99 2.99;}.b73e25af-be11-46a0-b147-df7440a556c3{stroke-dasharray:5 3;}.e227d5a9-7044-4f2f-97f6-b3fd668aab0b{font-size:24px;}.b2b5cc38-39d2-4618-8e0a-472f7db0b864,.bc9ec291-a5b6-4641-97ac-fc07ce5877b3,.e227d5a9-7044-4f2f-97f6-b3fd668aab0b{font-family:TrebuchetMS-Bold, Trebuchet MS;font-weight:700;}.b158e41e-d500-4a07-bb60-e3cd1a3004a0{letter-spacing:-0.06em;}.bc9ec291-a5b6-4641-97ac-fc07ce5877b3{font-size:11px;}.b6c7b58a-5b50-4fd2-8401-456ceb6d577c{letter-spacing:-0.1em;}.fa4bc26b-3a82-4a78-a91a-3d403cd178b2{letter-spacing:-0.03em;}.b2b5cc38-39d2-4618-8e0a-472f7db0b864{font-size:10px;}.ba6cc9dd-0755-445b-8f63-fd2d84336016{letter-spacing:0.03em;}.a7d521ca-8029-4568-a7bb-418f5477f224{letter-spacing:-0.02em;}.b4b1e174-7e2f-4880-ae04-99f5c7f4e922{letter-spacing:-0.07em;}.e3874bed-45e6-4c2b-9b6e-a6cafa9bb14d{letter-spacing:-0.09em;}</style></defs><title>CDOT_diagrams_CH3</title><g id="ab99c37d-79da-45f9-b8d3-affed1a304e3" data-name="shapes"><line class="bd1174a6-77c0-4cd0-8ff0-d3513d9fb1e1" x1="234.78" y1="129.14" x2="266.7" y2="129.14"/><polygon class="b7dc43c6-8857-4d86-86ae-9a467d629065" points="264.94 135.12 275.31 129.13 264.94 123.15 264.94 135.12"/><polyline class="bd1174a6-77c0-4cd0-8ff0-d3513d9fb1e1" points="662.27 131.27 749.64 131.27 749.64 249.48"/><polygon class="b7dc43c6-8857-4d86-86ae-9a467d629065" points="743.65 247.73 749.64 258.09 755.62 247.73 743.65 247.73"/><line class="bd1174a6-77c0-4cd0-8ff0-d3513d9fb1e1" x1="537.35" y1="280.59" x2="569.26" y2="280.59"/><polygon class="b7dc43c6-8857-4d86-86ae-9a467d629065" points="567.51 286.57 577.87 280.58 567.51 274.6 567.51 286.57"/><polyline class="bd1174a6-77c0-4cd0-8ff0-d3513d9fb1e1" points="844.88 133.98 816.98 133.98 816.98 281.02 790.23 281.02"/><polygon class="b7dc43c6-8857-4d86-86ae-9a467d629065" points="843.13 128 853.49 133.98 843.13 139.96 843.13 128"/><line class="e15c13f2-4577-4247-98eb-a36829a97398" x1="21.79" y1="218.13" x2="24.29" y2="218.13"/><line class="bd45ca4a-487b-4c1a-8cec-8adafaf19176" x1="27.28" y1="218.13" x2="991.16" y2="218.13"/><line class="e15c13f2-4577-4247-98eb-a36829a97398" x1="992.65" y1="218.13" x2="995.15" y2="218.13"/><line class="e15c13f2-4577-4247-98eb-a36829a97398" x1="18.64" y1="325.92" x2="21.14" y2="325.92"/><line class="bd45ca4a-487b-4c1a-8cec-8adafaf19176" x1="24.14" y1="325.92" x2="988.01" y2="325.92"/><line class="e15c13f2-4577-4247-98eb-a36829a97398" x1="989.51" y1="325.92" x2="992.01" y2="325.92"/><line class="e15c13f2-4577-4247-98eb-a36829a97398" x1="18.23" y1="418.29" x2="20.73" y2="418.29"/><line class="b73e25af-be11-46a0-b147-df7440a556c3" x1="23.73" y1="418.29" x2="991.15" y2="418.29"/><line class="e15c13f2-4577-4247-98eb-a36829a97398" x1="992.65" y1="418.29" x2="995.15" y2="418.29"/><line class="bd1174a6-77c0-4cd0-8ff0-d3513d9fb1e1" x1="620.09" y1="261.63" x2="620.09" y2="166.79"/><polygon class="b7dc43c6-8857-4d86-86ae-9a467d629065" points="626.08 168.54 620.09 158.18 614.11 168.54 626.08 168.54"/><path class="bd1174a6-77c0-4cd0-8ff0-d3513d9fb1e1" d="M855.59,95.92V166s2.68,9.48,52,9.9,50.73-10.52,50.73-10.52V96.13s0-9.69-53.41-9.69C854.14,86.44,855.59,95.92,855.59,95.92Z"/><path class="bd1174a6-77c0-4cd0-8ff0-d3513d9fb1e1" d="M855.59,95.92s-2.27,6.16,23.71,9.08c23.92,2.68,45.92,3.46,61.87-.62,17.73-4.54,17.11-8.25,17.11-8.25"/><path class="bd1174a6-77c0-4cd0-8ff0-d3513d9fb1e1" d="M855.59,101.49s-2.27,6.16,23.71,9.07c23.92,2.68,45.92,3.47,61.87-.61,17.73-4.54,17.11-8.25,17.11-8.25"/><path class="bd1174a6-77c0-4cd0-8ff0-d3513d9fb1e1" d="M855.59,106.44s-2.27,6.16,23.71,9.07c23.92,2.68,45.92,3.46,61.87-.62,17.73-4.53,17.11-8.24,17.11-8.24"/></g><g id="f875813a-4861-44a4-ab34-4e4dfac5e6f1" data-name="text"><text class="e227d5a9-7044-4f2f-97f6-b3fd668aab0b" transform="translate(18.5 35.68)">3-3 DTR<tspan class="b158e41e-d500-4a07-bb60-e3cd1a3004a0" x="88.93" y="0"> </tspan><tspan x="94.84" y="0">Annual Budget</tspan></text><text class="bc9ec291-a5b6-4641-97ac-fc07ce5877b3" transform="translate(42.66 160.41) rotate(-90)">OFMB</text><text class="bc9ec291-a5b6-4641-97ac-fc07ce5877b3" transform="translate(36.78 311.56) rotate(-90)"><tspan class="b6c7b58a-5b50-4fd2-8401-456ceb6d577c">T</tspan><tspan class="fa4bc26b-3a82-4a78-a91a-3d403cd178b2" x="5.6" y="0">r</tspan><tspan x="9.96" y="0">ansportation </tspan><tspan x="7.17" y="13.2">Commission</tspan></text><text class="bc9ec291-a5b6-4641-97ac-fc07ce5877b3" transform="translate(36.78 404.05) rotate(-90)">DTR Director</text><text class="bc9ec291-a5b6-4641-97ac-fc07ce5877b3" transform="translate(36.78 491.2) rotate(-90)">DTR Units</text><rect class="bd1174a6-77c0-4cd0-8ff0-d3513d9fb1e1" x="105.29" y="102.18" width="129.73" height="52.98" rx="25.44"/><text class="b2b5cc38-39d2-4618-8e0a-472f7db0b864" transform="translate(120.85 125.34)">Pro<tspan class="ba6cc9dd-0755-445b-8f63-fd2d84336016" x="15.8" y="0">v</tspan><tspan x="21.39" y="0">ide current year </tspan><tspan x="-3.49" y="12">plan and expenditures</tspan></text><text class="b2b5cc38-39d2-4618-8e0a-472f7db0b864" transform="translate(291.32 112.97)">Re<tspan class="ba6cc9dd-0755-445b-8f63-fd2d84336016" x="11.86" y="0">v</tspan><tspan x="17.44" y="0">ise and submit d</tspan><tspan class="fa4bc26b-3a82-4a78-a91a-3d403cd178b2" x="93.93" y="0">r</tspan><tspan x="97.89" y="0">aft </tspan><tspan x="-2.5" y="12">budget to</tspan><tspan class="a7d521ca-8029-4568-a7bb-418f5477f224" x="42.4" y="12"> </tspan><tspan class="b6c7b58a-5b50-4fd2-8401-456ceb6d577c" x="45.23" y="12">T</tspan><tspan class="fa4bc26b-3a82-4a78-a91a-3d403cd178b2" x="50.32" y="12">r</tspan><tspan x="54.28" y="12">ansportation </tspan><tspan x="-9.03" y="24">Commission and Governor</tspan><tspan class="b4b1e174-7e2f-4880-ae04-99f5c7f4e922" x="112.64" y="24">’</tspan><tspan x="115.61" y="24">s </tspan><tspan x="17.6" y="36">Office (Aug-Oct)</tspan></text><rect class="bd1174a6-77c0-4cd0-8ff0-d3513d9fb1e1" x="423.16" y="255.66" width="114.24" height="50.59"/><text class="b2b5cc38-39d2-4618-8e0a-472f7db0b864" transform="translate(436.57 272.53)">Re<tspan class="ba6cc9dd-0755-445b-8f63-fd2d84336016" x="11.86" y="0">v</tspan><tspan x="17.44" y="0">iew budget and </tspan><tspan x="-3.93" y="12">set allocations based </tspan><tspan x="4.34" y="24">on current policy</tspan></text><rect class="bd1174a6-77c0-4cd0-8ff0-d3513d9fb1e1" x="122.63" y="342.43" width="143.37" height="55.47"/><text class="b2b5cc38-39d2-4618-8e0a-472f7db0b864" transform="translate(133.33 359.3)">Re<tspan class="ba6cc9dd-0755-445b-8f63-fd2d84336016" x="11.86" y="0">v</tspan><tspan x="17.44" y="0">iew and pro</tspan><tspan class="ba6cc9dd-0755-445b-8f63-fd2d84336016" x="72.83" y="0">v</tspan><tspan x="78.41" y="0">ide input:</tspan><tspan x="13.7" y="13">New funding sources </tspan><tspan x="25.52" y="26">New employees</tspan></text><rect class="bd1174a6-77c0-4cd0-8ff0-d3513d9fb1e1" x="122.63" y="437.24" width="143.37" height="55.47"/><text class="b2b5cc38-39d2-4618-8e0a-472f7db0b864" transform="translate(133.33 454.1)">Re<tspan class="ba6cc9dd-0755-445b-8f63-fd2d84336016" x="11.86" y="0">v</tspan><tspan x="17.44" y="0">iew and pro</tspan><tspan class="ba6cc9dd-0755-445b-8f63-fd2d84336016" x="72.83" y="0">v</tspan><tspan x="78.41" y="0">ide input: </tspan><tspan x="32.36" y="12">Cost analysis</tspan><tspan x="18.39" y="25">DTR </tspan><tspan class="a7d521ca-8029-4568-a7bb-418f5477f224" x="40.05" y="25">W</tspan><tspan x="48.71" y="25">ork Prog</tspan><tspan class="fa4bc26b-3a82-4a78-a91a-3d403cd178b2" x="87.95" y="25">r</tspan><tspan x="91.91" y="25">am</tspan></text><polygon class="a1ba835b-bee6-4ad7-a2b2-6cf7c37939af" points="995.2 507.77 18.33 507.77 18.33 68.91 41.94 68.91 995.2 68.91 995.2 507.77"/><line class="a1ba835b-bee6-4ad7-a2b2-6cf7c37939af" x1="64.85" y1="507.37" x2="64.85" y2="68.95"/><path class="bd1174a6-77c0-4cd0-8ff0-d3513d9fb1e1" d="M278.55,169.48a83.82,83.82,0,0,0,8,3.24h0A81.48,81.48,0,0,0,313,177.44h0a59.25,59.25,0,0,0,32.62-9.35h0a62,62,0,0,1,34.14-9.68h0c17,0,31.41,5.83,37,8.41h0V98.68H276.52v69.81c.49.24,1.17.59,2,1Z"/><text class="b2b5cc38-39d2-4618-8e0a-472f7db0b864" transform="translate(587.84 274.97)">Return budget <tspan x="14.14" y="12">to OFMB</tspan></text><path class="bd1174a6-77c0-4cd0-8ff0-d3513d9fb1e1" d="M581.27,301.88a50.17,50.17,0,0,0,4.65,1.89h0a47.61,47.61,0,0,0,15.43,2.74h0a34.49,34.49,0,0,0,19-5.44h0a36,36,0,0,1,19.87-5.63h0a53.37,53.37,0,0,1,21.51,4.89h0V260.68H580.09V301.3c.28.15.68.34,1.18.58Z"/><text class="b2b5cc38-39d2-4618-8e0a-472f7db0b864" transform="translate(308.49 356.38)">Pro<tspan class="ba6cc9dd-0755-445b-8f63-fd2d84336016" x="15.8" y="0">v</tspan><tspan x="21.39" y="0">ide re</tspan><tspan class="ba6cc9dd-0755-445b-8f63-fd2d84336016" x="48.96" y="0">v</tspan><tspan x="54.54" y="0">isions </tspan><tspan x="20.89" y="12">to OFMB</tspan></text><path class="bd1174a6-77c0-4cd0-8ff0-d3513d9fb1e1" d="M304.66,383.29c1.24.52,3,1.2,5.28,1.89h0a60.43,60.43,0,0,0,17.53,2.75h0A43.21,43.21,0,0,0,349,382.48h0a45.29,45.29,0,0,1,22.57-5.63h0A67.71,67.71,0,0,1,396,381.74h0V342.09H303.33v40.63c.31.14.76.34,1.33.57Z"/><text class="b2b5cc38-39d2-4618-8e0a-472f7db0b864" transform="translate(713.13 274.97)">Approve budget <tspan x="22.25" y="12">(April)</tspan></text><path class="bd1174a6-77c0-4cd0-8ff0-d3513d9fb1e1" d="M710.07,301.88a50.17,50.17,0,0,0,4.65,1.89h0a47.6,47.6,0,0,0,15.42,2.74h0a34.5,34.5,0,0,0,19-5.44h0A36,36,0,0,1,769,295.44h0a53.41,53.41,0,0,1,21.51,4.89h0V260.68H708.89V301.3c.28.15.68.34,1.18.58Z"/><text class="b2b5cc38-39d2-4618-8e0a-472f7db0b864" transform="translate(585.29 126.62)">Finalize budget <tspan x="13.83" y="12">(Jan-Mar)</tspan></text><text class="b2b5cc38-39d2-4618-8e0a-472f7db0b864" transform="translate(874.28 130.11)">“Push” budget<tspan x="-0.21" y="12">Set up F</tspan><tspan class="e3874bed-45e6-4c2b-9b6e-a6cafa9bb14d" x="38.21" y="12">T</tspan><tspan class="b158e41e-d500-4a07-bb60-e3cd1a3004a0" x="43.38" y="12">A</tspan><tspan x="49.16" y="12" xml:space="preserve"> and </tspan><tspan class="b158e41e-d500-4a07-bb60-e3cd1a3004a0" x="-4.98" y="24">F</tspan><tspan x="0.31" y="24">ASTER accounts </tspan><tspan x="-2.11" y="36">(SAP) (Apr-May)</tspan></text><path class="bd1174a6-77c0-4cd0-8ff0-d3513d9fb1e1" d="M581.27,153.54a47.88,47.88,0,0,0,4.65,1.88h0a47.33,47.33,0,0,0,15.43,2.75h0a34.49,34.49,0,0,0,19-5.44h0a36.14,36.14,0,0,1,19.87-5.64h0a53.5,53.5,0,0,1,21.51,4.9h0V112.33H580.09V153l1.18.58Z"/><polyline class="bd1174a6-77c0-4cd0-8ff0-d3513d9fb1e1" points="105.29 127.63 79.08 127.63 79.08 466.72 110.87 466.72"/><polygon class="b7dc43c6-8857-4d86-86ae-9a467d629065" points="109.11 472.71 119.48 466.72 109.11 460.74 109.11 472.71"/><polyline class="bd1174a6-77c0-4cd0-8ff0-d3513d9fb1e1" points="417.25 131.16 480.45 131.16 480.45 244.39"/><polygon class="b7dc43c6-8857-4d86-86ae-9a467d629065" points="474.47 242.64 480.45 253 486.44 242.64 474.47 242.64"/><line class="bd1174a6-77c0-4cd0-8ff0-d3513d9fb1e1" x1="112.17" y1="368.93" x2="78.39" y2="368.93"/><polygon class="b7dc43c6-8857-4d86-86ae-9a467d629065" points="110.42 362.94 120.78 368.93 110.42 374.91 110.42 362.94"/><line class="bd1174a6-77c0-4cd0-8ff0-d3513d9fb1e1" x1="292.01" y1="368.93" x2="265.39" y2="368.93"/><polygon class="b7dc43c6-8857-4d86-86ae-9a467d629065" points="290.25 362.94 300.62 368.93 290.25 374.91 290.25 362.94"/><line class="bd1174a6-77c0-4cd0-8ff0-d3513d9fb1e1" x1="345.58" y1="342.27" x2="345.58" y2="182.12"/><polygon class="b7dc43c6-8857-4d86-86ae-9a467d629065" points="351.56 183.87 345.58 173.51 339.59 183.87 351.56 183.87"/><line class="bd1174a6-77c0-4cd0-8ff0-d3513d9fb1e1" x1="191.8" y1="438.05" x2="191.8" y2="408.57"/><polygon class="b7dc43c6-8857-4d86-86ae-9a467d629065" points="197.79 410.32 191.8 399.96 185.82 410.32 197.79 410.32"/></g></svg>