<svg xmlns="http://www.w3.org/2000/svg" viewBox="0 0 1371.41 654.07"><defs><style>.a298ac48-362c-40e1-a720-c161d6f23ec6,.ba8f69e9-7ab6-43f0-bc37-f741ea20ecc9,.f75bc9c4-844d-4b21-9ceb-bf0a980e3a08,.fc1e6d2d-757d-458b-9b4e-bc6e274f5b9c{fill:none;}.a298ac48-362c-40e1-a720-c161d6f23ec6,.b8c747b8-b11d-4565-9ffd-89a435460eed,.ba8f69e9-7ab6-43f0-bc37-f741ea20ecc9,.f75bc9c4-844d-4b21-9ceb-bf0a980e3a08,.fc1e6d2d-757d-458b-9b4e-bc6e274f5b9c{stroke:#646464;}.a298ac48-362c-40e1-a720-c161d6f23ec6{stroke-linejoin:round;}.a298ac48-362c-40e1-a720-c161d6f23ec6,.b8c747b8-b11d-4565-9ffd-89a435460eed,.ba8f69e9-7ab6-43f0-bc37-f741ea20ecc9{stroke-width:2px;}.b8c747b8-b11d-4565-9ffd-89a435460eed,.ba8f69e9-7ab6-43f0-bc37-f741ea20ecc9,.f75bc9c4-844d-4b21-9ceb-bf0a980e3a08,.fc1e6d2d-757d-458b-9b4e-bc6e274f5b9c{stroke-miterlimit:10;}.b6a60e61-258b-454d-9d36-9edbd1841967,.f62ad5a3-9dd2-42c4-8fad-5f2975a5903f{font-size:10px;}.b346b6cd-9f97-4d86-95dc-ebb159a1bc54,.b97ac1f5-1802-4357-9c13-606c2e01358b,.ee2130b5-655e-451d-9c31-2193fefcf451,.f62ad5a3-9dd2-42c4-8fad-5f2975a5903f{fill:#646464;}.b346b6cd-9f97-4d86-95dc-ebb159a1bc54,.b6a60e61-258b-454d-9d36-9edbd1841967,.b97ac1f5-1802-4357-9c13-606c2e01358b,.bf4ff7c3-c50d-44a5-a0c9-175b915af883,.f62ad5a3-9dd2-42c4-8fad-5f2975a5903f{font-family:TrebuchetMS-Bold, Trebuchet MS;font-weight:700;}.b346b6cd-9f97-4d86-95dc-ebb159a1bc54{font-size:24px;}.ae8330a4-0c71-443d-8efd-af00070b79ab{letter-spacing:-0.09em;}.f8ee673c-f0d4-44ac-8793-a4395f8701ba{letter-spacing:-0.06em;}.f01eaf99-3168-4938-8f1d-495d5e425009{letter-spacing:-0.03em;}.f12a0a15-29aa-4f5d-baa7-dcb58a48f188{letter-spacing:-0.02em;}.a8a84162-542e-4d70-b0c2-24ba8109c145,.b8c747b8-b11d-4565-9ffd-89a435460eed{fill:#009add;}.bf4ff7c3-c50d-44a5-a0c9-175b915af883{font-size:16px;}.b6a60e61-258b-454d-9d36-9edbd1841967,.bf4ff7c3-c50d-44a5-a0c9-175b915af883{fill:#fff;}.b97ac1f5-1802-4357-9c13-606c2e01358b{font-size:11px;}.f75bc9c4-844d-4b21-9ceb-bf0a980e3a08{stroke-width:0.5px;stroke-dasharray:5 3;}.b93949fb-6190-4404-bc1d-6c2179d7d118{letter-spacing:0.03em;}.b089cc3a-de05-470a-8dd1-8f810ede879a{letter-spacing:-0.09em;}.e0c642e7-9084-4d13-a983-2d793cb373af{fill:#d23138;}.fdfd9805-b91c-4305-86b2-ead735894b7f{fill:#3eaf49;}</style></defs><title>CDOT_diagrams_CH3</title><g id="a3ee7f0d-b3c9-498f-8874-cf06320d6dd0" data-name="shapes"><path class="a298ac48-362c-40e1-a720-c161d6f23ec6" d="M904.67,424.25s-9.39,12.78-9.39,25.61S904,475.35,904,475.35"/><path class="ba8f69e9-7ab6-43f0-bc37-f741ea20ecc9" d="M822.5,475.35s-8.75-12.67-8.75-25.49,8.75-26.26,8.75-26.26h81.87s8.75,12.67,8.75,25.49-8.75,26.26-8.75,26.26Z"/><path class="a298ac48-362c-40e1-a720-c161d6f23ec6" d="M1050.25,424.25s-9.39,12.78-9.39,25.61,8.75,25.49,8.75,25.49"/><path class="ba8f69e9-7ab6-43f0-bc37-f741ea20ecc9" d="M968.08,475.35s-8.74-12.67-8.74-25.49,8.74-26.26,8.74-26.26H1050s8.75,12.67,8.75,25.49-8.75,26.26-8.75,26.26Z"/><path class="a298ac48-362c-40e1-a720-c161d6f23ec6" d="M1194.8,424.25s-9.39,12.78-9.39,25.61,8.74,25.49,8.74,25.49"/><path class="ba8f69e9-7ab6-43f0-bc37-f741ea20ecc9" d="M1112.63,475.35s-8.75-12.67-8.75-25.49,8.75-26.26,8.75-26.26h81.87s8.74,12.67,8.74,25.49-8.74,26.26-8.74,26.26Z"/></g><g id="a61ac711-2b14-4ddc-b353-df785e642012" data-name="text"><text class="f62ad5a3-9dd2-42c4-8fad-5f2975a5903f" transform="translate(846.57 440.95)">Build <tspan x="-20.5" y="12">“Application”</tspan><tspan x="-14.01" y="24">(COTRAMS)</tspan></text><polygon class="fc1e6d2d-757d-458b-9b4e-bc6e274f5b9c" points="1353.58 637.36 19.85 637.36 19.85 69.12 52.08 69.12 1353.58 69.12 1353.58 637.36"/><text class="b346b6cd-9f97-4d86-95dc-ebb159a1bc54" transform="translate(18.5 35.72)">3-18 F<tspan class="ae8330a4-0c71-443d-8efd-af00070b79ab" x="72.23" y="0">T</tspan><tspan class="f8ee673c-f0d4-44ac-8793-a4395f8701ba" x="84.64" y="0">A</tspan><tspan x="98.52" y="0" xml:space="preserve"> Discretionary G</tspan><tspan class="f01eaf99-3168-4938-8f1d-495d5e425009" x="278.61" y="0">r</tspan><tspan x="288.12" y="0">ant</tspan><tspan class="f8ee673c-f0d4-44ac-8793-a4395f8701ba" x="324.59" y="0"> </tspan><tspan x="330.49" y="0">Application and</tspan><tspan class="f8ee673c-f0d4-44ac-8793-a4395f8701ba" x="505.5" y="0"> </tspan><tspan class="f12a0a15-29aa-4f5d-baa7-dcb58a48f188" x="511.41" y="0">A</tspan><tspan x="526.17" y="0">ward</tspan></text><line class="fc1e6d2d-757d-458b-9b4e-bc6e274f5b9c" x1="64.85" y1="638.09" x2="64.85" y2="69"/><circle class="a8a84162-542e-4d70-b0c2-24ba8109c145" cx="1293.93" cy="367.33" r="22.5"/><text class="bf4ff7c3-c50d-44a5-a0c9-175b915af883" transform="translate(1276.93 373.4)">3-13</text><text class="b97ac1f5-1802-4357-9c13-606c2e01358b" transform="translate(44.66 470.62) rotate(-90)">DTR Prog<tspan class="f01eaf99-3168-4938-8f1d-495d5e425009" x="46.73" y="0">r</tspan><tspan x="51.09" y="0">amming Unit</tspan></text><text class="b97ac1f5-1802-4357-9c13-606c2e01358b" transform="translate(44.66 571.06) rotate(-90)">F<tspan class="ae8330a4-0c71-443d-8efd-af00070b79ab" x="6.42" y="0">T</tspan><tspan class="f8ee673c-f0d4-44ac-8793-a4395f8701ba" x="12.11" y="0">A</tspan></text><text class="b97ac1f5-1802-4357-9c13-606c2e01358b" transform="translate(39.13 293.77) rotate(-90)">DTR Project<tspan x="-14.81" y="13.2">Coordination Unit</tspan></text><text class="b97ac1f5-1802-4357-9c13-606c2e01358b" transform="translate(44.66 154.45) rotate(-90)">Applicant</text><line class="f75bc9c4-844d-4b21-9ceb-bf0a980e3a08" x1="1353.02" y1="189.73" x2="19.81" y2="189.73"/><line class="f75bc9c4-844d-4b21-9ceb-bf0a980e3a08" x1="1353.02" y1="335.36" x2="19.81" y2="335.36"/><line class="f75bc9c4-844d-4b21-9ceb-bf0a980e3a08" x1="1353.02" y1="487.55" x2="19.81" y2="487.55"/><rect class="ba8f69e9-7ab6-43f0-bc37-f741ea20ecc9" x="94.32" y="108.34" width="79.99" height="49.24"/><text class="f62ad5a3-9dd2-42c4-8fad-5f2975a5903f" transform="translate(101.96 127.73)">Prepare G<tspan class="f01eaf99-3168-4938-8f1d-495d5e425009" x="46.79" y="0">r</tspan><tspan x="50.75" y="0">ant </tspan><tspan x="6.54" y="12">Application</tspan></text><rect class="ba8f69e9-7ab6-43f0-bc37-f741ea20ecc9" x="89.9" y="238.37" width="88.83" height="58.38"/><text class="f62ad5a3-9dd2-42c4-8fad-5f2975a5903f" transform="translate(117.44 252.87)">Pro<tspan class="b93949fb-6190-4404-bc1d-6c2179d7d118" x="15.8" y="0">v</tspan><tspan x="21.39" y="0">ide </tspan><tspan x="-7.97" y="12">application </tspan><tspan x="-9.94" y="24">support and </tspan><tspan x="3.64" y="36">re</tspan><tspan class="b93949fb-6190-4404-bc1d-6c2179d7d118" x="13.66" y="36">v</tspan><tspan x="19.25" y="36">ise</tspan></text><rect class="ba8f69e9-7ab6-43f0-bc37-f741ea20ecc9" x="232.55" y="238.37" width="88.83" height="58.38"/><text class="f62ad5a3-9dd2-42c4-8fad-5f2975a5903f" transform="translate(240.82 258.56)">Consolidate and <tspan x="14.16" y="12">submit on </tspan><tspan x="12.34" y="24">G</tspan><tspan class="f01eaf99-3168-4938-8f1d-495d5e425009" x="19.05" y="24">r</tspan><tspan x="23.01" y="24">ants.gov</tspan></text><rect class="ba8f69e9-7ab6-43f0-bc37-f741ea20ecc9" x="410.97" y="104.66" width="88.83" height="58.38"/><text class="f62ad5a3-9dd2-42c4-8fad-5f2975a5903f" transform="translate(439.2 120.08)">Submit <tspan x="-9.74" y="12">application </tspan><tspan x="-9.19" y="24">directly on </tspan><tspan x="-8.71" y="36">G</tspan><tspan class="f01eaf99-3168-4938-8f1d-495d5e425009" x="-2" y="36">r</tspan><tspan x="1.96" y="36">ants.gov</tspan></text><line class="ba8f69e9-7ab6-43f0-bc37-f741ea20ecc9" x1="174.31" y1="133.39" x2="227.9" y2="133.39"/><polygon class="ee2130b5-655e-451d-9c31-2193fefcf451" points="226.15 139.38 236.51 133.39 226.15 127.41 226.15 139.38"/><line class="ba8f69e9-7ab6-43f0-bc37-f741ea20ecc9" x1="179.59" y1="266.73" x2="221.24" y2="266.73"/><polygon class="ee2130b5-655e-451d-9c31-2193fefcf451" points="219.49 272.71 229.85 266.73 219.49 260.75 219.49 272.71"/><line class="ba8f69e9-7ab6-43f0-bc37-f741ea20ecc9" x1="134.45" y1="166.21" x2="134.45" y2="227.37"/><polygon class="ee2130b5-655e-451d-9c31-2193fefcf451" points="128.47 167.96 134.45 157.59 140.43 167.96 128.47 167.96"/><polygon class="ee2130b5-655e-451d-9c31-2193fefcf451" points="128.47 225.62 134.45 235.99 140.43 225.62 128.47 225.62"/><line class="ba8f69e9-7ab6-43f0-bc37-f741ea20ecc9" x1="713.05" y1="172.07" x2="713.05" y2="416.41"/><polygon class="ee2130b5-655e-451d-9c31-2193fefcf451" points="707.07 173.82 713.05 163.46 719.04 173.82 707.07 173.82"/><polygon class="ee2130b5-655e-451d-9c31-2193fefcf451" points="707.07 414.66 713.05 425.02 719.04 414.66 707.07 414.66"/><line class="ba8f69e9-7ab6-43f0-bc37-f741ea20ecc9" x1="278.31" y1="164.35" x2="278.31" y2="227.05"/><polygon class="ee2130b5-655e-451d-9c31-2193fefcf451" points="272.32 225.29 278.31 235.66 284.29 225.29 272.32 225.29"/><line class="ba8f69e9-7ab6-43f0-bc37-f741ea20ecc9" x1="278.31" y1="296.99" x2="278.31" y2="527.92"/><polygon class="ee2130b5-655e-451d-9c31-2193fefcf451" points="272.32 526.16 278.31 536.53 284.29 526.16 272.32 526.16"/><line class="ba8f69e9-7ab6-43f0-bc37-f741ea20ecc9" x1="582.27" y1="178.49" x2="582.27" y2="540.35"/><polygon class="ee2130b5-655e-451d-9c31-2193fefcf451" points="576.29 180.24 582.27 169.88 588.25 180.24 576.29 180.24"/><line class="ba8f69e9-7ab6-43f0-bc37-f741ea20ecc9" x1="866.69" y1="400.33" x2="866.69" y2="423.88"/><polygon class="ee2130b5-655e-451d-9c31-2193fefcf451" points="860.7 402.08 866.69 391.72 872.67 402.08 860.7 402.08"/><line class="ba8f69e9-7ab6-43f0-bc37-f741ea20ecc9" x1="1294.33" y1="400.33" x2="1294.33" y2="423.88"/><polygon class="ee2130b5-655e-451d-9c31-2193fefcf451" points="1288.35 402.08 1294.33 391.72 1300.32 402.08 1288.35 402.08"/><line class="ba8f69e9-7ab6-43f0-bc37-f741ea20ecc9" x1="318.54" y1="134.05" x2="400.47" y2="134.05"/><polygon class="ee2130b5-655e-451d-9c31-2193fefcf451" points="398.72 140.03 409.09 134.04 398.72 128.06 398.72 140.03"/><rect class="ba8f69e9-7ab6-43f0-bc37-f741ea20ecc9" x="667.04" y="104.66" width="88.83" height="58.38"/><text class="f62ad5a3-9dd2-42c4-8fad-5f2975a5903f" transform="translate(688.1 122.08)"><tspan class="f12a0a15-29aa-4f5d-baa7-dcb58a48f188">W</tspan><tspan x="8.66" y="0">ork with </tspan><tspan x="-8.2" y="12">DTR to define </tspan><tspan x="-9.56" y="24">Scope of </tspan><tspan class="f12a0a15-29aa-4f5d-baa7-dcb58a48f188" x="33.28" y="24">W</tspan><tspan x="41.94" y="24">ork</tspan></text><rect class="ba8f69e9-7ab6-43f0-bc37-f741ea20ecc9" x="667.04" y="427.14" width="88.83" height="45.73"/><text class="f62ad5a3-9dd2-42c4-8fad-5f2975a5903f" transform="translate(689.45 444.61)">Negotiate <tspan x="-10.91" y="12">Scope of </tspan><tspan class="f12a0a15-29aa-4f5d-baa7-dcb58a48f188" x="31.93" y="12">W</tspan><tspan x="40.59" y="12">ork</tspan></text><rect class="b8c747b8-b11d-4565-9ffd-89a435460eed" x="1249.56" y="422.13" width="88.83" height="54.39"/><text class="b6a60e61-258b-454d-9d36-9edbd1841967" transform="translate(1266.08 439.4)">Prepare F<tspan class="ae8330a4-0c71-443d-8efd-af00070b79ab" x="45.91" y="0">T</tspan><tspan class="f8ee673c-f0d4-44ac-8793-a4395f8701ba" x="51.08" y="0">A</tspan><tspan x="56.86" y="0"> </tspan><tspan class="f12a0a15-29aa-4f5d-baa7-dcb58a48f188" x="13.73" y="12">A</tspan><tspan x="19.89" y="12">ward </tspan><tspan x="1.99" y="24">Application</tspan></text><rect class="ba8f69e9-7ab6-43f0-bc37-f741ea20ecc9" x="822.45" y="345.04" width="88.83" height="45.73"/><text class="f62ad5a3-9dd2-42c4-8fad-5f2975a5903f" transform="translate(840.19 362.51)">Send<tspan class="f8ee673c-f0d4-44ac-8793-a4395f8701ba" x="22.57" y="0"> </tspan><tspan class="f12a0a15-29aa-4f5d-baa7-dcb58a48f188" x="25.03" y="0">A</tspan><tspan x="31.18" y="0">ward</tspan><tspan x="13.89" y="12">letter</tspan></text><rect class="ba8f69e9-7ab6-43f0-bc37-f741ea20ecc9" x="1001.74" y="111.34" width="88.83" height="45.73"/><text class="f62ad5a3-9dd2-42c4-8fad-5f2975a5903f" transform="translate(1021.71 136.58)">Notify DTR</text><rect class="ba8f69e9-7ab6-43f0-bc37-f741ea20ecc9" x="985.29" y="240.13" width="121.74" height="62.67"/><text class="f62ad5a3-9dd2-42c4-8fad-5f2975a5903f" transform="translate(996.32 256.93)">Host Kick-off Meeting <tspan x="0.99" y="12">with Business Office, </tspan><tspan x="5.82" y="24">Phil, CRBRC, Other </tspan><tspan x="38.07" y="36">Units</tspan></text><line class="ba8f69e9-7ab6-43f0-bc37-f741ea20ecc9" x1="614.91" y1="134.05" x2="656.55" y2="134.05"/><polygon class="ee2130b5-655e-451d-9c31-2193fefcf451" points="654.8 140.03 665.16 134.04 654.8 128.06 654.8 140.03"/><text class="f62ad5a3-9dd2-42c4-8fad-5f2975a5903f" transform="translate(263.99 123.75)">Direct <tspan x="-9.55" y="13">applicant? </tspan><tspan class="b089cc3a-de05-470a-8dd1-8f810ede879a" x="-1.5" y="25">Y</tspan><tspan x="3.72" y="25">es/No</tspan></text><text class="f62ad5a3-9dd2-42c4-8fad-5f2975a5903f" transform="translate(563.7 123.75)"><tspan class="f12a0a15-29aa-4f5d-baa7-dcb58a48f188">W</tspan><tspan x="8.66" y="0">orking </tspan><tspan x="0.9" y="13">directly </tspan><tspan x="-3.74" y="26">with F</tspan><tspan class="ae8330a4-0c71-443d-8efd-af00070b79ab" x="25.83" y="26">T</tspan><tspan x="31" y="26">A?</tspan></text><polygon class="ba8f69e9-7ab6-43f0-bc37-f741ea20ecc9" points="239.03 133.95 278.6 103.56 318.16 133.95 278.6 164.35 239.03 133.95"/><line class="ba8f69e9-7ab6-43f0-bc37-f741ea20ecc9" x1="1047.54" y1="157.27" x2="1047.54" y2="229.04"/><polygon class="ee2130b5-655e-451d-9c31-2193fefcf451" points="1041.56 227.29 1047.54 237.65 1053.52 227.29 1041.56 227.29"/><text class="f62ad5a3-9dd2-42c4-8fad-5f2975a5903f" transform="translate(851.58 122.43)">Accept <tspan class="f12a0a15-29aa-4f5d-baa7-dcb58a48f188" x="-15.66" y="13">A</tspan><tspan x="-9.51" y="13">ward letter? </tspan><tspan class="b089cc3a-de05-470a-8dd1-8f810ede879a" x="0.3" y="26">Y</tspan><tspan x="5.52" y="26">es/No</tspan></text><polygon class="ba8f69e9-7ab6-43f0-bc37-f741ea20ecc9" points="825.72 133.88 867.98 101.43 910.23 133.88 867.98 166.35 825.72 133.88"/><text class="f62ad5a3-9dd2-42c4-8fad-5f2975a5903f" transform="translate(567.52 559.52)">Direct <tspan x="-9.21" y="13">recipient? </tspan><tspan class="b089cc3a-de05-470a-8dd1-8f810ede879a" x="-1.5" y="25">Y</tspan><tspan x="3.72" y="25">es/No</tspan></text><polygon class="ba8f69e9-7ab6-43f0-bc37-f741ea20ecc9" points="542.56 569.72 582.12 539.33 621.69 569.72 582.12 600.11 542.56 569.72"/><text class="f62ad5a3-9dd2-42c4-8fad-5f2975a5903f" transform="translate(263.55 558.52)"><tspan class="f12a0a15-29aa-4f5d-baa7-dcb58a48f188">A</tspan><tspan x="6.15" y="0">ward </tspan><tspan x="0.42" y="13">g</tspan><tspan class="f01eaf99-3168-4938-8f1d-495d5e425009" x="5.44" y="13">r</tspan><tspan x="9.4" y="13">ant? </tspan><tspan class="b089cc3a-de05-470a-8dd1-8f810ede879a" x="-1.05" y="26">Y</tspan><tspan x="4.16" y="26">es/No</tspan></text><polygon class="ba8f69e9-7ab6-43f0-bc37-f741ea20ecc9" points="239.03 569.72 278.6 539.33 318.16 569.72 278.6 600.11 239.03 569.72"/><rect class="e0c642e7-9084-4d13-a983-2d793cb373af" x="264.93" y="181.35" width="26.58" height="17.57"/><text class="b6a60e61-258b-454d-9d36-9edbd1841967" transform="translate(271.4 192.88)">NO</text><rect class="fdfd9805-b91c-4305-86b2-ead735894b7f" x="347.36" y="124.94" width="31.28" height="17.57"/><text class="b6a60e61-258b-454d-9d36-9edbd1841967" transform="translate(354.53 136.47)">YES</text><line class="ba8f69e9-7ab6-43f0-bc37-f741ea20ecc9" x1="910.05" y1="133.04" x2="991.99" y2="133.04"/><polygon class="ee2130b5-655e-451d-9c31-2193fefcf451" points="990.24 139.03 1000.6 133.04 990.24 127.06 990.24 139.03"/><rect class="fdfd9805-b91c-4305-86b2-ead735894b7f" x="938.87" y="123.94" width="31.28" height="17.57"/><text class="b6a60e61-258b-454d-9d36-9edbd1841967" transform="translate(946.05 135.47)">YES</text><line class="ba8f69e9-7ab6-43f0-bc37-f741ea20ecc9" x1="318.16" y1="569.95" x2="535.05" y2="569.95"/><polygon class="ee2130b5-655e-451d-9c31-2193fefcf451" points="533.3 575.94 543.66 569.95 533.3 563.97 533.3 575.94"/><line class="ba8f69e9-7ab6-43f0-bc37-f741ea20ecc9" x1="756.13" y1="449.77" x2="801.2" y2="449.77"/><polygon class="ee2130b5-655e-451d-9c31-2193fefcf451" points="799.45 455.76 809.81 449.77 799.45 443.79 799.45 455.76"/><text class="f62ad5a3-9dd2-42c4-8fad-5f2975a5903f" transform="translate(976.23 446.49)">Build<tspan class="f8ee673c-f0d4-44ac-8793-a4395f8701ba" x="23.6" y="0"> </tspan><tspan class="f12a0a15-29aa-4f5d-baa7-dcb58a48f188" x="26.06" y="0">A</tspan><tspan x="32.21" y="0">ward</tspan><tspan x="1.92" y="12">(COTRAMS)</tspan></text><line class="ba8f69e9-7ab6-43f0-bc37-f741ea20ecc9" x1="903.71" y1="449.77" x2="948.79" y2="449.77"/><polygon class="ee2130b5-655e-451d-9c31-2193fefcf451" points="947.03 455.76 957.4 449.77 947.03 443.79 947.03 455.76"/><text class="f62ad5a3-9dd2-42c4-8fad-5f2975a5903f" transform="translate(1118.99 446.49)">Build Budget<tspan x="3.7" y="12">(COTRAMS)</tspan></text><line class="ba8f69e9-7ab6-43f0-bc37-f741ea20ecc9" x1="1048.26" y1="449.77" x2="1093.33" y2="449.77"/><polygon class="ee2130b5-655e-451d-9c31-2193fefcf451" points="1091.58 455.76 1101.94 449.77 1091.58 443.79 1091.58 455.76"/><line class="ba8f69e9-7ab6-43f0-bc37-f741ea20ecc9" x1="1193.56" y1="449.77" x2="1238.63" y2="449.77"/><polygon class="ee2130b5-655e-451d-9c31-2193fefcf451" points="1236.88 455.76 1247.25 449.77 1236.88 443.79 1236.88 455.76"/><rect class="fdfd9805-b91c-4305-86b2-ead735894b7f" x="414.64" y="560.85" width="31.28" height="17.57"/><text class="b6a60e61-258b-454d-9d36-9edbd1841967" transform="translate(421.82 572.38)">YES</text><rect class="fdfd9805-b91c-4305-86b2-ead735894b7f" x="568.09" y="367.31" width="31.28" height="17.57"/><text class="b6a60e61-258b-454d-9d36-9edbd1841967" transform="translate(575.26 378.84)">YES</text><polyline class="ba8f69e9-7ab6-43f0-bc37-f741ea20ecc9" points="239.03 569.72 137.07 569.72 137.07 306.57"/><polygon class="ee2130b5-655e-451d-9c31-2193fefcf451" points="143.05 308.33 137.07 297.96 131.09 308.33 143.05 308.33"/><rect class="e0c642e7-9084-4d13-a983-2d793cb373af" x="122.77" y="418.14" width="26.58" height="17.57"/><text class="b6a60e61-258b-454d-9d36-9edbd1841967" transform="translate(129.24 429.66)">NO</text><polyline class="ba8f69e9-7ab6-43f0-bc37-f741ea20ecc9" points="454.72 163.09 454.72 501.26 277.81 501.26"/><circle class="ba8f69e9-7ab6-43f0-bc37-f741ea20ecc9" cx="583.15" cy="135.23" r="31.76"/><polyline class="ba8f69e9-7ab6-43f0-bc37-f741ea20ecc9" points="621.69 569.72 713.72 569.72 713.72 482.5"/><polygon class="ee2130b5-655e-451d-9c31-2193fefcf451" points="719.7 484.25 713.72 473.89 707.74 484.25 719.7 484.25"/><rect class="e0c642e7-9084-4d13-a983-2d793cb373af" x="700.4" y="557.94" width="26.58" height="17.57"/><text class="b6a60e61-258b-454d-9d36-9edbd1841967" transform="translate(706.87 569.47)">NO</text></g></svg>