<svg xmlns="http://www.w3.org/2000/svg" viewBox="0 0 1621.27 677.1"><defs><style>.a5e731a5-f839-45f3-8654-f72d6cf17074,.b277d920-5b81-4617-8f87-6c4601d9d34d,.b4e398d7-8e32-44df-80e6-dc7cd22b5444,.bc73bd84-41d0-459f-acad-5af66a5dc4e9,.ebcec66b-8bee-4e41-b720-fbe8ef309a61{fill:none;stroke:#646464;}.a5e731a5-f839-45f3-8654-f72d6cf17074{stroke-linejoin:round;}.a5e731a5-f839-45f3-8654-f72d6cf17074,.bc73bd84-41d0-459f-acad-5af66a5dc4e9{stroke-width:2px;}.b277d920-5b81-4617-8f87-6c4601d9d34d,.b4e398d7-8e32-44df-80e6-dc7cd22b5444,.bc73bd84-41d0-459f-acad-5af66a5dc4e9,.ebcec66b-8bee-4e41-b720-fbe8ef309a61{stroke-miterlimit:10;}.b277d920-5b81-4617-8f87-6c4601d9d34d,.ebcec66b-8bee-4e41-b720-fbe8ef309a61{stroke-width:0.5px;}.b277d920-5b81-4617-8f87-6c4601d9d34d{stroke-dasharray:5.01 3;}.b0acc207-e324-4970-a258-2595d42a89b0,.bb526f18-bbf8-4481-9204-82bc663d27d9,.ee7f74b1-e436-4899-9a3d-8bfe7e4e37b6,.fa154644-ac14-439c-9d20-635276f6b397{fill:#646464;}.b0acc207-e324-4970-a258-2595d42a89b0,.bbce88a5-36dc-4c9e-a06c-832c3179fec4{font-size:10px;}.b0acc207-e324-4970-a258-2595d42a89b0,.bb526f18-bbf8-4481-9204-82bc663d27d9,.bbce88a5-36dc-4c9e-a06c-832c3179fec4,.fa154644-ac14-439c-9d20-635276f6b397{font-family:TrebuchetMS-Bold, Trebuchet MS;font-weight:700;}.ad842a0b-7ec0-481e-b0ee-6244c103d42a{letter-spacing:-0.02em;}.b9e146b2-befc-45af-8479-748bf003fe11{letter-spacing:-0.04em;}.b823f061-2184-41b7-abb7-23080685fbd3{letter-spacing:-0.03em;}.baf11e42-303a-43ce-a68a-afe0544645dd{letter-spacing:-0.09em;}.ffd11a48-f87d-4a50-9de6-33827d65edb4{letter-spacing:-0.06em;}.e3af7743-da28-4b8e-b06f-2b71f728fa96{letter-spacing:0.03em;}.bb526f18-bbf8-4481-9204-82bc663d27d9{font-size:24px;}.fa154644-ac14-439c-9d20-635276f6b397{font-size:11px;}.b7230ea6-2491-4c3f-aff3-d9b2bb8bfe61{letter-spacing:-0.05em;}.beba2c33-b69d-4901-8688-111dcb082be8{letter-spacing:-0.07em;}.f6828562-573b-44ee-97ac-b5ce3b448609{fill:#d23138;}.bbce88a5-36dc-4c9e-a06c-832c3179fec4{fill:#fff;}.e954ec19-ed48-4523-97d0-94c34afbf0ee{fill:#3eaf49;}</style></defs><title>CDOT_diagrams_CH5-6</title><g id="aec60314-a4cb-4f74-b7ad-d363fd5d3c9a" data-name="shapes"><path class="a5e731a5-f839-45f3-8654-f72d6cf17074" d="M203.35,199.93s-7.2,14.57-7.2,28.48,7.2,27.64,7.2,27.64"/><path class="bc73bd84-41d0-459f-acad-5af66a5dc4e9" d="M90.3,256.11s-8-13.74-8-27.64,8-28.47,8-28.47H202.86s8,13.73,8,27.64-8,28.47-8,28.47Z"/><path class="a5e731a5-f839-45f3-8654-f72d6cf17074" d="M390.54,99.3s-7.2,14.57-7.2,28.47,7.2,27.64,7.2,27.64"/><path class="bc73bd84-41d0-459f-acad-5af66a5dc4e9" d="M264.74,155.48s-8-13.74-8-27.65,8-28.47,8-28.47H390s8,13.74,8,27.64-8,28.48-8,28.48Z"/><path class="a5e731a5-f839-45f3-8654-f72d6cf17074" d="M831.34,99.3s-7.21,14.57-7.21,28.47,7.21,27.64,7.21,27.64"/><path class="bc73bd84-41d0-459f-acad-5af66a5dc4e9" d="M717.16,155.48s-8-13.74-8-27.65,8-28.47,8-28.47H830.84s8,13.74,8,27.64-8,28.48-8,28.48Z"/><path class="a5e731a5-f839-45f3-8654-f72d6cf17074" d="M1086.3,220.56s-7.2,14.57-7.2,28.48,7.2,27.64,7.2,27.64"/><path class="bc73bd84-41d0-459f-acad-5af66a5dc4e9" d="M981.08,276.74s-8-13.74-8-27.64,8-28.48,8-28.48H1085.8s8,13.74,8,27.65-8,28.47-8,28.47Z"/><path class="a5e731a5-f839-45f3-8654-f72d6cf17074" d="M880,340.78s-7.2,13.28-7.2,26,7.2,25.2,7.2,25.2"/><path class="bc73bd84-41d0-459f-acad-5af66a5dc4e9" d="M793.94,392s-8-12.52-8-25.2,8-26,8-26h85.52s8,12.52,8,25.19-8,26-8,26Z"/><path class="a5e731a5-f839-45f3-8654-f72d6cf17074" d="M638.22,99.16S630,113.61,630,127.4s8.2,27.41,8.2,27.41"/><path class="bc73bd84-41d0-459f-acad-5af66a5dc4e9" d="M460.11,154.87S451,141.25,451,127.46s9.13-28.24,9.13-28.24H637.66s9.13,13.63,9.13,27.42-9.13,28.23-9.13,28.23Z"/><line class="ebcec66b-8bee-4e41-b720-fbe8ef309a61" x1="12.15" y1="185.68" x2="14.65" y2="185.68"/><line class="b277d920-5b81-4617-8f87-6c4601d9d34d" x1="17.65" y1="185.68" x2="1602.11" y2="185.68"/><line class="ebcec66b-8bee-4e41-b720-fbe8ef309a61" x1="1603.61" y1="185.68" x2="1606.11" y2="185.68"/><line class="ebcec66b-8bee-4e41-b720-fbe8ef309a61" x1="12.15" y1="407.01" x2="14.65" y2="407.01"/><line class="b277d920-5b81-4617-8f87-6c4601d9d34d" x1="17.65" y1="407.01" x2="1602.11" y2="407.01"/><line class="ebcec66b-8bee-4e41-b720-fbe8ef309a61" x1="1603.61" y1="407.01" x2="1606.11" y2="407.01"/><line class="ebcec66b-8bee-4e41-b720-fbe8ef309a61" x1="12.15" y1="526.33" x2="14.65" y2="526.33"/><line class="b277d920-5b81-4617-8f87-6c4601d9d34d" x1="17.65" y1="526.33" x2="1602.11" y2="526.33"/><line class="ebcec66b-8bee-4e41-b720-fbe8ef309a61" x1="1603.61" y1="526.33" x2="1606.11" y2="526.33"/><polyline class="bc73bd84-41d0-459f-acad-5af66a5dc4e9" points="145.22 266.86 145.22 596.56 174.72 596.56"/><polygon class="ee7f74b1-e436-4899-9a3d-8bfe7e4e37b6" points="139.24 268.61 145.22 258.25 151.2 268.61 139.24 268.61"/><line class="bc73bd84-41d0-459f-acad-5af66a5dc4e9" x1="725.24" y1="248.54" x2="773.02" y2="248.54"/><polygon class="ee7f74b1-e436-4899-9a3d-8bfe7e4e37b6" points="771.26 254.52 781.63 248.53 771.26 242.55 771.26 254.52"/><line class="bc73bd84-41d0-459f-acad-5af66a5dc4e9" x1="885.27" y1="249.19" x2="962.05" y2="249.19"/><polygon class="ee7f74b1-e436-4899-9a3d-8bfe7e4e37b6" points="960.3 255.17 970.66 249.19 960.3 243.21 960.3 255.17"/><path class="a5e731a5-f839-45f3-8654-f72d6cf17074" d="M1261.25,220.56s-7.2,14.57-7.2,28.48,7.2,27.64,7.2,27.64"/><path class="bc73bd84-41d0-459f-acad-5af66a5dc4e9" d="M1156,276.74s-8-13.74-8-27.64,8-28.48,8-28.48h104.72s8,13.74,8,27.65-8,28.47-8,28.47Z"/><line class="bc73bd84-41d0-459f-acad-5af66a5dc4e9" x1="1087.59" y1="249.19" x2="1137" y2="249.19"/><polygon class="ee7f74b1-e436-4899-9a3d-8bfe7e4e37b6" points="1135.25 255.17 1145.61 249.19 1135.25 243.21 1135.25 255.17"/><line class="bc73bd84-41d0-459f-acad-5af66a5dc4e9" x1="1258.63" y1="249.19" x2="1308.04" y2="249.19"/><polygon class="ee7f74b1-e436-4899-9a3d-8bfe7e4e37b6" points="1306.29 255.17 1316.65 249.19 1306.29 243.21 1306.29 255.17"/><path class="a5e731a5-f839-45f3-8654-f72d6cf17074" d="M1086.3,335.67s-7.2,14.57-7.2,28.48,7.2,27.64,7.2,27.64"/><path class="bc73bd84-41d0-459f-acad-5af66a5dc4e9" d="M981.08,391.85s-8-13.73-8-27.64,8-28.47,8-28.47H1085.8s8,13.73,8,27.64-8,28.47-8,28.47Z"/><line class="bc73bd84-41d0-459f-acad-5af66a5dc4e9" x1="878.32" y1="364.3" x2="962.05" y2="364.3"/><polygon class="ee7f74b1-e436-4899-9a3d-8bfe7e4e37b6" points="960.3 370.29 970.66 364.3 960.3 358.32 960.3 370.29"/><line class="bc73bd84-41d0-459f-acad-5af66a5dc4e9" x1="835.08" y1="284.23" x2="835.08" y2="329.68"/><polygon class="ee7f74b1-e436-4899-9a3d-8bfe7e4e37b6" points="829.1 327.93 835.08 338.3 841.06 327.93 829.1 327.93"/><line class="bc73bd84-41d0-459f-acad-5af66a5dc4e9" x1="1360.91" y1="279.23" x2="1360.91" y2="324.68"/><polygon class="ee7f74b1-e436-4899-9a3d-8bfe7e4e37b6" points="1354.92 322.93 1360.9 333.29 1366.89 322.93 1354.92 322.93"/><line class="bc73bd84-41d0-459f-acad-5af66a5dc4e9" x1="173.52" y1="466.64" x2="145.3" y2="466.64"/><polyline class="bc73bd84-41d0-459f-acad-5af66a5dc4e9" points="1362.23 217.42 1362.23 125.55 852.83 125.55"/><polygon class="ee7f74b1-e436-4899-9a3d-8bfe7e4e37b6" points="854.58 119.57 844.22 125.55 854.58 131.53 854.58 119.57"/></g><g id="a5d3704e-2350-411a-998b-f7efeab590c3" data-name="text"><text class="b0acc207-e324-4970-a258-2595d42a89b0" transform="translate(95.2 220.71)">File<tspan class="ad842a0b-7ec0-481e-b0ee-6244c103d42a" x="17.51" y="0"> </tspan><tspan class="b9e146b2-befc-45af-8479-748bf003fe11" x="20.35" y="0">T</tspan><tspan x="26.09" y="0">itle VI Prog</tspan><tspan class="b823f061-2184-41b7-abb7-23080685fbd3" x="77.58" y="0">r</tspan><tspan x="81.54" y="0">am </tspan><tspan x="-2.08" y="12">and F</tspan><tspan class="baf11e42-303a-43ce-a68a-afe0544645dd" x="23.81" y="12">T</tspan><tspan class="ffd11a48-f87d-4a50-9de6-33827d65edb4" x="28.98" y="12">A</tspan><tspan x="34.76" y="12" xml:space="preserve"> Concurrence </tspan><tspan x="5.81" y="24">Letter (COTRAMS)</tspan></text><text class="b0acc207-e324-4970-a258-2595d42a89b0" transform="translate(279.05 111.86)">New subrecipient, <tspan x="-12" y="12">submit</tspan><tspan class="ad842a0b-7ec0-481e-b0ee-6244c103d42a" x="19.57" y="12"> </tspan><tspan class="b9e146b2-befc-45af-8479-748bf003fe11" x="22.4" y="12">T</tspan><tspan x="28.15" y="12">itle VI Prog</tspan><tspan class="b823f061-2184-41b7-abb7-23080685fbd3" x="79.64" y="12">r</tspan><tspan x="83.6" y="12">am </tspan><tspan x="-2.94" y="24">with submittal date </tspan><tspan x="16.95" y="36">(COTRAMS)</tspan></text><text class="b0acc207-e324-4970-a258-2595d42a89b0" transform="translate(722.43 117.72)">Submit re<tspan class="e3af7743-da28-4b8e-b06f-2b71f728fa96" x="45.41" y="0">v</tspan><tspan x="51" y="0">ised</tspan><tspan class="ad842a0b-7ec0-481e-b0ee-6244c103d42a" x="69.84" y="0"> </tspan><tspan class="b9e146b2-befc-45af-8479-748bf003fe11" x="72.67" y="0">T</tspan><tspan x="78.42" y="0">itle </tspan><tspan x="21.67" y="12">VI Prog</tspan><tspan class="b823f061-2184-41b7-abb7-23080685fbd3" x="54.51" y="12">r</tspan><tspan x="58.47" y="12">am </tspan><tspan x="21.22" y="24">(COTRAMS)</tspan></text><text class="b0acc207-e324-4970-a258-2595d42a89b0" transform="translate(985.68 238.99)">Add comments to <tspan x="-5.08" y="12">COTRAMS regarding </tspan><tspan x="12.67" y="24">deficiencies</tspan></text><text class="b0acc207-e324-4970-a258-2595d42a89b0" transform="translate(1164.69 238.99)">COTRAMS sends <tspan x="-13.23" y="12">email to subrecipient </tspan><tspan x="0.87" y="24">with comments</tspan></text><text class="b0acc207-e324-4970-a258-2595d42a89b0" transform="translate(989.74 354.1)">COTRAMS sends <tspan x="-2.7" y="12">email confirming </tspan><tspan x="16.45" y="24">approval</tspan></text><text class="b0acc207-e324-4970-a258-2595d42a89b0" transform="translate(796 364.58)">Mark<tspan class="ffd11a48-f87d-4a50-9de6-33827d65edb4" x="22.53" y="0"> </tspan><tspan x="24.99" y="0">Approved </tspan><tspan x="6.78" y="12">in COTRAMS</tspan></text><text class="b0acc207-e324-4970-a258-2595d42a89b0" transform="translate(476.18 112.86)">Existing subrecipient, submit <tspan x="-4.27" y="12">updated</tspan><tspan class="ad842a0b-7ec0-481e-b0ee-6244c103d42a" x="34.11" y="12"> </tspan><tspan class="b9e146b2-befc-45af-8479-748bf003fe11" x="36.94" y="12">T</tspan><tspan x="42.69" y="12">itle VI Prog</tspan><tspan class="b823f061-2184-41b7-abb7-23080685fbd3" x="94.18" y="12">r</tspan><tspan x="98.14" y="12">am when </tspan><tspan x="7.03" y="24">notified of 3-yr expi</tspan><tspan class="b823f061-2184-41b7-abb7-23080685fbd3" x="101.39" y="24">r</tspan><tspan x="105.35" y="24">ation </tspan><tspan x="42.3" y="36">(COTRAMS)</tspan></text><text class="bb526f18-bbf8-4481-9204-82bc663d27d9" transform="translate(18.5 35.68)">5-1<tspan class="ad842a0b-7ec0-481e-b0ee-6244c103d42a" x="36.94" y="0"> </tspan><tspan class="b9e146b2-befc-45af-8479-748bf003fe11" x="43.73" y="0">T</tspan><tspan x="57.53" y="0">itle VI Prog</tspan><tspan class="b823f061-2184-41b7-abb7-23080685fbd3" x="181.1" y="0">r</tspan><tspan x="190.61" y="0">am Submittal (every 3 years)</tspan></text><text class="fa154644-ac14-439c-9d20-635276f6b397" transform="translate(42.99 151.02) rotate(-90)">Subrecipient</text><text class="fa154644-ac14-439c-9d20-635276f6b397" transform="translate(42.99 283.8) rotate(-90)">CRBRC</text><text class="fa154644-ac14-439c-9d20-635276f6b397" transform="translate(37.99 514.66) rotate(-90)">Direct Recipient of <tspan class="b7230ea6-2491-4c3f-aff3-d9b2bb8bfe61" x="12.69" y="13.2">F</tspan><tspan x="18.59" y="13.2">ede</tspan><tspan class="b823f061-2184-41b7-abb7-23080685fbd3" x="37.62" y="13.2">r</tspan><tspan x="41.98" y="13.2">al </tspan><tspan class="b7230ea6-2491-4c3f-aff3-d9b2bb8bfe61" x="54.39" y="13.2">F</tspan><tspan x="60.3" y="13.2">unds</tspan></text><text class="fa154644-ac14-439c-9d20-635276f6b397" transform="translate(42.99 646.13) rotate(-90)">Procurement Office</text><polygon class="b4e398d7-8e32-44df-80e6-dc7cd22b5444" points="1606.57 664.47 12.2 664.47 12.2 68.61 50.73 68.61 1606.57 68.61 1606.57 664.47"/><line class="b4e398d7-8e32-44df-80e6-dc7cd22b5444" x1="64.85" y1="664.73" x2="64.85" y2="69.04"/><rect class="bc73bd84-41d0-459f-acad-5af66a5dc4e9" x="174.58" y="427.37" width="125.43" height="79.77"/><text class="b0acc207-e324-4970-a258-2595d42a89b0" transform="translate(181.28 443.81)">Every 3 years, submit a <tspan x="-1.75" y="12">copy of agency</tspan><tspan class="beba2c33-b69d-4901-8688-111dcb082be8" x="68.02" y="12">’</tspan><tspan x="70.99" y="12">s</tspan><tspan class="ad842a0b-7ec0-481e-b0ee-6244c103d42a" x="75.3" y="12"> </tspan><tspan class="b9e146b2-befc-45af-8479-748bf003fe11" x="78.13" y="12">T</tspan><tspan x="83.88" y="12">itle VI </tspan><tspan x="0.99" y="24">Prog</tspan><tspan class="b823f061-2184-41b7-abb7-23080685fbd3" x="21.81" y="24">r</tspan><tspan x="25.77" y="24">am Plan to CRBRC </tspan><tspan x="25.31" y="36">with the F</tspan><tspan class="baf11e42-303a-43ce-a68a-afe0544645dd" x="73.53" y="36">T</tspan><tspan class="ffd11a48-f87d-4a50-9de6-33827d65edb4" x="78.7" y="36">A</tspan><tspan x="84.48" y="36"> </tspan><tspan x="8.89" y="49">Concurrence Letter</tspan></text><rect class="bc73bd84-41d0-459f-acad-5af66a5dc4e9" x="487.34" y="328.02" width="125.43" height="51.8"/><text class="b0acc207-e324-4970-a258-2595d42a89b0" transform="translate(492.96 346.47)">Re<tspan class="e3af7743-da28-4b8e-b06f-2b71f728fa96" x="11.86" y="0">v</tspan><tspan x="17.44" y="0">iew</tspan><tspan class="ad842a0b-7ec0-481e-b0ee-6244c103d42a" x="34.01" y="0"> </tspan><tspan class="b9e146b2-befc-45af-8479-748bf003fe11" x="36.84" y="0">T</tspan><tspan x="42.59" y="0">itle VI Prog</tspan><tspan class="b823f061-2184-41b7-abb7-23080685fbd3" x="94.08" y="0">r</tspan><tspan x="98.04" y="0">am </tspan><tspan x="4.83" y="12">as part of SIR and Site </tspan><tspan x="19.83" y="24">Re</tspan><tspan class="e3af7743-da28-4b8e-b06f-2b71f728fa96" x="31.68" y="24">v</tspan><tspan x="37.27" y="24">iew Process</tspan></text><rect class="bc73bd84-41d0-459f-acad-5af66a5dc4e9" x="640.79" y="224.49" width="83.97" height="51.8"/><text class="b0acc207-e324-4970-a258-2595d42a89b0" transform="translate(651.12 246.84)">Conduct desk <tspan x="19.42" y="12">audit</tspan></text><rect class="bc73bd84-41d0-459f-acad-5af66a5dc4e9" x="1319.51" y="217.49" width="83.97" height="61.69"/><text class="b0acc207-e324-4970-a258-2595d42a89b0" transform="translate(1348.15 233.83)">Assist <tspan x="-16.19" y="13">subrecipient </tspan><tspan x="-22.79" y="25">with correcting </tspan><tspan x="-14.97" y="37">deficiencies</tspan></text><rect class="bc73bd84-41d0-459f-acad-5af66a5dc4e9" x="174.58" y="555" width="125.43" height="79.77"/><text class="b0acc207-e324-4970-a258-2595d42a89b0" transform="translate(181.28 571.44)">Every 3 years, submit a <tspan x="0.98" y="12">copy of the MPO</tspan><tspan class="beba2c33-b69d-4901-8688-111dcb082be8" x="77.31" y="12">’</tspan><tspan x="80.28" y="12">s</tspan><tspan class="ad842a0b-7ec0-481e-b0ee-6244c103d42a" x="84.58" y="12"> </tspan><tspan class="b9e146b2-befc-45af-8479-748bf003fe11" x="87.41" y="12">T</tspan><tspan x="93.16" y="12">itle </tspan><tspan x="11.69" y="24">VI Prog</tspan><tspan class="b823f061-2184-41b7-abb7-23080685fbd3" x="44.52" y="24">r</tspan><tspan x="48.48" y="24">am Plan to </tspan><tspan x="8.6" y="36">CRBRC with the F</tspan><tspan class="baf11e42-303a-43ce-a68a-afe0544645dd" x="90.23" y="36">T</tspan><tspan class="ffd11a48-f87d-4a50-9de6-33827d65edb4" x="95.41" y="36">A</tspan><tspan x="101.19" y="36"> </tspan><tspan x="8.89" y="48">Concurrence Letter</tspan></text><rect class="f6828562-573b-44ee-97ac-b5ce3b448609" x="893.44" y="241.3" width="60.45" height="17.57"/><text class="bbce88a5-36dc-4c9e-a06c-832c3179fec4" transform="translate(899.93 252.83)">DEFICIEN<tspan class="ad842a0b-7ec0-481e-b0ee-6244c103d42a" x="42" y="0">T</tspan></text><rect class="e954ec19-ed48-4523-97d0-94c34afbf0ee" x="803.41" y="297.93" width="62.63" height="17.57"/><text class="bbce88a5-36dc-4c9e-a06c-832c3179fec4" transform="translate(807.97 310.46)">SUFFICIEN<tspan class="ad842a0b-7ec0-481e-b0ee-6244c103d42a" x="47.61" y="0">T</tspan></text><text class="b0acc207-e324-4970-a258-2595d42a89b0" transform="matrix(1, 0, 0, 1, 810.84, 239.8)">Prog<tspan class="b823f061-2184-41b7-abb7-23080685fbd3" x="20.82" y="0">r</tspan><tspan x="24.78" y="0">am is </tspan><tspan x="-4.12" y="12">sufficient or </tspan><tspan x="1.34" y="24">deficient?</tspan></text><polygon class="bc73bd84-41d0-459f-acad-5af66a5dc4e9" points="782.63 249.26 834.23 212.6 886.17 248.77 834.57 285.44 782.63 249.26"/><text class="b0acc207-e324-4970-a258-2595d42a89b0" transform="matrix(1, 0, 0, 1, 1353.17, 358.13)">Still<tspan x="-14.18" y="13">deficient?</tspan></text><polygon class="bc73bd84-41d0-459f-acad-5af66a5dc4e9" points="1322.81 363.72 1361.06 336.55 1399.56 363.36 1361.31 390.55 1322.81 363.72"/><line class="bc73bd84-41d0-459f-acad-5af66a5dc4e9" x1="548.08" y1="154.87" x2="548.08" y2="327.87"/><polyline class="bc73bd84-41d0-459f-acad-5af66a5dc4e9" points="326.21 155.85 326.21 251.63 629.38 251.63"/><polygon class="ee7f74b1-e436-4899-9a3d-8bfe7e4e37b6" points="627.63 257.62 638 251.63 627.63 245.65 627.63 257.62"/><rect class="bc73bd84-41d0-459f-acad-5af66a5dc4e9" x="1471.2" y="325.14" width="116.2" height="72.73"/><text class="b0acc207-e324-4970-a258-2595d42a89b0" transform="translate(1485.65 339.22)">Notify DTR Project <tspan x="9.51" y="12">Coordinator to </tspan><tspan x="-4.61" y="24">develop a corrective </tspan><tspan x="5.8" y="36">action plan with </tspan><tspan x="14.36" y="48">subrecipient</tspan></text><line class="bc73bd84-41d0-459f-acad-5af66a5dc4e9" x1="1398.39" y1="363.03" x2="1461.13" y2="363.03"/><polygon class="ee7f74b1-e436-4899-9a3d-8bfe7e4e37b6" points="1459.38 369.01 1469.74 363.03 1459.38 357.05 1459.38 369.01"/><polyline class="bc73bd84-41d0-459f-acad-5af66a5dc4e9" points="771.9 154.87 771.9 178.33 682.96 178.33 682.96 210.77"/><polygon class="ee7f74b1-e436-4899-9a3d-8bfe7e4e37b6" points="676.97 209.02 682.96 219.38 688.94 209.02 676.97 209.02"/><rect class="f6828562-573b-44ee-97ac-b5ce3b448609" x="1414.79" y="353.97" width="31.28" height="17.57"/><text class="bbce88a5-36dc-4c9e-a06c-832c3179fec4" transform="translate(1421.96 365.5)">YES</text></g></svg>