<svg xmlns="http://www.w3.org/2000/svg" viewBox="0 0 2398.96 1121.91"><defs><style>.a069e3c7-f7f1-4a08-b24f-043131a0f460,.a3d671b1-6dc9-4f05-9f99-9973a58c2441,.a42430d2-0883-46b9-b318-47280894d59e,.bbacae83-fb30-4ca1-95ed-6d2d7b000f65,.ef3f6728-8df3-4c9a-aade-a2f315dfbb42,.f0e8af61-fa3d-4625-83d2-c18f0203ef58{fill:none;}.a069e3c7-f7f1-4a08-b24f-043131a0f460,.a3d671b1-6dc9-4f05-9f99-9973a58c2441,.a42430d2-0883-46b9-b318-47280894d59e,.aa1c8a08-43e2-41ca-b7ac-0746a8999538,.bbacae83-fb30-4ca1-95ed-6d2d7b000f65,.ef3f6728-8df3-4c9a-aade-a2f315dfbb42,.f0e8af61-fa3d-4625-83d2-c18f0203ef58{stroke:#646464;}.a069e3c7-f7f1-4a08-b24f-043131a0f460,.a3d671b1-6dc9-4f05-9f99-9973a58c2441,.a42430d2-0883-46b9-b318-47280894d59e,.aa1c8a08-43e2-41ca-b7ac-0746a8999538,.ef3f6728-8df3-4c9a-aade-a2f315dfbb42,.f0e8af61-fa3d-4625-83d2-c18f0203ef58{stroke-miterlimit:10;}.aa1c8a08-43e2-41ca-b7ac-0746a8999538,.bbacae83-fb30-4ca1-95ed-6d2d7b000f65,.ef3f6728-8df3-4c9a-aade-a2f315dfbb42{stroke-width:2px;}.a00c57b1-1dab-40e6-9fec-bef5cc569f72,.b63fc88f-7596-4b3f-93d2-dfc795d56489,.bfe14d46-13c7-40b1-8e1a-af794fd79bba,.bfe1722f-fc16-47a0-a26f-2e78c839ebe7,.e71324ba-3fe7-4b9d-9aaf-065a5f528c5a{fill:#646464;}.a069e3c7-f7f1-4a08-b24f-043131a0f460,.a3d671b1-6dc9-4f05-9f99-9973a58c2441{stroke-width:0.5px;}.a069e3c7-f7f1-4a08-b24f-043131a0f460{stroke-dasharray:4.99 3;}.bbacae83-fb30-4ca1-95ed-6d2d7b000f65{stroke-linejoin:round;}.b63fc88f-7596-4b3f-93d2-dfc795d56489,.e71324ba-3fe7-4b9d-9aaf-065a5f528c5a,.f2098163-41fd-4e73-8b8f-1ea90b6c3819{font-size:10px;}.a5b52e8e-474e-46a9-bd9e-1c0a2bd8626e,.b63fc88f-7596-4b3f-93d2-dfc795d56489,.bb21e470-ee9c-457e-b66e-4a20a7305a22,.bfe14d46-13c7-40b1-8e1a-af794fd79bba,.bfe1722f-fc16-47a0-a26f-2e78c839ebe7,.f2098163-41fd-4e73-8b8f-1ea90b6c3819{font-family:TrebuchetMS-Bold, Trebuchet MS;font-weight:700;}.bbd630db-aa47-4335-9cf6-6fa5e845f5ed{letter-spacing:-0.06em;}.b0ff80a3-19a3-4d7d-8c75-98b5bf48bf7f{letter-spacing:-0.02em;}.ad11f489-027d-4105-9795-7c5d3ce8e1b7{letter-spacing:-0.03em;}.e7f5c770-2bf3-4704-adc7-81eab32953ee{letter-spacing:-0.05em;}.a56e3890-81e5-42ea-b690-7fe137439e2f{letter-spacing:0.03em;}.bfe14d46-13c7-40b1-8e1a-af794fd79bba{font-size:24px;}.be7f0839-11b1-43e1-b67f-bf3841d95bfe{letter-spacing:-0.1em;}.bfe1722f-fc16-47a0-a26f-2e78c839ebe7{font-size:11px;}.bcb9fca5-3f94-4fd1-859f-7e99dfe35ae3{fill:#3eaf49;}.bb21e470-ee9c-457e-b66e-4a20a7305a22,.f2098163-41fd-4e73-8b8f-1ea90b6c3819{fill:#fff;}.bcb3d62e-ed93-4ec6-9b9c-64eeb59e52e8{fill:#d23138;}.f4d24c17-30ca-4888-b190-9fd7bdaa967c{letter-spacing:-0.09em;}.aa1c8a08-43e2-41ca-b7ac-0746a8999538,.b255b5a7-bf89-4608-ac36-0338b77fbe0f{fill:#009add;}.bb21e470-ee9c-457e-b66e-4a20a7305a22{font-size:16px;}.e71324ba-3fe7-4b9d-9aaf-065a5f528c5a{font-family:MyriadPro-Regular, Myriad Pro;}.f0e8af61-fa3d-4625-83d2-c18f0203ef58{stroke-dasharray:5 3;}</style></defs><title>CDOT_diagrams_CH3</title><g id="bc2332d3-3507-4c56-8a19-43053a545ccb" data-name="shapes"><line class="ef3f6728-8df3-4c9a-aade-a2f315dfbb42" x1="114.33" y1="113.87" x2="146.25" y2="113.87"/><polygon class="a00c57b1-1dab-40e6-9fec-bef5cc569f72" points="144.5 119.86 154.86 113.87 144.5 107.89 144.5 119.86"/><line class="a3d671b1-6dc9-4f05-9f99-9973a58c2441" x1="18.37" y1="325.72" x2="20.87" y2="325.72"/><line class="a069e3c7-f7f1-4a08-b24f-043131a0f460" x1="23.87" y1="325.72" x2="2363.44" y2="325.72"/><line class="a3d671b1-6dc9-4f05-9f99-9973a58c2441" x1="2364.94" y1="325.72" x2="2367.44" y2="325.72"/><line class="a3d671b1-6dc9-4f05-9f99-9973a58c2441" x1="18.37" y1="717.84" x2="20.87" y2="717.84"/><line class="a069e3c7-f7f1-4a08-b24f-043131a0f460" x1="23.87" y1="717.84" x2="2363.44" y2="717.84"/><line class="a3d671b1-6dc9-4f05-9f99-9973a58c2441" x1="2364.94" y1="717.84" x2="2367.44" y2="717.84"/><line class="a3d671b1-6dc9-4f05-9f99-9973a58c2441" x1="18.37" y1="978.85" x2="20.87" y2="978.85"/><line class="a069e3c7-f7f1-4a08-b24f-043131a0f460" x1="23.87" y1="978.85" x2="2363.44" y2="978.85"/><line class="a3d671b1-6dc9-4f05-9f99-9973a58c2441" x1="2364.94" y1="978.85" x2="2367.44" y2="978.85"/><line class="a3d671b1-6dc9-4f05-9f99-9973a58c2441" x1="18.37" y1="853.01" x2="20.87" y2="853.01"/><line class="a069e3c7-f7f1-4a08-b24f-043131a0f460" x1="23.87" y1="853.01" x2="2363.44" y2="853.01"/><line class="a3d671b1-6dc9-4f05-9f99-9973a58c2441" x1="2364.94" y1="853.01" x2="2367.44" y2="853.01"/><path class="bbacae83-fb30-4ca1-95ed-6d2d7b000f65" d="M1770.73,393.94h13.35s-9.95,25.49-9.95,49.8,9.95,48.35,9.95,48.35"/><path class="ef3f6728-8df3-4c9a-aade-a2f315dfbb42" d="M1636.46,492.09s-10-24-10-48.35,10-49.8,10-49.8h148s10,24,10,48.35-10,49.8-10,49.8Z"/><path class="bbacae83-fb30-4ca1-95ed-6d2d7b000f65" d="M253.43,92.85h9.66s-7.2,10.69-7.2,20.89,7.2,20.28,7.2,20.28"/><path class="ef3f6728-8df3-4c9a-aade-a2f315dfbb42" d="M164.51,134s-7.2-10.08-7.2-20.28,7.2-20.89,7.2-20.89h98.86s7.21,10.07,7.21,20.28S263.37,134,263.37,134Z"/><path class="bbacae83-fb30-4ca1-95ed-6d2d7b000f65" d="M441.8,92.85h9.67s-7.2,10.69-7.2,20.89,7.2,20.28,7.2,20.28"/><path class="ef3f6728-8df3-4c9a-aade-a2f315dfbb42" d="M352.89,134s-7.2-10.08-7.2-20.28,7.2-20.89,7.2-20.89h98.86s7.2,10.07,7.2,20.28-7.2,20.89-7.2,20.89Z"/><line class="ef3f6728-8df3-4c9a-aade-a2f315dfbb42" x1="729.27" y1="481.93" x2="729.27" y2="512.19"/><polygon class="a00c57b1-1dab-40e6-9fec-bef5cc569f72" points="723.28 510.44 729.27 520.8 735.25 510.44 723.28 510.44"/><line class="ef3f6728-8df3-4c9a-aade-a2f315dfbb42" x1="1259.35" y1="510.78" x2="1259.35" y2="459.7"/><polygon class="a00c57b1-1dab-40e6-9fec-bef5cc569f72" points="1265.34 461.45 1259.35 451.08 1253.37 461.45 1265.34 461.45"/><line class="ef3f6728-8df3-4c9a-aade-a2f315dfbb42" x1="526.55" y1="113.26" x2="470.17" y2="113.26"/><polygon class="a00c57b1-1dab-40e6-9fec-bef5cc569f72" points="471.92 107.28 461.56 113.26 471.92 119.25 471.92 107.28"/><line class="ef3f6728-8df3-4c9a-aade-a2f315dfbb42" x1="644.51" y1="113.01" x2="595.88" y2="113.01"/><polygon class="a00c57b1-1dab-40e6-9fec-bef5cc569f72" points="642.76 107.03 653.12 113.01 642.76 118.99 642.76 107.03"/><line class="ef3f6728-8df3-4c9a-aade-a2f315dfbb42" x1="560.52" y1="410.63" x2="560.52" y2="372.06"/><polygon class="a00c57b1-1dab-40e6-9fec-bef5cc569f72" points="566.5 373.81 560.52 363.45 554.53 373.81 566.5 373.81"/><line class="ef3f6728-8df3-4c9a-aade-a2f315dfbb42" x1="560.52" y1="339.28" x2="560.52" y2="161.92"/><polygon class="a00c57b1-1dab-40e6-9fec-bef5cc569f72" points="566.5 163.67 560.52 153.31 554.53 163.67 566.5 163.67"/><line class="ef3f6728-8df3-4c9a-aade-a2f315dfbb42" x1="644.51" y1="445.32" x2="595.88" y2="445.32"/><polygon class="a00c57b1-1dab-40e6-9fec-bef5cc569f72" points="642.76 439.33 653.12 445.32 642.76 451.3 642.76 439.33"/><line class="ef3f6728-8df3-4c9a-aade-a2f315dfbb42" x1="1332.75" y1="543.2" x2="1366.31" y2="543.2"/><polygon class="a00c57b1-1dab-40e6-9fec-bef5cc569f72" points="1364.56 549.18 1374.92 543.2 1364.56 537.22 1364.56 549.18"/></g><g id="b54b2a5f-a52f-4422-ba9b-e023f7402a83" data-name="text"><polyline class="ef3f6728-8df3-4c9a-aade-a2f315dfbb42" points="1638.91 782.05 1701.07 782.05 1701.07 502.7"/><polygon class="a00c57b1-1dab-40e6-9fec-bef5cc569f72" points="1707.06 504.45 1701.07 494.09 1695.09 504.45 1707.06 504.45"/><line class="ef3f6728-8df3-4c9a-aade-a2f315dfbb42" x1="1701.07" y1="394.88" x2="1701.07" y2="176.54"/><polygon class="a00c57b1-1dab-40e6-9fec-bef5cc569f72" points="1707.06 178.29 1701.07 167.92 1695.09 178.29 1707.06 178.29"/><polyline class="ef3f6728-8df3-4c9a-aade-a2f315dfbb42" points="1602.11 744.62 1602.11 428.13 1344.14 428.13"/><polygon class="a00c57b1-1dab-40e6-9fec-bef5cc569f72" points="1345.89 422.14 1335.53 428.13 1345.89 434.11 1345.89 422.14"/><polyline class="ef3f6728-8df3-4c9a-aade-a2f315dfbb42" points="1378.79 126.65 1260.7 126.65 1260.7 396.86"/><polygon class="a00c57b1-1dab-40e6-9fec-bef5cc569f72" points="1254.72 395.11 1260.7 405.48 1266.68 395.11 1254.72 395.11"/><text class="b63fc88f-7596-4b3f-93d2-dfc795d56489" transform="translate(1651.46 410.27)">Send Proposed<tspan class="bbd630db-aa47-4335-9cf6-6fa5e845f5ed" x="68.73" y="0"> </tspan><tspan class="b0ff80a3-19a3-4d7d-8c75-98b5bf48bf7f" x="71.19" y="0">A</tspan><tspan x="77.34" y="0">ward </tspan><tspan x="-5.15" y="12">Notification Letter with </tspan><tspan x="-17.79" y="24">Exhibit</tspan><tspan class="bbd630db-aa47-4335-9cf6-6fa5e845f5ed" x="15.09" y="24" xml:space="preserve"> A</tspan><tspan x="23.33" y="24" xml:space="preserve"> of G</tspan><tspan class="ad11f489-027d-4105-9795-7c5d3ce8e1b7" x="45.43" y="24">r</tspan><tspan x="49.39" y="24">ant</tspan><tspan class="bbd630db-aa47-4335-9cf6-6fa5e845f5ed" x="64.58" y="24"> </tspan><tspan x="67.05" y="24">Agreement</tspan><tspan x="-0.59" y="36">(Contact Info, Project </tspan><tspan x="-16.34" y="48">Budget, Project Description, </tspan><tspan class="e7f5c770-2bf3-4704-adc7-81eab32953ee" x="-5.83" y="60">P</tspan><tspan x="-0.43" y="60">erformance Standards)</tspan><tspan x="24.48" y="72">(COTRAMS)</tspan></text><text class="b63fc88f-7596-4b3f-93d2-dfc795d56489" transform="translate(163.39 110.17)">Submit application <tspan x="15.54" y="12">in COTRAMS</tspan></text><text class="b63fc88f-7596-4b3f-93d2-dfc795d56489" transform="translate(352.43 110.17)">Re<tspan class="a56e3890-81e5-42ea-b690-7fe137439e2f" x="11.86" y="0">v</tspan><tspan x="17.44" y="0">ise application </tspan><tspan x="14.59" y="12">in COTRAMS</tspan></text><text class="bfe14d46-13c7-40b1-8e1a-af794fd79bba" transform="translate(18.5 35.68)"><tspan xml:space="preserve"> 3-4</tspan><tspan class="b0ff80a3-19a3-4d7d-8c75-98b5bf48bf7f" x="44.17" y="0"> </tspan><tspan class="be7f0839-11b1-43e1-b67f-bf3841d95bfe" x="50.96" y="0">T</tspan><tspan class="ad11f489-027d-4105-9795-7c5d3ce8e1b7" x="63.19" y="0">r</tspan><tspan x="72.69" y="0">ansit Project:</tspan><tspan class="bbd630db-aa47-4335-9cf6-6fa5e845f5ed" x="225.01" y="0"> </tspan><tspan x="230.92" y="0">Application Evaluation/</tspan><tspan class="b0ff80a3-19a3-4d7d-8c75-98b5bf48bf7f" x="491.96" y="0">A</tspan><tspan x="506.73" y="0">ward</tspan></text><text class="bfe1722f-fc16-47a0-a26f-2e78c839ebe7" transform="translate(44.66 225.08) rotate(-90)">Applicant</text><text class="bfe1722f-fc16-47a0-a26f-2e78c839ebe7" transform="translate(44.66 579.72) rotate(-90)">DTR Prog<tspan class="ad11f489-027d-4105-9795-7c5d3ce8e1b7" x="46.73" y="0">r</tspan><tspan x="51.09" y="0">amming Unit</tspan></text><text class="bfe1722f-fc16-47a0-a26f-2e78c839ebe7" transform="translate(44.66 819.24) rotate(-90)">DTR Director</text><text class="bfe1722f-fc16-47a0-a26f-2e78c839ebe7" transform="translate(44.66 935.64) rotate(-90)">CRBRC</text><text class="bfe1722f-fc16-47a0-a26f-2e78c839ebe7" transform="translate(38.56 1064.97) rotate(-90)">Evaluation <tspan x="-1.31" y="13.2">Committee</tspan></text><rect class="bcb9fca5-3f94-4fd1-859f-7e99dfe35ae3" x="1685.88" y="624.67" width="31.28" height="17.57"/><text class="f2098163-41fd-4e73-8b8f-1ea90b6c3819" transform="translate(1693.05 636.2)">YES</text><rect class="bcb3d62e-ed93-4ec6-9b9c-64eeb59e52e8" x="1588.46" y="624.67" width="26.58" height="17.57"/><text class="f2098163-41fd-4e73-8b8f-1ea90b6c3819" transform="translate(1594.93 636.2)">NO</text><rect class="ef3f6728-8df3-4c9a-aade-a2f315dfbb42" x="654.89" y="408.34" width="148.76" height="73.43"/><text class="b63fc88f-7596-4b3f-93d2-dfc795d56489" transform="translate(668.9 425.21)">Break eligible applications <tspan x="-5.22" y="12">into pools by type of project </tspan><tspan x="9.94" y="24">(replacement vehicle, </tspan><tspan x="0.53" y="36">expansion vehicle, capital </tspan><tspan x="30.37" y="48">construction)</tspan></text><rect class="ef3f6728-8df3-4c9a-aade-a2f315dfbb42" x="1184.76" y="408.34" width="148.76" height="40.39"/><text class="b63fc88f-7596-4b3f-93d2-dfc795d56489" transform="translate(1200.37 425.21)">Reallocate projects/funds <tspan x="19.03" y="12">based on changes</tspan></text><rect class="ef3f6728-8df3-4c9a-aade-a2f315dfbb42" x="1184.76" y="511.78" width="148.76" height="62.66"/><text class="b63fc88f-7596-4b3f-93d2-dfc795d56489" transform="translate(1206.55 528.65)"><tspan class="e7f5c770-2bf3-4704-adc7-81eab32953ee">P</tspan><tspan x="5.4" y="0">ool (allocate) highest- </tspan><tspan class="ad11f489-027d-4105-9795-7c5d3ce8e1b7" x="10.6" y="12">r</tspan><tspan x="14.56" y="12">anked projects to </tspan><tspan x="7.18" y="25">appropriate funding </tspan><tspan x="32.33" y="37">prog</tspan><tspan class="ad11f489-027d-4105-9795-7c5d3ce8e1b7" x="53.11" y="37">r</tspan><tspan x="57.07" y="37">ams </tspan></text><rect class="ef3f6728-8df3-4c9a-aade-a2f315dfbb42" x="1378.32" y="511.84" width="122.69" height="64.02"/><text class="b63fc88f-7596-4b3f-93d2-dfc795d56489" transform="translate(1389.4 534.66)">Send proposed<tspan class="bbd630db-aa47-4335-9cf6-6fa5e845f5ed" x="68.68" y="0"> </tspan><tspan class="b0ff80a3-19a3-4d7d-8c75-98b5bf48bf7f" x="71.14" y="0">A</tspan><tspan x="77.29" y="0">ward </tspan><tspan x="1.45" y="12">list for each prog</tspan><tspan class="ad11f489-027d-4105-9795-7c5d3ce8e1b7" x="81.21" y="12">r</tspan><tspan x="85.17" y="12">am </tspan><tspan x="13.9" y="24">to DTR Director</tspan></text><rect class="ef3f6728-8df3-4c9a-aade-a2f315dfbb42" x="1378.32" y="749.01" width="122.69" height="64.02"/><text class="b63fc88f-7596-4b3f-93d2-dfc795d56489" transform="translate(1394.22 776.05)">Re<tspan class="a56e3890-81e5-42ea-b690-7fe137439e2f" x="11.86" y="0">v</tspan><tspan x="17.44" y="0">iew and consult </tspan><tspan x="7.45" y="12">CAS</tspan><tspan class="f4d24c17-30ca-4888-b190-9fd7bdaa967c" x="25.01" y="12">T</tspan><tspan class="bbd630db-aa47-4335-9cf6-6fa5e845f5ed" x="30.19" y="12">A</tspan><tspan x="35.97" y="12" xml:space="preserve"> if needed</tspan></text><rect class="ef3f6728-8df3-4c9a-aade-a2f315dfbb42" x="1378.32" y="94.82" width="122.69" height="64.02"/><text class="b63fc88f-7596-4b3f-93d2-dfc795d56489" transform="translate(1404.93 117.64)"><tspan class="b0ff80a3-19a3-4d7d-8c75-98b5bf48bf7f">W</tspan><tspan x="8.66" y="0">ork with DTR </tspan><tspan x="-2.19" y="12">Prog</tspan><tspan class="ad11f489-027d-4105-9795-7c5d3ce8e1b7" x="18.63" y="12">r</tspan><tspan x="22.59" y="12">amming to </tspan><tspan x="3.11" y="24">amend</tspan><tspan class="bbd630db-aa47-4335-9cf6-6fa5e845f5ed" x="34.49" y="24"> </tspan><tspan class="b0ff80a3-19a3-4d7d-8c75-98b5bf48bf7f" x="36.95" y="24">A</tspan><tspan x="43.1" y="24">ward</tspan></text><rect class="ef3f6728-8df3-4c9a-aade-a2f315dfbb42" x="1849.41" y="99.78" width="85.69" height="52.37"/><text class="b63fc88f-7596-4b3f-93d2-dfc795d56489" transform="translate(1880.49 115.64)">Send <tspan x="-24.93" y="13">confirmation of </tspan><tspan x="-15.31" y="25">acceptance</tspan></text><rect class="aa1c8a08-43e2-41ca-b7ac-0746a8999538" x="2016.51" y="99.78" width="85.69" height="52.37"/><text class="f2098163-41fd-4e73-8b8f-1ea90b6c3819" transform="translate(2029.04 116.64)">If in an MPO, <tspan x="-5.34" y="12">work with MPO </tspan><tspan x="-2.33" y="24">to</tspan><tspan class="b0ff80a3-19a3-4d7d-8c75-98b5bf48bf7f" x="7.3" y="24"> </tspan><tspan x="10.13" y="24">TI</tspan><tspan class="b0ff80a3-19a3-4d7d-8c75-98b5bf48bf7f" x="19.03" y="24">P</tspan><tspan x="24.72" y="24" xml:space="preserve"> project</tspan></text><rect class="aa1c8a08-43e2-41ca-b7ac-0746a8999538" x="2194.39" y="241.5" width="85.69" height="52.37"/><text class="f2098163-41fd-4e73-8b8f-1ea90b6c3819" transform="translate(2219.93 258.36)">Initiate <tspan x="-5.87" y="12">Subaward </tspan><tspan x="-18.3" y="24">Appeal process</tspan></text><rect class="ef3f6728-8df3-4c9a-aade-a2f315dfbb42" x="1922.72" y="355.86" width="96.71" height="52.37"/><text class="b63fc88f-7596-4b3f-93d2-dfc795d56489" transform="translate(1938.37 371.71)">File accepted <tspan class="b0ff80a3-19a3-4d7d-8c75-98b5bf48bf7f" x="-9.8" y="12">A</tspan><tspan x="-3.65" y="12">ward letter with </tspan><tspan x="1.56" y="24">confirmation</tspan></text><rect class="ef3f6728-8df3-4c9a-aade-a2f315dfbb42" x="1922.72" y="422.32" width="96.71" height="57.62"/><text class="b63fc88f-7596-4b3f-93d2-dfc795d56489" transform="translate(1943.63 435.17)">Issue public <tspan x="-5.93" y="12">notification of </tspan><tspan class="b0ff80a3-19a3-4d7d-8c75-98b5bf48bf7f" x="10.48" y="24">A</tspan><tspan x="16.63" y="24">wards </tspan><tspan x="-10.68" y="37">(website, email)</tspan></text><rect class="ef3f6728-8df3-4c9a-aade-a2f315dfbb42" x="654.89" y="524.65" width="148.76" height="35.9"/><text class="b63fc88f-7596-4b3f-93d2-dfc795d56489" transform="translate(687.21 539.52)">Check SAM.gov for <tspan x="-13.99" y="13">suspensions/debarments</tspan></text><rect class="ef3f6728-8df3-4c9a-aade-a2f315dfbb42" x="832" y="524.65" width="148.76" height="35.9"/><text class="b63fc88f-7596-4b3f-93d2-dfc795d56489" transform="translate(861.33 539.52)">Give applications to <tspan x="-11.24" y="13">Evaluation Committee(s)</tspan></text><rect class="ef3f6728-8df3-4c9a-aade-a2f315dfbb42" x="364.29" y="418.57" width="73.21" height="51.39"/><text class="b63fc88f-7596-4b3f-93d2-dfc795d56489" transform="translate(383.21 435.44)">Re<tspan class="a56e3890-81e5-42ea-b690-7fe137439e2f" x="11.86" y="0">v</tspan><tspan x="17.44" y="0">iew </tspan><tspan x="-11.08" y="12">applications </tspan><tspan x="-13.17" y="24">for eligibility</tspan></text><rect class="ef3f6728-8df3-4c9a-aade-a2f315dfbb42" x="656.28" y="88.29" width="98.22" height="47.9"/><text class="b63fc88f-7596-4b3f-93d2-dfc795d56489" transform="translate(671.02 103.16)">Reevaluate for <tspan x="-7.82" y="12">future application </tspan><tspan x="22.24" y="24">cycle</tspan></text><rect class="ef3f6728-8df3-4c9a-aade-a2f315dfbb42" x="513.7" y="338.48" width="94.29" height="22.3"/><text class="b63fc88f-7596-4b3f-93d2-dfc795d56489" transform="translate(522.15 352.32)">Notify applicant</text><rect class="ef3f6728-8df3-4c9a-aade-a2f315dfbb42" x="978.99" y="892.16" width="101.7" height="59.16"/><text class="b63fc88f-7596-4b3f-93d2-dfc795d56489" transform="translate(993.96 907.07)">Re<tspan class="a56e3890-81e5-42ea-b690-7fe137439e2f" x="11.86" y="0">v</tspan><tspan x="17.44" y="0">iew agency </tspan><tspan x="-0.97" y="12">profile for Ci</tspan><tspan class="a56e3890-81e5-42ea-b690-7fe137439e2f" x="58.92" y="12">v</tspan><tspan x="64.51" y="12">il </tspan><tspan x="-5.84" y="24">Rights and equity </tspan><tspan x="0.92" y="36">conside</tspan><tspan class="ad11f489-027d-4105-9795-7c5d3ce8e1b7" x="36.45" y="36">r</tspan><tspan x="40.41" y="36">ations</tspan></text><rect class="ef3f6728-8df3-4c9a-aade-a2f315dfbb42" x="978.99" y="1012.38" width="101.7" height="59.16"/><text class="b63fc88f-7596-4b3f-93d2-dfc795d56489" transform="translate(987.61 1027.28)">Re<tspan class="a56e3890-81e5-42ea-b690-7fe137439e2f" x="11.86" y="0">v</tspan><tspan x="17.44" y="0">iew and score </tspan><tspan x="13" y="12">applications </tspan><tspan x="-1.73" y="24">according to NO</tspan><tspan class="bbd630db-aa47-4335-9cf6-6fa5e845f5ed" x="72.83" y="24">FA</tspan><tspan x="83.9" y="24"> </tspan><tspan x="23.75" y="36">criteria</tspan></text><line class="a42430d2-0883-46b9-b318-47280894d59e" x1="64.85" y1="1098.47" x2="64.85" y2="69.02"/><polygon class="a42430d2-0883-46b9-b318-47280894d59e" points="2367.44 1098.76 18.33 1098.76 18.33 69.13 75.1 69.13 2367.44 69.13 2367.44 1098.76"/><circle class="b255b5a7-bf89-4608-ac36-0338b77fbe0f" cx="2080.16" cy="661.22" r="22.5"/><text class="bb21e470-ee9c-457e-b66e-4a20a7305a22" transform="translate(2067.85 658.39)">3-9</text><text class="bb21e470-ee9c-457e-b66e-4a20a7305a22" transform="translate(2063.16 673.68)">3-10</text><circle class="b255b5a7-bf89-4608-ac36-0338b77fbe0f" cx="2341.44" cy="267.66" r="22.5"/><text class="bb21e470-ee9c-457e-b66e-4a20a7305a22" transform="translate(2329.13 273.61)">3-5</text><circle class="b255b5a7-bf89-4608-ac36-0338b77fbe0f" cx="2162.91" cy="125.96" r="22.5"/><text class="bb21e470-ee9c-457e-b66e-4a20a7305a22" transform="translate(2150.6 131.91)">3-7</text><text class="b63fc88f-7596-4b3f-93d2-dfc795d56489" transform="translate(1582.99 774.1)">Approve <tspan x="-5.62" y="12">award list? </tspan><tspan x="2.2" y="25">YES/NO</tspan></text><rect class="ef3f6728-8df3-4c9a-aade-a2f315dfbb42" x="1575.82" y="755.63" width="53.26" height="53.26" transform="translate(-83.8 1362.23) rotate(-45)"/><text class="b63fc88f-7596-4b3f-93d2-dfc795d56489" transform="translate(1678.73 119.54)">Accept or <tspan x="7.35" y="12">Reject </tspan><tspan class="b0ff80a3-19a3-4d7d-8c75-98b5bf48bf7f" x="7.83" y="24">A</tspan><tspan x="13.98" y="24">ward</tspan></text><rect class="ef3f6728-8df3-4c9a-aade-a2f315dfbb42" x="1675.19" y="99.07" width="53.26" height="53.26" transform="translate(409.57 1240.18) rotate(-45)"/><rect class="bcb9fca5-3f94-4fd1-859f-7e99dfe35ae3" x="484.04" y="104.4" width="31.28" height="17.57"/><text class="f2098163-41fd-4e73-8b8f-1ea90b6c3819" transform="translate(491.21 115.93)">YES</text><rect class="bcb3d62e-ed93-4ec6-9b9c-64eeb59e52e8" x="608.52" y="103.42" width="26.58" height="17.57"/><text class="f2098163-41fd-4e73-8b8f-1ea90b6c3819" transform="translate(614.99 115.95)">NO</text><text class="b63fc88f-7596-4b3f-93d2-dfc795d56489" transform="translate(536.37 114.19)">Resubmit? <tspan x="6.63" y="13">YES/NO</tspan></text><rect class="ef3f6728-8df3-4c9a-aade-a2f315dfbb42" x="535.1" y="88.06" width="50.35" height="50.35" transform="translate(84.03 429.34) rotate(-45)"/><rect class="bcb9fca5-3f94-4fd1-859f-7e99dfe35ae3" x="545.61" y="382.95" width="31.28" height="17.57"/><text class="f2098163-41fd-4e73-8b8f-1ea90b6c3819" transform="translate(552.78 395.48)">YES</text><rect class="bcb9fca5-3f94-4fd1-859f-7e99dfe35ae3" x="602.3" y="435.79" width="31.28" height="17.57"/><text class="f2098163-41fd-4e73-8b8f-1ea90b6c3819" transform="translate(609.47 448.32)">YES</text><text class="b63fc88f-7596-4b3f-93d2-dfc795d56489" transform="translate(541.02 441.49)">Eligible? <tspan x="1.99" y="13">YES/NO</tspan></text><rect class="ef3f6728-8df3-4c9a-aade-a2f315dfbb42" x="535.1" y="420.37" width="50.35" height="50.35" transform="translate(-150.95 526.67) rotate(-45)"/><text class="e71324ba-3fe7-4b9d-9aaf-065a5f528c5a" transform="translate(145.37 186.24)"><tspan xml:space="preserve">•  </tspan><tspan class="a5b52e8e-474e-46a9-bd9e-1c0a2bd8626e" x="7.06" y="0">Project</tspan><tspan x="0" y="17" xml:space="preserve">•  </tspan><tspan class="a5b52e8e-474e-46a9-bd9e-1c0a2bd8626e" x="7.06" y="17">Budget</tspan><tspan x="0" y="34" xml:space="preserve">•  </tspan><tspan class="a5b52e8e-474e-46a9-bd9e-1c0a2bd8626e" x="7.06" y="34">Ltrs of support</tspan><tspan x="0" y="51" xml:space="preserve">•  </tspan><tspan class="a5b52e8e-474e-46a9-bd9e-1c0a2bd8626e" x="7.06" y="51">Other docs</tspan><tspan x="0" y="68" xml:space="preserve">•  </tspan><tspan class="a5b52e8e-474e-46a9-bd9e-1c0a2bd8626e" x="7.06" y="68">Screenshot of SAM.gov</tspan><tspan x="0" y="85" xml:space="preserve">•  </tspan><tspan class="a5b52e8e-474e-46a9-bd9e-1c0a2bd8626e" x="7.06" y="85">DUNS</tspan><tspan x="0" y="102" xml:space="preserve">•  </tspan><tspan class="a5b52e8e-474e-46a9-bd9e-1c0a2bd8626e" x="7.06" y="102">Annual budgets past 3 yrs</tspan><tspan x="0" y="119" xml:space="preserve">•  </tspan><tspan class="a5b52e8e-474e-46a9-bd9e-1c0a2bd8626e" x="7.06" y="119">Audited financial statement</tspan></text><rect class="f0e8af61-fa3d-4625-83d2-c18f0203ef58" x="138.85" y="170.03" width="150.49" height="143.34"/><line class="f0e8af61-fa3d-4625-83d2-c18f0203ef58" x1="214.34" y1="133.6" x2="214.34" y2="162.09"/><polygon class="a00c57b1-1dab-40e6-9fec-bef5cc569f72" points="210.35 160.93 214.34 167.83 218.33 160.93 210.35 160.93"/><polyline class="ef3f6728-8df3-4c9a-aade-a2f315dfbb42" points="906.38 560.42 906.38 921.82 968.05 921.82"/><polygon class="a00c57b1-1dab-40e6-9fec-bef5cc569f72" points="966.29 927.8 976.66 921.82 966.29 915.84 966.29 927.8"/><polyline class="ef3f6728-8df3-4c9a-aade-a2f315dfbb42" points="1891.57 151.86 1891.57 381.31 1912.17 381.31"/><polygon class="a00c57b1-1dab-40e6-9fec-bef5cc569f72" points="1910.41 387.29 1920.78 381.31 1910.41 375.32 1910.41 387.29"/><polyline class="ef3f6728-8df3-4c9a-aade-a2f315dfbb42" points="1891.57 221.44 1891.57 450.89 1912.17 450.89"/><polygon class="a00c57b1-1dab-40e6-9fec-bef5cc569f72" points="1910.41 456.88 1920.78 450.89 1910.41 444.91 1910.41 456.88"/><rect class="ef3f6728-8df3-4c9a-aade-a2f315dfbb42" x="1922.72" y="569.01" width="96.71" height="47.87"/><text class="b63fc88f-7596-4b3f-93d2-dfc795d56489" transform="translate(1938.26 584.5)">Notify CRBRC, <tspan x="-5.11" y="12">Accounting, and </tspan><tspan x="-4.54" y="24">DTR G</tspan><tspan class="ad11f489-027d-4105-9795-7c5d3ce8e1b7" x="23.84" y="24">r</tspan><tspan x="27.8" y="24">ants Unit</tspan></text><polyline class="ef3f6728-8df3-4c9a-aade-a2f315dfbb42" points="1891.57 363.75 1891.57 593.2 1912.17 593.2"/><polygon class="a00c57b1-1dab-40e6-9fec-bef5cc569f72" points="1910.41 599.19 1920.78 593.2 1910.41 587.22 1910.41 599.19"/><rect class="aa1c8a08-43e2-41ca-b7ac-0746a8999538" x="1922.72" y="628.96" width="96.71" height="65.12"/><text class="f2098163-41fd-4e73-8b8f-1ea90b6c3819" transform="translate(1934.99 645.44)">Start Budgeting <tspan x="18.36" y="12">process </tspan><tspan x="19.28" y="25">(F</tspan><tspan class="f4d24c17-30ca-4888-b190-9fd7bdaa967c" x="28.78" y="25">T</tspan><tspan class="bbd630db-aa47-4335-9cf6-6fa5e845f5ed" x="33.96" y="25">A</tspan><tspan x="39.74" y="25" xml:space="preserve"> or </tspan><tspan x="6.96" y="38">non-fede</tspan><tspan class="ad11f489-027d-4105-9795-7c5d3ce8e1b7" x="49.09" y="38">r</tspan><tspan x="53.05" y="38">al)</tspan></text><polyline class="ef3f6728-8df3-4c9a-aade-a2f315dfbb42" points="1891.57 432.52 1891.57 661.97 1912.17 661.97"/><polygon class="a00c57b1-1dab-40e6-9fec-bef5cc569f72" points="1910.41 667.95 1920.78 661.97 1910.41 655.98 1910.41 667.95"/><line class="ef3f6728-8df3-4c9a-aade-a2f315dfbb42" x1="2020" y1="661.97" x2="2047.92" y2="661.97"/><polygon class="a00c57b1-1dab-40e6-9fec-bef5cc569f72" points="2046.17 667.95 2056.53 661.97 2046.17 655.98 2046.17 667.95"/><line class="ef3f6728-8df3-4c9a-aade-a2f315dfbb42" x1="2102.15" y1="126.22" x2="2130.07" y2="126.22"/><polygon class="a00c57b1-1dab-40e6-9fec-bef5cc569f72" points="2128.32 132.2 2138.68 126.22 2128.32 120.23 2128.32 132.2"/><line class="ef3f6728-8df3-4c9a-aade-a2f315dfbb42" x1="2280.98" y1="268.91" x2="2308.9" y2="268.91"/><polygon class="a00c57b1-1dab-40e6-9fec-bef5cc569f72" points="2307.15 274.9 2317.52 268.91 2307.15 262.93 2307.15 274.9"/><rect class="ef3f6728-8df3-4c9a-aade-a2f315dfbb42" x="1922.72" y="500.42" width="96.71" height="48.78"/><text class="b63fc88f-7596-4b3f-93d2-dfc795d56489" transform="translate(1936.38 515.9)">Send letters to <tspan x="5" y="12">unsuccessful </tspan><tspan x="10.82" y="24">applicants</tspan></text><polyline class="ef3f6728-8df3-4c9a-aade-a2f315dfbb42" points="1891.57 295.54 1891.57 524.99 1912.17 524.99"/><polygon class="a00c57b1-1dab-40e6-9fec-bef5cc569f72" points="1910.41 530.97 1920.78 524.99 1910.41 519 1910.41 530.97"/><line class="ef3f6728-8df3-4c9a-aade-a2f315dfbb42" x1="1439.37" y1="576.36" x2="1439.37" y2="738.59"/><polygon class="a00c57b1-1dab-40e6-9fec-bef5cc569f72" points="1433.39 736.84 1439.37 747.21 1445.35 736.84 1433.39 736.84"/><polyline class="ef3f6728-8df3-4c9a-aade-a2f315dfbb42" points="1259.3 585.34 1259.3 1042.01 1218.34 1042.01"/><polygon class="a00c57b1-1dab-40e6-9fec-bef5cc569f72" points="1253.32 587.09 1259.3 576.73 1265.28 587.09 1253.32 587.09"/><polyline class="ef3f6728-8df3-4c9a-aade-a2f315dfbb42" points="906.38 886.51 906.38 1042.8 968.05 1042.8"/><polygon class="a00c57b1-1dab-40e6-9fec-bef5cc569f72" points="966.29 1048.78 976.66 1042.8 966.29 1036.82 966.29 1048.78"/><rect class="ef3f6728-8df3-4c9a-aade-a2f315dfbb42" x="1116.07" y="1012.38" width="101.7" height="59.16"/><text class="b63fc88f-7596-4b3f-93d2-dfc795d56489" transform="translate(1136.18 1034.93)">Submit list of <tspan class="ad11f489-027d-4105-9795-7c5d3ce8e1b7" x="-12.23" y="12">r</tspan><tspan x="-8.27" y="12">anked projects to </tspan><tspan x="-10.45" y="24">DTR Prog</tspan><tspan class="ad11f489-027d-4105-9795-7c5d3ce8e1b7" x="32.03" y="24">r</tspan><tspan x="35.99" y="24">amming</tspan></text><line class="ef3f6728-8df3-4c9a-aade-a2f315dfbb42" x1="1080.66" y1="1042.8" x2="1105.13" y2="1042.8"/><polygon class="a00c57b1-1dab-40e6-9fec-bef5cc569f72" points="1103.38 1048.78 1113.74 1042.8 1103.38 1036.82 1103.38 1048.78"/><circle class="b255b5a7-bf89-4608-ac36-0338b77fbe0f" cx="97.74" cy="112.43" r="22.5"/><text class="bb21e470-ee9c-457e-b66e-4a20a7305a22" transform="translate(85.43 118.3)">3-2</text><polyline class="ef3f6728-8df3-4c9a-aade-a2f315dfbb42" points="270.58 113.13 314.48 113.13 314.48 441.27 354.23 441.27"/><polygon class="a00c57b1-1dab-40e6-9fec-bef5cc569f72" points="352.48 447.26 362.84 441.27 352.48 435.29 352.48 447.26"/><polyline class="ef3f6728-8df3-4c9a-aade-a2f315dfbb42" points="803.63 442.5 906.77 442.5 906.77 512.19"/><polygon class="a00c57b1-1dab-40e6-9fec-bef5cc569f72" points="900.79 510.44 906.77 520.8 912.75 510.44 900.79 510.44"/><line class="ef3f6728-8df3-4c9a-aade-a2f315dfbb42" x1="400.36" y1="418.16" x2="400.36" y2="145.28"/><polygon class="a00c57b1-1dab-40e6-9fec-bef5cc569f72" points="406.34 147.04 400.36 136.67 394.38 147.04 406.34 147.04"/><line class="ef3f6728-8df3-4c9a-aade-a2f315dfbb42" x1="1501.21" y1="782.05" x2="1554.76" y2="782.05"/><polygon class="a00c57b1-1dab-40e6-9fec-bef5cc569f72" points="1553.01 788.03 1563.37 782.05 1553.01 776.06 1553.01 788.03"/><polyline class="ef3f6728-8df3-4c9a-aade-a2f315dfbb42" points="2017.73 524.59 2079.89 524.59 2079.89 318.3"/><polygon class="a00c57b1-1dab-40e6-9fec-bef5cc569f72" points="2085.88 320.05 2079.89 309.69 2073.91 320.05 2085.88 320.05"/><text class="b63fc88f-7596-4b3f-93d2-dfc795d56489" transform="translate(2062.77 264.57)">Appeal? <tspan x="0.92" y="13">YES/NO</tspan></text><rect class="ef3f6728-8df3-4c9a-aade-a2f315dfbb42" x="2054.34" y="242.11" width="53.26" height="53.26" transform="translate(419.47 1550.18) rotate(-45)"/><line class="ef3f6728-8df3-4c9a-aade-a2f315dfbb42" x1="1664.16" y1="126.19" x2="1510.87" y2="126.19"/><polygon class="a00c57b1-1dab-40e6-9fec-bef5cc569f72" points="1512.62 120.2 1502.26 126.19 1512.62 132.17 1512.62 120.2"/><rect class="bcb3d62e-ed93-4ec6-9b9c-64eeb59e52e8" x="1561.22" y="116.93" width="46.38" height="17.57"/><text class="f2098163-41fd-4e73-8b8f-1ea90b6c3819" transform="translate(1567.31 128.46)">REJEC<tspan class="b0ff80a3-19a3-4d7d-8c75-98b5bf48bf7f" x="28.93" y="0">T</tspan></text><line class="ef3f6728-8df3-4c9a-aade-a2f315dfbb42" x1="1738.06" y1="125.97" x2="1837.89" y2="125.97"/><polygon class="a00c57b1-1dab-40e6-9fec-bef5cc569f72" points="1836.13 131.96 1846.5 125.97 1836.13 119.99 1836.13 131.96"/><line class="ef3f6728-8df3-4c9a-aade-a2f315dfbb42" x1="1935.18" y1="125.97" x2="2006.07" y2="125.97"/><polygon class="a00c57b1-1dab-40e6-9fec-bef5cc569f72" points="2004.32 131.96 2014.68 125.97 2004.32 119.99 2004.32 131.96"/><line class="ef3f6728-8df3-4c9a-aade-a2f315dfbb42" x1="2118.92" y1="268.65" x2="2183.88" y2="268.65"/><polygon class="a00c57b1-1dab-40e6-9fec-bef5cc569f72" points="2182.13 274.63 2192.49 268.65 2182.13 262.66 2182.13 274.63"/><rect class="bcb9fca5-3f94-4fd1-859f-7e99dfe35ae3" x="1760.16" y="116.93" width="51.37" height="17.57"/><text class="f2098163-41fd-4e73-8b8f-1ea90b6c3819" transform="translate(1768.09 129.46)">ACCEP<tspan class="b0ff80a3-19a3-4d7d-8c75-98b5bf48bf7f" x="30.13" y="0">T</tspan></text><rect class="bcb9fca5-3f94-4fd1-859f-7e99dfe35ae3" x="2132.87" y="258.82" width="31.28" height="17.57"/><text class="f2098163-41fd-4e73-8b8f-1ea90b6c3819" transform="translate(2140.04 270.35)">YES</text></g></svg>