<svg xmlns="http://www.w3.org/2000/svg" viewBox="0 0 1418.33 777.87"><defs><style>.b055743f-1c49-4527-8c7b-e1bc84f2a374,.ed33a224-1d5f-49ad-9e4a-2a0b966c4134,.f5508546-d758-47f0-b6ad-95c4994cc820{fill:none;stroke:#646464;stroke-miterlimit:10;}.f5508546-d758-47f0-b6ad-95c4994cc820{stroke-width:2px;}.a4f31fdf-297b-4ed9-b811-3da04d9a7249,.aa0101a1-e98c-4b51-84cd-c2f173b03302,.b27b3157-b26c-4213-baf7-164b7eebcc5c,.b3ecc1a6-8ad8-46fb-a390-e6f8e6dd1d4b{fill:#646464;}.b1e5e728-846c-4868-b632-ca1a8533f5f2{fill:#3eaf49;}.a4f31fdf-297b-4ed9-b811-3da04d9a7249,.bcfb8bb9-43b7-4516-b22a-100a250f826d{font-size:10px;}.a93c44fe-47e6-4401-b808-ee7b8cf2025c,.bcfb8bb9-43b7-4516-b22a-100a250f826d{fill:#fff;}.a4f31fdf-297b-4ed9-b811-3da04d9a7249,.a93c44fe-47e6-4401-b808-ee7b8cf2025c,.aa0101a1-e98c-4b51-84cd-c2f173b03302,.b3ecc1a6-8ad8-46fb-a390-e6f8e6dd1d4b,.bcfb8bb9-43b7-4516-b22a-100a250f826d{font-family:TrebuchetMS-Bold, Trebuchet MS;font-weight:700;}.aa0101a1-e98c-4b51-84cd-c2f173b03302{font-size:24px;}.f5e3f26e-e330-488c-8360-ef5babc3173e{letter-spacing:-0.09em;}.f28d3511-9593-4914-9da8-999e9ae44e6f{letter-spacing:-0.06em;}.ffc77da0-5dd4-4f18-a9de-612d5afa3d1a{letter-spacing:-0.02em;}.a1163763-53f4-4dae-961a-f4d313dc94ff,.af52f60b-e0ac-4788-8753-defb776fc58b{fill:#009add;}.a93c44fe-47e6-4401-b808-ee7b8cf2025c{font-size:16px;}.b3ecc1a6-8ad8-46fb-a390-e6f8e6dd1d4b{font-size:11px;}.a56c3bd0-51fe-4fef-a835-e7197b3e8479{letter-spacing:-0.03em;}.b6d1d4d8-bf88-4fc6-a238-e51e5caa6819{letter-spacing:-0.1em;}.f5872066-4218-4cd8-9e2f-48fa1efd9872{letter-spacing:0.03em;}.a1163763-53f4-4dae-961a-f4d313dc94ff{fill-rule:evenodd;}.b055743f-1c49-4527-8c7b-e1bc84f2a374{stroke-width:0.5px;stroke-dasharray:5 3;}.b7a59bed-47f5-4f15-818a-effa320479e0{letter-spacing:-0.05em;}.b01e9c29-3372-436b-bb68-9acec8a1dc3a{fill:#d23138;}</style></defs><title>CDOT_diagrams_CH3</title><g id="f5a35002-1ac4-4ce3-b6e4-a876a40acb7f" data-name="shapes"><path class="f5508546-d758-47f0-b6ad-95c4994cc820" d="M384.88,473.65H661.59a6.05,6.05,0,0,1,12.1,0H811.06V441.71"/><polyline class="f5508546-d758-47f0-b6ad-95c4994cc820" points="926.03 690.35 667.95 690.35 667.95 453.01"/><polygon class="b27b3157-b26c-4213-baf7-164b7eebcc5c" points="673.93 454.76 667.95 444.4 661.97 454.76 673.93 454.76"/></g><g id="aa11d6b0-da87-446f-8daa-b5c567f154c5" data-name="text"><line class="f5508546-d758-47f0-b6ad-95c4994cc820" x1="847.79" y1="240.2" x2="922.65" y2="240.2"/><polygon class="b27b3157-b26c-4213-baf7-164b7eebcc5c" points="920.9 246.18 931.26 240.2 920.9 234.22 920.9 246.18"/><line class="f5508546-d758-47f0-b6ad-95c4994cc820" x1="1171.4" y1="240.2" x2="1275.57" y2="240.2"/><polygon class="b27b3157-b26c-4213-baf7-164b7eebcc5c" points="1273.82 246.18 1284.18 240.2 1273.82 234.22 1273.82 246.18"/><rect class="b1e5e728-846c-4868-b632-ca1a8533f5f2" x="855.89" y="231.15" width="57.18" height="17.57"/><text class="bcfb8bb9-43b7-4516-b22a-100a250f826d" transform="translate(863.51 243.68)">APPROVE</text><line class="f5508546-d758-47f0-b6ad-95c4994cc820" x1="1020.37" y1="690.14" x2="1095.22" y2="690.14"/><polygon class="b27b3157-b26c-4213-baf7-164b7eebcc5c" points="1093.47 696.13 1103.83 690.14 1093.47 684.16 1093.47 696.13"/><line class="f5508546-d758-47f0-b6ad-95c4994cc820" x1="1174.09" y1="690.14" x2="1198.45" y2="690.14"/><polygon class="b27b3157-b26c-4213-baf7-164b7eebcc5c" points="1196.7 696.13 1207.06 690.14 1196.7 684.16 1196.7 696.13"/><line class="f5508546-d758-47f0-b6ad-95c4994cc820" x1="1317.14" y1="690.14" x2="1328.42" y2="690.14"/><polygon class="b27b3157-b26c-4213-baf7-164b7eebcc5c" points="1326.67 696.13 1337.03 690.14 1326.67 684.16 1326.67 696.13"/><rect class="b1e5e728-846c-4868-b632-ca1a8533f5f2" x="1026.46" y="681.1" width="57.18" height="17.57"/><text class="bcfb8bb9-43b7-4516-b22a-100a250f826d" transform="translate(1034.08 693.63)">APPROVE</text><text class="aa0101a1-e98c-4b51-84cd-c2f173b03302" transform="translate(18.5 35.72)">3-13 F<tspan class="f5e3f26e-e330-488c-8360-ef5babc3173e" x="72.23" y="0">T</tspan><tspan class="f28d3511-9593-4914-9da8-999e9ae44e6f" x="84.64" y="0">A </tspan><tspan class="ffc77da0-5dd4-4f18-a9de-612d5afa3d1a" x="104.43" y="0">A</tspan><tspan x="119.19" y="0">ward</tspan><tspan class="f28d3511-9593-4914-9da8-999e9ae44e6f" x="174.97" y="0"> </tspan><tspan x="180.88" y="0">Application</tspan></text><line class="ed33a224-1d5f-49ad-9e4a-2a0b966c4134" x1="64.85" y1="752.34" x2="64.85" y2="69"/><polygon class="f5508546-d758-47f0-b6ad-95c4994cc820" points="1400.49 752.62 18.4 752.62 18.4 68.89 51.8 68.89 1400.49 68.89 1400.49 752.62"/><circle class="af52f60b-e0ac-4788-8753-defb776fc58b" cx="1361.33" cy="689.92" r="22.5"/><text class="a93c44fe-47e6-4401-b808-ee7b8cf2025c" transform="translate(1344.34 696)">3-14</text><text class="b3ecc1a6-8ad8-46fb-a390-e6f8e6dd1d4b" transform="translate(44.66 449.11) rotate(-90)">DTR Prog<tspan class="a56c3bd0-51fe-4fef-a835-e7197b3e8479" x="46.73" y="0">r</tspan><tspan x="51.09" y="0">amming Unit</tspan></text><text class="b3ecc1a6-8ad8-46fb-a390-e6f8e6dd1d4b" transform="translate(44.66 572.34) rotate(-90)">MPO</text><text class="b3ecc1a6-8ad8-46fb-a390-e6f8e6dd1d4b" transform="translate(44.66 700.37) rotate(-90)">F<tspan class="f5e3f26e-e330-488c-8360-ef5babc3173e" x="6.42" y="0">T</tspan><tspan class="f28d3511-9593-4914-9da8-999e9ae44e6f" x="12.11" y="0">A</tspan></text><text class="b3ecc1a6-8ad8-46fb-a390-e6f8e6dd1d4b" transform="translate(44.66 287.79) rotate(-90)">DTR Planning Unit</text><text class="b3ecc1a6-8ad8-46fb-a390-e6f8e6dd1d4b" transform="translate(44.66 144.16) rotate(-90)">CDO<tspan class="ffc77da0-5dd4-4f18-a9de-612d5afa3d1a" x="21.53" y="0">T</tspan></text><text class="a4f31fdf-297b-4ed9-b811-3da04d9a7249" transform="translate(151.5 105.82)">Prepare:<tspan x="0" y="13" xml:space="preserve">•   Statewide &amp; Regional </tspan><tspan x="0" y="25">ITS</tspan><tspan class="f28d3511-9593-4914-9da8-999e9ae44e6f" x="14.01" y="25"> </tspan><tspan x="16.47" y="25">Architecture</tspan><tspan x="0" y="38" xml:space="preserve">•   Mobility</tspan></text><text class="a4f31fdf-297b-4ed9-b811-3da04d9a7249" transform="translate(87.97 229.59)">Prepare Statewide <tspan class="b6d1d4d8-bf88-4fc6-a238-e51e5caa6819" x="-2.17" y="12">T</tspan><tspan class="a56c3bd0-51fe-4fef-a835-e7197b3e8479" x="2.93" y="12">r</tspan><tspan x="6.89" y="12">ansit Plan (SWTP)</tspan></text><text class="a4f31fdf-297b-4ed9-b811-3da04d9a7249" transform="translate(167.34 404.16)">Prepare Prog<tspan class="a56c3bd0-51fe-4fef-a835-e7197b3e8479" x="60.89" y="0">r</tspan><tspan x="64.85" y="0">am </tspan><tspan x="-0.66" y="12">of Projects (POP) </tspan><tspan x="13.58" y="24">(COTRAMS)</tspan></text><text class="a4f31fdf-297b-4ed9-b811-3da04d9a7249" transform="translate(190.02 532.52)">Prepare:<tspan x="-30.09" y="13">5310 Human Ser</tspan><tspan class="f5872066-4218-4cd8-9e2f-48fa1efd9872" x="47.08" y="13">v</tspan><tspan x="52.66" y="13">ices </tspan><tspan class="b6d1d4d8-bf88-4fc6-a238-e51e5caa6819" x="-25.24" y="25">T</tspan><tspan class="a56c3bd0-51fe-4fef-a835-e7197b3e8479" x="-20.15" y="25">r</tspan><tspan x="-16.19" y="25">ansportation Plan </tspan><tspan x="4.73" y="37">(HSTP)</tspan></text><text class="a4f31fdf-297b-4ed9-b811-3da04d9a7249" transform="translate(308.79 529.95)">Amend:<tspan x="0" y="13" xml:space="preserve">•  Unified Planning </tspan><tspan class="ffc77da0-5dd4-4f18-a9de-612d5afa3d1a" x="91.05" y="13">W</tspan><tspan x="99.71" y="13">ork </tspan><tspan x="0" y="25">Prog</tspan><tspan class="a56c3bd0-51fe-4fef-a835-e7197b3e8479" x="20.82" y="25">r</tspan><tspan x="24.78" y="25">am (UPWP)</tspan><tspan x="0" y="38" xml:space="preserve">•  </tspan><tspan class="ffc77da0-5dd4-4f18-a9de-612d5afa3d1a" x="11.27" y="38"> </tspan><tspan class="b6d1d4d8-bf88-4fc6-a238-e51e5caa6819" x="14.1" y="38">T</tspan><tspan class="a56c3bd0-51fe-4fef-a835-e7197b3e8479" x="19.19" y="38">r</tspan><tspan x="23.15" y="38">ansportation Improvement </tspan><tspan x="0" y="50">Prog</tspan><tspan class="a56c3bd0-51fe-4fef-a835-e7197b3e8479" x="20.82" y="50">r</tspan><tspan x="24.78" y="50">am (TIP)</tspan></text><text class="a4f31fdf-297b-4ed9-b811-3da04d9a7249" transform="translate(353.97 402.44)">Prepare STI<tspan class="ffc77da0-5dd4-4f18-a9de-612d5afa3d1a" x="54.09" y="0">P</tspan><tspan x="59.78" y="0"> </tspan><tspan x="11.99" y="13">request</tspan></text><text class="a4f31fdf-297b-4ed9-b811-3da04d9a7249" transform="translate(639.31 402.42)">Enter award <tspan x="5.56" y="12">notifation </tspan><tspan x="10.78" y="24">(</tspan><tspan class="b6d1d4d8-bf88-4fc6-a238-e51e5caa6819" x="14.45" y="24">T</tspan><tspan x="19.54" y="24">rAMS)</tspan></text><text class="a4f31fdf-297b-4ed9-b811-3da04d9a7249" transform="translate(1120.04 230.4)">Execute <tspan x="4.56" y="13">award </tspan><tspan x="1.04" y="26">(</tspan><tspan class="b6d1d4d8-bf88-4fc6-a238-e51e5caa6819" x="4.72" y="26">T</tspan><tspan x="9.81" y="26">rAMS)</tspan></text><text class="a4f31fdf-297b-4ed9-b811-3da04d9a7249" transform="translate(1315.32 230.4)">Notify<tspan x="-5.55" y="13">Business</tspan><tspan x="0.02" y="26">Office</tspan></text><text class="a4f31fdf-297b-4ed9-b811-3da04d9a7249" transform="translate(949.6 236.39)">Pin award in <tspan class="b6d1d4d8-bf88-4fc6-a238-e51e5caa6819" x="14.99" y="12">T</tspan><tspan x="20.08" y="12">rAMS</tspan></text><text class="a4f31fdf-297b-4ed9-b811-3da04d9a7249" transform="translate(774.77 406.43)">Re<tspan class="f5872066-4218-4cd8-9e2f-48fa1efd9872" x="11.86" y="0">v</tspan><tspan x="17.44" y="0">ise PO</tspan><tspan class="ffc77da0-5dd4-4f18-a9de-612d5afa3d1a" x="46.39" y="0">P</tspan><tspan x="0.23" y="13">(COTRAMS)</tspan></text><text class="a4f31fdf-297b-4ed9-b811-3da04d9a7249" transform="translate(776.39 235.8)">Re<tspan class="f5872066-4218-4cd8-9e2f-48fa1efd9872" x="11.86" y="0">v</tspan><tspan x="17.44" y="0">iew and </tspan><tspan x="5.61" y="12">Approve/</tspan><tspan x="11.85" y="25">Reject</tspan></text><text class="a4f31fdf-297b-4ed9-b811-3da04d9a7249" transform="translate(951.84 678.8)">Approve/<tspan x="6.24" y="13">Reject</tspan><tspan x="-4.51" y="26">application</tspan></text><text class="a4f31fdf-297b-4ed9-b811-3da04d9a7249" transform="translate(1114.36 694.28)">Notify DTR</text><path class="a1163763-53f4-4dae-961a-f4d313dc94ff" d="M489.1,373.84h90a85,85,0,0,1,0,80h-90A85,85,0,0,1,489.1,373.84Z"/><path class="f5508546-d758-47f0-b6ad-95c4994cc820" d="M579.09,373.84a85,85,0,0,0,0,80m-90-80h90a85,85,0,0,1,0,80h-90A85,85,0,0,1,489.1,373.84Z"/><path class="f5508546-d758-47f0-b6ad-95c4994cc820" d="M623.5,441.83h80v-60h-80Zm10-60v60"/><polygon class="f5508546-d758-47f0-b6ad-95c4994cc820" points="758.65 240.19 803.76 205.54 848.88 240.19 803.76 274.85 758.65 240.19"/><polygon class="f5508546-d758-47f0-b6ad-95c4994cc820" points="926.03 690.13 973.75 654.35 1021.46 690.13 973.75 725.91 926.03 690.13"/><path class="f5508546-d758-47f0-b6ad-95c4994cc820" d="M324.12,438.78V375.9h120v62.88a54.6,54.6,0,0,0-60,0A54.56,54.56,0,0,1,324.12,438.78Z"/><path class="f5508546-d758-47f0-b6ad-95c4994cc820" d="M289.12,600.61V513.49h190v87.12a96.82,96.82,0,0,0-95,0A96.82,96.82,0,0,1,289.12,600.61Z"/><path class="f5508546-d758-47f0-b6ad-95c4994cc820" d="M259.54,381.83a63.81,63.81,0,0,0,0,60m-92.49-60h92.49a63.75,63.75,0,0,1,0,60H167.05A63.81,63.81,0,0,1,167.05,381.83Z"/><path class="f5508546-d758-47f0-b6ad-95c4994cc820" d="M144.56,588.69v-70h130v70a57.81,57.81,0,0,0-65,0A57.81,57.81,0,0,1,144.56,588.69Z"/><path class="f5508546-d758-47f0-b6ad-95c4994cc820" d="M79.56,263.61V211.12h100v52.49a45.42,45.42,0,0,0-50,0A45.4,45.4,0,0,1,79.56,263.61Z"/><path class="f5508546-d758-47f0-b6ad-95c4994cc820" d="M144.56,160.19v-70h130v70a57.81,57.81,0,0,0-65,0A57.81,57.81,0,0,1,144.56,160.19Z"/><path class="f5508546-d758-47f0-b6ad-95c4994cc820" d="M1099.34,271.11h72.44v-60h-72.44Zm9.05-60v60"/><path class="f5508546-d758-47f0-b6ad-95c4994cc820" d="M933.75,271.11h80v-60h-80Zm10-60v60"/><rect class="f5508546-d758-47f0-b6ad-95c4994cc820" x="1105.68" y="660.77" width="68.78" height="59.99"/><rect class="af52f60b-e0ac-4788-8753-defb776fc58b" x="1209.73" y="660.77" width="107.29" height="69.17"/><path class="f5508546-d758-47f0-b6ad-95c4994cc820" d="M1209.73,729.56h107.82v-68.8H1209.73Zm10.78-68.8v68.8"/><path class="f5508546-d758-47f0-b6ad-95c4994cc820" d="M843.76,381.83a63.75,63.75,0,0,0,0,60m-72.49-60h72.49a63.75,63.75,0,0,1,0,60H771.27A63.75,63.75,0,0,1,771.27,381.83Z"/><rect class="f5508546-d758-47f0-b6ad-95c4994cc820" x="1289.02" y="211.12" width="79.99" height="59.99"/><line class="b055743f-1c49-4527-8c7b-e1bc84f2a374" x1="1388.19" y1="189.73" x2="19.81" y2="189.73"/><line class="b055743f-1c49-4527-8c7b-e1bc84f2a374" x1="1388.19" y1="293.33" x2="19.81" y2="293.33"/><line class="b055743f-1c49-4527-8c7b-e1bc84f2a374" x1="1388.19" y1="487.55" x2="19.81" y2="487.55"/><line class="b055743f-1c49-4527-8c7b-e1bc84f2a374" x1="1388.19" y1="633.72" x2="19.81" y2="633.72"/><text class="bcfb8bb9-43b7-4516-b22a-100a250f826d" transform="translate(1228.52 674.5)"><tspan class="b7a59bed-47f5-4f15-818a-effa320479e0">P</tspan><tspan x="5.4" y="0">osts notification </tspan><tspan x="-3.46" y="12">of Executed</tspan><tspan class="f28d3511-9593-4914-9da8-999e9ae44e6f" x="52.4" y="12"> </tspan><tspan class="ffc77da0-5dd4-4f18-a9de-612d5afa3d1a" x="54.87" y="12">A</tspan><tspan x="61.02" y="12">ward </tspan><tspan x="10.01" y="24">to</tspan><tspan class="ffc77da0-5dd4-4f18-a9de-612d5afa3d1a" x="19.64" y="24"> </tspan><tspan class="b6d1d4d8-bf88-4fc6-a238-e51e5caa6819" x="22.47" y="24">T</tspan><tspan x="27.56" y="24">rAMS and </tspan><tspan x="8.23" y="36">initiate F</tspan><tspan class="f28d3511-9593-4914-9da8-999e9ae44e6f" x="50.94" y="36">F</tspan><tspan class="f5e3f26e-e330-488c-8360-ef5babc3173e" x="56.22" y="36">AT</tspan><tspan class="f28d3511-9593-4914-9da8-999e9ae44e6f" x="66.78" y="36">A</tspan><tspan x="72.56" y="36"> </tspan><tspan x="22.78" y="48">process</tspan></text><line class="f5508546-d758-47f0-b6ad-95c4994cc820" x1="209.55" y1="160.19" x2="209.55" y2="370.73"/><polygon class="b27b3157-b26c-4213-baf7-164b7eebcc5c" points="203.57 368.98 209.55 379.34 215.53 368.98 203.57 368.98"/><line class="f5508546-d758-47f0-b6ad-95c4994cc820" x1="259.14" y1="411.81" x2="312.16" y2="411.81"/><polygon class="b27b3157-b26c-4213-baf7-164b7eebcc5c" points="310.41 417.8 320.77 411.81 310.41 405.83 310.41 417.8"/><line class="f5508546-d758-47f0-b6ad-95c4994cc820" x1="578.74" y1="411.81" x2="612.23" y2="411.81"/><polygon class="b27b3157-b26c-4213-baf7-164b7eebcc5c" points="610.48 417.8 620.85 411.81 610.48 405.83 610.48 417.8"/><line class="f5508546-d758-47f0-b6ad-95c4994cc820" x1="444.37" y1="411.81" x2="466.51" y2="411.81"/><polygon class="b27b3157-b26c-4213-baf7-164b7eebcc5c" points="464.76 417.8 475.12 411.81 464.76 405.83 464.76 417.8"/><line class="f5508546-d758-47f0-b6ad-95c4994cc820" x1="209.52" y1="518.82" x2="209.52" y2="452.94"/><polygon class="b27b3157-b26c-4213-baf7-164b7eebcc5c" points="215.5 454.69 209.52 444.32 203.53 454.69 215.5 454.69"/><line class="f5508546-d758-47f0-b6ad-95c4994cc820" x1="384.94" y1="513.82" x2="384.94" y2="447.93"/><polygon class="b27b3157-b26c-4213-baf7-164b7eebcc5c" points="390.93 449.68 384.94 439.32 378.96 449.68 390.93 449.68"/><line class="f5508546-d758-47f0-b6ad-95c4994cc820" x1="803.77" y1="371.75" x2="803.77" y2="274.85"/><polygon class="b27b3157-b26c-4213-baf7-164b7eebcc5c" points="809.75 370 803.77 380.37 797.78 370 809.75 370"/><line class="f5508546-d758-47f0-b6ad-95c4994cc820" x1="974.81" y1="642.18" x2="974.81" y2="270.6"/><polygon class="b27b3157-b26c-4213-baf7-164b7eebcc5c" points="980.79 640.43 974.81 650.79 968.83 640.43 980.79 640.43"/><line class="f5508546-d758-47f0-b6ad-95c4994cc820" x1="1260.2" y1="649.14" x2="1260.2" y2="241.28"/><polygon class="b27b3157-b26c-4213-baf7-164b7eebcc5c" points="1266.18 647.39 1260.2 657.75 1254.22 647.39 1266.18 647.39"/><line class="f5508546-d758-47f0-b6ad-95c4994cc820" x1="1140.96" y1="661.55" x2="1140.96" y2="282.21"/><polygon class="b27b3157-b26c-4213-baf7-164b7eebcc5c" points="1146.95 283.96 1140.96 273.6 1134.98 283.96 1146.95 283.96"/><line class="f5508546-d758-47f0-b6ad-95c4994cc820" x1="384.94" y1="375.03" x2="384.94" y2="351.15"/><polygon class="b27b3157-b26c-4213-baf7-164b7eebcc5c" points="390.93 352.9 384.94 342.54 378.96 352.9 390.93 352.9"/><polyline class="f5508546-d758-47f0-b6ad-95c4994cc820" points="129.55 263.61 129.55 411.86 148.72 411.86"/><polygon class="b27b3157-b26c-4213-baf7-164b7eebcc5c" points="146.96 417.84 157.33 411.86 146.96 405.87 146.96 417.84"/><circle class="af52f60b-e0ac-4788-8753-defb776fc58b" cx="384.37" cy="318.61" r="22.5"/><text class="a93c44fe-47e6-4401-b808-ee7b8cf2025c" transform="translate(372.06 324.69)">3-8</text><line class="f5508546-d758-47f0-b6ad-95c4994cc820" x1="532.98" y1="375.03" x2="532.98" y2="351.15"/><polygon class="b27b3157-b26c-4213-baf7-164b7eebcc5c" points="538.97 352.9 532.98 342.54 527 352.9 538.97 352.9"/><circle class="af52f60b-e0ac-4788-8753-defb776fc58b" cx="532.41" cy="318.61" r="22.5"/><text class="a93c44fe-47e6-4401-b808-ee7b8cf2025c" transform="translate(520.1 324.69)">3-9</text><text class="bcfb8bb9-43b7-4516-b22a-100a250f826d" transform="translate(495.1 393.41)">Complete F<tspan class="f5e3f26e-e330-488c-8360-ef5babc3173e" x="53.45" y="0">T</tspan><tspan class="f28d3511-9593-4914-9da8-999e9ae44e6f" x="58.62" y="0">A</tspan><tspan x="64.4" y="0"> </tspan><tspan x="9.05" y="12">Budgeting </tspan><tspan x="14.56" y="24">Process </tspan><tspan x="6.39" y="36">(COTRAMS)</tspan><tspan x="19.87" y="49">(SAP) </tspan></text><polyline class="f5508546-d758-47f0-b6ad-95c4994cc820" points="703.41 410.75 731.83 410.75 731.83 240.3 747.02 240.3"/><polygon class="b27b3157-b26c-4213-baf7-164b7eebcc5c" points="745.27 246.28 755.63 240.3 745.27 234.31 745.27 246.28"/><rect class="b01e9c29-3372-436b-bb68-9acec8a1dc3a" x="778.49" y="313.96" width="46.38" height="17.57"/><text class="bcfb8bb9-43b7-4516-b22a-100a250f826d" transform="translate(784.58 325.49)">REJEC<tspan class="ffc77da0-5dd4-4f18-a9de-612d5afa3d1a" x="28.93" y="0">T</tspan></text></g></svg>