<svg xmlns="http://www.w3.org/2000/svg" viewBox="0 0 2567.36 999.53"><defs><style>.a1df2b0a-6508-4a81-b4b5-2f1d97d27f1f,.e16b7b1e-262a-430a-af0e-b9ee3ee374d3,.e541f8b8-d5ec-4978-8ce6-73dbefebe186,.ed9a4c2c-9221-448d-b43c-8a581460bc54,.efb8c2dc-8800-40f2-a345-4f79abb43e6b{fill:none;stroke:#646464;}.a1df2b0a-6508-4a81-b4b5-2f1d97d27f1f,.e16b7b1e-262a-430a-af0e-b9ee3ee374d3,.e541f8b8-d5ec-4978-8ce6-73dbefebe186,.efb8c2dc-8800-40f2-a345-4f79abb43e6b{stroke-miterlimit:10;}.a1df2b0a-6508-4a81-b4b5-2f1d97d27f1f,.efb8c2dc-8800-40f2-a345-4f79abb43e6b{stroke-width:0.5px;}.efb8c2dc-8800-40f2-a345-4f79abb43e6b{stroke-dasharray:4.99 3;}.ed9a4c2c-9221-448d-b43c-8a581460bc54{stroke-linejoin:round;}.e541f8b8-d5ec-4978-8ce6-73dbefebe186,.ed9a4c2c-9221-448d-b43c-8a581460bc54{stroke-width:2px;}.a088fabb-2304-4e85-885e-d10ae6ae2428{font-size:24px;}.a088fabb-2304-4e85-885e-d10ae6ae2428,.a7ae07c2-ad3f-4156-962a-e3fbfa2b6bbb,.a955e804-1d6d-4130-a276-e99fad2df782,.ae0a0f94-7c87-4fd1-85d2-383ff982f632,.bf5ebc3b-12e8-405f-91b8-b11d1d6bf53e{fill:#646464;}.a088fabb-2304-4e85-885e-d10ae6ae2428,.a59f1ff7-fb21-4f59-b51c-e479099ba209,.a955e804-1d6d-4130-a276-e99fad2df782,.ac4d5520-5098-47ac-9e3d-1a5ac402f2d7,.bf5ebc3b-12e8-405f-91b8-b11d1d6bf53e,.e485d863-d4ff-4dec-821e-3169a009aee6{font-family:TrebuchetMS-Bold, Trebuchet MS;font-weight:700;}.a18137f8-1a4a-4ee2-9232-00408056acd9,.e485d863-d4ff-4dec-821e-3169a009aee6{letter-spacing:-0.02em;}.f58afec5-77ba-463e-9365-6df4349ef7b5{letter-spacing:-0.1em;}.a484f22c-f3c0-47f3-8b94-cb418f57587c{letter-spacing:-0.05em;}.b88a5f45-7900-46bb-b401-d8a22e8a454a{letter-spacing:-0.09em;}.bf5ebc3b-12e8-405f-91b8-b11d1d6bf53e{font-size:11px;}.a2fec95a-7cbb-4e5a-96de-d0c8729e6b9a,.a59f1ff7-fb21-4f59-b51c-e479099ba209{letter-spacing:-0.03em;}.edd617ef-222b-4e42-b9c5-5d58ad1257bb{letter-spacing:-0.06em;}.ace05601-9767-451b-9955-e2a95b27bdd7{letter-spacing:-0.09em;}.ac0d96a8-d651-48dc-99dc-86cb9b30649a{letter-spacing:-0.06em;}.a7ae07c2-ad3f-4156-962a-e3fbfa2b6bbb,.a955e804-1d6d-4130-a276-e99fad2df782{font-size:10px;}.a04173cc-95a6-4ccf-996b-e222ee49a110{letter-spacing:0.03em;}.a0e5881f-16a5-4e6c-abbe-c55b440c8a2d{letter-spacing:-0.07em;}.b0533239-eae9-4c45-8445-4616bcda95c3{letter-spacing:-0.11em;}.a7ae07c2-ad3f-4156-962a-e3fbfa2b6bbb{font-family:MyriadPro-Regular, Myriad Pro;}</style></defs><title>CDOT_diagrams_CH5-6</title><g id="be03cee3-ef6f-4747-a84d-0dcd718551a1" data-name="shapes"><line class="a1df2b0a-6508-4a81-b4b5-2f1d97d27f1f" x1="18.68" y1="180.6" x2="21.18" y2="180.6"/><line class="efb8c2dc-8800-40f2-a345-4f79abb43e6b" x1="24.18" y1="180.6" x2="2547.19" y2="180.6"/><line class="a1df2b0a-6508-4a81-b4b5-2f1d97d27f1f" x1="2548.68" y1="180.6" x2="2551.18" y2="180.6"/><line class="a1df2b0a-6508-4a81-b4b5-2f1d97d27f1f" x1="18.68" y1="462.89" x2="21.18" y2="462.89"/><line class="efb8c2dc-8800-40f2-a345-4f79abb43e6b" x1="24.18" y1="462.89" x2="2547.19" y2="462.89"/><line class="a1df2b0a-6508-4a81-b4b5-2f1d97d27f1f" x1="2548.68" y1="462.89" x2="2551.18" y2="462.89"/><line class="a1df2b0a-6508-4a81-b4b5-2f1d97d27f1f" x1="18.68" y1="583.01" x2="21.18" y2="583.01"/><line class="efb8c2dc-8800-40f2-a345-4f79abb43e6b" x1="24.18" y1="583.01" x2="2547.19" y2="583.01"/><line class="a1df2b0a-6508-4a81-b4b5-2f1d97d27f1f" x1="2548.68" y1="583.01" x2="2551.18" y2="583.01"/><line class="a1df2b0a-6508-4a81-b4b5-2f1d97d27f1f" x1="18.68" y1="719.92" x2="21.18" y2="719.92"/><line class="efb8c2dc-8800-40f2-a345-4f79abb43e6b" x1="24.18" y1="719.92" x2="2547.19" y2="719.92"/><line class="a1df2b0a-6508-4a81-b4b5-2f1d97d27f1f" x1="2548.68" y1="719.92" x2="2551.18" y2="719.92"/><line class="a1df2b0a-6508-4a81-b4b5-2f1d97d27f1f" x1="18.68" y1="861.82" x2="21.18" y2="861.82"/><line class="efb8c2dc-8800-40f2-a345-4f79abb43e6b" x1="24.18" y1="861.82" x2="2547.19" y2="861.82"/><line class="a1df2b0a-6508-4a81-b4b5-2f1d97d27f1f" x1="2548.68" y1="861.82" x2="2551.18" y2="861.82"/><path class="ed9a4c2c-9221-448d-b43c-8a581460bc54" d="M233.31,355.3S225,373.78,225,391.42s8.29,35.06,8.29,35.06"/><path class="e541f8b8-d5ec-4978-8ce6-73dbefebe186" d="M112.25,426.56S103,409.14,103,391.5s9.24-36.12,9.24-36.12H232.74S242,372.81,242,390.44s-9.24,36.12-9.24,36.12Z"/></g><g id="bae46b88-1b39-43a2-be6f-bfdccaf1980d" data-name="text"><text class="a088fabb-2304-4e85-885e-d10ae6ae2428" transform="translate(18.5 35.68)">5-2<tspan class="a18137f8-1a4a-4ee2-9232-00408056acd9" x="36.94" y="0"> </tspan><tspan class="f58afec5-77ba-463e-9365-6df4349ef7b5" x="43.73" y="0">T</tspan><tspan x="55.96" y="0">riennial DBE </tspan><tspan class="a484f22c-f3c0-47f3-8b94-cb418f57587c" x="200.34" y="0">P</tspan><tspan x="213.3" y="0">articipation Goal (F</tspan><tspan class="b88a5f45-7900-46bb-b401-d8a22e8a454a" x="430.49" y="0">T</tspan><tspan x="442.9" y="0">A)</tspan></text><text class="bf5ebc3b-12e8-405f-91b8-b11d1d6bf53e" transform="translate(43.31 156.93) rotate(-90)">Subrecipient</text><text class="bf5ebc3b-12e8-405f-91b8-b11d1d6bf53e" transform="translate(43.31 351.06) rotate(-90)">CRBRC</text><text class="bf5ebc3b-12e8-405f-91b8-b11d1d6bf53e" transform="translate(38.66 687.38) rotate(-90)"><tspan class="f58afec5-77ba-463e-9365-6df4349ef7b5">T</tspan><tspan class="a2fec95a-7cbb-4e5a-96de-d0c8729e6b9a" x="5.6" y="0">r</tspan><tspan x="9.96" y="0">ansportation </tspan><tspan x="7.17" y="13.2">Commission</tspan></text><text class="bf5ebc3b-12e8-405f-91b8-b11d1d6bf53e" transform="translate(38.66 830.34) rotate(-90)">Direct Recipient <tspan x="9.04" y="13.2">of F</tspan><tspan class="b88a5f45-7900-46bb-b401-d8a22e8a454a" x="29.07" y="13.2">T</tspan><tspan class="edd617ef-222b-4e42-b9c5-5d58ad1257bb" x="34.76" y="13.2">A</tspan><tspan x="41.12" y="13.2"> </tspan><tspan class="a484f22c-f3c0-47f3-8b94-cb418f57587c" x="44.43" y="13.2">F</tspan><tspan x="50.33" y="13.2">unds</tspan></text><text class="bf5ebc3b-12e8-405f-91b8-b11d1d6bf53e" transform="translate(43.31 935.1) rotate(-90) scale(0.99 1)">F<tspan class="ace05601-9767-451b-9955-e2a95b27bdd7" x="6.42" y="0">T</tspan><tspan class="ac0d96a8-d651-48dc-99dc-86cb9b30649a" x="12.11" y="0">A</tspan></text><text class="bf5ebc3b-12e8-405f-91b8-b11d1d6bf53e" transform="translate(43.32 532.72) rotate(-90) scale(0.99 1)">DTR</text><polygon class="e16b7b1e-262a-430a-af0e-b9ee3ee374d3" points="2549.54 976.56 18.79 976.56 18.79 68.61 79.95 68.61 2549.54 68.61 2549.54 976.56"/><line class="e16b7b1e-262a-430a-af0e-b9ee3ee374d3" x1="64.85" y1="976.91" x2="64.85" y2="68.99"/><text class="a955e804-1d6d-4130-a276-e99fad2df782" transform="translate(126.5 375.42)">File<tspan class="a18137f8-1a4a-4ee2-9232-00408056acd9" x="17.51" y="0"> </tspan><tspan class="f58afec5-77ba-463e-9365-6df4349ef7b5" x="20.35" y="0">T</tspan><tspan x="25.44" y="0">riennial DBE </tspan><tspan x="11.04" y="12">Goal and F</tspan><tspan class="b88a5f45-7900-46bb-b401-d8a22e8a454a" x="60.59" y="12">T</tspan><tspan class="edd617ef-222b-4e42-b9c5-5d58ad1257bb" x="65.76" y="12">A</tspan><tspan x="71.54" y="12"> </tspan><tspan x="-4.71" y="24">Concurrence Letter </tspan><tspan x="15.49" y="36">(COTRAMS)</tspan></text><rect class="e541f8b8-d5ec-4978-8ce6-73dbefebe186" x="283.03" y="255.62" width="83.97" height="63.38"/><text class="a955e804-1d6d-4130-a276-e99fad2df782" transform="translate(291.86 284.03)">Create Survey <tspan x="15.13" y="12">Monkey</tspan></text><rect class="e541f8b8-d5ec-4978-8ce6-73dbefebe186" x="283.03" y="490.47" width="83.97" height="63.38"/><text class="a955e804-1d6d-4130-a276-e99fad2df782" transform="translate(292.03 507.47)">Pro<tspan class="a04173cc-95a6-4ccf-996b-e222ee49a110" x="15.8" y="0">v</tspan><tspan x="21.39" y="0">ide list of </tspan><tspan x="1.31" y="12">subrecipients </tspan><tspan x="6.39" y="24">to CRBRC if </tspan><tspan x="15.38" y="36">needed</tspan></text><rect class="e541f8b8-d5ec-4978-8ce6-73dbefebe186" x="424.75" y="490.47" width="83.97" height="63.38"/><text class="a955e804-1d6d-4130-a276-e99fad2df782" transform="translate(429.9 513.33)"><tspan class="a484f22c-f3c0-47f3-8b94-cb418f57587c">F</tspan><tspan x="5.37" y="0">orward Survey </tspan><tspan x="12.5" y="12">Monkey to </tspan><tspan x="5.16" y="24">subrecipients</tspan></text><rect class="e541f8b8-d5ec-4978-8ce6-73dbefebe186" x="583.09" y="490.47" width="83.97" height="63.38"/><text class="a955e804-1d6d-4130-a276-e99fad2df782" transform="translate(602.03 513.33)">DTR Units <tspan x="1" y="12">complete </tspan><tspan x="-12.32" y="24">Survey Monkey</tspan></text><rect class="e541f8b8-d5ec-4978-8ce6-73dbefebe186" x="583.09" y="97.89" width="83.97" height="58.82"/><text class="a955e804-1d6d-4130-a276-e99fad2df782" transform="translate(602.03 118.2)">DTR Units <tspan x="1" y="12">complete </tspan><tspan x="-12.32" y="24">Survey Monkey</tspan></text><rect class="e541f8b8-d5ec-4978-8ce6-73dbefebe186" x="847.82" y="97.89" width="83.97" height="58.82"/><text class="a955e804-1d6d-4130-a276-e99fad2df782" transform="translate(871.85 118.2)">Pro<tspan class="a04173cc-95a6-4ccf-996b-e222ee49a110" x="15.8" y="0">v</tspan><tspan x="21.39" y="0">ide </tspan><tspan x="-18.66" y="13">clarifications as </tspan><tspan x="-5.71" y="25">requested</tspan></text><rect class="e541f8b8-d5ec-4978-8ce6-73dbefebe186" x="425.15" y="205.58" width="83.97" height="62.39"/><text class="a955e804-1d6d-4130-a276-e99fad2df782" transform="translate(438.28 222.37)">Send Survey <tspan x="4.51" y="12">Monkey to </tspan><tspan x="-2.82" y="24">subrecipients </tspan><tspan x="10.53" y="36">directly</tspan></text><rect class="e541f8b8-d5ec-4978-8ce6-73dbefebe186" x="425.15" y="374.27" width="83.97" height="62.39"/><text class="a955e804-1d6d-4130-a276-e99fad2df782" transform="translate(438.28 391.05)">Send Survey <tspan x="-6.32" y="12">Monkey to DTR </tspan><tspan x="5.1" y="24">to send to </tspan><tspan x="-2.82" y="36">subrecipients</tspan></text><rect class="e541f8b8-d5ec-4978-8ce6-73dbefebe186" x="120.71" y="758.7" width="111.63" height="82.94"/><text class="a955e804-1d6d-4130-a276-e99fad2df782" transform="translate(138.03 779.13)">Submit a copy of <tspan x="-2.84" y="12">agency</tspan><tspan class="a0e5881f-16a5-4e6c-abbe-c55b440c8a2d" x="29.61" y="12">’</tspan><tspan x="32.58" y="12">s</tspan><tspan class="a18137f8-1a4a-4ee2-9232-00408056acd9" x="36.88" y="12"> </tspan><tspan class="f58afec5-77ba-463e-9365-6df4349ef7b5" x="39.72" y="12">T</tspan><tspan x="44.81" y="12">riennial </tspan><tspan x="-4.87" y="24">DBE Goal to CRBRC </tspan><tspan x="9.44" y="36">with the F</tspan><tspan class="b88a5f45-7900-46bb-b401-d8a22e8a454a" x="57.65" y="36">T</tspan><tspan class="edd617ef-222b-4e42-b9c5-5d58ad1257bb" x="62.82" y="36">A</tspan><tspan x="68.6" y="36"> </tspan><tspan x="-6.98" y="48">Concurrence Letter</tspan></text><rect class="e541f8b8-d5ec-4978-8ce6-73dbefebe186" x="425.15" y="288.63" width="83.97" height="62.39"/><text class="a955e804-1d6d-4130-a276-e99fad2df782" transform="translate(438.28 311.25)">Send Survey <tspan x="-6.32" y="12">Monkey to DTR </tspan><tspan x="16.65" y="24">Units</tspan></text><rect class="e541f8b8-d5ec-4978-8ce6-73dbefebe186" x="717.43" y="288.63" width="83.97" height="62.39"/><text class="a955e804-1d6d-4130-a276-e99fad2df782" transform="translate(742.17 315.16)">Re<tspan class="a04173cc-95a6-4ccf-996b-e222ee49a110" x="11.86" y="0">v</tspan><tspan x="17.44" y="0">iew </tspan><tspan x="-0.97" y="13">Surveys</tspan></text><rect class="e541f8b8-d5ec-4978-8ce6-73dbefebe186" x="979.37" y="288.63" width="83.97" height="62.39"/><text class="a955e804-1d6d-4130-a276-e99fad2df782" transform="translate(1002.18 315.16)">Compile <tspan x="8.73" y="13">data</tspan></text><line class="e541f8b8-d5ec-4978-8ce6-73dbefebe186" x1="174.21" y1="425.67" x2="174.21" y2="747.41"/><polygon class="ae0a0f94-7c87-4fd1-85d2-383ff982f632" points="168.23 745.66 174.21 756.03 180.19 745.66 168.23 745.66"/><line class="e541f8b8-d5ec-4978-8ce6-73dbefebe186" x1="890.63" y1="156.9" x2="890.63" y2="277.3"/><polygon class="ae0a0f94-7c87-4fd1-85d2-383ff982f632" points="884.64 275.55 890.63 285.91 896.61 275.55 884.64 275.55"/><rect class="e541f8b8-d5ec-4978-8ce6-73dbefebe186" x="1643.9" y="97.89" width="83.97" height="58.82"/><text class="a955e804-1d6d-4130-a276-e99fad2df782" transform="translate(1654.12 125.2)">Pro<tspan class="a04173cc-95a6-4ccf-996b-e222ee49a110" x="15.8" y="0">v</tspan><tspan x="21.39" y="0">ide input </tspan><tspan x="-4.72" y="12">to methodology</tspan></text><line class="e541f8b8-d5ec-4978-8ce6-73dbefebe186" x1="1686.7" y1="156.9" x2="1686.7" y2="277.3"/><polygon class="ae0a0f94-7c87-4fd1-85d2-383ff982f632" points="1680.72 275.55 1686.7 285.91 1692.68 275.55 1680.72 275.55"/><line class="e541f8b8-d5ec-4978-8ce6-73dbefebe186" x1="2131.08" y1="362.29" x2="2131.08" y2="623.75"/><polygon class="ae0a0f94-7c87-4fd1-85d2-383ff982f632" points="2125.1 364.04 2131.08 353.67 2137.06 364.04 2125.1 364.04"/><line class="e541f8b8-d5ec-4978-8ce6-73dbefebe186" x1="2278.66" y1="351.39" x2="2278.66" y2="886.2"/><polygon class="ae0a0f94-7c87-4fd1-85d2-383ff982f632" points="2272.68 884.45 2278.66 894.81 2284.65 884.45 2272.68 884.45"/><line class="e541f8b8-d5ec-4978-8ce6-73dbefebe186" x1="2449.7" y1="351.39" x2="2449.7" y2="480.59"/><polygon class="ae0a0f94-7c87-4fd1-85d2-383ff982f632" points="2443.72 478.84 2449.7 489.2 2455.69 478.84 2443.72 478.84"/><line class="e541f8b8-d5ec-4978-8ce6-73dbefebe186" x1="890.63" y1="492.18" x2="890.63" y2="362.94"/><polygon class="ae0a0f94-7c87-4fd1-85d2-383ff982f632" points="896.61 364.69 890.63 354.32 884.64 364.69 896.61 364.69"/><line class="e541f8b8-d5ec-4978-8ce6-73dbefebe186" x1="326.68" y1="329.6" x2="326.68" y2="491.16"/><polygon class="ae0a0f94-7c87-4fd1-85d2-383ff982f632" points="320.7 331.35 326.68 320.99 332.66 331.35 320.7 331.35"/><line class="e541f8b8-d5ec-4978-8ce6-73dbefebe186" x1="467.42" y1="436.42" x2="467.42" y2="476.68"/><polygon class="ae0a0f94-7c87-4fd1-85d2-383ff982f632" points="461.44 474.93 467.42 485.29 473.41 474.93 461.44 474.93"/><polyline class="e541f8b8-d5ec-4978-8ce6-73dbefebe186" points="414.07 235.1 395.09 235.1 395.09 403.95 407.98 403.95"/><polygon class="ae0a0f94-7c87-4fd1-85d2-383ff982f632" points="412.32 229.12 422.68 235.1 412.32 241.09 412.32 229.12"/><polygon class="ae0a0f94-7c87-4fd1-85d2-383ff982f632" points="406.23 409.94 416.59 403.95 406.23 397.97 406.23 409.94"/><line class="e541f8b8-d5ec-4978-8ce6-73dbefebe186" x1="414.83" y1="320.68" x2="395.09" y2="320.68"/><polygon class="ae0a0f94-7c87-4fd1-85d2-383ff982f632" points="413.08 314.69 423.44 320.68 413.08 326.66 413.08 314.69"/><line class="e541f8b8-d5ec-4978-8ce6-73dbefebe186" x1="706.74" y1="320.68" x2="687" y2="320.68"/><polygon class="ae0a0f94-7c87-4fd1-85d2-383ff982f632" points="704.99 314.69 715.35 320.68 704.99 326.66 704.99 314.69"/><rect class="e541f8b8-d5ec-4978-8ce6-73dbefebe186" x="841.56" y="288.63" width="96.49" height="62.39"/><text class="a955e804-1d6d-4130-a276-e99fad2df782" transform="translate(857.93 302.85)"><tspan class="a18137f8-1a4a-4ee2-9232-00408056acd9">W</tspan><tspan x="8.66" y="0">ork through </tspan><tspan x="1.58" y="12">clarifications </tspan><tspan x="-9.27" y="24">with subrecipient </tspan><tspan x="2.61" y="36">or DTR Units</tspan></text><rect class="e541f8b8-d5ec-4978-8ce6-73dbefebe186" x="841.56" y="491.83" width="96.49" height="62.39"/><text class="a955e804-1d6d-4130-a276-e99fad2df782" transform="translate(871.85 510.93)">Pro<tspan class="a04173cc-95a6-4ccf-996b-e222ee49a110" x="15.8" y="0">v</tspan><tspan x="21.39" y="0">ide </tspan><tspan x="-18.66" y="13">clarifications as </tspan><tspan x="-5.71" y="25">requested</tspan></text><line class="e541f8b8-d5ec-4978-8ce6-73dbefebe186" x1="830.95" y1="320.68" x2="801.82" y2="320.68"/><polygon class="ae0a0f94-7c87-4fd1-85d2-383ff982f632" points="829.2 314.69 839.56 320.68 829.2 326.66 829.2 314.69"/><rect class="e541f8b8-d5ec-4978-8ce6-73dbefebe186" x="1103.54" y="288.63" width="96.49" height="62.39"/><text class="a955e804-1d6d-4130-a276-e99fad2df782" transform="translate(1114.99 310.67)">Determine base <tspan x="7.48" y="12">figure (Goal) </tspan><tspan x="5.7" y="25">(unweighted)</tspan></text><line class="e541f8b8-d5ec-4978-8ce6-73dbefebe186" x1="1092.93" y1="320.68" x2="1063.8" y2="320.68"/><polygon class="ae0a0f94-7c87-4fd1-85d2-383ff982f632" points="1091.18 314.69 1101.54 320.68 1091.18 326.66 1091.18 314.69"/><rect class="e541f8b8-d5ec-4978-8ce6-73dbefebe186" x="1641.38" y="288.63" width="87.45" height="62.39"/><text class="a955e804-1d6d-4130-a276-e99fad2df782" transform="translate(1665.87 303.68)">Conduct <tspan x="-8.35" y="13">stakeholder </tspan><tspan x="-9.01" y="25">outreach on </tspan><tspan x="-10.92" y="37">methodology</tspan></text><line class="e541f8b8-d5ec-4978-8ce6-73dbefebe186" x1="1629.51" y1="320.68" x2="1600.38" y2="320.68"/><polygon class="ae0a0f94-7c87-4fd1-85d2-383ff982f632" points="1627.76 314.69 1638.12 320.68 1627.76 326.66 1627.76 314.69"/><rect class="e541f8b8-d5ec-4978-8ce6-73dbefebe186" x="2085.06" y="288.63" width="87.45" height="62.39"/><text class="a955e804-1d6d-4130-a276-e99fad2df782" transform="translate(2088.89 303.68)">Present<tspan class="a18137f8-1a4a-4ee2-9232-00408056acd9" x="35.81" y="0"> </tspan><tspan class="f58afec5-77ba-463e-9365-6df4349ef7b5" x="38.64" y="0">T</tspan><tspan x="43.74" y="0">riennial </tspan><tspan x="12.72" y="12">DBE Goal to </tspan><tspan class="f58afec5-77ba-463e-9365-6df4349ef7b5" x="5.83" y="24">T</tspan><tspan class="a2fec95a-7cbb-4e5a-96de-d0c8729e6b9a" x="10.92" y="24">r</tspan><tspan x="14.88" y="24">ansportation </tspan><tspan x="12.35" y="36">Commission</tspan></text><rect class="e541f8b8-d5ec-4978-8ce6-73dbefebe186" x="2085.06" y="623.84" width="87.45" height="62.39"/><text class="a955e804-1d6d-4130-a276-e99fad2df782" transform="translate(2109.32 644.48)">Approve <tspan class="f58afec5-77ba-463e-9365-6df4349ef7b5" x="-11.86" y="13">T</tspan><tspan x="-6.77" y="13" xml:space="preserve">rienniel DBE  </tspan><tspan x="9.14" y="25">Goal</tspan></text><line class="e541f8b8-d5ec-4978-8ce6-73dbefebe186" x1="2073.19" y1="320.68" x2="2044.06" y2="320.68"/><polygon class="ae0a0f94-7c87-4fd1-85d2-383ff982f632" points="2071.44 314.69 2081.8 320.68 2071.44 326.66 2071.44 314.69"/><rect class="e541f8b8-d5ec-4978-8ce6-73dbefebe186" x="2226.77" y="288.63" width="94.72" height="62.39"/><text class="a955e804-1d6d-4130-a276-e99fad2df782" transform="translate(2250.7 303.68)">Submit d<tspan class="a2fec95a-7cbb-4e5a-96de-d0c8729e6b9a" x="41.2" y="0">r</tspan><tspan x="45.16" y="0">aft </tspan><tspan x="4.18" y="12">report and </tspan><tspan x="-2.93" y="24">submit to F</tspan><tspan class="b88a5f45-7900-46bb-b401-d8a22e8a454a" x="50.12" y="24">T</tspan><tspan class="edd617ef-222b-4e42-b9c5-5d58ad1257bb" x="55.3" y="24">A</tspan><tspan x="61.08" y="24"> </tspan><tspan x="11.27" y="36">(</tspan><tspan class="f58afec5-77ba-463e-9365-6df4349ef7b5" x="14.94" y="36">T</tspan><tspan x="20.03" y="36">rAMS)</tspan></text><polyline class="e541f8b8-d5ec-4978-8ce6-73dbefebe186" points="2216.16 320.68 2192.64 320.68 2192.64 658.06 2171.34 658.06"/><polygon class="ae0a0f94-7c87-4fd1-85d2-383ff982f632" points="2214.41 314.69 2224.77 320.68 2214.41 326.66 2214.41 314.69"/><rect class="e541f8b8-d5ec-4978-8ce6-73dbefebe186" x="1240.82" y="288.63" width="160.02" height="62.39"/><text class="a955e804-1d6d-4130-a276-e99fad2df782" transform="translate(1251.89 303.15)">Adjust base figure to account <tspan x="10.23" y="12">for statistical disparities, </tspan><tspan x="11.88" y="24">capacit</tspan><tspan class="b0533239-eae9-4c45-8445-4616bcda95c3" x="45.54" y="24">y</tspan><tspan x="49.77" y="24">, research, DBE, </tspan><tspan x="17.53" y="37">availabilit</tspan><tspan class="b0533239-eae9-4c45-8445-4616bcda95c3" x="63.42" y="37">y</tspan><tspan x="67.64" y="37">, and other</tspan></text><text class="a7ae07c2-ad3f-4156-962a-e3fbfa2b6bbb" transform="translate(1244 369.61)"><tspan xml:space="preserve">•  </tspan><tspan class="ac4d5520-5098-47ac-9e3d-1a5ac402f2d7" x="7.06" y="0">Geog</tspan><tspan class="a59f1ff7-fb21-4f59-b51c-e479099ba209" x="30.2" y="0">r</tspan><tspan class="ac4d5520-5098-47ac-9e3d-1a5ac402f2d7" x="34.16" y="0">aphical comparison, peer </tspan><tspan class="ac4d5520-5098-47ac-9e3d-1a5ac402f2d7"><tspan x="0" y="12">states</tspan></tspan><tspan x="0" y="25" xml:space="preserve">•  </tspan><tspan class="e485d863-d4ff-4dec-821e-3169a009aee6" x="7.06" y="25">W</tspan><tspan class="ac4d5520-5098-47ac-9e3d-1a5ac402f2d7" x="15.72" y="25">eighting calculations</tspan><tspan x="0" y="38" xml:space="preserve">•  </tspan><tspan class="ac4d5520-5098-47ac-9e3d-1a5ac402f2d7" x="7.06" y="38">NAICS codes</tspan><tspan x="0" y="51" xml:space="preserve">•  </tspan><tspan class="ac4d5520-5098-47ac-9e3d-1a5ac402f2d7" x="7.06" y="51">Dept of Labor</tspan><tspan x="0" y="64" xml:space="preserve">•  </tspan><tspan class="ac4d5520-5098-47ac-9e3d-1a5ac402f2d7" x="7.06" y="64">Census (state/county)</tspan></text><line class="e541f8b8-d5ec-4978-8ce6-73dbefebe186" x1="1229.69" y1="320.68" x2="1200.56" y2="320.68"/><polygon class="ae0a0f94-7c87-4fd1-85d2-383ff982f632" points="1227.94 314.69 1238.3 320.68 1227.94 326.66 1227.94 314.69"/><rect class="e541f8b8-d5ec-4978-8ce6-73dbefebe186" x="1440.46" y="288.63" width="159.57" height="62.39"/><text class="a955e804-1d6d-4130-a276-e99fad2df782" transform="translate(1460.03 303.15)">Develop <tspan class="a2fec95a-7cbb-4e5a-96de-d0c8729e6b9a" x="40.64" y="0">r</tspan><tspan x="44.6" y="0">ational Goal and </tspan><tspan x="-0.21" y="12">determine how much DBE </tspan><tspan x="-7.3" y="24">participation can be reached </tspan><tspan x="-5.76" y="36">using </tspan><tspan class="a2fec95a-7cbb-4e5a-96de-d0c8729e6b9a" x="21.38" y="36">r</tspan><tspan x="25.34" y="36">ace-neut</tspan><tspan class="a2fec95a-7cbb-4e5a-96de-d0c8729e6b9a" x="66.72" y="36">r</tspan><tspan x="70.68" y="36">al measures</tspan></text><line class="e541f8b8-d5ec-4978-8ce6-73dbefebe186" x1="1429.82" y1="320.68" x2="1400.69" y2="320.68"/><polygon class="ae0a0f94-7c87-4fd1-85d2-383ff982f632" points="1428.07 314.69 1438.43 320.68 1428.07 326.66 1428.07 314.69"/><rect class="e541f8b8-d5ec-4978-8ce6-73dbefebe186" x="1768.88" y="288.63" width="125.2" height="62.39"/><text class="a955e804-1d6d-4130-a276-e99fad2df782" transform="translate(1776.04 303.15)">Incorpo<tspan class="a2fec95a-7cbb-4e5a-96de-d0c8729e6b9a" x="35.22" y="0">r</tspan><tspan x="39.18" y="0">ate stakeholder </tspan><tspan x="5.93" y="12">input to methodology </tspan><tspan x="19.86" y="24">and adjust Goal </tspan><tspan x="31.02" y="37">(weighted)</tspan></text><line class="e541f8b8-d5ec-4978-8ce6-73dbefebe186" x1="1758.24" y1="320.68" x2="1729.11" y2="320.68"/><polygon class="ae0a0f94-7c87-4fd1-85d2-383ff982f632" points="1756.49 314.69 1766.85 320.68 1756.49 326.66 1756.49 314.69"/><rect class="e541f8b8-d5ec-4978-8ce6-73dbefebe186" x="2376.86" y="288.63" width="150.1" height="62.39"/><text class="a955e804-1d6d-4130-a276-e99fad2df782" transform="translate(2390.9 306.15)">Upload<tspan class="a18137f8-1a4a-4ee2-9232-00408056acd9" x="32.34" y="0"> </tspan><tspan class="f58afec5-77ba-463e-9365-6df4349ef7b5" x="35.18" y="0">T</tspan><tspan x="40.27" y="0">riennial DBE Goal </tspan><tspan x="-6.06" y="12">Report and F</tspan><tspan class="b88a5f45-7900-46bb-b401-d8a22e8a454a" x="54.41" y="12">T</tspan><tspan class="edd617ef-222b-4e42-b9c5-5d58ad1257bb" x="59.58" y="12">A</tspan><tspan x="65.36" y="12" xml:space="preserve"> concurrence </tspan><tspan x="-1.75" y="24">to CRBRC shared drive and </tspan><tspan x="32.51" y="36">send to DTR</tspan></text><polyline class="e541f8b8-d5ec-4978-8ce6-73dbefebe186" points="2366.21 320.68 2347.89 320.68 2347.89 932.93 2328.34 932.93"/><polygon class="ae0a0f94-7c87-4fd1-85d2-383ff982f632" points="2364.46 314.69 2374.82 320.68 2364.46 326.66 2364.46 314.69"/><rect class="e541f8b8-d5ec-4978-8ce6-73dbefebe186" x="1934.04" y="288.63" width="109.57" height="62.39"/><text class="a955e804-1d6d-4130-a276-e99fad2df782" transform="translate(1949.5 303.15)">Publish<tspan class="a18137f8-1a4a-4ee2-9232-00408056acd9" x="33.76" y="0"> </tspan><tspan class="f58afec5-77ba-463e-9365-6df4349ef7b5" x="36.59" y="0">T</tspan><tspan x="41.68" y="0">rienniel </tspan><tspan x="-5.9" y="12">DBE Goal for public </tspan><tspan x="-3.8" y="25">comment (30 days </tspan><tspan x="18.64" y="37">or more)</tspan></text><rect class="e541f8b8-d5ec-4978-8ce6-73dbefebe186" x="2396.94" y="492.41" width="109.57" height="62.39"/><text class="a955e804-1d6d-4130-a276-e99fad2df782" transform="translate(2412.41 506.93)">Publish<tspan class="a18137f8-1a4a-4ee2-9232-00408056acd9" x="33.76" y="0"> </tspan><tspan class="f58afec5-77ba-463e-9365-6df4349ef7b5" x="36.59" y="0">T</tspan><tspan x="41.68" y="0">rienniel </tspan><tspan x="-5.9" y="12">DBE Goal for public </tspan><tspan x="-3.8" y="25">comment (30 days </tspan><tspan x="18.64" y="37">or more)</tspan></text><line class="e541f8b8-d5ec-4978-8ce6-73dbefebe186" x1="1923.39" y1="320.68" x2="1894.26" y2="320.68"/><polygon class="ae0a0f94-7c87-4fd1-85d2-383ff982f632" points="1921.64 314.69 1932 320.68 1921.64 326.66 1921.64 314.69"/><line class="e541f8b8-d5ec-4978-8ce6-73dbefebe186" x1="966.78" y1="320.68" x2="937.65" y2="320.68"/><polygon class="ae0a0f94-7c87-4fd1-85d2-383ff982f632" points="965.03 314.69 975.39 320.68 965.03 326.66 965.03 314.69"/><polyline class="e541f8b8-d5ec-4978-8ce6-73dbefebe186" points="572.52 125.2 544.95 125.2 544.95 521.73 508.55 521.73"/><polygon class="ae0a0f94-7c87-4fd1-85d2-383ff982f632" points="570.77 119.22 581.13 125.2 570.77 131.19 570.77 119.22"/><line class="e541f8b8-d5ec-4978-8ce6-73dbefebe186" x1="366.64" y1="286.24" x2="394.01" y2="286.24"/><line class="e541f8b8-d5ec-4978-8ce6-73dbefebe186" x1="509.26" y1="234.19" x2="544.31" y2="234.19"/><polyline class="e541f8b8-d5ec-4978-8ce6-73dbefebe186" points="665.83 124.64 687.33 124.64 687.33 525.37 666.81 525.37"/><path class="e541f8b8-d5ec-4978-8ce6-73dbefebe186" d="M509.06,323h29.26a6.62,6.62,0,1,1,13.24,0h7.63V521.71h13"/><polygon class="ae0a0f94-7c87-4fd1-85d2-383ff982f632" points="570.46 527.69 580.82 521.71 570.46 515.73 570.46 527.69"/><line class="e541f8b8-d5ec-4978-8ce6-73dbefebe186" x1="2239.66" y1="287.25" x2="2239.66" y2="352.63"/><rect class="e541f8b8-d5ec-4978-8ce6-73dbefebe186" x="2226.77" y="898.51" width="102.69" height="62.39"/><text class="a955e804-1d6d-4130-a276-e99fad2df782" transform="translate(2257.76 913.56)">Re<tspan class="a04173cc-95a6-4ccf-996b-e222ee49a110" x="11.86" y="0">v</tspan><tspan x="17.44" y="0">iew and </tspan><tspan x="-8.31" y="12">approve report </tspan><tspan x="3.23" y="24">and notify </tspan><tspan x="-7.48" y="37">CRBRC (</tspan><tspan class="f58afec5-77ba-463e-9365-6df4349ef7b5" x="29.61" y="37">T</tspan><tspan x="34.7" y="37">rAMS)</tspan></text><line class="e541f8b8-d5ec-4978-8ce6-73dbefebe186" x1="2239.66" y1="897.13" x2="2239.66" y2="962.51"/></g></svg>