<svg xmlns="http://www.w3.org/2000/svg" viewBox="0 0 1656.45 1255.6"><defs><style>.a472d250-9f75-461e-83f8-86713ab59497,.a577e9ea-6bd8-4b39-8309-a1712c6d6ca4,.e791c01a-ab3e-4e38-a56e-ddafe27d0050,.f9bfd67d-175f-43db-a2b9-166884b9ced3{fill:none;stroke:#646464;stroke-miterlimit:10;}.a472d250-9f75-461e-83f8-86713ab59497,.e791c01a-ab3e-4e38-a56e-ddafe27d0050{stroke-width:0.5px;}.a472d250-9f75-461e-83f8-86713ab59497{stroke-dasharray:5.01 3;}.a577e9ea-6bd8-4b39-8309-a1712c6d6ca4{stroke-width:2px;}.b29c537b-dce8-482a-9b71-58e7df4a1906,.e03e699b-fac2-444b-8ba8-7c9e684a8757,.f302ae9a-d9b9-4051-a444-9f748a5825ff,.fcbf1186-d11c-42d2-9232-29faf04037e1{fill:#646464;}.f302ae9a-d9b9-4051-a444-9f748a5825ff{font-size:24px;}.a64bd63c-c321-4f9f-982a-b1a51356cd5c,.b29c537b-dce8-482a-9b71-58e7df4a1906,.e03e699b-fac2-444b-8ba8-7c9e684a8757,.f302ae9a-d9b9-4051-a444-9f748a5825ff{font-family:TrebuchetMS-Bold, Trebuchet MS;font-weight:700;}.bac4de2e-2a9e-4fba-bf56-c629fbe1c3c9{letter-spacing:-0.05em;}.bffb0452-2c3c-40d4-bb62-48d9b6c76de6{letter-spacing:0.03em;}.b29c537b-dce8-482a-9b71-58e7df4a1906{font-size:11px;}.f81000d2-fb70-444f-aeef-dfcb7c845cbd{letter-spacing:-0.03em;}.a64bd63c-c321-4f9f-982a-b1a51356cd5c,.e03e699b-fac2-444b-8ba8-7c9e684a8757{font-size:10px;}.b28c9d13-a0b8-410b-a286-fbea1d6453bb{letter-spacing:-0.02em;}.a2cf491e-c5d0-4da4-ab96-ed8944a6c5b0{letter-spacing:-0.11em;}.a8e12346-2334-4662-9949-8229db5f0cec{letter-spacing:-0.13em;}.ba7c4852-9922-4afd-95f9-4984e44082fb{letter-spacing:-0.06em;}.f73544ad-8b8b-41f4-9ca3-2af448825852{letter-spacing:-0.09em;}.b2f66c40-00c4-4dc0-ae05-40c8d7b7d6e6{letter-spacing:-0.03em;}.a499de85-70dd-4af8-ba05-d554d4f3e6e2{fill:#3eaf49;}.a64bd63c-c321-4f9f-982a-b1a51356cd5c{fill:#fff;}.faa0c89c-3d2e-4342-98c1-167061e9f8eb{letter-spacing:-0.09em;}.f627d8eb-cda2-4098-bb9b-e8eab06db74a{fill:#d23138;}</style></defs><title>CDOT_diagrams_CH4</title><g id="b8b875f0-8a59-456d-9b57-5b65d2aef955" data-name="shapes"><line class="e791c01a-ab3e-4e38-a56e-ddafe27d0050" x1="18.38" y1="243.15" x2="20.88" y2="243.15"/><line class="a472d250-9f75-461e-83f8-86713ab59497" x1="23.88" y1="243.15" x2="1632.93" y2="243.15"/><line class="e791c01a-ab3e-4e38-a56e-ddafe27d0050" x1="1634.43" y1="243.15" x2="1636.93" y2="243.15"/><line class="e791c01a-ab3e-4e38-a56e-ddafe27d0050" x1="18.38" y1="415.41" x2="20.88" y2="415.41"/><line class="a472d250-9f75-461e-83f8-86713ab59497" x1="23.88" y1="415.41" x2="1632.93" y2="415.41"/><line class="e791c01a-ab3e-4e38-a56e-ddafe27d0050" x1="1634.43" y1="415.41" x2="1636.93" y2="415.41"/><line class="e791c01a-ab3e-4e38-a56e-ddafe27d0050" x1="18.38" y1="562.01" x2="20.88" y2="562.01"/><line class="a472d250-9f75-461e-83f8-86713ab59497" x1="23.88" y1="562.01" x2="1632.93" y2="562.01"/><line class="e791c01a-ab3e-4e38-a56e-ddafe27d0050" x1="1634.43" y1="562.01" x2="1636.93" y2="562.01"/><line class="e791c01a-ab3e-4e38-a56e-ddafe27d0050" x1="18.38" y1="758.6" x2="20.88" y2="758.6"/><line class="a472d250-9f75-461e-83f8-86713ab59497" x1="23.88" y1="758.6" x2="1632.93" y2="758.6"/><line class="e791c01a-ab3e-4e38-a56e-ddafe27d0050" x1="1634.43" y1="758.6" x2="1636.93" y2="758.6"/><line class="e791c01a-ab3e-4e38-a56e-ddafe27d0050" x1="18.38" y1="948.37" x2="20.88" y2="948.37"/><line class="a472d250-9f75-461e-83f8-86713ab59497" x1="23.88" y1="948.37" x2="1632.93" y2="948.37"/><line class="e791c01a-ab3e-4e38-a56e-ddafe27d0050" x1="1634.43" y1="948.37" x2="1636.93" y2="948.37"/><line class="e791c01a-ab3e-4e38-a56e-ddafe27d0050" x1="17.4" y1="1082.52" x2="19.9" y2="1082.52"/><line class="a472d250-9f75-461e-83f8-86713ab59497" x1="22.91" y1="1082.52" x2="1631.95" y2="1082.52"/><line class="e791c01a-ab3e-4e38-a56e-ddafe27d0050" x1="1633.46" y1="1082.52" x2="1635.96" y2="1082.52"/><line class="a577e9ea-6bd8-4b39-8309-a1712c6d6ca4" x1="175.83" y1="145.33" x2="224.52" y2="145.33"/><polygon class="fcbf1186-d11c-42d2-9232-29faf04037e1" points="222.76 151.31 233.13 145.33 222.76 139.35 222.76 151.31"/><polyline class="a577e9ea-6bd8-4b39-8309-a1712c6d6ca4" points="545.28 121.87 583.01 121.87 583.01 618.4"/><polygon class="fcbf1186-d11c-42d2-9232-29faf04037e1" points="577.03 616.65 583.01 627.01 588.99 616.65 577.03 616.65"/><polyline class="a577e9ea-6bd8-4b39-8309-a1712c6d6ca4" points="424.09 492.3 501.31 492.3 501.31 415.71"/><polygon class="fcbf1186-d11c-42d2-9232-29faf04037e1" points="507.29 417.47 501.31 407.1 495.32 417.47 507.29 417.47"/><line class="a577e9ea-6bd8-4b39-8309-a1712c6d6ca4" x1="501.6" y1="149.08" x2="501.6" y2="256.77"/><polygon class="fcbf1186-d11c-42d2-9232-29faf04037e1" points="495.62 255.02 501.6 265.38 507.59 255.02 495.62 255.02"/><line class="a577e9ea-6bd8-4b39-8309-a1712c6d6ca4" x1="1172.08" y1="197.95" x2="1172.08" y2="268.5"/><polygon class="fcbf1186-d11c-42d2-9232-29faf04037e1" points="1166.1 266.75 1172.08 277.11 1178.06 266.75 1166.1 266.75"/><line class="a577e9ea-6bd8-4b39-8309-a1712c6d6ca4" x1="1486.81" y1="339.71" x2="1486.81" y2="982.74"/><polygon class="fcbf1186-d11c-42d2-9232-29faf04037e1" points="1480.83 980.99 1486.81 991.35 1492.79 980.99 1480.83 980.99"/><line class="a577e9ea-6bd8-4b39-8309-a1712c6d6ca4" x1="1486.81" y1="1041.54" x2="1486.81" y2="1124.5"/><polygon class="fcbf1186-d11c-42d2-9232-29faf04037e1" points="1480.83 1122.75 1486.81 1133.12 1492.79 1122.75 1480.83 1122.75"/><line class="a577e9ea-6bd8-4b39-8309-a1712c6d6ca4" x1="1326.51" y1="281.54" x2="1326.51" y2="193.85"/><polygon class="fcbf1186-d11c-42d2-9232-29faf04037e1" points="1332.49 195.6 1326.51 185.24 1320.52 195.6 1332.49 195.6"/><polyline class="a577e9ea-6bd8-4b39-8309-a1712c6d6ca4" points="1326.51 112.73 1326.51 95.32 1502.65 95.32"/><polygon class="fcbf1186-d11c-42d2-9232-29faf04037e1" points="1500.89 101.31 1511.26 95.32 1500.89 89.34 1500.89 101.31"/><polyline class="a577e9ea-6bd8-4b39-8309-a1712c6d6ca4" points="291.47 177.42 291.47 860.61 326.54 860.61"/><polygon class="fcbf1186-d11c-42d2-9232-29faf04037e1" points="324.79 866.59 335.15 860.61 324.79 854.62 324.79 866.59"/><line class="a577e9ea-6bd8-4b39-8309-a1712c6d6ca4" x1="501.6" y1="330.68" x2="501.6" y2="353.35"/><polygon class="fcbf1186-d11c-42d2-9232-29faf04037e1" points="495.62 332.43 501.6 322.07 507.59 332.43 495.62 332.43"/><line class="a577e9ea-6bd8-4b39-8309-a1712c6d6ca4" x1="291.07" y1="490.18" x2="326.15" y2="490.18"/><polygon class="fcbf1186-d11c-42d2-9232-29faf04037e1" points="324.4 496.16 334.77 490.18 324.4 484.2 324.4 496.16"/><line class="a577e9ea-6bd8-4b39-8309-a1712c6d6ca4" x1="632.5" y1="656.99" x2="673.45" y2="656.99"/><polygon class="fcbf1186-d11c-42d2-9232-29faf04037e1" points="671.7 662.97 682.06 656.99 671.7 651 671.7 662.97"/><line class="a577e9ea-6bd8-4b39-8309-a1712c6d6ca4" x1="907.53" y1="152.66" x2="931.45" y2="152.66"/><polygon class="fcbf1186-d11c-42d2-9232-29faf04037e1" points="929.7 158.64 940.06 152.66 929.7 146.68 929.7 158.64"/><line class="a577e9ea-6bd8-4b39-8309-a1712c6d6ca4" x1="1029.7" y1="152.66" x2="1096.71" y2="152.66"/><polygon class="fcbf1186-d11c-42d2-9232-29faf04037e1" points="1094.96 158.64 1105.32 152.66 1094.96 146.68 1094.96 158.64"/><line class="a577e9ea-6bd8-4b39-8309-a1712c6d6ca4" x1="1233.99" y1="315.88" x2="1272.37" y2="315.88"/><polygon class="fcbf1186-d11c-42d2-9232-29faf04037e1" points="1270.62 321.87 1280.98 315.88 1270.62 309.9 1270.62 321.87"/><polyline class="a577e9ea-6bd8-4b39-8309-a1712c6d6ca4" points="987.59 186.36 987.59 315.23 1095.73 315.23"/><polygon class="fcbf1186-d11c-42d2-9232-29faf04037e1" points="1093.98 321.21 1104.34 315.23 1093.98 309.25 1093.98 321.21"/><polyline class="a577e9ea-6bd8-4b39-8309-a1712c6d6ca4" points="1375.73 146.8 1408.96 146.8 1408.96 314.9 1429.02 314.9"/><polygon class="fcbf1186-d11c-42d2-9232-29faf04037e1" points="1427.27 320.89 1437.63 314.9 1427.27 308.92 1427.27 320.89"/></g><g id="b50823f4-04b7-45ac-a4f8-e26e29a615b8" data-name="text"><polyline class="a577e9ea-6bd8-4b39-8309-a1712c6d6ca4" points="466.02 295.3 418.23 295.3 418.23 145.17 362.33 145.17"/><polygon class="fcbf1186-d11c-42d2-9232-29faf04037e1" points="364.08 139.18 353.72 145.17 364.08 151.15 364.08 139.18"/><text class="f302ae9a-d9b9-4051-a444-9f748a5825ff" transform="translate(18.5 35.68)">4-3 DTR <tspan class="bac4de2e-2a9e-4fba-bf56-c629fbe1c3c9" x="96.16" y="0">P</tspan><tspan x="109.13" y="0">ersonal Ser</tspan><tspan class="bffb0452-2c3c-40d4-bb62-48d9b6c76de6" x="234.67" y="0">v</tspan><tspan x="248.07" y="0">ices Procurement - 1</tspan></text><text class="b29c537b-dce8-482a-9b71-58e7df4a1906" transform="translate(42.66 218.91) rotate(-90)">DTR Project Coordinator</text><text class="b29c537b-dce8-482a-9b71-58e7df4a1906" transform="translate(42.66 361.1) rotate(-90)">DTR Director</text><text class="b29c537b-dce8-482a-9b71-58e7df4a1906" transform="translate(42.66 714.98) rotate(-90)">Procurement Office</text><text class="b29c537b-dce8-482a-9b71-58e7df4a1906" transform="translate(42.66 870.69) rotate(-90)">CRBRC</text><text class="b29c537b-dce8-482a-9b71-58e7df4a1906" transform="translate(42.66 1059.98) rotate(-90)">Human Resources</text><text class="b29c537b-dce8-482a-9b71-58e7df4a1906" transform="translate(42.66 1183.92) rotate(-90)">Accounting</text><text class="b29c537b-dce8-482a-9b71-58e7df4a1906" transform="translate(35.31 534.99) rotate(-90) scale(0.99 1)">DTR Prog<tspan class="f81000d2-fb70-444f-aeef-dfcb7c845cbd" x="46.73" y="0">r</tspan><tspan x="51.09" y="0">amming</tspan><tspan x="34.78" y="13.2">Unit</tspan></text><polygon class="f9bfd67d-175f-43db-a2b9-166884b9ced3" points="1637.01 1228.56 18.38 1228.56 18.38 68.61 57.49 68.61 1637.01 68.61 1637.01 1228.56"/><line class="f9bfd67d-175f-43db-a2b9-166884b9ced3" x1="64.85" y1="1229.07" x2="64.85" y2="69.44"/><rect class="a577e9ea-6bd8-4b39-8309-a1712c6d6ca4" x="88.92" y="119.98" width="86.61" height="52.69"/><text class="e03e699b-fac2-444b-8ba8-7c9e684a8757" transform="translate(99.76 141.71)">Define needs/<tspan x="-0.1" y="13">Requirements</tspan></text><rect class="a577e9ea-6bd8-4b39-8309-a1712c6d6ca4" x="458.37" y="354.54" width="86.61" height="52.69"/><path class="fcbf1186-d11c-42d2-9232-29faf04037e1" d="M473.65,371.27l-1.91-2.95-.81,0v3h-1.32v-7.15l.83,0,1.16,0c1.81,0,2.72.7,2.72,2.11a1.92,1.92,0,0,1-.37,1.15,2.06,2.06,0,0,1-.95.74l2.11,3.22Zm-2.72-6v2l.54,0a2.4,2.4,0,0,0,1.16-.22,1,1,0,0,0,.37-.88.77.77,0,0,0-.39-.74,2.81,2.81,0,0,0-1.25-.21Z"/><path class="fcbf1186-d11c-42d2-9232-29faf04037e1" d="M480.32,369h-3.74a1.32,1.32,0,0,0,.43,1,1.58,1.58,0,0,0,1.07.35,1.77,1.77,0,0,0,1.27-.43l.47.93a3,3,0,0,1-1.92.52,2.56,2.56,0,0,1-1.9-.7,2.68,2.68,0,0,1-.69-2,2.71,2.71,0,0,1,.76-2,2.7,2.7,0,0,1,3.66-.09,2.34,2.34,0,0,1,.69,1.73A3.23,3.23,0,0,1,480.32,369Zm-3.69-.92h2.56a1.13,1.13,0,0,0-1.26-1.14A1.25,1.25,0,0,0,476.63,368.11Z"/><path class="fcbf1186-d11c-42d2-9232-29faf04037e1" d="M483.56,371.37h-.43L480.76,366h1.34l1.25,3.2,1.34-3.2H486Z"/><path class="fcbf1186-d11c-42d2-9232-29faf04037e1" d="M487.31,371.27V367h-.67v-1h1.91v5.23Zm.63-7.25a.7.7,0,0,1,.5.2.71.71,0,0,1,0,1,.73.73,0,0,1-1,0,.71.71,0,0,1,0-1A.7.7,0,0,1,487.94,364Z"/><path class="fcbf1186-d11c-42d2-9232-29faf04037e1" d="M494.63,369H490.9a1.28,1.28,0,0,0,.43,1,1.56,1.56,0,0,0,1.06.35,1.76,1.76,0,0,0,1.27-.43l.48.93a3,3,0,0,1-1.93.52,2.52,2.52,0,0,1-1.89-.7,2.68,2.68,0,0,1-.7-2,2.71,2.71,0,0,1,.77-2,2.7,2.7,0,0,1,3.66-.09,2.34,2.34,0,0,1,.69,1.73A3.41,3.41,0,0,1,494.63,369Zm-3.69-.92h2.57a1.14,1.14,0,0,0-1.27-1.14A1.25,1.25,0,0,0,490.94,368.11Z"/><path class="fcbf1186-d11c-42d2-9232-29faf04037e1" d="M500.85,371.37h-.44L499,368.16l-1.43,3.21h-.45l-2-5.33h1.28l1.05,3.12,1.28-3.12h.44l1.32,3.14,1.14-3.14h1.2Z"/><path class="fcbf1186-d11c-42d2-9232-29faf04037e1" d="M506.29,370.88l.47-1.14a2.6,2.6,0,0,0,1.48.53c.75,0,1.12-.26,1.12-.78a1.13,1.13,0,0,0-.26-.7A3.54,3.54,0,0,0,508,368a4.89,4.89,0,0,1-1.11-.68,1.67,1.67,0,0,1-.44-.63,2.09,2.09,0,0,1-.15-.81,1.78,1.78,0,0,1,.61-1.38,2.24,2.24,0,0,1,1.56-.54,2.92,2.92,0,0,1,1.82.46l-.39,1.1a2.35,2.35,0,0,0-1.41-.48.92.92,0,0,0-.68.23.78.78,0,0,0-.24.6c0,.41.45.84,1.36,1.28a4.74,4.74,0,0,1,1,.65,1.87,1.87,0,0,1,.48.69,2.21,2.21,0,0,1,.17.87,1.76,1.76,0,0,1-.69,1.43,2.79,2.79,0,0,1-1.84.56A3.32,3.32,0,0,1,506.29,370.88Z"/><path class="fcbf1186-d11c-42d2-9232-29faf04037e1" d="M511.41,367.64a4.08,4.08,0,0,1,.83-2.59,2.74,2.74,0,0,1,2.24-1.06,2.92,2.92,0,0,1,2.36,1,4,4,0,0,1,.82,2.69,4.12,4.12,0,0,1-.86,2.74,3,3,0,0,1-2.41,1,2.6,2.6,0,0,1-2.21-1A4.38,4.38,0,0,1,511.41,367.64Zm1.32,0a3.75,3.75,0,0,0,.42,1.94,1.36,1.36,0,0,0,1.24.69,1.71,1.71,0,0,0,1.45-.68,3.26,3.26,0,0,0,.5-1.95q0-2.52-1.86-2.52a1.48,1.48,0,0,0-1.3.68A3.32,3.32,0,0,0,512.73,367.64Z"/><path class="fcbf1186-d11c-42d2-9232-29faf04037e1" d="M524.55,371.37H524l-1.56-4.51-1.52,4.51h-.52l-2.35-7.25h1.33l1.34,4.32,1.45-4.32h.55l1.46,4.32,1.34-4.32h1.32Z"/><path class="fcbf1186-d11c-42d2-9232-29faf04037e1" d="M528.06,371.27H527l2.7-7.18h1.09Z"/><path class="fcbf1186-d11c-42d2-9232-29faf04037e1" d="M531.32,369V367.8h2.58V369Z"/><path class="fcbf1186-d11c-42d2-9232-29faf04037e1" d="M487.63,377a2,2,0,0,0-.61-.13.75.75,0,0,0-.59.29,1.15,1.15,0,0,0-.24.74V378h1.09v1h-1.07v4.22H485v-4.22h-.76v-1H485a2.31,2.31,0,0,1,.57-1.55,1.76,1.76,0,0,1,1.37-.59,3.66,3.66,0,0,1,1.06.19Z"/><path class="fcbf1186-d11c-42d2-9232-29faf04037e1" d="M491.78,383.28v-.44a2.24,2.24,0,0,1-.71.37,2.43,2.43,0,0,1-.83.16c-1.22,0-1.82-.64-1.82-1.93V378h1.22v3.3c0,.67.3,1,.9,1a1.49,1.49,0,0,0,.77-.21,1.06,1.06,0,0,0,.47-.5V378H493v5.24Z"/><path class="fcbf1186-d11c-42d2-9232-29faf04037e1" d="M497.69,383.27v-3a1.53,1.53,0,0,0-.26-1,1,1,0,0,0-.84-.3,1.31,1.31,0,0,0-.57.15,1.4,1.4,0,0,0-.48.37v3.78h-1.22V378h.88l.23.49a1.82,1.82,0,0,1,1.47-.58,2,2,0,0,1,1.47.55,2.18,2.18,0,0,1,.54,1.56v3.21Z"/><path class="fcbf1186-d11c-42d2-9232-29faf04037e1" d="M503.59,383.27V383a1.31,1.31,0,0,1-.51.29,2.36,2.36,0,0,1-.75.12,2.21,2.21,0,0,1-1.72-.69,2.8,2.8,0,0,1-.63-1.94,2.87,2.87,0,0,1,.72-2,2.38,2.38,0,0,1,1.81-.77,2.41,2.41,0,0,1,1.08.24V376.1l1.22-.3v7.47Zm0-4a1.27,1.27,0,0,0-.81-.31,1.42,1.42,0,0,0-1.13.45,1.84,1.84,0,0,0-.4,1.28c0,1.09.53,1.63,1.57,1.63a1.18,1.18,0,0,0,.44-.1.77.77,0,0,0,.33-.22Z"/><path class="fcbf1186-d11c-42d2-9232-29faf04037e1" d="M506.36,383.27V379h-.67v-1h1.91v5.23ZM507,376a.7.7,0,0,1,.5.2.71.71,0,0,1,0,1,.73.73,0,0,1-1,0,.71.71,0,0,1,0-1A.7.7,0,0,1,507,376Z"/><path class="fcbf1186-d11c-42d2-9232-29faf04037e1" d="M512.38,383.27v-3a1.47,1.47,0,0,0-.26-1,1,1,0,0,0-.83-.3,1.35,1.35,0,0,0-.58.15,1.27,1.27,0,0,0-.47.37v3.78H509V378h.88l.22.49a1.82,1.82,0,0,1,1.47-.58,2,2,0,0,1,1.47.55,2.18,2.18,0,0,1,.54,1.56v3.21Z"/><path class="fcbf1186-d11c-42d2-9232-29faf04037e1" d="M514.53,384.62l.77-1a2.07,2.07,0,0,0,1.43.59,2,2,0,0,0,.87-.16.48.48,0,0,0,.34-.43c0-.31-.25-.46-.76-.46-.14,0-.34,0-.61.05s-.47.05-.61.05c-.84,0-1.26-.3-1.26-.91a.76.76,0,0,1,.21-.5,1.25,1.25,0,0,1,.49-.37,1.86,1.86,0,0,1-.9-1.65,1.76,1.76,0,0,1,.62-1.38,2.16,2.16,0,0,1,1.51-.55,2.37,2.37,0,0,1,1.18.26l.48-.56.84.77-.58.42a2,2,0,0,1,.3,1.09,1.94,1.94,0,0,1-.54,1.43,1.89,1.89,0,0,1-1.37.53l-.36,0-.2,0a1.18,1.18,0,0,0-.26.1c-.15.07-.22.15-.22.22s.11.2.33.2a3.07,3.07,0,0,0,.51-.08,3,3,0,0,1,.61-.07c1.19,0,1.78.48,1.78,1.43a1.38,1.38,0,0,1-.71,1.24,3.15,3.15,0,0,1-1.72.45A3.61,3.61,0,0,1,514.53,384.62Zm1.22-4.74a1,1,0,0,0,.26.74.88.88,0,0,0,.69.28.85.85,0,0,0,.67-.27,1.14,1.14,0,0,0,.23-.75,1,1,0,0,0-.25-.67.86.86,0,0,0-.65-.27.93.93,0,0,0-.69.26A.94.94,0,0,0,515.75,379.88Z"/><path class="fcbf1186-d11c-42d2-9232-29faf04037e1" d="M468.42,394.94l.43-1a2,2,0,0,0,1.24.44c.48,0,.71-.17.71-.51a.64.64,0,0,0-.21-.49,3.65,3.65,0,0,0-.84-.45c-.9-.37-1.35-.89-1.35-1.57a1.24,1.24,0,0,1,.52-1.06,2.17,2.17,0,0,1,1.32-.37,3.32,3.32,0,0,1,1.53.36l-.35.95a1.62,1.62,0,0,0-1.11-.34c-.43,0-.64.17-.64.51a.46.46,0,0,0,.21.36,4.76,4.76,0,0,0,.9.43,2.25,2.25,0,0,1,1,.66,1.44,1.44,0,0,1,.3.93,1.37,1.37,0,0,1-.54,1.14,2.3,2.3,0,0,1-1.46.42,3.72,3.72,0,0,1-.84-.08A4.79,4.79,0,0,1,468.42,394.94Z"/><path class="fcbf1186-d11c-42d2-9232-29faf04037e1" d="M472.71,392.65a2.77,2.77,0,0,1,.69-1.95,2.66,2.66,0,0,1,3.67,0,3.28,3.28,0,0,1,0,4,2.67,2.67,0,0,1-3.69,0A2.89,2.89,0,0,1,472.71,392.65Zm1.27,0c0,1.15.41,1.72,1.24,1.72a1.1,1.1,0,0,0,.91-.44,2.14,2.14,0,0,0,.33-1.28c0-1.14-.41-1.71-1.24-1.71a1.09,1.09,0,0,0-.91.45A2.1,2.1,0,0,0,474,392.65Z"/><path class="fcbf1186-d11c-42d2-9232-29faf04037e1" d="M482.08,395.28v-.44a2.19,2.19,0,0,1-.72.37,2.43,2.43,0,0,1-.83.16c-1.21,0-1.82-.64-1.82-1.93V390h1.22v3.3c0,.67.3,1,.9,1a1.46,1.46,0,0,0,.77-.21,1.14,1.14,0,0,0,.48-.5V390h1.22v5.24Z"/><path class="fcbf1186-d11c-42d2-9232-29faf04037e1" d="M487.64,391.18a1.32,1.32,0,0,0-.72-.21,1,1,0,0,0-.75.38,1.4,1.4,0,0,0-.33.94v3h-1.22V390h1.22v.48a1.73,1.73,0,0,1,1.36-.57,1.92,1.92,0,0,1,1,.19Z"/><path class="fcbf1186-d11c-42d2-9232-29faf04037e1" d="M493,390.46l-.52.91a1.61,1.61,0,0,0-1.15-.4,1.37,1.37,0,0,0-1.1.46,1.86,1.86,0,0,0-.4,1.27q0,1.65,1.56,1.65a1.76,1.76,0,0,0,1.2-.45l.45,1a3.17,3.17,0,0,1-.93.42,4.35,4.35,0,0,1-.94.09,2.53,2.53,0,0,1-1.91-.71,2.64,2.64,0,0,1-.7-2,2.68,2.68,0,0,1,.76-2,2.84,2.84,0,0,1,2.09-.76A2.56,2.56,0,0,1,493,390.46Z"/><path class="fcbf1186-d11c-42d2-9232-29faf04037e1" d="M498.67,393h-3.73a1.28,1.28,0,0,0,.43,1,1.56,1.56,0,0,0,1.06.35,1.76,1.76,0,0,0,1.27-.43l.48.93a3,3,0,0,1-1.93.52,2.54,2.54,0,0,1-1.89-.7,2.68,2.68,0,0,1-.7-2,2.71,2.71,0,0,1,.77-2,2.7,2.7,0,0,1,3.66-.09,2.34,2.34,0,0,1,.69,1.73A3.41,3.41,0,0,1,498.67,393Zm-3.69-.92h2.57a1.14,1.14,0,0,0-1.27-1.14A1.26,1.26,0,0,0,495,392.11Z"/><path class="fcbf1186-d11c-42d2-9232-29faf04037e1" d="M500.27,395.27h-1.1l2.7-7.18H503Z"/><path class="fcbf1186-d11c-42d2-9232-29faf04037e1" d="M504.52,395l-.27.39h-.69V388.1l1.22-.3v2.44a2,2,0,0,1,1.06-.29,2.46,2.46,0,0,1,1.85.72,2.55,2.55,0,0,1,.71,1.86,3,3,0,0,1-.71,2.08,2.48,2.48,0,0,1-1.92.76A2,2,0,0,1,504.52,395Zm.26-3.69V394a.91.91,0,0,0,.73.32,1.6,1.6,0,0,0,1.25-.42,2.05,2.05,0,0,0,.37-1.35q0-1.59-1.53-1.59A1,1,0,0,0,504.78,391.29Z"/><path class="fcbf1186-d11c-42d2-9232-29faf04037e1" d="M512.84,395.28v-.44a2.24,2.24,0,0,1-.71.37,2.48,2.48,0,0,1-.84.16c-1.21,0-1.82-.64-1.82-1.93V390h1.22v3.3c0,.67.3,1,.9,1a1.52,1.52,0,0,0,.78-.21,1.17,1.17,0,0,0,.47-.5V390h1.22v5.24Z"/><path class="fcbf1186-d11c-42d2-9232-29faf04037e1" d="M518.74,395.27V395a1.31,1.31,0,0,1-.51.29,2.36,2.36,0,0,1-.75.12,2.21,2.21,0,0,1-1.72-.69,2.8,2.8,0,0,1-.63-1.94,2.87,2.87,0,0,1,.72-2,2.53,2.53,0,0,1,2.89-.53V388.1l1.22-.3v7.47Zm0-4a1.27,1.27,0,0,0-.81-.31,1.42,1.42,0,0,0-1.13.45,1.89,1.89,0,0,0-.4,1.28,1.42,1.42,0,0,0,1.58,1.63,1.18,1.18,0,0,0,.43-.1.77.77,0,0,0,.33-.22Z"/><path class="fcbf1186-d11c-42d2-9232-29faf04037e1" d="M520.79,396.62l.77-1a2.09,2.09,0,0,0,1.43.59,2,2,0,0,0,.87-.16.46.46,0,0,0,.34-.43c0-.31-.25-.46-.76-.46-.13,0-.34,0-.61.05s-.47.05-.61.05c-.84,0-1.26-.3-1.26-.91a.76.76,0,0,1,.21-.5,1.33,1.33,0,0,1,.49-.37,1.87,1.87,0,0,1-.89-1.65,1.75,1.75,0,0,1,.61-1.38,2.19,2.19,0,0,1,1.52-.55,2.3,2.3,0,0,1,1.17.26l.48-.56.85.77-.58.42a2,2,0,0,1,.3,1.09,1.84,1.84,0,0,1-1.92,2l-.35,0-.2,0a1.18,1.18,0,0,0-.26.1c-.15.07-.23.15-.23.22s.11.2.34.2a3.07,3.07,0,0,0,.51-.08,2.92,2.92,0,0,1,.61-.07c1.18,0,1.78.48,1.78,1.43a1.4,1.4,0,0,1-.71,1.24,3.17,3.17,0,0,1-1.72.45A3.63,3.63,0,0,1,520.79,396.62Zm1.22-4.74a1,1,0,0,0,.26.74.88.88,0,0,0,.69.28.85.85,0,0,0,.67-.27,1.09,1.09,0,0,0,.23-.75,1,1,0,0,0-.25-.67.83.83,0,0,0-.65-.27.89.89,0,0,0-.68.26A.91.91,0,0,0,522,391.88Z"/><path class="fcbf1186-d11c-42d2-9232-29faf04037e1" d="M530.87,393h-3.73a1.28,1.28,0,0,0,.43,1,1.56,1.56,0,0,0,1.06.35,1.76,1.76,0,0,0,1.27-.43l.47.93a3,3,0,0,1-1.92.52,2.52,2.52,0,0,1-1.89-.7,2.64,2.64,0,0,1-.7-2,2.71,2.71,0,0,1,.77-2,2.7,2.7,0,0,1,3.66-.09,2.37,2.37,0,0,1,.68,1.73A3.23,3.23,0,0,1,530.87,393Zm-3.69-.92h2.57a1.15,1.15,0,0,0-1.27-1.14A1.25,1.25,0,0,0,527.18,392.11Z"/><path class="fcbf1186-d11c-42d2-9232-29faf04037e1" d="M532.14,391h-.61v-1h.61V389l1.22-.45V390h1.43v1h-1.43v2.29a1.44,1.44,0,0,0,.17.8.74.74,0,0,0,.62.23,1.53,1.53,0,0,0,.82-.24v1.12a3.8,3.8,0,0,1-1.21.15,1.59,1.59,0,0,1-1.2-.44,1.78,1.78,0,0,1-.42-1.26Z"/><rect class="a577e9ea-6bd8-4b39-8309-a1712c6d6ca4" x="534.06" y="628.39" width="98.88" height="60.15"/><text class="e03e699b-fac2-444b-8ba8-7c9e684a8757" transform="translate(546.64 644.53)">Complete initial <tspan x="4.76" y="12">re</tspan><tspan class="bffb0452-2c3c-40d4-bb62-48d9b6c76de6" x="14.78" y="12">v</tspan><tspan x="20.37" y="12">iew of RF</tspan><tspan class="b28c9d13-a0b8-410b-a286-fbea1d6453bb" x="64.26" y="12">P</tspan><tspan x="69.95" y="12"> </tspan><tspan x="3.62" y="24">Determination </tspan><tspan class="bac4de2e-2a9e-4fba-bf56-c629fbe1c3c9" x="25.41" y="36">F</tspan><tspan x="30.78" y="36">orm</tspan></text><rect class="a577e9ea-6bd8-4b39-8309-a1712c6d6ca4" x="338.15" y="465.97" width="86.61" height="52.69"/><text class="e03e699b-fac2-444b-8ba8-7c9e684a8757" transform="translate(356.76 482.69)">Determine <tspan x="-9.93" y="12">funding source </tspan><tspan x="-1.46" y="24">and budget</tspan></text><rect class="a577e9ea-6bd8-4b39-8309-a1712c6d6ca4" x="338.15" y="830.53" width="132.92" height="52.69"/><text class="e03e699b-fac2-444b-8ba8-7c9e684a8757" transform="translate(353.92 853.26)">Re<tspan class="bffb0452-2c3c-40d4-bb62-48d9b6c76de6" x="11.86" y="0">v</tspan><tspan x="17.44" y="0">iew to determine </tspan><tspan x="-4.57" y="12">possible DBE proposers</tspan></text><rect class="a577e9ea-6bd8-4b39-8309-a1712c6d6ca4" x="459.17" y="96.29" width="86.61" height="52.69"/><text class="e03e699b-fac2-444b-8ba8-7c9e684a8757" transform="translate(469.85 114.02)">Complete RF<tspan class="b28c9d13-a0b8-410b-a286-fbea1d6453bb" x="59.56" y="0">P</tspan><tspan x="65.25" y="0"> </tspan><tspan x="-1.11" y="12">Determination </tspan><tspan class="bac4de2e-2a9e-4fba-bf56-c629fbe1c3c9" x="20.68" y="24">F</tspan><tspan x="26.04" y="24">orm</tspan></text><rect class="a577e9ea-6bd8-4b39-8309-a1712c6d6ca4" x="235.9" y="115.89" width="116.43" height="61.79"/><text class="e03e699b-fac2-444b-8ba8-7c9e684a8757" transform="translate(244.12 130.85)">Develop Statement of <tspan class="b28c9d13-a0b8-410b-a286-fbea1d6453bb" x="12.94" y="12">W</tspan><tspan x="21.6" y="12">ork (SOW) and </tspan><tspan x="9.57" y="24">Independent Cost </tspan><tspan x="17.91" y="36">Estimate (ICE)</tspan></text><rect class="a577e9ea-6bd8-4b39-8309-a1712c6d6ca4" x="764.99" y="96.24" width="142.76" height="119.07"/><text class="e03e699b-fac2-444b-8ba8-7c9e684a8757" transform="translate(814.28 116.47)">Complete:<tspan x="-33.37" y="13">RF</tspan><tspan class="b28c9d13-a0b8-410b-a286-fbea1d6453bb" x="-21.43" y="13">P</tspan><tspan x="-15.74" y="13" xml:space="preserve"> Determination </tspan><tspan class="bac4de2e-2a9e-4fba-bf56-c629fbe1c3c9" x="57.76" y="13">F</tspan><tspan x="63.13" y="13">orm </tspan><tspan class="a2cf491e-c5d0-4da4-ab96-ed8944a6c5b0" x="-35.63" y="25">T</tspan><tspan x="-30.62" y="25">emplate RF</tspan><tspan class="b28c9d13-a0b8-410b-a286-fbea1d6453bb" x="22.49" y="25">P</tspan><tspan x="28.18" y="25" xml:space="preserve"> (evaluation </tspan><tspan x="-38.02" y="37">criteria and scoring break</tspan><tspan x="82.62" y="37">-</tspan><tspan x="9.7" y="49">down)</tspan><tspan class="a8e12346-2334-4662-9949-8229db5f0cec" x="-26.88" y="62">P</tspan><tspan x="-22.3" y="62">.S.</tspan><tspan class="ba7c4852-9922-4afd-95f9-4984e44082fb" x="-9.84" y="62"> </tspan><tspan x="-7.38" y="62">Agreements </tspan><tspan class="bac4de2e-2a9e-4fba-bf56-c629fbe1c3c9" x="51.26" y="62">F</tspan><tspan x="56.63" y="62">orm </tspan><tspan x="-35.45" y="74">Business Case </tspan><tspan class="bac4de2e-2a9e-4fba-bf56-c629fbe1c3c9" x="31.49" y="74">F</tspan><tspan x="36.86" y="74">orm </tspan><tspan class="bac4de2e-2a9e-4fba-bf56-c629fbe1c3c9" x="58.4" y="74">P</tspan><tspan x="63.8" y="74">anel </tspan><tspan class="bac4de2e-2a9e-4fba-bf56-c629fbe1c3c9" x="12.19" y="86">F</tspan><tspan x="17.56" y="86">orm </tspan></text><rect class="a577e9ea-6bd8-4b39-8309-a1712c6d6ca4" x="1107.53" y="102.27" width="126.7" height="96.31"/><text class="e03e699b-fac2-444b-8ba8-7c9e684a8757" transform="translate(1127.18 122.27)">Assemble required <tspan x="6.94" y="12">F</tspan><tspan class="f73544ad-8b8b-41f4-9ca3-2af448825852" x="12.77" y="12">T</tspan><tspan class="ba7c4852-9922-4afd-95f9-4984e44082fb" x="17.94" y="12">A</tspan><tspan x="23.73" y="12" xml:space="preserve"> clauses and </tspan><tspan x="10.84" y="24">certifications, </tspan><tspan x="1.16" y="37">including lobbying </tspan><tspan x="-8.31" y="50">(ProcurementPro, F</tspan><tspan class="f73544ad-8b8b-41f4-9ca3-2af448825852" x="84.74" y="50">T</tspan><tspan class="ba7c4852-9922-4afd-95f9-4984e44082fb" x="89.91" y="50">A</tspan><tspan x="95.69" y="50"> </tspan><tspan x="9.17" y="62">Best P</tspan><tspan class="b2f66c40-00c4-4dc0-ae05-40c8d7b7d6e6" x="38.02" y="62">r</tspan><tspan x="41.98" y="62">actices)</tspan></text><rect class="a577e9ea-6bd8-4b39-8309-a1712c6d6ca4" x="1277.36" y="112.35" width="98.21" height="70.3"/><text class="e03e699b-fac2-444b-8ba8-7c9e684a8757" transform="translate(1289.34 132.34)">Create Shopping <tspan x="9.4" y="12">Cart with all </tspan><tspan x="17.93" y="24">required </tspan><tspan x="9.15" y="37">attachments</tspan></text><polygon class="a577e9ea-6bd8-4b39-8309-a1712c6d6ca4" points="1606.2 128.76 1560.31 159.46 1513.68 128.76 1513.68 77.6 1606.2 77.6 1606.2 128.76"/><text class="e03e699b-fac2-444b-8ba8-7c9e684a8757" transform="translate(1548.06 95.51)"><tspan xml:space="preserve">Go to  </tspan><tspan class="bac4de2e-2a9e-4fba-bf56-c629fbe1c3c9" x="-28.22" y="13">P</tspan><tspan x="-22.82" y="13">ersonal Ser</tspan><tspan class="bffb0452-2c3c-40d4-bb62-48d9b6c76de6" x="29.49" y="13">v</tspan><tspan x="35.08" y="13">ices </tspan><tspan x="-22.46" y="26">Procurement 2</tspan></text><rect class="a577e9ea-6bd8-4b39-8309-a1712c6d6ca4" x="1107.53" y="280.15" width="126.7" height="68.49"/><text class="e03e699b-fac2-444b-8ba8-7c9e684a8757" transform="translate(1128.32 300.15)">Re<tspan class="bffb0452-2c3c-40d4-bb62-48d9b6c76de6" x="11.86" y="0">v</tspan><tspan x="17.44" y="0">iew packet for </tspan><tspan x="8.68" y="12">completeness/ </tspan><tspan x="3.53" y="24">consistency with </tspan><tspan x="8.37" y="36">goals/accu</tspan><tspan class="b2f66c40-00c4-4dc0-ae05-40c8d7b7d6e6" x="57.01" y="36">r</tspan><tspan x="60.97" y="36">acy</tspan></text><rect class="a577e9ea-6bd8-4b39-8309-a1712c6d6ca4" x="1440.84" y="288.88" width="94.42" height="51.04"/><text class="e03e699b-fac2-444b-8ba8-7c9e684a8757" transform="translate(1450.36 311.67)">Re<tspan class="bffb0452-2c3c-40d4-bb62-48d9b6c76de6" x="11.86" y="0">v</tspan><tspan x="17.44" y="0">iew/Approve </tspan><tspan x="5.95" y="12">Shopping Cart</tspan></text><rect class="a577e9ea-6bd8-4b39-8309-a1712c6d6ca4" x="1440.84" y="990.72" width="94.42" height="51.04"/><text class="e03e699b-fac2-444b-8ba8-7c9e684a8757" transform="translate(1450.36 1013.51)">Re<tspan class="bffb0452-2c3c-40d4-bb62-48d9b6c76de6" x="11.86" y="0">v</tspan><tspan x="17.44" y="0">iew/Approve </tspan><tspan x="5.95" y="12">Shopping Cart</tspan></text><rect class="a577e9ea-6bd8-4b39-8309-a1712c6d6ca4" x="1440.84" y="1135.37" width="94.42" height="51.04"/><text class="e03e699b-fac2-444b-8ba8-7c9e684a8757" transform="translate(1450.36 1158.16)">Re<tspan class="bffb0452-2c3c-40d4-bb62-48d9b6c76de6" x="11.86" y="0">v</tspan><tspan x="17.44" y="0">iew/Approve </tspan><tspan x="5.95" y="12">Shopping Cart</tspan></text><rect class="a499de85-70dd-4af8-ba05-d554d4f3e6e2" x="485.64" y="203.82" width="31.28" height="17.57"/><text class="a64bd63c-c321-4f9f-982a-b1a51356cd5c" transform="translate(492.81 215.35)">YES</text><text class="a64bd63c-c321-4f9f-982a-b1a51356cd5c" transform="translate(1067.53 187.94)">REJEC<tspan class="b28c9d13-a0b8-410b-a286-fbea1d6453bb" x="28.93" y="0">T</tspan></text><text class="e03e699b-fac2-444b-8ba8-7c9e684a8757" transform="translate(483.01 292.3)">Approve <tspan class="faa0c89c-3d2e-4342-98c1-167061e9f8eb" x="3.72" y="13">Y</tspan><tspan x="8.93" y="13">es/No</tspan></text><polygon class="a577e9ea-6bd8-4b39-8309-a1712c6d6ca4" points="466.02 295.3 502.48 267.3 538.94 295.3 502.48 323.31 466.02 295.3"/><text class="e03e699b-fac2-444b-8ba8-7c9e684a8757" transform="matrix(1, 0, 0, 1, 703.26, 650.88)">Agree with <tspan x="1.59" y="12" xml:space="preserve">approach?  </tspan><tspan class="faa0c89c-3d2e-4342-98c1-167061e9f8eb" x="9.67" y="25">Y</tspan><tspan x="14.89" y="25">es/No</tspan></text><polygon class="a577e9ea-6bd8-4b39-8309-a1712c6d6ca4" points="685.14 656.87 729.27 622.64 773.72 656.45 729.59 690.69 685.14 656.87"/><text class="e03e699b-fac2-444b-8ba8-7c9e684a8757" transform="matrix(1, 0, 0, 1, 960.95, 150.56)">F<tspan class="f73544ad-8b8b-41f4-9ca3-2af448825852" x="5.83" y="0">T</tspan><tspan class="ba7c4852-9922-4afd-95f9-4984e44082fb" x="11.01" y="0">A</tspan><tspan x="16.79" y="0"> </tspan><tspan class="bac4de2e-2a9e-4fba-bf56-c629fbe1c3c9" x="19.8" y="0">F</tspan><tspan x="25.17" y="0" xml:space="preserve">unds?  </tspan><tspan class="faa0c89c-3d2e-4342-98c1-167061e9f8eb" x="9.98" y="13">Y</tspan><tspan x="15.2" y="13">es/No</tspan></text><polygon class="a577e9ea-6bd8-4b39-8309-a1712c6d6ca4" points="943.14 152.54 987.27 118.31 1031.72 152.12 987.59 186.36 943.14 152.54"/><text class="e03e699b-fac2-444b-8ba8-7c9e684a8757" transform="matrix(1, 0, 0, 1, 1310.31, 305.91)"><tspan class="bac4de2e-2a9e-4fba-bf56-c629fbe1c3c9">P</tspan><tspan x="5.4" y="0">acket </tspan><tspan x="-8.47" y="13">complete?</tspan><tspan class="faa0c89c-3d2e-4342-98c1-167061e9f8eb" x="-0.23" y="26">Y</tspan><tspan x="4.98" y="26">es/No</tspan></text><polygon class="a577e9ea-6bd8-4b39-8309-a1712c6d6ca4" points="1282.29 315.76 1326.41 281.54 1370.87 315.35 1326.74 349.58 1282.29 315.76"/><polyline class="a577e9ea-6bd8-4b39-8309-a1712c6d6ca4" points="729.36 623.75 729.36 76.42 501.31 76.42 501.31 87.36"/><polygon class="fcbf1186-d11c-42d2-9232-29faf04037e1" points="495.32 85.61 501.31 95.97 507.29 85.61 495.32 85.61"/><polyline class="a577e9ea-6bd8-4b39-8309-a1712c6d6ca4" points="772.85 656.45 842.73 656.45 842.73 228.38"/><polygon class="fcbf1186-d11c-42d2-9232-29faf04037e1" points="848.72 230.14 842.73 219.77 836.75 230.14 848.72 230.14"/><rect class="f627d8eb-cda2-4098-bb9b-e8eab06db74a" x="711.52" y="222.33" width="31.28" height="17.57"/><text class="a64bd63c-c321-4f9f-982a-b1a51356cd5c" transform="translate(720.3 233.86)">NO</text><rect class="a499de85-70dd-4af8-ba05-d554d4f3e6e2" x="827.1" y="420.42" width="31.28" height="17.57"/><text class="a64bd63c-c321-4f9f-982a-b1a51356cd5c" transform="translate(834.27 431.94)">YES</text><rect class="a499de85-70dd-4af8-ba05-d554d4f3e6e2" x="1046.61" y="143.17" width="31.28" height="17.57"/><text class="a64bd63c-c321-4f9f-982a-b1a51356cd5c" transform="translate(1053.78 154.7)">YES</text><rect class="a499de85-70dd-4af8-ba05-d554d4f3e6e2" x="1309.85" y="221.45" width="31.28" height="17.57"/><text class="a64bd63c-c321-4f9f-982a-b1a51356cd5c" transform="translate(1317.02 232.98)">YES</text><polyline class="a577e9ea-6bd8-4b39-8309-a1712c6d6ca4" points="1326.42 349.58 1326.42 391.79 842.73 391.79"/><rect class="f627d8eb-cda2-4098-bb9b-e8eab06db74a" x="1120.31" y="382.02" width="31.28" height="17.57"/><text class="a64bd63c-c321-4f9f-982a-b1a51356cd5c" transform="translate(1129.09 393.55)">NO</text></g></svg>