<svg xmlns="http://www.w3.org/2000/svg" viewBox="0 0 2172.5 1255.6"><defs><style>.b67b847c-0790-4775-a47a-f03495c26ba9,.b67d01f3-b1bb-4dcf-b9e3-469d6cb31d58,.f39fb372-a549-4533-80fd-02f9acd674b5,.f9d3fcc2-dd7a-4eb0-b057-5aa614983b09{fill:none;stroke:#646464;stroke-miterlimit:10;}.b67d01f3-b1bb-4dcf-b9e3-469d6cb31d58,.f39fb372-a549-4533-80fd-02f9acd674b5{stroke-width:0.5px;}.f39fb372-a549-4533-80fd-02f9acd674b5{stroke-dasharray:4.99 3;}.b67b847c-0790-4775-a47a-f03495c26ba9{stroke-width:2px;}.b97bd874-d952-4a53-8b42-24a2bce6e253,.e257dffb-09e0-4238-924a-5e6f2229cea0,.e47a42d5-3106-4e69-8603-6f027632de4d,.f5762750-b807-4a29-a946-3a3295d22cd0{fill:#646464;}.e47a42d5-3106-4e69-8603-6f027632de4d{font-size:24px;}.b97bd874-d952-4a53-8b42-24a2bce6e253,.e47a42d5-3106-4e69-8603-6f027632de4d,.f5762750-b807-4a29-a946-3a3295d22cd0,.fad137a6-b0c9-4863-86fc-da6e2a3001dc{font-family:TrebuchetMS-Bold, Trebuchet MS;font-weight:700;}.ab7add93-b2c3-417f-a049-b51e2a448485{letter-spacing:-0.05em;}.a25a37ee-c0e6-4196-bb98-76323028ac39{letter-spacing:0.03em;}.b97bd874-d952-4a53-8b42-24a2bce6e253{font-size:11px;}.a902e55d-908f-442f-a482-eb5f053ea028{letter-spacing:-0.03em;}.f5762750-b807-4a29-a946-3a3295d22cd0,.fad137a6-b0c9-4863-86fc-da6e2a3001dc{font-size:10px;}.e84bb399-3581-43bd-b001-039e064603b3{letter-spacing:-0.02em;}.f48deb14-ed4b-4fd2-8ec2-4ab7802453f8{letter-spacing:-0.03em;}.bd8a025c-9be1-4b82-bcf3-928aaa294221{letter-spacing:-0.06em;}.a59cc944-68e0-44b4-a299-6e9b9710021b{letter-spacing:-0.09em;}.a22f0f45-410f-4aae-ba8b-e0cc347aba0f{fill:#3eaf49;}.fad137a6-b0c9-4863-86fc-da6e2a3001dc{fill:#fff;}.e3e2e678-8b7e-4ef2-a333-5dd12ca7ee0a{fill:#d23138;}</style></defs><title>CDOT_diagrams_CH4</title><g id="e2fe4681-4852-46f4-a2e5-4a928fa3f19a" data-name="shapes"><line class="b67d01f3-b1bb-4dcf-b9e3-469d6cb31d58" x1="18.68" y1="243.15" x2="21.18" y2="243.15"/><line class="f39fb372-a549-4533-80fd-02f9acd674b5" x1="24.18" y1="243.15" x2="2148.42" y2="243.15"/><line class="b67d01f3-b1bb-4dcf-b9e3-469d6cb31d58" x1="2149.91" y1="243.15" x2="2152.41" y2="243.15"/><line class="b67d01f3-b1bb-4dcf-b9e3-469d6cb31d58" x1="18.68" y1="415.41" x2="21.18" y2="415.41"/><line class="f39fb372-a549-4533-80fd-02f9acd674b5" x1="24.18" y1="415.41" x2="2148.42" y2="415.41"/><line class="b67d01f3-b1bb-4dcf-b9e3-469d6cb31d58" x1="2149.91" y1="415.41" x2="2152.41" y2="415.41"/><line class="b67d01f3-b1bb-4dcf-b9e3-469d6cb31d58" x1="18.68" y1="562.01" x2="21.18" y2="562.01"/><line class="f39fb372-a549-4533-80fd-02f9acd674b5" x1="24.18" y1="562.01" x2="2148.42" y2="562.01"/><line class="b67d01f3-b1bb-4dcf-b9e3-469d6cb31d58" x1="2149.91" y1="562.01" x2="2152.41" y2="562.01"/><line class="b67d01f3-b1bb-4dcf-b9e3-469d6cb31d58" x1="18.68" y1="852.75" x2="21.18" y2="852.75"/><line class="f39fb372-a549-4533-80fd-02f9acd674b5" x1="24.18" y1="852.75" x2="2148.42" y2="852.75"/><line class="b67d01f3-b1bb-4dcf-b9e3-469d6cb31d58" x1="2149.91" y1="852.75" x2="2152.41" y2="852.75"/><line class="b67d01f3-b1bb-4dcf-b9e3-469d6cb31d58" x1="18.68" y1="966.91" x2="21.18" y2="966.91"/><line class="f39fb372-a549-4533-80fd-02f9acd674b5" x1="24.18" y1="966.91" x2="2148.42" y2="966.91"/><line class="b67d01f3-b1bb-4dcf-b9e3-469d6cb31d58" x1="2149.91" y1="966.91" x2="2152.41" y2="966.91"/><line class="b67d01f3-b1bb-4dcf-b9e3-469d6cb31d58" x1="17.4" y1="1100.14" x2="19.9" y2="1100.14"/><line class="f39fb372-a549-4533-80fd-02f9acd674b5" x1="22.9" y1="1100.14" x2="2147.13" y2="1100.14"/><line class="b67d01f3-b1bb-4dcf-b9e3-469d6cb31d58" x1="2148.63" y1="1100.14" x2="2151.13" y2="1100.14"/><line class="b67b847c-0790-4775-a47a-f03495c26ba9" x1="174.83" y1="145.33" x2="223.51" y2="145.33"/><polygon class="e257dffb-09e0-4238-924a-5e6f2229cea0" points="221.76 151.31 232.13 145.33 221.76 139.35 221.76 151.31"/><line class="b67b847c-0790-4775-a47a-f03495c26ba9" x1="352.53" y1="145.33" x2="520.58" y2="145.33"/><polygon class="e257dffb-09e0-4238-924a-5e6f2229cea0" points="518.83 151.31 529.19 145.33 518.83 139.35 518.83 151.31"/><line class="b67b847c-0790-4775-a47a-f03495c26ba9" x1="291.47" y1="177.42" x2="291.47" y2="570.84"/><polygon class="e257dffb-09e0-4238-924a-5e6f2229cea0" points="285.48 569.09 291.47 579.45 297.45 569.09 285.48 569.09"/><line class="b67b847c-0790-4775-a47a-f03495c26ba9" x1="574.25" y1="177.42" x2="574.25" y2="570.84"/><polygon class="e257dffb-09e0-4238-924a-5e6f2229cea0" points="568.27 569.09 574.25 579.45 580.24 569.09 568.27 569.09"/><line class="b67b847c-0790-4775-a47a-f03495c26ba9" x1="340.02" y1="615.61" x2="369.71" y2="615.61"/><polygon class="e257dffb-09e0-4238-924a-5e6f2229cea0" points="367.96 621.59 378.33 615.61 367.96 609.63 367.96 621.59"/><line class="b67b847c-0790-4775-a47a-f03495c26ba9" x1="476.34" y1="615.61" x2="512.78" y2="615.61"/><polygon class="e257dffb-09e0-4238-924a-5e6f2229cea0" points="511.03 621.59 521.39 615.61 511.03 609.63 511.03 621.59"/><line class="b67b847c-0790-4775-a47a-f03495c26ba9" x1="617.33" y1="145.33" x2="798.38" y2="145.33"/><polygon class="e257dffb-09e0-4238-924a-5e6f2229cea0" points="796.63 151.31 806.99 145.33 796.63 139.35 796.63 151.31"/><line class="b67b847c-0790-4775-a47a-f03495c26ba9" x1="894.91" y1="145.33" x2="1229.42" y2="145.33"/><polygon class="e257dffb-09e0-4238-924a-5e6f2229cea0" points="1227.67 151.31 1238.03 145.33 1227.67 139.35 1227.67 151.31"/><line class="b67b847c-0790-4775-a47a-f03495c26ba9" x1="855.43" y1="177.42" x2="855.43" y2="570.84"/><polygon class="e257dffb-09e0-4238-924a-5e6f2229cea0" points="849.45 569.09 855.43 579.45 861.42 569.09 849.45 569.09"/><line class="b67b847c-0790-4775-a47a-f03495c26ba9" x1="1285.48" y1="177.42" x2="1285.48" y2="570.84"/><polygon class="e257dffb-09e0-4238-924a-5e6f2229cea0" points="1279.5 569.09 1285.48 579.45 1291.46 569.09 1279.5 569.09"/><line class="b67b847c-0790-4775-a47a-f03495c26ba9" x1="1326.21" y1="145.33" x2="1484.84" y2="145.33"/><polygon class="e257dffb-09e0-4238-924a-5e6f2229cea0" points="1483.09 151.31 1493.45 145.33 1483.09 139.35 1483.09 151.31"/><line class="b67b847c-0790-4775-a47a-f03495c26ba9" x1="1540.9" y1="177.42" x2="1540.9" y2="570.84"/><polygon class="e257dffb-09e0-4238-924a-5e6f2229cea0" points="1534.92 569.09 1540.9 579.45 1546.88 569.09 1534.92 569.09"/><line class="b67b847c-0790-4775-a47a-f03495c26ba9" x1="1581.63" y1="145.33" x2="1733.88" y2="145.33"/><polygon class="e257dffb-09e0-4238-924a-5e6f2229cea0" points="1732.13 151.31 1742.49 145.33 1732.13 139.35 1732.13 151.31"/><line class="b67b847c-0790-4775-a47a-f03495c26ba9" x1="1807.72" y1="171.37" x2="1807.72" y2="570.84"/><polygon class="e257dffb-09e0-4238-924a-5e6f2229cea0" points="1801.74 569.09 1807.72 579.45 1813.71 569.09 1801.74 569.09"/><line class="b67b847c-0790-4775-a47a-f03495c26ba9" x1="1844.87" y1="145.33" x2="2006.02" y2="145.33"/><polygon class="e257dffb-09e0-4238-924a-5e6f2229cea0" points="2004.27 151.31 2014.63 145.33 2004.27 139.35 2004.27 151.31"/><line class="b67b847c-0790-4775-a47a-f03495c26ba9" x1="2070.96" y1="171.37" x2="2070.96" y2="570.84"/><polygon class="e257dffb-09e0-4238-924a-5e6f2229cea0" points="2064.98 569.09 2070.96 579.45 2076.95 569.09 2064.98 569.09"/><line class="b67b847c-0790-4775-a47a-f03495c26ba9" x1="624.2" y1="615.61" x2="658.06" y2="615.61"/><polygon class="e257dffb-09e0-4238-924a-5e6f2229cea0" points="656.31 621.59 666.67 615.61 656.31 609.63 656.31 621.59"/><line class="b67b847c-0790-4775-a47a-f03495c26ba9" x1="1189.12" y1="615.61" x2="1222.99" y2="615.61"/><polygon class="e257dffb-09e0-4238-924a-5e6f2229cea0" points="1221.23 621.59 1231.6 615.61 1221.23 609.63 1221.23 621.59"/><line class="b67b847c-0790-4775-a47a-f03495c26ba9" x1="1580.07" y1="615.61" x2="1613.94" y2="615.61"/><polygon class="e257dffb-09e0-4238-924a-5e6f2229cea0" points="1612.18 621.59 1622.55 615.61 1612.18 609.63 1612.18 621.59"/><line class="b67b847c-0790-4775-a47a-f03495c26ba9" x1="764.97" y1="615.61" x2="797.42" y2="615.61"/><polygon class="e257dffb-09e0-4238-924a-5e6f2229cea0" points="795.67 621.59 806.03 615.61 795.67 609.63 795.67 621.59"/><line class="b67b847c-0790-4775-a47a-f03495c26ba9" x1="908.46" y1="615.61" x2="940.9" y2="615.61"/><polygon class="e257dffb-09e0-4238-924a-5e6f2229cea0" points="939.15 621.59 949.51 615.61 939.15 609.63 939.15 621.59"/><line class="b67b847c-0790-4775-a47a-f03495c26ba9" x1="1335.89" y1="615.61" x2="1368.34" y2="615.61"/><polygon class="e257dffb-09e0-4238-924a-5e6f2229cea0" points="1366.59 621.59 1376.95 615.61 1366.59 609.63 1366.59 621.59"/><line class="b67b847c-0790-4775-a47a-f03495c26ba9" x1="1724.89" y1="615.61" x2="1757.34" y2="615.61"/><polygon class="e257dffb-09e0-4238-924a-5e6f2229cea0" points="1755.59 621.59 1765.95 615.61 1755.59 609.63 1755.59 621.59"/><line class="b67b847c-0790-4775-a47a-f03495c26ba9" x1="1847.06" y1="615.61" x2="1879.51" y2="615.61"/><polygon class="e257dffb-09e0-4238-924a-5e6f2229cea0" points="1877.76 621.59 1888.12 615.61 1877.76 609.63 1877.76 621.59"/><line class="b67b847c-0790-4775-a47a-f03495c26ba9" x1="1970.55" y1="614.61" x2="2020.68" y2="614.61"/><polygon class="e257dffb-09e0-4238-924a-5e6f2229cea0" points="2018.93 620.59 2029.29 614.61 2018.93 608.63 2018.93 620.59"/><polyline class="b67b847c-0790-4775-a47a-f03495c26ba9" points="1468.82 707.48 1542.53 707.48 1542.53 656.48"/><polygon class="e257dffb-09e0-4238-924a-5e6f2229cea0" points="1548.52 658.23 1542.53 647.86 1536.55 658.23 1548.52 658.23"/><line class="b67b847c-0790-4775-a47a-f03495c26ba9" x1="1458.39" y1="615.61" x2="1490.84" y2="615.61"/><polygon class="e257dffb-09e0-4238-924a-5e6f2229cea0" points="1489.09 621.59 1499.45 615.61 1489.09 609.63 1489.09 621.59"/><polyline class="b67b847c-0790-4775-a47a-f03495c26ba9" points="1037.47 709.44 1064.99 709.44 1064.99 611.73 1083.92 611.73"/><polygon class="e257dffb-09e0-4238-924a-5e6f2229cea0" points="1082.17 617.72 1092.53 611.73 1082.17 605.75 1082.17 617.72"/><line class="b67b847c-0790-4775-a47a-f03495c26ba9" x1="991.54" y1="644.93" x2="991.54" y2="662.35"/><polygon class="e257dffb-09e0-4238-924a-5e6f2229cea0" points="985.55 660.6 991.54 670.96 997.52 660.6 985.55 660.6"/><line class="b67b847c-0790-4775-a47a-f03495c26ba9" x1="1419.06" y1="644.93" x2="1419.06" y2="662.35"/><polygon class="e257dffb-09e0-4238-924a-5e6f2229cea0" points="1413.08 660.6 1419.06 670.96 1425.05 660.6 1413.08 660.6"/><line class="b67b847c-0790-4775-a47a-f03495c26ba9" x1="991.54" y1="746.73" x2="991.54" y2="776.94"/><polygon class="e257dffb-09e0-4238-924a-5e6f2229cea0" points="985.55 775.19 991.54 785.55 997.52 775.19 985.55 775.19"/><line class="b67b847c-0790-4775-a47a-f03495c26ba9" x1="1930.65" y1="645.9" x2="1930.65" y2="676.1"/><polygon class="e257dffb-09e0-4238-924a-5e6f2229cea0" points="1924.67 674.35 1930.65 684.72 1936.64 674.35 1924.67 674.35"/></g><g id="ff7a8c50-347b-40af-ab23-b30495e87123" data-name="text"><text class="e47a42d5-3106-4e69-8603-6f027632de4d" transform="translate(18.5 35.68)">4-3 DTR <tspan class="ab7add93-b2c3-417f-a049-b51e2a448485" x="96.16" y="0">P</tspan><tspan x="109.13" y="0">ersonal Ser</tspan><tspan class="a25a37ee-c0e6-4196-bb98-76323028ac39" x="234.67" y="0">v</tspan><tspan x="248.07" y="0">ices Procurement - 2</tspan></text><text class="b97bd874-d952-4a53-8b42-24a2bce6e253" transform="translate(42.66 218.91) rotate(-90)">DTR Project Coordinator</text><text class="b97bd874-d952-4a53-8b42-24a2bce6e253" transform="translate(42.66 361.1) rotate(-90)">DTR Director</text><text class="b97bd874-d952-4a53-8b42-24a2bce6e253" transform="translate(42.66 714.98) rotate(-90)">Procurement Office</text><text class="b97bd874-d952-4a53-8b42-24a2bce6e253" transform="translate(42.66 928.3) rotate(-90)">CRBRC</text><text class="b97bd874-d952-4a53-8b42-24a2bce6e253" transform="translate(42.66 1079.48) rotate(-90)">Human Resources</text><text class="b97bd874-d952-4a53-8b42-24a2bce6e253" transform="translate(42.66 1196.91) rotate(-90)">Accounting</text><text class="b97bd874-d952-4a53-8b42-24a2bce6e253" transform="translate(35.31 534.99) rotate(-90) scale(0.99 1)">DTR Prog<tspan class="a902e55d-908f-442f-a482-eb5f053ea028" x="46.73" y="0">r</tspan><tspan x="51.09" y="0">amming</tspan><tspan x="34.78" y="13.2">Unit</tspan></text><polygon class="f9d3fcc2-dd7a-4eb0-b057-5aa614983b09" points="2151.03 1228.56 19.02 1228.56 19.02 68.61 70.55 68.61 2151.03 68.61 2151.03 1228.56"/><line class="f9d3fcc2-dd7a-4eb0-b057-5aa614983b09" x1="64.85" y1="1229.07" x2="64.85" y2="69.44"/><rect class="b67b847c-0790-4775-a47a-f03495c26ba9" x="244.35" y="582.83" width="95.07" height="67.9"/><text class="f5762750-b807-4a29-a946-3a3295d22cd0" transform="translate(259.43 598.32)">Hold Internal <tspan x="-8.17" y="12">Kick-off meeting </tspan><tspan x="1.55" y="24">with Project </tspan><tspan x="-6.12" y="36">Manager/CRBRC</tspan></text><rect class="b67b847c-0790-4775-a47a-f03495c26ba9" x="381.3" y="582.83" width="95.07" height="67.9"/><text class="f5762750-b807-4a29-a946-3a3295d22cd0" transform="translate(390.11 598.32)">Notify potential <tspan x="7.71" y="12">proposers of </tspan><tspan x="4" y="24">upcoming RF</tspan><tspan class="e84bb399-3581-43bd-b001-039e064603b3" x="63.96" y="24">P</tspan><tspan x="69.65" y="24"> </tspan><tspan x="1.33" y="36">(including DBE)</tspan></text><rect class="b67b847c-0790-4775-a47a-f03495c26ba9" x="524.3" y="582.83" width="100.22" height="79.12"/><text class="f5762750-b807-4a29-a946-3a3295d22cd0" transform="translate(535.86 600.32)">Meeting #1 with <tspan x="13.14" y="12">Evaluation </tspan><tspan x="5.63" y="25">Committee to </tspan><tspan x="-4.48" y="37">re</tspan><tspan class="a25a37ee-c0e6-4196-bb98-76323028ac39" x="5.54" y="37">v</tspan><tspan x="11.13" y="37">iew evaluation </tspan><tspan x="20.02" y="49">process</tspan></text><rect class="b67b847c-0790-4775-a47a-f03495c26ba9" x="235.9" y="115.89" width="116.43" height="61.79"/><text class="f5762750-b807-4a29-a946-3a3295d22cd0" transform="translate(260.84 130.85)">Send potential <tspan x="-1.76" y="12">proposer list to </tspan><tspan x="-12.22" y="24">Procurement Office </tspan><tspan x="-1.55" y="36">(including DBE)</tspan></text><rect class="b67b847c-0790-4775-a47a-f03495c26ba9" x="531.48" y="115.89" width="85.65" height="61.79"/><text class="f5762750-b807-4a29-a946-3a3295d22cd0" transform="translate(541.14 137.37)"><tspan class="ab7add93-b2c3-417f-a049-b51e2a448485">P</tspan><tspan x="5.4" y="0">articipate on </tspan><tspan x="8.25" y="12">Evaluation </tspan><tspan x="7.06" y="24">Committee</tspan></text><rect class="b67b847c-0790-4775-a47a-f03495c26ba9" x="669.93" y="582.83" width="95.07" height="80.22"/><path class="e257dffb-09e0-4238-924a-5e6f2229cea0" d="M684.18,594.68v2.64h-1.27v-7.15l1.48-.06a4.65,4.65,0,0,1,2.48.52,1.83,1.83,0,0,1,.79,1.63c0,1.64-1,2.46-2.9,2.46A4.68,4.68,0,0,1,684.18,594.68Zm0-3.41v2.29l.51,0a2.22,2.22,0,0,0,1.27-.29,1.11,1.11,0,0,0,.4-.95c0-.74-.6-1.11-1.79-1.11A2.38,2.38,0,0,0,684.18,591.27Z"/><path class="e257dffb-09e0-4238-924a-5e6f2229cea0" d="M692.08,597.32v-.44a2.3,2.3,0,0,1-.72.38,2.66,2.66,0,0,1-.83.15c-1.22,0-1.82-.64-1.82-1.93v-3.39h1.22v3.3c0,.67.3,1,.9,1a1.49,1.49,0,0,0,.77-.21,1.14,1.14,0,0,0,.48-.5v-3.59h1.22v5.23Z"/><path class="e257dffb-09e0-4238-924a-5e6f2229cea0" d="M695.48,597l-.28.38h-.68v-7.27l1.22-.3v2.45a2,2,0,0,1,1.06-.3,2.46,2.46,0,0,1,1.85.72,2.57,2.57,0,0,1,.7,1.86,2.94,2.94,0,0,1-.7,2.08,2.49,2.49,0,0,1-1.92.76A2.08,2.08,0,0,1,695.48,597Zm.26-3.7v2.73a.9.9,0,0,0,.72.32,1.62,1.62,0,0,0,1.26-.42,2,2,0,0,0,.37-1.34c0-1.07-.51-1.6-1.53-1.6A1.08,1.08,0,0,0,695.74,593.33Z"/><path class="e257dffb-09e0-4238-924a-5e6f2229cea0" d="M700.64,590.14l1.22-.3v5.88c0,.65.19,1,.58,1.16a1,1,0,0,1-1,.53c-.55,0-.83-.38-.83-1.15Z"/><path class="e257dffb-09e0-4238-924a-5e6f2229cea0" d="M703.71,597.32v-4.23H703v-1h1.9v5.23Zm.63-7.26a.69.69,0,0,1,.5.21.7.7,0,0,1,.2.5.72.72,0,0,1-.2.5.69.69,0,0,1-.5.21.66.66,0,0,1-.5-.21.69.69,0,0,1-.21-.5.67.67,0,0,1,.21-.5A.66.66,0,0,1,704.34,590.06Z"/><path class="e257dffb-09e0-4238-924a-5e6f2229cea0" d="M706,597l.43-1a2,2,0,0,0,1.24.43c.47,0,.71-.17.71-.51a.6.6,0,0,0-.21-.48,3.17,3.17,0,0,0-.84-.45c-.9-.38-1.35-.9-1.35-1.58a1.21,1.21,0,0,1,.52-1,2.11,2.11,0,0,1,1.32-.38,3.35,3.35,0,0,1,1.53.36l-.35.95a1.64,1.64,0,0,0-1.11-.34c-.43,0-.64.17-.64.51a.46.46,0,0,0,.21.36,4.19,4.19,0,0,0,.9.43,2.25,2.25,0,0,1,1,.66,1.48,1.48,0,0,1,.3.93,1.37,1.37,0,0,1-.54,1.15,2.4,2.4,0,0,1-1.47.41,3.69,3.69,0,0,1-.83-.08A4.79,4.79,0,0,1,706,597Z"/><path class="e257dffb-09e0-4238-924a-5e6f2229cea0" d="M714.05,597.32v-3.23a1,1,0,0,0-.3-.77,1.08,1.08,0,0,0-.79-.3,1.28,1.28,0,0,0-.61.17,1.11,1.11,0,0,0-.44.37v3.76h-1.24v-7.18l1.24-.3v2.58a1.84,1.84,0,0,1,1.3-.43,2.09,2.09,0,0,1,1.53.54,2.14,2.14,0,0,1,.54,1.56v3.23Z"/><path class="e257dffb-09e0-4238-924a-5e6f2229cea0" d="M723.72,597.32l-1.91-3-.81,0v3h-1.32v-7.16l.83,0c.48,0,.86,0,1.16,0,1.81,0,2.72.7,2.72,2.11a2,2,0,0,1-.38,1.16,2,2,0,0,1-.94.73l2.11,3.23ZM721,591.27v2l.54,0a2.29,2.29,0,0,0,1.16-.22.94.94,0,0,0,.37-.88.75.75,0,0,0-.4-.73,2.74,2.74,0,0,0-1.24-.21Z"/><path class="e257dffb-09e0-4238-924a-5e6f2229cea0" d="M727.06,591.29V593h2.52V594h-2.52v3.28h-1.27v-7.16h4.71v1.13Z"/><path class="e257dffb-09e0-4238-924a-5e6f2229cea0" d="M732.9,594.68v2.64h-1.27v-7.15l1.48-.06a4.65,4.65,0,0,1,2.48.52,1.82,1.82,0,0,1,.78,1.63c0,1.64-1,2.46-2.9,2.46A4.67,4.67,0,0,1,732.9,594.68Zm0-3.41v2.29l.5,0a2.2,2.2,0,0,0,1.27-.29,1.08,1.08,0,0,0,.4-.95c0-.74-.59-1.11-1.79-1.11A2.34,2.34,0,0,0,732.9,591.27Z"/><path class="e257dffb-09e0-4238-924a-5e6f2229cea0" d="M739.91,594.69a2.77,2.77,0,0,1,.69-2,2.67,2.67,0,0,1,3.68,0,2.82,2.82,0,0,1,.66,2,2.86,2.86,0,0,1-.68,2,2.34,2.34,0,0,1-1.83.73,2.37,2.37,0,0,1-1.86-.74A2.89,2.89,0,0,1,739.91,594.69Zm1.27,0c0,1.15.42,1.73,1.25,1.73a1.06,1.06,0,0,0,.9-.45,2.07,2.07,0,0,0,.34-1.28c0-1.14-.42-1.71-1.24-1.71a1.07,1.07,0,0,0-.91.45A2,2,0,0,0,741.18,594.69Z"/><path class="e257dffb-09e0-4238-924a-5e6f2229cea0" d="M749.28,597.32v-3a1.5,1.5,0,0,0-.26-1,1,1,0,0,0-.84-.31,1.28,1.28,0,0,0-.57.15,1.42,1.42,0,0,0-.48.38v3.78h-1.22v-5.23h.88l.23.48a1.82,1.82,0,0,1,1.47-.58,1.92,1.92,0,0,1,1.47.56,2.14,2.14,0,0,1,.54,1.56v3.21Z"/><path class="e257dffb-09e0-4238-924a-5e6f2229cea0" d="M678.84,608.92l.47-1.14a2.63,2.63,0,0,0,1.48.53c.75,0,1.12-.26,1.12-.78a1.13,1.13,0,0,0-.26-.7,3.38,3.38,0,0,0-1.09-.74,5.75,5.75,0,0,1-1.11-.68,1.92,1.92,0,0,1-.44-.64,2.09,2.09,0,0,1-.15-.81,1.74,1.74,0,0,1,.61-1.37A2.2,2.2,0,0,1,681,602a2.92,2.92,0,0,1,1.82.46l-.39,1.1a2.35,2.35,0,0,0-1.41-.48,1,1,0,0,0-.68.23.81.81,0,0,0-.24.6c0,.41.45.84,1.36,1.28a4.51,4.51,0,0,1,1,.65,2,2,0,0,1,.48.69,2.23,2.23,0,0,1,.17.88,1.78,1.78,0,0,1-.69,1.43,2.84,2.84,0,0,1-1.84.56A3.24,3.24,0,0,1,678.84,608.92Z"/><path class="e257dffb-09e0-4238-924a-5e6f2229cea0" d="M684.3,602.16h1.27V607a1.32,1.32,0,0,0,.35.94,1.29,1.29,0,0,0,1,.36A1.55,1.55,0,0,0,688,608a1.28,1.28,0,0,0,.38-1v-4.83h1.27v4.92a2.14,2.14,0,0,1-.74,1.73,2.93,2.93,0,0,1-2,.63,2.8,2.8,0,0,1-1.92-.61,2.21,2.21,0,0,1-.68-1.75Z"/><path class="e257dffb-09e0-4238-924a-5e6f2229cea0" d="M690.73,608.92l.47-1.14a2.6,2.6,0,0,0,1.48.53c.75,0,1.12-.26,1.12-.78a1.13,1.13,0,0,0-.26-.7,3.38,3.38,0,0,0-1.09-.74,5.75,5.75,0,0,1-1.11-.68,1.92,1.92,0,0,1-.44-.64,2.09,2.09,0,0,1-.15-.81,1.74,1.74,0,0,1,.61-1.37,2.2,2.2,0,0,1,1.56-.55,2.92,2.92,0,0,1,1.82.46l-.39,1.1a2.35,2.35,0,0,0-1.41-.48,1,1,0,0,0-.68.23.81.81,0,0,0-.24.6c0,.41.45.84,1.36,1.28a4.74,4.74,0,0,1,1,.65,2,2,0,0,1,.48.69,2.23,2.23,0,0,1,.17.88,1.78,1.78,0,0,1-.69,1.43,2.84,2.84,0,0,1-1.84.56A3.24,3.24,0,0,1,690.73,608.92Z"/><path class="e257dffb-09e0-4238-924a-5e6f2229cea0" d="M695.85,608.92l.47-1.14a2.58,2.58,0,0,0,1.48.53q1.11,0,1.11-.78a1.07,1.07,0,0,0-.26-.7,3.38,3.38,0,0,0-1.09-.74,6.1,6.1,0,0,1-1.11-.68,1.92,1.92,0,0,1-.44-.64,2.09,2.09,0,0,1-.15-.81,1.74,1.74,0,0,1,.61-1.37A2.2,2.2,0,0,1,698,602a2.9,2.9,0,0,1,1.82.46l-.39,1.1a2.35,2.35,0,0,0-1.41-.48,1,1,0,0,0-.68.23.81.81,0,0,0-.24.6c0,.41.46.84,1.36,1.28a4.51,4.51,0,0,1,1,.65,2,2,0,0,1,.48.69,2.23,2.23,0,0,1,.17.88,1.78,1.78,0,0,1-.69,1.43,2.84,2.84,0,0,1-1.84.56A3.21,3.21,0,0,1,695.85,608.92Z"/><path class="e257dffb-09e0-4238-924a-5e6f2229cea0" d="M705.58,606.68v2.64h-1.27v-7.15l1.49-.06a4.67,4.67,0,0,1,2.48.52,1.82,1.82,0,0,1,.78,1.63c0,1.64-1,2.46-2.9,2.46A4.81,4.81,0,0,1,705.58,606.68Zm0-3.41v2.29l.51,0a2.22,2.22,0,0,0,1.27-.29,1.08,1.08,0,0,0,.4-.95c0-.74-.6-1.11-1.79-1.11Z"/><path class="e257dffb-09e0-4238-924a-5e6f2229cea0" d="M709.3,606.69a2.77,2.77,0,0,1,.69-2,2.66,2.66,0,0,1,3.67,0,2.82,2.82,0,0,1,.66,2,2.85,2.85,0,0,1-.67,2,2.68,2.68,0,0,1-3.69,0A2.89,2.89,0,0,1,709.3,606.69Zm1.27,0c0,1.15.41,1.73,1.24,1.73a1.07,1.07,0,0,0,.91-.45,2.14,2.14,0,0,0,.33-1.28c0-1.14-.41-1.71-1.24-1.71a1.06,1.06,0,0,0-.9.45A2,2,0,0,0,710.57,606.69Z"/><path class="e257dffb-09e0-4238-924a-5e6f2229cea0" d="M718.32,605.22a1.32,1.32,0,0,0-.72-.21,1,1,0,0,0-.75.38,1.43,1.43,0,0,0-.33,1v3H715.3v-5.23h1.22v.47a1.74,1.74,0,0,1,1.36-.57,1.92,1.92,0,0,1,1,.19Z"/><path class="e257dffb-09e0-4238-924a-5e6f2229cea0" d="M719.76,605.07h-.61v-1h.61V603l1.22-.45v1.52h1.43v1H721v2.29a1.4,1.4,0,0,0,.17.79.73.73,0,0,0,.62.23,1.51,1.51,0,0,0,.82-.24v1.13a4.17,4.17,0,0,1-1.21.14,1.56,1.56,0,0,1-1.2-.44,1.74,1.74,0,0,1-.42-1.26Z"/><path class="e257dffb-09e0-4238-924a-5e6f2229cea0" d="M726.45,608.79a1.25,1.25,0,0,1-.58.45,2.13,2.13,0,0,1-.86.17,2,2,0,0,1-1.33-.42,1.51,1.51,0,0,1-.48-1.2,1.67,1.67,0,0,1,.68-1.42,3.17,3.17,0,0,1,1.93-.51,2,2,0,0,1,.51.07c0-.61-.39-.92-1.17-.92a2.62,2.62,0,0,0-1.15.23l-.26-1a3.46,3.46,0,0,1,1.5-.3,2.45,2.45,0,0,1,1.75.54,2.91,2.91,0,0,1,.56,2.07v1.11q0,1,.42,1.32a.72.72,0,0,1-.34.32,1.4,1.4,0,0,1-.43.06.67.67,0,0,1-.47-.19A1,1,0,0,1,726.45,608.79Zm-.12-1.94a2.7,2.7,0,0,0-.47-.06c-1,0-1.44.32-1.44,1,0,.47.27.7.81.7a1,1,0,0,0,1.1-1.1Z"/><path class="e257dffb-09e0-4238-924a-5e6f2229cea0" d="M729.07,602.14l1.23-.3v5.88c0,.65.19,1,.57,1.16a1,1,0,0,1-1,.53c-.55,0-.83-.38-.83-1.15Z"/><path class="e257dffb-09e0-4238-924a-5e6f2229cea0" d="M740,609.41h-.44l-1.44-3.21-1.43,3.21h-.45l-2-5.32h1.28l1,3.12,1.28-3.12h.44l1.33,3.14,1.13-3.14h1.2Z"/><path class="e257dffb-09e0-4238-924a-5e6f2229cea0" d="M743,609.32v-4.23h-.67v-1h1.91v5.23Zm.63-7.26a.72.72,0,0,1,.71.71.69.69,0,0,1-.21.5.7.7,0,0,1-1,0,.69.69,0,0,1-.21-.5.72.72,0,0,1,.71-.71Z"/><path class="e257dffb-09e0-4238-924a-5e6f2229cea0" d="M745.83,605.07h-.6v-1h.6V603l1.22-.45v1.52h1.44v1h-1.44v2.29a1.31,1.31,0,0,0,.18.79.71.71,0,0,0,.61.23,1.48,1.48,0,0,0,.82-.24v1.13a4.12,4.12,0,0,1-1.21.14,1.56,1.56,0,0,1-1.2-.44,1.74,1.74,0,0,1-.42-1.26Z"/><path class="e257dffb-09e0-4238-924a-5e6f2229cea0" d="M753,609.32v-3.23a1,1,0,0,0-.31-.77,1.06,1.06,0,0,0-.79-.3,1.31,1.31,0,0,0-.61.17,1.18,1.18,0,0,0-.44.37v3.76h-1.24v-7.18l1.24-.3v2.58a1.86,1.86,0,0,1,1.31-.43,2.06,2.06,0,0,1,1.52.54,2.14,2.14,0,0,1,.54,1.56v3.23Z"/><path class="e257dffb-09e0-4238-924a-5e6f2229cea0" d="M677.78,621l.43-1a2,2,0,0,0,1.24.43c.47,0,.71-.17.71-.51a.6.6,0,0,0-.21-.48,3,3,0,0,0-.84-.45c-.9-.38-1.35-.9-1.35-1.58a1.21,1.21,0,0,1,.52-1,2.11,2.11,0,0,1,1.32-.38,3.32,3.32,0,0,1,1.53.36l-.35.95a1.62,1.62,0,0,0-1.11-.34c-.43,0-.64.17-.64.51a.46.46,0,0,0,.21.36,4.19,4.19,0,0,0,.9.43,2.25,2.25,0,0,1,1,.66,1.48,1.48,0,0,1,.3.93,1.37,1.37,0,0,1-.54,1.15,2.39,2.39,0,0,1-1.46.41,3.72,3.72,0,0,1-.84-.08A4.79,4.79,0,0,1,677.78,621Z"/><path class="e257dffb-09e0-4238-924a-5e6f2229cea0" d="M685.32,620.79a1.2,1.2,0,0,1-.58.45,2.1,2.1,0,0,1-.86.17,2,2,0,0,1-1.33-.42,1.51,1.51,0,0,1-.48-1.2,1.67,1.67,0,0,1,.68-1.42,3.17,3.17,0,0,1,1.93-.51,2,2,0,0,1,.51.07c0-.61-.39-.92-1.16-.92a2.66,2.66,0,0,0-1.16.23l-.26-1a3.46,3.46,0,0,1,1.5-.3,2.43,2.43,0,0,1,1.75.54,2.91,2.91,0,0,1,.56,2.07v1.11q0,1,.42,1.32a.68.68,0,0,1-.34.32,1.33,1.33,0,0,1-.42.06.68.68,0,0,1-.48-.19A1,1,0,0,1,685.32,620.79Zm-.12-1.94a2.7,2.7,0,0,0-.47-.06c-1,0-1.44.32-1.44,1,0,.47.27.7.81.7a1,1,0,0,0,1.1-1.1Z"/><path class="e257dffb-09e0-4238-924a-5e6f2229cea0" d="M693.79,621.32V618c0-.69-.31-1-.92-1a1.07,1.07,0,0,0-.89.53v3.78h-1.22v-3.47a.79.79,0,0,0-.24-.61.9.9,0,0,0-.67-.23,1,1,0,0,0-.5.17,1.09,1.09,0,0,0-.39.38v3.76h-1.22v-5.23h.84l.25.45a1.67,1.67,0,0,1,1.31-.55,2.09,2.09,0,0,1,1.57.56,1.51,1.51,0,0,1,.64-.41,2.33,2.33,0,0,1,.82-.15,1.84,1.84,0,0,1,1.36.5,1.89,1.89,0,0,1,.48,1.37v3.46Z"/><path class="e257dffb-09e0-4238-924a-5e6f2229cea0" d="M697.45,621.18v2.19h-1.22v-7.28h1.22v.35a1.57,1.57,0,0,1,1.13-.45c1.67,0,2.5.92,2.5,2.75a2.68,2.68,0,0,1-.69,2,2.55,2.55,0,0,1-1.89.69A2.31,2.31,0,0,1,697.45,621.18Zm0-3.81v2.74a1.19,1.19,0,0,0,.78.27,1.56,1.56,0,0,0,1.21-.4,1.82,1.82,0,0,0,.37-1.27,1.88,1.88,0,0,0-.36-1.31,1.67,1.67,0,0,0-1.22-.38A1.08,1.08,0,0,0,697.45,617.37Z"/><path class="e257dffb-09e0-4238-924a-5e6f2229cea0" d="M702.37,614.14l1.22-.3v5.88c0,.65.19,1,.57,1.16a1,1,0,0,1-1,.53c-.56,0-.83-.38-.83-1.15Z"/><path class="e257dffb-09e0-4238-924a-5e6f2229cea0" d="M709.77,619.07H706a1.32,1.32,0,0,0,.43,1,1.55,1.55,0,0,0,1.06.34,1.71,1.71,0,0,0,1.27-.43l.47.93a3,3,0,0,1-1.92.52,2.52,2.52,0,0,1-1.89-.7,2.67,2.67,0,0,1-.7-2,2.74,2.74,0,0,1,.77-2,2.49,2.49,0,0,1,1.83-.76,2.47,2.47,0,0,1,1.83.68,2.32,2.32,0,0,1,.69,1.73A3.33,3.33,0,0,1,709.77,619.07Zm-3.69-.91h2.57a1.15,1.15,0,0,0-1.27-1.15A1.25,1.25,0,0,0,706.08,618.16Z"/><path class="e257dffb-09e0-4238-924a-5e6f2229cea0" d="M718,616.5l-.53.91a1.6,1.6,0,0,0-1.15-.4,1.38,1.38,0,0,0-1.1.46,1.92,1.92,0,0,0-.4,1.28c0,1.09.52,1.64,1.57,1.64a1.79,1.79,0,0,0,1.2-.45l.45,1a3.29,3.29,0,0,1-.93.42,5.19,5.19,0,0,1-1,.08,2.58,2.58,0,0,1-1.91-.7,3,3,0,0,1,.07-4,2.83,2.83,0,0,1,2.09-.76A2.56,2.56,0,0,1,718,616.5Z"/><path class="e257dffb-09e0-4238-924a-5e6f2229cea0" d="M718.64,618.69a2.77,2.77,0,0,1,.69-2,2.36,2.36,0,0,1,1.82-.75,2.4,2.4,0,0,1,1.86.72,3.32,3.32,0,0,1,0,4,2.68,2.68,0,0,1-3.69,0A2.89,2.89,0,0,1,718.64,618.69Zm1.27,0c0,1.15.41,1.73,1.24,1.73a1.06,1.06,0,0,0,.91-.45,2.14,2.14,0,0,0,.33-1.28c0-1.14-.41-1.71-1.24-1.71a1.06,1.06,0,0,0-.9.45A2,2,0,0,0,719.91,618.69Z"/><path class="e257dffb-09e0-4238-924a-5e6f2229cea0" d="M728,621.32v-3a1.5,1.5,0,0,0-.26-1,1,1,0,0,0-.84-.31,1.28,1.28,0,0,0-.57.15,1.33,1.33,0,0,0-.48.38v3.78h-1.22v-5.23h.88l.22.48a1.84,1.84,0,0,1,1.47-.58,1.93,1.93,0,0,1,1.48.56,2.14,2.14,0,0,1,.54,1.56v3.21Z"/><path class="e257dffb-09e0-4238-924a-5e6f2229cea0" d="M730.73,617.07h-.61v-1h.61V615l1.22-.45v1.52h1.44v1H732v2.29a1.31,1.31,0,0,0,.18.79.69.69,0,0,0,.61.23,1.51,1.51,0,0,0,.82-.24v1.13a4.17,4.17,0,0,1-1.21.14,1.56,1.56,0,0,1-1.2-.44,1.74,1.74,0,0,1-.42-1.26Z"/><path class="e257dffb-09e0-4238-924a-5e6f2229cea0" d="M737.53,617.22a1.32,1.32,0,0,0-.72-.21,1,1,0,0,0-.75.38,1.43,1.43,0,0,0-.33,1v3h-1.22v-5.23h1.22v.47a1.74,1.74,0,0,1,1.36-.57,1.92,1.92,0,0,1,1,.19Z"/><path class="e257dffb-09e0-4238-924a-5e6f2229cea0" d="M741.38,620.79a1.2,1.2,0,0,1-.58.45,2.1,2.1,0,0,1-.86.17,2,2,0,0,1-1.33-.42,1.51,1.51,0,0,1-.48-1.2,1.67,1.67,0,0,1,.68-1.42,3.17,3.17,0,0,1,1.93-.51,2,2,0,0,1,.51.07c0-.61-.39-.92-1.16-.92a2.66,2.66,0,0,0-1.16.23l-.26-1a3.46,3.46,0,0,1,1.5-.3,2.43,2.43,0,0,1,1.75.54,2.91,2.91,0,0,1,.56,2.07v1.11q0,1,.42,1.32a.68.68,0,0,1-.34.32,1.33,1.33,0,0,1-.42.06.68.68,0,0,1-.48-.19A1,1,0,0,1,741.38,620.79Zm-.12-1.94a2.7,2.7,0,0,0-.47-.06c-1,0-1.44.32-1.44,1,0,.47.27.7.81.7a1,1,0,0,0,1.1-1.1Z"/><path class="e257dffb-09e0-4238-924a-5e6f2229cea0" d="M747.9,616.5l-.52.91a1.64,1.64,0,0,0-1.16-.4,1.36,1.36,0,0,0-1.09.46,1.87,1.87,0,0,0-.41,1.28c0,1.09.53,1.64,1.57,1.64a1.79,1.79,0,0,0,1.2-.45l.45,1a3.29,3.29,0,0,1-.93.42,5.15,5.15,0,0,1-.94.08,2.55,2.55,0,0,1-1.91-.7,2.66,2.66,0,0,1-.71-2,2.7,2.7,0,0,1,.77-2,2.83,2.83,0,0,1,2.09-.76A2.56,2.56,0,0,1,747.9,616.5Z"/><path class="e257dffb-09e0-4238-924a-5e6f2229cea0" d="M749.1,617.07h-.61v-1h.61V615l1.22-.45v1.52h1.44v1h-1.44v2.29a1.31,1.31,0,0,0,.18.79.69.69,0,0,0,.61.23,1.51,1.51,0,0,0,.82-.24v1.13a4.17,4.17,0,0,1-1.21.14,1.56,1.56,0,0,1-1.2-.44,1.74,1.74,0,0,1-.42-1.26Z"/><path class="e257dffb-09e0-4238-924a-5e6f2229cea0" d="M753.28,623.14l-.42-.53q.9-.68.9-1.05a.5.5,0,0,0-.11-.29.69.69,0,0,1-.46-.63.58.58,0,0,1,.24-.48,1,1,0,0,1,.61-.2.82.82,0,0,1,.59.26.81.81,0,0,1,.25.59,2.26,2.26,0,0,1-.29,1.13A4.24,4.24,0,0,1,753.28,623.14Z"/><path class="e257dffb-09e0-4238-924a-5e6f2229cea0" d="M684.73,627.29v6h-1.27v-6h-2.27v-1.13h5.92v1.13Z"/><path class="e257dffb-09e0-4238-924a-5e6f2229cea0" d="M691.42,631.07h-3.73a1.36,1.36,0,0,0,.43,1,1.55,1.55,0,0,0,1.06.34,1.71,1.71,0,0,0,1.27-.43l.48.93a3,3,0,0,1-1.93.52,2.55,2.55,0,0,1-1.89-.7,2.67,2.67,0,0,1-.69-2,2.73,2.73,0,0,1,.76-2A2.49,2.49,0,0,1,689,628a2.47,2.47,0,0,1,1.83.68,2.32,2.32,0,0,1,.69,1.73A3.33,3.33,0,0,1,691.42,631.07Zm-3.69-.91h2.57A1.15,1.15,0,0,0,689,629,1.26,1.26,0,0,0,687.73,630.16Z"/><path class="e257dffb-09e0-4238-924a-5e6f2229cea0" d="M695.53,629.22a1.32,1.32,0,0,0-.72-.21,1,1,0,0,0-.76.38,1.47,1.47,0,0,0-.32,1v3h-1.22v-5.23h1.22v.47a1.73,1.73,0,0,1,1.36-.57,1.9,1.9,0,0,1,.95.19Z"/><path class="e257dffb-09e0-4238-924a-5e6f2229cea0" d="M702.83,633.32V630c0-.69-.31-1-.92-1a1.07,1.07,0,0,0-.89.53v3.78H699.8v-3.47a.82.82,0,0,0-.23-.61.92.92,0,0,0-.68-.23,1,1,0,0,0-.5.17,1.09,1.09,0,0,0-.39.38v3.76h-1.22v-5.23h.84l.25.45a1.67,1.67,0,0,1,1.31-.55,2.07,2.07,0,0,1,1.57.56,1.51,1.51,0,0,1,.64-.41,2.33,2.33,0,0,1,.82-.15,1.84,1.84,0,0,1,1.36.5,1.89,1.89,0,0,1,.48,1.37v3.46Z"/><path class="e257dffb-09e0-4238-924a-5e6f2229cea0" d="M705.05,633l.43-1a2,2,0,0,0,1.24.43c.47,0,.71-.17.71-.51a.6.6,0,0,0-.21-.48,3.17,3.17,0,0,0-.84-.45c-.9-.38-1.35-.9-1.35-1.58a1.21,1.21,0,0,1,.52-1,2.11,2.11,0,0,1,1.32-.38,3.38,3.38,0,0,1,1.53.36l-.35.95a1.66,1.66,0,0,0-1.11-.34c-.43,0-.64.17-.64.51a.46.46,0,0,0,.21.36,4.19,4.19,0,0,0,.9.43,2.25,2.25,0,0,1,1,.66,1.48,1.48,0,0,1,.3.93,1.37,1.37,0,0,1-.54,1.15,2.4,2.4,0,0,1-1.47.41,3.69,3.69,0,0,1-.83-.08A4.79,4.79,0,0,1,705.05,633Z"/><path class="e257dffb-09e0-4238-924a-5e6f2229cea0" d="M716.55,633.1a4.25,4.25,0,0,1-1.69.31,2.22,2.22,0,0,1-1.69-.63,2.43,2.43,0,0,1-.59-1.73,2.41,2.41,0,0,1,.73-1.77,1.93,1.93,0,0,1-.64-1.37,1.73,1.73,0,0,1,.61-1.32,2.32,2.32,0,0,1,1.62-.55,2.73,2.73,0,0,1,1.74.53l-.52.89a2,2,0,0,0-1.07-.44,1.22,1.22,0,0,0-.85.27.89.89,0,0,0-.3.72,1.1,1.1,0,0,0,.46.89H716v-.81l1.22-.46v1.29h1.21v1h-1.21v1.41a1.42,1.42,0,0,0,.15.77.61.61,0,0,0,.51.2,1.63,1.63,0,0,0,.67-.15v1.07a3.5,3.5,0,0,1-1.09.16A1.47,1.47,0,0,1,716.55,633.1Zm-.56-1.4V630h-1.75a1.62,1.62,0,0,0-.39,1.06,1.18,1.18,0,0,0,1.34,1.32,1.86,1.86,0,0,0,.83-.15A3,3,0,0,1,716,631.7Z"/><path class="e257dffb-09e0-4238-924a-5e6f2229cea0" d="M727.74,626.54l-.52,1.05a1.9,1.9,0,0,0-1.37-.42,1.77,1.77,0,0,0-1.47.75,3,3,0,0,0-.57,1.89,2.91,2.91,0,0,0,.53,1.83,1.75,1.75,0,0,0,1.42.67,1.91,1.91,0,0,0,1.58-.72l.59,1a3,3,0,0,1-2.28.83,2.85,2.85,0,0,1-2.32-1,4,4,0,0,1-.83-2.69,3.87,3.87,0,0,1,.92-2.65,3,3,0,0,1,2.35-1.07A3.48,3.48,0,0,1,727.74,626.54Z"/><path class="e257dffb-09e0-4238-924a-5e6f2229cea0" d="M728.54,630.69a2.77,2.77,0,0,1,.69-2,2.36,2.36,0,0,1,1.82-.75,2.4,2.4,0,0,1,1.86.72,3.32,3.32,0,0,1,0,4,2.68,2.68,0,0,1-3.69,0A2.89,2.89,0,0,1,728.54,630.69Zm1.27,0c0,1.15.41,1.73,1.24,1.73A1.07,1.07,0,0,0,732,632a2.14,2.14,0,0,0,.33-1.28c0-1.14-.41-1.71-1.24-1.71a1.06,1.06,0,0,0-.9.45A2,2,0,0,0,729.81,630.69Z"/><path class="e257dffb-09e0-4238-924a-5e6f2229cea0" d="M737.91,633.32v-3a1.5,1.5,0,0,0-.26-1,1,1,0,0,0-.84-.31,1.28,1.28,0,0,0-.57.15,1.33,1.33,0,0,0-.48.38v3.78h-1.22v-5.23h.88l.22.48a1.84,1.84,0,0,1,1.47-.58,1.93,1.93,0,0,1,1.48.56,2.14,2.14,0,0,1,.54,1.56v3.21Z"/><path class="e257dffb-09e0-4238-924a-5e6f2229cea0" d="M743.81,633.32V633a1.2,1.2,0,0,1-.51.29,2.4,2.4,0,0,1-.75.12,2.21,2.21,0,0,1-1.72-.69,2.77,2.77,0,0,1-.63-1.93,2.85,2.85,0,0,1,.72-2,2.35,2.35,0,0,1,1.8-.78,2.45,2.45,0,0,1,1.09.24v-2.09l1.22-.3v7.48Zm0-4A1.29,1.29,0,0,0,743,629a1.45,1.45,0,0,0-1.13.45,1.9,1.9,0,0,0-.39,1.28c0,1.09.52,1.63,1.57,1.63a1.14,1.14,0,0,0,.43-.1.83.83,0,0,0,.34-.21Z"/><path class="e257dffb-09e0-4238-924a-5e6f2229cea0" d="M746.58,633.32v-4.23h-.67v-1h1.9v5.23Zm.63-7.26a.69.69,0,0,1,.5.21.71.71,0,0,1,.21.5.73.73,0,0,1-.21.5.69.69,0,0,1-.5.21.66.66,0,0,1-.5-.21.69.69,0,0,1-.21-.5.67.67,0,0,1,.21-.5A.66.66,0,0,1,747.21,626.06Z"/><path class="e257dffb-09e0-4238-924a-5e6f2229cea0" d="M749.11,631v-1.15h2.58V631Z"/><path class="e257dffb-09e0-4238-924a-5e6f2229cea0" d="M684.34,641.07h-.6v-1h.6V639l1.22-.45v1.52H687v1h-1.44v2.29a1.31,1.31,0,0,0,.18.79.71.71,0,0,0,.61.23,1.48,1.48,0,0,0,.82-.24v1.13a4.12,4.12,0,0,1-1.21.14,1.56,1.56,0,0,1-1.2-.44,1.74,1.74,0,0,1-.42-1.26Z"/><path class="e257dffb-09e0-4238-924a-5e6f2229cea0" d="M688.45,645.32v-4.23h-.67v-1h1.9v5.23Zm.63-7.26a.69.69,0,0,1,.5.21.67.67,0,0,1,.21.5.72.72,0,0,1-.71.71.67.67,0,0,1-.5-.21.69.69,0,0,1-.21-.5.72.72,0,0,1,.71-.71Z"/><path class="e257dffb-09e0-4238-924a-5e6f2229cea0" d="M690.76,642.69a2.77,2.77,0,0,1,.69-2,2.67,2.67,0,0,1,3.68,0,2.82,2.82,0,0,1,.66,2,2.9,2.9,0,0,1-.67,2,2.7,2.7,0,0,1-3.7,0A2.89,2.89,0,0,1,690.76,642.69Zm1.27,0c0,1.15.42,1.73,1.25,1.73a1.06,1.06,0,0,0,.9-.45,2.07,2.07,0,0,0,.34-1.28c0-1.14-.42-1.71-1.24-1.71a1.07,1.07,0,0,0-.91.45A2.1,2.1,0,0,0,692,642.69Z"/><path class="e257dffb-09e0-4238-924a-5e6f2229cea0" d="M700.13,645.32v-3a1.5,1.5,0,0,0-.26-1A1,1,0,0,0,699,641a1.35,1.35,0,0,0-.58.15,1.29,1.29,0,0,0-.47.38v3.78h-1.23v-5.23h.88l.23.48a1.82,1.82,0,0,1,1.47-.58,1.92,1.92,0,0,1,1.47.56,2.14,2.14,0,0,1,.54,1.56v3.21Z"/><path class="e257dffb-09e0-4238-924a-5e6f2229cea0" d="M702.35,645l.43-1a2,2,0,0,0,1.24.43c.47,0,.71-.17.71-.51a.58.58,0,0,0-.22-.48,3.06,3.06,0,0,0-.83-.45c-.9-.38-1.35-.9-1.35-1.58a1.23,1.23,0,0,1,.51-1,2.16,2.16,0,0,1,1.33-.38,3.38,3.38,0,0,1,1.53.36l-.35.95a1.66,1.66,0,0,0-1.11-.34c-.43,0-.64.17-.64.51a.46.46,0,0,0,.21.36,4.3,4.3,0,0,0,.89.43,2.35,2.35,0,0,1,1,.66,1.48,1.48,0,0,1,.3.93,1.37,1.37,0,0,1-.54,1.15,2.4,2.4,0,0,1-1.47.41,3.72,3.72,0,0,1-.84-.08A4.43,4.43,0,0,1,702.35,645Z"/><path class="e257dffb-09e0-4238-924a-5e6f2229cea0" d="M707.38,647.14l-.42-.53c.6-.45.89-.8.89-1.05a.48.48,0,0,0-.1-.29.69.69,0,0,1-.46-.63.58.58,0,0,1,.24-.48,1,1,0,0,1,.61-.2.82.82,0,0,1,.59.26.85.85,0,0,1,.25.59,2.26,2.26,0,0,1-.29,1.13A4.36,4.36,0,0,1,707.38,647.14Z"/><path class="e257dffb-09e0-4238-924a-5e6f2229cea0" d="M716.57,644.79a1.2,1.2,0,0,1-.58.45,2.1,2.1,0,0,1-.86.17,2,2,0,0,1-1.33-.42,1.51,1.51,0,0,1-.48-1.2,1.67,1.67,0,0,1,.68-1.42,3.17,3.17,0,0,1,1.93-.51,2,2,0,0,1,.51.07c0-.61-.39-.92-1.16-.92a2.66,2.66,0,0,0-1.16.23l-.26-1a3.46,3.46,0,0,1,1.5-.3,2.43,2.43,0,0,1,1.75.54,2.91,2.91,0,0,1,.56,2.07v1.11q0,1,.42,1.32a.68.68,0,0,1-.34.32,1.33,1.33,0,0,1-.42.06.68.68,0,0,1-.48-.19A1,1,0,0,1,716.57,644.79Zm-.12-1.94a2.7,2.7,0,0,0-.47-.06c-1,0-1.44.32-1.44,1,0,.47.27.7.81.7a1,1,0,0,0,1.1-1.1Z"/><path class="e257dffb-09e0-4238-924a-5e6f2229cea0" d="M722.35,645.32v-3a1.5,1.5,0,0,0-.26-1,1,1,0,0,0-.83-.31,1.35,1.35,0,0,0-.58.15,1.29,1.29,0,0,0-.47.38v3.78H719v-5.23h.88l.22.48a1.82,1.82,0,0,1,1.47-.58,1.92,1.92,0,0,1,1.47.56,2.14,2.14,0,0,1,.54,1.56v3.21Z"/><path class="e257dffb-09e0-4238-924a-5e6f2229cea0" d="M728.25,645.32V645a1.2,1.2,0,0,1-.51.29,2.36,2.36,0,0,1-.75.12,2.21,2.21,0,0,1-1.72-.69,2.77,2.77,0,0,1-.62-1.93,2.85,2.85,0,0,1,.72-2,2.35,2.35,0,0,1,1.8-.78,2.38,2.38,0,0,1,1.08.24v-2.09l1.22-.3v7.48Zm0-4a1.28,1.28,0,0,0-.81-.32,1.42,1.42,0,0,0-1.13.45,1.9,1.9,0,0,0-.39,1.28c0,1.09.52,1.63,1.57,1.63a1.18,1.18,0,0,0,.43-.1.77.77,0,0,0,.33-.21Z"/><path class="e257dffb-09e0-4238-924a-5e6f2229cea0" d="M735.05,639.29V641h2.52V642h-2.52v3.28h-1.27v-7.16h4.71v1.13Z"/><path class="e257dffb-09e0-4238-924a-5e6f2229cea0" d="M742.53,639.29v6h-1.27v-6H739v-1.13h5.92v1.13Z"/><path class="e257dffb-09e0-4238-924a-5e6f2229cea0" d="M749,645.32l-.52-1.45H746l-.5,1.45h-1.41l2.85-7.26h.56l2.87,7.26Zm-1.75-5.07-.86,2.64h1.72Z"/><path class="e257dffb-09e0-4238-924a-5e6f2229cea0" d="M704.6,652.5l-.53.91a1.6,1.6,0,0,0-1.15-.4,1.35,1.35,0,0,0-1.09.46,1.87,1.87,0,0,0-.41,1.28c0,1.09.53,1.64,1.57,1.64a1.79,1.79,0,0,0,1.2-.45l.45,1a3.29,3.29,0,0,1-.93.42,5.15,5.15,0,0,1-.94.08,2.59,2.59,0,0,1-1.92-.7,3,3,0,0,1,.07-4A2.83,2.83,0,0,1,703,652,2.56,2.56,0,0,1,704.6,652.5Z"/><path class="e257dffb-09e0-4238-924a-5e6f2229cea0" d="M705.82,650.14l1.22-.3v5.88c0,.65.2,1,.58,1.16a1,1,0,0,1-1,.53c-.55,0-.83-.38-.83-1.15Z"/><path class="e257dffb-09e0-4238-924a-5e6f2229cea0" d="M711.47,656.79a1.2,1.2,0,0,1-.58.45,2.1,2.1,0,0,1-.86.17,2,2,0,0,1-1.33-.42,1.51,1.51,0,0,1-.48-1.2,1.69,1.69,0,0,1,.68-1.42,3.18,3.18,0,0,1,1.94-.51,2,2,0,0,1,.5.07c0-.61-.38-.92-1.16-.92a2.62,2.62,0,0,0-1.15.23l-.27-1a3.46,3.46,0,0,1,1.5-.3,2.43,2.43,0,0,1,1.75.54,2.91,2.91,0,0,1,.56,2.07v1.11q0,1,.42,1.32a.65.65,0,0,1-.34.32,1.33,1.33,0,0,1-.42.06.66.66,0,0,1-.47-.19A.92.92,0,0,1,711.47,656.79Zm-.12-1.94a2.61,2.61,0,0,0-.46-.06c-1,0-1.45.32-1.45,1,0,.47.27.7.82.7a1,1,0,0,0,1.09-1.1Z"/><path class="e257dffb-09e0-4238-924a-5e6f2229cea0" d="M717.26,657.32v-.44a2.24,2.24,0,0,1-.71.38,2.77,2.77,0,0,1-.84.15c-1.21,0-1.82-.64-1.82-1.93v-3.39h1.22v3.3c0,.67.3,1,.9,1a1.46,1.46,0,0,0,.77-.21,1.14,1.14,0,0,0,.48-.5v-3.59h1.22v5.23Z"/><path class="e257dffb-09e0-4238-924a-5e6f2229cea0" d="M719.47,657l.44-1a1.92,1.92,0,0,0,1.23.43q.72,0,.72-.51a.58.58,0,0,0-.22-.48,3.06,3.06,0,0,0-.83-.45c-.9-.38-1.35-.9-1.35-1.58a1.23,1.23,0,0,1,.51-1,2.16,2.16,0,0,1,1.33-.38,3.38,3.38,0,0,1,1.53.36l-.35.95a1.67,1.67,0,0,0-1.12-.34c-.42,0-.64.17-.64.51a.46.46,0,0,0,.21.36,4.46,4.46,0,0,0,.9.43,2.25,2.25,0,0,1,1,.66,1.43,1.43,0,0,1,.31.93,1.37,1.37,0,0,1-.54,1.15,2.4,2.4,0,0,1-1.47.41,3.72,3.72,0,0,1-.84-.08A4.79,4.79,0,0,1,719.47,657Z"/><path class="e257dffb-09e0-4238-924a-5e6f2229cea0" d="M728.77,655.07H725a1.32,1.32,0,0,0,.43,1,1.55,1.55,0,0,0,1.06.34,1.71,1.71,0,0,0,1.27-.43l.47.93a3,3,0,0,1-1.92.52,2.52,2.52,0,0,1-1.89-.7,2.63,2.63,0,0,1-.7-2,2.74,2.74,0,0,1,.77-2,2.49,2.49,0,0,1,1.83-.76,2.47,2.47,0,0,1,1.83.68,2.35,2.35,0,0,1,.68,1.73A3.16,3.16,0,0,1,728.77,655.07Zm-3.69-.91h2.57a1.15,1.15,0,0,0-1.27-1.15A1.25,1.25,0,0,0,725.08,654.16Z"/><path class="e257dffb-09e0-4238-924a-5e6f2229cea0" d="M729.53,657l.43-1a2,2,0,0,0,1.24.43c.47,0,.71-.17.71-.51a.6.6,0,0,0-.21-.48,3.34,3.34,0,0,0-.84-.45c-.9-.38-1.35-.9-1.35-1.58a1.21,1.21,0,0,1,.52-1,2.11,2.11,0,0,1,1.32-.38,3.38,3.38,0,0,1,1.53.36l-.35.95a1.66,1.66,0,0,0-1.11-.34c-.43,0-.64.17-.64.51a.46.46,0,0,0,.21.36,4.19,4.19,0,0,0,.9.43,2.25,2.25,0,0,1,1,.66,1.48,1.48,0,0,1,.3.93,1.37,1.37,0,0,1-.54,1.15,2.4,2.4,0,0,1-1.47.41,3.69,3.69,0,0,1-.83-.08A4.79,4.79,0,0,1,729.53,657Z"/><rect class="b67b847c-0790-4775-a47a-f03495c26ba9" x="1233.3" y="582.83" width="102.18" height="86.22"/><text class="f5762750-b807-4a29-a946-3a3295d22cd0" transform="translate(1245.95 597.32)">Meeting #2 with <tspan x="13.14" y="12">Evaluation </tspan><tspan x="1.93" y="24">Committee and </tspan><tspan x="-0.54" y="36">Project Manager </tspan><tspan x="5.21" y="48">to re</tspan><tspan class="a25a37ee-c0e6-4196-bb98-76323028ac39" x="27.86" y="48">v</tspan><tspan x="33.45" y="48">iew and </tspan><tspan x="2.06" y="60">finalize scoring</tspan></text><rect class="b67b847c-0790-4775-a47a-f03495c26ba9" x="1624.25" y="582.83" width="102.18" height="86.22"/><text class="f5762750-b807-4a29-a946-3a3295d22cd0" transform="translate(1630.65 599.32)">Check SAM.gov and <tspan x="26.9" y="12">capture </tspan><tspan x="12.72" y="24">time-stamped </tspan><tspan x="12.97" y="36">screen shot &amp; </tspan><tspan x="10.08" y="49">verify lobbying </tspan><tspan x="16.13" y="61">certification</tspan></text><rect class="b67b847c-0790-4775-a47a-f03495c26ba9" x="2031.77" y="582.83" width="79.29" height="78.68"/><text class="f5762750-b807-4a29-a946-3a3295d22cd0" transform="translate(2054.6 599.32)">Initiate <tspan x="-9.63" y="12">cont</tspan><tspan class="f48deb14-ed4b-4fd2-8ec2-4ab7802453f8" x="11.01" y="12">r</tspan><tspan x="14.97" y="12">acting </tspan><tspan x="-12.65" y="24">process with </tspan><tspan x="-6.85" y="36">successful </tspan><tspan x="-3.96" y="48">proposer</tspan></text><rect class="b67b847c-0790-4775-a47a-f03495c26ba9" x="1094.76" y="582.83" width="95.07" height="80.22"/><text class="f5762750-b807-4a29-a946-3a3295d22cd0" transform="translate(1100.32 600.32)">Send proposals to <tspan x="16.68" y="12">Evaluation </tspan><tspan x="9.17" y="24">Committee to </tspan><tspan x="4.51" y="36">score according </tspan><tspan x="7.2" y="48">to RF</tspan><tspan class="e84bb399-3581-43bd-b001-039e064603b3" x="31.78" y="48">P</tspan><tspan x="37.47" y="48" xml:space="preserve"> criteria</tspan></text><rect class="b67b847c-0790-4775-a47a-f03495c26ba9" x="808.48" y="582.83" width="100.22" height="79.12"/><text class="f5762750-b807-4a29-a946-3a3295d22cd0" transform="translate(828.47 607.16)">Hold Pre-bid <tspan x="-0.05" y="12">Meeting/Site </tspan><tspan class="e84bb399-3581-43bd-b001-039e064603b3" x="-11.35" y="24">V</tspan><tspan x="-5.32" y="24">isit/Q&amp;</tspan><tspan class="bd8a025c-9be1-4b82-bcf3-928aaa294221" x="26.97" y="24">A</tspan><tspan x="32.75" y="24" xml:space="preserve"> Session </tspan><tspan x="-4.02" y="36">(not required) </tspan></text><rect class="b67b847c-0790-4775-a47a-f03495c26ba9" x="951.36" y="582.83" width="80.11" height="63.25"/><text class="f5762750-b807-4a29-a946-3a3295d22cd0" transform="translate(972.15 607.16)">Receive<tspan x="-3.73" y="13">Proposals</tspan></text><rect class="b67b847c-0790-4775-a47a-f03495c26ba9" x="1378.79" y="582.83" width="80.11" height="63.25"/><text class="f5762750-b807-4a29-a946-3a3295d22cd0" transform="translate(1401.96 604.25)">Re<tspan class="a25a37ee-c0e6-4196-bb98-76323028ac39" x="11.86" y="0">v</tspan><tspan x="17.44" y="0">iew </tspan><tspan x="-14.51" y="13">responsibility </tspan><tspan x="-18.58" y="25">determinations</tspan></text><rect class="b67b847c-0790-4775-a47a-f03495c26ba9" x="1767.79" y="582.83" width="80.11" height="63.25"/><text class="f5762750-b807-4a29-a946-3a3295d22cd0" transform="translate(1786.68 599.36)">Notify all <tspan x="-7.84" y="12">proposers of </tspan><tspan x="-5.23" y="24">evalutation </tspan><tspan x="5.55" y="36">results</tspan></text><rect class="b67b847c-0790-4775-a47a-f03495c26ba9" x="1891.18" y="686.75" width="80.11" height="63.25"/><text class="f5762750-b807-4a29-a946-3a3295d22cd0" transform="translate(1897.76 709.09)"><tspan class="ab7add93-b2c3-417f-a049-b51e2a448485">F</tspan><tspan x="5.37" y="0">ollow protest </tspan><tspan x="-0.04" y="12">process (1 day </tspan><tspan x="10.65" y="24">to 1 year)</tspan></text><rect class="b67b847c-0790-4775-a47a-f03495c26ba9" x="1501.29" y="582.83" width="80.11" height="63.25"/><text class="f5762750-b807-4a29-a946-3a3295d22cd0" transform="translate(1524.76 604.25)">Choose <tspan x="-6.97" y="12">successful </tspan><tspan x="-4.07" y="24">proposer</tspan></text><rect class="b67b847c-0790-4775-a47a-f03495c26ba9" x="1369.41" y="674.05" width="100.26" height="66.19"/><text class="f5762750-b807-4a29-a946-3a3295d22cd0" transform="translate(1398.09 688.58)">Hold o<tspan class="f48deb14-ed4b-4fd2-8ec2-4ab7802453f8" x="29.92" y="0">r</tspan><tspan x="33.88" y="0">al </tspan><tspan x="-22.74" y="13">presentations with </tspan><tspan x="-11.09" y="25">top proposers </tspan><tspan x="-12.15" y="38">(not required)</tspan></text><rect class="b67b847c-0790-4775-a47a-f03495c26ba9" x="944.37" y="787.09" width="94.43" height="44.88"/><text class="f5762750-b807-4a29-a946-3a3295d22cd0" transform="translate(951.66 801.14)"><tspan class="ab7add93-b2c3-417f-a049-b51e2a448485">F</tspan><tspan x="5.37" y="0">ollow Single Bid </tspan><tspan x="10.24" y="12">procedure &amp; </tspan><tspan x="0.96" y="24">document in file</tspan></text><rect class="b67b847c-0790-4775-a47a-f03495c26ba9" x="810.67" y="115.89" width="85.65" height="61.79"/><text class="f5762750-b807-4a29-a946-3a3295d22cd0" transform="translate(816.05 133.34)">Pro<tspan class="a25a37ee-c0e6-4196-bb98-76323028ac39" x="15.8" y="0">v</tspan><tspan x="21.39" y="0">ide answers </tspan><tspan x="8.45" y="12">to submitted </tspan><tspan x="7.85" y="24">questions, as </tspan><tspan x="20.94" y="36">needed</tspan></text><rect class="b67b847c-0790-4775-a47a-f03495c26ba9" x="1240.72" y="115.89" width="85.65" height="61.79"/><text class="f5762750-b807-4a29-a946-3a3295d22cd0" transform="translate(1251.95 136.34)"><tspan class="ab7add93-b2c3-417f-a049-b51e2a448485">P</tspan><tspan x="5.4" y="0">articipate in </tspan><tspan x="14.78" y="12">scoring </tspan><tspan x="9.34" y="24">proposals</tspan></text><rect class="b67b847c-0790-4775-a47a-f03495c26ba9" x="1496.14" y="115.89" width="85.65" height="61.79"/><text class="f5762750-b807-4a29-a946-3a3295d22cd0" transform="translate(1507.37 136.34)"><tspan class="ab7add93-b2c3-417f-a049-b51e2a448485">P</tspan><tspan x="5.4" y="0">articipate in </tspan><tspan x="10.54" y="12">selecting </tspan><tspan x="11.37" y="24">awardee</tspan></text><rect class="b67b847c-0790-4775-a47a-f03495c26ba9" x="1745.45" y="115.89" width="123.88" height="54.92"/><text class="f5762750-b807-4a29-a946-3a3295d22cd0" transform="translate(1755.62 135.57)">Hold debrief meetings <tspan x="10.35" y="12">with unsuccessful </tspan><tspan x="-4.47" y="24">proposers, as requested</tspan></text><rect class="b67b847c-0790-4775-a47a-f03495c26ba9" x="2016.76" y="115.89" width="110.32" height="54.92"/><text class="f5762750-b807-4a29-a946-3a3295d22cd0" transform="translate(2023.8 135.57)">Negotiate scope and <tspan x="2.76" y="12">fee with successful </tspan><tspan x="26.62" y="24">proposer</tspan></text><polygon class="b67b847c-0790-4775-a47a-f03495c26ba9" points="174.5 167.09 125.79 199.69 76.29 167.09 76.29 112.79 174.5 112.79 174.5 167.09"/><text class="f5762750-b807-4a29-a946-3a3295d22cd0" transform="translate(104.19 130.69)">Complete <tspan class="ab7add93-b2c3-417f-a049-b51e2a448485" x="-18.42" y="13">P</tspan><tspan x="-13.02" y="13">ersonal Ser</tspan><tspan class="a25a37ee-c0e6-4196-bb98-76323028ac39" x="39.29" y="13">v</tspan><tspan x="44.87" y="13">ices </tspan><tspan x="-12.66" y="26">Procurement 2</tspan></text><text class="f5762750-b807-4a29-a946-3a3295d22cd0" transform="matrix(1, 0, 0, 1, 972.51, 697.3)">Multiple <tspan x="-3.18" y="12">proposals </tspan><tspan x="-3.65" y="24">received? </tspan><tspan class="a59cc944-68e0-44b4-a299-6e9b9710021b" x="3.14" y="36">Y</tspan><tspan x="8.35" y="36">es/No</tspan></text><polygon class="b67b847c-0790-4775-a47a-f03495c26ba9" points="943.65 709.93 991.31 672.96 1039.32 709.48 991.66 746.46 943.65 709.93"/><rect class="a22f0f45-410f-4aae-ba8b-e0cc347aba0f" x="1048.96" y="671.83" width="31.28" height="17.57"/><text class="fad137a6-b0c9-4863-86fc-da6e2a3001dc" transform="translate(1056.13 683.36)">YES</text><rect class="e3e2e678-8b7e-4ef2-a333-5dd12ca7ee0a" x="975.7" y="751.02" width="31.28" height="17.57"/><text class="fad137a6-b0c9-4863-86fc-da6e2a3001dc" transform="translate(984.49 762.55)">NO</text><text class="f5762750-b807-4a29-a946-3a3295d22cd0" transform="matrix(1, 0, 0, 1, 1912.49, 608.48)">Protests <tspan x="-3.49" y="12">received? </tspan><tspan class="a59cc944-68e0-44b4-a299-6e9b9710021b" x="3.29" y="24">Y</tspan><tspan x="8.51" y="24">es/No</tspan></text><polygon class="b67b847c-0790-4775-a47a-f03495c26ba9" points="1890.77 615.1 1930.55 584.25 1970.63 614.72 1930.84 645.59 1890.77 615.1"/><rect class="a22f0f45-410f-4aae-ba8b-e0cc347aba0f" x="1915.11" y="649.48" width="31.28" height="17.57"/><text class="fad137a6-b0c9-4863-86fc-da6e2a3001dc" transform="translate(1922.28 661.01)">YES</text><rect class="e3e2e678-8b7e-4ef2-a333-5dd12ca7ee0a" x="1978.01" y="605.89" width="31.28" height="17.57"/><text class="fad137a6-b0c9-4863-86fc-da6e2a3001dc" transform="translate(1986.8 617.42)">NO</text></g></svg>