<svg xmlns="http://www.w3.org/2000/svg" viewBox="0 0 1711.18 653"><defs><style>.a44b21b2-b876-4f74-8fb5-46c102776300,.a790688c-1470-404c-9475-99da186dba2a,.e9a4a7b5-dcbe-4def-af0b-f2abbc1d9ff4,.ed7d943e-7211-4af6-b5bb-87b841352b9e,.f09606c3-a8e2-4ee7-93bd-c706bd52788d,.f5dd829a-e2e1-4eb5-ad8b-fc8f849710c9{fill:none;stroke:#646464;}.a44b21b2-b876-4f74-8fb5-46c102776300{stroke-linejoin:round;}.a44b21b2-b876-4f74-8fb5-46c102776300,.a790688c-1470-404c-9475-99da186dba2a{stroke-width:2px;}.a790688c-1470-404c-9475-99da186dba2a,.e9a4a7b5-dcbe-4def-af0b-f2abbc1d9ff4,.ed7d943e-7211-4af6-b5bb-87b841352b9e,.f09606c3-a8e2-4ee7-93bd-c706bd52788d,.f5dd829a-e2e1-4eb5-ad8b-fc8f849710c9{stroke-miterlimit:10;}.e9a4a7b5-dcbe-4def-af0b-f2abbc1d9ff4,.f09606c3-a8e2-4ee7-93bd-c706bd52788d{stroke-width:0.5px;}.f09606c3-a8e2-4ee7-93bd-c706bd52788d{stroke-dasharray:4.99 3;}.aab5a5e0-90f9-44e0-bcca-5eb45fdbf533,.b395732d-5d4e-49ae-9179-e9c4437cd34e,.b6501762-cdf3-4ec8-ad08-4fc434074fa5,.b83f7353-5e63-44b6-a53d-a66107bd8a3d,.eec5a6ff-fae8-4188-8f9f-7576ae1f250c{fill:#646464;}.a703b2bb-700a-42ab-97d2-ca19fd69d468,.b6501762-cdf3-4ec8-ad08-4fc434074fa5,.b83f7353-5e63-44b6-a53d-a66107bd8a3d{font-size:10px;}.a703b2bb-700a-42ab-97d2-ca19fd69d468,.aab5a5e0-90f9-44e0-bcca-5eb45fdbf533,.b6501762-cdf3-4ec8-ad08-4fc434074fa5,.b9f8a01c-ab8f-4ac0-a41e-663b67a7afe3,.eec5a6ff-fae8-4188-8f9f-7576ae1f250c{font-family:TrebuchetMS-Bold, Trebuchet MS;font-weight:700;}.f62e99f5-830f-40bc-9c63-039310265036{letter-spacing:-0.03em;}.a260191f-5315-4701-8d22-3846e90a554b{letter-spacing:0.03em;}.ade33adf-a69f-4b90-8eed-346906841b3e{letter-spacing:-0.09em;}.b5567062-2905-492c-8aed-5e2977d8fe09{letter-spacing:-0.06em;}.aab5a5e0-90f9-44e0-bcca-5eb45fdbf533{font-size:24px;}.eec5a6ff-fae8-4188-8f9f-7576ae1f250c{font-size:11px;}.a2b1c9b2-6b16-4149-8af6-1435385bd90a{letter-spacing:-0.05em;}.f8b8120a-d76a-4866-ad2d-05c7cb9e4e07{letter-spacing:-0.02em;}.b83f7353-5e63-44b6-a53d-a66107bd8a3d{font-family:MyriadPro-Regular, Myriad Pro;}.a609e2f0-2c5a-4f6e-9f52-5b8bd7107229{fill:#d23138;}.a703b2bb-700a-42ab-97d2-ca19fd69d468,.ae7dee49-71af-4522-af8c-243f5cc9fb2d{fill:#fff;}.ed7d943e-7211-4af6-b5bb-87b841352b9e{stroke-dasharray:5 3;}.e27aa0a4-b447-4366-934a-0d47a5a27cc9{letter-spacing:-0.09em;}.e17cdda8-d74b-445d-9b9c-32edd19f9166{fill:#3eaf49;}</style></defs><title>CDOT_diagrams_CH4</title><g id="e65eaae0-4b6e-477b-9a5a-95959ba74d91" data-name="shapes"><path class="a44b21b2-b876-4f74-8fb5-46c102776300" d="M203.35,93.46s-7.2,14.57-7.2,28.47,7.2,27.65,7.2,27.65"/><path class="a790688c-1470-404c-9475-99da186dba2a" d="M90.3,149.64s-8-13.74-8-27.64,8-28.48,8-28.48H202.86s8,13.74,8,27.65-8,28.47-8,28.47Z"/><path class="a44b21b2-b876-4f74-8fb5-46c102776300" d="M384.17,382.76S377,397.33,377,411.24s7.21,27.64,7.21,27.64"/><path class="a790688c-1470-404c-9475-99da186dba2a" d="M271.12,438.94s-8-13.73-8-27.64,8-28.47,8-28.47H383.67s8,13.73,8,27.64-8,28.47-8,28.47Z"/><line class="e9a4a7b5-dcbe-4def-af0b-f2abbc1d9ff4" x1="18.37" y1="168.73" x2="20.87" y2="168.73"/><line class="f09606c3-a8e2-4ee7-93bd-c706bd52788d" x1="23.87" y1="168.73" x2="1691.9" y2="168.73"/><line class="e9a4a7b5-dcbe-4def-af0b-f2abbc1d9ff4" x1="1693.39" y1="168.73" x2="1695.89" y2="168.73"/><line class="e9a4a7b5-dcbe-4def-af0b-f2abbc1d9ff4" x1="18.37" y1="364" x2="20.87" y2="364"/><line class="f09606c3-a8e2-4ee7-93bd-c706bd52788d" x1="23.87" y1="364" x2="1691.9" y2="364"/><line class="e9a4a7b5-dcbe-4def-af0b-f2abbc1d9ff4" x1="1693.39" y1="364" x2="1695.89" y2="364"/><line class="e9a4a7b5-dcbe-4def-af0b-f2abbc1d9ff4" x1="18.37" y1="492.99" x2="20.87" y2="492.99"/><line class="f09606c3-a8e2-4ee7-93bd-c706bd52788d" x1="23.87" y1="492.99" x2="1691.9" y2="492.99"/><line class="e9a4a7b5-dcbe-4def-af0b-f2abbc1d9ff4" x1="1693.39" y1="492.99" x2="1695.89" y2="492.99"/><line class="a790688c-1470-404c-9475-99da186dba2a" x1="145.22" y1="149.77" x2="145.22" y2="369.5"/><polygon class="b395732d-5d4e-49ae-9179-e9c4437cd34e" points="139.24 367.75 145.22 378.11 151.2 367.75 139.24 367.75"/><path class="a44b21b2-b876-4f74-8fb5-46c102776300" d="M385.36,87.62s-7.2,17.24-7.2,33.7,7.2,32.72,7.2,32.72"/><path class="a790688c-1470-404c-9475-99da186dba2a" d="M272.31,154.12s-8-16.26-8-32.72,8-33.71,8-33.71H384.86s8,16.26,8,32.72-8,33.71-8,33.71Z"/><path class="a44b21b2-b876-4f74-8fb5-46c102776300" d="M777.48,235.25s-7.2,17.24-7.2,33.7,7.2,32.72,7.2,32.72"/><path class="a790688c-1470-404c-9475-99da186dba2a" d="M690,301.75s-8-16.26-8-32.72,8-33.71,8-33.71h87s8,16.26,8,32.72-8,33.71-8,33.71Z"/><path class="a44b21b2-b876-4f74-8fb5-46c102776300" d="M952.43,386.83s-7.2,12.9-7.2,25.2,7.2,24.47,7.2,24.47"/><path class="a790688c-1470-404c-9475-99da186dba2a" d="M864.92,436.55s-8-12.15-8-24.46,8-25.2,8-25.2h87s8,12.16,8,24.46-8,25.2-8,25.2Z"/><path class="a44b21b2-b876-4f74-8fb5-46c102776300" d="M618.09,91.6s-7.2,14.65-7.2,28.64,7.2,27.81,7.2,27.81"/><path class="a790688c-1470-404c-9475-99da186dba2a" d="M505,148.11s-8-13.82-8-27.81,8-28.64,8-28.64H617.59s8,13.82,8,27.81-8,28.64-8,28.64Z"/><line class="a790688c-1470-404c-9475-99da186dba2a" x1="327.23" y1="162.43" x2="327.23" y2="383.97"/><polygon class="b395732d-5d4e-49ae-9179-e9c4437cd34e" points="321.24 164.18 327.23 153.82 333.21 164.18 321.24 164.18"/><line class="a790688c-1470-404c-9475-99da186dba2a" x1="560.31" y1="222.87" x2="560.31" y2="148.43"/><polygon class="b395732d-5d4e-49ae-9179-e9c4437cd34e" points="566.29 221.12 560.31 231.48 554.32 221.12 566.29 221.12"/><line class="a790688c-1470-404c-9475-99da186dba2a" x1="733.34" y1="366.54" x2="733.34" y2="301.87"/><polygon class="b395732d-5d4e-49ae-9179-e9c4437cd34e" points="739.32 364.79 733.34 375.15 727.36 364.79 739.32 364.79"/><line class="a790688c-1470-404c-9475-99da186dba2a" x1="1037.33" y1="508.92" x2="1037.33" y2="444.25"/><polygon class="b395732d-5d4e-49ae-9179-e9c4437cd34e" points="1043.31 507.17 1037.33 517.53 1031.35 507.17 1043.31 507.17"/><line class="a790688c-1470-404c-9475-99da186dba2a" x1="1337.95" y1="483.29" x2="1337.95" y2="521.53"/><polygon class="b395732d-5d4e-49ae-9179-e9c4437cd34e" points="1331.97 485.04 1337.95 474.68 1343.94 485.04 1331.97 485.04"/><line class="a790688c-1470-404c-9475-99da186dba2a" x1="1471.8" y1="339.82" x2="1471.8" y2="400.39"/><polygon class="b395732d-5d4e-49ae-9179-e9c4437cd34e" points="1465.82 341.57 1471.8 331.21 1477.79 341.57 1465.82 341.57"/><line class="a790688c-1470-404c-9475-99da186dba2a" x1="461.16" y1="268.68" x2="508.94" y2="268.68"/><polygon class="b395732d-5d4e-49ae-9179-e9c4437cd34e" points="462.91 274.67 452.55 268.68 462.91 262.7 462.91 274.67"/><line class="a790688c-1470-404c-9475-99da186dba2a" x1="637.09" y1="412.36" x2="684.86" y2="412.36"/><polygon class="b395732d-5d4e-49ae-9179-e9c4437cd34e" points="638.84 418.34 628.48 412.36 638.84 406.38 638.84 418.34"/><line class="a790688c-1470-404c-9475-99da186dba2a" x1="250.19" y1="411.04" x2="190.58" y2="411.04"/><polygon class="b395732d-5d4e-49ae-9179-e9c4437cd34e" points="248.44 405.05 258.81 411.04 248.44 417.02 248.44 405.05"/><line class="a790688c-1470-404c-9475-99da186dba2a" x1="486.18" y1="119.86" x2="385.08" y2="119.86"/><polygon class="b395732d-5d4e-49ae-9179-e9c4437cd34e" points="484.43 113.88 494.79 119.86 484.43 125.84 484.43 113.88"/><line class="a790688c-1470-404c-9475-99da186dba2a" x1="670.53" y1="268.34" x2="610.92" y2="268.34"/><polygon class="b395732d-5d4e-49ae-9179-e9c4437cd34e" points="668.78 262.36 679.14 268.34 668.78 274.32 668.78 262.36"/><line class="a790688c-1470-404c-9475-99da186dba2a" x1="845.48" y1="410.98" x2="785.87" y2="410.98"/><polygon class="b395732d-5d4e-49ae-9179-e9c4437cd34e" points="843.73 404.99 854.09 410.98 843.73 416.96 843.73 404.99"/><line class="a790688c-1470-404c-9475-99da186dba2a" x1="981.5" y1="411.65" x2="953" y2="411.65"/><polygon class="b395732d-5d4e-49ae-9179-e9c4437cd34e" points="979.74 405.66 990.11 411.65 979.74 417.63 979.74 405.66"/><line class="a790688c-1470-404c-9475-99da186dba2a" x1="1153.62" y1="554.36" x2="1082.62" y2="554.36"/><polygon class="b395732d-5d4e-49ae-9179-e9c4437cd34e" points="1151.87 548.37 1162.23 554.36 1151.87 560.34 1151.87 548.37"/><line class="a790688c-1470-404c-9475-99da186dba2a" x1="1285.59" y1="554.36" x2="1251.16" y2="554.36"/><polygon class="b395732d-5d4e-49ae-9179-e9c4437cd34e" points="1283.84 548.37 1294.2 554.36 1283.84 560.34 1283.84 548.37"/><line class="a790688c-1470-404c-9475-99da186dba2a" x1="1557.18" y1="286.31" x2="1522.75" y2="286.31"/><polygon class="b395732d-5d4e-49ae-9179-e9c4437cd34e" points="1555.43 280.33 1565.79 286.31 1555.43 292.3 1555.43 280.33"/><line class="a790688c-1470-404c-9475-99da186dba2a" x1="1416.9" y1="440.77" x2="1382.24" y2="440.77"/><polygon class="b395732d-5d4e-49ae-9179-e9c4437cd34e" points="1415.14 434.78 1425.51 440.77 1415.14 446.75 1415.14 434.78"/></g><g id="b8614fec-b436-45d4-85b1-0a080e20a7fc" data-name="text"><text class="b6501762-cdf3-4ec8-ad08-4fc434074fa5" transform="translate(113.74 107.46)">Submit Final <tspan x="-7.65" y="12">Reimbursement </tspan><tspan x="10.38" y="24">Request</tspan><tspan x="3.39" y="36">(COTRAMS)</tspan></text><text class="b6501762-cdf3-4ec8-ad08-4fc434074fa5" transform="translate(290.72 401.65)">Create G<tspan class="f62e99f5-830f-40bc-9c63-039310265036" x="40.9" y="0">r</tspan><tspan x="44.86" y="0">ant </tspan><tspan x="-18.08" y="12">Closeout Liquidation </tspan><tspan x="4.22" y="24">(COTRAMS)</tspan></text><text class="b6501762-cdf3-4ec8-ad08-4fc434074fa5" transform="translate(279.36 104.97)">Re<tspan class="a260191f-5315-4701-8d22-3846e90a554b" x="11.86" y="0">v</tspan><tspan x="17.44" y="0">iew notification </tspan><tspan x="10.99" y="12">G</tspan><tspan class="f62e99f5-830f-40bc-9c63-039310265036" x="17.7" y="12">r</tspan><tspan x="21.66" y="12">ant Closeout </tspan><tspan x="19.14" y="24">Liquidation </tspan><tspan x="19.78" y="36">(COTRAMS)</tspan></text><text class="b6501762-cdf3-4ec8-ad08-4fc434074fa5" transform="translate(708.39 252.6)">Approve <tspan x="-15.13" y="12">G</tspan><tspan class="f62e99f5-830f-40bc-9c63-039310265036" x="-8.42" y="12">r</tspan><tspan x="-4.46" y="12">ant Closeout </tspan><tspan x="-6.98" y="24">Liquidation </tspan><tspan x="-6.34" y="36">(COTRAMS)</tspan></text><text class="b6501762-cdf3-4ec8-ad08-4fc434074fa5" transform="translate(871.78 406.96)">Close project<tspan x="5.21" y="12">(COTRAMS)</tspan></text><text class="b6501762-cdf3-4ec8-ad08-4fc434074fa5" transform="translate(1105.57 551.9)">F<tspan class="ade33adf-a69f-4b90-8eed-346906841b3e" x="5.83" y="0">T</tspan><tspan class="b5567062-2905-492c-8aed-5e2977d8fe09" x="11.01" y="0">A</tspan><tspan x="16.79" y="0" xml:space="preserve"> &amp;</tspan><tspan class="b5567062-2905-492c-8aed-5e2977d8fe09" x="-3.89" y="12">F</tspan><tspan x="1.39" y="12">ASTER</tspan></text><text class="b6501762-cdf3-4ec8-ad08-4fc434074fa5" transform="translate(512.9 110.7)">Submit notification <tspan x="7.04" y="12">(within 15 days)</tspan><tspan x="18.96" y="24">(COTRAMS)</tspan></text><text class="aab5a5e0-90f9-44e0-bcca-5eb45fdbf533" transform="translate(18.5 35.68)">4-6 Project Closeout</text><text class="eec5a6ff-fae8-4188-8f9f-7576ae1f250c" transform="translate(42.66 151.02) rotate(-90)">Subrecipient</text><text class="eec5a6ff-fae8-4188-8f9f-7576ae1f250c" transform="translate(37.99 466.14) rotate(-90)">Business Office</text><text class="eec5a6ff-fae8-4188-8f9f-7576ae1f250c" transform="translate(37.99 291.69) rotate(-90)">DTR Project <tspan x="-12.27" y="13.2">Coordinator Unit</tspan></text><text class="eec5a6ff-fae8-4188-8f9f-7576ae1f250c" transform="translate(42.53 614.23) rotate(-90)">Procurement Office</text><polygon class="f5dd829a-e2e1-4eb5-ad8b-fc8f849710c9" points="1695.98 633.93 18.38 633.93 18.38 68.61 58.92 68.61 1695.98 68.61 1695.98 633.93"/><line class="f5dd829a-e2e1-4eb5-ad8b-fc8f849710c9" x1="64.85" y1="634.18" x2="64.85" y2="69.01"/><rect class="a790688c-1470-404c-9475-99da186dba2a" x="99.46" y="381.14" width="90.95" height="60.33"/><text class="b6501762-cdf3-4ec8-ad08-4fc434074fa5" transform="translate(125.01 402.03)"><tspan class="a2b1c9b2-6b16-4149-8af6-1435385bd90a">P</tspan><tspan x="5.4" y="0">ay Final </tspan><tspan x="-15.81" y="13">Reimbursement </tspan><tspan x="2.23" y="25">Request</tspan></text><rect class="a790688c-1470-404c-9475-99da186dba2a" x="360.49" y="239.42" width="90.95" height="60.33"/><text class="b6501762-cdf3-4ec8-ad08-4fc434074fa5" transform="translate(376.7 263.13)">Request title <tspan x="-3.77" y="12">from recipient</tspan></text><path class="a790688c-1470-404c-9475-99da186dba2a" d="M994.07,525.71v54.42s2.31,6.54,44.74,6.83,43.68-7.26,43.68-7.26V525.86s0-6.69-46-6.69C992.83,519.17,994.07,525.71,994.07,525.71Z"/><path class="a790688c-1470-404c-9475-99da186dba2a" d="M994.07,534.26s-2,4.65,20.42,6.85c20.6,2,39.53,2.61,53.27-.47,15.27-3.42,14.73-6.22,14.73-6.22"/><text class="b6501762-cdf3-4ec8-ad08-4fc434074fa5" transform="translate(1003.25 555.06)">Close Purchase <tspan x="21.57" y="12">Order</tspan><tspan x="22.81" y="25">(SAP)</tspan></text><path class="a790688c-1470-404c-9475-99da186dba2a" d="M994.07,530.53s-2,4.65,20.42,6.84c20.6,2,39.53,2.61,53.27-.46,15.27-3.43,14.73-6.23,14.73-6.23"/><text class="b6501762-cdf3-4ec8-ad08-4fc434074fa5" transform="translate(1305.09 441.22)">Debudget WBS <tspan x="21.35" y="12">(SAP)</tspan></text><text class="b6501762-cdf3-4ec8-ad08-4fc434074fa5" transform="translate(1407.94 206.52)">SA<tspan class="f8b8120a-d76a-4866-ad2d-05c7cb9e4e07" x="11.45" y="0">P</tspan><tspan x="17.13" y="0"> </tspan><tspan class="f8b8120a-d76a-4866-ad2d-05c7cb9e4e07" x="20.15" y="0">W</tspan><tspan x="28.8" y="0">orkflow</tspan></text><path class="a790688c-1470-404c-9475-99da186dba2a" d="M1427,407.48v59s2.31,6.54,44.74,6.82,43.68-7.25,43.68-7.25V407.62s0-6.69-46-6.69C1425.73,400.93,1427,407.48,1427,407.48Z"/><path class="a790688c-1470-404c-9475-99da186dba2a" d="M1427,416s-2,4.65,20.42,6.85c20.59,2,39.53,2.61,53.27-.47,15.27-3.42,14.73-6.22,14.73-6.22"/><text class="b6501762-cdf3-4ec8-ad08-4fc434074fa5" transform="translate(1440.42 437.97)">Close project <tspan x="17.4" y="12">(WBS) </tspan><tspan x="18.69" y="25">(SAP)</tspan></text><path class="a790688c-1470-404c-9475-99da186dba2a" d="M1427,412.29s-2,4.65,20.42,6.84c20.59,2,39.53,2.61,53.27-.46,15.27-3.43,14.73-6.23,14.73-6.23"/><path class="a790688c-1470-404c-9475-99da186dba2a" d="M1420,251.93v69.2s2.71,7.67,52.46,8,51.21-8.5,51.21-8.5V252.1s0-7.84-53.92-7.84C1418.52,244.26,1420,251.93,1420,251.93Z"/><path class="a790688c-1470-404c-9475-99da186dba2a" d="M1420,259.6s-2.29,5.45,23.94,8c24.15,2.37,46.35,3.06,62.45-.55,17.9-4,17.28-7.29,17.28-7.29"/><text class="b83f7353-5e63-44b6-a53d-a66107bd8a3d" transform="translate(1432.16 282.21)"><tspan xml:space="preserve">•  </tspan><tspan class="b9f8a01c-ab8f-4ac0-a41e-663b67a7afe3" x="7.06" y="0">Project </tspan><tspan class="b9f8a01c-ab8f-4ac0-a41e-663b67a7afe3"><tspan x="0" y="13">Coordination Unit</tspan></tspan><tspan x="0" y="26" xml:space="preserve">•  </tspan><tspan class="b9f8a01c-ab8f-4ac0-a41e-663b67a7afe3" x="7.06" y="26">Business Office</tspan><tspan x="0" y="39" xml:space="preserve">•  </tspan><tspan class="b9f8a01c-ab8f-4ac0-a41e-663b67a7afe3" x="7.06" y="39">Accounting</tspan></text><path class="a790688c-1470-404c-9475-99da186dba2a" d="M1420,251.67s-2.29,5.45,23.94,8c24.15,2.37,46.35,3.06,62.45-.55,17.9-4,17.28-7.3,17.28-7.3"/><path class="a790688c-1470-404c-9475-99da186dba2a" d="M1293.59,407.48v59s2.31,6.54,44.75,6.82,43.68-7.25,43.68-7.25V407.62s0-6.69-46-6.69C1292.35,400.93,1293.59,407.48,1293.59,407.48Z"/><path class="a790688c-1470-404c-9475-99da186dba2a" d="M1293.59,416s-1.95,4.65,20.42,6.85c20.6,2,39.54,2.61,53.27-.47,15.27-3.42,14.74-6.22,14.74-6.22"/><path class="a790688c-1470-404c-9475-99da186dba2a" d="M1293.59,412.29s-1.95,4.65,20.42,6.84c20.6,2,39.54,2.61,53.27-.46,15.27-3.43,14.74-6.23,14.74-6.23"/><path class="a790688c-1470-404c-9475-99da186dba2a" d="M994.07,526.33s-2,4.65,20.42,6.84c20.6,2,39.53,2.61,53.27-.46,15.27-3.43,14.73-6.23,14.73-6.23"/><rect class="a609e2f0-2c5a-4f6e-9f52-5b8bd7107229" x="471.25" y="258.69" width="31.28" height="17.57"/><text class="a703b2bb-700a-42ab-97d2-ca19fd69d468" transform="translate(480.03 270.22)">NO</text><rect class="a790688c-1470-404c-9475-99da186dba2a" x="546.94" y="383.09" width="80.42" height="60.33"/><text class="b6501762-cdf3-4ec8-ad08-4fc434074fa5" transform="translate(569.58 406.8)">Contact <tspan x="-11.26" y="13">subrecipient</tspan></text><rect class="a790688c-1470-404c-9475-99da186dba2a" x="994.32" y="379.38" width="87.64" height="65.74"/><rect class="ed7d943e-7211-4af6-b5bb-87b841352b9e" x="1397.78" y="189.71" width="279.19" height="162.6"/><text class="b6501762-cdf3-4ec8-ad08-4fc434074fa5" transform="translate(1012.42 401.8)">Send Email <tspan x="-7.83" y="12">notification to </tspan><tspan x="-4.96" y="24">close project</tspan></text><rect class="a790688c-1470-404c-9475-99da186dba2a" x="1163.86" y="522.04" width="87.64" height="65.74"/><text class="b6501762-cdf3-4ec8-ad08-4fc434074fa5" transform="translate(1186.17 551.51)">Liquidate <tspan x="-15.64" y="12">remaining funds</tspan></text><rect class="a790688c-1470-404c-9475-99da186dba2a" x="1294.83" y="522.04" width="87.64" height="65.74"/><text class="b6501762-cdf3-4ec8-ad08-4fc434074fa5" transform="translate(1305.72 545.94)">Email reply all <tspan x="1.13" y="12">that Purchase </tspan><tspan x="-1.55" y="24">Order is closed</tspan></text><rect class="a790688c-1470-404c-9475-99da186dba2a" x="1567.26" y="254" width="87.64" height="65.74"/><text class="b6501762-cdf3-4ec8-ad08-4fc434074fa5" transform="translate(1574.36 281.04)">SA<tspan class="f8b8120a-d76a-4866-ad2d-05c7cb9e4e07" x="11.45" y="0">P</tspan><tspan x="17.13" y="0" xml:space="preserve"> sends email </tspan><tspan x="15.17" y="12">950 </tspan><tspan class="a2b1c9b2-6b16-4149-8af6-1435385bd90a" x="35.76" y="12">F</tspan><tspan x="41.13" y="12">orm</tspan></text><rect class="a609e2f0-2c5a-4f6e-9f52-5b8bd7107229" x="647.17" y="402.37" width="31.28" height="17.57"/><text class="a703b2bb-700a-42ab-97d2-ca19fd69d468" transform="translate(655.96 413.9)">NO</text><text class="b6501762-cdf3-4ec8-ad08-4fc434074fa5" transform="matrix(1, 0, 0, 1, 536.32, 261.96)">Does CDO<tspan class="f8b8120a-d76a-4866-ad2d-05c7cb9e4e07" x="44.73" y="0">T</tspan><tspan x="50.66" y="0"> </tspan><tspan x="0.69" y="12">have title? </tspan><tspan class="e27aa0a4-b447-4366-934a-0d47a5a27cc9" x="9.58" y="25">Y</tspan><tspan x="14.79" y="25">es/No</tspan></text><polygon class="a790688c-1470-404c-9475-99da186dba2a" points="508.94 268.41 560.53 231.74 612.48 267.92 560.88 304.59 508.94 268.41"/><text class="b6501762-cdf3-4ec8-ad08-4fc434074fa5" transform="matrix(1, 0, 0, 1, 705.78, 406.65)">All payments <tspan x="10.45" y="12">cleared? </tspan><tspan class="e27aa0a4-b447-4366-934a-0d47a5a27cc9" x="14.37" y="25">Y</tspan><tspan x="19.59" y="25">es/No</tspan></text><polygon class="a790688c-1470-404c-9475-99da186dba2a" points="683.19 412.08 734.79 375.42 786.73 411.59 735.13 448.27 683.19 412.08"/><rect class="e17cdda8-d74b-445d-9b9c-32edd19f9166" x="623.59" y="259.86" width="31.28" height="17.57"/><text class="a703b2bb-700a-42ab-97d2-ca19fd69d468" transform="translate(630.76 271.39)">YES</text><rect class="e17cdda8-d74b-445d-9b9c-32edd19f9166" x="798.54" y="402.5" width="31.28" height="17.57"/><text class="a703b2bb-700a-42ab-97d2-ca19fd69d468" transform="translate(805.71 414.03)">YES</text><rect class="ae7dee49-71af-4522-af8c-243f5cc9fb2d" x="1315.8" y="495.18" width="42.63" height="18.05"/><text class="b6501762-cdf3-4ec8-ad08-4fc434074fa5" transform="translate(1320.94 506.76)"><tspan class="b5567062-2905-492c-8aed-5e2977d8fe09">F</tspan><tspan x="5.28" y="0">ASTER</tspan></text></g></svg>