<svg xmlns="http://www.w3.org/2000/svg" viewBox="0 0 1609.24 895.16"><defs><style>.a85bfb50-812b-4159-8ada-537fc5b29555,.ae504ebb-4e8f-4954-96a4-71acf5ed657e,.aec68702-ceec-44d6-ba74-8b42ec49432b,.b0266215-38b4-4478-8a0c-c2e07078178b,.e4420739-ccdd-44bc-a845-da0153f53e59,.ebd67109-993c-40e1-bdca-d4757373d047{fill:none;}.a85bfb50-812b-4159-8ada-537fc5b29555,.ae504ebb-4e8f-4954-96a4-71acf5ed657e,.aec68702-ceec-44d6-ba74-8b42ec49432b,.b0266215-38b4-4478-8a0c-c2e07078178b,.bee323a3-c7c3-4d05-9be5-9e613870c025,.e4420739-ccdd-44bc-a845-da0153f53e59,.ebd67109-993c-40e1-bdca-d4757373d047{stroke:#646464;}.a85bfb50-812b-4159-8ada-537fc5b29555,.ae504ebb-4e8f-4954-96a4-71acf5ed657e,.aec68702-ceec-44d6-ba74-8b42ec49432b,.b0266215-38b4-4478-8a0c-c2e07078178b,.bee323a3-c7c3-4d05-9be5-9e613870c025,.e4420739-ccdd-44bc-a845-da0153f53e59{stroke-miterlimit:10;}.aec68702-ceec-44d6-ba74-8b42ec49432b,.bee323a3-c7c3-4d05-9be5-9e613870c025,.ebd67109-993c-40e1-bdca-d4757373d047{stroke-width:2px;}.a0d4d458-f4d1-4d1e-a1a2-d67fe97a6917,.ae2fef72-bc35-4279-9ecf-e4035106380f,.b7b234ea-e424-49ad-a0df-0a14160b4338,.bb55388c-5ec8-4991-991e-b14513bf73b0,.ec0079b7-ed53-4975-a836-21ff43fd68a7{fill:#646464;}.a85bfb50-812b-4159-8ada-537fc5b29555,.ae504ebb-4e8f-4954-96a4-71acf5ed657e{stroke-width:0.5px;}.a85bfb50-812b-4159-8ada-537fc5b29555{stroke-dasharray:5 3;}.a0d4d458-f4d1-4d1e-a1a2-d67fe97a6917,.ad443407-0473-4582-b71f-b476bb97772e,.ec0079b7-ed53-4975-a836-21ff43fd68a7{font-size:10px;}.ec0079b7-ed53-4975-a836-21ff43fd68a7{font-family:MyriadPro-Regular, Myriad Pro;}.ef191ab1-7004-45f1-ba7e-cfbd59d83945{letter-spacing:-0.01em;}.b5c805d1-eb09-45ff-a3c4-3b8c039c68a4{letter-spacing:-0.03em;}.e5d86ba3-9693-4ed5-a572-f5c5adc24549{letter-spacing:-0.01em;}.b2e781a2-3e50-4a7b-aea1-8afa4fe17bd3{letter-spacing:0.02em;}.a03fe388-c49a-4f83-9d49-83fa39f8b4ab{letter-spacing:-0.02em;}.b4f7c21e-695b-415f-ab24-1944cdaa35f3{letter-spacing:-0.01em;}.a0f3a609-3433-4e10-8728-9c70a8adae71{letter-spacing:0.01em;}.b0266215-38b4-4478-8a0c-c2e07078178b{stroke-dasharray:5 3;}.a0d4d458-f4d1-4d1e-a1a2-d67fe97a6917,.ac3e5f20-e887-4091-bbc9-0d286dc7031e,.ad443407-0473-4582-b71f-b476bb97772e,.b7b234ea-e424-49ad-a0df-0a14160b4338,.bb55388c-5ec8-4991-991e-b14513bf73b0{font-family:TrebuchetMS-Bold, Trebuchet MS;font-weight:700;}.a3e3d211-fd6f-447f-b1e0-c19c6e14c5c6{letter-spacing:-0.02em;}.a909d4c5-cbf4-49b3-a076-438a14d89cc7{letter-spacing:-0.03em;}.bee323a3-c7c3-4d05-9be5-9e613870c025,.fe282081-bc8a-4682-bf34-d16a2067658b{fill:#009add;}.ac3e5f20-e887-4091-bbc9-0d286dc7031e,.ad443407-0473-4582-b71f-b476bb97772e{fill:#fff;}.b22e05c4-1600-465b-9313-e2fcaf9b094a{letter-spacing:-0.05em;}.ab63b6dc-7625-4907-97c8-f49e9a83b501{letter-spacing:0.03em;}.bb55388c-5ec8-4991-991e-b14513bf73b0{font-size:24px;}.e2b03c3d-53d0-4614-8809-d8625bbab572{letter-spacing:-0.06em;}.b7b234ea-e424-49ad-a0df-0a14160b4338{font-size:11px;}.a91db5c3-8e22-44ce-9df8-73b8d3936da1{letter-spacing:-0.09em;}.ac3e5f20-e887-4091-bbc9-0d286dc7031e{font-size:16px;}.eb303c8c-6a3c-42ed-8756-e02c84dbde5f{fill:#3eaf49;}.ebd67109-993c-40e1-bdca-d4757373d047{stroke-linejoin:round;}.a33e3512-0f3c-4992-ab94-7851da54eaa2{fill:#d23138;}.ae6f715d-dfdb-418e-b245-cac013941cad{fill:#ffcf01;}</style></defs><title>CDOT_diagrams_CH3</title><g id="f68fedae-8630-4786-bd6b-b4f4c5947435" data-name="shapes"><line class="aec68702-ceec-44d6-ba74-8b42ec49432b" x1="114.33" y1="113.87" x2="146.25" y2="113.87"/><polygon class="ae2fef72-bc35-4279-9ecf-e4035106380f" points="144.5 119.86 154.86 113.87 144.5 107.89 144.5 119.86"/><line class="aec68702-ceec-44d6-ba74-8b42ec49432b" x1="1077.31" y1="420.21" x2="1077.31" y2="405.36"/><polygon class="ae2fef72-bc35-4279-9ecf-e4035106380f" points="1083.29 407.11 1077.31 396.75 1071.32 407.11 1083.29 407.11"/><line class="ae504ebb-4e8f-4954-96a4-71acf5ed657e" x1="18.37" y1="346.18" x2="20.87" y2="346.18"/><line class="a85bfb50-812b-4159-8ada-537fc5b29555" x1="23.88" y1="346.18" x2="1591.09" y2="346.18"/><line class="ae504ebb-4e8f-4954-96a4-71acf5ed657e" x1="1592.59" y1="346.18" x2="1595.09" y2="346.18"/><line class="ae504ebb-4e8f-4954-96a4-71acf5ed657e" x1="18.37" y1="585.2" x2="20.87" y2="585.2"/><line class="a85bfb50-812b-4159-8ada-537fc5b29555" x1="23.88" y1="585.2" x2="1591.09" y2="585.2"/><line class="ae504ebb-4e8f-4954-96a4-71acf5ed657e" x1="1592.59" y1="585.2" x2="1595.09" y2="585.2"/><line class="ae504ebb-4e8f-4954-96a4-71acf5ed657e" x1="18.37" y1="736.41" x2="20.87" y2="736.41"/><line class="a85bfb50-812b-4159-8ada-537fc5b29555" x1="23.88" y1="736.41" x2="1591.09" y2="736.41"/><line class="ae504ebb-4e8f-4954-96a4-71acf5ed657e" x1="1592.59" y1="736.41" x2="1595.09" y2="736.41"/><line class="aec68702-ceec-44d6-ba74-8b42ec49432b" x1="240.52" y1="441.82" x2="240.52" y2="322.07"/><polygon class="ae2fef72-bc35-4279-9ecf-e4035106380f" points="246.51 440.07 240.52 450.43 234.54 440.07 246.51 440.07"/><line class="aec68702-ceec-44d6-ba74-8b42ec49432b" x1="240.52" y1="623.96" x2="240.52" y2="523.53"/><polygon class="ae2fef72-bc35-4279-9ecf-e4035106380f" points="246.51 622.21 240.52 632.57 234.54 622.21 246.51 622.21"/><line class="aec68702-ceec-44d6-ba74-8b42ec49432b" x1="358.81" y1="819.46" x2="442.01" y2="819.46"/><polygon class="ae2fef72-bc35-4279-9ecf-e4035106380f" points="360.56 825.45 350.2 819.46 360.56 813.48 360.56 825.45"/><line class="aec68702-ceec-44d6-ba74-8b42ec49432b" x1="480.96" y1="783.25" x2="480.96" y2="137.65"/><polygon class="ae2fef72-bc35-4279-9ecf-e4035106380f" points="486.94 781.5 480.96 791.86 474.97 781.5 486.94 781.5"/><path class="aec68702-ceec-44d6-ba74-8b42ec49432b" d="M274.55,670.7H473.82a6,6,0,1,1,12.1,0h18.5"/><polygon class="ae2fef72-bc35-4279-9ecf-e4035106380f" points="502.67 676.68 513.03 670.7 502.67 664.72 502.67 676.68"/></g><g id="ba752297-d37a-4b69-99ab-4163ba138ed9" data-name="text"><line class="aec68702-ceec-44d6-ba74-8b42ec49432b" x1="776.74" y1="205.6" x2="824.88" y2="205.54"/><polygon class="ae2fef72-bc35-4279-9ecf-e4035106380f" points="823.13 211.53 833.49 205.53 823.12 199.56 823.13 211.53"/><line class="aec68702-ceec-44d6-ba74-8b42ec49432b" x1="1301.7" y1="446.88" x2="1338.13" y2="446.82"/><polygon class="ae2fef72-bc35-4279-9ecf-e4035106380f" points="1336.39 452.81 1346.75 446.81 1336.37 440.84 1336.39 452.81"/><line class="aec68702-ceec-44d6-ba74-8b42ec49432b" x1="1433.65" y1="272.91" x2="1470.08" y2="272.85"/><polygon class="ae2fef72-bc35-4279-9ecf-e4035106380f" points="1468.34 278.84 1478.69 272.84 1468.32 266.87 1468.34 278.84"/><line class="aec68702-ceec-44d6-ba74-8b42ec49432b" x1="1399.52" y1="418.2" x2="1399.45" y2="309.81"/><polygon class="ae2fef72-bc35-4279-9ecf-e4035106380f" points="1405.43 311.56 1399.44 301.2 1393.47 311.56 1405.43 311.56"/><polyline class="aec68702-ceec-44d6-ba74-8b42ec49432b" points="327.53 150.29 327.53 209.05 242.34 209.05 242.34 248.19"/><polygon class="ae2fef72-bc35-4279-9ecf-e4035106380f" points="236.36 246.44 242.34 256.8 248.33 246.44 236.36 246.44"/><text class="ec0079b7-ed53-4975-a836-21ff43fd68a7" transform="translate(321.98 283.17)"><tspan class="ef191ab1-7004-45f1-ba7e-cfbd59d83945">Y</tspan><tspan x="5.28" y="0">r </tspan><tspan class="b5c805d1-eb09-45ff-a3c4-3b8c039c68a4" x="10.67" y="0">F</tspan><tspan x="15.19" y="0">unds </tspan><tspan class="e5d86ba3-9693-4ed5-a572-f5c5adc24549" x="0" y="12">A</tspan><tspan x="6" y="12">gen</tspan><tspan class="b2e781a2-3e50-4a7b-aea1-8afa4fe17bd3" x="22.15" y="12">c</tspan><tspan x="26.81" y="12">y </tspan><tspan class="a03fe388-c49a-4f83-9d49-83fa39f8b4ab" x="0" y="24">P</tspan><tspan class="b4f7c21e-695b-415f-ab24-1944cdaa35f3" x="5.16" y="24">r</tspan><tspan x="8.33" y="24">oje</tspan><tspan class="a0f3a609-3433-4e10-8728-9c70a8adae71" x="21.26" y="24">c</tspan><tspan x="25.87" y="24">t</tspan></text><rect class="b0266215-38b4-4478-8a0c-c2e07078178b" x="315.91" y="268.89" width="48.66" height="46.52"/><line class="b0266215-38b4-4478-8a0c-c2e07078178b" x1="280.07" y1="293.18" x2="308.57" y2="293.18"/><polygon class="ae2fef72-bc35-4279-9ecf-e4035106380f" points="307.4 297.17 314.31 293.18 307.4 289.19 307.4 297.17"/><rect class="aec68702-ceec-44d6-ba74-8b42ec49432b" x="441.99" y="91.31" width="75.16" height="46.88"/><text class="a0d4d458-f4d1-4d1e-a1a2-d67fe97a6917" transform="translate(452.5 104.92)">Send award <tspan x="0" y="12">notification </tspan><tspan x="10.58" y="24">to MPO</tspan></text><rect class="aec68702-ceec-44d6-ba74-8b42ec49432b" x="441.99" y="796.53" width="75.16" height="46.88"/><text class="a0d4d458-f4d1-4d1e-a1a2-d67fe97a6917" transform="translate(472.28 814.15)">TI<tspan class="a3e3d211-fd6f-447f-b1e0-c19c6e14c5c6" x="8.9" y="0">P</tspan><tspan x="14.59" y="0"> </tspan><tspan x="-9.85" y="13">Project</tspan></text><rect class="aec68702-ceec-44d6-ba74-8b42ec49432b" x="274.86" y="796.53" width="75.16" height="46.88"/><text class="a0d4d458-f4d1-4d1e-a1a2-d67fe97a6917" transform="translate(295.32 812.09)">Notify <tspan x="-0.93" y="12">G</tspan><tspan class="a909d4c5-cbf4-49b3-a076-438a14d89cc7" x="5.78" y="12">r</tspan><tspan x="9.74" y="12">ants </tspan><tspan x="4.34" y="24">Unit</tspan></text><rect class="aec68702-ceec-44d6-ba74-8b42ec49432b" x="516.37" y="646.65" width="96.34" height="47.11"/><text class="a0d4d458-f4d1-4d1e-a1a2-d67fe97a6917" transform="translate(522.3 662.21)">Email notification <tspan x="0.25" y="12">to SA</tspan><tspan class="a3e3d211-fd6f-447f-b1e0-c19c6e14c5c6" x="24.34" y="12">P</tspan><tspan x="30.02" y="12" xml:space="preserve"> Inbox with </tspan><tspan x="26.96" y="24">WBS #</tspan></text><rect class="aec68702-ceec-44d6-ba74-8b42ec49432b" x="781.64" y="406.77" width="70.64" height="47.11"/><text class="a0d4d458-f4d1-4d1e-a1a2-d67fe97a6917" transform="translate(794.66 422.33)">Complete <tspan x="-2.21" y="12">CJ20N Bus </tspan><tspan x="4.87" y="24">Mgr tab</tspan></text><rect class="bee323a3-c7c3-4d05-9be5-9e613870c025" x="1041.99" y="418.5" width="70.64" height="47.11"/><text class="ad443407-0473-4582-b71f-b476bb97772e" transform="translate(1049.23 443.84)">Update STI<tspan class="a3e3d211-fd6f-447f-b1e0-c19c6e14c5c6" x="50.47" y="0">P</tspan></text><rect class="aec68702-ceec-44d6-ba74-8b42ec49432b" x="516.37" y="180.45" width="96.34" height="47.11"/><text class="a0d4d458-f4d1-4d1e-a1a2-d67fe97a6917" transform="translate(526.65 196.01)">Send request to <tspan x="-6.67" y="12">Business Office for </tspan><tspan x="11.46" y="24">new STI</tspan><tspan class="a3e3d211-fd6f-447f-b1e0-c19c6e14c5c6" x="47.98" y="24">P</tspan><tspan x="53.67" y="24" xml:space="preserve"> #</tspan></text><rect class="aec68702-ceec-44d6-ba74-8b42ec49432b" x="835.97" y="182.45" width="116" height="47.11"/><text class="a0d4d458-f4d1-4d1e-a1a2-d67fe97a6917" transform="translate(840.5 198.01)">Send STI<tspan class="a3e3d211-fd6f-447f-b1e0-c19c6e14c5c6" x="39.59" y="0">P</tspan><tspan x="45.28" y="0" xml:space="preserve"> amendment </tspan><tspan x="6.52" y="12">request to Business </tspan><tspan x="10.15" y="24">Office with STI</tspan><tspan class="a3e3d211-fd6f-447f-b1e0-c19c6e14c5c6" x="79.17" y="24">P</tspan><tspan x="84.86" y="24" xml:space="preserve"> #</tspan></text><rect class="aec68702-ceec-44d6-ba74-8b42ec49432b" x="668.14" y="174.58" width="108.73" height="61.06"/><text class="a0d4d458-f4d1-4d1e-a1a2-d67fe97a6917" transform="translate(706.03 190.14)">Check: <tspan class="b22e05c4-1600-465b-9313-e2fcaf9b094a" x="-19.43" y="13">F</tspan><tspan x="-14.06" y="13">unding source </tspan><tspan x="-30.7" y="25">accu</tspan><tspan class="a909d4c5-cbf4-49b3-a076-438a14d89cc7" x="-9.23" y="25">r</tspan><tspan x="-5.27" y="25">ate?Pre</tspan><tspan class="ab63b6dc-7625-4907-97c8-f49e9a83b501" x="30.03" y="25">v</tspan><tspan x="35.62" y="25">iously </tspan><tspan x="-0.84" y="37">STIP’d?</tspan></text><path class="aec68702-ceec-44d6-ba74-8b42ec49432b" d="M202,266.94v48.34s2,6.54,39.2,6.82,38.26-7.25,38.26-7.25V267.08s0-6.69-40.29-6.69C200.94,260.39,202,266.94,202,266.94Z"/><path class="aec68702-ceec-44d6-ba74-8b42ec49432b" d="M202,275.48s-1.71,4.65,17.89,6.85c18,2,34.63,2.61,46.66-.47,13.38-3.42,12.91-6.22,12.91-6.22"/><text class="a0d4d458-f4d1-4d1e-a1a2-d67fe97a6917" transform="translate(219 297.29)">Complete <tspan x="-2.86" y="12">ZJ08 (SAP)</tspan></text><path class="aec68702-ceec-44d6-ba74-8b42ec49432b" d="M202,271.75s-1.71,4.65,17.89,6.84c18,2,34.63,2.62,46.66-.46,13.38-3.42,12.91-6.22,12.91-6.22"/><path class="aec68702-ceec-44d6-ba74-8b42ec49432b" d="M202,267.55s-1.71,4.65,17.89,6.84c18,2,34.63,2.62,46.66-.46,13.38-3.42,12.91-6.22,12.91-6.22"/><path class="aec68702-ceec-44d6-ba74-8b42ec49432b" d="M678.38,279.43v54.09s2.35,6.54,45.6,6.82,44.52-7.25,44.52-7.25V279.57s0-6.68-46.87-6.68C677.11,272.89,678.38,279.43,678.38,279.43Z"/><path class="aec68702-ceec-44d6-ba74-8b42ec49432b" d="M678.38,288s-2,4.65,20.81,6.85c21,2,40.29,2.61,54.29-.47,15.56-3.42,15-6.22,15-6.22"/><text class="a0d4d458-f4d1-4d1e-a1a2-d67fe97a6917" transform="translate(683.4 308.78)">Complete CJ20N <tspan x="10.06" y="12">Proj Mgr tab</tspan><tspan x="26.4" y="25">(SAP)</tspan></text><path class="aec68702-ceec-44d6-ba74-8b42ec49432b" d="M678.38,284.24s-2,4.65,20.81,6.85c21,2,40.29,2.61,54.29-.47,15.56-3.42,15-6.22,15-6.22"/><path class="aec68702-ceec-44d6-ba74-8b42ec49432b" d="M678.38,280s-2,4.65,20.81,6.85c21,2,40.29,2.61,54.29-.47,15.56-3.42,15-6.22,15-6.22"/><path class="aec68702-ceec-44d6-ba74-8b42ec49432b" d="M899.32,522.38v50.69s2.36,6.55,45.61,6.83,44.52-7.25,44.52-7.25V522.53s0-6.69-46.87-6.69C898.06,515.84,899.32,522.38,899.32,522.38Z"/><path class="aec68702-ceec-44d6-ba74-8b42ec49432b" d="M899.32,530.93s-2,4.65,20.82,6.85c21,2,40.29,2.61,54.29-.47,15.56-3.42,15-6.22,15-6.22"/><text class="a0d4d458-f4d1-4d1e-a1a2-d67fe97a6917" transform="translate(915.89 549.73)">Set up WBS/ <tspan x="0.84" y="12">pool in STI</tspan><tspan class="a3e3d211-fd6f-447f-b1e0-c19c6e14c5c6" x="49.86" y="12">P</tspan><tspan x="15.86" y="25">(SAP)</tspan></text><path class="aec68702-ceec-44d6-ba74-8b42ec49432b" d="M899.32,527.2s-2,4.65,20.82,6.84c21,2,40.29,2.61,54.29-.46,15.56-3.43,15-6.23,15-6.23"/><path class="aec68702-ceec-44d6-ba74-8b42ec49432b" d="M899.32,523s-2,4.65,20.82,6.84c21,2,40.29,2.61,54.29-.46,15.56-3.43,15-6.23,15-6.23"/><path class="aec68702-ceec-44d6-ba74-8b42ec49432b" d="M1212.5,421.79v44.45s2.35,6.54,45.61,6.83,44.51-7.25,44.51-7.25V421.93s0-6.69-46.87-6.69C1211.23,415.24,1212.5,421.79,1212.5,421.79Z"/><path class="aec68702-ceec-44d6-ba74-8b42ec49432b" d="M1212.5,430.33s-2,4.65,20.81,6.85c21,2,40.3,2.61,54.29-.47,15.57-3.42,15-6.22,15-6.22"/><text class="a0d4d458-f4d1-4d1e-a1a2-d67fe97a6917" transform="translate(1224.04 452.14)">Create project <tspan x="4.26" y="12">budget (SAP)</tspan></text><path class="aec68702-ceec-44d6-ba74-8b42ec49432b" d="M1212.5,426.6s-2,4.65,20.81,6.84c21,2,40.3,2.61,54.29-.46,15.57-3.43,15-6.23,15-6.23"/><path class="aec68702-ceec-44d6-ba74-8b42ec49432b" d="M1212.5,422.4s-2,4.65,20.81,6.84c21,2,40.3,2.61,54.29-.46,15.57-3.43,15-6.23,15-6.23"/><path class="aec68702-ceec-44d6-ba74-8b42ec49432b" d="M1483.23,252.7v44.46s2.36,6.54,45.61,6.82,44.52-7.25,44.52-7.25V252.84s0-6.68-46.88-6.68C1482,246.16,1483.23,252.7,1483.23,252.7Z"/><path class="aec68702-ceec-44d6-ba74-8b42ec49432b" d="M1483.23,261.25s-2,4.64,20.81,6.84c21,2,40.3,2.61,54.3-.47,15.56-3.42,15-6.22,15-6.22"/><text class="a0d4d458-f4d1-4d1e-a1a2-d67fe97a6917" transform="translate(1491.17 283.05)">Create shopping <tspan x="14.64" y="12">cart (SAP)</tspan></text><path class="aec68702-ceec-44d6-ba74-8b42ec49432b" d="M1483.23,257.51s-2,4.65,20.81,6.85c21,2,40.3,2.61,54.3-.47,15.56-3.42,15-6.22,15-6.22"/><path class="aec68702-ceec-44d6-ba74-8b42ec49432b" d="M1483.23,253.31s-2,4.65,20.81,6.85c21,2,40.3,2.61,54.3-.47,15.56-3.42,15-6.22,15-6.22"/><text class="bb55388c-5ec8-4991-991e-b14513bf73b0" transform="translate(18.5 35.72)">3-10 Budgeting Non-fede<tspan class="a909d4c5-cbf4-49b3-a076-438a14d89cc7" x="279.56" y="0">r</tspan><tspan x="289.07" y="0">al </tspan><tspan class="b22e05c4-1600-465b-9313-e2fcaf9b094a" x="316.16" y="0">F</tspan><tspan x="329.04" y="0">unds (</tspan><tspan class="e2b03c3d-53d0-4614-8809-d8625bbab572" x="397.7" y="0">F</tspan><tspan x="410.38" y="0">ASTER, SB 228, etc.) (CDO</tspan><tspan class="a3e3d211-fd6f-447f-b1e0-c19c6e14c5c6" x="705.14" y="0">T</tspan><tspan x="719.39" y="0" xml:space="preserve"> Internal)</tspan></text><text class="b7b234ea-e424-49ad-a0df-0a14160b4338" transform="translate(44.66 491.63) rotate(-90)">Business Office</text><text class="b7b234ea-e424-49ad-a0df-0a14160b4338" transform="translate(44.66 269.45) rotate(-90)">DTR Prog<tspan class="a909d4c5-cbf4-49b3-a076-438a14d89cc7" x="46.73" y="0">r</tspan><tspan x="51.09" y="0">amming Unit</tspan></text><text class="b7b234ea-e424-49ad-a0df-0a14160b4338" transform="translate(44.66 674.03) rotate(-90)">OFMB</text><text class="b7b234ea-e424-49ad-a0df-0a14160b4338" transform="translate(44.66 808.92) rotate(-90)">MPO</text><line class="e4420739-ccdd-44bc-a845-da0153f53e59" x1="64.85" y1="874.28" x2="64.85" y2="69.02"/><text class="a0d4d458-f4d1-4d1e-a1a2-d67fe97a6917" transform="translate(317.16 103.98)">MPO <tspan x="-9.16" y="12">Project?</tspan><tspan class="a91db5c3-8e22-44ce-9df8-73b8d3936da1" x="-5.58" y="25">Y</tspan><tspan x="-0.36" y="25">es/No</tspan></text><rect class="aec68702-ceec-44d6-ba74-8b42ec49432b" x="302.35" y="89.51" width="50.35" height="50.35" transform="translate(14.83 265.19) rotate(-45)"/><text class="a0d4d458-f4d1-4d1e-a1a2-d67fe97a6917" transform="translate(925.22 426.8)">Existing <tspan x="-5.31" y="12">STI</tspan><tspan class="a3e3d211-fd6f-447f-b1e0-c19c6e14c5c6" x="8.7" y="12">P</tspan><tspan x="14.39" y="12" xml:space="preserve"> WBS?</tspan><tspan class="a91db5c3-8e22-44ce-9df8-73b8d3936da1" x="2.43" y="25">Y</tspan><tspan x="7.65" y="25">es/No</tspan></text><rect class="aec68702-ceec-44d6-ba74-8b42ec49432b" x="918.42" y="409.33" width="50.35" height="50.35" transform="translate(-30.87 794.49) rotate(-45)"/><text class="a0d4d458-f4d1-4d1e-a1a2-d67fe97a6917" transform="translate(1142.15 636.75)">Approve STI<tspan class="a3e3d211-fd6f-447f-b1e0-c19c6e14c5c6" x="55.96" y="0">P</tspan><tspan x="61.65" y="0"> </tspan><tspan x="2.53" y="12">Amendment</tspan></text><rect class="aec68702-ceec-44d6-ba74-8b42ec49432b" x="1142.32" y="607.8" width="61.3" height="61.3" transform="translate(-107.9 1016.41) rotate(-45)"/><text class="a0d4d458-f4d1-4d1e-a1a2-d67fe97a6917" transform="translate(797.85 642.6)">Approve <tspan x="4.55" y="12">CJ20N</tspan></text><rect class="aec68702-ceec-44d6-ba74-8b42ec49432b" x="792.34" y="620.12" width="50.35" height="50.35" transform="translate(-216.85 767.07) rotate(-45)"/><circle class="fe282081-bc8a-4682-bf34-d16a2067658b" cx="97.74" cy="112.43" r="22.5"/><text class="ac3e5f20-e887-4091-bbc9-0d286dc7031e" transform="translate(85.43 118.3)">3-4</text><circle class="fe282081-bc8a-4682-bf34-d16a2067658b" cx="1077.66" cy="373.11" r="22.5"/><text class="ac3e5f20-e887-4091-bbc9-0d286dc7031e" transform="translate(1065.35 378.99)">3-8</text><polygon class="e4420739-ccdd-44bc-a845-da0153f53e59" points="1595.96 874.61 18.4 874.61 18.4 68.89 56.52 68.89 1595.96 68.89 1595.96 874.61"/><text class="a0d4d458-f4d1-4d1e-a1a2-d67fe97a6917" transform="translate(218.55 483.21)">Approve/ <tspan x="6.24" y="12">Reject </tspan><tspan x="10.1" y="24">ZJ08</tspan></text><rect class="aec68702-ceec-44d6-ba74-8b42ec49432b" x="214.99" y="462.75" width="50.35" height="50.35" transform="translate(-274.67 312.74) rotate(-45)"/><rect class="eb303c8c-6a3c-42ed-8756-e02c84dbde5f" x="215.81" y="379.26" width="49.23" height="17.57"/><text class="ad443407-0473-4582-b71f-b476bb97772e" transform="translate(218.86 391.79)">APPROVE</text><text class="a0d4d458-f4d1-4d1e-a1a2-d67fe97a6917" transform="translate(218.55 665.35)">Approve/ <tspan x="6.24" y="12">Reject </tspan><tspan x="10.1" y="24">ZJ08</tspan></text><rect class="aec68702-ceec-44d6-ba74-8b42ec49432b" x="214.99" y="644.89" width="50.35" height="50.35" transform="translate(-403.47 366.08) rotate(-45)"/><rect class="eb303c8c-6a3c-42ed-8756-e02c84dbde5f" x="215.81" y="578.34" width="49.23" height="17.57"/><text class="ad443407-0473-4582-b71f-b476bb97772e" transform="translate(218.86 590.87)">APPROVE</text><path class="ebd67109-993c-40e1-bdca-d4757373d047" d="M238.39,93.93h9.66s-7.2,10.69-7.2,20.89,7.2,20.28,7.2,20.28"/><path class="aec68702-ceec-44d6-ba74-8b42ec49432b" d="M163.79,135.1s-7.21-10.08-7.21-20.28,7.21-20.89,7.21-20.89h84.54s7.2,10.08,7.2,20.28-7.2,20.89-7.2,20.89Z"/><text class="a0d4d458-f4d1-4d1e-a1a2-d67fe97a6917" transform="matrix(1, 0, 0, 1, 173.31, 111.29)">Build award<tspan x="1.78" y="12">(COTRAMS)</tspan></text><path class="ebd67109-993c-40e1-bdca-d4757373d047" d="M754.84,88.92h9.66s-7.2,12.89-7.2,25.18,7.2,24.43,7.2,24.43"/><path class="aec68702-ceec-44d6-ba74-8b42ec49432b" d="M680.23,138.53S673,126.39,673,114.1s7.2-25.18,7.2-25.18h84.55s7.2,12.15,7.2,24.44-7.2,25.17-7.2,25.17Z"/><text class="a0d4d458-f4d1-4d1e-a1a2-d67fe97a6917" transform="matrix(1, 0, 0, 1, 688.01, 106.29)">Build project <tspan x="14.3" y="12">budget</tspan><tspan x="4.62" y="24">(COTRAMS)</tspan></text><path class="ebd67109-993c-40e1-bdca-d4757373d047" d="M1431.22,419h9.67s-7.21,12.88-7.21,25.17,7.21,24.44,7.21,24.44"/><path class="aec68702-ceec-44d6-ba74-8b42ec49432b" d="M1356.62,468.65s-7.2-12.14-7.2-24.44,7.2-25.17,7.2-25.17h84.55s7.2,12.15,7.2,24.44-7.2,25.17-7.2,25.17Z"/><text class="a0d4d458-f4d1-4d1e-a1a2-d67fe97a6917" transform="matrix(1, 0, 0, 1, 1360.32, 435.41)">Mark<tspan class="e2b03c3d-53d0-4614-8809-d8625bbab572" x="22.53" y="0"> </tspan><tspan class="a3e3d211-fd6f-447f-b1e0-c19c6e14c5c6" x="24.99" y="0">A</tspan><tspan x="31.14" y="0">ward as </tspan><tspan x="5.66" y="12">budgeted in </tspan><tspan x="-2.37" y="24">SA</tspan><tspan class="a3e3d211-fd6f-447f-b1e0-c19c6e14c5c6" x="9.08" y="24">P</tspan><tspan x="14.77" y="24" xml:space="preserve"> (COTRAMS)</tspan></text><line class="aec68702-ceec-44d6-ba74-8b42ec49432b" x1="249.01" y1="114.84" x2="280.93" y2="114.79"/><polygon class="ae2fef72-bc35-4279-9ecf-e4035106380f" points="279.19 120.77 289.54 114.77 279.16 108.81 279.19 120.77"/><line class="aec68702-ceec-44d6-ba74-8b42ec49432b" x1="362.35" y1="114.51" x2="429.36" y2="114.44"/><polygon class="ae2fef72-bc35-4279-9ecf-e4035106380f" points="427.61 120.43 437.97 114.44 427.6 108.46 427.61 120.43"/><line class="aec68702-ceec-44d6-ba74-8b42ec49432b" x1="723.41" y1="175.03" x2="723.36" y2="148.69"/><polygon class="ae2fef72-bc35-4279-9ecf-e4035106380f" points="729.35 150.42 723.34 140.07 717.38 150.45 729.35 150.42"/><line class="aec68702-ceec-44d6-ba74-8b42ec49432b" x1="723.41" y1="272.4" x2="723.36" y2="246.05"/><polygon class="ae2fef72-bc35-4279-9ecf-e4035106380f" points="729.35 247.79 723.34 237.44 717.38 247.81 729.35 247.79"/><polyline class="aec68702-ceec-44d6-ba74-8b42ec49432b" points="275.08 818.97 152.73 819.04 152.73 295.22 189.92 295.22"/><polygon class="ae2fef72-bc35-4279-9ecf-e4035106380f" points="188.17 301.21 198.53 295.22 188.17 289.24 188.17 301.21"/><polyline class="aec68702-ceec-44d6-ba74-8b42ec49432b" points="563.92 646.97 563.35 307.57 666.28 307.62"/><polygon class="ae2fef72-bc35-4279-9ecf-e4035106380f" points="664.52 313.6 674.89 307.62 664.53 301.63 664.52 313.6"/><rect class="a33e3512-0f3c-4992-ab94-7851da54eaa2" x="312.82" y="200.27" width="26.58" height="17.57"/><text class="ad443407-0473-4582-b71f-b476bb97772e" transform="translate(319.29 212.79)">NO</text><rect class="eb303c8c-6a3c-42ed-8756-e02c84dbde5f" x="380.51" y="105.47" width="31.28" height="17.57"/><text class="ad443407-0473-4582-b71f-b476bb97772e" transform="translate(387.68 117.99)">YES</text><rect class="eb303c8c-6a3c-42ed-8756-e02c84dbde5f" x="784.7" y="197.22" width="31.28" height="17.57"/><text class="ad443407-0473-4582-b71f-b476bb97772e" transform="translate(791.87 209.75)">YES</text><line class="aec68702-ceec-44d6-ba74-8b42ec49432b" x1="979.2" y1="434.31" x2="1029.19" y2="434.25"/><polygon class="ae2fef72-bc35-4279-9ecf-e4035106380f" points="1027.45 440.24 1037.8 434.24 1027.43 428.27 1027.45 440.24"/><rect class="aec68702-ceec-44d6-ba74-8b42ec49432b" x="1041.99" y="523.57" width="70.64" height="47.11"/><text class="a0d4d458-f4d1-4d1e-a1a2-d67fe97a6917" transform="translate(1049.23 548.9)">Update STI<tspan class="a3e3d211-fd6f-447f-b1e0-c19c6e14c5c6" x="50.47" y="0">P</tspan></text><rect class="aec68702-ceec-44d6-ba74-8b42ec49432b" x="1363.54" y="250.88" width="70.64" height="47.11"/><text class="a0d4d458-f4d1-4d1e-a1a2-d67fe97a6917" transform="translate(1371.55 276.21)">Attach SOW</text><line class="aec68702-ceec-44d6-ba74-8b42ec49432b" x1="989.41" y1="546.38" x2="1029.19" y2="546.32"/><polygon class="ae2fef72-bc35-4279-9ecf-e4035106380f" points="1027.45 552.31 1037.8 546.31 1027.43 540.34 1027.45 552.31"/><rect class="eb303c8c-6a3c-42ed-8756-e02c84dbde5f" x="989.01" y="425.93" width="31.28" height="17.57"/><text class="ad443407-0473-4582-b71f-b476bb97772e" transform="translate(996.19 438.46)">YES</text><rect class="ae6f715d-dfdb-418e-b245-cac013941cad" x="1380.96" y="354.34" width="38.09" height="17.57"/><text class="a0d4d458-f4d1-4d1e-a1a2-d67fe97a6917" transform="translate(1387.23 366.87)">Email</text><line class="aec68702-ceec-44d6-ba74-8b42ec49432b" x1="668.03" y1="205.53" x2="622.78" y2="205.59"/><polygon class="ae2fef72-bc35-4279-9ecf-e4035106380f" points="624.52 199.6 614.17 205.6 624.54 211.57 624.52 199.6"/><rect class="a33e3512-0f3c-4992-ab94-7851da54eaa2" x="633.54" y="196.73" width="26.58" height="17.57"/><text class="ad443407-0473-4582-b71f-b476bb97772e" transform="translate(640.01 209.26)">NO</text><polyline class="aec68702-ceec-44d6-ba74-8b42ec49432b" points="891.35 230.22 891.35 352.37 943.4 352.37 943.4 386.25"/><polygon class="ae2fef72-bc35-4279-9ecf-e4035106380f" points="937.41 384.5 943.4 394.86 949.38 384.5 937.41 384.5"/><polyline class="aec68702-ceec-44d6-ba74-8b42ec49432b" points="1113.14 440.99 1173.4 440.99 1173.4 584.33"/><polygon class="ae2fef72-bc35-4279-9ecf-e4035106380f" points="1167.42 582.58 1173.4 592.94 1179.39 582.58 1167.42 582.58"/><polyline class="aec68702-ceec-44d6-ba74-8b42ec49432b" points="1077.37 570.98 1077.37 638.65 1119.07 638.65"/><polygon class="ae2fef72-bc35-4279-9ecf-e4035106380f" points="1117.32 644.63 1127.68 638.65 1117.32 632.66 1117.32 644.63"/><polyline class="aec68702-ceec-44d6-ba74-8b42ec49432b" points="1215.3 638.44 1257.56 638.44 1257.56 483.81"/><polygon class="ae2fef72-bc35-4279-9ecf-e4035106380f" points="1263.54 485.56 1257.56 475.19 1251.57 485.56 1263.54 485.56"/><polyline class="aec68702-ceec-44d6-ba74-8b42ec49432b" points="890.3 258.87 817.32 258.87 817.32 395.16"/><polygon class="ae2fef72-bc35-4279-9ecf-e4035106380f" points="811.34 393.41 817.32 403.77 823.31 393.41 811.34 393.41"/><line class="aec68702-ceec-44d6-ba74-8b42ec49432b" x1="817.32" y1="454.57" x2="817.32" y2="601.13"/><polygon class="ae2fef72-bc35-4279-9ecf-e4035106380f" points="811.34 599.38 817.32 609.75 823.31 599.38 811.34 599.38"/><line class="aec68702-ceec-44d6-ba74-8b42ec49432b" x1="943.4" y1="469.27" x2="943.4" y2="505.47"/><polygon class="ae2fef72-bc35-4279-9ecf-e4035106380f" points="937.42 503.72 943.4 514.08 949.39 503.72 937.42 503.72"/><rect class="a33e3512-0f3c-4992-ab94-7851da54eaa2" x="930.71" y="476.59" width="26.58" height="17.57"/><text class="ad443407-0473-4582-b71f-b476bb97772e" transform="translate(937.18 489.12)">NO</text></g></svg>