<svg xmlns="http://www.w3.org/2000/svg" viewBox="0 0 1443.09 781.87"><defs><style>.a19b7531-8ce1-43f6-9a9c-f276be2b5925,.bd2fa1eb-3bf1-4700-9da3-ef7e2aec6f91{fill:#009add;}.a01a69f7-8c38-4863-8207-8dd7481f38a9,.a19b7531-8ce1-43f6-9a9c-f276be2b5925,.a2e668ac-55e7-4f8f-9509-c1898b83cd23,.be5f5ef2-891e-4047-a603-f47fa41e3f66,.bf4b4bbc-6e0b-4897-86c0-b887c840d0e8,.e5085684-4f4e-452b-8936-18d11db7d7b5,.efff80fa-f800-4359-8c0a-a3dcafd46b9e,.fcde61d9-1ba8-42cb-a253-7d63aa842c6c{stroke:#646464;}.a01a69f7-8c38-4863-8207-8dd7481f38a9,.a19b7531-8ce1-43f6-9a9c-f276be2b5925,.be5f5ef2-891e-4047-a603-f47fa41e3f66,.bf4b4bbc-6e0b-4897-86c0-b887c840d0e8,.e5085684-4f4e-452b-8936-18d11db7d7b5,.efff80fa-f800-4359-8c0a-a3dcafd46b9e,.fcde61d9-1ba8-42cb-a253-7d63aa842c6c{stroke-miterlimit:10;}.a19b7531-8ce1-43f6-9a9c-f276be2b5925,.a2e668ac-55e7-4f8f-9509-c1898b83cd23,.e5085684-4f4e-452b-8936-18d11db7d7b5{stroke-width:2px;}.a01a69f7-8c38-4863-8207-8dd7481f38a9,.a2e668ac-55e7-4f8f-9509-c1898b83cd23,.be5f5ef2-891e-4047-a603-f47fa41e3f66,.bf4b4bbc-6e0b-4897-86c0-b887c840d0e8,.e5085684-4f4e-452b-8936-18d11db7d7b5,.efff80fa-f800-4359-8c0a-a3dcafd46b9e,.fcde61d9-1ba8-42cb-a253-7d63aa842c6c{fill:none;}.a2e668ac-55e7-4f8f-9509-c1898b83cd23{stroke-linejoin:round;}.be5f5ef2-891e-4047-a603-f47fa41e3f66,.efff80fa-f800-4359-8c0a-a3dcafd46b9e,.fcde61d9-1ba8-42cb-a253-7d63aa842c6c{stroke-width:0.5px;}.fcde61d9-1ba8-42cb-a253-7d63aa842c6c{stroke-dasharray:5.01 3;}.b184f80b-c178-4623-bb60-5138266b5588,.b5104bf9-3732-4600-870e-63e15e4480ef,.bea3d938-c60a-48d5-be88-c4a95e5d54ae,.bee87772-fdd1-4d06-9312-772314048f2b{fill:#646464;}.bee87772-fdd1-4d06-9312-772314048f2b{font-size:24px;}.a70400fc-ec2d-4286-a45f-1dec747abaf3,.b5104bf9-3732-4600-870e-63e15e4480ef,.bea3d938-c60a-48d5-be88-c4a95e5d54ae,.bee87772-fdd1-4d06-9312-772314048f2b,.bfe46912-a01d-4bdb-94a7-9f4a5a81e100{font-family:TrebuchetMS-Bold, Trebuchet MS;font-weight:700;}.bc9688c8-183f-41f7-8e37-0d9f8aedbc59{letter-spacing:-0.06em;}.e919e6e9-b712-40f6-8713-c3b61a76c2d9{letter-spacing:-0.02em;}.bea3d938-c60a-48d5-be88-c4a95e5d54ae{font-size:11px;}.a471fb8b-cfed-4f70-9d7f-e82590a8522e{letter-spacing:-0.03em;}.b5104bf9-3732-4600-870e-63e15e4480ef,.bfe46912-a01d-4bdb-94a7-9f4a5a81e100{font-size:10px;}.a7346691-683e-407b-a0e2-0de2159e05ae{letter-spacing:-0.1em;}.ec85d0ad-098f-4207-bcd8-0107162d73e9{letter-spacing:0.03em;}.be5f5ef2-891e-4047-a603-f47fa41e3f66,.bf4b4bbc-6e0b-4897-86c0-b887c840d0e8{stroke-dasharray:5 3;}.a18a4baa-e1f4-418d-b2e8-cdf344cc441c{letter-spacing:-0.04em;}.fe63076e-fed7-4974-a933-a2f4d0a6f1af{letter-spacing:-0.09em;}.a70400fc-ec2d-4286-a45f-1dec747abaf3,.bfe46912-a01d-4bdb-94a7-9f4a5a81e100{fill:#fff;}.a55092e0-7bd7-4185-88e3-809085f37b9a{letter-spacing:-0.11em;}.ef79e59c-326d-4c0b-992a-d6eb4d40d7eb{letter-spacing:-0.05em;}.a5833a8e-f935-4e75-ad66-5d985b315d03{fill:#d23138;}.a70400fc-ec2d-4286-a45f-1dec747abaf3{font-size:16px;}.f2db91a9-c65b-4469-b7c4-764d45e2fa41{fill:#3eaf49;}</style></defs><title>CDOT_diagrams_CH3</title><g id="a3b98bb9-c506-4611-a862-255b513d12d8" data-name="shapes"><path class="a19b7531-8ce1-43f6-9a9c-f276be2b5925" d="M1184.36,556.13s-8.75-12.67-8.75-25.5,8.75-26.26,8.75-26.26h106.12s8.75,12.67,8.75,25.5-8.75,26.26-8.75,26.26Z"/><path class="a2e668ac-55e7-4f8f-9509-c1898b83cd23" d="M1106.66,188.36s-9.39,12.78-9.39,25.6,8.75,25.5,8.75,25.5"/><path class="e5085684-4f4e-452b-8936-18d11db7d7b5" d="M1024.49,239.46s-8.75-12.67-8.75-25.5,8.75-26.26,8.75-26.26h81.87s8.75,12.67,8.75,25.5-8.75,26.26-8.75,26.26Z"/><path class="a2e668ac-55e7-4f8f-9509-c1898b83cd23" d="M1290.78,505s-9.39,12.78-9.39,25.6,8.75,25.5,8.75,25.5"/><line class="efff80fa-f800-4359-8c0a-a3dcafd46b9e" x1="18.35" y1="253.03" x2="20.85" y2="253.03"/><line class="fcde61d9-1ba8-42cb-a253-7d63aa842c6c" x1="23.86" y1="253.03" x2="1415.99" y2="253.03"/><line class="efff80fa-f800-4359-8c0a-a3dcafd46b9e" x1="1417.49" y1="253.03" x2="1419.99" y2="253.03"/><line class="efff80fa-f800-4359-8c0a-a3dcafd46b9e" x1="18.35" y1="468.75" x2="20.85" y2="468.75"/><line class="fcde61d9-1ba8-42cb-a253-7d63aa842c6c" x1="23.86" y1="468.75" x2="1415.99" y2="468.75"/><line class="efff80fa-f800-4359-8c0a-a3dcafd46b9e" x1="1417.49" y1="468.75" x2="1419.99" y2="468.75"/><path class="e5085684-4f4e-452b-8936-18d11db7d7b5" d="M734.54,213H836.48a6,6,0,0,1,12.1,0H1004"/><polygon class="b184f80b-c178-4623-bb60-5138266b5588" points="1002.23 219.01 1012.59 213.03 1002.23 207.04 1002.23 219.01"/></g><g id="e6b2bf04-e7b1-4b50-bee3-a8b6b3e802dc" data-name="text"><text class="bee87772-fdd1-4d06-9312-772314048f2b" transform="translate(18.5 36.24)">3-20 <tspan class="bc9688c8-183f-41f7-8e37-0d9f8aedbc59" x="58.23" y="0">F</tspan><tspan x="70.91" y="0">ASTER Local and Regional Bus Planning through</tspan><tspan class="bc9688c8-183f-41f7-8e37-0d9f8aedbc59" x="602.4" y="0"> </tspan><tspan class="e919e6e9-b712-40f6-8713-c3b61a76c2d9" x="608.31" y="0">A</tspan><tspan x="623.07" y="0">ward</tspan></text><text class="bea3d938-c60a-48d5-be88-c4a95e5d54ae" transform="translate(45.19 239.39) rotate(-90)">Subrecipient/Ope<tspan class="a471fb8b-cfed-4f70-9d7f-e82590a8522e" x="90.07" y="0">r</tspan><tspan x="94.43" y="0">ator/Carrier</tspan></text><text class="bea3d938-c60a-48d5-be88-c4a95e5d54ae" transform="translate(45.52 662.4) rotate(-90)">DTR Prog<tspan class="a471fb8b-cfed-4f70-9d7f-e82590a8522e" x="46.73" y="0">r</tspan><tspan x="51.09" y="0">amming Unit</tspan></text><text class="bea3d938-c60a-48d5-be88-c4a95e5d54ae" transform="translate(45.52 423.12) rotate(-90)">DTR Bus Ope<tspan class="a471fb8b-cfed-4f70-9d7f-e82590a8522e" x="65.39" y="0">r</tspan><tspan x="69.75" y="0">ations Unit</tspan></text><line class="a01a69f7-8c38-4863-8207-8dd7481f38a9" x1="64.85" y1="761.24" x2="64.85" y2="70.73"/><polyline class="a01a69f7-8c38-4863-8207-8dd7481f38a9" points="1420.04 760.58 18.37 760.58 18.37 69.3 52.24 69.3 1420.04 69.3 1420.04 756.28"/><polygon class="b184f80b-c178-4623-bb60-5138266b5588" points="1417.05 755.4 1420.04 760.58 1423.03 755.4 1417.05 755.4"/><rect class="e5085684-4f4e-452b-8936-18d11db7d7b5" x="94.27" y="274.06" width="100.36" height="65.96"/><text class="b5104bf9-3732-4600-870e-63e15e4480ef" transform="translate(126.3 291.96)">Conduct <tspan x="-11.75" y="12">outreach and </tspan><tspan x="-6.99" y="24">planning to </tspan><tspan x="-14.23" y="36">identify needs</tspan></text><rect class="e5085684-4f4e-452b-8936-18d11db7d7b5" x="238.03" y="278.06" width="138.73" height="60.04"/><text class="b5104bf9-3732-4600-870e-63e15e4480ef" transform="translate(255.99 300.21)">Consult with<tspan class="e919e6e9-b712-40f6-8713-c3b61a76c2d9" x="58.54" y="0"> </tspan><tspan class="a7346691-683e-407b-a0e2-0de2159e05ae" x="61.37" y="0">T</tspan><tspan class="a471fb8b-cfed-4f70-9d7f-e82590a8522e" x="66.46" y="0">r</tspan><tspan x="70.42" y="0">ansit &amp; </tspan><tspan x="-5.76" y="12">Rail</tspan><tspan class="bc9688c8-183f-41f7-8e37-0d9f8aedbc59" x="11.61" y="12"> </tspan><tspan x="14.07" y="12">Ad</tspan><tspan class="ec85d0ad-098f-4207-bcd8-0107162d73e9" x="26.21" y="12">v</tspan><tspan x="31.79" y="12">isory Committee </tspan><tspan x="18.29" y="24">subcommittee</tspan></text><rect class="e5085684-4f4e-452b-8936-18d11db7d7b5" x="86.53" y="400.86" width="114.82" height="33.79"/><rect class="bf4b4bbc-6e0b-4897-86c0-b887c840d0e8" x="86.53" y="382.95" width="114.82" height="70.37"/><text class="b5104bf9-3732-4600-870e-63e15e4480ef" transform="translate(102.78 414.33)">Intercity Bus Plan <tspan x="-10.8" y="12">Statewide</tspan><tspan class="e919e6e9-b712-40f6-8713-c3b61a76c2d9" x="35.69" y="12"> </tspan><tspan class="a7346691-683e-407b-a0e2-0de2159e05ae" x="38.52" y="12">T</tspan><tspan class="a471fb8b-cfed-4f70-9d7f-e82590a8522e" x="43.61" y="12">r</tspan><tspan x="47.57" y="12">ansit Plan</tspan></text><line class="e5085684-4f4e-452b-8936-18d11db7d7b5" x1="194.9" y1="308.14" x2="225.79" y2="308.14"/><polygon class="b184f80b-c178-4623-bb60-5138266b5588" points="224.04 314.13 234.41 308.14 224.04 302.16 224.04 314.13"/><line class="e5085684-4f4e-452b-8936-18d11db7d7b5" x1="376.97" y1="308.14" x2="407.86" y2="308.14"/><polygon class="b184f80b-c178-4623-bb60-5138266b5588" points="406.11 314.13 416.47 308.14 406.11 302.16 406.11 314.13"/><line class="e5085684-4f4e-452b-8936-18d11db7d7b5" x1="486.7" y1="308.14" x2="517.59" y2="308.14"/><polygon class="b184f80b-c178-4623-bb60-5138266b5588" points="515.84 314.13 526.2 308.14 515.84 302.16 515.84 314.13"/><line class="e5085684-4f4e-452b-8936-18d11db7d7b5" x1="1110.26" y1="530.01" x2="1164.84" y2="530.01"/><polygon class="b184f80b-c178-4623-bb60-5138266b5588" points="1163.09 535.99 1173.45 530.01 1163.09 524.02 1163.09 535.99"/><line class="e5085684-4f4e-452b-8936-18d11db7d7b5" x1="1290.95" y1="530.01" x2="1323.26" y2="530.01"/><polygon class="b184f80b-c178-4623-bb60-5138266b5588" points="1321.51 535.99 1331.88 530.01 1321.51 524.02 1321.51 535.99"/><rect class="e5085684-4f4e-452b-8936-18d11db7d7b5" x="528.17" y="278.06" width="112.59" height="60.04"/><text class="b5104bf9-3732-4600-870e-63e15e4480ef" transform="translate(554.94 293.26)">Issue call for <tspan x="10.22" y="12">Projects </tspan><tspan x="-2.43" y="24">(Consolidated </tspan><tspan x="-16" y="36">Ope</tspan><tspan class="a471fb8b-cfed-4f70-9d7f-e82590a8522e" x="2.6" y="36">r</tspan><tspan x="6.56" y="36">ating Projects) </tspan></text><rect class="e5085684-4f4e-452b-8936-18d11db7d7b5" x="640.31" y="79.84" width="100.98" height="51.3"/><text class="b5104bf9-3732-4600-870e-63e15e4480ef" transform="translate(653.86 95.04)">Confirm interest <tspan x="7.94" y="12">in continuing </tspan><tspan x="21.68" y="24">ser</tspan><tspan class="ec85d0ad-098f-4207-bcd8-0107162d73e9" x="36.01" y="24">v</tspan><tspan x="41.6" y="24">ice</tspan></text><rect class="e5085684-4f4e-452b-8936-18d11db7d7b5" x="620.28" y="494.61" width="141.41" height="76.8"/><text class="b5104bf9-3732-4600-870e-63e15e4480ef" transform="translate(640.58 517.82)">Issue Call for Projects <tspan x="-5.51" y="12">(Consolidated Ope</tspan><tspan class="a471fb8b-cfed-4f70-9d7f-e82590a8522e" x="80.01" y="12">r</tspan><tspan x="83.97" y="12">ating </tspan><tspan x="-10.31" y="24">Projects) or send letter to </tspan><tspan x="1.82" y="36">existing subrecipient</tspan></text><rect class="e5085684-4f4e-452b-8936-18d11db7d7b5" x="996.52" y="597.17" width="141.41" height="140.79"/><text class="b5104bf9-3732-4600-870e-63e15e4480ef" transform="translate(1030.98 608.55)">Local Ope<tspan class="a471fb8b-cfed-4f70-9d7f-e82590a8522e" x="46.2" y="0">r</tspan><tspan x="50.16" y="0">ating </tspan><tspan x="23.42" y="12">($5M)</tspan><tspan x="18.49" y="24" xml:space="preserve">Bustang  </tspan><tspan x="18.65" y="36">($3.5M)</tspan><tspan class="a18a4baa-e1f4-418d-b2e8-cdf344cc441c" x="27.55" y="48">R</tspan><tspan x="33.26" y="48" xml:space="preserve">TD  </tspan><tspan x="23.42" y="60">($3M)</tspan><tspan x="-8.37" y="72">Statewide/Regional </tspan><tspan x="13.8" y="84">Ope</tspan><tspan class="a471fb8b-cfed-4f70-9d7f-e82590a8522e" x="32.4" y="84">r</tspan><tspan x="36.36" y="84" xml:space="preserve">ating  </tspan><tspan x="18.65" y="96">($2.5M)</tspan><tspan x="11.31" y="108">DTR</tspan><tspan class="bc9688c8-183f-41f7-8e37-0d9f8aedbc59" x="29.96" y="108"> </tspan><tspan x="32.42" y="108" xml:space="preserve">Admin  </tspan><tspan x="23.42" y="120">($1M)</tspan></text><rect class="e5085684-4f4e-452b-8936-18d11db7d7b5" x="418.27" y="278.06" width="68.97" height="60.04"/><text class="b5104bf9-3732-4600-870e-63e15e4480ef" transform="translate(434.59 304.38)">Identify <tspan x="3.18" y="12">routes</tspan></text><line class="e5085684-4f4e-452b-8936-18d11db7d7b5" x1="144.24" y1="340.51" x2="144.24" y2="373.59"/><polygon class="b184f80b-c178-4623-bb60-5138266b5588" points="138.25 371.84 144.24 382.2 150.22 371.84 138.25 371.84"/><line class="e5085684-4f4e-452b-8936-18d11db7d7b5" x1="1065.9" y1="240.82" x2="1065.9" y2="273.9"/><polygon class="b184f80b-c178-4623-bb60-5138266b5588" points="1059.92 272.15 1065.9 282.51 1071.88 272.15 1059.92 272.15"/><line class="e5085684-4f4e-452b-8936-18d11db7d7b5" x1="1065.9" y1="556.51" x2="1065.9" y2="585.5"/><polygon class="b184f80b-c178-4623-bb60-5138266b5588" points="1059.92 583.75 1065.9 594.11 1071.88 583.75 1059.92 583.75"/><line class="e5085684-4f4e-452b-8936-18d11db7d7b5" x1="1065.9" y1="333.67" x2="1065.9" y2="495.58"/><polygon class="b184f80b-c178-4623-bb60-5138266b5588" points="1059.92 493.83 1065.9 504.19 1071.88 493.83 1059.92 493.83"/><line class="e5085684-4f4e-452b-8936-18d11db7d7b5" x1="693.86" y1="492.94" x2="693.86" y2="256.99"/><polygon class="b184f80b-c178-4623-bb60-5138266b5588" points="699.85 258.74 693.87 248.38 687.88 258.74 699.85 258.74"/><line class="e5085684-4f4e-452b-8936-18d11db7d7b5" x1="693.86" y1="181.26" x2="693.86" y2="142.83"/><polygon class="b184f80b-c178-4623-bb60-5138266b5588" points="699.85 144.58 693.87 134.22 687.88 144.58 699.85 144.58"/><text class="b5104bf9-3732-4600-870e-63e15e4480ef" transform="translate(675.53 203.61)">Existing <tspan x="-16.16" y="13">subreceipient?</tspan><tspan class="fe63076e-fed7-4974-a933-a2f4d0a6f1af" x="2.43" y="26">Y</tspan><tspan x="7.65" y="26">es/No </tspan></text><polygon class="e5085684-4f4e-452b-8936-18d11db7d7b5" points="651.46 213.07 693.72 180.61 735.97 213.07 693.72 245.53 651.46 213.07"/><text class="b5104bf9-3732-4600-870e-63e15e4480ef" transform="translate(1044.17 204.44)">Submit <tspan x="-10.25" y="12">Application</tspan><tspan x="-9.62" y="24">(COTRAMS)</tspan></text><text class="bfe46912-a01d-4bdb-94a7-9f4a5a81e100" transform="translate(1199.36 521.11)">Set up award <tspan x="4.42" y="12">and budget</tspan><tspan x="4.77" y="24">(COTRAMS)</tspan></text><rect class="e5085684-4f4e-452b-8936-18d11db7d7b5" x="960.74" y="80.97" width="88.28" height="49.24"/><text class="b5104bf9-3732-4600-870e-63e15e4480ef" transform="translate(968.46 102.48)"><tspan class="a55092e0-7bd7-4185-88e3-809085f37b9a">T</tspan><tspan x="5.01" y="0">erminate g</tspan><tspan class="a471fb8b-cfed-4f70-9d7f-e82590a8522e" x="55.58" y="0">r</tspan><tspan x="59.54" y="0">ant </tspan><tspan x="12.21" y="12">agreement</tspan></text><rect class="e5085684-4f4e-452b-8936-18d11db7d7b5" x="1022.09" y="285.12" width="88.28" height="49.24"/><text class="b5104bf9-3732-4600-870e-63e15e4480ef" transform="translate(1047.08 306.63)">Evaluate <tspan x="-5.84" y="12">application</tspan></text><rect class="e5085684-4f4e-452b-8936-18d11db7d7b5" x="1022.09" y="507.86" width="88.28" height="49.24"/><text class="b5104bf9-3732-4600-870e-63e15e4480ef" transform="translate(1052.47 529.36)"><tspan class="e919e6e9-b712-40f6-8713-c3b61a76c2d9">A</tspan><tspan x="6.15" y="0">ward</tspan><tspan x="1.89" y="12">funds</tspan></text><text class="b5104bf9-3732-4600-870e-63e15e4480ef" transform="translate(828.25 91.1)">Meets <tspan class="ef79e59c-326d-4c0b-992a-d6eb4d40d7eb" x="-16.26" y="13">P</tspan><tspan x="-10.86" y="13">erformance </tspan><tspan x="-13.02" y="26">thresholds?</tspan></text><polygon class="e5085684-4f4e-452b-8936-18d11db7d7b5" points="799.6 105.56 841.86 73.11 884.11 105.56 841.86 138.03 799.6 105.56"/><line class="e5085684-4f4e-452b-8936-18d11db7d7b5" x1="884.51" y1="105.59" x2="949.55" y2="105.59"/><polygon class="b184f80b-c178-4623-bb60-5138266b5588" points="947.8 111.57 958.16 105.59 947.8 99.6 947.8 111.57"/><line class="e5085684-4f4e-452b-8936-18d11db7d7b5" x1="741.68" y1="105.59" x2="787.99" y2="105.59"/><polygon class="b184f80b-c178-4623-bb60-5138266b5588" points="786.24 111.57 796.6 105.59 786.24 99.6 786.24 111.57"/><polyline class="e5085684-4f4e-452b-8936-18d11db7d7b5" points="842.34 137.97 842.34 535.47 1009.72 535.47"/><polygon class="b184f80b-c178-4623-bb60-5138266b5588" points="1007.97 541.45 1018.34 535.47 1007.97 529.48 1007.97 541.45"/><rect class="a5833a8e-f935-4e75-ad66-5d985b315d03" x="905.36" y="96.94" width="26.58" height="17.57"/><text class="bfe46912-a01d-4bdb-94a7-9f4a5a81e100" transform="translate(911.83 108.47)">NO</text><rect class="a5833a8e-f935-4e75-ad66-5d985b315d03" x="905.36" y="204.67" width="26.58" height="17.57"/><text class="bfe46912-a01d-4bdb-94a7-9f4a5a81e100" transform="translate(911.83 216.2)">NO</text><circle class="bd2fa1eb-3bf1-4700-9da3-ef7e2aec6f91" cx="1365.3" cy="530.53" r="32.63"/><text class="a70400fc-ec2d-4286-a45f-1dec747abaf3" transform="translate(1348.3 519.87)">3-10</text><text class="bfe46912-a01d-4bdb-94a7-9f4a5a81e100" transform="translate(1342.15 531.73)">Budgeting<tspan x="-4.42" y="12">Non-fede</tspan><tspan class="a471fb8b-cfed-4f70-9d7f-e82590a8522e" x="38.49" y="12">r</tspan><tspan x="42.45" y="12">al</tspan></text><polyline class="e5085684-4f4e-452b-8936-18d11db7d7b5" points="577.67 336.76 577.67 532.98 610.11 532.98"/><polygon class="b184f80b-c178-4623-bb60-5138266b5588" points="608.36 538.97 618.72 532.98 608.36 527 608.36 538.97"/><rect class="f2db91a9-c65b-4469-b7c4-764d45e2fa41" x="677.12" y="153.92" width="31.28" height="17.57"/><text class="bfe46912-a01d-4bdb-94a7-9f4a5a81e100" transform="translate(684.29 165.45)">YES</text><rect class="be5f5ef2-891e-4047-a603-f47fa41e3f66" x="989.18" y="588.86" width="156.64" height="155.87"/></g></svg>