<svg xmlns="http://www.w3.org/2000/svg" viewBox="0 0 1122.51 729"><defs><style>.ac3ea6a8-8bbc-43b6-9ab5-910197ed0d7a,.ac6e2530-477f-4f52-ab94-045a47089e96,.e0d181f3-892f-43b8-b3f8-1ad0e2623484,.ea643b70-ffee-471d-b47a-77e9e5a75353{fill:none;}.ac3ea6a8-8bbc-43b6-9ab5-910197ed0d7a,.ac6e2530-477f-4f52-ab94-045a47089e96,.e0d181f3-892f-43b8-b3f8-1ad0e2623484,.ea643b70-ffee-471d-b47a-77e9e5a75353,.f151ac3a-7635-4e76-83e5-a67a2ab69ef9{stroke:#646464;stroke-miterlimit:10;}.e0d181f3-892f-43b8-b3f8-1ad0e2623484,.f151ac3a-7635-4e76-83e5-a67a2ab69ef9{stroke-width:2px;}.a6cad8e3-374f-4cc9-a362-e55b8ac79728,.a6ef02c3-4f92-47d0-aa39-0dee43abfc63,.b25254d3-dba8-4e10-a440-3d2b8c4aeccd,.e337a9ca-f85b-4187-8238-5f108fe274d3{fill:#646464;}.ac3ea6a8-8bbc-43b6-9ab5-910197ed0d7a,.ea643b70-ffee-471d-b47a-77e9e5a75353{stroke-width:0.5px;}.ea643b70-ffee-471d-b47a-77e9e5a75353{stroke-dasharray:4.99 3;}.a6ef02c3-4f92-47d0-aa39-0dee43abfc63{font-size:24px;}.a6ef02c3-4f92-47d0-aa39-0dee43abfc63,.b1ca0620-fb75-412d-8338-b7a303ccbaa5,.b25254d3-dba8-4e10-a440-3d2b8c4aeccd,.e337a9ca-f85b-4187-8238-5f108fe274d3,.ea725df6-220a-4d06-8346-e56517664c75{font-family:TrebuchetMS-Bold, Trebuchet MS;font-weight:700;}.a34c36b8-6ed6-4c13-a301-42b79105d854{letter-spacing:-0.06em;}.e337a9ca-f85b-4187-8238-5f108fe274d3{font-size:11px;}.fa5e4b1b-9265-491a-ae4a-d437104e2414{letter-spacing:-0.03em;}.f2681e33-bc1b-4158-b423-672e37ea7642{letter-spacing:-0.02em;}.b74555d9-a3a6-4aff-b60b-11878099acb1{letter-spacing:-0.11em;}.b25254d3-dba8-4e10-a440-3d2b8c4aeccd,.ea725df6-220a-4d06-8346-e56517664c75{font-size:10px;}.abf14883-df4e-4dcc-acc7-9e994d742244{letter-spacing:0.03em;}.e01c9ac4-08c1-4192-8d2d-34ed34d716ad{letter-spacing:-0.02em;}.a6c67b68-2c3b-4f8b-bd5a-aa1a68fc31d3{letter-spacing:-0.11em;}.fa211f9b-33e8-466a-870c-41a2a51e1ff0{letter-spacing:-0.05em;}.b1ca0620-fb75-412d-8338-b7a303ccbaa5,.ea725df6-220a-4d06-8346-e56517664c75,.f151ac3a-7635-4e76-83e5-a67a2ab69ef9{fill:#fff;}.e1b708c6-ba0d-45f3-8f92-0cfe4a861a70{fill:#3eaf49;}.a28491c4-fa92-4849-a9d4-de8ce69bbd30{fill:#d23138;}.adf460b6-264c-429d-8250-066795d59d1d{fill:#009add;}.b1ca0620-fb75-412d-8338-b7a303ccbaa5{font-size:16px;}</style></defs><title>CDOT_diagrams_CH3</title><g id="bffaa22f-b0a9-43fa-a33e-989e780a8b2d" data-name="shapes"><line class="e0d181f3-892f-43b8-b3f8-1ad0e2623484" x1="114.33" y1="113.87" x2="146.25" y2="113.87"/><polygon class="a6cad8e3-374f-4cc9-a362-e55b8ac79728" points="144.5 119.86 154.86 113.87 144.5 107.89 144.5 119.86"/><line class="e0d181f3-892f-43b8-b3f8-1ad0e2623484" x1="246.61" y1="113.87" x2="278.52" y2="113.87"/><polygon class="a6cad8e3-374f-4cc9-a362-e55b8ac79728" points="276.77 119.86 287.13 113.87 276.77 107.89 276.77 119.86"/><line class="e0d181f3-892f-43b8-b3f8-1ad0e2623484" x1="339.05" y1="141.45" x2="339.05" y2="190.96"/><polygon class="a6cad8e3-374f-4cc9-a362-e55b8ac79728" points="333.07 189.21 339.05 199.57 345.04 189.21 333.07 189.21"/><polyline class="e0d181f3-892f-43b8-b3f8-1ad0e2623484" points="488.32 283.61 488.32 412.64 553.29 412.64"/><polygon class="a6cad8e3-374f-4cc9-a362-e55b8ac79728" points="551.54 418.63 561.9 412.64 551.54 406.66 551.54 418.63"/><polyline class="e0d181f3-892f-43b8-b3f8-1ad0e2623484" points="698.08 635.12 812.48 635.12 812.48 283.12"/><polygon class="a6cad8e3-374f-4cc9-a362-e55b8ac79728" points="818.46 284.87 812.48 274.51 806.49 284.87 818.46 284.87"/><line class="e0d181f3-892f-43b8-b3f8-1ad0e2623484" x1="339.05" y1="487.7" x2="339.05" y2="367.17"/><polygon class="a6cad8e3-374f-4cc9-a362-e55b8ac79728" points="345.04 368.92 339.05 358.56 333.07 368.92 345.04 368.92"/><line class="e0d181f3-892f-43b8-b3f8-1ad0e2623484" x1="637.48" y1="446.48" x2="637.48" y2="599.59"/><polygon class="a6cad8e3-374f-4cc9-a362-e55b8ac79728" points="631.49 597.84 637.48 608.2 643.46 597.84 631.49 597.84"/><line class="ac3ea6a8-8bbc-43b6-9ab5-910197ed0d7a" x1="18.35" y1="174.94" x2="20.85" y2="174.94"/><line class="ea643b70-ffee-471d-b47a-77e9e5a75353" x1="23.85" y1="174.94" x2="1100.67" y2="174.94"/><line class="ac3ea6a8-8bbc-43b6-9ab5-910197ed0d7a" x1="1102.17" y1="174.94" x2="1104.67" y2="174.94"/><line class="ac3ea6a8-8bbc-43b6-9ab5-910197ed0d7a" x1="18.35" y1="290.92" x2="20.85" y2="290.92"/><line class="ea643b70-ffee-471d-b47a-77e9e5a75353" x1="23.85" y1="290.92" x2="1100.67" y2="290.92"/><line class="ac3ea6a8-8bbc-43b6-9ab5-910197ed0d7a" x1="1102.17" y1="290.92" x2="1104.67" y2="290.92"/><line class="ac3ea6a8-8bbc-43b6-9ab5-910197ed0d7a" x1="18.35" y1="462.94" x2="20.85" y2="462.94"/><line class="ea643b70-ffee-471d-b47a-77e9e5a75353" x1="23.85" y1="462.94" x2="1100.67" y2="462.94"/><line class="ac3ea6a8-8bbc-43b6-9ab5-910197ed0d7a" x1="1102.17" y1="462.94" x2="1104.67" y2="462.94"/><line class="ac3ea6a8-8bbc-43b6-9ab5-910197ed0d7a" x1="18.35" y1="568.48" x2="20.85" y2="568.48"/><line class="ea643b70-ffee-471d-b47a-77e9e5a75353" x1="23.85" y1="568.48" x2="1100.67" y2="568.48"/><line class="ac3ea6a8-8bbc-43b6-9ab5-910197ed0d7a" x1="1102.17" y1="568.48" x2="1104.67" y2="568.48"/><line class="e0d181f3-892f-43b8-b3f8-1ad0e2623484" x1="389.56" y1="248.02" x2="439.39" y2="248.02"/><polygon class="a6cad8e3-374f-4cc9-a362-e55b8ac79728" points="437.64 254.01 448.01 248.02 437.64 242.04 437.64 254.01"/><line class="e0d181f3-892f-43b8-b3f8-1ad0e2623484" x1="576.22" y1="247.77" x2="523.88" y2="247.77"/><polygon class="a6cad8e3-374f-4cc9-a362-e55b8ac79728" points="574.47 241.79 584.83 247.77 574.47 253.75 574.47 241.79"/><polyline class="e0d181f3-892f-43b8-b3f8-1ad0e2623484" points="881.69 118.78 812.45 118.78 812.45 221.07"/><polygon class="a6cad8e3-374f-4cc9-a362-e55b8ac79728" points="879.94 112.8 890.3 118.78 879.94 124.76 879.94 112.8"/><line class="e0d181f3-892f-43b8-b3f8-1ad0e2623484" x1="1015.39" y1="118.76" x2="963.04" y2="118.76"/><polygon class="a6cad8e3-374f-4cc9-a362-e55b8ac79728" points="1013.64 112.77 1024 118.76 1013.64 124.74 1013.64 112.77"/><line class="e0d181f3-892f-43b8-b3f8-1ad0e2623484" x1="738.44" y1="247.77" x2="686.1" y2="247.77"/><polygon class="a6cad8e3-374f-4cc9-a362-e55b8ac79728" points="736.69 241.79 747.05 247.77 736.69 253.75 736.69 241.79"/><line class="e0d181f3-892f-43b8-b3f8-1ad0e2623484" x1="927.35" y1="206" x2="927.35" y2="153.66"/><polygon class="a6cad8e3-374f-4cc9-a362-e55b8ac79728" points="933.33 204.25 927.35 214.62 921.37 204.25 933.33 204.25"/></g><g id="ec1f969a-cb18-42dd-9b53-955d91613a95" data-name="text"><text class="a6ef02c3-4f92-47d0-aa39-0dee43abfc63" transform="translate(18.5 35.68)">3-5 Subaward<tspan class="a34c36b8-6ed6-4c13-a301-42b79105d854" x="153.14" y="0"> </tspan><tspan x="159.05" y="0">Appeal Process</tspan></text><text class="e337a9ca-f85b-4187-8238-5f108fe274d3" transform="translate(45.52 154.46) rotate(-90)">Subrecipient</text><text class="e337a9ca-f85b-4187-8238-5f108fe274d3" transform="translate(45.52 406.53) rotate(-90)">DTR Director</text><text class="e337a9ca-f85b-4187-8238-5f108fe274d3" transform="translate(45.52 531.99) rotate(-90)">CRBRC</text><text class="e337a9ca-f85b-4187-8238-5f108fe274d3" transform="translate(38.01 278.3) rotate(-90)">DTR Prog<tspan class="fa5e4b1b-9265-491a-ae4a-d437104e2414" x="46.73" y="0">r</tspan><tspan x="51.09" y="0">amming </tspan><tspan x="34.78" y="13.2">Unit</tspan></text><text class="e337a9ca-f85b-4187-8238-5f108fe274d3" transform="translate(38.01 682.51) rotate(-90) scale(1.08 1)">CDO<tspan class="f2681e33-bc1b-4158-b423-672e37ea7642" x="21.53" y="0">T</tspan><tspan x="28.06" y="0" xml:space="preserve"> Executive </tspan><tspan x="-14.67" y="13.2">Directo</tspan><tspan class="b74555d9-a3a6-4aff-b60b-11878099acb1" x="22.91" y="13.2">r</tspan><tspan x="26.37" y="13.2">, OPGR, or CE</tspan></text><rect class="e0d181f3-892f-43b8-b3f8-1ad0e2623484" x="157.04" y="90.17" width="90.1" height="51.39"/><text class="b25254d3-dba8-4e10-a440-3d2b8c4aeccd" transform="translate(160.52 107.04)">Receive notice of <tspan x="11.15" y="12">unsuccessful </tspan><tspan x="14.81" y="24">application</tspan></text><rect class="e0d181f3-892f-43b8-b3f8-1ad0e2623484" x="289.31" y="90.17" width="100.2" height="51.39"/><text class="b25254d3-dba8-4e10-a440-3d2b8c4aeccd" transform="translate(305.79 107.04)">Submit appeal <tspan x="-7.05" y="12">within 30 days of </tspan><tspan x="-7.38" y="24">published awards</tspan></text><rect class="e0d181f3-892f-43b8-b3f8-1ad0e2623484" x="289.31" y="487.66" width="100.2" height="51.39"/><text class="b25254d3-dba8-4e10-a440-3d2b8c4aeccd" transform="translate(300.13 504.53)">Re<tspan class="abf14883-df4e-4dcc-acc7-9e994d742244" x="11.86" y="0">v</tspan><tspan x="17.44" y="0">iew appeal if </tspan><tspan x="15.63" y="12">related to </tspan><tspan x="5.46" y="25">discrimination </tspan></text><rect class="e0d181f3-892f-43b8-b3f8-1ad0e2623484" x="1026.25" y="92.81" width="63" height="51.39"/><text class="b25254d3-dba8-4e10-a440-3d2b8c4aeccd" transform="translate(1039.67 114.68)">Request <tspan x="0.77" y="13">Hearing</tspan></text><rect class="e0d181f3-892f-43b8-b3f8-1ad0e2623484" x="576.73" y="610.16" width="121.44" height="51.39"/><text class="b25254d3-dba8-4e10-a440-3d2b8c4aeccd" transform="matrix(1, 0, 0, 1, 593.13, 626.95)">Re<tspan class="abf14883-df4e-4dcc-acc7-9e994d742244" x="11.86" y="0">v</tspan><tspan x="17.44" y="0">iew appeal and </tspan><tspan x="2.43" y="12">work with DTR on </tspan><tspan x="-10.78" y="24">decision within 30 days</tspan></text><rect class="e0d181f3-892f-43b8-b3f8-1ad0e2623484" x="749.72" y="221.17" width="124.6" height="51.39"/><text class="b25254d3-dba8-4e10-a440-3d2b8c4aeccd" transform="matrix(1, 0, 0, 1, 758.23, 237.96)">Inform subrecipient of <tspan x="-4.31" y="12">formal resolution within </tspan><tspan x="11.49" y="24">30 days of appeal</tspan></text><rect class="e0d181f3-892f-43b8-b3f8-1ad0e2623484" x="565.32" y="380.41" width="143.81" height="64.83"/><text class="b25254d3-dba8-4e10-a440-3d2b8c4aeccd" transform="translate(574.42 397.28)">Elevate to CDO<tspan class="e01c9ac4-08c1-4192-8d2d-34ed34d716ad" x="69.92" y="0">T</tspan><tspan x="75.86" y="0" xml:space="preserve"> Executive </tspan><tspan x="4.86" y="12">Directo</tspan><tspan class="a6c67b68-2c3b-4f8b-bd5a-aa1a68fc31d3" x="39.03" y="12">r</tspan><tspan x="42.18" y="12">, Office of </tspan><tspan class="fa211f9b-33e8-466a-870c-41a2a51e1ff0" x="92.51" y="12">P</tspan><tspan x="97.92" y="12">olicy </tspan><tspan x="-1.32" y="24">and Government Relations, </tspan><tspan x="28.04" y="36">Chief Engineer</tspan></text><rect class="f151ac3a-7635-4e76-83e5-a67a2ab69ef9" x="289.31" y="204.52" width="100.2" height="149.02"/><text class="b25254d3-dba8-4e10-a440-3d2b8c4aeccd" transform="translate(304.75 277.94)">Re<tspan class="abf14883-df4e-4dcc-acc7-9e994d742244" x="11.86" y="0">v</tspan><tspan x="17.44" y="0">iew</tspan><tspan class="a34c36b8-6ed6-4c13-a301-42b79105d854" x="34.01" y="0"> </tspan><tspan x="36.47" y="0">Appeal</tspan></text><rect class="f151ac3a-7635-4e76-83e5-a67a2ab69ef9" x="586.81" y="204.52" width="100.2" height="148.83"/><text class="b25254d3-dba8-4e10-a440-3d2b8c4aeccd" transform="translate(604.15 272.93)">Make decision <tspan x="9.97" y="12">on appeal</tspan></text><line class="ac6e2530-477f-4f52-ab94-045a47089e96" x1="64.85" y1="708.93" x2="64.85" y2="69.02"/><polygon class="ac6e2530-477f-4f52-ab94-045a47089e96" points="1104.67 709.11 18.33 709.11 18.33 69.09 44.59 69.09 1104.67 69.09 1104.67 709.11"/><rect class="e1b708c6-ba0d-45f3-8f92-0cfe4a861a70" x="472.96" y="371.06" width="31.28" height="17.57"/><text class="ea725df6-220a-4d06-8346-e56517664c75" transform="translate(480.13 382.59)">YES</text><rect class="a28491c4-fa92-4849-a9d4-de8ce69bbd30" x="536.52" y="238.18" width="26.58" height="17.57"/><text class="ea725df6-220a-4d06-8346-e56517664c75" transform="translate(542.99 250.71)">NO</text><text class="b25254d3-dba8-4e10-a440-3d2b8c4aeccd" transform="translate(467.82 244.95)">Requires <tspan x="-3.48" y="12">Elevation?</tspan></text><rect class="e0d181f3-892f-43b8-b3f8-1ad0e2623484" x="463.1" y="222.82" width="50.35" height="50.35" transform="translate(-32.35 417.9) rotate(-45)"/><rect class="e1b708c6-ba0d-45f3-8f92-0cfe4a861a70" x="912.13" y="178.22" width="31.28" height="17.57"/><text class="ea725df6-220a-4d06-8346-e56517664c75" transform="translate(919.3 189.75)">YES</text><rect class="a28491c4-fa92-4849-a9d4-de8ce69bbd30" x="975.69" y="109.17" width="26.58" height="17.57"/><text class="ea725df6-220a-4d06-8346-e56517664c75" transform="translate(982.16 121.7)">NO</text><text class="b25254d3-dba8-4e10-a440-3d2b8c4aeccd" transform="translate(909.23 115.93)">Accepts <tspan x="-3.55" y="12">Decision?</tspan></text><rect class="e0d181f3-892f-43b8-b3f8-1ad0e2623484" x="902.26" y="93.81" width="50.35" height="50.35" transform="translate(187.5 690.65) rotate(-45)"/><circle class="adf460b6-264c-429d-8250-066795d59d1d" cx="97.74" cy="112.43" r="22.5"/><text class="b1ca0620-fb75-412d-8338-b7a303ccbaa5" transform="translate(85.43 118.28)">3-4</text><rect class="e0d181f3-892f-43b8-b3f8-1ad0e2623484" x="897.28" y="217.26" width="59.5" height="16.58" rx="8.29"/><text class="b25254d3-dba8-4e10-a440-3d2b8c4aeccd" transform="translate(917.92 228.62)">End</text></g></svg>